<svg xmlns="http://www.w3.org/2000/svg" width="1000" height="1000" viewBox="0 0 1000 1000">
  <g>
  <polyline points="560,400 564.7801,387.1378 567.2256,378.2676 566.4907,375.9783 562.1962,380.4814 554.512,389.5425 544.1066,399.2982 531.9782,405.662 519.2135,405.8107 506.7371,399.2124 495.1145,387.8242 484.4584,375.3877 474.4574,366.0773 464.5162,362.9897 453.963,367.0217 442.2685,376.5426 429.2124,387.9801 414.956,397.109 400,400.5755 385.044,397.109 370.7876,387.9801 357.7315,376.5426 346.037,367.0217 335.4838,362.9897 325.5426,366.0773 315.5416,375.3877 304.8855,387.8242 293.2629,399.2124 280.7865,405.8107 268.0218,405.662 255.8934,399.2982 245.488,389.5425 237.8038,380.4814 233.5093,375.9783 232.7744,378.2676 235.2199,387.1378 240,400 245.9978,412.8176 252.0872,421.5606 257.3944,423.6595 261.4945,418.9323 264.4935,409.6495 266.9785,399.7122 269.8495,393.2415 274.0793,393.0875 280.4629,399.798 289.4225,411.4178 300.9139,424.1927 314.4574,433.9227 329.2783,437.4746 344.5166,433.9083 359.4464,424.8093 373.645,413.7079 387.0662,404.7955 400,401.4037 412.9338,404.7955 426.355,413.7079 440.5536,424.8093 455.4834,433.9083 470.7217,437.4746 485.5426,433.9227 499.0861,424.1927 510.5775,411.4178 519.5371,399.798 525.9207,393.0875 530.1505,393.2415 533.0215,399.7122 535.5065,409.6495 538.5055,418.9323 542.6056,423.6595 547.9128,421.5606 554.0022,412.8176" stroke="#c0c0c0" stroke-width="1.2" fill="none" stroke-opacity="0.6"/>
  <circle cx="536" cy="400" r="7" fill="#c0c0c0" stroke="#333" stroke-width="0.5"/>
  <polyline points="491.9778,367.4855 481.5565,362.3927 471.6409,364.4415 461.591,372.5998 450.7547,383.6726 438.6773,393.4535 425.2452,398.2436 410.7258,396.1871 395.6945,387.9424 380.8722,376.4452 366.9206,365.8494 354.254,360.0288 342.9238,361.1811 332.6095,369.038 322.7206,380.967 312.5844,392.9267 301.6671,400.931 289.7688,402.4894 277.1338,397.5061 264.4451,388.3086 252.697,378.7996 242.9776,373.0362 236.2132,373.7531 232.9426,381.3638 233.1781,393.8017 236.3933,407.2592 241.6408,417.5584 247.7732,421.6569 253.7115,418.745 258.6945,410.5367 262.446,400.6489 265.2206,393.293 267.716,391.751 270.8793,397.1876 275.6567,408.2264 282.7529,421.4443 292.4611,432.6036 304.6041,438.1785 318.5996,436.6216 333.6255,428.9152 348.8389,418.2069 363.5869,408.6631 377.5517,403.9553 390.7921,405.9273 403.6723,413.9258 416.7008,425.0372 430.3273,435.1437 444.7563,440.4177 459.8329,438.7128 475.0357,430.348 489.5799,418.0001 502.6068,405.7433 513.4066,397.5824 521.6138,396.0098 527.3199,401.1075 531.0682,410.5199 533.7279,420.3066 536.2775,426.3672 539.55,425.9242 544.0076,418.527 549.604,406.2153 555.7718,392.7835 561.5414,382.4114 565.7611,378.158 567.3667,380.8621 565.6298,388.8475 560.3256,398.5386 551.7774,405.7641 540.7691,407.2745 528.3506,401.9265 515.5866,391.1032 503.3156,378.2185" stroke="#a0a0a0" stroke-width="1.2" fill="none" stroke-opacity="0.6"/>
  <circle cx="484.7946" cy="364.1139" r="6.5" fill="#a0a0a0" stroke="#333" stroke-width="0.5"/>
  <polyline points="363.1608,356.8642 350.8879,363.0296 339.8953,374.1249 329.7705,386.3331 319.8776,395.5133 309.5612,398.6984 298.3658,395.1672 286.2117,386.7003 273.4747,376.9292 260.9445,370.0139 249.6673,369.1283 240.7109,375.3009 234.9112,387.0331 232.6655,400.8308 233.8278,412.4608 237.7339,418.4755 243.3535,417.4552 249.5308,410.5191 255.2548,400.9194 259.8906,392.8636 263.3149,389.9928 265.9233,394.063 268.508,404.3078 272.0424,417.7116 277.426,430.0943 285.2592,437.6158 295.701,438.1557 308.447,432.0706 322.826,422.0544 337.9868,412.1546 353.1211,406.2998 367.6611,406.8722 381.3973,413.8424 394.4877,424.7787 407.357,435.7284 420.5182,442.6517 434.3675,442.8892 449.0142,436.1315 464.1945,424.5394 479.2964,411.9702 493.4924,402.5901 505.9435,399.373 516.021,403.0287 523.4834,411.7486 528.5571,421.8603 531.8963,429.1554 534.4263,430.4103 537.11,424.551 540.6945,413.0415 545.5059,399.3546 551.3443,387.7194 557.5101,381.5963 562.9557,382.4323 566.5266,389.1469 567.2317,398.533 564.4742,406.4275 558.1873,409.2284 548.8402,405.2074 537.3163,395.1434 524.6962,382.0474 512.0026,370.0777 499.9732,363.0377 488.9184,362.9998 478.6973,369.5543 468.8134,379.9547 458.6003,390.1079 447.4428,396.0519 434.973,395.3878 421.1873,388.147 406.4529,376.7816 391.4064,365.2819 376.7731,357.7373" stroke="#d4a574" stroke-width="1.2" fill="none" stroke-opacity="0.6"/>
  <circle cx="369.7372" cy="350.2787" r="6" fill="#d4a574" stroke="#333" stroke-width="0.5"/>
  <polyline points="246.8286,379.8745 238.7048,393.6951 233.9028,406.3908 232.6701,414.1851 234.7038,415.08 239.2151,409.5752 245.1107,400.4851 251.2489,391.9203 256.7059,387.7997 260.9844,390.4321 264.1146,399.6786 266.6228,412.9989 269.378,426.3639 273.3584,435.7051 279.3982,438.3765 287.9814,434.1003 299.1314,425.0559 312.4244,415.0808 327.1159,408.2717 342.3443,407.4954 357.3524,413.3458 371.6672,423.927 385.1884,435.5388 398.1646,444.0192 411.0664,446.2548 424.3937,441.3146 438.4752,430.795 453.318,418.2506 468.551,407.9158 483.4833,403.1796 497.2612,405.3635 509.084,413.2461 518.419,423.5045 525.1552,431.9156 529.651,434.881 532.6581,430.7265 535.1386,420.3061 538.0187,406.6934 541.9426,394.0711 547.0913,386.2232 553.1137,385.1726 559.1903,390.4585 564.2159,399.3139 567.0556,407.6779 566.8106,411.6769 563.0271,409.037 555.7965,399.9166 545.7241,386.8573 533.7745,373.8707 521.0378,364.9903 508.4756,362.8142 496.7134,367.5643 485.9294,377.0042 475.8667,387.2452 465.9587,394.1514 455.5309,394.8336 444.0214,388.6958 431.159,377.6523 417.0501,365.4404 402.1539,356.2746 387.1528,353.33 372.7592,357.6015 359.5129,367.5524 347.6287,379.6765 336.9391,389.7714 326.9505,394.4607 316.9988,392.4144 306.4638,384.8267 294.9832,374.9772 282.6043,367.036 269.8308,364.5446 257.5461,369.1234" stroke="#ffd700" stroke-width="1.2" fill="none" stroke-opacity="0.6"/>
  <circle cx="277.4682" cy="375.6591" r="7" fill="#ffd700" stroke="#333" stroke-width="0.5"/>
  <polyline points="264.8614,421.4202 267.3419,432.4062 270.349,437.1892 274.8448,434.8632 281.581,427.0438 290.916,417.2717 302.7388,409.7196 316.5167,407.6736 331.449,412.337 346.682,422.3908 361.5248,434.4697 375.6063,444.3816 388.9336,448.6285 401.8354,445.6784 414.8116,436.5277 428.3328,424.3487 442.6476,413.3497 457.6557,407.2588 472.8841,407.9797 487.5756,414.905 500.8686,425.1352 512.0186,434.526 520.6018,439.1838 526.6416,436.8704 530.622,427.8103 533.3772,414.6076 535.8854,401.305 539.0156,391.9246 543.2941,389.0197 548.7511,392.7595 554.8893,400.8791 560.7849,409.5109 565.2962,414.5971 567.3299,413.3696 566.0972,405.3638 561.2952,392.5959 553.1714,378.8417 542.4539,368.2759 530.1692,363.9644 517.3957,366.756 505.0168,374.9744 493.5362,385.0225 483.0012,392.6821 473.0495,394.639 463.0609,389.6824 452.3713,379.1463 440.4871,366.432 427.2408,355.7853 412.8472,350.7694 397.8461,352.9861 382.9499,361.5058 368.841,373.2122 355.9786,383.9365 344.4691,389.9688 334.0413,389.4013 324.1333,382.8155 314.0706,373.0659 303.2866,364.2396 291.5244,360.1665 278.9622,363.0225 266.2255,372.5298 254.2759,386.0457 244.2035,399.5079 236.9729,408.8953 233.1894,411.676 232.9444,407.7187 235.7841,399.3381 240.8097,390.456 246.8863,385.1823 252.9087,386.3276 258.0574,394.3842 261.9813,407.3443" stroke="#ff4500" stroke-width="1.2" fill="none" stroke-opacity="0.6"/>
  <circle cx="277.4682" cy="426.5537" r="5" fill="#ff4500" stroke="#333" stroke-width="0.5"/>
  <polyline points="365.6325,449.8515 379.4818,449.0211 392.643,441.507 405.5123,430.0284 418.6027,418.6734 432.3389,411.4261 446.8789,410.7297 462.0132,416.6038 477.174,426.6369 491.553,436.855 504.299,443.1554 514.7408,442.7854 522.574,435.3336 527.9576,422.8755 531.492,409.2224 534.0767,398.5445 536.6851,393.8676 540.1094,395.9871 544.7452,403.1909 550.4692,411.8917 556.6465,417.9384 562.2661,418.1317 566.1722,411.395 567.3345,399.1749 565.0888,384.9281 559.2891,372.8774 550.3327,366.4887 539.0555,367.2189 526.5253,373.9894 513.7883,383.5748 501.6342,391.7689 490.4388,394.9059 480.1224,391.1875 470.2295,381.3375 460.1047,368.3453 449.1121,356.3934 436.8392,349.3545 423.2269,349.4019 408.5936,356.2348 393.5471,367.1975 378.8127,378.2489 365.027,385.4296 352.5572,386.2971 341.3997,380.8076 331.1866,371.3277 321.3027,361.7697 311.0816,356.1667 300.0268,357.2007 287.9974,365.2203 275.3038,378.1014 262.6837,392.0043 251.1598,402.7526 241.8127,407.3372 235.5258,404.9991 232.7683,397.5014 233.4734,388.4903 237.0443,382.1756 242.4899,381.8075 248.6557,388.4993 254.4941,400.8212 259.3055,415.3119 262.89,427.7226 265.5737,434.5428 268.1037,434.258 271.4429,427.8835 276.5166,418.5832 283.979,410.512 294.0565,407.3006 306.5076,410.7339 320.7036,420.0985 335.8055,432.4384 350.9858,443.6244" stroke="#4169e1" stroke-width="1.2" fill="none" stroke-opacity="0.6"/>
  <circle cx="369.7372" cy="464.6377" r="4.5" fill="#4169e1" stroke="#333" stroke-width="0.5"/>
  <polyline points="507.5389,442.6399 517.2471,431.2513 524.3433,417.593 529.1207,405.8892 532.284,399.5705 534.7794,400.0402 537.554,406.1776 541.3055,414.7558 546.2885,421.6239 552.2268,423.2237 558.3592,417.8912 563.6067,406.4722 566.8219,392.0276 567.0574,378.7346 563.7868,370.382 557.0224,369.0026 547.303,374.1394 535.5549,383.0106 522.8662,391.5158 510.2312,395.7192 498.3329,393.2749 487.4156,384.2799 477.2794,371.2453 467.3905,358.1972 457.0762,349.2315 445.746,347.0454 433.0794,351.9743 419.1278,361.8837 404.3055,372.951 389.2742,381.0571 374.7548,383.2798 361.3227,378.9522 349.2453,369.8999 338.409,359.7738 328.3591,352.7196 318.4435,351.8658 308.0222,358.179 296.6844,370.1008 284.4134,384.0994 271.6494,395.9368 259.2309,402.1935 248.2226,401.4998 239.6744,395.0286 234.3702,386.0695 232.6333,378.8388 234.2389,376.9548 238.4586,382.1274 244.2282,393.5376 250.396,408.1285 255.9924,421.7033 260.45,430.4326 263.7225,432.2271 266.2721,427.4785 268.9318,418.9027 272.6801,410.5426 278.3862,406.292 286.5934,408.4762 297.3932,417.0025 310.4201,429.3892 324.9643,441.662 340.1671,449.7935 355.2437,451.1646 369.6727,445.5186 383.2992,435.0605 396.3277,423.6672 409.2079,415.4896 422.4483,413.4556 436.4131,418.2114 451.1611,427.8863 466.3745,438.7653 481.4004,446.6273 495.3959,448.2652" stroke="#696969" stroke-width="1.2" fill="none" stroke-opacity="0.6"/>
  <circle cx="484.7946" cy="455.8228" r="4" fill="#696969" stroke="#333" stroke-width="0.5"/>
  <line x1="400" y1="350" x2="421.6942" y2="445.0484" stroke="#c0c0c0" stroke-width="0.8"/>
  <line x1="439.0916" y1="368.8255" x2="378.3058" y2="445.0484" stroke="#c0c0c0" stroke-width="0.8"/>
  <line x1="448.7464" y1="411.126" x2="351.2536" y2="411.126" stroke="#c0c0c0" stroke-width="0.8"/>
  <line x1="421.6942" y1="445.0484" x2="360.9084" y2="368.8255" stroke="#c0c0c0" stroke-width="0.8"/>
  <line x1="378.3058" y1="445.0484" x2="400" y2="350" stroke="#c0c0c0" stroke-width="0.8"/>
  <line x1="351.2536" y1="411.126" x2="439.0916" y2="368.8255" stroke="#c0c0c0" stroke-width="0.8"/>
  <line x1="360.9084" y1="368.8255" x2="448.7464" y2="411.126" stroke="#c0c0c0" stroke-width="0.8"/>
  <text x="385" y="615" font-size="11" fill="#555" font-weight="bold">10D W7</text>
</g>
</svg>