<svg xmlns="http://www.w3.org/2000/svg" width="1000" height="1000" viewBox="0 0 1000 1000">
  <g>
  <circle cx="400" cy="400" r="250" stroke="#9b59b6" stroke-width="2.5" fill="#9b59b6" fill-opacity="0.03"/>
  <circle cx="400" cy="212.5" r="6" fill="#e74c3c" stroke="#333" stroke-width="1"/>
  <text x="388" y="198.5" font-size="8" fill="#e74c3c" font-weight="bold">Su-Su</text>
  <circle cx="520.5227" cy="256.3667" r="6" fill="#e98b6d" stroke="#333" stroke-width="1"/>
  <text x="520.0929" y="246.5779" font-size="8" fill="#e98b6d" font-weight="bold">Su-Me</text>
  <circle cx="584.6515" cy="367.441" r="6" fill="#c0392b" stroke="#333" stroke-width="1"/>
  <text x="590.378" y="368.3153" font-size="8" fill="#c0392b" font-weight="bold">Su-Sa</text>
  <circle cx="562.3798" cy="493.75" r="6" fill="#f39c12" stroke="#333" stroke-width="1"/>
  <text x="565.9682" y="506.75" font-size="8" fill="#f39c12" font-weight="bold">Me-Su</text>
  <circle cx="464.1288" cy="576.1924" r="6" fill="#f1c40f" stroke="#333" stroke-width="1"/>
  <text x="458.2851" y="597.1068" font-size="8" fill="#f1c40f" font-weight="bold">Me-Me</text>
  <circle cx="335.8712" cy="576.1924" r="6" fill="#d4ac0d" stroke="#333" stroke-width="1"/>
  <text x="317.7149" y="597.1068" font-size="8" fill="#d4ac0d" font-weight="bold">Me-Sa</text>
  <circle cx="237.6202" cy="493.75" r="6" fill="#8e44ad" stroke="#333" stroke-width="1"/>
  <text x="210.0318" y="506.75" font-size="8" fill="#8e44ad" font-weight="bold">Sa-Su</text>
  <circle cx="215.3485" cy="367.441" r="6" fill="#9b59b6" stroke="#333" stroke-width="1"/>
  <text x="185.622" y="368.3153" font-size="8" fill="#9b59b6" font-weight="bold">Sa-Me</text>
  <circle cx="279.4773" cy="256.3667" r="10" fill="#6c3483" stroke="#333" stroke-width="1"/>
  <text x="255.9071" y="246.5779" font-size="8" fill="#6c3483" font-weight="bold">Sa-Sa</text>
  <circle cx="400" cy="400" r="87.5" stroke="#3498db" stroke-width="1" fill="#3498db" fill-opacity="0.05" stroke-dasharray="2,2"/>
  <text x="490.5" y="397" font-size="7" fill="#3498db">9xB10</text>
  <circle cx="400" cy="400" r="72.5" stroke="#2ecc71" stroke-width="1" fill="#2ecc71" fill-opacity="0.05" stroke-dasharray="2,2"/>
  <text x="475.5" y="409" font-size="7" fill="#2ecc71">63xB8</text>
  <circle cx="400" cy="400" r="57.5" stroke="#f39c12" stroke-width="1" fill="#f39c12" fill-opacity="0.05" stroke-dasharray="2,2"/>
  <text x="460.5" y="421" font-size="7" fill="#f39c12">315xB6</text>
  <circle cx="400" cy="400" r="42.5" stroke="#e74c3c" stroke-width="1" fill="#e74c3c" fill-opacity="0.05" stroke-dasharray="2,2"/>
  <text x="445.5" y="433" font-size="7" fill="#e74c3c">945xB4</text>
  <line x1="400" y1="212.5" x2="464.1288" y2="576.1924" stroke="#9b59b6" stroke-width="0.6" stroke-opacity="0.4"/>
  <line x1="520.5227" y1="256.3667" x2="335.8712" y2="576.1924" stroke="#9b59b6" stroke-width="0.6" stroke-opacity="0.4"/>
  <line x1="584.6515" y1="367.441" x2="237.6202" y2="493.75" stroke="#9b59b6" stroke-width="0.6" stroke-opacity="0.4"/>
  <line x1="562.3798" y1="493.75" x2="215.3485" y2="367.441" stroke="#9b59b6" stroke-width="0.6" stroke-opacity="0.4"/>
  <line x1="464.1288" y1="576.1924" x2="279.4773" y2="256.3667" stroke="#9b59b6" stroke-width="0.6" stroke-opacity="0.4"/>
  <line x1="335.8712" y1="576.1924" x2="400" y2="212.5" stroke="#9b59b6" stroke-width="0.6" stroke-opacity="0.4"/>
  <line x1="237.6202" y1="493.75" x2="520.5227" y2="256.3667" stroke="#9b59b6" stroke-width="0.6" stroke-opacity="0.4"/>
  <line x1="215.3485" y1="367.441" x2="584.6515" y2="367.441" stroke="#9b59b6" stroke-width="0.6" stroke-opacity="0.4"/>
  <line x1="279.4773" y1="256.3667" x2="562.3798" y2="493.75" stroke="#9b59b6" stroke-width="0.6" stroke-opacity="0.4"/>
  <circle cx="400" cy="400" r="5" fill="#6c3483" stroke="#fff" stroke-width="1.5"/>
  <text x="395" y="403" font-size="8" fill="#fff" font-weight="bold">Z*</text>
  <text x="382" y="665" font-size="11" fill="#9b59b6" font-weight="bold">12D W9 Crown</text>
</g>
</svg>