<svg xmlns="http://www.w3.org/2000/svg" width="1000" height="1000" viewBox="0 0 1000 1000">
  <g>
  <line x1="363.1464" y1="518.9629" x2="513.0623" y2="507.0832" stroke="#8B4513" stroke-width="1.2" stroke-opacity="0.7"/>
  <line x1="363.1464" y1="518.9629" x2="363.1464" y2="314.7565" stroke="#DC143C" stroke-width="1.2" stroke-opacity="0.7"/>
  <line x1="363.1464" y1="518.9629" x2="363.1464" y2="485.2435" stroke="#4169E1" stroke-width="1.2" stroke-opacity="0.7"/>
  <line x1="363.1464" y1="518.9629" x2="295.5963" y2="498.8825" stroke="#228B22" stroke-width="1.2" stroke-opacity="0.7"/>
  <line x1="513.0623" y1="507.0832" x2="513.0623" y2="323.269" stroke="#DC143C" stroke-width="1.2" stroke-opacity="0.7"/>
  <line x1="513.0623" y1="507.0832" x2="513.0623" y2="476.731" stroke="#4169E1" stroke-width="1.2" stroke-opacity="0.7"/>
  <line x1="513.0623" y1="507.0832" x2="428.0466" y2="490.534" stroke="#228B22" stroke-width="1.2" stroke-opacity="0.7"/>
  <line x1="363.1464" y1="314.7565" x2="513.0623" y2="323.269" stroke="#8B4513" stroke-width="1.2" stroke-opacity="0.7"/>
  <line x1="363.1464" y1="314.7565" x2="363.1464" y2="281.0371" stroke="#4169E1" stroke-width="1.2" stroke-opacity="0.7"/>
  <line x1="363.1464" y1="314.7565" x2="295.5963" y2="329.1452" stroke="#228B22" stroke-width="1.2" stroke-opacity="0.7"/>
  <line x1="513.0623" y1="323.269" x2="513.0623" y2="292.9168" stroke="#4169E1" stroke-width="1.2" stroke-opacity="0.7"/>
  <line x1="513.0623" y1="323.269" x2="428.0466" y2="335.1274" stroke="#228B22" stroke-width="1.2" stroke-opacity="0.7"/>
  <line x1="363.1464" y1="485.2435" x2="513.0623" y2="476.731" stroke="#8B4513" stroke-width="1.2" stroke-opacity="0.7"/>
  <line x1="363.1464" y1="485.2435" x2="363.1464" y2="281.0371" stroke="#DC143C" stroke-width="1.2" stroke-opacity="0.7"/>
  <line x1="363.1464" y1="485.2435" x2="295.5963" y2="470.8548" stroke="#228B22" stroke-width="1.2" stroke-opacity="0.7"/>
  <line x1="513.0623" y1="476.731" x2="513.0623" y2="292.9168" stroke="#DC143C" stroke-width="1.2" stroke-opacity="0.7"/>
  <line x1="513.0623" y1="476.731" x2="428.0466" y2="464.8726" stroke="#228B22" stroke-width="1.2" stroke-opacity="0.7"/>
  <line x1="363.1464" y1="281.0371" x2="513.0623" y2="292.9168" stroke="#8B4513" stroke-width="1.2" stroke-opacity="0.7"/>
  <line x1="363.1464" y1="281.0371" x2="295.5963" y2="301.1175" stroke="#228B22" stroke-width="1.2" stroke-opacity="0.7"/>
  <line x1="513.0623" y1="292.9168" x2="428.0466" y2="309.466" stroke="#228B22" stroke-width="1.2" stroke-opacity="0.7"/>
  <line x1="295.5963" y1="498.8825" x2="428.0466" y2="490.534" stroke="#8B4513" stroke-width="1.2" stroke-opacity="0.7"/>
  <line x1="295.5963" y1="498.8825" x2="295.5963" y2="329.1452" stroke="#DC143C" stroke-width="1.2" stroke-opacity="0.7"/>
  <line x1="295.5963" y1="498.8825" x2="295.5963" y2="470.8548" stroke="#4169E1" stroke-width="1.2" stroke-opacity="0.7"/>
  <line x1="428.0466" y1="490.534" x2="428.0466" y2="335.1274" stroke="#DC143C" stroke-width="1.2" stroke-opacity="0.7"/>
  <line x1="428.0466" y1="490.534" x2="428.0466" y2="464.8726" stroke="#4169E1" stroke-width="1.2" stroke-opacity="0.7"/>
  <line x1="295.5963" y1="329.1452" x2="428.0466" y2="335.1274" stroke="#8B4513" stroke-width="1.2" stroke-opacity="0.7"/>
  <line x1="295.5963" y1="329.1452" x2="295.5963" y2="301.1175" stroke="#4169E1" stroke-width="1.2" stroke-opacity="0.7"/>
  <line x1="428.0466" y1="335.1274" x2="428.0466" y2="309.466" stroke="#4169E1" stroke-width="1.2" stroke-opacity="0.7"/>
  <line x1="295.5963" y1="470.8548" x2="428.0466" y2="464.8726" stroke="#8B4513" stroke-width="1.2" stroke-opacity="0.7"/>
  <line x1="295.5963" y1="470.8548" x2="295.5963" y2="301.1175" stroke="#DC143C" stroke-width="1.2" stroke-opacity="0.7"/>
  <line x1="428.0466" y1="464.8726" x2="428.0466" y2="309.466" stroke="#DC143C" stroke-width="1.2" stroke-opacity="0.7"/>
  <line x1="295.5963" y1="301.1175" x2="428.0466" y2="309.466" stroke="#8B4513" stroke-width="1.2" stroke-opacity="0.7"/>
  <circle cx="363.1464" cy="518.9629" r="2.5" fill="#8B4513" stroke="#333" stroke-width="0.5"/>
  <circle cx="513.0623" cy="507.0832" r="2.5" fill="#DC143C" stroke="#333" stroke-width="0.5"/>
  <circle cx="363.1464" cy="314.7565" r="2.5" fill="#DC143C" stroke="#333" stroke-width="0.5"/>
  <circle cx="513.0623" cy="323.269" r="2.5" fill="#4169E1" stroke="#333" stroke-width="0.5"/>
  <circle cx="363.1464" cy="485.2435" r="2.5" fill="#DC143C" stroke="#333" stroke-width="0.5"/>
  <circle cx="513.0623" cy="476.731" r="2.5" fill="#4169E1" stroke="#333" stroke-width="0.5"/>
  <circle cx="363.1464" cy="281.0371" r="2.5" fill="#4169E1" stroke="#333" stroke-width="0.5"/>
  <circle cx="513.0623" cy="292.9168" r="2.5" fill="#228B22" stroke="#333" stroke-width="0.5"/>
  <circle cx="295.5963" cy="498.8825" r="2.5" fill="#DC143C" stroke="#333" stroke-width="0.5"/>
  <circle cx="428.0466" cy="490.534" r="2.5" fill="#4169E1" stroke="#333" stroke-width="0.5"/>
  <circle cx="295.5963" cy="329.1452" r="2.5" fill="#4169E1" stroke="#333" stroke-width="0.5"/>
  <circle cx="428.0466" cy="335.1274" r="2.5" fill="#228B22" stroke="#333" stroke-width="0.5"/>
  <circle cx="295.5963" cy="470.8548" r="2.5" fill="#4169E1" stroke="#333" stroke-width="0.5"/>
  <circle cx="428.0466" cy="464.8726" r="2.5" fill="#228B22" stroke="#333" stroke-width="0.5"/>
  <circle cx="295.5963" cy="301.1175" r="2.5" fill="#228B22" stroke="#333" stroke-width="0.5"/>
  <circle cx="428.0466" cy="309.466" r="2.5" fill="#8B4513" stroke="#333" stroke-width="0.5"/>
  <text x="390" y="515" font-size="11" fill="#555" font-weight="bold">4D E4</text>
</g>
</svg>