<svg xmlns="http://www.w3.org/2000/svg" width="1000" height="1000" viewBox="0 0 1000 1000">
  <g>
  <polyline points="510.819,386.6506 506.6589,383.3647 501.3849,380.2556 495.0434,377.3601 487.6898,374.7135 479.3877,372.3493 470.2088,370.299 460.2331,368.5919 449.5478,367.2548 438.2479,366.3117 426.4348,365.7838 414.2167,365.6886 401.7073,366.0405 389.0256,366.8497 376.295,368.1225 363.6423,369.8608 351.1969,372.0619 339.0896,374.7183 327.4513,377.8175 316.4122,381.3422 306.0997,385.2696 296.6374,389.572 288.1436,394.2164 280.7296,399.165 274.4982,404.3752 269.5422,409.7997 265.9428,415.387 263.7681,421.0821 263.0721,426.8265 263.8931,432.5591 266.2529,438.2168 270.1556,443.7351 275.5874,449.0489 282.5155,454.0933 290.8887,458.8048 300.6367,463.1214 311.6709,466.9841 323.8849,470.3376 337.1554,473.1311 351.3434,475.319 366.2955,476.862 381.8459,477.7273 397.818,477.8897 414.0271,477.3319 430.2819,476.0448 446.388,474.028 462.1495,471.29 477.3724,467.848 491.8672,463.7284 505.451,458.9658 517.951,453.6033 529.2063,447.6918 539.0709,441.2894 547.415,434.4609 554.1282,427.2767 559.1199,419.8121 562.3218,412.1461 563.6881,404.3607 563.197,396.5396 560.8506,388.767 556.6752,381.1267" stroke="#e74c3c" stroke-width="1" stroke-opacity="0.8" fill="none"/>
  <polyline points="526.1044,384.8093 521.3462,380.1434 515.2766,375.6932 507.9586,371.5084 499.4674,367.636 489.8905,364.12 479.3265,361.0008 467.8841,358.3148 455.6815,356.0941 442.8448,354.3662 429.5074,353.1537 415.8082,352.4737 401.8906,352.3381 387.9011,352.7531 373.9878,353.7193 360.2989,355.2312 346.9813,357.2779 334.179,359.8423 322.0318,362.902 310.6735,366.429 300.2309,370.3898 290.8219,374.7463 282.5543,379.4554 275.525,384.4699 269.8181,389.7387 265.5042,395.2072 262.6396,400.8184 261.2654,406.5128 261.4065,412.2292 263.0717,417.9056 266.2529,423.4798 270.9253,428.8899 277.0474,434.075 284.5611,438.9761 293.3921,443.5368 303.4509,447.7035 314.6334,451.4269 326.8219,454.6617 339.8863,457.3678 353.6856,459.5107 368.0694,461.0616 382.8794,461.9983 397.9512,462.3053 413.1165,461.9741 428.2045,461.0032 443.0445,459.3984 457.4675,457.1728 471.3084,454.3465 484.4077,450.9466 496.6142,447.007 507.786,442.5678 517.7927,437.6749 526.5171,432.3798 533.8565,426.7388 539.7241,420.812 544.0498,414.6633 546.7819,408.3593 547.8867,401.9682 547.3499,395.5595 545.1763,389.2031 541.3898,382.968" stroke="#e74c3c" stroke-width="1" stroke-opacity="0.4" fill="none"/>
  <polyline points="541.3898,382.968 536.0334,376.922 529.1684,371.1307 520.8737,365.6566 511.245,360.5585 500.3934,355.8907 488.4442,351.7026 475.5352,348.0377 461.8151,344.9334 447.4417,342.4207 432.5799,340.5236 417.3996,339.2587 402.0739,338.6357 386.7766,338.6565 371.6806,339.316 356.9555,340.6016 342.7656,342.4938 329.2684,344.9663 316.6122,347.9865 304.9349,351.5158 294.3621,355.5101 285.0063,359.9207 276.9651,364.6945 270.3204,369.7748 265.1379,375.1021 261.4662,380.6148 259.3365,386.2499 258.7627,391.9434 259.7409,397.6318 262.2502,403.2521 266.2529,408.7429 271.6951,414.0447 278.5075,419.1011 286.6066,423.8589 295.8955,428.2687 306.2651,432.2857 317.5959,435.8697 329.7588,438.9858 342.6172,441.6046 356.0279,443.7023 369.8433,445.2612 383.9129,446.2693 398.0843,446.7209 412.2058,446.6163 426.1271,445.9615 439.7011,444.7688 452.7856,443.0556 465.2443,440.8449 476.9483,438.1649 487.7774,435.0483 497.621,431.5323 506.3791,427.6581 513.9634,423.4703 520.298,419.0166 525.32,414.3472 528.9798,409.5146 531.242,404.5725 532.0853,399.5757 531.5027,394.5795 529.5019,389.6392 526.1044,384.8093" stroke="#e74c3c" stroke-width="1" stroke-opacity="0.4" fill="none"/>
  <polyline points="556.6752,381.1267 550.7207,373.7007 543.0602,366.5683 533.7889,359.8049 523.0226,353.481 510.8963,347.6615 497.5619,342.4044 483.1862,337.7605 467.9487,333.7727 452.0386,330.4752 435.6524,327.8935 418.9911,326.0438 402.2571,324.9333 385.6521,324.5599 369.3734,324.9128 353.612,325.972 338.55,327.7098 324.3578,330.0903 311.1926,333.071 299.1962,336.6025 288.4934,340.6304 279.1908,345.0951 271.3758,349.9335 265.1158,355.0796 260.4577,360.4656 257.4282,366.0224 256.0334,371.6813 256.26,377.3741 258.0753,383.0345 261.4287,388.5986 266.2529,394.0059 272.4648,399.1995 279.9676,404.1272 288.6522,408.7417 298.3989,413.0007 309.0794,416.8679 320.5584,420.3125 332.6958,423.3099 345.348,425.8414 358.3701,427.894 371.6172,429.4608 384.9464,430.5403 398.2175,431.1365 411.2952,431.2584 424.0497,430.9199 436.3577,430.1392 448.1036,428.9384 459.1802,427.3433 469.4889,425.3831 478.9406,423.0895 487.456,420.4968 494.9655,417.6412 501.4097,414.5607 506.7395,411.2944 510.9159,407.8825 513.9097,404.3659 515.7021,400.7857 516.2838,397.1832 515.6556,393.5995 513.8275,390.0753 510.819,386.6506" stroke="#e74c3c" stroke-width="1" stroke-opacity="0.8" fill="none"/>
  <text x="571" y="404" font-size="10" fill="#e74c3c" font-weight="bold">Su</text>
  <polyline points="300.3723,368.9437 294.6775,375.6207 290.0716,382.5657 286.5996,389.722 284.2979,397.0306 283.1939,404.4311 283.3055,411.8615 284.641,419.2592 287.1987,426.5605 290.9668,433.7017 295.9228,440.6193 302.0337,447.2502 309.2555,453.5327 317.5333,459.4063 326.8013,464.8131 336.9829,469.6975 347.9906,474.0078 359.727,477.6956 372.0844,480.7176 384.9464,483.0354 398.1877,484.6166 411.6758,485.4351 425.2716,485.4717 438.8311,484.7148 452.2063,483.1604 465.247,480.8131 477.8025,477.6858 489.7234,473.8002 500.8631,469.1869 511.0803,463.885 520.2403,457.9423 528.2174,451.415 534.8967,444.3671 540.1758,436.8699 543.9666,429.0014 546.197,420.8455 546.8123,412.4908 545.7764,404.0301 543.0728,395.5588 538.7053,387.1741 532.6987,378.9733 525.0988,371.0531 515.9722,363.5077 505.4062,356.4277 493.5077,349.899 480.4022,344.0014 466.2326,338.8073 451.1575,334.3805 435.349,330.7758 418.9911,328.0374 402.2765,326.1987 385.4049,325.2811 368.5798,325.2945 352.0058,326.2363 335.8857,328.0915 320.418,330.833 305.7937,334.4221 292.1938,338.8083 279.7867,343.9309 268.7257,349.7189 259.1471,356.0928" stroke="#f39c12" stroke-width="1" stroke-opacity="0.8" fill="none"/>
  <polyline points="286.6306,364.6601 280.1743,371.4022 275.0092,378.458 271.19,385.7566 268.758,393.2244 267.7407,400.7863 268.151,408.3657 269.9876,415.8859 273.2348,423.2702 277.8624,430.4432 283.8259,437.3312 291.0671,443.863 299.5144,449.9706 309.0831,455.59 319.6769,460.6616 331.1879,465.1312 343.498,468.9504 356.4801,472.0769 369.9991,474.4756 383.9129,476.1183 398.0744,476.9848 412.3327,477.0626 426.5344,476.3475 440.5256,474.8435 454.1531,472.5631 467.2665,469.5271 479.7195,465.7645 491.3717,461.3123 502.09,456.2153 511.7507,450.5255 520.2403,444.3019 527.4573,437.6097 533.3136,430.5196 537.7351,423.1074 540.6635,415.4529 542.0563,407.6392 541.8883,399.7517 540.1515,391.8772 536.8557,384.1029 532.0283,376.5154 525.7146,369.1997 517.977,362.2381 508.8949,355.7095 498.5634,349.688 487.0928,344.2424 474.6072,339.4351 461.2431,335.3213 447.148,331.9485 432.4788,329.3556 417.3996,327.5726 402.0803,326.6203 386.6942,326.5095 371.4161,327.2413 356.42,328.8068 341.8775,331.1875 327.9551,334.3549 314.8125,338.2715 302.6007,342.8905 291.4599,348.1573 281.518,354.0091 272.8888,360.3765" stroke="#f39c12" stroke-width="1" stroke-opacity="0.4" fill="none"/>
  <polyline points="272.8888,360.3765 265.6711,367.1838 259.9468,374.3503 255.7804,381.7912 253.2181,389.4183 252.2874,397.1415 252.9964,404.8699 255.3342,412.5126 259.2709,419.9799 264.758,427.1847 271.729,434.0431 280.1006,440.4758 289.7732,446.4085 300.6329,451.7736 312.5524,456.5101 325.3928,460.5649 339.0054,463.893 353.2333,466.4582 367.9137,468.2335 382.8794,469.2012 397.9611,469.353 412.9896,468.6901 427.7972,467.2233 442.2201,464.9723 456.1,461.9659 469.2861,458.2412 481.6365,453.8432 493.02,448.8244 503.3169,443.2437 512.4211,437.1661 520.2403,430.6615 526.6973,423.8043 531.7305,416.672 535.2945,409.3448 537.3604,401.9044 537.9156,394.433 536.9643,387.0126 534.5266,379.7244 530.6385,372.647 525.3513,365.8567 518.7304,359.426 510.8553,353.4231 501.8175,347.9114 491.7206,342.9484 480.6779,338.5858 468.8121,334.8688 456.2535,331.8353 443.1385,329.5164 429.6085,327.9353 415.8082,327.1079 401.8841,327.0419 387.9835,327.7378 374.2523,329.188 360.8343,331.3774 347.8693,334.2835 335.4922,337.8768 323.8314,342.1208 313.0077,346.9728 303.1331,352.3837 294.3102,358.2993 286.6306,364.6601" stroke="#f39c12" stroke-width="1" stroke-opacity="0.4" fill="none"/>
  <polyline points="259.1471,356.0928 251.1679,362.9654 244.8844,370.2426 240.3708,377.8258 237.6782,385.6121 236.8341,393.4968 237.8419,401.3741 240.6809,409.1393 245.3071,416.6896 251.6536,423.9262 259.6321,430.755 269.134,437.0885 280.0321,442.8465 292.1827,447.9573 305.428,452.3587 319.5978,455.9986 334.5128,458.8356 349.9865,460.8395 365.8283,461.9915 381.8459,462.2841 397.8479,461.7211 413.6465,460.3176 429.06,458.099 443.9145,455.1011 458.0469,451.3686 471.3057,446.9552 483.5536,441.9219 494.6683,436.3365 504.5438,430.2721 513.0915,423.8066 520.2403,417.0211 525.9372,409.9989 530.1473,402.8245 532.8538,395.5823 534.0572,388.3558 533.7749,381.2267 532.0403,374.2736 528.9017,367.5715 524.4214,361.1911 518.6743,355.198 511.7463,349.6523 503.7335,344.6081 494.7402,340.1132 484.8777,336.2087 474.263,332.9292 463.0171,330.3025 451.264,328.3494 439.129,327.0843 426.7382,326.5151 414.2167,326.6431 401.6879,327.4636 389.2728,328.9662 377.0886,331.1347 365.2486,333.9479 353.8612,337.3795 343.0294,341.3987 332.8503,345.9702 323.4146,351.055 314.8064,356.6101 307.1025,362.5895 300.3723,368.9437" stroke="#f39c12" stroke-width="1" stroke-opacity="0.8" fill="none"/>
  <text x="302.5" y="310.9889" font-size="10" fill="#f39c12" font-weight="bold">Me</text>
  <polyline points="422.5088,473.3089 434.2901,472.3725 445.7281,470.6887 456.7159,468.2777 467.1497,465.1657 476.9294,461.3845 485.9589,456.9716 494.1474,451.9699 501.4097,446.428 507.667,440.3994 512.8476,433.9426 516.8878,427.1211 519.7325,420.0025 521.3363,412.6588 521.6639,405.1653 520.6911,397.6005 518.4052,390.0455 514.8063,382.5833 509.907,375.2977 503.7335,368.2733 496.3257,361.5937 487.7374,355.3414 478.0363,349.5963 467.3042,344.4349 455.6361,339.9291 443.1403,336.1456 429.9372,333.1444 416.1586,330.9779 401.9467,329.6902 387.4524,329.316 372.8342,329.88 358.256,331.3958 343.8856,333.8658 329.8927,337.2808 316.4464,341.619 303.7136,346.847 291.8559,352.9187 281.0282,359.7766 271.3758,367.3515 263.0327,375.5633 256.1189,384.3221 250.7393,393.5287 246.9808,403.0762 244.9119,412.8507 244.5804,422.7335 246.0129,432.6019 249.214,442.3313 254.1655,451.7967 260.8266,460.8745 269.134,469.4442 279.0024,477.39 290.3257,484.603 302.9776,490.9822 316.8138,496.4362 331.6735,500.885 347.3816,504.2607 363.7509,506.5086 380.5848,507.5886 397.6798,507.4752 414.8287,506.1583 431.8228,503.6436" stroke="#8e44ad" stroke-width="1" stroke-opacity="0.8" fill="none"/>
  <polyline points="425.6135,483.4205 439.0119,481.5657 451.9937,478.8324 464.4229,475.2512 476.1686,470.8612 487.107,465.7097 497.1219,459.852 506.1064,453.3503 513.9634,446.2738 520.6072,438.6976 525.9639,430.7023 529.9725,422.3729 532.5855,413.7985 533.7694,405.0709 533.5055,396.2841 531.7897,387.533 528.6331,378.9131 524.062,370.5188 518.1173,362.4427 510.8553,354.7749 502.346,347.6018 492.6738,341.0049 481.9357,335.0603 470.2412,329.8377 457.7109,325.3994 444.4756,321.7999 430.6748,319.0846 416.4555,317.29 401.9704,316.4424 387.3767,316.5581 372.8342,317.6425 358.5034,319.6904 344.5442,322.6858 331.1133,326.6017 318.3635,331.4004 306.4406,337.0341 295.483,343.4448 285.6188,350.5653 276.9651,358.3194 269.626,366.6233 263.6916,375.386 259.2365,384.5103 256.319,393.8944 254.98,403.4322 255.2426,413.0155 257.1116,422.5344 260.5733,431.8792 265.5953,440.9412 272.1272,449.6147 280.1006,457.7975 289.43,465.3928 300.0139,472.3099 311.7356,478.4659 324.4648,483.786 338.059,488.2053 352.365,491.6689 367.2212,494.133 382.459,495.5655 397.9051,495.946 413.3836,495.2667 428.7181,493.532" stroke="#8e44ad" stroke-width="1" stroke-opacity="0.4" fill="none"/>
  <polyline points="428.7181,493.532 443.7338,490.7588 458.2594,486.9761 472.1298,482.2246 485.1875,476.5566 497.2846,470.035 508.285,462.7323 518.0654,454.7306 526.5171,446.1195 533.5474,436.9958 539.0802,427.4619 543.0571,417.6248 545.4384,407.5945 546.2025,397.4831 545.3471,387.4029 542.8884,377.4656 538.8611,367.7807 533.3176,358.4542 526.3277,349.5877 517.977,341.2766 508.3664,333.6099 497.6102,326.6683 485.835,320.5243 473.1781,315.2405 459.7857,310.8697 445.8109,307.4541 431.4125,305.0249 416.7523,303.6021 401.9941,303.1947 387.301,303.8001 372.8342,305.405 358.7509,307.9851 345.2027,311.5057 332.334,315.9225 320.2805,321.1818 309.1677,327.2212 299.1101,333.9709 290.2094,341.3539 282.5543,349.2873 276.2194,357.6833 271.2643,366.4499 267.7338,375.4919 265.6572,384.7126 265.0481,394.0138 265.9048,403.2976 268.2103,412.467 271.9325,421.427 277.0251,430.0858 283.4278,438.3549 291.0671,446.1509 299.8576,453.3956 309.7021,460.0169 320.4937,465.9496 332.1159,471.1358 344.4445,475.5256 357.3485,479.0772 370.6915,481.7575 384.3332,483.5424 398.1304,484.4169 411.9386,484.3751 425.6135,483.4205" stroke="#8e44ad" stroke-width="1" stroke-opacity="0.4" fill="none"/>
  <polyline points="431.8228,503.6436 448.4556,499.952 464.5251,495.1198 479.8367,489.1981 494.2063,482.2521 507.4623,474.3602 519.4481,465.6127 530.0244,456.1109 539.0709,445.9652 546.4876,435.294 552.1964,424.2215 556.1418,412.8766 558.2913,401.3905 558.6356,389.8952 557.1887,378.5217 553.9871,367.3981 549.089,356.6482 542.5733,346.3897 534.538,336.7326 525.0988,327.7783 514.3868,319.618 502.5466,312.3318 489.7344,305.9883 476.1151,300.6433 461.8604,296.34 447.1462,293.1083 432.1501,290.9651 417.0492,289.9143 402.0178,289.9469 387.2253,291.0422 372.8342,293.1675 358.9984,296.2797 345.8613,300.3257 333.5547,305.2434 322.1975,310.9631 311.8948,317.4083 302.7372,324.497 294.8,332.1425 288.1436,340.2553 282.8127,348.7433 278.837,357.5137 276.2311,366.4736 274.9954,375.5308 275.1162,384.5953 276.567,393.5796 279.3089,402.3995 283.2918,410.9749 288.4549,419.2303 294.7284,427.0951 302.0337,434.5043 310.2851,441.3983 319.3904,447.7238 329.2518,453.4333 339.7669,458.4856 350.8299,462.8459 362.3319,466.4854 374.1618,469.3819 386.2074,471.5193 398.3557,472.8877 410.4936,473.4834 422.5088,473.3089" stroke="#8e44ad" stroke-width="1" stroke-opacity="0.8" fill="none"/>
  <text x="302.5" y="497.0111" font-size="10" fill="#8e44ad" font-weight="bold">Sa</text>
  <text x="396" y="230" font-size="14" fill="#333" font-weight="bold">+</text>
  <text x="396" y="580" font-size="14" fill="#999" font-weight="bold">-</text>
  <text x="385" y="615" font-size="11" fill="#555" font-weight="bold">6D W3</text>
</g>
</svg>