<svg xmlns="http://www.w3.org/2000/svg" width="1000" height="1000" viewBox="0 0 1000 1000">
  <g>
  <circle cx="412" cy="400" r="120" stroke="#ddd" stroke-width="0.5" fill="none"/>
  <circle cx="394" cy="410.3923" r="120" stroke="#ddd" stroke-width="0.5" fill="none"/>
  <circle cx="394" cy="389.6077" r="120" stroke="#ddd" stroke-width="0.5" fill="none"/>
  <polyline points="550,400 556.0931,380.8216 559.6583,365.1507 559.9704,355.9795 556.5806,354.5777 549.3894,360.1813 538.6645,370.2276 524.9991,381.0693 509.219,388.9738 492.2546,391.1357 475,386.4312 458.1825,375.7115 442.2657,361.5586 427.4022,347.5724 413.4425,337.3836 400,333.6611 386.5575,337.3836 372.5978,347.5724 357.7343,361.5586 341.8175,375.7115 325,386.4312 307.7454,391.1357 290.781,388.9738 275.0009,381.0693 261.3355,370.2276 250.6106,360.1813 243.4194,354.5777 240.0296,355.9795 240.3417,365.1507 243.9069,380.8216 250,400 257.7365,418.7488 266.214,433.2241 274.6535,440.6959 282.5169,440.2781 289.5818,433.1695 295.9594,422.3383 302.0557,411.7317 308.4798,405.2173 315.919,405.5397 325,413.5688 336.1615,428.0427 349.5606,445.8755 365.0287,462.9512 382.0839,475.1947 400,479.6373 417.9161,475.1947 434.9713,462.9512 450.4394,445.8755 463.8385,428.0427 475,413.5688 484.081,405.5397 491.5202,405.2173 497.9443,411.7317 504.0406,422.3383 510.4182,433.1695 517.4831,440.2781 525.3465,440.6959 533.786,433.2241 542.2635,418.7488" stroke="#e67e22" stroke-width="1.5" fill="none" stroke-opacity="0.7"/>
  <circle cx="527.5" cy="400" r="5" fill="#e67e22" stroke="#333" stroke-width="0.8"/>
  <text x="535.5" y="404" font-size="8" fill="#555">Tiger</text>
  <polyline points="442.2657,334.3012 427.4022,333.8686 413.4425,340.9053 400,353.4647 386.5575,368.1627 372.5978,381.0798 357.7343,388.8159 341.8175,389.4152 325,382.9094 307.7454,371.332 290.781,358.1946 275.0009,347.5619 261.3355,342.9702 250.6106,346.4776 243.4194,358.0995 240.0296,375.7831 240.3417,395.9299 243.9069,414.329 250,427.2574 257.7365,432.4526 266.214,429.7023 274.6535,420.8923 282.5169,409.499 289.5818,399.6621 295.9594,395.081 302.0557,398.028 308.4798,408.7391 315.919,425.3434 325,444.348 336.1615,461.5501 349.5606,473.1329 365.0287,476.6549 382.0839,471.6729 400,459.8337 417.9161,444.4156 434.9713,429.4438 450.4394,418.6181 463.8385,414.3389 475,417.0906 484.081,425.3434 491.5202,435.9965 497.9443,445.2391 504.0406,449.5957 510.4182,446.8732 517.4831,436.7563 525.3465,420.8923 533.786,402.445 542.2635,385.2414 550,372.7426 556.0931,367.1179 559.6583,368.6725 559.9704,375.7831 556.5806,385.3568 549.3894,393.6887 538.6645,397.485 524.9991,394.7731 509.219,385.452 492.2546,371.332 475,355.652 458.1825,342.2041" stroke="#95a5a6" stroke-width="1.5" fill="none" stroke-opacity="0.7"/>
  <circle cx="439.3997" cy="315.1182" r="5" fill="#95a5a6" stroke="#333" stroke-width="0.8"/>
  <text x="447.3997" y="319.1182" font-size="8" fill="#555">Crane</text>
  <polyline points="261.3355,353.3816 250.6106,371.5156 243.4194,391.0552 240.0296,407.8261 240.3417,418.4742 243.9069,421.334 250,416.846 257.7365,407.4146 266.214,396.7466 274.6535,388.8493 282.5169,386.9546 289.5818,392.6571 295.9594,405.4924 302.0557,423.066 308.4798,441.6948 315.919,457.3863 325,466.8923 336.1615,468.555 349.5606,462.7215 365.0287,451.6169 382.0839,438.7172 400,427.7907 417.9161,421.8712 434.9713,422.4388 450.4394,429.0295 463.8385,439.377 475,450.0463 484.081,457.3863 491.5202,458.5408 497.9443,452.2441 504.0406,439.1843 510.4182,421.8352 517.4831,403.8006 525.3465,388.8493 533.786,379.9006 542.2635,378.2365 550,383.154 556.0931,392.1559 559.6583,401.6282 559.9704,407.8261 556.5806,407.9011 549.3894,400.6937 538.6645,387.0736 524.9991,369.7351 509.219,352.4963 492.2546,339.2891 475,333.1077 458.1825,335.1991 442.2657,344.7126 427.4022,358.9066 413.4425,373.861 400,385.5077 386.5575,390.707 372.5978,388.0847 357.7343,378.4045 341.8175,364.3772 325,349.9537 307.7454,339.2891 290.781,335.6503 275.0009,340.557" stroke="#f1c40f" stroke-width="1.5" fill="none" stroke-opacity="0.7"/>
  <circle cx="296.8503" cy="347.5402" r="5" fill="#f1c40f" stroke="#333" stroke-width="0.8"/>
  <text x="304.8503" y="351.5402" font-size="8" fill="#555">Leopard</text>
  <polyline points="295.9594,439.1843 302.0557,452.2441 308.4798,458.5408 315.919,457.3863 325,450.0463 336.1615,439.377 349.5606,429.0295 365.0287,422.4388 382.0839,421.8712 400,427.7907 417.9161,438.7172 434.9713,451.6169 450.4394,462.7215 463.8385,468.555 475,466.8923 484.081,457.3863 491.5202,441.6948 497.9443,423.066 504.0406,405.4924 510.4182,392.6571 517.4831,386.9546 525.3465,388.8493 533.786,396.7466 542.2635,407.4146 550,416.846 556.0931,421.334 559.6583,418.4742 559.9704,407.8261 556.5806,391.0552 549.3894,371.5156 538.6645,353.3816 524.9991,340.557 509.219,335.6503 492.2546,339.2891 475,349.9537 458.1825,364.3772 442.2657,378.4045 427.4022,388.0847 413.4425,390.707 400,385.5077 386.5575,373.861 372.5978,358.9066 357.7343,344.7126 341.8175,335.1991 325,333.1077 307.7454,339.2891 290.781,352.4963 275.0009,369.7351 261.3355,387.0736 250.6106,400.6937 243.4194,407.9011 240.0296,407.8261 240.3417,401.6282 243.9069,392.1559 250,383.154 257.7365,378.2365 266.214,379.9006 274.6535,388.8493 282.5169,403.8006 289.5818,421.8352" stroke="#2ecc71" stroke-width="1.5" fill="none" stroke-opacity="0.7"/>
  <circle cx="296.8503" cy="452.4598" r="5" fill="#2ecc71" stroke="#333" stroke-width="0.8"/>
  <text x="304.8503" y="456.4598" font-size="8" fill="#555">Snake</text>
  <polyline points="450.4394,473.1329 463.8385,461.5501 475,444.348 484.081,425.3434 491.5202,408.7391 497.9443,398.028 504.0406,395.081 510.4182,399.6621 517.4831,409.499 525.3465,420.8923 533.786,429.7023 542.2635,432.4526 550,427.2574 556.0931,414.329 559.6583,395.9299 559.9704,375.7831 556.5806,358.0995 549.3894,346.4776 538.6645,342.9702 524.9991,347.5619 509.219,358.1946 492.2546,371.332 475,382.9094 458.1825,389.4152 442.2657,388.8159 427.4022,381.0798 413.4425,368.1627 400,353.4647 386.5575,340.9053 372.5978,333.8686 357.7343,334.3012 341.8175,342.2041 325,355.652 307.7454,371.332 290.781,385.452 275.0009,394.7731 261.3355,397.485 250.6106,393.6887 243.4194,385.3568 240.0296,375.7831 240.3417,368.6725 243.9069,367.1179 250,372.7426 257.7365,385.2414 266.214,402.445 274.6535,420.8923 282.5169,436.7563 289.5818,446.8732 295.9594,449.5957 302.0557,445.2391 308.4798,435.9965 315.919,425.3434 325,417.0906 336.1615,414.3389 349.5606,418.6181 365.0287,429.4438 382.0839,444.4156 400,459.8337 417.9161,471.6729 434.9713,476.6549" stroke="#e74c3c" stroke-width="1.5" fill="none" stroke-opacity="0.7"/>
  <circle cx="439.3997" cy="484.8818" r="5" fill="#e74c3c" stroke="#333" stroke-width="0.8"/>
  <text x="447.3997" y="488.8818" font-size="8" fill="#555">Dragon</text>
  <line x1="490" y1="400" x2="427.8115" y2="340.0834" stroke="#bbb" stroke-width="0.8" stroke-dasharray="3,3"/>
  <line x1="427.8115" y1="340.0834" x2="327.1885" y2="362.9695" stroke="#bbb" stroke-width="0.8" stroke-dasharray="3,3"/>
  <line x1="327.1885" y1="362.9695" x2="327.1885" y2="437.0305" stroke="#bbb" stroke-width="0.8" stroke-dasharray="3,3"/>
  <line x1="327.1885" y1="437.0305" x2="427.8115" y2="459.9166" stroke="#bbb" stroke-width="0.8" stroke-dasharray="3,3"/>
  <line x1="427.8115" y1="459.9166" x2="490" y2="400" stroke="#bbb" stroke-width="0.8" stroke-dasharray="3,3"/>
  <text x="385" y="615" font-size="11" fill="#555" font-weight="bold">8D W5</text>
</g>
</svg>