<svg xmlns="http://www.w3.org/2000/svg" width="800" height="800" viewBox="0 0 800 800">
  <g>
  <rect x="99" y="99" width="72" height="72" fill="#fff"/>
  <rect x="171" y="99" width="72" height="72" fill="#333"/>
  <rect x="243" y="99" width="72" height="72" fill="#fff"/>
  <rect x="315" y="99" width="72" height="72" fill="#333"/>
  <rect x="387" y="99" width="72" height="72" fill="#fff"/>
  <rect x="459" y="99" width="72" height="72" fill="#333"/>
  <rect x="531" y="99" width="72" height="72" fill="#fff"/>
  <rect x="603" y="99" width="72" height="72" fill="#333"/>
  <rect x="99" y="171" width="72" height="72" fill="#333"/>
  <rect x="171" y="171" width="72" height="72" fill="#fff"/>
  <rect x="243" y="171" width="72" height="72" fill="#333"/>
  <rect x="315" y="171" width="72" height="72" fill="#fff"/>
  <rect x="387" y="171" width="72" height="72" fill="#333"/>
  <rect x="459" y="171" width="72" height="72" fill="#fff"/>
  <rect x="531" y="171" width="72" height="72" fill="#333"/>
  <rect x="603" y="171" width="72" height="72" fill="#fff"/>
  <rect x="99" y="243" width="72" height="72" fill="#fff"/>
  <rect x="171" y="243" width="72" height="72" fill="#333"/>
  <rect x="243" y="243" width="72" height="72" fill="#fff"/>
  <rect x="315" y="243" width="72" height="72" fill="#333"/>
  <rect x="387" y="243" width="72" height="72" fill="#fff"/>
  <rect x="459" y="243" width="72" height="72" fill="#333"/>
  <rect x="531" y="243" width="72" height="72" fill="#fff"/>
  <rect x="603" y="243" width="72" height="72" fill="#333"/>
  <rect x="99" y="315" width="72" height="72" fill="#333"/>
  <rect x="171" y="315" width="72" height="72" fill="#fff"/>
  <rect x="243" y="315" width="72" height="72" fill="#333"/>
  <rect x="315" y="315" width="72" height="72" fill="#fff"/>
  <rect x="387" y="315" width="72" height="72" fill="#333"/>
  <rect x="459" y="315" width="72" height="72" fill="#fff"/>
  <rect x="531" y="315" width="72" height="72" fill="#333"/>
  <rect x="603" y="315" width="72" height="72" fill="#fff"/>
  <rect x="99" y="387" width="72" height="72" fill="#fff"/>
  <rect x="171" y="387" width="72" height="72" fill="#333"/>
  <rect x="243" y="387" width="72" height="72" fill="#fff"/>
  <rect x="315" y="387" width="72" height="72" fill="#333"/>
  <rect x="387" y="387" width="72" height="72" fill="#fff"/>
  <rect x="459" y="387" width="72" height="72" fill="#333"/>
  <rect x="531" y="387" width="72" height="72" fill="#fff"/>
  <rect x="603" y="387" width="72" height="72" fill="#333"/>
  <rect x="99" y="459" width="72" height="72" fill="#333"/>
  <rect x="171" y="459" width="72" height="72" fill="#fff"/>
  <rect x="243" y="459" width="72" height="72" fill="#333"/>
  <rect x="315" y="459" width="72" height="72" fill="#fff"/>
  <rect x="387" y="459" width="72" height="72" fill="#333"/>
  <rect x="459" y="459" width="72" height="72" fill="#fff"/>
  <rect x="531" y="459" width="72" height="72" fill="#333"/>
  <rect x="603" y="459" width="72" height="72" fill="#fff"/>
  <rect x="99" y="531" width="72" height="72" fill="#fff"/>
  <rect x="171" y="531" width="72" height="72" fill="#333"/>
  <rect x="243" y="531" width="72" height="72" fill="#fff"/>
  <rect x="315" y="531" width="72" height="72" fill="#333"/>
  <rect x="387" y="531" width="72" height="72" fill="#fff"/>
  <rect x="459" y="531" width="72" height="72" fill="#333"/>
  <rect x="531" y="531" width="72" height="72" fill="#fff"/>
  <rect x="603" y="531" width="72" height="72" fill="#333"/>
  <rect x="99" y="603" width="72" height="72" fill="#333"/>
  <rect x="171" y="603" width="72" height="72" fill="#fff"/>
  <rect x="243" y="603" width="72" height="72" fill="#333"/>
  <rect x="315" y="603" width="72" height="72" fill="#fff"/>
  <rect x="387" y="603" width="72" height="72" fill="#333"/>
  <rect x="459" y="603" width="72" height="72" fill="#fff"/>
  <rect x="531" y="603" width="72" height="72" fill="#333"/>
  <rect x="603" y="603" width="72" height="72" fill="#fff"/>
</g>
</svg>