<svg xmlns="http://www.w3.org/2000/svg" width="1000" height="1000" viewBox="0 0 1000 1000">
  <g>
  <circle cx="400" cy="400" r="250" stroke="#9b59b6" stroke-width="2" fill="#9b59b6" fill-opacity="0.06"/>
  <circle cx="612.5" cy="400" r="2" fill="#9b59b6" stroke="none"/>
  <text x="655" y="404" font-size="9" fill="#9b59b6" font-weight="bold">12D</text>
  <circle cx="400" cy="400" r="154.5085" stroke="#3498db" stroke-width="2" fill="#3498db" fill-opacity="0.06"/>
  <circle cx="531.3322" cy="400" r="2" fill="#3498db" stroke="none"/>
  <circle cx="500.6063" cy="484.4187" r="2" fill="#3498db" stroke="none"/>
  <circle cx="422.8056" cy="529.337" r="2" fill="#3498db" stroke="none"/>
  <circle cx="334.3339" cy="513.737" r="2" fill="#3498db" stroke="none"/>
  <circle cx="276.5881" cy="444.9183" r="2" fill="#3498db" stroke="none"/>
  <circle cx="276.5881" cy="355.0817" r="2" fill="#3498db" stroke="none"/>
  <circle cx="334.3339" cy="286.263" r="2" fill="#3498db" stroke="none"/>
  <circle cx="422.8056" cy="270.663" r="2" fill="#3498db" stroke="none"/>
  <circle cx="500.6063" cy="315.5813" r="2" fill="#3498db" stroke="none"/>
  <text x="559.5085" y="404" font-size="9" fill="#3498db" font-weight="bold">10D: 9x</text>
  <circle cx="400" cy="400" r="95.4915" stroke="#2ecc71" stroke-width="2" fill="#2ecc71" fill-opacity="0.06"/>
  <circle cx="481.1678" cy="400" r="2" fill="#2ecc71" stroke="none"/>
  <circle cx="457.3943" cy="457.3943" r="2" fill="#2ecc71" stroke="none"/>
  <circle cx="400" cy="481.1678" r="2" fill="#2ecc71" stroke="none"/>
  <circle cx="342.6057" cy="457.3943" r="2" fill="#2ecc71" stroke="none"/>
  <circle cx="318.8322" cy="400" r="2" fill="#2ecc71" stroke="none"/>
  <circle cx="342.6057" cy="342.6057" r="2" fill="#2ecc71" stroke="none"/>
  <circle cx="400" cy="318.8322" r="2" fill="#2ecc71" stroke="none"/>
  <circle cx="457.3943" cy="342.6057" r="2" fill="#2ecc71" stroke="none"/>
  <text x="500.4915" y="404" font-size="9" fill="#2ecc71" font-weight="bold">8D: 63x</text>
  <circle cx="400" cy="400" r="59.017" stroke="#f39c12" stroke-width="2" fill="#f39c12" fill-opacity="0.06"/>
  <circle cx="450.1644" cy="400" r="2" fill="#f39c12" stroke="none"/>
  <circle cx="425.0822" cy="443.4437" r="2" fill="#f39c12" stroke="none"/>
  <circle cx="374.9178" cy="443.4437" r="2" fill="#f39c12" stroke="none"/>
  <circle cx="349.8356" cy="400" r="2" fill="#f39c12" stroke="none"/>
  <circle cx="374.9178" cy="356.5563" r="2" fill="#f39c12" stroke="none"/>
  <circle cx="425.0822" cy="356.5563" r="2" fill="#f39c12" stroke="none"/>
  <text x="464.017" y="404" font-size="9" fill="#f39c12" font-weight="bold">6D: 315x</text>
  <circle cx="400" cy="400" r="36.4745" stroke="#e67e22" stroke-width="2" fill="#e67e22" fill-opacity="0.06"/>
  <circle cx="431.0033" cy="400" r="2" fill="#e67e22" stroke="none"/>
  <circle cx="400" cy="431.0033" r="2" fill="#e67e22" stroke="none"/>
  <circle cx="368.9967" cy="400" r="2" fill="#e67e22" stroke="none"/>
  <circle cx="400" cy="368.9967" r="2" fill="#e67e22" stroke="none"/>
  <text x="441.4745" y="404" font-size="9" fill="#e67e22" font-weight="bold">4D: 945x</text>
  <circle cx="400" cy="400" r="22.5425" stroke="#e74c3c" stroke-width="2" fill="#e74c3c" fill-opacity="0.06"/>
  <circle cx="419.1611" cy="400" r="2" fill="#e74c3c" stroke="none"/>
  <circle cx="390.4194" cy="416.594" r="2" fill="#e74c3c" stroke="none"/>
  <circle cx="390.4194" cy="383.406" r="2" fill="#e74c3c" stroke="none"/>
  <text x="427.5425" y="404" font-size="9" fill="#e74c3c" font-weight="bold">3D: 1890x</text>
  <text x="350" y="670" font-size="9" fill="#555">B12 = W9(B10) = 9x7x5x3x2 = 1890 seeds</text>
</g>
</svg>