<svg xmlns="http://www.w3.org/2000/svg" width="800" height="800" viewBox="0 0 800 800">
  <path d="M 399 408 A 0.0174 0.0174 0 0 1 398.9826 408.0174 A 0.0174 0.0174 0 0 1 398.9652 408 A 0.0348 0.0348 0 0 1 399 407.9652 A 0.0522 0.0522 0 0 1 399.0522 408.0174 A 0.087 0.087 0 0 1 398.9652 408.1043 A 0.1391 0.1391 0 0 1 398.8261 407.9652 A 0.2261 0.2261 0 0 1 399.0522 407.7391 A 0.3652 0.3652 0 0 1 399.4174 408.1043 A 0.5913 0.5913 0 0 1 398.8261 408.6956 A 0.9565 0.9565 0 0 1 397.8696 407.7391 A 1.5477 1.5477 0 0 1 399.4174 406.1914 A 2.5042 2.5042 0 0 1 401.9216 408.6956 A 4.0519 4.0519 0 0 1 397.8696 412.7476 A 6.5562 6.5562 0 0 1 391.3135 406.1914 A 10.6081 10.6081 0 0 1 401.9216 395.5833 A 17.1642 17.1642 0 0 1 419.0858 412.7476 A 27.7723 27.7723 0 0 1 391.3135 440.5199 A 44.9366 44.9366 0 0 1 346.3769 395.5833 A 72.7089 72.7089 0 0 1 419.0858 322.8744 A 117.6455 117.6455 0 0 1 536.7314 440.5199" fill="none" stroke="#333" stroke-width="2"/>
</svg>