<svg xmlns="http://www.w3.org/2000/svg" width="1200" height="1200" viewBox="0 0 1200 1200">
  <g>
  <g>
  <circle cx="600" cy="600" r="40.5765" stroke="#e74c3c" stroke-width="2" fill="#e74c3c" fill-opacity="0.08"/>
  <circle cx="640.5765" cy="600" r="3" fill="#e74c3c" stroke="none"/>
  <circle cx="579.7118" cy="564.8597" r="3" fill="#e74c3c" stroke="none"/>
  <circle cx="579.7118" cy="635.1403" r="3" fill="#e74c3c" stroke="none"/>
  <text x="648.5765" y="604" font-size="10" fill="#e74c3c">3D c3 seed</text>
  <circle cx="600" cy="600" r="65.6541" stroke="#e67e22" stroke-width="2" fill="#e67e22" fill-opacity="0.08"/>
  <circle cx="665.6541" cy="600" r="3" fill="#e67e22" stroke="none"/>
  <circle cx="600" cy="534.3459" r="3" fill="#e67e22" stroke="none"/>
  <circle cx="534.3459" cy="600" r="3" fill="#e67e22" stroke="none"/>
  <circle cx="600" cy="665.6541" r="3" fill="#e67e22" stroke="none"/>
  <text x="673.6541" y="604" font-size="10" fill="#e67e22">4D E4 base</text>
  <circle cx="600" cy="600" r="106.2306" stroke="#f1c40f" stroke-width="2" fill="#f1c40f" fill-opacity="0.08"/>
  <circle cx="706.2306" cy="600" r="3" fill="#f1c40f" stroke="none"/>
  <circle cx="653.1153" cy="508.0016" r="3" fill="#f1c40f" stroke="none"/>
  <circle cx="546.8847" cy="508.0016" r="3" fill="#f1c40f" stroke="none"/>
  <circle cx="493.7694" cy="600" r="3" fill="#f1c40f" stroke="none"/>
  <circle cx="546.8847" cy="691.9984" r="3" fill="#f1c40f" stroke="none"/>
  <circle cx="653.1153" cy="691.9984" r="3" fill="#f1c40f" stroke="none"/>
  <text x="714.2306" y="604" font-size="10" fill="#f1c40f">6D W3 Mobius</text>
  <circle cx="600" cy="600" r="171.8847" stroke="#2ecc71" stroke-width="2" fill="#2ecc71" fill-opacity="0.08"/>
  <circle cx="771.8847" cy="600" r="3" fill="#2ecc71" stroke="none"/>
  <circle cx="721.5408" cy="478.4592" r="3" fill="#2ecc71" stroke="none"/>
  <circle cx="600" cy="428.1153" r="3" fill="#2ecc71" stroke="none"/>
  <circle cx="478.4592" cy="478.4592" r="3" fill="#2ecc71" stroke="none"/>
  <circle cx="428.1153" cy="600" r="3" fill="#2ecc71" stroke="none"/>
  <circle cx="478.4592" cy="721.5408" r="3" fill="#2ecc71" stroke="none"/>
  <circle cx="600" cy="771.8847" r="3" fill="#2ecc71" stroke="none"/>
  <circle cx="721.5408" cy="721.5408" r="3" fill="#2ecc71" stroke="none"/>
  <text x="779.8847" y="604" font-size="10" fill="#2ecc71">8D W5 penta</text>
  <circle cx="600" cy="600" r="278.1153" stroke="#3498db" stroke-width="2" fill="#3498db" fill-opacity="0.08"/>
  <circle cx="878.1153" cy="600" r="3" fill="#3498db" stroke="none"/>
  <circle cx="825" cy="436.5279" r="3" fill="#3498db" stroke="none"/>
  <circle cx="685.9424" cy="335.4966" r="3" fill="#3498db" stroke="none"/>
  <circle cx="514.0576" cy="335.4966" r="3" fill="#3498db" stroke="none"/>
  <circle cx="375" cy="436.5279" r="3" fill="#3498db" stroke="none"/>
  <circle cx="321.8847" cy="600" r="3" fill="#3498db" stroke="none"/>
  <circle cx="375" cy="763.4721" r="3" fill="#3498db" stroke="none"/>
  <circle cx="514.0576" cy="864.5034" r="3" fill="#3498db" stroke="none"/>
  <circle cx="685.9424" cy="864.5034" r="3" fill="#3498db" stroke="none"/>
  <circle cx="825" cy="763.4721" r="3" fill="#3498db" stroke="none"/>
  <text x="886.1153" y="604" font-size="10" fill="#3498db">10D W7 hepta</text>
  <circle cx="600" cy="600" r="450" stroke="#9b59b6" stroke-width="2" fill="#9b59b6" fill-opacity="0.08"/>
  <circle cx="1050" cy="600" r="3" fill="#9b59b6" stroke="none"/>
  <circle cx="989.7114" cy="375" r="3" fill="#9b59b6" stroke="none"/>
  <circle cx="825" cy="210.2886" r="3" fill="#9b59b6" stroke="none"/>
  <circle cx="600" cy="150" r="3" fill="#9b59b6" stroke="none"/>
  <circle cx="375" cy="210.2886" r="3" fill="#9b59b6" stroke="none"/>
  <circle cx="210.2886" cy="375" r="3" fill="#9b59b6" stroke="none"/>
  <circle cx="150" cy="600" r="3" fill="#9b59b6" stroke="none"/>
  <circle cx="210.2886" cy="825" r="3" fill="#9b59b6" stroke="none"/>
  <circle cx="375" cy="989.7114" r="3" fill="#9b59b6" stroke="none"/>
  <circle cx="600" cy="1050" r="3" fill="#9b59b6" stroke="none"/>
  <circle cx="825" cy="989.7114" r="3" fill="#9b59b6" stroke="none"/>
  <circle cx="989.7114" cy="825" r="3" fill="#9b59b6" stroke="none"/>
  <text x="1058" y="604" font-size="10" fill="#9b59b6">12D W9 crown</text>
</g>
  <line x1="542.4162" y1="785.8796" x2="776.6598" y2="767.3174" stroke="#8B4513" stroke-width="1.2"/>
  <line x1="542.4162" y1="785.8796" x2="542.4162" y2="466.807" stroke="#DC143C" stroke-width="1.2"/>
  <line x1="542.4162" y1="785.8796" x2="542.4162" y2="733.193" stroke="#4169E1" stroke-width="1.2"/>
  <line x1="542.4162" y1="785.8796" x2="436.8692" y2="754.5039" stroke="#228B22" stroke-width="1.2"/>
  <line x1="776.6598" y1="767.3174" x2="776.6598" y2="480.1078" stroke="#DC143C" stroke-width="1.2"/>
  <line x1="776.6598" y1="767.3174" x2="776.6598" y2="719.8922" stroke="#4169E1" stroke-width="1.2"/>
  <line x1="776.6598" y1="767.3174" x2="643.8228" y2="741.4594" stroke="#228B22" stroke-width="1.2"/>
  <line x1="542.4162" y1="466.807" x2="776.6598" y2="480.1078" stroke="#8B4513" stroke-width="1.2"/>
  <line x1="542.4162" y1="466.807" x2="542.4162" y2="414.1204" stroke="#4169E1" stroke-width="1.2"/>
  <line x1="542.4162" y1="466.807" x2="436.8692" y2="489.2894" stroke="#228B22" stroke-width="1.2"/>
  <line x1="776.6598" y1="480.1078" x2="776.6598" y2="432.6826" stroke="#4169E1" stroke-width="1.2"/>
  <line x1="776.6598" y1="480.1078" x2="643.8228" y2="498.6365" stroke="#228B22" stroke-width="1.2"/>
  <line x1="542.4162" y1="733.193" x2="776.6598" y2="719.8922" stroke="#8B4513" stroke-width="1.2"/>
  <line x1="542.4162" y1="733.193" x2="542.4162" y2="414.1204" stroke="#DC143C" stroke-width="1.2"/>
  <line x1="542.4162" y1="733.193" x2="436.8692" y2="710.7106" stroke="#228B22" stroke-width="1.2"/>
  <line x1="776.6598" y1="719.8922" x2="776.6598" y2="432.6826" stroke="#DC143C" stroke-width="1.2"/>
  <line x1="776.6598" y1="719.8922" x2="643.8228" y2="701.3635" stroke="#228B22" stroke-width="1.2"/>
  <line x1="542.4162" y1="414.1204" x2="776.6598" y2="432.6826" stroke="#8B4513" stroke-width="1.2"/>
  <line x1="542.4162" y1="414.1204" x2="436.8692" y2="445.4961" stroke="#228B22" stroke-width="1.2"/>
  <line x1="776.6598" y1="432.6826" x2="643.8228" y2="458.5406" stroke="#228B22" stroke-width="1.2"/>
  <line x1="436.8692" y1="754.5039" x2="643.8228" y2="741.4594" stroke="#8B4513" stroke-width="1.2"/>
  <line x1="436.8692" y1="754.5039" x2="436.8692" y2="489.2894" stroke="#DC143C" stroke-width="1.2"/>
  <line x1="436.8692" y1="754.5039" x2="436.8692" y2="710.7106" stroke="#4169E1" stroke-width="1.2"/>
  <line x1="643.8228" y1="741.4594" x2="643.8228" y2="498.6365" stroke="#DC143C" stroke-width="1.2"/>
  <line x1="643.8228" y1="741.4594" x2="643.8228" y2="701.3635" stroke="#4169E1" stroke-width="1.2"/>
  <line x1="436.8692" y1="489.2894" x2="643.8228" y2="498.6365" stroke="#8B4513" stroke-width="1.2"/>
  <line x1="436.8692" y1="489.2894" x2="436.8692" y2="445.4961" stroke="#4169E1" stroke-width="1.2"/>
  <line x1="643.8228" y1="498.6365" x2="643.8228" y2="458.5406" stroke="#4169E1" stroke-width="1.2"/>
  <line x1="436.8692" y1="710.7106" x2="643.8228" y2="701.3635" stroke="#8B4513" stroke-width="1.2"/>
  <line x1="436.8692" y1="710.7106" x2="436.8692" y2="445.4961" stroke="#DC143C" stroke-width="1.2"/>
  <line x1="643.8228" y1="701.3635" x2="643.8228" y2="458.5406" stroke="#DC143C" stroke-width="1.2"/>
  <line x1="436.8692" y1="445.4961" x2="643.8228" y2="458.5406" stroke="#8B4513" stroke-width="1.2"/>
  <circle cx="542.4162" cy="785.8796" r="3" fill="#8B4513" stroke="#333" stroke-width="0.5"/>
  <circle cx="776.6598" cy="767.3174" r="3" fill="#DC143C" stroke="#333" stroke-width="0.5"/>
  <circle cx="542.4162" cy="466.807" r="3" fill="#DC143C" stroke="#333" stroke-width="0.5"/>
  <circle cx="776.6598" cy="480.1078" r="3" fill="#4169E1" stroke="#333" stroke-width="0.5"/>
  <circle cx="542.4162" cy="733.193" r="3" fill="#DC143C" stroke="#333" stroke-width="0.5"/>
  <circle cx="776.6598" cy="719.8922" r="3" fill="#4169E1" stroke="#333" stroke-width="0.5"/>
  <circle cx="542.4162" cy="414.1204" r="3" fill="#4169E1" stroke="#333" stroke-width="0.5"/>
  <circle cx="776.6598" cy="432.6826" r="3" fill="#228B22" stroke="#333" stroke-width="0.5"/>
  <circle cx="436.8692" cy="754.5039" r="3" fill="#DC143C" stroke="#333" stroke-width="0.5"/>
  <circle cx="643.8228" cy="741.4594" r="3" fill="#4169E1" stroke="#333" stroke-width="0.5"/>
  <circle cx="436.8692" cy="489.2894" r="3" fill="#4169E1" stroke="#333" stroke-width="0.5"/>
  <circle cx="643.8228" cy="498.6365" r="3" fill="#228B22" stroke="#333" stroke-width="0.5"/>
  <circle cx="436.8692" cy="710.7106" r="3" fill="#4169E1" stroke="#333" stroke-width="0.5"/>
  <circle cx="643.8228" cy="701.3635" r="3" fill="#228B22" stroke="#333" stroke-width="0.5"/>
  <circle cx="436.8692" cy="445.4961" r="3" fill="#228B22" stroke="#333" stroke-width="0.5"/>
  <circle cx="643.8228" cy="458.5406" r="3" fill="#8B4513" stroke="#333" stroke-width="0.5"/>
  <g>
  <polyline points="742.1063,578.9251 735.2039,571.7081 726.0769,564.9596 714.855,558.7971 701.6962,553.3316 686.7854,548.6655 670.3331,544.8914 652.5738,542.0914 633.7637,540.335 614.1788,539.6782 594.1119,540.1625 573.8697,541.8132 553.7693,544.6385 534.1338,548.6289 515.2885,553.7558 497.5555,559.9718 481.2491,567.2096 466.6699,575.3828 454.0995,584.3858 443.7945,594.095 435.9814,604.37 430.8505,615.0549 428.5515,625.981 429.1884,636.9686 432.8161,647.8305 439.4368,658.3749 448.9982,668.4086 461.3923,677.7414 476.4554,686.1894 493.9696,693.579 513.6651,699.7509 535.2239,704.5636 558.2851,707.8969 582.4509,709.6552 607.2938,709.77 632.3646,708.202 657.2014,704.9429 681.3389,700.0162 704.3182,693.4774 725.6964,685.4135 745.0563,675.9418 762.0158,665.2083 776.2361,653.3846 787.43,640.6647 795.3679,627.2617 799.8837,613.403 800.8788,599.3261 798.3241,585.2733 792.2615,571.4869" stroke="#9b59b6" stroke-width="0.5" fill="none" stroke-opacity="0.6"/>
  <polyline points="750.4655,577.6854 743.137,569.4575 733.4186,561.7417 721.459,554.6716 707.44,548.3716 691.5747,542.9557 674.1048,538.5249 655.2979,535.1667 635.444,532.953 614.8522,531.9391 593.8468,532.1622 572.7626,533.6412 551.9408,536.3749 531.724,540.3425 512.4509,545.5026 494.451,551.7936 478.0396,559.1341 463.5119,567.4234 451.1378,576.5425 441.1568,586.3556 433.7731,596.712 429.1508,607.4478 427.4102,618.3887 428.6243,629.3524 432.8161,640.1517 439.9568,650.5978 449.9647,660.5038 462.7059,669.6875 477.9945,677.9757 495.5954,685.2073 515.2274,691.2367 536.5673,695.9366 559.2552,699.2016 582.9009,700.9499 607.0903,701.1261 631.3936,699.7023 655.3729,696.6794 678.5911,692.0876 700.6202,685.9862 721.0502,678.4632 739.4973,669.6335 755.6119,659.6374 769.0859,648.6378 779.6595,636.8175 787.1264,624.3757 791.3387,611.5241 792.21,598.4827 789.7174,585.4756 783.9023,572.7266" stroke="#9b59b6" stroke-width="0.5" fill="none" stroke-opacity="0.6"/>
  <polyline points="758.8247,576.4457 751.0702,567.2068 740.7604,558.5238 728.0629,550.546 713.1837,543.4117 696.3639,537.2458 677.8764,532.1584 658.0219,528.242 637.1243,525.5711 615.5257,524.1999 593.5816,524.162 571.6554,525.4692 550.1124,528.1113 529.3143,532.0561 509.6133,537.2493 491.3466,543.6154 474.8301,551.0586 460.3538,559.464 448.1761,568.6991 438.5191,578.6162 431.5648,589.0541 427.4511,599.8408 426.2689,610.7965 428.0602,621.7361 432.8161,632.4728 440.4767,642.8208 450.9313,652.5989 464.0195,661.6335 479.5335,669.762 497.2211,676.8357 516.7896,682.7224 537.9106,687.3096 560.2253,690.5062 583.3509,692.2446 606.8869,692.4822 630.4227,691.2025 653.5445,688.4158 675.8433,684.1589 696.9222,678.4951 716.4041,671.513 733.9383,663.3252 749.2081,654.0664 761.9358,643.891 771.8891,632.9704 778.885,621.4898 782.7937,609.6452 783.5411,597.6392 781.1106,585.6778 775.5431,573.9663" stroke="#9b59b6" stroke-width="0.5" fill="none" stroke-opacity="0.6"/>
  <polyline points="767.1839,575.206 759.0033,564.9562 748.1021,555.3059 734.6669,546.4204 718.9275,538.4517 701.1532,531.536 681.6481,525.7918 660.746,521.3173 638.8045,518.1891 616.1991,516.4608 593.3165,516.1617 570.5483,517.2972 548.284,519.8478 526.9045,523.7698 506.7758,528.9961 488.2421,535.4372 471.6207,542.9831 457.1958,551.5046 445.2144,560.8558 435.8814,570.8768 429.3565,581.3961 425.7514,592.2337 425.1277,603.2042 427.4961,614.1199 432.8161,624.794 440.9967,635.0438 451.8979,644.6941 465.3331,653.5796 481.0725,661.5483 498.8468,668.464 518.3519,674.2082 539.254,678.6827 561.1955,681.8109 583.8009,683.5392 606.6835,683.8383 629.4517,682.7028 651.716,680.1522 673.0955,676.2302 693.2242,671.0039 711.7579,664.5628 728.3793,657.0169 742.8042,648.4954 754.7856,639.1442 764.1186,629.1232 770.6435,618.6039 774.2486,607.7663 774.8723,596.7958 772.5039,585.8801 767.1839,575.206" stroke="#9b59b6" stroke-width="0.5" fill="none" stroke-opacity="0.6"/>
  <polyline points="775.5431,573.9663 766.9365,562.7055 755.4439,552.088 741.2709,542.2948 724.6712,533.4917 705.9424,525.8262 685.4197,519.4253 663.4701,514.3927 640.4848,510.8072 616.8726,508.7216 593.0514,508.1615 569.4411,509.1252 546.4555,511.5842 524.4948,515.4834 503.9382,520.7428 485.1376,527.2591 468.4112,534.9076 454.0378,543.5452 442.2527,553.0125 433.2437,563.1374 427.1482,573.7382 424.0516,584.6267 423.9864,595.612 426.932,606.5037 432.8161,617.1151 441.5167,627.2668 452.8644,636.7892 466.6467,645.5256 482.6116,653.3346 500.4726,660.0923 519.9142,665.6939 540.5974,670.0557 562.1656,673.1155 584.2509,674.8339 606.48,675.1943 628.4808,674.203 649.8876,671.8887 670.3477,668.3016 689.5262,663.5128 707.1117,657.6125 722.8204,650.7085 736.4003,642.9244 747.6355,634.3974 756.3482,625.276 762.4021,615.718 765.7036,605.8873 766.2035,595.9523 763.8972,586.0824 758.8247,576.4457" stroke="#9b59b6" stroke-width="0.5" fill="none" stroke-opacity="0.6"/>
  <polyline points="783.9023,572.7266 774.8696,560.4548 762.7856,548.8702 747.8748,538.1693 730.415,528.5317 710.7317,520.1164 689.1914,513.0587 666.1942,507.468 642.1651,503.4253 617.546,500.9824 592.7863,500.1612 568.334,500.9533 544.6271,503.3206 522.085,507.197 501.1006,512.4895 482.0332,519.0809 465.2017,526.8321 450.8797,535.5858 439.291,545.1692 430.606,555.398 424.9399,566.0802 422.3519,577.0196 422.8451,588.0197 426.3679,598.8874 432.8161,609.4363 442.0366,619.4898 453.831,628.8844 467.9603,637.4717 484.1506,645.121 502.0983,651.7206 521.4764,657.1797 541.9407,661.4287 563.1357,664.4202 584.7009,666.1286 606.2766,666.5504 627.5098,665.7033 648.0592,663.6251 667.5999,660.3729 685.8283,656.0217 702.4656,650.6623 717.2614,644.4002 729.9965,637.3535 740.4853,629.6506 748.5777,621.4289 754.1606,612.832 757.1586,604.0084 757.5347,595.1089 755.2904,586.2846 750.4655,577.6854" stroke="#9b59b6" stroke-width="0.5" fill="none" stroke-opacity="0.6"/>
  <polyline points="742.1063,578.9251 750.4655,577.6854 758.8247,576.4457 767.1839,575.206 775.5431,573.9663 783.9023,572.7266" stroke="#999" stroke-width="0.5" fill="none" stroke-opacity="0.6"/>
  <polyline points="701.6962,553.3316 707.44,548.3716 713.1837,543.4117 718.9275,538.4517 724.6712,533.4917 730.415,528.5317" stroke="#999" stroke-width="0.5" fill="none" stroke-opacity="0.6"/>
  <polyline points="633.7637,540.335 635.444,532.953 637.1243,525.5711 638.8045,518.1891 640.4848,510.8072 642.1651,503.4253" stroke="#999" stroke-width="0.5" fill="none" stroke-opacity="0.6"/>
  <polyline points="553.7693,544.6385 551.9408,536.3749 550.1124,528.1113 548.284,519.8478 546.4555,511.5842 544.6271,503.3206" stroke="#999" stroke-width="0.5" fill="none" stroke-opacity="0.6"/>
  <polyline points="481.2491,567.2096 478.0396,559.1341 474.8301,551.0586 471.6207,542.9831 468.4112,534.9076 465.2017,526.8321" stroke="#999" stroke-width="0.5" fill="none" stroke-opacity="0.6"/>
  <polyline points="435.9814,604.37 433.7731,596.712 431.5648,589.0541 429.3565,581.3961 427.1482,573.7382 424.9399,566.0802" stroke="#999" stroke-width="0.5" fill="none" stroke-opacity="0.6"/>
  <polyline points="432.8161,647.8305 432.8161,640.1517 432.8161,632.4728 432.8161,624.794 432.8161,617.1151 432.8161,609.4363" stroke="#999" stroke-width="0.5" fill="none" stroke-opacity="0.6"/>
  <polyline points="476.4554,686.1894 477.9945,677.9757 479.5335,669.762 481.0725,661.5483 482.6116,653.3346 484.1506,645.121" stroke="#999" stroke-width="0.5" fill="none" stroke-opacity="0.6"/>
  <polyline points="558.2851,707.8969 559.2552,699.2016 560.2253,690.5062 561.1955,681.8109 562.1656,673.1155 563.1357,664.4202" stroke="#999" stroke-width="0.5" fill="none" stroke-opacity="0.6"/>
  <polyline points="657.2014,704.9429 655.3729,696.6794 653.5445,688.4158 651.716,680.1522 649.8876,671.8887 648.0592,663.6251" stroke="#999" stroke-width="0.5" fill="none" stroke-opacity="0.6"/>
  <polyline points="745.0563,675.9418 739.4973,669.6335 733.9383,663.3252 728.3793,657.0169 722.8204,650.7085 717.2614,644.4002" stroke="#999" stroke-width="0.5" fill="none" stroke-opacity="0.6"/>
  <polyline points="795.3679,627.2617 787.1264,624.3757 778.885,621.4898 770.6435,618.6039 762.4021,615.718 754.1606,612.832" stroke="#999" stroke-width="0.5" fill="none" stroke-opacity="0.6"/>
</g>
</g>
</svg>