<svg xmlns="http://www.w3.org/2000/svg" width="800" height="800" viewBox="0 0 800 800">
  <g>
  <line x1="407" y1="359.3728" x2="617.7158" y2="254" stroke="#333" stroke-width="1.5" fill="none"/>
  <line x1="407" y1="359.3728" x2="407" y2="657.3728" stroke="#333" stroke-width="1.5" fill="none"/>
  <line x1="407" y1="359.3728" x2="196.2842" y2="254" stroke="#333" stroke-width="1.5" fill="none"/>
  <line x1="617.7158" y1="254" x2="617.7158" y2="552" stroke="#333" stroke-width="1.5" fill="none"/>
  <line x1="617.7158" y1="254" x2="407" y2="148.6272" stroke="#333" stroke-width="1.5" fill="none"/>
  <line x1="407" y1="657.3728" x2="617.7158" y2="552" stroke="#333" stroke-width="1.5" fill="none"/>
  <line x1="407" y1="657.3728" x2="196.2842" y2="552" stroke="#333" stroke-width="1.5" fill="none"/>
  <line x1="617.7158" y1="552" x2="407" y2="446.6272" stroke="#333" stroke-width="1.5" fill="none"/>
  <line x1="196.2842" y1="254" x2="407" y2="148.6272" stroke="#333" stroke-width="1.5" fill="none"/>
  <line x1="196.2842" y1="254" x2="196.2842" y2="552" stroke="#333" stroke-width="1.5" fill="none"/>
  <line x1="407" y1="148.6272" x2="407" y2="446.6272" stroke="#333" stroke-width="1.5" fill="none"/>
  <line x1="196.2842" y1="552" x2="407" y2="446.6272" stroke="#333" stroke-width="1.5" fill="none"/>
  <line x1="407" y1="376.0369" x2="537.2295" y2="310.9129" stroke="#333" stroke-width="1.5" fill="none"/>
  <line x1="407" y1="376.0369" x2="407" y2="560.211" stroke="#333" stroke-width="1.5" fill="none"/>
  <line x1="407" y1="376.0369" x2="276.7705" y2="310.9129" stroke="#333" stroke-width="1.5" fill="none"/>
  <line x1="537.2295" y1="310.9129" x2="537.2295" y2="495.0871" stroke="#333" stroke-width="1.5" fill="none"/>
  <line x1="537.2295" y1="310.9129" x2="407" y2="245.789" stroke="#333" stroke-width="1.5" fill="none"/>
  <line x1="407" y1="560.211" x2="537.2295" y2="495.0871" stroke="#333" stroke-width="1.5" fill="none"/>
  <line x1="407" y1="560.211" x2="276.7705" y2="495.0871" stroke="#333" stroke-width="1.5" fill="none"/>
  <line x1="537.2295" y1="495.0871" x2="407" y2="429.9631" stroke="#333" stroke-width="1.5" fill="none"/>
  <line x1="276.7705" y1="310.9129" x2="407" y2="245.789" stroke="#333" stroke-width="1.5" fill="none"/>
  <line x1="276.7705" y1="310.9129" x2="276.7705" y2="495.0871" stroke="#333" stroke-width="1.5" fill="none"/>
  <line x1="407" y1="245.789" x2="407" y2="429.9631" stroke="#333" stroke-width="1.5" fill="none"/>
  <line x1="276.7705" y1="495.0871" x2="407" y2="429.9631" stroke="#333" stroke-width="1.5" fill="none"/>
  <line x1="407" y1="359.3728" x2="407" y2="376.0369" stroke="#999" stroke-width="1" fill="none"/>
  <line x1="617.7158" y1="254" x2="537.2295" y2="310.9129" stroke="#999" stroke-width="1" fill="none"/>
  <line x1="407" y1="657.3728" x2="407" y2="560.211" stroke="#999" stroke-width="1" fill="none"/>
  <line x1="617.7158" y1="552" x2="537.2295" y2="495.0871" stroke="#999" stroke-width="1" fill="none"/>
  <line x1="196.2842" y1="254" x2="276.7705" y2="310.9129" stroke="#999" stroke-width="1" fill="none"/>
  <line x1="407" y1="148.6272" x2="407" y2="245.789" stroke="#999" stroke-width="1" fill="none"/>
  <line x1="196.2842" y1="552" x2="276.7705" y2="495.0871" stroke="#999" stroke-width="1" fill="none"/>
  <line x1="407" y1="446.6272" x2="407" y2="429.9631" stroke="#999" stroke-width="1" fill="none"/>
</g>
</svg>