<svg xmlns="http://www.w3.org/2000/svg" width="800" height="800" viewBox="0 0 800 800">
  <g>
  <line x1="390" y1="346.2016" x2="606.3726" y2="238" stroke="#333" stroke-width="1.5" fill="none"/>
  <line x1="390" y1="346.2016" x2="390" y2="652.2016" stroke="#333" stroke-width="1.5" fill="none"/>
  <line x1="390" y1="346.2016" x2="173.6274" y2="238" stroke="#333" stroke-width="1.5" fill="none"/>
  <line x1="606.3726" y1="238" x2="606.3726" y2="544" stroke="#333" stroke-width="1.5" fill="none"/>
  <line x1="606.3726" y1="238" x2="390" y2="129.7984" stroke="#333" stroke-width="1.5" fill="none"/>
  <line x1="390" y1="652.2016" x2="606.3726" y2="544" stroke="#333" stroke-width="1.5" fill="none"/>
  <line x1="390" y1="652.2016" x2="173.6274" y2="544" stroke="#333" stroke-width="1.5" fill="none"/>
  <line x1="606.3726" y1="544" x2="390" y2="435.7984" stroke="#333" stroke-width="1.5" fill="none"/>
  <line x1="173.6274" y1="238" x2="390" y2="129.7984" stroke="#333" stroke-width="1.5" fill="none"/>
  <line x1="173.6274" y1="238" x2="173.6274" y2="544" stroke="#333" stroke-width="1.5" fill="none"/>
  <line x1="390" y1="129.7984" x2="390" y2="435.7984" stroke="#333" stroke-width="1.5" fill="none"/>
  <line x1="173.6274" y1="544" x2="390" y2="435.7984" stroke="#333" stroke-width="1.5" fill="none"/>
  <line x1="390" y1="363.3131" x2="523.7256" y2="296.4408" stroke="#333" stroke-width="1.5" fill="none"/>
  <line x1="390" y1="363.3131" x2="390" y2="552.4315" stroke="#333" stroke-width="1.5" fill="none"/>
  <line x1="390" y1="363.3131" x2="256.2744" y2="296.4408" stroke="#333" stroke-width="1.5" fill="none"/>
  <line x1="523.7256" y1="296.4408" x2="523.7256" y2="485.5592" stroke="#333" stroke-width="1.5" fill="none"/>
  <line x1="523.7256" y1="296.4408" x2="390" y2="229.5685" stroke="#333" stroke-width="1.5" fill="none"/>
  <line x1="390" y1="552.4315" x2="523.7256" y2="485.5592" stroke="#333" stroke-width="1.5" fill="none"/>
  <line x1="390" y1="552.4315" x2="256.2744" y2="485.5592" stroke="#333" stroke-width="1.5" fill="none"/>
  <line x1="523.7256" y1="485.5592" x2="390" y2="418.6869" stroke="#333" stroke-width="1.5" fill="none"/>
  <line x1="256.2744" y1="296.4408" x2="390" y2="229.5685" stroke="#333" stroke-width="1.5" fill="none"/>
  <line x1="256.2744" y1="296.4408" x2="256.2744" y2="485.5592" stroke="#333" stroke-width="1.5" fill="none"/>
  <line x1="390" y1="229.5685" x2="390" y2="418.6869" stroke="#333" stroke-width="1.5" fill="none"/>
  <line x1="256.2744" y1="485.5592" x2="390" y2="418.6869" stroke="#333" stroke-width="1.5" fill="none"/>
  <line x1="390" y1="346.2016" x2="390" y2="363.3131" stroke="#999" stroke-width="1" fill="none"/>
  <line x1="606.3726" y1="238" x2="523.7256" y2="296.4408" stroke="#999" stroke-width="1" fill="none"/>
  <line x1="390" y1="652.2016" x2="390" y2="552.4315" stroke="#999" stroke-width="1" fill="none"/>
  <line x1="606.3726" y1="544" x2="523.7256" y2="485.5592" stroke="#999" stroke-width="1" fill="none"/>
  <line x1="173.6274" y1="238" x2="256.2744" y2="296.4408" stroke="#999" stroke-width="1" fill="none"/>
  <line x1="390" y1="129.7984" x2="390" y2="229.5685" stroke="#999" stroke-width="1" fill="none"/>
  <line x1="173.6274" y1="544" x2="256.2744" y2="485.5592" stroke="#999" stroke-width="1" fill="none"/>
  <line x1="390" y1="435.7984" x2="390" y2="418.6869" stroke="#999" stroke-width="1" fill="none"/>
</g>
</svg>