<svg xmlns="http://www.w3.org/2000/svg" width="800" height="800" viewBox="0 0 800 800">
  <g>
  <circle cx="150" cy="100" r="3" fill="#333"/>
  <circle cx="230" cy="100" r="3" fill="#333"/>
  <circle cx="310" cy="100" r="3" fill="#333"/>
  <circle cx="390" cy="100" r="3" fill="#333"/>
  <circle cx="470" cy="100" r="3" fill="#333"/>
  <circle cx="550" cy="100" r="3" fill="#333"/>
  <circle cx="630" cy="100" r="3" fill="#333"/>
  <circle cx="190" cy="169.282" r="3" fill="#333"/>
  <circle cx="270" cy="169.282" r="3" fill="#333"/>
  <circle cx="350" cy="169.282" r="3" fill="#333"/>
  <circle cx="430" cy="169.282" r="3" fill="#333"/>
  <circle cx="510" cy="169.282" r="3" fill="#333"/>
  <circle cx="590" cy="169.282" r="3" fill="#333"/>
  <circle cx="670" cy="169.282" r="3" fill="#333"/>
  <circle cx="150" cy="238.5641" r="3" fill="#333"/>
  <circle cx="230" cy="238.5641" r="3" fill="#333"/>
  <circle cx="310" cy="238.5641" r="3" fill="#333"/>
  <circle cx="390" cy="238.5641" r="3" fill="#333"/>
  <circle cx="470" cy="238.5641" r="3" fill="#333"/>
  <circle cx="550" cy="238.5641" r="3" fill="#333"/>
  <circle cx="630" cy="238.5641" r="3" fill="#333"/>
  <circle cx="190" cy="307.8461" r="3" fill="#333"/>
  <circle cx="270" cy="307.8461" r="3" fill="#333"/>
  <circle cx="350" cy="307.8461" r="3" fill="#333"/>
  <circle cx="430" cy="307.8461" r="3" fill="#333"/>
  <circle cx="510" cy="307.8461" r="3" fill="#333"/>
  <circle cx="590" cy="307.8461" r="3" fill="#333"/>
  <circle cx="670" cy="307.8461" r="3" fill="#333"/>
  <circle cx="150" cy="377.1281" r="3" fill="#333"/>
  <circle cx="230" cy="377.1281" r="3" fill="#333"/>
  <circle cx="310" cy="377.1281" r="3" fill="#333"/>
  <circle cx="390" cy="377.1281" r="3" fill="#333"/>
  <circle cx="470" cy="377.1281" r="3" fill="#333"/>
  <circle cx="550" cy="377.1281" r="3" fill="#333"/>
  <circle cx="630" cy="377.1281" r="3" fill="#333"/>
  <circle cx="190" cy="446.4102" r="3" fill="#333"/>
  <circle cx="270" cy="446.4102" r="3" fill="#333"/>
  <circle cx="350" cy="446.4102" r="3" fill="#333"/>
  <circle cx="430" cy="446.4102" r="3" fill="#333"/>
  <circle cx="510" cy="446.4102" r="3" fill="#333"/>
  <circle cx="590" cy="446.4102" r="3" fill="#333"/>
  <circle cx="670" cy="446.4102" r="3" fill="#333"/>
  <circle cx="150" cy="515.6922" r="3" fill="#333"/>
  <circle cx="230" cy="515.6922" r="3" fill="#333"/>
  <circle cx="310" cy="515.6922" r="3" fill="#333"/>
  <circle cx="390" cy="515.6922" r="3" fill="#333"/>
  <circle cx="470" cy="515.6922" r="3" fill="#333"/>
  <circle cx="550" cy="515.6922" r="3" fill="#333"/>
  <circle cx="630" cy="515.6922" r="3" fill="#333"/>
</g>
</svg>