<svg xmlns="http://www.w3.org/2000/svg" width="800" height="800" viewBox="0 0 800 800">
  <g>
  <g>
  <circle cx="410" cy="399" r="75.25" fill="none" stroke="#6a5acd" stroke-width="1" stroke-opacity="0.5"/>
  <circle cx="485.25" cy="399" r="75.25" fill="none" stroke="#6a5acd" stroke-width="1" stroke-opacity="0.5"/>
  <circle cx="447.625" cy="464.1684" r="75.25" fill="none" stroke="#6a5acd" stroke-width="1" stroke-opacity="0.5"/>
  <circle cx="372.375" cy="464.1684" r="75.25" fill="none" stroke="#6a5acd" stroke-width="1" stroke-opacity="0.5"/>
  <circle cx="334.75" cy="399" r="75.25" fill="none" stroke="#6a5acd" stroke-width="1" stroke-opacity="0.5"/>
  <circle cx="372.375" cy="333.8316" r="75.25" fill="none" stroke="#6a5acd" stroke-width="1" stroke-opacity="0.5"/>
  <circle cx="447.625" cy="333.8316" r="75.25" fill="none" stroke="#6a5acd" stroke-width="1" stroke-opacity="0.5"/>
  <circle cx="560.5" cy="399" r="75.25" fill="none" stroke="#6a5acd" stroke-width="1" stroke-opacity="0.5"/>
  <circle cx="540.3368" cy="474.25" r="75.25" fill="none" stroke="#6a5acd" stroke-width="1" stroke-opacity="0.5"/>
  <circle cx="485.25" cy="529.3368" r="75.25" fill="none" stroke="#6a5acd" stroke-width="1" stroke-opacity="0.5"/>
  <circle cx="410" cy="549.5" r="75.25" fill="none" stroke="#6a5acd" stroke-width="1" stroke-opacity="0.5"/>
  <circle cx="334.75" cy="529.3368" r="75.25" fill="none" stroke="#6a5acd" stroke-width="1" stroke-opacity="0.5"/>
  <circle cx="279.6632" cy="474.25" r="75.25" fill="none" stroke="#6a5acd" stroke-width="1" stroke-opacity="0.5"/>
  <circle cx="259.5" cy="399" r="75.25" fill="none" stroke="#6a5acd" stroke-width="1" stroke-opacity="0.5"/>
  <circle cx="279.6632" cy="323.75" r="75.25" fill="none" stroke="#6a5acd" stroke-width="1" stroke-opacity="0.5"/>
  <circle cx="334.75" cy="268.6632" r="75.25" fill="none" stroke="#6a5acd" stroke-width="1" stroke-opacity="0.5"/>
  <circle cx="410" cy="248.5" r="75.25" fill="none" stroke="#6a5acd" stroke-width="1" stroke-opacity="0.5"/>
  <circle cx="485.25" cy="268.6632" r="75.25" fill="none" stroke="#6a5acd" stroke-width="1" stroke-opacity="0.5"/>
  <circle cx="540.3368" cy="323.75" r="75.25" fill="none" stroke="#6a5acd" stroke-width="1" stroke-opacity="0.5"/>
</g>
  <g>
  <line x1="372.0565" y1="0" x2="372.0565" y2="602" stroke="#c0a040" stroke-width="1" stroke-opacity="0.4"/>
  <line x1="514.1694" y1="0" x2="514.1694" y2="602" stroke="#c0a040" stroke-width="1" stroke-opacity="0.4"/>
  <line x1="568.4517" y1="0" x2="568.4517" y2="602" stroke="#c0a040" stroke-width="1" stroke-opacity="0.4"/>
  <line x1="589.1857" y1="0" x2="589.1857" y2="602" stroke="#c0a040" stroke-width="1" stroke-opacity="0.4"/>
  <line x1="0" y1="372.0565" x2="602" y2="372.0565" stroke="#c0a040" stroke-width="1" stroke-opacity="0.4"/>
  <line x1="0" y1="514.1694" x2="602" y2="514.1694" stroke="#c0a040" stroke-width="1" stroke-opacity="0.4"/>
  <line x1="0" y1="568.4517" x2="602" y2="568.4517" stroke="#c0a040" stroke-width="1" stroke-opacity="0.4"/>
  <line x1="0" y1="589.1857" x2="602" y2="589.1857" stroke="#c0a040" stroke-width="1" stroke-opacity="0.4"/>
</g>
  <g>
  <circle cx="410" cy="399" r="301" stroke="#333" stroke-width="0.8"/>
  <circle cx="410" cy="399" r="186.0282" stroke="#333" stroke-width="0.8"/>
  <circle cx="410" cy="399" r="114.9718" stroke="#333" stroke-width="0.8"/>
  <circle cx="410" cy="399" r="71.0565" stroke="#333" stroke-width="0.8"/>
  <circle cx="410" cy="399" r="43.9153" stroke="#333" stroke-width="0.8"/>
</g>
</g>
</svg>