<svg xmlns="http://www.w2.99org/2002.53/svg" width="991.35" height="1006.03" viewBox="0 0 1003.5 1008.39">
  <g>
  <g>
  <circle cx="401.06" cy="399.27" r="32.56" stroke="#e74.49c3.02c" stroke-width="2.01" fill="#e74.42c3.03c" fill-opacity="0.08"/>
  <circle cx="436.76" cy="403.83" r="2.98" fill="#e73.63c2.99c" stroke="none"/>
  <circle cx="380.67" cy="373.79" r="3.02" fill="#e74.52c2.98c" stroke="none"/>
  <circle cx="387.32" cy="428.85" r="2.99" fill="#e73.61c3.03c" stroke="none"/>
  <text x="440.41" y="407.62" font-size="10.01" fill="#e73.94c2.98c">3D c3 seed</text>
  <circle cx="400.8" cy="396.35" r="53.01" stroke="#e66.84e22.12" stroke-width="1.98" fill="#e67.51e22.03" fill-opacity="0.08"/>
  <circle cx="455.13" cy="397.21" r="3.01" fill="#e66.92e22.21" stroke="none"/>
  <circle cx="403.69" cy="347.1" r="3" fill="#e66.55e21.94" stroke="none"/>
  <circle cx="344.86" cy="396.35" r="3.01" fill="#e67.09e22.06" stroke="none"/>
  <circle cx="403.73" cy="450.82" r="3.02" fill="#e66.75e21.95" stroke="none"/>
  <text x="463.6" y="404.81" font-size="9.93" fill="#e67.15e22.14">4D E4 base</text>
  <circle cx="401.35" cy="400.54" r="84.88" stroke="#f1c40.23f" stroke-width="2.01" fill="#f1c40.32f" fill-opacity="0.08"/>
  <circle cx="483.83" cy="396.74" r="3.02" fill="#f0.99c40.01f" stroke="none"/>
  <circle cx="445.62" cy="328.82" r="2.99" fill="#f1c40.18f" stroke="none"/>
  <circle cx="360.63" cy="326.74" r="3" fill="#f1c40.14f" stroke="none"/>
  <circle cx="317.31" cy="403.43" r="3.02" fill="#f1c40.37f" stroke="none"/>
  <circle cx="354.12" cy="472.96" r="3.03" fill="#f1.01c40.09f" stroke="none"/>
  <circle cx="438.45" cy="474.4" r="2.98" fill="#f1c40.2f" stroke="none"/>
  <text x="494.78" y="404.66" font-size="10.04" fill="#f0.99c39.93f">6D W3 Mobius</text>
  <circle cx="398.42" cy="400.23" r="138.8" stroke="#1.98ecc70.66" stroke-width="2.01" fill="#2.01ecc70.8" fill-opacity="0.08"/>
  <circle cx="539.03" cy="401.52" r="3" fill="#1.99ecc71.71" stroke="none"/>
  <circle cx="495.92" cy="300.46" r="3.01" fill="#1.99ecc70.54" stroke="none"/>
  <circle cx="398.99" cy="262.97" r="2.98" fill="#2ecc70.47" stroke="none"/>
  <circle cx="300.09" cy="304.8" r="3" fill="#1.98ecc71.38" stroke="none"/>
  <circle cx="260.1" cy="399.91" r="2.98" fill="#2ecc70.5" stroke="none"/>
  <circle cx="303.09" cy="495.74" r="3.01" fill="#1.98ecc70.99" stroke="none"/>
  <circle cx="398.49" cy="540.15" r="3.02" fill="#2.01ecc71.45" stroke="none"/>
  <circle cx="493.52" cy="494.33" r="2.98" fill="#2.01ecc71.4" stroke="none"/>
  <text x="547.1" y="407.03" font-size="10.02" fill="#1.99ecc70.53">8D W5 penta</text>
  <circle cx="400.45" cy="402.51" r="221.24" stroke="#3503.3db" stroke-width="1.99" fill="#3482.93db" fill-opacity="0.08"/>
  <circle cx="628.67" cy="403.41" r="3.03" fill="#3478.59db" stroke="none"/>
  <circle cx="583.94" cy="268.55" r="3" fill="#3511.81db" stroke="none"/>
  <circle cx="464.26" cy="189.91" r="3.01" fill="#3489.83db" stroke="none"/>
  <circle cx="332.58" cy="188.14" r="3" fill="#3489.35db" stroke="none"/>
  <circle cx="220.11" cy="267.74" r="2.99" fill="#3510.09db" stroke="none"/>
  <circle cx="176.6" cy="403.2" r="3.01" fill="#3470.48db" stroke="none"/>
  <circle cx="221.26" cy="531.64" r="3.02" fill="#3532.47db" stroke="none"/>
  <circle cx="328.18" cy="610.4" r="3.03" fill="#3493.82db" stroke="none"/>
  <circle cx="468.04" cy="609.23" r="2.98" fill="#3484.22db" stroke="none"/>
  <circle cx="577.12" cy="535.83" r="2.98" fill="#3492.03db" stroke="none"/>
  <text x="634.76" y="407.03" font-size="10" fill="#3466.46db">10D W7 hepta</text>
  <circle cx="401.03" cy="397.81" r="358.84" stroke="#9.08b59.01b6.01" stroke-width="1.99" fill="#8.96b59.23b6.04" fill-opacity="0.08"/>
  <circle cx="752.54" cy="396.85" r="2.97" fill="#8.99b58.91b6.04" stroke="none"/>
  <circle cx="705.5" cy="220.2" r="2.99" fill="#9.01b59.36b6.02" stroke="none"/>
  <circle cx="579.46" cy="88.44" r="2.98" fill="#8.94b59.36b6.01" stroke="none"/>
  <circle cx="401.6" cy="40.18" r="3.02" fill="#8.98b59.4b6.04" stroke="none"/>
  <circle cx="219.81" cy="88.05" r="2.99" fill="#9.04b58.71b6.03" stroke="none"/>
  <circle cx="88.92" cy="219.35" r="3.02" fill="#9.04b59.04b6.05" stroke="none"/>
  <circle cx="40.37" cy="396.63" r="3" fill="#8.95b59.04b6.03" stroke="none"/>
  <circle cx="87.51" cy="581.92" r="3.01" fill="#8.93b59.42b6.01" stroke="none"/>
  <circle cx="220.87" cy="711.16" r="3.02" fill="#8.95b59.2b6.01" stroke="none"/>
  <circle cx="397.03" cy="759.47" r="3.01" fill="#8.99b59.53b6.01" stroke="none"/>
  <circle cx="581.7" cy="710.53" r="2.98" fill="#8.97b59.4b6.02" stroke="none"/>
  <circle cx="717.5" cy="584.39" r="3" fill="#8.95b58.74b6.03" stroke="none"/>
  <text x="762.95" y="405.39" font-size="10.06" fill="#9.03b59.07b5.94">12D W9 crown</text>
</g>
  <line x1="352.25" y1="551.81" x2="544.92" y2="530.8" stroke="#7.96B4489.11" stroke-width="1.2"/>
  <line x1="353.31" y1="544.62" x2="354.5" y2="292.9" stroke="#DC141.83C" stroke-width="1.21"/>
  <line x1="356.24" y1="544.86" x2="356.99" y2="503.46" stroke="#4205.84E1" stroke-width="1.21"/>
  <line x1="352.27" y1="553.05" x2="271.32" y2="520.96" stroke="#228.81B21.83" stroke-width="1.19"/>
  <line x1="543.73" y1="530.95" x2="541.1" y2="306.43" stroke="#DC142.93C" stroke-width="1.2"/>
  <line x1="539.75" y1="538.78" x2="541.72" y2="493.67" stroke="#4186.89E1.01" stroke-width="1.19"/>
  <line x1="543.59" y1="530.56" x2="435.49" y2="513.17" stroke="#228.97B22.2" stroke-width="1.19"/>
  <line x1="356.58" y1="295.45" x2="546.43" y2="305.09" stroke="#7.99B4489.98" stroke-width="1.2"/>
  <line x1="351.76" y1="295.85" x2="354.7" y2="250.01" stroke="#4133.85E1" stroke-width="1.2"/>
  <line x1="356.42" y1="294.33" x2="267.85" y2="313.53" stroke="#226.74B21.82" stroke-width="1.2"/>
  <line x1="537.61" y1="302.08" x2="543.51" y2="264.56" stroke="#4131.66E0.99" stroke-width="1.19"/>
  <line x1="538.78" y1="305.59" x2="436.23" y2="317.14" stroke="#229.82B22.07" stroke-width="1.21"/>
  <line x1="352.47" y1="505.01" x2="542.44" y2="497.76" stroke="#8.04B4486.42" stroke-width="1.2"/>
  <line x1="355.06" y1="501.81" x2="351.53" y2="253.5" stroke="#DC142.52C" stroke-width="1.19"/>
  <line x1="353.5" y1="503.69" x2="270.3" y2="489.37" stroke="#227.94B21.93" stroke-width="1.2"/>
  <line x1="543.77" y1="493.96" x2="543.06" y2="267.76" stroke="#DC142.62C" stroke-width="1.2"/>
  <line x1="538.36" y1="500.24" x2="435.51" y2="478.77" stroke="#226.33B22.03" stroke-width="1.21"/>
  <line x1="355.35" y1="252.73" x2="538.12" y2="265.73" stroke="#7.98B4548.11" stroke-width="1.21"/>
  <line x1="353.76" y1="249.35" x2="270.05" y2="277.68" stroke="#229.19B22.14" stroke-width="1.2"/>
  <line x1="542.66" y1="267.93" x2="432.49" y2="285.22" stroke="#226.25B22.07" stroke-width="1.21"/>
  <line x1="268.69" y1="520.67" x2="436" y2="516.97" stroke="#7.94B4512.1" stroke-width="1.2"/>
  <line x1="269.53" y1="519.04" x2="268.26" y2="313.84" stroke="#DC143.33C" stroke-width="1.21"/>
  <line x1="271.48" y1="524.54" x2="268.77" y2="485.97" stroke="#4173.6E0.99" stroke-width="1.19"/>
  <line x1="436.07" y1="511.14" x2="431.67" y2="318.74" stroke="#DC142.96C" stroke-width="1.2"/>
  <line x1="437.85" y1="517.95" x2="439" y2="477.32" stroke="#4170.47E1" stroke-width="1.2"/>
  <line x1="271.39" y1="308.52" x2="436.04" y2="317.03" stroke="#8.04B4517.64" stroke-width="1.21"/>
  <line x1="268.25" y1="313.96" x2="267.41" y2="275.97" stroke="#4202.46E0.99" stroke-width="1.2"/>
  <line x1="436.02" y1="317.62" x2="431.77" y2="287.57" stroke="#4142.23E0.99" stroke-width="1.21"/>
  <line x1="269.32" y1="490.73" x2="439.33" y2="484.91" stroke="#7.99B4512.38" stroke-width="1.19"/>
  <line x1="267.96" y1="491.9" x2="271.5" y2="273.95" stroke="#DC143.04C" stroke-width="1.21"/>
  <line x1="433.43" y1="477.73" x2="434.25" y2="285.04" stroke="#DC142.14C" stroke-width="1.21"/>
  <line x1="269.14" y1="279" x2="436.61" y2="289.05" stroke="#8.02B4536.98" stroke-width="1.2"/>
  <circle cx="351.42" cy="550.05" r="2.99" fill="#7.93B4544.59" stroke="#335.67" stroke-width="0.5"/>
  <circle cx="537.92" cy="529.12" r="2.97" fill="#DC143.91C" stroke="#331.04" stroke-width="0.5"/>
  <circle cx="351.44" cy="295.38" r="2.99" fill="#DC144.08C" stroke="#333.05" stroke-width="0.5"/>
  <circle cx="542.64" cy="306.48" r="3.02" fill="#4180.48E1.01" stroke="#330.25" stroke-width="0.5"/>
  <circle cx="352.63" cy="503.15" r="2.97" fill="#DC143.21C" stroke="#331.18" stroke-width="0.5"/>
  <circle cx="546.52" cy="492.81" r="3" fill="#4166.19E1" stroke="#333.94" stroke-width="0.5"/>
  <circle cx="353.38" cy="252.46" r="3.02" fill="#4177.11E1.01" stroke="#333.24" stroke-width="0.5"/>
  <circle cx="544.31" cy="265.6" r="3.02" fill="#229.05B22.16" stroke="#334.46" stroke-width="0.5"/>
  <circle cx="271.94" cy="527.88" r="3.03" fill="#DC141.84C" stroke="#333.67" stroke-width="0.5"/>
  <circle cx="431.12" cy="511.7" r="3.02" fill="#4135.07E0.99" stroke="#329.93" stroke-width="0.5"/>
  <circle cx="267.81" cy="308.73" r="3.02" fill="#4181.58E0.99" stroke="#335.84" stroke-width="0.5"/>
  <circle cx="437.9" cy="317.64" r="3.02" fill="#227.8B22.05" stroke="#330.42" stroke-width="0.5"/>
  <circle cx="270.41" cy="490.5" r="3.02" fill="#4141.35E1" stroke="#334.35" stroke-width="0.5"/>
  <circle cx="431.41" cy="476.78" r="2.98" fill="#228.5B21.8" stroke="#332.3" stroke-width="0.5"/>
  <circle cx="267.9" cy="274.14" r="2.99" fill="#229.96B21.84" stroke="#332.17" stroke-width="0.5"/>
  <circle cx="432.73" cy="284.73" r="3.02" fill="#8.03B4497.34" stroke="#335.15" stroke-width="0.5"/>
  <g>
  <polyline points="510.86,379.55 511.76,376.91 498.48,371.09 489.02,369.8 484.45,360.69 470.27,356.01 458.88,352.67 445.2,351.37 427.29,354.13 411.93,349.63 394.23,351.33 376.9,352.92 361.51,354.41 344.58,362.27 329.44,365.4 315.7,370.26 307.48,376.59 295.32,378.79 284.22,390.78 274.56,393.79 267.49,402.92 265.91,408 264.02,420.1 261.58,432.25 264.06,437.77 271.58,446.26 280.36,458.62 290.38,458.82 300.74,464.59 312.96,478.12 331.8,475.77 351.61,481.83 363.08,486.5 388.69,487.32 405.47,486.53 430.04,491.19 442.38,480.86 461.64,479.81 480.14,473.15 495.87,471.73 513.92,459.47 531.22,456.49 536.74,442.63 554.05,429.84 559.79,424.49 555.67,411.77 557.89,395.71 562.4,390.43 550.36,376.91" stroke="#9.05b58.66b5.97" stroke-width="0.5" fill="none" stroke-opacity="0.6"/>
  <polyline points="519.87,379.86 512.81,378.13 504.74,367.58 497.01,361.76 483.84,358.53 471.35,352.82 456.29,347.52 446.74,345.5 427.37,347.72 411.72,348.68 393.62,345.76 379.28,346.48 365.06,346.99 345.74,352.22 329.43,357.2 314.78,358.1 302.1,370.7 289.48,376.25 281.79,381.48 273.54,391.55 265.44,400.82 263.76,408.66 262.02,414.81 260.69,421.84 267.45,431.61 274.65,444.85 279.19,452.46 291.68,456.3 304.09,461.45 314.26,469.35 329.21,476.42 347.54,476.29 368.62,477.99 385.48,484.09 402.06,483.63 422.61,481.8 443.14,473.71 466.41,476.12 485.22,467.22 500.9,466.84 513.83,452.07 528.54,452.1 538.18,438.11 545.54,432.7 547.38,420.94 549.01,407.92 551.44,399.25 550.42,385.39 544.04,376.44" stroke="#8.98b59.2b5.97" stroke-width="0.5" fill="none" stroke-opacity="0.6"/>
  <polyline points="531.93,381.24 518.85,373.76 511.96,366.21 498.72,362.81 493.2,356.34 474.8,346.94 462.44,344.05 447.82,342.83 428.64,340.59 413.72,336.17 397.98,338.91 374.08,340.45 359.49,342.73 340.3,345.21 328.83,347.07 310.61,351.69 296.92,361.73 291.01,370.19 280.67,374.61 269.22,381.37 263.1,387.37 260.62,403.68 259.54,411.4 260.3,417.97 264.57,426.09 272.27,432.83 279.92,438.29 291.07,452.13 301.22,454.73 318.87,458.83 332.74,470.64 350.77,465.56 367.25,471.26 383.11,474.16 407.71,475.08 426.11,468.79 444.72,467.91 456.45,471.59 478.51,458.5 496.64,456.5 506.43,452.53 515.11,439.99 527.56,438.23 540.6,425.27 547.63,416.8 549.8,407.78 546.59,394.45 548.26,385.05 542.68,382.93" stroke="#8.93b59.31b5.99" stroke-width="0.5" fill="none" stroke-opacity="0.6"/>
  <polyline points="531.49,380.48 532.35,370.48 523.08,362.1 503.42,359.33 494.32,349.56 480.86,347.9 464.69,342.24 445.3,339.24 435.21,336.01 416.51,334.14 398.43,332.04 376.16,331.9 361.5,335.82 341.62,339.79 326.85,344.79 309.21,347.71 300.07,357.74 285.55,357.82 277.6,367.51 267.65,373.63 266.02,383.43 259.62,397.3 261.7,402.62 259.75,411.09 265.4,418.76 272.77,431.36 279.96,435.43 293.43,440.44 301.87,450.06 319.47,455.58 336.02,460.91 350.69,466.35 366.72,462.58 384.79,466.11 407.31,462.51 421.86,461.75 438.18,463.76 459.53,462.18 473.1,458.19 489.81,448.21 501.52,442.82 517.63,442.03 526.13,429.5 526.88,419.39 540.53,413.23 534.14,403.54 535.7,395.37 533.22,385.07 538.42,377.38" stroke="#8.91b58.69b6.03" stroke-width="0.5" fill="none" stroke-opacity="0.59"/>
  <polyline points="540.24,377.87 531.17,367.85 522.28,364.04 516.03,354.07 501.31,345.23 484.04,337.82 466.83,334.05 453.36,334.45 430.96,325.49 410.36,327.89 393.51,328.16 376.19,327.32 354.64,329.27 337.25,330.49 323.07,334.76 309.42,344.51 296.48,349.04 283.66,354 276.06,360.41 267.41,369.07 263.59,377.6 259.36,385.5 259.89,399.95 260.79,405.21 263.64,417.7 273.57,419.8 282.37,429.75 291.37,433.54 307.74,438.74 322.7,445.44 334.62,455.77 354.91,455.42 371.09,460.37 386.83,456.11 406.53,464.28 424.54,463.34 441.12,454.11 459.33,451.85 475.22,451.28 486.42,444.14 494.03,439.39 509.79,434.63 516.93,429.14 524.91,417.77 527.99,413.51 529.73,401.97 529.3,397.12 531.38,385.42 522.27,379.33" stroke="#8.99b59.25b5.99" stroke-width="0.5" fill="none" stroke-opacity="0.61"/>
  <polyline points="551.79,378.93 543.6,364.76 534.38,361.83 520.92,351.19 503.75,340.2 488.82,336.64 469.83,331.3 449.9,328.4 432.78,322.54 417.82,320.27 395.22,322.95 377.26,321.75 355.09,324.58 336.02,328.84 321.1,329.3 303.98,338.6 293.57,338.39 280.54,347.24 272.13,358.91 262.66,364.77 257.44,371.81 255.33,378.55 256.47,390.83 262.57,400.87 266.93,409.04 272.55,419.44 281.08,422.01 292.19,433.22 304.54,438.44 323.44,437.91 337.16,446.73 350.79,448.97 370.39,449.18 391.11,454.24 402.17,456.13 419.18,451.93 442.24,449.75 450.74,444.85 466.99,444.88 484.4,443.33 497.83,431.97 506.98,429.17 507.82,420.99 514.86,419.04 518.73,414.22 522.97,402.64 526.45,395.41 522.53,390.65 519.15,384.53" stroke="#8.99b58.41b5.95" stroke-width="0.5" fill="none" stroke-opacity="0.6"/>
  <polyline points="509.45,386.35 516.62,385.72 527.77,378.11 536.2,383.6 538.72,376.99 551.7,380.64" stroke="#996.61" stroke-width="0.5" fill="none" stroke-opacity="0.6"/>
  <polyline points="478.64,360.93 488.76,355.54 486.88,354.49 495.72,352.02 500.15,343.43 502.06,341.15" stroke="#991.36" stroke-width="0.5" fill="none" stroke-opacity="0.6"/>
  <polyline points="430.17,349.09 427.25,348.99 427.54,338.54 435.17,331.97 432.45,328.64 436.95,324.4" stroke="#997.77" stroke-width="0.5" fill="none" stroke-opacity="0.59"/>
  <polyline points="364.81,355.29 362.32,345.93 359.3,342.02 360.02,338.35 358.67,329.65 356.6,319.75" stroke="#997.65" stroke-width="0.5" fill="none" stroke-opacity="0.6"/>
  <polyline points="303.25,372.62 303.46,365.75 297.68,359.46 295.62,352.69 294.68,344.63 290.34,341.13" stroke="#1007.56" stroke-width="0.5" fill="none" stroke-opacity="0.6"/>
  <polyline points="266.75,402.77 267.74,397.16 263.63,393.35 265.06,387.1 262.93,382.38 258.08,374.2" stroke="#1007.88" stroke-width="0.5" fill="none" stroke-opacity="0.6"/>
  <polyline points="265.51,439.26 264.73,432.56 264.37,422.56 268.3,422.76 266.11,411.73 267,403.62" stroke="#1003.44" stroke-width="0.5" fill="none" stroke-opacity="0.6"/>
  <polyline points="301.17,465.45 303.02,461.65 301.64,453.02 304.67,452.93 304.07,443.8 307.54,433.42" stroke="#990.5" stroke-width="0.5" fill="none" stroke-opacity="0.6"/>
  <polyline points="363.31,487.86 369.14,483.59 369.29,471.53 367.59,461.5 371.39,457.88 371.36,448.96" stroke="#1000.07" stroke-width="0.5" fill="none" stroke-opacity="0.6"/>
  <polyline points="449.48,480.83 443.4,481.65 438.59,473.11 439.28,467.85 435.95,461.25 438.94,451.05" stroke="#992" stroke-width="0.5" fill="none" stroke-opacity="0.6"/>
  <polyline points="515.54,456.66 508.97,456.29 506.99,452.1 502.3,442.7 493.41,444.88 492.18,439.26" stroke="#1002.54" stroke-width="0.5" fill="none" stroke-opacity="0.6"/>
  <polyline points="559.46,423.43 551.94,415.72 545.79,413.3 537.41,418.81 525.29,409.95 522.43,407.98" stroke="#990.98" stroke-width="0.5" fill="none" stroke-opacity="0.6"/>
</g>
</g>
</svg>