<svg xmlns="http://www.w2.97org/2012.65/svg" width="797.47" height="797.87" viewBox="0 0 794.12 803.86">
  <g>
  <polyline points="583.62,376.82 568.07,366.43 563.17,363.78 550.33,359.63 544.57,353.6 531.25,347.1 518.91,342.36 496.88,338.39 477.29,336.49 458.65,334.62 439.51,337.66 425.29,337.42 400.13,339.36 382.66,338.82 361.38,337.7 342.14,345.92 315.95,348.52 300.13,356.04 278.73,362.58 260.03,370.21 241.19,376.7 220.64,384.91 206.25,392.87 193.73,407.77 183.38,419.82 172.51,428.38 165,441.68 161.32,452.33 156.48,462.21 157.7,482.12 159.68,487.47 167.58,507.35 176.1,518.72 187.26,528.35 200.59,531.95 220.38,542.1 239.04,561.03 258.39,559.74 285.41,572.77 309.31,571.41 336.91,577.65 369.52,581.06 396.36,580.31 425.24,578.67 460.49,573.49 484.11,575.64 520.8,568.25 547.1,562.28 571.81,551.75 605.04,535.03 619.72,531.51 641.37,511.47 663.9,497.38 675.5,479.49 689.43,464.38 707.35,449.09 713.87,428.2 705.72,412.82 711.65,391.55 705.26,375.28 704.14,355.11" stroke="#335.98" stroke-width="0.8" fill="none"/>
  <polyline points="588.66,367.57 587.44,363.29 573.71,358.37 565.27,348.83 553.67,343.59 536.15,340.45 522.92,331.63 505.33,332.67 487.31,325.05 471.6,322.44 450.36,320.66 428.5,324.49 400.8,321.26 378.35,322.74 360.6,326.16 336.64,332.08 312.98,334.45 292.47,341.59 271.52,343.52 253.2,354.13 234.18,361.1 217.11,370.6 201.92,382.91 188.66,390.62 177.88,403.1 169.54,410.52 161.48,429.6 156.2,437.02 154.69,448.55 157.12,466.72 162.36,473.45 168.76,489.7 179.23,502.39 190.71,510.36 205.79,517.87 221.62,528.92 241.71,544.52 261.48,552.9 287.8,558.44 311.63,562.03 336.47,561.1 367.37,570.41 394.93,569.44 427.41,565.96 450.37,559.57 486.99,560.07 510.11,554.64 544.13,541.51 560.38,539.53 588.98,524.71 618.98,517.97 632.65,506.57 651.29,490.07 670.81,476.66 675.52,454.71 685.07,445.51 696.99,427.33 693.36,409.43 689.18,389.83 697.77,372.93 688.55,354.38" stroke="#331.08" stroke-width="0.8" fill="none"/>
  <polyline points="610.48,371.14 597.32,361.04 590.64,350.12 575.87,341.91 562.56,338.92 554.44,329.33 536.06,323.54 508.68,318.27 494.11,316.77 472.37,314.63 452.65,312.56 427.01,306.93 404.23,306.54 378.64,311.07 353.99,312.42 329.61,312.5 309.18,318.01 289.1,324.25 264.39,328.34 249,342.23 226.76,345.59 211.37,353.78 195.21,363.5 183.31,379.49 171.38,385.95 164.57,399.05 158.01,415.07 155.36,425.73 154.6,434.41 156.46,447.09 160.58,459.53 168.51,473.98 177.78,488.26 189.84,501.2 206.76,506.94 225.68,516.41 243.23,523.78 265.24,535.3 292.21,539.55 316.99,543.05 337.82,548.97 367.29,552.09 392.29,553.95 422.25,549.45 448.23,548.11 483.48,539.31 511.52,533.55 538.09,532.28 556.43,527.61 585.16,516.13 602.62,503.57 619.89,493.55 639.86,481.19 655.3,465.52 659.05,455.91 679.4,433.36 683.37,424.16 684.55,407.57 676.12,390.21 675.54,374.4 662.2,356.6" stroke="#335.63" stroke-width="0.8" fill="none"/>
  <polyline points="626.57,366.14 615.42,359.83 606.94,344.39 588.55,336.69 576.79,328.59 559.91,321.01 545.81,315.67 524.66,307.67 500.91,301.33 476.33,297.14 455.98,298.29 431.24,292.14 400.83,292.43 376.15,296.73 356.61,296.26 326.48,301.75 303.17,303.29 281.79,307.81 260.3,318.29 240.83,323.81 222.71,336.29 207.26,343.97 189.92,355.99 177.02,360.69 168.1,375.18 161.62,384.35 154.97,401.94 151.05,415.7 153.33,426.39 154.2,433.23 161.52,445.39 170.11,461.57 181.01,470.86 192.38,480.15 209.6,488.92 225.09,504.49 246.14,513.46 271.27,516.75 294.52,524.55 317,523.71 342.09,537.07 366.37,535.94 396.66,533.26 426.47,533.27 453.49,530.58 479.37,531.47 502,524.31 525.86,520.46 546.68,509.21 574.42,502.59 588.43,488.46 612.54,483.64 632.47,469.63 635.08,459.07 649.35,448.3 658.65,429.84 665.22,417.41 666.63,402.55 666.56,393.38 661.62,376.41 652,362.29" stroke="#335.02" stroke-width="0.79" fill="none"/>
  <polyline points="639.88,367.16 635.04,354.27 614.01,342.69 599.22,329.39 587.77,323.54 565.97,311.14 547.45,301.77 523.46,299.94 502.72,292.2 480.42,286.87 452.05,282.59 429.9,278.2 401.38,280.55 374.66,281.78 353.69,279.68 323.85,284.77 303.72,289.32 280.3,294.54 257.24,301.79 233.98,310.46 214.68,319.12 197.99,326.18 185.04,337.5 172.69,348.91 163.25,357.9 154.71,374.51 152.45,386.92 149.9,401.64 151.77,409.68 155.73,425.66 162.34,438.71 170.05,446.71 181.01,454.34 197.33,473.52 209.95,478.44 228.54,485.41 249.96,500.02 273.96,498.31 297.39,505.82 317.25,513.83 342.76,518 368.26,522.33 393.32,523.96 425.66,516.88 452.45,513.51 475.54,510.46 503.2,505.39 526.8,504.98 541.04,498.81 562.73,485.31 585.92,479.23 603.62,475.54 610.79,459.21 626.77,445.83 636.82,441.46 641.24,423.15 646.85,417.73 646.49,398.22 646.63,390.83 638.89,373.41 632.87,366.73" stroke="#330.74" stroke-width="0.8" fill="none"/>
  <polyline points="655.53,360.72 639.89,352.19 631.85,335.79 612.56,326.13 603.69,316.16 581.85,303.39 557.74,294.73 540.64,283.53 511.34,282 488.91,271.5 456.41,268.43 432.26,269.87 400.18,263.99 375.27,264.21 349.76,269.54 322.63,269.07 297.7,274.61 272.61,282.76 250.22,289.83 230.87,297.78 211.89,303.63 192.26,311.66 181.62,324.47 167.57,333.74 160.04,350.62 151.45,358.63 147.32,374.56 148.61,381.68 150.63,394.24 153.07,406.65 160.72,418.66 169.49,430.91 181.47,440.75 197.78,457.65 215.81,464.86 231.47,471.06 254.31,484.54 273.82,492.2 299.27,488.63 319.7,502.6 347.13,505.44 373.02,508.15 399.6,500.82 421.92,502.2 449.11,500.24 474.01,504.02 496.8,491.83 513.45,492.84 531.9,488.38 553.13,473.3 570.71,469.05 589.24,463.3 597.58,449.43 612.58,441.87 620.88,432.64 628.48,419.24 629.7,412.49 632,396.59 631.31,386.71 633.02,379.19 621.9,370.03" stroke="#336.19" stroke-width="0.81" fill="none"/>
  <polyline points="669.11,357.49 656.02,342.74 646.1,331.96 632.66,320.23 617.18,303.37 584.62,296.57 563.28,285.36 542.66,274.71 516.33,266.68 487.45,260.67 464.25,255.17 431.28,253.5 406,251.94 375.83,249.27 343.86,252.5 316.92,255.99 290.94,261.05 266.63,266.95 246.34,273.02 224.26,281.22 204.61,288.31 190.28,301.63 175.6,311.61 162.37,321.43 153.12,331.24 147.14,346.5 143.94,357.13 145.2,368.78 149.04,381.31 152.46,393.35 159.59,406.54 172.93,422.9 184.82,432.33 200.56,439.91 217.84,448.17 236.51,460.02 253.54,469.26 275.93,470.47 300.88,474.06 325.39,485.16 348,487.99 369.49,490.16 400.14,486.89 418.72,490.32 442.65,485.81 463.46,487.06 488.99,480.36 512.68,477.2 524.28,473.87 550.39,469.01 559.99,456.14 574.97,449.76 588.89,439.45 601.01,433.94 607.65,425.15 617.34,412.75 618.37,410.61 624.21,397.96 615.47,390.39 609.02,381.49 614.38,366.27" stroke="#335.18" stroke-width="0.8" fill="none"/>
  <polyline points="684.47,359.53 666.14,338.43 664.93,323.46 641.54,312.84 616.42,299.73 602.22,288.17 578.36,272.07 554.53,263.34 527.34,257.03 493.94,250.29 468.73,241.35 435.73,242.18 401.49,238.49 377.03,235.93 342.28,237.25 313.68,242.95 286.92,244.94 264.52,252.98 241.27,260.45 220.49,264.92 199.64,277.27 182.44,285.7 169.67,295.09 158.48,310.08 150.84,319.34 142.98,334.56 141.53,344.87 142.88,356.51 147.16,370.7 151,385.6 162.51,391.95 173.54,408.5 184.39,413.82 201.75,429.88 220.07,434.85 236.95,442.77 256.53,450.71 278.95,460.12 304.52,464.44 328.55,470.5 347.05,474.97 376.66,468 397.58,470.82 418.57,468.86 438.23,473.32 465.21,471.49 488.62,470.51 507.08,462.88 525.67,456.37 542.15,455.79 550.54,448.49 568.37,438.34 578.23,438.26 583.03,428.1 595.24,414.96 604.13,408.41 604.49,406.81 600.43,392.39 597.53,389.81 595.31,382.69 595.58,368.58" stroke="#333.84" stroke-width="0.8" fill="none"/>
  <polyline points="580.97,371.89 597.58,370.16 614.91,365.67 619.42,367.17 642.74,364.88 651.37,363.98 669.62,360.84 679.17,355.95" stroke="#999.2" stroke-width="0.5" fill="none"/>
  <polyline points="525.41,348.11 536.54,340.61 547.96,330.36 562.26,323.85 570.76,310.43 580.07,302.51 584.82,292.45 603.56,285.64" stroke="#1007.03" stroke-width="0.5" fill="none"/>
  <polyline points="444.96,337.43 442.34,319.68 451.3,307.42 449.5,296.01 457,284.06 458.9,271.05 457.62,257.26 465.23,245.58" stroke="#991.77" stroke-width="0.5" fill="none"/>
  <polyline points="336.73,346.83 333.13,326.58 331.8,317.54 332.33,297.47 324.56,284.6 323.42,272.52 317.08,254.71 315.21,243.02" stroke="#1005.02" stroke-width="0.5" fill="none"/>
  <polyline points="237.95,373.6 232.35,358.62 228.88,346.62 220.24,333.26 217.23,317.63 212.25,304.88 205.13,291.14 198.2,273.68" stroke="#1004.72" stroke-width="0.5" fill="none"/>
  <polyline points="170.99,428.74 169.43,413.42 164.67,401.08 160.18,387.44 156.79,371.97 153.5,356.55 148.94,344.55 144.12,334.37" stroke="#1006.58" stroke-width="0.5" fill="none"/>
  <polyline points="162.39,492.81 161.66,474.85 160.46,461.73 160.16,453.02 162.58,439.19 160.76,422.9 159.78,404.66 162.07,397.6" stroke="#993.33" stroke-width="0.5" fill="none"/>
  <polyline points="218.24,545.01 223.25,534.75 222.97,519.72 225.45,505.42 231.4,486.97 234.49,470.85 233.32,455.7 237.4,442.62" stroke="#1000.08" stroke-width="0.5" fill="none"/>
  <polyline points="337.64,573.5 339.33,561.53 342.67,550.48 340.22,530.93 346.8,513.17 343.86,503.37 346.14,487.62 350.32,466.17" stroke="#1001.24" stroke-width="0.5" fill="none"/>
  <polyline points="485.13,576.54 486.67,563.24 483.36,545.21 477.48,527.69 477.13,511.17 474.64,497.99 469.96,485.95 460.18,466.89" stroke="#991.99" stroke-width="0.5" fill="none"/>
  <polyline points="618.02,525.47 608.26,515.31 598.37,504.3 599.01,495.95 583.86,483.53 567.94,468.98 566.06,454.62 555.98,447.17" stroke="#1007.36" stroke-width="0.5" fill="none"/>
  <polyline points="702.45,449.96 691.01,445.17 678.55,440.51 658.11,428.05 641.63,423.99 627.46,423.49 613.85,412.77 600.64,413.43" stroke="#1000.82" stroke-width="0.5" fill="none"/>
</g>
</svg>