<svg xmlns="http://www.w3.org/2000/svg" width="800" height="800" viewBox="0 0 800 800">
  <g>
  <circle cx="400" cy="400" r="200" stroke="#9b59b6" stroke-width="2" fill="#9b59b6" fill-opacity="0.05"/>
  <circle cx="400" cy="240" r="16" fill="#9b59b6" stroke="#fff" stroke-width="1"/>
  <text x="397" y="244" font-size="9" fill="#fff" font-weight="bold">1</text>
  <circle cx="502.846" cy="277.4329" r="16" fill="#9b59b6" stroke="#fff" stroke-width="1"/>
  <text x="499.846" y="281.4329" font-size="9" fill="#fff" font-weight="bold">2</text>
  <circle cx="557.5692" cy="372.2163" r="16" fill="#9b59b6" stroke="#fff" stroke-width="1"/>
  <text x="554.5692" y="376.2163" font-size="9" fill="#fff" font-weight="bold">3</text>
  <circle cx="538.5641" cy="480" r="16" fill="#9b59b6" stroke="#fff" stroke-width="1"/>
  <text x="535.5641" y="484" font-size="9" fill="#fff" font-weight="bold">4</text>
  <circle cx="454.7232" cy="550.3508" r="16" fill="#9b59b6" stroke="#fff" stroke-width="1"/>
  <text x="451.7232" y="554.3508" font-size="9" fill="#fff" font-weight="bold">5</text>
  <circle cx="345.2768" cy="550.3508" r="16" fill="#9b59b6" stroke="#fff" stroke-width="1"/>
  <text x="342.2768" y="554.3508" font-size="9" fill="#fff" font-weight="bold">6</text>
  <circle cx="261.4359" cy="480" r="16" fill="#9b59b6" stroke="#fff" stroke-width="1"/>
  <text x="258.4359" y="484" font-size="9" fill="#fff" font-weight="bold">7</text>
  <circle cx="242.4308" cy="372.2163" r="16" fill="#9b59b6" stroke="#fff" stroke-width="1"/>
  <text x="239.4308" y="376.2163" font-size="9" fill="#fff" font-weight="bold">8</text>
  <circle cx="297.154" cy="277.4329" r="16" fill="#9b59b6" stroke="#fff" stroke-width="1"/>
  <text x="294.154" y="281.4329" font-size="9" fill="#fff" font-weight="bold">9</text>
  <path d="M 400,240 Q 457.4594,242.1316 502.846,277.4329" stroke="#9b59b6" stroke-width="1" fill="none"/>
  <path d="M 502.846,277.4329 Q 545.4923,316 557.5692,372.2163" stroke="#9b59b6" stroke-width="1" fill="none"/>
  <path d="M 557.5692,372.2163 Q 565.4477,429.1729 538.5641,480" stroke="#9b59b6" stroke-width="1" fill="none"/>
  <path d="M 538.5641,480 Q 507.9883,528.6955 454.7232,550.3508" stroke="#9b59b6" stroke-width="1" fill="none"/>
  <path d="M 454.7232,550.3508 Q 400,568 345.2768,550.3508" stroke="#9b59b6" stroke-width="1" fill="none"/>
  <path d="M 345.2768,550.3508 Q 292.0117,528.6955 261.4359,480" stroke="#9b59b6" stroke-width="1" fill="none"/>
  <path d="M 261.4359,480 Q 234.5523,429.1729 242.4308,372.2163" stroke="#9b59b6" stroke-width="1" fill="none"/>
  <path d="M 242.4308,372.2163 Q 254.5077,316 297.154,277.4329" stroke="#9b59b6" stroke-width="1" fill="none"/>
  <path d="M 297.154,277.4329 Q 457.4594,557.8684 400,240" stroke="#9b59b6" stroke-width="1" fill="none"/>
  <text x="392" y="404" font-size="14" fill="#9b59b6" font-weight="bold">W9</text>
</g>
</svg>