<svg xmlns="http://www.w3.org/2000/svg" width="800" height="800" viewBox="0 0 800 800">
  <g>
  <line x1="344.9041" y1="687.6194" x2="575.0677" y2="614.4998" stroke="#333" stroke-width="1.2" fill="none"/>
  <line x1="344.9041" y1="687.6194" x2="296.0232" y2="719.7357" stroke="#333" stroke-width="1.2" fill="none"/>
  <line x1="344.9041" y1="687.6194" x2="202.6552" y2="509.665" stroke="#333" stroke-width="1.2" fill="none"/>
  <line x1="344.9041" y1="326.5635" x2="202.6552" y2="509.665" stroke="#333" stroke-width="1.2" fill="none"/>
  <line x1="344.9041" y1="326.5635" x2="575.0677" y2="391.3549" stroke="#333" stroke-width="1.2" fill="none"/>
  <line x1="344.9041" y1="326.5635" x2="296.0232" y2="135.535" stroke="#333" stroke-width="1.2" fill="none"/>
  <line x1="123.5643" y1="561.6303" x2="296.0232" y2="719.7357" stroke="#333" stroke-width="1.2" fill="none"/>
  <line x1="123.5643" y1="561.6303" x2="65.8597" y2="431.7995" stroke="#333" stroke-width="1.2" fill="none"/>
  <line x1="123.5643" y1="561.6303" x2="216.9323" y2="410.6451" stroke="#333" stroke-width="1.2" fill="none"/>
  <line x1="123.5643" y1="200.5744" x2="296.0232" y2="135.535" stroke="#333" stroke-width="1.2" fill="none"/>
  <line x1="123.5643" y1="200.5744" x2="65.8597" y2="431.7995" stroke="#333" stroke-width="1.2" fill="none"/>
  <line x1="123.5643" y1="200.5744" x2="216.9323" y2="187.5002" stroke="#333" stroke-width="1.2" fill="none"/>
  <line x1="668.4357" y1="601.4256" x2="575.0677" y2="614.4998" stroke="#333" stroke-width="1.2" fill="none"/>
  <line x1="668.4357" y1="601.4256" x2="495.9768" y2="666.465" stroke="#333" stroke-width="1.2" fill="none"/>
  <line x1="668.4357" y1="601.4256" x2="726.1403" y2="370.2005" stroke="#333" stroke-width="1.2" fill="none"/>
  <line x1="668.4357" y1="240.3697" x2="575.0677" y2="391.3549" stroke="#333" stroke-width="1.2" fill="none"/>
  <line x1="668.4357" y1="240.3697" x2="726.1403" y2="370.2005" stroke="#333" stroke-width="1.2" fill="none"/>
  <line x1="668.4357" y1="240.3697" x2="495.9768" y2="82.2643" stroke="#333" stroke-width="1.2" fill="none"/>
  <line x1="447.0959" y1="475.4365" x2="216.9323" y2="410.6451" stroke="#333" stroke-width="1.2" fill="none"/>
  <line x1="447.0959" y1="475.4365" x2="495.9768" y2="666.465" stroke="#333" stroke-width="1.2" fill="none"/>
  <line x1="447.0959" y1="475.4365" x2="589.3448" y2="292.335" stroke="#333" stroke-width="1.2" fill="none"/>
  <line x1="447.0959" y1="114.3806" x2="216.9323" y2="187.5002" stroke="#333" stroke-width="1.2" fill="none"/>
  <line x1="447.0959" y1="114.3806" x2="495.9768" y2="82.2643" stroke="#333" stroke-width="1.2" fill="none"/>
  <line x1="447.0959" y1="114.3806" x2="589.3448" y2="292.335" stroke="#333" stroke-width="1.2" fill="none"/>
  <line x1="575.0677" y1="614.4998" x2="575.0677" y2="391.3549" stroke="#333" stroke-width="1.2" fill="none"/>
  <line x1="296.0232" y1="719.7357" x2="495.9768" y2="666.465" stroke="#333" stroke-width="1.2" fill="none"/>
  <line x1="202.6552" y1="509.665" x2="65.8597" y2="431.7995" stroke="#333" stroke-width="1.2" fill="none"/>
  <line x1="296.0232" y1="135.535" x2="495.9768" y2="82.2643" stroke="#333" stroke-width="1.2" fill="none"/>
  <line x1="216.9323" y1="410.6451" x2="216.9323" y2="187.5002" stroke="#333" stroke-width="1.2" fill="none"/>
  <line x1="726.1403" y1="370.2005" x2="589.3448" y2="292.335" stroke="#333" stroke-width="1.2" fill="none"/>
  <circle cx="344.9041" cy="687.6194" r="5.88" fill="#333" stroke="none"/>
  <circle cx="344.9041" cy="326.5635" r="5.88" fill="#333" stroke="none"/>
  <circle cx="123.5643" cy="561.6303" r="5.88" fill="#333" stroke="none"/>
  <circle cx="123.5643" cy="200.5744" r="5.88" fill="#333" stroke="none"/>
  <circle cx="668.4357" cy="601.4256" r="5.88" fill="#333" stroke="none"/>
  <circle cx="668.4357" cy="240.3697" r="5.88" fill="#333" stroke="none"/>
  <circle cx="447.0959" cy="475.4365" r="5.88" fill="#333" stroke="none"/>
  <circle cx="447.0959" cy="114.3806" r="5.88" fill="#333" stroke="none"/>
  <circle cx="575.0677" cy="614.4998" r="5.88" fill="#333" stroke="none"/>
  <circle cx="296.0232" cy="719.7357" r="5.88" fill="#333" stroke="none"/>
  <circle cx="202.6552" cy="509.665" r="5.88" fill="#333" stroke="none"/>
  <circle cx="575.0677" cy="391.3549" r="5.88" fill="#333" stroke="none"/>
  <circle cx="296.0232" cy="135.535" r="5.88" fill="#333" stroke="none"/>
  <circle cx="65.8597" cy="431.7995" r="5.88" fill="#333" stroke="none"/>
  <circle cx="216.9323" cy="410.6451" r="5.88" fill="#333" stroke="none"/>
  <circle cx="495.9768" cy="666.465" r="5.88" fill="#333" stroke="none"/>
  <circle cx="726.1403" cy="370.2005" r="5.88" fill="#333" stroke="none"/>
  <circle cx="216.9323" cy="187.5002" r="5.88" fill="#333" stroke="none"/>
  <circle cx="495.9768" cy="82.2643" r="5.88" fill="#333" stroke="none"/>
  <circle cx="589.3448" cy="292.335" r="5.88" fill="#333" stroke="none"/>
</g>
</svg>