<svg xmlns="http://www.w3.org/2000/svg" width="1000" height="1000" viewBox="0 0 1000 1000">
  <g>
  <g>
  <circle cx="400" cy="400" r="32.4612" stroke="#e74c3c" stroke-width="2" fill="#e74c3c" fill-opacity="0.08"/>
  <circle cx="432.4612" cy="400" r="3" fill="#e74c3c" stroke="none"/>
  <circle cx="383.7694" cy="371.8878" r="3" fill="#e74c3c" stroke="none"/>
  <circle cx="383.7694" cy="428.1122" r="3" fill="#e74c3c" stroke="none"/>
  <text x="440.4612" y="404" font-size="10" fill="#e74c3c">3D c3 seed</text>
  <circle cx="400" cy="400" r="52.5233" stroke="#e67e22" stroke-width="2" fill="#e67e22" fill-opacity="0.08"/>
  <circle cx="452.5233" cy="400" r="3" fill="#e67e22" stroke="none"/>
  <circle cx="400" cy="347.4767" r="3" fill="#e67e22" stroke="none"/>
  <circle cx="347.4767" cy="400" r="3" fill="#e67e22" stroke="none"/>
  <circle cx="400" cy="452.5233" r="3" fill="#e67e22" stroke="none"/>
  <text x="460.5233" y="404" font-size="10" fill="#e67e22">4D E4 base</text>
  <circle cx="400" cy="400" r="84.9845" stroke="#f1c40f" stroke-width="2" fill="#f1c40f" fill-opacity="0.08"/>
  <circle cx="484.9845" cy="400" r="3" fill="#f1c40f" stroke="none"/>
  <circle cx="442.4922" cy="326.4013" r="3" fill="#f1c40f" stroke="none"/>
  <circle cx="357.5078" cy="326.4013" r="3" fill="#f1c40f" stroke="none"/>
  <circle cx="315.0155" cy="400" r="3" fill="#f1c40f" stroke="none"/>
  <circle cx="357.5078" cy="473.5987" r="3" fill="#f1c40f" stroke="none"/>
  <circle cx="442.4922" cy="473.5987" r="3" fill="#f1c40f" stroke="none"/>
  <text x="492.9845" y="404" font-size="10" fill="#f1c40f">6D W3 Mobius</text>
  <circle cx="400" cy="400" r="137.5078" stroke="#2ecc71" stroke-width="2" fill="#2ecc71" fill-opacity="0.08"/>
  <circle cx="537.5078" cy="400" r="3" fill="#2ecc71" stroke="none"/>
  <circle cx="497.2327" cy="302.7673" r="3" fill="#2ecc71" stroke="none"/>
  <circle cx="400" cy="262.4922" r="3" fill="#2ecc71" stroke="none"/>
  <circle cx="302.7673" cy="302.7673" r="3" fill="#2ecc71" stroke="none"/>
  <circle cx="262.4922" cy="400" r="3" fill="#2ecc71" stroke="none"/>
  <circle cx="302.7673" cy="497.2327" r="3" fill="#2ecc71" stroke="none"/>
  <circle cx="400" cy="537.5078" r="3" fill="#2ecc71" stroke="none"/>
  <circle cx="497.2327" cy="497.2327" r="3" fill="#2ecc71" stroke="none"/>
  <text x="545.5078" y="404" font-size="10" fill="#2ecc71">8D W5 penta</text>
  <circle cx="400" cy="400" r="222.4922" stroke="#3498db" stroke-width="2" fill="#3498db" fill-opacity="0.08"/>
  <circle cx="622.4922" cy="400" r="3" fill="#3498db" stroke="none"/>
  <circle cx="580" cy="269.2223" r="3" fill="#3498db" stroke="none"/>
  <circle cx="468.7539" cy="188.3973" r="3" fill="#3498db" stroke="none"/>
  <circle cx="331.2461" cy="188.3973" r="3" fill="#3498db" stroke="none"/>
  <circle cx="220" cy="269.2223" r="3" fill="#3498db" stroke="none"/>
  <circle cx="177.5078" cy="400" r="3" fill="#3498db" stroke="none"/>
  <circle cx="220" cy="530.7777" r="3" fill="#3498db" stroke="none"/>
  <circle cx="331.2461" cy="611.6027" r="3" fill="#3498db" stroke="none"/>
  <circle cx="468.7539" cy="611.6027" r="3" fill="#3498db" stroke="none"/>
  <circle cx="580" cy="530.7777" r="3" fill="#3498db" stroke="none"/>
  <text x="630.4922" y="404" font-size="10" fill="#3498db">10D W7 hepta</text>
  <circle cx="400" cy="400" r="360" stroke="#9b59b6" stroke-width="2" fill="#9b59b6" fill-opacity="0.08"/>
  <circle cx="760" cy="400" r="3" fill="#9b59b6" stroke="none"/>
  <circle cx="711.7691" cy="220" r="3" fill="#9b59b6" stroke="none"/>
  <circle cx="580" cy="88.2309" r="3" fill="#9b59b6" stroke="none"/>
  <circle cx="400" cy="40" r="3" fill="#9b59b6" stroke="none"/>
  <circle cx="220" cy="88.2309" r="3" fill="#9b59b6" stroke="none"/>
  <circle cx="88.2309" cy="220" r="3" fill="#9b59b6" stroke="none"/>
  <circle cx="40" cy="400" r="3" fill="#9b59b6" stroke="none"/>
  <circle cx="88.2309" cy="580" r="3" fill="#9b59b6" stroke="none"/>
  <circle cx="220" cy="711.7691" r="3" fill="#9b59b6" stroke="none"/>
  <circle cx="400" cy="760" r="3" fill="#9b59b6" stroke="none"/>
  <circle cx="580" cy="711.7691" r="3" fill="#9b59b6" stroke="none"/>
  <circle cx="711.7691" cy="580" r="3" fill="#9b59b6" stroke="none"/>
  <text x="768" y="404" font-size="10" fill="#9b59b6">12D W9 crown</text>
</g>
  <line x1="353.933" y1="548.7037" x2="541.3279" y2="533.854" stroke="#8B4513" stroke-width="1.2"/>
  <line x1="353.933" y1="548.7037" x2="353.933" y2="293.4456" stroke="#DC143C" stroke-width="1.2"/>
  <line x1="353.933" y1="548.7037" x2="353.933" y2="506.5544" stroke="#4169E1" stroke-width="1.2"/>
  <line x1="353.933" y1="548.7037" x2="269.4953" y2="523.6031" stroke="#228B22" stroke-width="1.2"/>
  <line x1="541.3279" y1="533.854" x2="541.3279" y2="304.0863" stroke="#DC143C" stroke-width="1.2"/>
  <line x1="541.3279" y1="533.854" x2="541.3279" y2="495.9137" stroke="#4169E1" stroke-width="1.2"/>
  <line x1="541.3279" y1="533.854" x2="435.0583" y2="513.1675" stroke="#228B22" stroke-width="1.2"/>
  <line x1="353.933" y1="293.4456" x2="541.3279" y2="304.0863" stroke="#8B4513" stroke-width="1.2"/>
  <line x1="353.933" y1="293.4456" x2="353.933" y2="251.2963" stroke="#4169E1" stroke-width="1.2"/>
  <line x1="353.933" y1="293.4456" x2="269.4953" y2="311.4316" stroke="#228B22" stroke-width="1.2"/>
  <line x1="541.3279" y1="304.0863" x2="541.3279" y2="266.146" stroke="#4169E1" stroke-width="1.2"/>
  <line x1="541.3279" y1="304.0863" x2="435.0583" y2="318.9092" stroke="#228B22" stroke-width="1.2"/>
  <line x1="353.933" y1="506.5544" x2="541.3279" y2="495.9137" stroke="#8B4513" stroke-width="1.2"/>
  <line x1="353.933" y1="506.5544" x2="353.933" y2="251.2963" stroke="#DC143C" stroke-width="1.2"/>
  <line x1="353.933" y1="506.5544" x2="269.4953" y2="488.5684" stroke="#228B22" stroke-width="1.2"/>
  <line x1="541.3279" y1="495.9137" x2="541.3279" y2="266.146" stroke="#DC143C" stroke-width="1.2"/>
  <line x1="541.3279" y1="495.9137" x2="435.0583" y2="481.0908" stroke="#228B22" stroke-width="1.2"/>
  <line x1="353.933" y1="251.2963" x2="541.3279" y2="266.146" stroke="#8B4513" stroke-width="1.2"/>
  <line x1="353.933" y1="251.2963" x2="269.4953" y2="276.3969" stroke="#228B22" stroke-width="1.2"/>
  <line x1="541.3279" y1="266.146" x2="435.0583" y2="286.8325" stroke="#228B22" stroke-width="1.2"/>
  <line x1="269.4953" y1="523.6031" x2="435.0583" y2="513.1675" stroke="#8B4513" stroke-width="1.2"/>
  <line x1="269.4953" y1="523.6031" x2="269.4953" y2="311.4316" stroke="#DC143C" stroke-width="1.2"/>
  <line x1="269.4953" y1="523.6031" x2="269.4953" y2="488.5684" stroke="#4169E1" stroke-width="1.2"/>
  <line x1="435.0583" y1="513.1675" x2="435.0583" y2="318.9092" stroke="#DC143C" stroke-width="1.2"/>
  <line x1="435.0583" y1="513.1675" x2="435.0583" y2="481.0908" stroke="#4169E1" stroke-width="1.2"/>
  <line x1="269.4953" y1="311.4316" x2="435.0583" y2="318.9092" stroke="#8B4513" stroke-width="1.2"/>
  <line x1="269.4953" y1="311.4316" x2="269.4953" y2="276.3969" stroke="#4169E1" stroke-width="1.2"/>
  <line x1="435.0583" y1="318.9092" x2="435.0583" y2="286.8325" stroke="#4169E1" stroke-width="1.2"/>
  <line x1="269.4953" y1="488.5684" x2="435.0583" y2="481.0908" stroke="#8B4513" stroke-width="1.2"/>
  <line x1="269.4953" y1="488.5684" x2="269.4953" y2="276.3969" stroke="#DC143C" stroke-width="1.2"/>
  <line x1="435.0583" y1="481.0908" x2="435.0583" y2="286.8325" stroke="#DC143C" stroke-width="1.2"/>
  <line x1="269.4953" y1="276.3969" x2="435.0583" y2="286.8325" stroke="#8B4513" stroke-width="1.2"/>
  <circle cx="353.933" cy="548.7037" r="3" fill="#8B4513" stroke="#333" stroke-width="0.5"/>
  <circle cx="541.3279" cy="533.854" r="3" fill="#DC143C" stroke="#333" stroke-width="0.5"/>
  <circle cx="353.933" cy="293.4456" r="3" fill="#DC143C" stroke="#333" stroke-width="0.5"/>
  <circle cx="541.3279" cy="304.0863" r="3" fill="#4169E1" stroke="#333" stroke-width="0.5"/>
  <circle cx="353.933" cy="506.5544" r="3" fill="#DC143C" stroke="#333" stroke-width="0.5"/>
  <circle cx="541.3279" cy="495.9137" r="3" fill="#4169E1" stroke="#333" stroke-width="0.5"/>
  <circle cx="353.933" cy="251.2963" r="3" fill="#4169E1" stroke="#333" stroke-width="0.5"/>
  <circle cx="541.3279" cy="266.146" r="3" fill="#228B22" stroke="#333" stroke-width="0.5"/>
  <circle cx="269.4953" cy="523.6031" r="3" fill="#DC143C" stroke="#333" stroke-width="0.5"/>
  <circle cx="435.0583" cy="513.1675" r="3" fill="#4169E1" stroke="#333" stroke-width="0.5"/>
  <circle cx="269.4953" cy="311.4316" r="3" fill="#4169E1" stroke="#333" stroke-width="0.5"/>
  <circle cx="435.0583" cy="318.9092" r="3" fill="#228B22" stroke="#333" stroke-width="0.5"/>
  <circle cx="269.4953" cy="488.5684" r="3" fill="#4169E1" stroke="#333" stroke-width="0.5"/>
  <circle cx="435.0583" cy="481.0908" r="3" fill="#228B22" stroke="#333" stroke-width="0.5"/>
  <circle cx="269.4953" cy="276.3969" r="3" fill="#228B22" stroke="#333" stroke-width="0.5"/>
  <circle cx="435.0583" cy="286.8325" r="3" fill="#8B4513" stroke="#333" stroke-width="0.5"/>
  <g>
  <polyline points="513.685,383.1401 508.1631,377.3665 500.8615,371.9676 491.884,367.0377 481.357,362.6653 469.4283,358.9324 456.2665,355.9131 442.059,353.6731 427.0109,352.268 411.343,351.7426 395.2895,352.13 379.0958,353.4505 363.0154,355.7108 347.307,358.9031 332.2308,363.0047 318.0444,367.9774 304.9993,373.7677 293.3359,380.3062 283.2796,387.5086 275.0356,395.276 268.7851,403.496 264.6804,412.0439 262.8412,420.7848 263.3508,429.5749 266.2529,438.2644 271.5494,446.6999 279.1985,454.7269 289.1138,462.1931 301.1643,468.9515 315.1757,474.8632 330.9321,479.8007 348.1791,483.6509 366.6281,486.3175 385.9607,487.7242 405.835,487.816 425.8916,486.5616 445.7611,483.9544 465.0711,480.013 483.4546,474.7819 500.5571,468.3308 516.045,460.7535 529.6126,452.1667 540.9889,442.7077 549.944,432.5317 556.2943,421.8093 559.907,410.7224 560.703,399.4609 558.6593,388.2186 553.8092,377.1895" stroke="#9b59b6" stroke-width="0.5" fill="none" stroke-opacity="0.6"/>
  <polyline points="520.3724,382.1483 514.5096,375.566 506.7349,369.3933 497.1672,363.7372 485.952,358.6973 473.2597,354.3645 459.2838,350.8199 444.2383,348.1334 428.3552,346.3624 411.8818,345.5513 395.0774,345.7298 378.2101,346.9129 361.5527,349.0999 345.3792,352.274 329.9607,356.4021 315.5608,361.4349 302.4317,367.3073 290.8095,373.9387 280.9102,381.234 272.9254,389.0845 267.0185,397.3696 263.3206,405.9583 261.9282,414.711 262.8995,423.4819 266.2529,432.1213 271.9654,440.4783 279.9718,448.403 290.1647,455.75 302.3956,462.3806 316.4763,468.1659 332.1819,472.9893 349.2538,476.7493 367.4042,479.3612 386.3207,480.7599 405.6723,480.9009 425.1149,479.7618 444.2983,477.3435 462.8729,473.6701 480.4962,468.789 496.8402,462.7706 511.5979,455.7068 524.4895,447.7099 535.2688,438.9102 543.7276,429.454 549.7011,419.5006 553.071,409.2193 553.768,398.7861 551.7739,388.3805 547.1218,378.1813" stroke="#9b59b6" stroke-width="0.5" fill="none" stroke-opacity="0.6"/>
  <polyline points="527.0598,381.1566 520.8561,373.7655 512.6083,366.819 502.4503,360.4368 490.547,354.7293 477.0911,349.7967 462.3012,345.7267 446.4176,342.5936 429.6994,340.4569 412.4205,339.3599 394.8653,339.3296 377.3243,340.3754 360.0899,342.4891 343.4514,345.6449 327.6907,349.7995 313.0773,354.8923 299.8641,360.8469 288.2831,367.5712 278.5409,374.9593 270.8153,382.893 265.2518,391.2432 261.9609,399.8726 261.0152,408.6372 262.4482,417.3889 266.2529,425.9783 272.3814,434.2567 280.745,442.0791 291.2156,449.3068 303.6268,455.8096 317.7769,461.4685 333.4317,466.1779 350.3285,469.8477 368.1803,472.405 386.6807,473.7957 405.5095,473.9857 424.3381,472.962 442.8356,470.7326 460.6746,467.3271 477.5378,462.7961 493.1232,457.2104 507.1507,450.6602 519.3664,443.2531 529.5486,435.1128 537.5113,426.3763 543.108,417.1919 546.2349,407.7162 546.8329,398.1114 544.8885,388.5423 540.4345,379.173" stroke="#9b59b6" stroke-width="0.5" fill="none" stroke-opacity="0.6"/>
  <polyline points="533.7471,380.1648 527.2026,371.9649 518.4817,364.2447 507.7335,357.1363 495.142,350.7613 480.9225,345.2288 465.3185,340.6335 448.5968,337.0539 431.0436,334.5513 412.9593,333.1686 394.6532,332.9294 376.4386,333.8378 358.6272,335.8782 341.5236,339.0158 325.4206,343.1968 310.5937,348.3498 297.2965,354.3865 285.7566,361.2037 276.1715,368.6847 268.7051,376.7014 263.4852,385.1169 260.6011,393.787 260.1021,402.5634 261.9969,411.2959 266.2529,419.8352 272.7974,428.0351 281.5183,435.7553 292.2665,442.8637 304.858,449.2387 319.0775,454.7712 334.6815,459.3665 351.4032,462.9461 368.9564,465.4487 387.0407,466.8314 405.3468,467.0706 423.5614,466.1622 441.3728,464.1218 458.4764,460.9842 474.5794,456.8032 489.4063,451.6502 502.7035,445.6135 514.2434,438.7963 523.8285,431.3153 531.2949,423.2986 536.5148,414.8831 539.3989,406.213 539.8979,397.4366 538.0031,388.7041 533.7471,380.1648" stroke="#9b59b6" stroke-width="0.5" fill="none" stroke-opacity="0.6"/>
  <polyline points="540.4345,379.173 533.5492,370.1644 524.3551,361.6704 513.0167,353.8359 499.737,346.7933 484.7539,340.661 468.3358,335.5402 450.7761,331.5141 432.3879,328.6458 413.4981,326.9773 394.4411,326.5292 375.5529,327.3002 357.1644,329.2674 339.5958,332.3867 323.1506,336.5942 308.1101,341.8073 294.7289,347.9261 283.2302,354.8362 273.8021,362.41 266.5949,370.5099 261.7186,378.9905 259.2413,387.7013 259.1891,396.4896 261.5456,405.2029 266.2529,413.6921 273.2133,421.8135 282.2915,429.4314 293.3174,436.4205 306.0892,442.6677 320.3781,448.0738 335.9313,452.5551 352.4779,456.0445 369.7325,458.4924 387.4007,459.8671 405.184,460.1555 422.7846,459.3624 439.9101,457.5109 456.2781,454.6413 471.621,450.8102 485.6894,446.09 498.2563,440.5668 509.1203,434.3395 518.1084,427.5179 525.0785,420.2208 529.9216,412.5744 532.5629,404.7099 532.9628,396.7619 531.1177,388.8659 527.0598,381.1566" stroke="#9b59b6" stroke-width="0.5" fill="none" stroke-opacity="0.6"/>
  <polyline points="547.1218,378.1813 539.8957,368.3639 530.2285,359.0961 518.2999,350.5354 504.332,342.8253 488.5853,336.0931 471.3531,330.447 452.9553,325.9744 433.7321,322.7402 414.0368,320.786 394.229,320.129 374.6672,320.7626 355.7017,322.6565 337.668,325.7576 320.8805,329.9916 305.6265,335.2647 292.1614,341.4657 280.7038,348.4686 271.4328,356.1353 264.4848,364.3184 259.9519,372.8642 257.8815,381.6157 258.2761,390.4158 261.0943,399.11 266.2529,407.549 273.6293,415.5919 283.0648,423.1075 294.3683,429.9774 307.3205,436.0968 321.6786,441.3765 337.1812,445.7438 353.5526,449.143 370.5085,451.5361 387.7607,452.9029 405.0213,453.2403 422.0079,452.5626 438.4473,450.9001 454.0799,448.2983 468.6626,444.8173 481.9724,440.5298 493.8091,435.5202 503.9972,429.8828 512.3882,423.7205 518.8622,417.1431 523.3285,410.2656 525.7269,403.2067 526.0278,396.0871 524.2324,389.0277 520.3724,382.1483" stroke="#9b59b6" stroke-width="0.5" fill="none" stroke-opacity="0.6"/>
  <polyline points="513.685,383.1401 520.3724,382.1483 527.0598,381.1566 533.7471,380.1648 540.4345,379.173 547.1218,378.1813" stroke="#999" stroke-width="0.5" fill="none" stroke-opacity="0.6"/>
  <polyline points="481.357,362.6653 485.952,358.6973 490.547,354.7293 495.142,350.7613 499.737,346.7933 504.332,342.8253" stroke="#999" stroke-width="0.5" fill="none" stroke-opacity="0.6"/>
  <polyline points="427.0109,352.268 428.3552,346.3624 429.6994,340.4569 431.0436,334.5513 432.3879,328.6458 433.7321,322.7402" stroke="#999" stroke-width="0.5" fill="none" stroke-opacity="0.6"/>
  <polyline points="363.0154,355.7108 361.5527,349.0999 360.0899,342.4891 358.6272,335.8782 357.1644,329.2674 355.7017,322.6565" stroke="#999" stroke-width="0.5" fill="none" stroke-opacity="0.6"/>
  <polyline points="304.9993,373.7677 302.4317,367.3073 299.8641,360.8469 297.2965,354.3865 294.7289,347.9261 292.1614,341.4657" stroke="#999" stroke-width="0.5" fill="none" stroke-opacity="0.6"/>
  <polyline points="268.7851,403.496 267.0185,397.3696 265.2518,391.2432 263.4852,385.1169 261.7186,378.9905 259.9519,372.8642" stroke="#999" stroke-width="0.5" fill="none" stroke-opacity="0.6"/>
  <polyline points="266.2529,438.2644 266.2529,432.1213 266.2529,425.9783 266.2529,419.8352 266.2529,413.6921 266.2529,407.549" stroke="#999" stroke-width="0.5" fill="none" stroke-opacity="0.6"/>
  <polyline points="301.1643,468.9515 302.3956,462.3806 303.6268,455.8096 304.858,449.2387 306.0892,442.6677 307.3205,436.0968" stroke="#999" stroke-width="0.5" fill="none" stroke-opacity="0.6"/>
  <polyline points="366.6281,486.3175 367.4042,479.3612 368.1803,472.405 368.9564,465.4487 369.7325,458.4924 370.5085,451.5361" stroke="#999" stroke-width="0.5" fill="none" stroke-opacity="0.6"/>
  <polyline points="445.7611,483.9544 444.2983,477.3435 442.8356,470.7326 441.3728,464.1218 439.9101,457.5109 438.4473,450.9001" stroke="#999" stroke-width="0.5" fill="none" stroke-opacity="0.6"/>
  <polyline points="516.045,460.7535 511.5979,455.7068 507.1507,450.6602 502.7035,445.6135 498.2563,440.5668 493.8091,435.5202" stroke="#999" stroke-width="0.5" fill="none" stroke-opacity="0.6"/>
  <polyline points="556.2943,421.8093 549.7011,419.5006 543.108,417.1919 536.5148,414.8831 529.9216,412.5744 523.3285,410.2656" stroke="#999" stroke-width="0.5" fill="none" stroke-opacity="0.6"/>
</g>
</g>
</svg>