<svg xmlns="http://www.w3.org/2000/svg" width="800" height="800" viewBox="0 0 800 800">
  <g>
  <circle cx="400" cy="400" r="22.5425" stroke="#e74c3c" stroke-width="2" fill="#e74c3c" fill-opacity="0.08"/>
  <circle cx="422.5425" cy="400" r="3" fill="#e74c3c" stroke="none"/>
  <circle cx="388.7288" cy="380.4776" r="3" fill="#e74c3c" stroke="none"/>
  <circle cx="388.7288" cy="419.5224" r="3" fill="#e74c3c" stroke="none"/>
  <text x="430.5425" y="404" font-size="10" fill="#e74c3c">3D c3 seed</text>
  <circle cx="400" cy="400" r="36.4745" stroke="#e67e22" stroke-width="2" fill="#e67e22" fill-opacity="0.08"/>
  <circle cx="436.4745" cy="400" r="3" fill="#e67e22" stroke="none"/>
  <circle cx="400" cy="363.5255" r="3" fill="#e67e22" stroke="none"/>
  <circle cx="363.5255" cy="400" r="3" fill="#e67e22" stroke="none"/>
  <circle cx="400" cy="436.4745" r="3" fill="#e67e22" stroke="none"/>
  <text x="444.4745" y="404" font-size="10" fill="#e67e22">4D E4 base</text>
  <circle cx="400" cy="400" r="59.017" stroke="#f1c40f" stroke-width="2" fill="#f1c40f" fill-opacity="0.08"/>
  <circle cx="459.017" cy="400" r="3" fill="#f1c40f" stroke="none"/>
  <circle cx="429.5085" cy="348.8898" r="3" fill="#f1c40f" stroke="none"/>
  <circle cx="370.4915" cy="348.8898" r="3" fill="#f1c40f" stroke="none"/>
  <circle cx="340.983" cy="400" r="3" fill="#f1c40f" stroke="none"/>
  <circle cx="370.4915" cy="451.1102" r="3" fill="#f1c40f" stroke="none"/>
  <circle cx="429.5085" cy="451.1102" r="3" fill="#f1c40f" stroke="none"/>
  <text x="467.017" y="404" font-size="10" fill="#f1c40f">6D W3 Mobius</text>
  <circle cx="400" cy="400" r="95.4915" stroke="#2ecc71" stroke-width="2" fill="#2ecc71" fill-opacity="0.08"/>
  <circle cx="495.4915" cy="400" r="3" fill="#2ecc71" stroke="none"/>
  <circle cx="467.5227" cy="332.4773" r="3" fill="#2ecc71" stroke="none"/>
  <circle cx="400" cy="304.5085" r="3" fill="#2ecc71" stroke="none"/>
  <circle cx="332.4773" cy="332.4773" r="3" fill="#2ecc71" stroke="none"/>
  <circle cx="304.5085" cy="400" r="3" fill="#2ecc71" stroke="none"/>
  <circle cx="332.4773" cy="467.5227" r="3" fill="#2ecc71" stroke="none"/>
  <circle cx="400" cy="495.4915" r="3" fill="#2ecc71" stroke="none"/>
  <circle cx="467.5227" cy="467.5227" r="3" fill="#2ecc71" stroke="none"/>
  <text x="503.4915" y="404" font-size="10" fill="#2ecc71">8D W5 penta</text>
  <circle cx="400" cy="400" r="154.5085" stroke="#3498db" stroke-width="2" fill="#3498db" fill-opacity="0.08"/>
  <circle cx="554.5085" cy="400" r="3" fill="#3498db" stroke="none"/>
  <circle cx="525" cy="309.1822" r="3" fill="#3498db" stroke="none"/>
  <circle cx="447.7458" cy="253.0537" r="3" fill="#3498db" stroke="none"/>
  <circle cx="352.2542" cy="253.0537" r="3" fill="#3498db" stroke="none"/>
  <circle cx="275" cy="309.1822" r="3" fill="#3498db" stroke="none"/>
  <circle cx="245.4915" cy="400" r="3" fill="#3498db" stroke="none"/>
  <circle cx="275" cy="490.8178" r="3" fill="#3498db" stroke="none"/>
  <circle cx="352.2542" cy="546.9463" r="3" fill="#3498db" stroke="none"/>
  <circle cx="447.7458" cy="546.9463" r="3" fill="#3498db" stroke="none"/>
  <circle cx="525" cy="490.8178" r="3" fill="#3498db" stroke="none"/>
  <text x="562.5085" y="404" font-size="10" fill="#3498db">10D W7 hepta</text>
  <circle cx="400" cy="400" r="250" stroke="#9b59b6" stroke-width="2" fill="#9b59b6" fill-opacity="0.08"/>
  <circle cx="650" cy="400" r="3" fill="#9b59b6" stroke="none"/>
  <circle cx="616.5064" cy="275" r="3" fill="#9b59b6" stroke="none"/>
  <circle cx="525" cy="183.4936" r="3" fill="#9b59b6" stroke="none"/>
  <circle cx="400" cy="150" r="3" fill="#9b59b6" stroke="none"/>
  <circle cx="275" cy="183.4936" r="3" fill="#9b59b6" stroke="none"/>
  <circle cx="183.4936" cy="275" r="3" fill="#9b59b6" stroke="none"/>
  <circle cx="150" cy="400" r="3" fill="#9b59b6" stroke="none"/>
  <circle cx="183.4936" cy="525" r="3" fill="#9b59b6" stroke="none"/>
  <circle cx="275" cy="616.5064" r="3" fill="#9b59b6" stroke="none"/>
  <circle cx="400" cy="650" r="3" fill="#9b59b6" stroke="none"/>
  <circle cx="525" cy="616.5064" r="3" fill="#9b59b6" stroke="none"/>
  <circle cx="616.5064" cy="525" r="3" fill="#9b59b6" stroke="none"/>
  <text x="658" y="404" font-size="10" fill="#9b59b6">12D W9 crown</text>
</g>
</svg>