<svg xmlns="http://www.w3.org/2000/svg" width="800" height="800" viewBox="0 0 800 800">
  <g>
  <line x1="287.0715" y1="335.7198" x2="497.1374" y2="331.9193" stroke="#333" stroke-width="1.2" fill="none"/>
  <line x1="287.0715" y1="335.7198" x2="395.1203" y2="202.398" stroke="#333" stroke-width="1.2" fill="none"/>
  <line x1="287.0715" y1="335.7198" x2="230.0531" y2="306.2286" stroke="#333" stroke-width="1.2" fill="none"/>
  <line x1="287.0715" y1="335.7198" x2="230.0531" y2="499.9208" stroke="#333" stroke-width="1.2" fill="none"/>
  <line x1="287.0715" y1="335.7198" x2="395.1203" y2="515.7985" stroke="#333" stroke-width="1.2" fill="none"/>
  <line x1="512.9285" y1="464.2802" x2="569.9469" y2="300.0792" stroke="#333" stroke-width="1.2" fill="none"/>
  <line x1="512.9285" y1="464.2802" x2="404.8797" y2="284.2015" stroke="#333" stroke-width="1.2" fill="none"/>
  <line x1="512.9285" y1="464.2802" x2="302.8626" y2="468.0807" stroke="#333" stroke-width="1.2" fill="none"/>
  <line x1="512.9285" y1="464.2802" x2="404.8797" y2="597.602" stroke="#333" stroke-width="1.2" fill="none"/>
  <line x1="512.9285" y1="464.2802" x2="569.9469" y2="493.7714" stroke="#333" stroke-width="1.2" fill="none"/>
  <line x1="497.1374" y1="331.9193" x2="395.1203" y2="202.398" stroke="#333" stroke-width="1.2" fill="none"/>
  <line x1="497.1374" y1="331.9193" x2="395.1203" y2="515.7985" stroke="#333" stroke-width="1.2" fill="none"/>
  <line x1="497.1374" y1="331.9193" x2="569.9469" y2="300.0792" stroke="#333" stroke-width="1.2" fill="none"/>
  <line x1="497.1374" y1="331.9193" x2="569.9469" y2="493.7714" stroke="#333" stroke-width="1.2" fill="none"/>
  <line x1="395.1203" y1="202.398" x2="230.0531" y2="306.2286" stroke="#333" stroke-width="1.2" fill="none"/>
  <line x1="395.1203" y1="202.398" x2="569.9469" y2="300.0792" stroke="#333" stroke-width="1.2" fill="none"/>
  <line x1="395.1203" y1="202.398" x2="404.8797" y2="284.2015" stroke="#333" stroke-width="1.2" fill="none"/>
  <line x1="230.0531" y1="306.2286" x2="230.0531" y2="499.9208" stroke="#333" stroke-width="1.2" fill="none"/>
  <line x1="230.0531" y1="306.2286" x2="404.8797" y2="284.2015" stroke="#333" stroke-width="1.2" fill="none"/>
  <line x1="230.0531" y1="306.2286" x2="302.8626" y2="468.0807" stroke="#333" stroke-width="1.2" fill="none"/>
  <line x1="230.0531" y1="499.9208" x2="395.1203" y2="515.7985" stroke="#333" stroke-width="1.2" fill="none"/>
  <line x1="230.0531" y1="499.9208" x2="302.8626" y2="468.0807" stroke="#333" stroke-width="1.2" fill="none"/>
  <line x1="230.0531" y1="499.9208" x2="404.8797" y2="597.602" stroke="#333" stroke-width="1.2" fill="none"/>
  <line x1="395.1203" y1="515.7985" x2="404.8797" y2="597.602" stroke="#333" stroke-width="1.2" fill="none"/>
  <line x1="395.1203" y1="515.7985" x2="569.9469" y2="493.7714" stroke="#333" stroke-width="1.2" fill="none"/>
  <line x1="569.9469" y1="300.0792" x2="404.8797" y2="284.2015" stroke="#333" stroke-width="1.2" fill="none"/>
  <line x1="569.9469" y1="300.0792" x2="569.9469" y2="493.7714" stroke="#333" stroke-width="1.2" fill="none"/>
  <line x1="404.8797" y1="284.2015" x2="302.8626" y2="468.0807" stroke="#333" stroke-width="1.2" fill="none"/>
  <line x1="302.8626" y1="468.0807" x2="404.8797" y2="597.602" stroke="#333" stroke-width="1.2" fill="none"/>
  <line x1="404.8797" y1="597.602" x2="569.9469" y2="493.7714" stroke="#333" stroke-width="1.2" fill="none"/>
  <circle cx="287.0715" cy="335.7198" r="10" fill="#c66" stroke="#333" stroke-width="0.8"/>
  <circle cx="512.9285" cy="464.2802" r="10" fill="#c66" stroke="#333" stroke-width="0.8"/>
  <circle cx="497.1374" cy="331.9193" r="10" fill="#c66" stroke="#333" stroke-width="0.8"/>
  <circle cx="395.1203" cy="202.398" r="10" fill="#c66" stroke="#333" stroke-width="0.8"/>
  <circle cx="230.0531" cy="306.2286" r="10" fill="#c66" stroke="#333" stroke-width="0.8"/>
  <circle cx="230.0531" cy="499.9208" r="10" fill="#c66" stroke="#333" stroke-width="0.8"/>
  <circle cx="395.1203" cy="515.7985" r="10" fill="#c66" stroke="#333" stroke-width="0.8"/>
  <circle cx="569.9469" cy="300.0792" r="10" fill="#c66" stroke="#333" stroke-width="0.8"/>
  <circle cx="404.8797" cy="284.2015" r="10" fill="#c66" stroke="#333" stroke-width="0.8"/>
  <circle cx="302.8626" cy="468.0807" r="10" fill="#c66" stroke="#333" stroke-width="0.8"/>
  <circle cx="404.8797" cy="597.602" r="10" fill="#c66" stroke="#333" stroke-width="0.8"/>
  <circle cx="569.9469" cy="493.7714" r="10" fill="#c66" stroke="#333" stroke-width="0.8"/>
</g>
</svg>