<svg xmlns="http://www.w3.org/2000/svg" width="800" height="800" viewBox="0 0 800 800">
  <g>
  <line x1="445" y1="400" x2="700" y2="400" stroke="#8B4513" stroke-width="1.5"/>
  <circle cx="490" cy="400" r="2.5" fill="#8B4513" stroke="#fff" stroke-width="0.5"/>
  <circle cx="542.2188" cy="391.0524" r="3" fill="#8B4513" stroke="#fff" stroke-width="0.5"/>
  <circle cx="593.4624" cy="375.56" r="3.5" fill="#8B4513" stroke="#fff" stroke-width="0.5"/>
  <circle cx="643.1161" cy="353.6231" r="4" fill="#8B4513" stroke="#fff" stroke-width="0.5"/>
  <circle cx="690.5749" cy="325.393" r="4.5" fill="#8B4513" stroke="#fff" stroke-width="0.5"/>
  <line x1="438.9711" y1="377.5" x2="659.8076" y2="250" stroke="#DC143C" stroke-width="1.5"/>
  <circle cx="477.9423" cy="355" r="2.5" fill="#DC143C" stroke="#fff" stroke-width="0.5"/>
  <circle cx="518.6913" cy="321.1417" r="3" fill="#DC143C" stroke="#fff" stroke-width="0.5"/>
  <circle cx="555.3233" cy="282.1032" r="3.5" fill="#DC143C" stroke="#fff" stroke-width="0.5"/>
  <circle cx="587.3563" cy="238.2784" r="4" fill="#DC143C" stroke="#fff" stroke-width="0.5"/>
  <circle cx="614.3418" cy="190.101" r="4.5" fill="#DC143C" stroke="#fff" stroke-width="0.5"/>
  <line x1="422.5" y1="361.0289" x2="550" y2="140.1924" stroke="#4169E1" stroke-width="1.5"/>
  <circle cx="445" cy="322.0577" r="2.5" fill="#4169E1" stroke="#fff" stroke-width="0.5"/>
  <circle cx="463.3605" cy="272.3611" r="3" fill="#4169E1" stroke="#fff" stroke-width="0.5"/>
  <circle cx="475.5655" cy="220.2367" r="3.5" fill="#4169E1" stroke="#fff" stroke-width="0.5"/>
  <circle cx="481.3945" cy="166.2668" r="4" fill="#4169E1" stroke="#fff" stroke-width="0.5"/>
  <circle cx="480.6759" cy="111.0512" r="4.5" fill="#4169E1" stroke="#fff" stroke-width="0.5"/>
  <line x1="400" y1="355" x2="400" y2="100" stroke="#228B22" stroke-width="1.5"/>
  <circle cx="400" cy="310" r="2.5" fill="#228B22" stroke="#fff" stroke-width="0.5"/>
  <circle cx="391.0524" cy="257.7812" r="3" fill="#228B22" stroke="#fff" stroke-width="0.5"/>
  <circle cx="375.56" cy="206.5376" r="3.5" fill="#228B22" stroke="#fff" stroke-width="0.5"/>
  <circle cx="353.6231" cy="156.8839" r="4" fill="#228B22" stroke="#fff" stroke-width="0.5"/>
  <circle cx="325.393" cy="109.4251" r="4.5" fill="#228B22" stroke="#fff" stroke-width="0.5"/>
  <line x1="377.5" y1="361.0289" x2="250" y2="140.1924" stroke="#8B4513" stroke-width="1.5"/>
  <circle cx="355" cy="322.0577" r="2.5" fill="#8B4513" stroke="#fff" stroke-width="0.5"/>
  <circle cx="321.1417" cy="281.3087" r="3" fill="#8B4513" stroke="#fff" stroke-width="0.5"/>
  <circle cx="282.1032" cy="244.6767" r="3.5" fill="#8B4513" stroke="#fff" stroke-width="0.5"/>
  <circle cx="238.2784" cy="212.6437" r="4" fill="#8B4513" stroke="#fff" stroke-width="0.5"/>
  <circle cx="190.101" cy="185.6582" r="4.5" fill="#8B4513" stroke="#fff" stroke-width="0.5"/>
  <line x1="361.0289" y1="377.5" x2="140.1924" y2="250" stroke="#DC143C" stroke-width="1.5"/>
  <circle cx="322.0577" cy="355" r="2.5" fill="#DC143C" stroke="#fff" stroke-width="0.5"/>
  <circle cx="272.3611" cy="336.6395" r="3" fill="#DC143C" stroke="#fff" stroke-width="0.5"/>
  <circle cx="220.2367" cy="324.4345" r="3.5" fill="#DC143C" stroke="#fff" stroke-width="0.5"/>
  <circle cx="166.2668" cy="318.6055" r="4" fill="#DC143C" stroke="#fff" stroke-width="0.5"/>
  <circle cx="111.0512" cy="319.3241" r="4.5" fill="#DC143C" stroke="#fff" stroke-width="0.5"/>
  <line x1="355" y1="400" x2="100" y2="400" stroke="#4169E1" stroke-width="1.5"/>
  <circle cx="310" cy="400" r="2.5" fill="#4169E1" stroke="#fff" stroke-width="0.5"/>
  <circle cx="257.7812" cy="408.9476" r="3" fill="#4169E1" stroke="#fff" stroke-width="0.5"/>
  <circle cx="206.5376" cy="424.44" r="3.5" fill="#4169E1" stroke="#fff" stroke-width="0.5"/>
  <circle cx="156.8839" cy="446.3769" r="4" fill="#4169E1" stroke="#fff" stroke-width="0.5"/>
  <circle cx="109.4251" cy="474.607" r="4.5" fill="#4169E1" stroke="#fff" stroke-width="0.5"/>
  <line x1="361.0289" y1="422.5" x2="140.1924" y2="550" stroke="#228B22" stroke-width="1.5"/>
  <circle cx="322.0577" cy="445" r="2.5" fill="#228B22" stroke="#fff" stroke-width="0.5"/>
  <circle cx="281.3087" cy="478.8583" r="3" fill="#228B22" stroke="#fff" stroke-width="0.5"/>
  <circle cx="244.6767" cy="517.8968" r="3.5" fill="#228B22" stroke="#fff" stroke-width="0.5"/>
  <circle cx="212.6437" cy="561.7216" r="4" fill="#228B22" stroke="#fff" stroke-width="0.5"/>
  <circle cx="185.6582" cy="609.899" r="4.5" fill="#228B22" stroke="#fff" stroke-width="0.5"/>
  <line x1="377.5" y1="438.9711" x2="250" y2="659.8076" stroke="#8B4513" stroke-width="1.5"/>
  <circle cx="355" cy="477.9423" r="2.5" fill="#8B4513" stroke="#fff" stroke-width="0.5"/>
  <circle cx="336.6395" cy="527.6389" r="3" fill="#8B4513" stroke="#fff" stroke-width="0.5"/>
  <circle cx="324.4345" cy="579.7633" r="3.5" fill="#8B4513" stroke="#fff" stroke-width="0.5"/>
  <circle cx="318.6055" cy="633.7332" r="4" fill="#8B4513" stroke="#fff" stroke-width="0.5"/>
  <circle cx="319.3241" cy="688.9488" r="4.5" fill="#8B4513" stroke="#fff" stroke-width="0.5"/>
  <line x1="400" y1="445" x2="400" y2="700" stroke="#DC143C" stroke-width="1.5"/>
  <circle cx="400" cy="490" r="2.5" fill="#DC143C" stroke="#fff" stroke-width="0.5"/>
  <circle cx="408.9476" cy="542.2188" r="3" fill="#DC143C" stroke="#fff" stroke-width="0.5"/>
  <circle cx="424.44" cy="593.4624" r="3.5" fill="#DC143C" stroke="#fff" stroke-width="0.5"/>
  <circle cx="446.3769" cy="643.1161" r="4" fill="#DC143C" stroke="#fff" stroke-width="0.5"/>
  <circle cx="474.607" cy="690.5749" r="4.5" fill="#DC143C" stroke="#fff" stroke-width="0.5"/>
  <line x1="422.5" y1="438.9711" x2="550" y2="659.8076" stroke="#4169E1" stroke-width="1.5"/>
  <circle cx="445" cy="477.9423" r="2.5" fill="#4169E1" stroke="#fff" stroke-width="0.5"/>
  <circle cx="478.8583" cy="518.6913" r="3" fill="#4169E1" stroke="#fff" stroke-width="0.5"/>
  <circle cx="517.8968" cy="555.3233" r="3.5" fill="#4169E1" stroke="#fff" stroke-width="0.5"/>
  <circle cx="561.7216" cy="587.3563" r="4" fill="#4169E1" stroke="#fff" stroke-width="0.5"/>
  <circle cx="609.899" cy="614.3418" r="4.5" fill="#4169E1" stroke="#fff" stroke-width="0.5"/>
  <line x1="438.9711" y1="422.5" x2="659.8076" y2="550" stroke="#228B22" stroke-width="1.5"/>
  <circle cx="477.9423" cy="445" r="2.5" fill="#228B22" stroke="#fff" stroke-width="0.5"/>
  <circle cx="527.6389" cy="463.3605" r="3" fill="#228B22" stroke="#fff" stroke-width="0.5"/>
  <circle cx="579.7633" cy="475.5655" r="3.5" fill="#228B22" stroke="#fff" stroke-width="0.5"/>
  <circle cx="633.7332" cy="481.3945" r="4" fill="#228B22" stroke="#fff" stroke-width="0.5"/>
  <circle cx="688.9488" cy="480.6759" r="4.5" fill="#228B22" stroke="#fff" stroke-width="0.5"/>
  <text x="710" y="404" font-size="9" fill="#555">A1</text>
  <text x="667.798" y="246.5" font-size="9" fill="#555">A2</text>
  <text x="552.5" y="131.202" font-size="9" fill="#555">A3</text>
  <text x="395" y="89" font-size="9" fill="#555">A4</text>
  <text x="237.5" y="131.202" font-size="9" fill="#555">A5</text>
  <text x="122.202" y="246.5" font-size="9" fill="#555">A6</text>
  <text x="80" y="404" font-size="9" fill="#555">A7</text>
  <text x="122.202" y="561.5" font-size="9" fill="#555">A8</text>
  <text x="237.5" y="676.798" font-size="9" fill="#555">A9</text>
  <text x="395" y="719" font-size="9" fill="#555">A10</text>
  <text x="552.5" y="676.798" font-size="9" fill="#555">A11</text>
  <text x="667.798" y="561.5" font-size="9" fill="#555">A12</text>
</g>
</svg>