<svg xmlns="http://www.w3.org/2000/svg" width="800" height="800" viewBox="0 0 800 800">
  <g>
  <polygon points="347.86,692.47 582.72,617.86 678,604.52 502.02,670.88 297.98,725.24" stroke="#333" stroke-width="1.2" fill="#8B4513" fill-opacity="0.3"/>
  <polygon points="347.86,692.47 582.72,617.86 582.72,390.16 347.86,324.04 202.71,510.88" stroke="#333" stroke-width="1.2" fill="#DC143C" fill-opacity="0.3"/>
  <polygon points="347.86,692.47 297.98,725.24 122,563.91 63.12,431.43 202.71,510.88" stroke="#333" stroke-width="1.2" fill="#4169E1" fill-opacity="0.3"/>
  <polygon points="347.86,324.04 202.71,510.88 63.12,431.43 122,195.48 297.98,129.12" stroke="#333" stroke-width="1.2" fill="#228B22" fill-opacity="0.3"/>
  <polygon points="347.86,324.04 582.72,390.16 678,236.09 502.02,74.76 297.98,129.12" stroke="#333" stroke-width="1.2" fill="#8B4513" fill-opacity="0.3"/>
  <polygon points="122,563.91 297.98,725.24 502.02,670.88 452.14,475.96 217.28,409.84" stroke="#333" stroke-width="1.2" fill="#DC143C" fill-opacity="0.3"/>
  <polygon points="122,563.91 63.12,431.43 122,195.48 217.28,182.14 217.28,409.84" stroke="#333" stroke-width="1.2" fill="#4169E1" fill-opacity="0.3"/>
  <polygon points="122,195.48 297.98,129.12 502.02,74.76 452.14,107.53 217.28,182.14" stroke="#333" stroke-width="1.2" fill="#228B22" fill-opacity="0.3"/>
  <polygon points="678,604.52 582.72,617.86 582.72,390.16 678,236.09 736.88,368.57" stroke="#333" stroke-width="1.2" fill="#8B4513" fill-opacity="0.3"/>
  <polygon points="678,604.52 502.02,670.88 452.14,475.96 597.29,289.12 736.88,368.57" stroke="#333" stroke-width="1.2" fill="#DC143C" fill-opacity="0.3"/>
  <polygon points="678,236.09 736.88,368.57 597.29,289.12 452.14,107.53 502.02,74.76" stroke="#333" stroke-width="1.2" fill="#4169E1" fill-opacity="0.3"/>
  <polygon points="452.14,475.96 217.28,409.84 217.28,182.14 452.14,107.53 597.29,289.12" stroke="#333" stroke-width="1.2" fill="#228B22" fill-opacity="0.3"/>
  <line x1="347.86" y1="692.47" x2="582.72" y2="617.86" stroke="#333" stroke-width="1.2" fill="none"/>
  <line x1="347.86" y1="692.47" x2="297.98" y2="725.24" stroke="#333" stroke-width="1.2" fill="none"/>
  <line x1="347.86" y1="692.47" x2="202.71" y2="510.88" stroke="#333" stroke-width="1.2" fill="none"/>
  <line x1="347.86" y1="324.04" x2="202.71" y2="510.88" stroke="#333" stroke-width="1.2" fill="none"/>
  <line x1="347.86" y1="324.04" x2="582.72" y2="390.16" stroke="#333" stroke-width="1.2" fill="none"/>
  <line x1="347.86" y1="324.04" x2="297.98" y2="129.12" stroke="#333" stroke-width="1.2" fill="none"/>
  <line x1="122" y1="563.91" x2="297.98" y2="725.24" stroke="#333" stroke-width="1.2" fill="none"/>
  <line x1="122" y1="563.91" x2="63.12" y2="431.43" stroke="#333" stroke-width="1.2" fill="none"/>
  <line x1="122" y1="563.91" x2="217.28" y2="409.84" stroke="#333" stroke-width="1.2" fill="none"/>
  <line x1="122" y1="195.48" x2="297.98" y2="129.12" stroke="#333" stroke-width="1.2" fill="none"/>
  <line x1="122" y1="195.48" x2="63.12" y2="431.43" stroke="#333" stroke-width="1.2" fill="none"/>
  <line x1="122" y1="195.48" x2="217.28" y2="182.14" stroke="#333" stroke-width="1.2" fill="none"/>
  <line x1="678" y1="604.52" x2="582.72" y2="617.86" stroke="#333" stroke-width="1.2" fill="none"/>
  <line x1="678" y1="604.52" x2="502.02" y2="670.88" stroke="#333" stroke-width="1.2" fill="none"/>
  <line x1="678" y1="604.52" x2="736.88" y2="368.57" stroke="#333" stroke-width="1.2" fill="none"/>
  <line x1="678" y1="236.09" x2="582.72" y2="390.16" stroke="#333" stroke-width="1.2" fill="none"/>
  <line x1="678" y1="236.09" x2="736.88" y2="368.57" stroke="#333" stroke-width="1.2" fill="none"/>
  <line x1="678" y1="236.09" x2="502.02" y2="74.76" stroke="#333" stroke-width="1.2" fill="none"/>
  <line x1="452.14" y1="475.96" x2="217.28" y2="409.84" stroke="#333" stroke-width="1.2" fill="none"/>
  <line x1="452.14" y1="475.96" x2="502.02" y2="670.88" stroke="#333" stroke-width="1.2" fill="none"/>
  <line x1="452.14" y1="475.96" x2="597.29" y2="289.12" stroke="#333" stroke-width="1.2" fill="none"/>
  <line x1="452.14" y1="107.53" x2="217.28" y2="182.14" stroke="#333" stroke-width="1.2" fill="none"/>
  <line x1="452.14" y1="107.53" x2="502.02" y2="74.76" stroke="#333" stroke-width="1.2" fill="none"/>
  <line x1="452.14" y1="107.53" x2="597.29" y2="289.12" stroke="#333" stroke-width="1.2" fill="none"/>
  <line x1="582.72" y1="617.86" x2="582.72" y2="390.16" stroke="#333" stroke-width="1.2" fill="none"/>
  <line x1="297.98" y1="725.24" x2="502.02" y2="670.88" stroke="#333" stroke-width="1.2" fill="none"/>
  <line x1="202.71" y1="510.88" x2="63.12" y2="431.43" stroke="#333" stroke-width="1.2" fill="none"/>
  <line x1="297.98" y1="129.12" x2="502.02" y2="74.76" stroke="#333" stroke-width="1.2" fill="none"/>
  <line x1="217.28" y1="409.84" x2="217.28" y2="182.14" stroke="#333" stroke-width="1.2" fill="none"/>
  <line x1="736.88" y1="368.57" x2="597.29" y2="289.12" stroke="#333" stroke-width="1.2" fill="none"/>
  <circle cx="347.86" cy="692.47" r="6" fill="#333" stroke="none"/>
  <circle cx="347.86" cy="324.04" r="6" fill="#333" stroke="none"/>
  <circle cx="122" cy="563.91" r="6" fill="#333" stroke="none"/>
  <circle cx="122" cy="195.48" r="6" fill="#333" stroke="none"/>
  <circle cx="678" cy="604.52" r="6" fill="#333" stroke="none"/>
  <circle cx="678" cy="236.09" r="6" fill="#333" stroke="none"/>
  <circle cx="452.14" cy="475.96" r="6" fill="#333" stroke="none"/>
  <circle cx="452.14" cy="107.53" r="6" fill="#333" stroke="none"/>
  <circle cx="582.72" cy="617.86" r="6" fill="#333" stroke="none"/>
  <circle cx="297.98" cy="725.24" r="6" fill="#333" stroke="none"/>
  <circle cx="202.71" cy="510.88" r="6" fill="#333" stroke="none"/>
  <circle cx="582.72" cy="390.16" r="6" fill="#333" stroke="none"/>
  <circle cx="297.98" cy="129.12" r="6" fill="#333" stroke="none"/>
  <circle cx="63.12" cy="431.43" r="6" fill="#333" stroke="none"/>
  <circle cx="217.28" cy="409.84" r="6" fill="#333" stroke="none"/>
  <circle cx="502.02" cy="670.88" r="6" fill="#333" stroke="none"/>
  <circle cx="736.88" cy="368.57" r="6" fill="#333" stroke="none"/>
  <circle cx="217.28" cy="182.14" r="6" fill="#333" stroke="none"/>
  <circle cx="502.02" cy="74.76" r="6" fill="#333" stroke="none"/>
  <circle cx="597.29" cy="289.12" r="6" fill="#333" stroke="none"/>
</g>
</svg>