<svg xmlns="http://www.w3.org/2000/svg" width="800" height="800" viewBox="0 0 800 800">
  <polygon points="400,100 409.6225,116.6667 400,133.3333 419.245,133.3333 428.8675,150 419.245,166.6667 400,166.6667 409.6225,183.3333 400,200 419.245,200 428.8675,216.6667 438.49,200 457.735,200 467.3575,216.6667 457.735,233.3333 476.98,233.3333 486.6025,250 476.98,266.6667 457.735,266.6667 467.3575,283.3333 457.735,300 438.49,300 428.8675,283.3333 419.245,300 400,300 409.6225,316.6667 400,333.3333 419.245,333.3333 428.8675,350 419.245,366.6667 400,366.6667 409.6225,383.3333 400,400 419.245,400 428.8675,416.6667 438.49,400 457.735,400 467.3575,416.6667 457.735,433.3333 476.98,433.3333 486.6025,450 496.225,433.3333 515.4701,433.3333 505.8475,416.6667 515.4701,400 534.7151,400 544.3376,416.6667 553.9601,400 573.2051,400 582.8276,416.6667 573.2051,433.3333 592.4501,433.3333 602.0726,450 592.4501,466.6667 573.2051,466.6667 582.8276,483.3333 573.2051,500 592.4501,500 602.0726,516.6667 611.6951,500 630.9401,500 640.5626,516.6667 630.9401,533.3333 650.1851,533.3333 659.8076,550 640.5626,550 630.9401,533.3333 621.3176,550 602.0726,550 592.4501,533.3333 602.0726,516.6667 582.8276,516.6667 573.2051,500 563.5826,516.6667 544.3376,516.6667 553.9601,533.3333 544.3376,550 525.0926,550 515.4701,533.3333 505.8475,550 486.6025,550 476.98,533.3333 486.6025,516.6667 467.3575,516.6667 457.735,500 467.3575,483.3333 486.6025,483.3333 476.98,466.6667 486.6025,450 467.3575,450 457.735,433.3333 448.1125,450 428.8675,450 419.245,433.3333 428.8675,416.6667 409.6225,416.6667 400,400 390.3775,416.6667 371.1325,416.6667 380.755,433.3333 371.1325,450 351.8875,450 342.265,433.3333 332.6425,450 313.3975,450 323.02,466.6667 313.3975,483.3333 332.6425,483.3333 342.265,500 332.6425,516.6667 313.3975,516.6667 323.02,533.3333 313.3975,550 294.1525,550 284.5299,533.3333 274.9074,550 255.6624,550 246.0399,533.3333 255.6624,516.6667 236.4174,516.6667 226.7949,500 217.1724,516.6667 197.9274,516.6667 207.5499,533.3333 197.9274,550 178.6824,550 169.0599,533.3333 159.4374,550 140.1924,550 149.8149,533.3333 169.0599,533.3333 159.4374,516.6667 169.0599,500 188.3049,500 197.9274,516.6667 207.5499,500 226.7949,500 217.1724,483.3333 226.7949,466.6667 207.5499,466.6667 197.9274,450 207.5499,433.3333 226.7949,433.3333 217.1724,416.6667 226.7949,400 246.0399,400 255.6624,416.6667 265.2849,400 284.5299,400 294.1525,416.6667 284.5299,433.3333 303.775,433.3333 313.3975,450 323.02,433.3333 342.265,433.3333 332.6425,416.6667 342.265,400 361.51,400 371.1325,416.6667 380.755,400 400,400 390.3775,383.3333 400,366.6667 380.755,366.6667 371.1325,350 380.755,333.3333 400,333.3333 390.3775,316.6667 400,300 380.755,300 371.1325,283.3333 361.51,300 342.265,300 332.6425,283.3333 342.265,266.6667 323.02,266.6667 313.3975,250 323.02,233.3333 342.265,233.3333 332.6425,216.6667 342.265,200 361.51,200 371.1325,216.6667 380.755,200 400,200 390.3775,183.3333 400,166.6667 380.755,166.6667 371.1325,150 380.755,133.3333 400,133.3333 390.3775,116.6667" fill="none" stroke="#333" stroke-width="1"/>
</svg>