<svg xmlns="http://www.w3.org/2000/svg" width="800" height="800" viewBox="0 0 800 800">
  <g>
  <polygon points="399,58 380.2722,90.4375 417.7278,90.4375" fill="#333" stroke="none"/>
  <polygon points="380.2722,90.4375 361.5444,122.875 399,122.875" fill="#333" stroke="none"/>
  <polygon points="417.7278,90.4375 399,122.875 436.4556,122.875" fill="#333" stroke="none"/>
  <polygon points="361.5444,122.875 342.8166,155.3125 380.2722,155.3125" fill="#333" stroke="none"/>
  <polygon points="342.8166,155.3125 324.0888,187.75 361.5444,187.75" fill="#333" stroke="none"/>
  <polygon points="380.2722,155.3125 361.5444,187.75 399,187.75" fill="#333" stroke="none"/>
  <polygon points="436.4556,122.875 417.7278,155.3125 455.1834,155.3125" fill="#333" stroke="none"/>
  <polygon points="417.7278,155.3125 399,187.75 436.4556,187.75" fill="#333" stroke="none"/>
  <polygon points="455.1834,155.3125 436.4556,187.75 473.9112,187.75" fill="#333" stroke="none"/>
  <polygon points="324.0888,187.75 305.361,220.1875 342.8166,220.1875" fill="#333" stroke="none"/>
  <polygon points="305.361,220.1875 286.6332,252.625 324.0888,252.625" fill="#333" stroke="none"/>
  <polygon points="342.8166,220.1875 324.0888,252.625 361.5444,252.625" fill="#333" stroke="none"/>
  <polygon points="286.6332,252.625 267.9054,285.0625 305.361,285.0625" fill="#333" stroke="none"/>
  <polygon points="267.9054,285.0625 249.1776,317.5 286.6332,317.5" fill="#333" stroke="none"/>
  <polygon points="305.361,285.0625 286.6332,317.5 324.0888,317.5" fill="#333" stroke="none"/>
  <polygon points="361.5444,252.625 342.8166,285.0625 380.2722,285.0625" fill="#333" stroke="none"/>
  <polygon points="342.8166,285.0625 324.0888,317.5 361.5444,317.5" fill="#333" stroke="none"/>
  <polygon points="380.2722,285.0625 361.5444,317.5 399,317.5" fill="#333" stroke="none"/>
  <polygon points="473.9112,187.75 455.1834,220.1875 492.639,220.1875" fill="#333" stroke="none"/>
  <polygon points="455.1834,220.1875 436.4556,252.625 473.9112,252.625" fill="#333" stroke="none"/>
  <polygon points="492.639,220.1875 473.9112,252.625 511.3668,252.625" fill="#333" stroke="none"/>
  <polygon points="436.4556,252.625 417.7278,285.0625 455.1834,285.0625" fill="#333" stroke="none"/>
  <polygon points="417.7278,285.0625 399,317.5 436.4556,317.5" fill="#333" stroke="none"/>
  <polygon points="455.1834,285.0625 436.4556,317.5 473.9112,317.5" fill="#333" stroke="none"/>
  <polygon points="511.3668,252.625 492.639,285.0625 530.0946,285.0625" fill="#333" stroke="none"/>
  <polygon points="492.639,285.0625 473.9112,317.5 511.3668,317.5" fill="#333" stroke="none"/>
  <polygon points="530.0946,285.0625 511.3668,317.5 548.8224,317.5" fill="#333" stroke="none"/>
  <polygon points="249.1776,317.5 230.4498,349.9375 267.9054,349.9375" fill="#333" stroke="none"/>
  <polygon points="230.4498,349.9375 211.722,382.375 249.1776,382.375" fill="#333" stroke="none"/>
  <polygon points="267.9054,349.9375 249.1776,382.375 286.6332,382.375" fill="#333" stroke="none"/>
  <polygon points="211.722,382.375 192.9942,414.8125 230.4498,414.8125" fill="#333" stroke="none"/>
  <polygon points="192.9942,414.8125 174.2664,447.25 211.722,447.25" fill="#333" stroke="none"/>
  <polygon points="230.4498,414.8125 211.722,447.25 249.1776,447.25" fill="#333" stroke="none"/>
  <polygon points="286.6332,382.375 267.9054,414.8125 305.361,414.8125" fill="#333" stroke="none"/>
  <polygon points="267.9054,414.8125 249.1776,447.25 286.6332,447.25" fill="#333" stroke="none"/>
  <polygon points="305.361,414.8125 286.6332,447.25 324.0888,447.25" fill="#333" stroke="none"/>
  <polygon points="174.2664,447.25 155.5386,479.6875 192.9942,479.6875" fill="#333" stroke="none"/>
  <polygon points="155.5386,479.6875 136.8108,512.125 174.2664,512.125" fill="#333" stroke="none"/>
  <polygon points="192.9942,479.6875 174.2664,512.125 211.722,512.125" fill="#333" stroke="none"/>
  <polygon points="136.8108,512.125 118.083,544.5625 155.5386,544.5625" fill="#333" stroke="none"/>
  <polygon points="118.083,544.5625 99.3552,577 136.8108,577" fill="#333" stroke="none"/>
  <polygon points="155.5386,544.5625 136.8108,577 174.2664,577" fill="#333" stroke="none"/>
  <polygon points="211.722,512.125 192.9942,544.5625 230.4498,544.5625" fill="#333" stroke="none"/>
  <polygon points="192.9942,544.5625 174.2664,577 211.722,577" fill="#333" stroke="none"/>
  <polygon points="230.4498,544.5625 211.722,577 249.1776,577" fill="#333" stroke="none"/>
  <polygon points="324.0888,447.25 305.361,479.6875 342.8166,479.6875" fill="#333" stroke="none"/>
  <polygon points="305.361,479.6875 286.6332,512.125 324.0888,512.125" fill="#333" stroke="none"/>
  <polygon points="342.8166,479.6875 324.0888,512.125 361.5444,512.125" fill="#333" stroke="none"/>
  <polygon points="286.6332,512.125 267.9054,544.5625 305.361,544.5625" fill="#333" stroke="none"/>
  <polygon points="267.9054,544.5625 249.1776,577 286.6332,577" fill="#333" stroke="none"/>
  <polygon points="305.361,544.5625 286.6332,577 324.0888,577" fill="#333" stroke="none"/>
  <polygon points="361.5444,512.125 342.8166,544.5625 380.2722,544.5625" fill="#333" stroke="none"/>
  <polygon points="342.8166,544.5625 324.0888,577 361.5444,577" fill="#333" stroke="none"/>
  <polygon points="380.2722,544.5625 361.5444,577 399,577" fill="#333" stroke="none"/>
  <polygon points="548.8224,317.5 530.0946,349.9375 567.5502,349.9375" fill="#333" stroke="none"/>
  <polygon points="530.0946,349.9375 511.3668,382.375 548.8224,382.375" fill="#333" stroke="none"/>
  <polygon points="567.5502,349.9375 548.8224,382.375 586.278,382.375" fill="#333" stroke="none"/>
  <polygon points="511.3668,382.375 492.639,414.8125 530.0946,414.8125" fill="#333" stroke="none"/>
  <polygon points="492.639,414.8125 473.9112,447.25 511.3668,447.25" fill="#333" stroke="none"/>
  <polygon points="530.0946,414.8125 511.3668,447.25 548.8224,447.25" fill="#333" stroke="none"/>
  <polygon points="586.278,382.375 567.5502,414.8125 605.0058,414.8125" fill="#333" stroke="none"/>
  <polygon points="567.5502,414.8125 548.8224,447.25 586.278,447.25" fill="#333" stroke="none"/>
  <polygon points="605.0058,414.8125 586.278,447.25 623.7336,447.25" fill="#333" stroke="none"/>
  <polygon points="473.9112,447.25 455.1834,479.6875 492.639,479.6875" fill="#333" stroke="none"/>
  <polygon points="455.1834,479.6875 436.4556,512.125 473.9112,512.125" fill="#333" stroke="none"/>
  <polygon points="492.639,479.6875 473.9112,512.125 511.3668,512.125" fill="#333" stroke="none"/>
  <polygon points="436.4556,512.125 417.7278,544.5625 455.1834,544.5625" fill="#333" stroke="none"/>
  <polygon points="417.7278,544.5625 399,577 436.4556,577" fill="#333" stroke="none"/>
  <polygon points="455.1834,544.5625 436.4556,577 473.9112,577" fill="#333" stroke="none"/>
  <polygon points="511.3668,512.125 492.639,544.5625 530.0946,544.5625" fill="#333" stroke="none"/>
  <polygon points="492.639,544.5625 473.9112,577 511.3668,577" fill="#333" stroke="none"/>
  <polygon points="530.0946,544.5625 511.3668,577 548.8224,577" fill="#333" stroke="none"/>
  <polygon points="623.7336,447.25 605.0058,479.6875 642.4614,479.6875" fill="#333" stroke="none"/>
  <polygon points="605.0058,479.6875 586.278,512.125 623.7336,512.125" fill="#333" stroke="none"/>
  <polygon points="642.4614,479.6875 623.7336,512.125 661.1892,512.125" fill="#333" stroke="none"/>
  <polygon points="586.278,512.125 567.5502,544.5625 605.0058,544.5625" fill="#333" stroke="none"/>
  <polygon points="567.5502,544.5625 548.8224,577 586.278,577" fill="#333" stroke="none"/>
  <polygon points="605.0058,544.5625 586.278,577 623.7336,577" fill="#333" stroke="none"/>
  <polygon points="661.1892,512.125 642.4614,544.5625 679.917,544.5625" fill="#333" stroke="none"/>
  <polygon points="642.4614,544.5625 623.7336,577 661.1892,577" fill="#333" stroke="none"/>
  <polygon points="679.917,544.5625 661.1892,577 698.6448,577" fill="#333" stroke="none"/>
</g>
</svg>