<svg xmlns="http://www.w3.org/2000/svg" width="800" height="800" viewBox="0 0 800 800">
  <g>
  <line x1="395" y1="771" x2="395.7345" y2="571.0013" stroke="#333" stroke-width="1.5"/>
  <g>
  <line x1="395.7345" y1="571.0013" x2="334.3247" y2="463.7285" stroke="#333" stroke-width="1.5"/>
  <g>
  <line x1="334.3247" y1="463.7285" x2="268.3069" y2="425.2891" stroke="#333" stroke-width="1.5"/>
  <g>
  <line x1="268.3069" y1="425.2891" x2="221.0937" y2="425.1158" stroke="#333" stroke-width="1.5"/>
  <g>
  <line x1="221.0937" y1="425.1158" x2="195.77" y2="439.6127" stroke="#333" stroke-width="1.5"/>
</g>
  <g>
  <line x1="221.0937" y1="425.1158" x2="195.8771" y2="410.4332" stroke="#333" stroke-width="1.5"/>
</g>
</g>
  <g>
  <line x1="268.3069" y1="425.2891" x2="244.8505" y2="384.3146" stroke="#333" stroke-width="1.5"/>
  <g>
  <line x1="244.8505" y1="384.3146" x2="219.6339" y2="369.632" stroke="#333" stroke-width="1.5"/>
</g>
  <g>
  <line x1="244.8505" y1="384.3146" x2="244.9576" y2="355.1351" stroke="#333" stroke-width="1.5"/>
</g>
</g>
</g>
  <g>
  <line x1="334.3247" y1="463.7285" x2="334.6052" y2="387.3358" stroke="#333" stroke-width="1.5"/>
  <g>
  <line x1="334.6052" y1="387.3358" x2="311.1488" y2="346.3612" stroke="#333" stroke-width="1.5"/>
  <g>
  <line x1="311.1488" y1="346.3612" x2="285.9322" y2="331.6787" stroke="#333" stroke-width="1.5"/>
</g>
  <g>
  <line x1="311.1488" y1="346.3612" x2="311.2559" y2="317.1818" stroke="#333" stroke-width="1.5"/>
</g>
</g>
  <g>
  <line x1="334.6052" y1="387.3358" x2="358.362" y2="346.5346" stroke="#333" stroke-width="1.5"/>
  <g>
  <line x1="358.362" y1="346.5346" x2="358.4692" y2="317.3552" stroke="#333" stroke-width="1.5"/>
</g>
  <g>
  <line x1="358.362" y1="346.5346" x2="383.6857" y2="332.0377" stroke="#333" stroke-width="1.5"/>
</g>
</g>
</g>
</g>
  <g>
  <line x1="395.7345" y1="571.0013" x2="457.9306" y2="464.1824" stroke="#333" stroke-width="1.5"/>
  <g>
  <line x1="457.9306" y1="464.1824" x2="458.2112" y2="387.7897" stroke="#333" stroke-width="1.5"/>
  <g>
  <line x1="458.2112" y1="387.7897" x2="434.7547" y2="346.8151" stroke="#333" stroke-width="1.5"/>
  <g>
  <line x1="434.7547" y1="346.8151" x2="409.5382" y2="332.1326" stroke="#333" stroke-width="1.5"/>
</g>
  <g>
  <line x1="434.7547" y1="346.8151" x2="434.8619" y2="317.6357" stroke="#333" stroke-width="1.5"/>
</g>
</g>
  <g>
  <line x1="458.2112" y1="387.7897" x2="481.968" y2="346.9885" stroke="#333" stroke-width="1.5"/>
  <g>
  <line x1="481.968" y1="346.9885" x2="482.0752" y2="317.8091" stroke="#333" stroke-width="1.5"/>
</g>
  <g>
  <line x1="481.968" y1="346.9885" x2="507.2917" y2="332.4916" stroke="#333" stroke-width="1.5"/>
</g>
</g>
</g>
  <g>
  <line x1="457.9306" y1="464.1824" x2="524.2289" y2="426.2291" stroke="#333" stroke-width="1.5"/>
  <g>
  <line x1="524.2289" y1="426.2291" x2="547.9857" y2="385.4279" stroke="#333" stroke-width="1.5"/>
  <g>
  <line x1="547.9857" y1="385.4279" x2="548.0929" y2="356.2484" stroke="#333" stroke-width="1.5"/>
</g>
  <g>
  <line x1="547.9857" y1="385.4279" x2="573.3094" y2="370.931" stroke="#333" stroke-width="1.5"/>
</g>
</g>
  <g>
  <line x1="524.2289" y1="426.2291" x2="571.4422" y2="426.4024" stroke="#333" stroke-width="1.5"/>
  <g>
  <line x1="571.4422" y1="426.4024" x2="596.7659" y2="411.9055" stroke="#333" stroke-width="1.5"/>
</g>
  <g>
  <line x1="571.4422" y1="426.4024" x2="596.6587" y2="441.085" stroke="#333" stroke-width="1.5"/>
</g>
</g>
</g>
</g>
</g>
</svg>