<svg xmlns="http://www.w3.org/2000/svg" width="800" height="800" viewBox="0 0 800 800">
  <g>
  <line x1="400" y1="750" x2="400" y2="570" stroke="#333" stroke-width="1.5"/>
  <g>
  <line x1="400" y1="570" x2="344.38" y2="473.66" stroke="#333" stroke-width="1.5"/>
  <g>
  <line x1="344.38" y1="473.66" x2="284.83" y2="439.28" stroke="#333" stroke-width="1.5"/>
  <g>
  <line x1="284.83" y1="439.28" x2="242.34" y2="439.28" stroke="#333" stroke-width="1.5"/>
  <g>
  <line x1="242.34" y1="439.28" x2="219.6" y2="452.41" stroke="#333" stroke-width="1.5"/>
  <g>
  <line x1="219.6" y1="452.41" x2="211.48" y2="466.47" stroke="#333" stroke-width="1.5"/>
  <g>
  <line x1="211.48" y1="466.47" x2="211.48" y2="476.5" stroke="#333" stroke-width="1.5"/>
</g>
  <g>
  <line x1="211.48" y1="466.47" x2="202.8" y2="471.48" stroke="#333" stroke-width="1.5"/>
</g>
</g>
  <g>
  <line x1="219.6" y1="452.41" x2="203.37" y2="452.41" stroke="#333" stroke-width="1.5"/>
  <g>
  <line x1="203.37" y1="452.41" x2="194.68" y2="457.43" stroke="#333" stroke-width="1.5"/>
</g>
  <g>
  <line x1="203.37" y1="452.41" x2="194.68" y2="447.4" stroke="#333" stroke-width="1.5"/>
</g>
</g>
</g>
  <g>
  <line x1="242.34" y1="439.28" x2="219.6" y2="426.15" stroke="#333" stroke-width="1.5"/>
  <g>
  <line x1="219.6" y1="426.15" x2="203.37" y2="426.15" stroke="#333" stroke-width="1.5"/>
  <g>
  <line x1="203.37" y1="426.15" x2="194.68" y2="431.17" stroke="#333" stroke-width="1.5"/>
</g>
  <g>
  <line x1="203.37" y1="426.15" x2="194.68" y2="421.14" stroke="#333" stroke-width="1.5"/>
</g>
</g>
  <g>
  <line x1="219.6" y1="426.15" x2="211.48" y2="412.09" stroke="#333" stroke-width="1.5"/>
  <g>
  <line x1="211.48" y1="412.09" x2="202.8" y2="407.08" stroke="#333" stroke-width="1.5"/>
</g>
  <g>
  <line x1="211.48" y1="412.09" x2="211.48" y2="402.06" stroke="#333" stroke-width="1.5"/>
</g>
</g>
</g>
</g>
  <g>
  <line x1="284.83" y1="439.28" x2="263.59" y2="402.48" stroke="#333" stroke-width="1.5"/>
  <g>
  <line x1="263.59" y1="402.48" x2="240.84" y2="389.35" stroke="#333" stroke-width="1.5"/>
  <g>
  <line x1="240.84" y1="389.35" x2="224.61" y2="389.35" stroke="#333" stroke-width="1.5"/>
  <g>
  <line x1="224.61" y1="389.35" x2="215.93" y2="394.37" stroke="#333" stroke-width="1.5"/>
</g>
  <g>
  <line x1="224.61" y1="389.35" x2="215.93" y2="384.34" stroke="#333" stroke-width="1.5"/>
</g>
</g>
  <g>
  <line x1="240.84" y1="389.35" x2="232.73" y2="375.3" stroke="#333" stroke-width="1.5"/>
  <g>
  <line x1="232.73" y1="375.3" x2="224.04" y2="370.28" stroke="#333" stroke-width="1.5"/>
</g>
  <g>
  <line x1="232.73" y1="375.3" x2="232.73" y2="365.26" stroke="#333" stroke-width="1.5"/>
</g>
</g>
</g>
  <g>
  <line x1="263.59" y1="402.48" x2="263.59" y2="376.22" stroke="#333" stroke-width="1.5"/>
  <g>
  <line x1="263.59" y1="376.22" x2="255.47" y2="362.16" stroke="#333" stroke-width="1.5"/>
  <g>
  <line x1="255.47" y1="362.16" x2="246.78" y2="357.15" stroke="#333" stroke-width="1.5"/>
</g>
  <g>
  <line x1="255.47" y1="362.16" x2="255.47" y2="352.13" stroke="#333" stroke-width="1.5"/>
</g>
</g>
  <g>
  <line x1="263.59" y1="376.22" x2="271.7" y2="362.16" stroke="#333" stroke-width="1.5"/>
  <g>
  <line x1="271.7" y1="362.16" x2="271.7" y2="352.13" stroke="#333" stroke-width="1.5"/>
</g>
  <g>
  <line x1="271.7" y1="362.16" x2="280.39" y2="357.15" stroke="#333" stroke-width="1.5"/>
</g>
</g>
</g>
</g>
</g>
  <g>
  <line x1="344.38" y1="473.66" x2="344.38" y2="404.9" stroke="#333" stroke-width="1.5"/>
  <g>
  <line x1="344.38" y1="404.9" x2="323.13" y2="368.11" stroke="#333" stroke-width="1.5"/>
  <g>
  <line x1="323.13" y1="368.11" x2="300.39" y2="354.97" stroke="#333" stroke-width="1.5"/>
  <g>
  <line x1="300.39" y1="354.97" x2="284.16" y2="354.97" stroke="#333" stroke-width="1.5"/>
  <g>
  <line x1="284.16" y1="354.97" x2="275.47" y2="359.99" stroke="#333" stroke-width="1.5"/>
</g>
  <g>
  <line x1="284.16" y1="354.97" x2="275.47" y2="349.96" stroke="#333" stroke-width="1.5"/>
</g>
</g>
  <g>
  <line x1="300.39" y1="354.97" x2="292.27" y2="340.92" stroke="#333" stroke-width="1.5"/>
  <g>
  <line x1="292.27" y1="340.92" x2="283.58" y2="335.9" stroke="#333" stroke-width="1.5"/>
</g>
  <g>
  <line x1="292.27" y1="340.92" x2="292.27" y2="330.89" stroke="#333" stroke-width="1.5"/>
</g>
</g>
</g>
  <g>
  <line x1="323.13" y1="368.11" x2="323.13" y2="341.84" stroke="#333" stroke-width="1.5"/>
  <g>
  <line x1="323.13" y1="341.84" x2="315.01" y2="327.79" stroke="#333" stroke-width="1.5"/>
  <g>
  <line x1="315.01" y1="327.79" x2="306.33" y2="322.77" stroke="#333" stroke-width="1.5"/>
</g>
  <g>
  <line x1="315.01" y1="327.79" x2="315.01" y2="317.76" stroke="#333" stroke-width="1.5"/>
</g>
</g>
  <g>
  <line x1="323.13" y1="341.84" x2="331.24" y2="327.79" stroke="#333" stroke-width="1.5"/>
  <g>
  <line x1="331.24" y1="327.79" x2="331.24" y2="317.76" stroke="#333" stroke-width="1.5"/>
</g>
  <g>
  <line x1="331.24" y1="327.79" x2="339.93" y2="322.77" stroke="#333" stroke-width="1.5"/>
</g>
</g>
</g>
</g>
  <g>
  <line x1="344.38" y1="404.9" x2="365.62" y2="368.1" stroke="#333" stroke-width="1.5"/>
  <g>
  <line x1="365.62" y1="368.1" x2="365.62" y2="341.84" stroke="#333" stroke-width="1.5"/>
  <g>
  <line x1="365.62" y1="341.84" x2="357.51" y2="327.79" stroke="#333" stroke-width="1.5"/>
  <g>
  <line x1="357.51" y1="327.79" x2="348.82" y2="322.77" stroke="#333" stroke-width="1.5"/>
</g>
  <g>
  <line x1="357.51" y1="327.79" x2="357.51" y2="317.76" stroke="#333" stroke-width="1.5"/>
</g>
</g>
  <g>
  <line x1="365.62" y1="341.84" x2="373.74" y2="327.79" stroke="#333" stroke-width="1.5"/>
  <g>
  <line x1="373.74" y1="327.79" x2="373.74" y2="317.76" stroke="#333" stroke-width="1.5"/>
</g>
  <g>
  <line x1="373.74" y1="327.79" x2="382.42" y2="322.77" stroke="#333" stroke-width="1.5"/>
</g>
</g>
</g>
  <g>
  <line x1="365.62" y1="368.1" x2="388.36" y2="354.97" stroke="#333" stroke-width="1.5"/>
  <g>
  <line x1="388.36" y1="354.97" x2="396.48" y2="340.92" stroke="#333" stroke-width="1.5"/>
  <g>
  <line x1="396.48" y1="340.92" x2="396.48" y2="330.89" stroke="#333" stroke-width="1.5"/>
</g>
  <g>
  <line x1="396.48" y1="340.92" x2="405.17" y2="335.9" stroke="#333" stroke-width="1.5"/>
</g>
</g>
  <g>
  <line x1="388.36" y1="354.97" x2="404.6" y2="354.97" stroke="#333" stroke-width="1.5"/>
  <g>
  <line x1="404.6" y1="354.97" x2="413.28" y2="349.96" stroke="#333" stroke-width="1.5"/>
</g>
  <g>
  <line x1="404.6" y1="354.97" x2="413.28" y2="359.99" stroke="#333" stroke-width="1.5"/>
</g>
</g>
</g>
</g>
</g>
</g>
  <g>
  <line x1="400" y1="570" x2="455.62" y2="473.66" stroke="#333" stroke-width="1.5"/>
  <g>
  <line x1="455.62" y1="473.66" x2="455.62" y2="404.9" stroke="#333" stroke-width="1.5"/>
  <g>
  <line x1="455.62" y1="404.9" x2="434.38" y2="368.1" stroke="#333" stroke-width="1.5"/>
  <g>
  <line x1="434.38" y1="368.1" x2="411.63" y2="354.97" stroke="#333" stroke-width="1.5"/>
  <g>
  <line x1="411.63" y1="354.97" x2="395.4" y2="354.97" stroke="#333" stroke-width="1.5"/>
  <g>
  <line x1="395.4" y1="354.97" x2="386.71" y2="359.99" stroke="#333" stroke-width="1.5"/>
</g>
  <g>
  <line x1="395.4" y1="354.97" x2="386.71" y2="349.96" stroke="#333" stroke-width="1.5"/>
</g>
</g>
  <g>
  <line x1="411.63" y1="354.97" x2="403.52" y2="340.92" stroke="#333" stroke-width="1.5"/>
  <g>
  <line x1="403.52" y1="340.92" x2="394.83" y2="335.9" stroke="#333" stroke-width="1.5"/>
</g>
  <g>
  <line x1="403.52" y1="340.92" x2="403.52" y2="330.89" stroke="#333" stroke-width="1.5"/>
</g>
</g>
</g>
  <g>
  <line x1="434.38" y1="368.1" x2="434.38" y2="341.84" stroke="#333" stroke-width="1.5"/>
  <g>
  <line x1="434.38" y1="341.84" x2="426.26" y2="327.79" stroke="#333" stroke-width="1.5"/>
  <g>
  <line x1="426.26" y1="327.79" x2="417.57" y2="322.77" stroke="#333" stroke-width="1.5"/>
</g>
  <g>
  <line x1="426.26" y1="327.79" x2="426.26" y2="317.76" stroke="#333" stroke-width="1.5"/>
</g>
</g>
  <g>
  <line x1="434.38" y1="341.84" x2="442.49" y2="327.79" stroke="#333" stroke-width="1.5"/>
  <g>
  <line x1="442.49" y1="327.79" x2="442.49" y2="317.76" stroke="#333" stroke-width="1.5"/>
</g>
  <g>
  <line x1="442.49" y1="327.79" x2="451.18" y2="322.77" stroke="#333" stroke-width="1.5"/>
</g>
</g>
</g>
</g>
  <g>
  <line x1="455.62" y1="404.9" x2="476.87" y2="368.1" stroke="#333" stroke-width="1.5"/>
  <g>
  <line x1="476.87" y1="368.1" x2="476.87" y2="341.84" stroke="#333" stroke-width="1.5"/>
  <g>
  <line x1="476.87" y1="341.84" x2="468.75" y2="327.79" stroke="#333" stroke-width="1.5"/>
  <g>
  <line x1="468.75" y1="327.79" x2="460.07" y2="322.77" stroke="#333" stroke-width="1.5"/>
</g>
  <g>
  <line x1="468.75" y1="327.79" x2="468.75" y2="317.76" stroke="#333" stroke-width="1.5"/>
</g>
</g>
  <g>
  <line x1="476.87" y1="341.84" x2="484.98" y2="327.79" stroke="#333" stroke-width="1.5"/>
  <g>
  <line x1="484.98" y1="327.79" x2="484.98" y2="317.76" stroke="#333" stroke-width="1.5"/>
</g>
  <g>
  <line x1="484.98" y1="327.79" x2="493.67" y2="322.77" stroke="#333" stroke-width="1.5"/>
</g>
</g>
</g>
  <g>
  <line x1="476.87" y1="368.1" x2="499.61" y2="354.97" stroke="#333" stroke-width="1.5"/>
  <g>
  <line x1="499.61" y1="354.97" x2="507.73" y2="340.92" stroke="#333" stroke-width="1.5"/>
  <g>
  <line x1="507.73" y1="340.92" x2="507.73" y2="330.89" stroke="#333" stroke-width="1.5"/>
</g>
  <g>
  <line x1="507.73" y1="340.92" x2="516.41" y2="335.9" stroke="#333" stroke-width="1.5"/>
</g>
</g>
  <g>
  <line x1="499.61" y1="354.97" x2="515.84" y2="354.97" stroke="#333" stroke-width="1.5"/>
  <g>
  <line x1="515.84" y1="354.97" x2="524.53" y2="349.96" stroke="#333" stroke-width="1.5"/>
</g>
  <g>
  <line x1="515.84" y1="354.97" x2="524.53" y2="359.99" stroke="#333" stroke-width="1.5"/>
</g>
</g>
</g>
</g>
</g>
  <g>
  <line x1="455.62" y1="473.66" x2="515.16" y2="439.28" stroke="#333" stroke-width="1.5"/>
  <g>
  <line x1="515.16" y1="439.28" x2="536.41" y2="402.48" stroke="#333" stroke-width="1.5"/>
  <g>
  <line x1="536.41" y1="402.48" x2="536.41" y2="376.22" stroke="#333" stroke-width="1.5"/>
  <g>
  <line x1="536.41" y1="376.22" x2="528.3" y2="362.16" stroke="#333" stroke-width="1.5"/>
  <g>
  <line x1="528.3" y1="362.16" x2="519.61" y2="357.15" stroke="#333" stroke-width="1.5"/>
</g>
  <g>
  <line x1="528.3" y1="362.16" x2="528.29" y2="352.13" stroke="#333" stroke-width="1.5"/>
</g>
</g>
  <g>
  <line x1="536.41" y1="376.22" x2="544.53" y2="362.16" stroke="#333" stroke-width="1.5"/>
  <g>
  <line x1="544.53" y1="362.16" x2="544.53" y2="352.13" stroke="#333" stroke-width="1.5"/>
</g>
  <g>
  <line x1="544.53" y1="362.16" x2="553.21" y2="357.15" stroke="#333" stroke-width="1.5"/>
</g>
</g>
</g>
  <g>
  <line x1="536.41" y1="402.48" x2="559.15" y2="389.35" stroke="#333" stroke-width="1.5"/>
  <g>
  <line x1="559.15" y1="389.35" x2="567.27" y2="375.29" stroke="#333" stroke-width="1.5"/>
  <g>
  <line x1="567.27" y1="375.29" x2="567.27" y2="365.26" stroke="#333" stroke-width="1.5"/>
</g>
  <g>
  <line x1="567.27" y1="375.29" x2="575.96" y2="370.28" stroke="#333" stroke-width="1.5"/>
</g>
</g>
  <g>
  <line x1="559.15" y1="389.35" x2="575.38" y2="389.35" stroke="#333" stroke-width="1.5"/>
  <g>
  <line x1="575.38" y1="389.35" x2="584.07" y2="384.33" stroke="#333" stroke-width="1.5"/>
</g>
  <g>
  <line x1="575.38" y1="389.35" x2="584.07" y2="394.37" stroke="#333" stroke-width="1.5"/>
</g>
</g>
</g>
</g>
  <g>
  <line x1="515.16" y1="439.28" x2="557.66" y2="439.28" stroke="#333" stroke-width="1.5"/>
  <g>
  <line x1="557.66" y1="439.28" x2="580.4" y2="426.15" stroke="#333" stroke-width="1.5"/>
  <g>
  <line x1="580.4" y1="426.15" x2="588.52" y2="412.09" stroke="#333" stroke-width="1.5"/>
  <g>
  <line x1="588.52" y1="412.09" x2="588.52" y2="402.06" stroke="#333" stroke-width="1.5"/>
</g>
  <g>
  <line x1="588.52" y1="412.09" x2="597.2" y2="407.08" stroke="#333" stroke-width="1.5"/>
</g>
</g>
  <g>
  <line x1="580.4" y1="426.15" x2="596.63" y2="426.15" stroke="#333" stroke-width="1.5"/>
  <g>
  <line x1="596.63" y1="426.15" x2="605.32" y2="421.13" stroke="#333" stroke-width="1.5"/>
</g>
  <g>
  <line x1="596.63" y1="426.15" x2="605.32" y2="431.17" stroke="#333" stroke-width="1.5"/>
</g>
</g>
</g>
  <g>
  <line x1="557.66" y1="439.28" x2="580.4" y2="452.41" stroke="#333" stroke-width="1.5"/>
  <g>
  <line x1="580.4" y1="452.41" x2="596.63" y2="452.41" stroke="#333" stroke-width="1.5"/>
  <g>
  <line x1="596.63" y1="452.41" x2="605.32" y2="447.4" stroke="#333" stroke-width="1.5"/>
</g>
  <g>
  <line x1="596.63" y1="452.41" x2="605.32" y2="457.43" stroke="#333" stroke-width="1.5"/>
</g>
</g>
  <g>
  <line x1="580.4" y1="452.41" x2="588.52" y2="466.47" stroke="#333" stroke-width="1.5"/>
  <g>
  <line x1="588.52" y1="466.47" x2="597.2" y2="471.48" stroke="#333" stroke-width="1.5"/>
</g>
  <g>
  <line x1="588.52" y1="466.47" x2="588.52" y2="476.5" stroke="#333" stroke-width="1.5"/>
</g>
</g>
</g>
</g>
</g>
</g>
</g>
</svg>