<svg xmlns="http://www.w3.org/2000/svg" width="800" height="800" viewBox="0 0 800 800">
  <g>
  <polygon points="399,406 424,406 424,431" fill="none" stroke="#333" stroke-width="1"/>
  <polygon points="399,406 424,431 406.3223,448.6777" fill="none" stroke="#333" stroke-width="1"/>
  <polygon points="399,406 406.3223,448.6777 381.6824,452.9052" fill="none" stroke="#333" stroke-width="1"/>
  <polygon points="399,406 381.6824,452.9052 358.2298,444.2464" fill="none" stroke="#333" stroke-width="1"/>
  <polygon points="399,406 358.2298,444.2464 341.1254,426.0134" fill="none" stroke="#333" stroke-width="1"/>
  <polygon points="399,406 341.1254,426.0134 332.955,402.3862" fill="none" stroke="#333" stroke-width="1"/>
  <polygon points="399,406 332.955,402.3862 334.3209,377.4235" fill="none" stroke="#333" stroke-width="1"/>
  <polygon points="399,406 334.3209,377.4235 344.4242,354.556" fill="none" stroke="#333" stroke-width="1"/>
  <polygon points="399,406 344.4242,354.556 361.5722,336.3641" fill="none" stroke="#333" stroke-width="1"/>
  <polygon points="399,406 361.5722,336.3641 383.593,324.5284" fill="none" stroke="#333" stroke-width="1"/>
  <polygon points="399,406 383.593,324.5284 408.1576,319.883" fill="none" stroke="#333" stroke-width="1"/>
  <polygon points="399,406 408.1576,319.883 433.0174,322.5266" fill="none" stroke="#333" stroke-width="1"/>
  <polygon points="399,406 433.0174,322.5266 456.1688,331.9613" fill="none" stroke="#333" stroke-width="1"/>
  <polygon points="399,406 456.1688,331.9613 475.9565,347.2403" fill="none" stroke="#333" stroke-width="1"/>
  <polygon points="399,406 475.9565,347.2403 491.1282,367.1104" fill="none" stroke="#333" stroke-width="1"/>
  <polygon points="399,406 491.1282,367.1104 500.8506,390.1424" fill="none" stroke="#333" stroke-width="1"/>
  <polygon points="399,406 500.8506,390.1424 504.6966,414.8448" fill="none" stroke="#333" stroke-width="1"/>
</g>
</svg>