<svg xmlns="http://www.w3.org/2000/svg" width="1000" height="1000" viewBox="0 0 1000 1000">
  <g>
  <circle cx="500" cy="500" r="350" stroke="#9b59b6" stroke-width="2" fill="#9b59b6" fill-opacity="0.02"/>
  <circle cx="500" cy="167.5" r="4" fill="#e74c3c" stroke="#333" stroke-width="0.5"/>
  <circle cx="713.7269" cy="245.2902" r="4" fill="#e98b6d" stroke="#333" stroke-width="0.5"/>
  <circle cx="827.4486" cy="442.262" r="4" fill="#c0392b" stroke="#333" stroke-width="0.5"/>
  <circle cx="787.9534" cy="666.25" r="4" fill="#f39c12" stroke="#333" stroke-width="0.5"/>
  <circle cx="613.7217" cy="812.4478" r="4" fill="#f1c40f" stroke="#333" stroke-width="0.5"/>
  <circle cx="386.2783" cy="812.4478" r="4" fill="#d4ac0d" stroke="#333" stroke-width="0.5"/>
  <circle cx="212.0466" cy="666.25" r="4" fill="#8e44ad" stroke="#333" stroke-width="0.5"/>
  <circle cx="172.5514" cy="442.262" r="4" fill="#9b59b6" stroke="#333" stroke-width="0.5"/>
  <circle cx="286.2731" cy="245.2902" r="4" fill="#6c3483" stroke="#333" stroke-width="0.5"/>
  <polyline points="716.3119,500 727.5169,525.4602 729.1234,552.1844 718.3095,576.8627 696.6982,596.5292 669.3718,610.469 642.14,620.819 618.6268,631.4078 598.7894,645.442 579.6112,663.3686 557.4347,682.1967 530.4744,696.7543 500,702.2516 469.5256,696.7543 442.5653,682.1967 420.3888,663.3686 401.2106,645.442 381.3732,631.4078 357.86,620.819 330.6282,610.469 303.3018,596.5292 281.6905,576.8627 270.8766,552.1844 272.4831,525.4602 283.6881,500 298.5943,477.4618 311.2409,457.0088 318.6172,436.1385 322.035,412.6641 326.1483,386.609 336.2288,360.7945 355.2621,339.6678 382.4775,326.9783 414.0532,323.6302 445.4634,326.9966 474.0056,332.1701 500,334.5214 525.9944,332.1701 554.5366,326.9966 585.9468,323.6302 617.5225,326.9783 644.7379,339.6678 663.7712,360.7945 673.8517,386.609 677.965,412.6641 681.3828,436.1385 688.7591,457.0088 701.4057,477.4618" stroke="#c0c0c0" stroke-width="0.8" fill="none" stroke-opacity="0.4"/>
  <polyline points="621.7196,629.7368 601.4927,643.1708 582.4595,660.6492 560.8859,679.6387 534.6029,695.1392 504.4475,702.136 473.73,698.1794 446.1198,684.6669 423.3018,666.1103 403.8994,647.7988 384.3857,633.1541 361.4871,622.2238 334.6438,612.0871 306.9982,598.8506 284.2079,580.0268 271.65,555.9185 271.5555,529.2676 281.7067,503.4702 296.4844,480.5089 309.7323,459.8909 317.8823,439.2454 321.6342,416.2076 325.3052,390.4089 334.2717,364.3033 351.9831,342.2337 378.2128,328.2008 409.4567,323.6016 441.1203,326.2803 470.1237,331.5162 496.3579,334.47 522.1685,332.7614 550.2576,327.7492 581.357,323.7999 613.1677,325.9527 641.2864,337.2791 661.6246,357.3825 672.8827,382.811 677.5511,409.0628 680.7346,432.9744 687.3657,454.1177 699.3473,474.4603 714.2549,496.594 726.3879,521.6816 729.6354,548.408 720.6004,573.5924 700.2767,594.0857 673.3933,608.7746 645.8496,619.4202" stroke="#a0a0a0" stroke-width="0.8" fill="none" stroke-opacity="0.4"/>
  <polyline points="449.7776,687.0328 426.2884,668.8604 406.5855,650.2365 387.3242,634.9815 365.027,623.6464 338.6384,613.6393 310.7942,601.053 286.9398,583.0785 272.6859,559.5996 270.8431,533.095 279.8207,507.0027 294.3386,483.6073 308.1119,462.7724 317.051,442.3 321.23,419.6897 324.5737,394.1991 332.4997,367.8951 348.8838,344.9683 374.0525,329.6223 404.8659,323.7262 436.7174,325.6165 466.1808,330.8114 492.7066,334.3168 518.3928,333.2799 546.0455,328.5224 576.7856,324.0977 608.737,325.1206 637.6711,335.0751 659.2859,354.0811 671.7744,379.0274 677.1072,405.4087 680.1621,429.7494 686.0894,451.2092 697.3544,471.4979 712.142,493.2529 725.0727,517.9399 729.8889,544.6 722.6542,570.2226 703.7193,591.5185 677.4047,606.994 649.6354,618.0152 624.8978,628.1339 604.2222,640.9884 585.253,657.9652 564.2355,677.0095 538.648,693.346 508.8829,701.7899 478.0015,699.4039" stroke="#d4a574" stroke-width="0.8" fill="none" stroke-opacity="0.4"/>
  <polyline points="289.8726,586.0132 273.9828,563.2171 270.3582,536.933 278.0495,510.5948 292.1736,486.7617 306.3854,465.6618 316.1157,445.3077 320.806,423.1079 323.9385,397.9688 330.9068,371.5557 345.97,347.8618 370.0099,331.243 400.2941,324.0147 432.2606,325.021 462.1731,330.0682 489.0368,334.0643 514.6603,333.7167 541.9019,329.3004 572.2432,324.5097 604.245,324.4768 633.902,333.0615 656.754,350.9033 670.5149,375.2711 676.6163,401.7082 679.6531,426.4611 684.9297,448.2751 695.4398,468.5677 709.9927,489.976 723.5877,514.2422 729.8887,540.7715 724.4621,566.7613 707.0085,588.8273 681.389,605.1186 653.4893,616.5915 628.1651,626.5909 606.989,638.8963 588.0025,655.3282 567.4866,674.3258 542.6029,691.3876 513.2942,701.216 482.3302,700.4186 453.5376,689.2783 429.3566,671.6041 409.2809,652.7489 390.1964,636.8945 368.4767,625.0985 342.5983,615.1369 314.6712,603.1405" stroke="#ffd700" stroke-width="0.8" fill="none" stroke-opacity="0.4"/>
  <polyline points="320.3469,426.4611 323.3837,401.7082 329.4851,375.2711 343.246,350.9033 366.098,333.0615 395.755,324.4768 427.7568,324.5097 458.0981,329.3004 485.3397,333.7167 510.9632,334.0643 537.8269,330.0682 567.7394,325.021 599.7059,324.0147 629.9901,331.243 654.03,347.8618 669.0932,371.5557 676.0615,397.9688 679.194,423.1079 683.8843,445.3077 693.6146,465.6618 707.8264,486.7617 721.9505,510.5948 729.6418,536.933 726.0172,563.2171 710.1274,586.0132 685.3288,603.1405 657.4017,615.1369 631.5233,625.0985 609.8036,636.8945 590.7191,652.7489 570.6434,671.6041 546.4624,689.2783 517.6698,700.4186 486.7058,701.216 457.3971,691.3876 432.5134,674.3258 411.9975,655.3282 393.011,638.8963 371.8349,626.5909 346.5107,616.5915 318.611,605.1186 292.9915,588.8273 275.5379,566.7613 270.1113,540.7715 276.4123,514.2422 290.0073,489.976 304.5602,468.5677 315.0703,448.2751" stroke="#ff4500" stroke-width="0.8" fill="none" stroke-opacity="0.4"/>
  <polyline points="453.9545,328.5224 481.6072,333.2799 507.2934,334.3168 533.8192,330.8114 563.2826,325.6165 595.1341,323.7262 625.9475,329.6223 651.1162,344.9683 667.5003,367.8951 675.4263,394.1991 678.77,419.6897 682.949,442.3 691.8881,462.7724 705.6614,483.6073 720.1793,507.0027 729.1569,533.095 727.3141,559.5996 713.0602,583.0785 689.2058,601.053 661.3616,613.6393 634.973,623.6464 612.6758,634.9815 593.4145,650.2365 573.7116,668.8604 550.2224,687.0328 521.9985,699.4039 491.1171,701.7899 461.352,693.346 435.7645,677.0095 414.747,657.9652 395.7778,640.9884 375.1022,628.1339 350.3646,618.0152 322.5953,606.994 296.2807,591.5185 277.3458,570.2226 270.1111,544.6 274.9273,517.9399 287.858,493.2529 302.6456,471.4979 313.9106,451.2092 319.8379,429.7494 322.8928,405.4087 328.2256,379.0274 340.7141,354.0811 362.3289,335.0751 391.263,325.1206 423.2144,324.0977" stroke="#4169e1" stroke-width="0.8" fill="none" stroke-opacity="0.4"/>
  <polyline points="648.0169,342.2337 665.7283,364.3033 674.6948,390.4089 678.3658,416.2076 682.1177,439.2454 690.2677,459.8909 703.5156,480.5089 718.2933,503.4702 728.4445,529.2676 728.35,555.9185 715.7921,580.0268 693.0018,598.8506 665.3562,612.0871 638.5129,622.2238 615.6143,633.1541 596.1006,647.7988 576.6982,666.1103 553.8802,684.6669 526.27,698.1794 495.5525,702.136 465.3971,695.1392 439.1141,679.6387 417.5405,660.6492 398.5073,643.1708 378.2804,629.7368 354.1504,619.4202 326.6067,608.7746 299.7233,594.0857 279.3996,573.5924 270.3646,548.408 273.6121,521.6816 285.7451,496.594 300.6527,474.4603 312.6343,454.1177 319.2654,432.9744 322.4489,409.0628 327.1173,382.811 338.3754,357.3825 358.7136,337.2791 386.8323,325.9527 418.643,323.7999 449.7424,327.7492 477.8315,332.7614 503.6421,334.47 529.8763,331.5162 558.8797,326.2803 590.5433,323.6016 621.7872,328.2008" stroke="#696969" stroke-width="0.8" fill="none" stroke-opacity="0.4"/>
  <polyline points="633.6881,500 639.2357,518.7449 639.4884,538.5242 633.235,557.7036 620.4994,574.4158 602.5531,587.1701 581.4938,595.3416 559.5538,599.3488 538.398,600.4503 518.6773,600.2355 500,599.9987 481.3227,600.2355 461.602,600.4503 440.4462,599.3488 418.5062,595.3416 397.4469,587.1701 379.5006,574.4158 366.765,557.7036 360.5116,538.5242 360.7643,518.7449 366.3119,500 375.1513,483.192 385.1985,468.2939 395.0011,454.5253 404.1875,440.8299 413.4895,426.4661 424.334,411.4765 438.1675,396.8499 455.7742,384.3039 476.8505,375.7638 500,372.7289 523.1495,375.7638 544.2258,384.3039 561.8325,396.8499 575.666,411.4765 586.5105,426.4661 595.8125,440.8299 604.9989,454.5253 614.8015,468.2939 624.8487,483.192" stroke="#e67e22" stroke-width="1" fill="none" stroke-opacity="0.5"/>
  <polyline points="538.398,600.4503 518.6773,600.2355 500,599.9987 481.3227,600.2355 461.602,600.4503 440.4462,599.3488 418.5062,595.3416 397.4469,587.1701 379.5006,574.4158 366.765,557.7036 360.5116,538.5242 360.7643,518.7449 366.3119,500 375.1513,483.192 385.1985,468.2939 395.0011,454.5253 404.1875,440.8299 413.4895,426.4661 424.334,411.4765 438.1675,396.8499 455.7742,384.3039 476.8505,375.7638 500,372.7289 523.1495,375.7638 544.2258,384.3039 561.8325,396.8499 575.666,411.4765 586.5105,426.4661 595.8125,440.8299 604.9989,454.5253 614.8015,468.2939 624.8487,483.192 633.6881,500 639.2357,518.7449 639.4884,538.5242 633.235,557.7036 620.4994,574.4158 602.5531,587.1701 581.4938,595.3416 559.5538,599.3488" stroke="#95a5a6" stroke-width="1" fill="none" stroke-opacity="0.5"/>
  <polyline points="379.5006,574.4158 366.765,557.7036 360.5116,538.5242 360.7643,518.7449 366.3119,500 375.1513,483.192 385.1985,468.2939 395.0011,454.5253 404.1875,440.8299 413.4895,426.4661 424.334,411.4765 438.1675,396.8499 455.7742,384.3039 476.8505,375.7638 500,372.7289 523.1495,375.7638 544.2258,384.3039 561.8325,396.8499 575.666,411.4765 586.5105,426.4661 595.8125,440.8299 604.9989,454.5253 614.8015,468.2939 624.8487,483.192 633.6881,500 639.2357,518.7449 639.4884,538.5242 633.235,557.7036 620.4994,574.4158 602.5531,587.1701 581.4938,595.3416 559.5538,599.3488 538.398,600.4503 518.6773,600.2355 500,599.9987 481.3227,600.2355 461.602,600.4503 440.4462,599.3488 418.5062,595.3416 397.4469,587.1701" stroke="#f1c40f" stroke-width="1" fill="none" stroke-opacity="0.5"/>
  <polyline points="404.1875,440.8299 413.4895,426.4661 424.334,411.4765 438.1675,396.8499 455.7742,384.3039 476.8505,375.7638 500,372.7289 523.1495,375.7638 544.2258,384.3039 561.8325,396.8499 575.666,411.4765 586.5105,426.4661 595.8125,440.8299 604.9989,454.5253 614.8015,468.2939 624.8487,483.192 633.6881,500 639.2357,518.7449 639.4884,538.5242 633.235,557.7036 620.4994,574.4158 602.5531,587.1701 581.4938,595.3416 559.5538,599.3488 538.398,600.4503 518.6773,600.2355 500,599.9987 481.3227,600.2355 461.602,600.4503 440.4462,599.3488 418.5062,595.3416 397.4469,587.1701 379.5006,574.4158 366.765,557.7036 360.5116,538.5242 360.7643,518.7449 366.3119,500 375.1513,483.192 385.1985,468.2939 395.0011,454.5253" stroke="#2ecc71" stroke-width="1" fill="none" stroke-opacity="0.5"/>
  <polyline points="544.2258,384.3039 561.8325,396.8499 575.666,411.4765 586.5105,426.4661 595.8125,440.8299 604.9989,454.5253 614.8015,468.2939 624.8487,483.192 633.6881,500 639.2357,518.7449 639.4884,538.5242 633.235,557.7036 620.4994,574.4158 602.5531,587.1701 581.4938,595.3416 559.5538,599.3488 538.398,600.4503 518.6773,600.2355 500,599.9987 481.3227,600.2355 461.602,600.4503 440.4462,599.3488 418.5062,595.3416 397.4469,587.1701 379.5006,574.4158 366.765,557.7036 360.5116,538.5242 360.7643,518.7449 366.3119,500 375.1513,483.192 385.1985,468.2939 395.0011,454.5253 404.1875,440.8299 413.4895,426.4661 424.334,411.4765 438.1675,396.8499 455.7742,384.3039 476.8505,375.7638 500,372.7289 523.1495,375.7638" stroke="#e74c3c" stroke-width="1" fill="none" stroke-opacity="0.5"/>
  <polyline points="599.1486,500 598.2652,510.9963 595.6336,521.7812 591.308,532.1478 585.3775,541.8988 577.9641,550.8504 569.2192,558.8363 559.3204,565.7117 548.4673,571.3557 536.8768,575.6741 524.7777,578.601 512.4062,580.0994 500,580.1623 487.7933,578.8114 476.0118,576.0965 464.868,572.0938 454.5569,566.9033 445.2526,560.646 437.1046,553.4611 430.2361,545.502 424.7418,536.9328 420.6871,527.9246 418.1081,518.6514 417.0115,509.2868 417.3762,500 419.1546,490.953 422.275,482.2976 426.644,474.1727 432.1496,466.7026 438.6642,459.9951 446.0477,454.1406 454.1511,449.2113 462.8193,445.261 471.8945,442.3253 481.219,440.4221 490.6376,439.5526 500,439.7018 509.1629,440.8406 517.9915,442.9266 526.3607,445.9056 534.1565,449.7134 541.276,454.2769 547.6285,459.5158 553.1356,465.3435 557.7311,471.6686 561.3609,478.396 563.9833,485.4274 565.5686,492.6626" stroke="#e74c3c" stroke-width="1.5" fill="none" stroke-opacity="0.7"/>
  <polyline points="454.5569,566.9033 445.2526,560.646 437.1046,553.4611 430.2361,545.502 424.7418,536.9328 420.6871,527.9246 418.1081,518.6514 417.0115,509.2868 417.3762,500 419.1546,490.953 422.275,482.2976 426.644,474.1727 432.1496,466.7026 438.6642,459.9951 446.0477,454.1406 454.1511,449.2113 462.8193,445.261 471.8945,442.3253 481.219,440.4221 490.6376,439.5526 500,439.7018 509.1629,440.8406 517.9915,442.9266 526.3607,445.9056 534.1565,449.7134 541.276,454.2769 547.6285,459.5158 553.1356,465.3435 557.7311,471.6686 561.3609,478.396 563.9833,485.4274 565.5686,492.6626 566.099,500 565.5686,507.3374 563.9833,514.5726 561.3609,521.604 557.7311,528.3314 553.1356,534.6565 547.6285,540.4842 541.276,545.7231 534.1565,550.2866 526.3607,554.0944 517.9915,557.0734 509.1629,559.1594 500,560.2982 490.6376,560.4474 481.219,559.5779 471.8945,557.6747" stroke="#f39c12" stroke-width="1.5" fill="none" stroke-opacity="0.7"/>
  <polyline points="462.8193,445.261 471.8945,442.3253 481.219,440.4221 490.6376,439.5526 500,439.7018 509.1629,440.8406 517.9915,442.9266 526.3607,445.9056 534.1565,449.7134 541.276,454.2769 547.6285,459.5158 553.1356,465.3435 557.7311,471.6686 561.3609,478.396 563.9833,485.4274 565.5686,492.6626 566.099,500 565.5686,507.3374 563.9833,514.5726 561.3609,521.604 557.7311,528.3314 553.1356,534.6565 547.6285,540.4842 541.276,545.7231 534.1565,550.2866 526.3607,554.0944 517.9915,557.0734 509.1629,559.1594 500,560.2982 490.6376,560.4474 481.219,559.5779 471.8945,557.6747 462.8193,554.739 454.1511,550.7887 446.0477,545.8594 438.6642,540.0049 432.1496,533.2974 426.644,525.8273 422.275,517.7024 419.1546,509.047 417.3762,500 417.0115,490.7132 418.1081,481.3486 420.6871,472.0754 424.7418,463.0672 430.2361,454.498 437.1046,446.5389 445.2526,439.354" stroke="#8e44ad" stroke-width="1.5" fill="none" stroke-opacity="0.7"/>
  <g>
  <line x1="481.1809" y1="560.7476" x2="557.7345" y2="554.6813" stroke="#8B4513" stroke-width="1.2" stroke-opacity="0.7"/>
  <line x1="481.1809" y1="560.7476" x2="481.1809" y2="456.471" stroke="#DC143C" stroke-width="1.2" stroke-opacity="0.7"/>
  <line x1="481.1809" y1="560.7476" x2="481.1809" y2="543.529" stroke="#4169E1" stroke-width="1.2" stroke-opacity="0.7"/>
  <line x1="481.1809" y1="560.7476" x2="446.6869" y2="550.4937" stroke="#228B22" stroke-width="1.2" stroke-opacity="0.7"/>
  <line x1="557.7345" y1="554.6813" x2="557.7345" y2="460.8179" stroke="#DC143C" stroke-width="1.2" stroke-opacity="0.7"/>
  <line x1="557.7345" y1="554.6813" x2="557.7345" y2="539.1821" stroke="#4169E1" stroke-width="1.2" stroke-opacity="0.7"/>
  <line x1="557.7345" y1="554.6813" x2="514.3218" y2="546.2306" stroke="#228B22" stroke-width="1.2" stroke-opacity="0.7"/>
  <line x1="481.1809" y1="456.471" x2="557.7345" y2="460.8179" stroke="#8B4513" stroke-width="1.2" stroke-opacity="0.7"/>
  <line x1="481.1809" y1="456.471" x2="481.1809" y2="439.2524" stroke="#4169E1" stroke-width="1.2" stroke-opacity="0.7"/>
  <line x1="481.1809" y1="456.471" x2="446.6869" y2="463.8185" stroke="#228B22" stroke-width="1.2" stroke-opacity="0.7"/>
  <line x1="557.7345" y1="460.8179" x2="557.7345" y2="445.3187" stroke="#4169E1" stroke-width="1.2" stroke-opacity="0.7"/>
  <line x1="557.7345" y1="460.8179" x2="514.3218" y2="466.8732" stroke="#228B22" stroke-width="1.2" stroke-opacity="0.7"/>
  <line x1="481.1809" y1="543.529" x2="557.7345" y2="539.1821" stroke="#8B4513" stroke-width="1.2" stroke-opacity="0.7"/>
  <line x1="481.1809" y1="543.529" x2="481.1809" y2="439.2524" stroke="#DC143C" stroke-width="1.2" stroke-opacity="0.7"/>
  <line x1="481.1809" y1="543.529" x2="446.6869" y2="536.1815" stroke="#228B22" stroke-width="1.2" stroke-opacity="0.7"/>
  <line x1="557.7345" y1="539.1821" x2="557.7345" y2="445.3187" stroke="#DC143C" stroke-width="1.2" stroke-opacity="0.7"/>
  <line x1="557.7345" y1="539.1821" x2="514.3218" y2="533.1268" stroke="#228B22" stroke-width="1.2" stroke-opacity="0.7"/>
  <line x1="481.1809" y1="439.2524" x2="557.7345" y2="445.3187" stroke="#8B4513" stroke-width="1.2" stroke-opacity="0.7"/>
  <line x1="481.1809" y1="439.2524" x2="446.6869" y2="449.5063" stroke="#228B22" stroke-width="1.2" stroke-opacity="0.7"/>
  <line x1="557.7345" y1="445.3187" x2="514.3218" y2="453.7694" stroke="#228B22" stroke-width="1.2" stroke-opacity="0.7"/>
  <line x1="446.6869" y1="550.4937" x2="514.3218" y2="546.2306" stroke="#8B4513" stroke-width="1.2" stroke-opacity="0.7"/>
  <line x1="446.6869" y1="550.4937" x2="446.6869" y2="463.8185" stroke="#DC143C" stroke-width="1.2" stroke-opacity="0.7"/>
  <line x1="446.6869" y1="550.4937" x2="446.6869" y2="536.1815" stroke="#4169E1" stroke-width="1.2" stroke-opacity="0.7"/>
  <line x1="514.3218" y1="546.2306" x2="514.3218" y2="466.8732" stroke="#DC143C" stroke-width="1.2" stroke-opacity="0.7"/>
  <line x1="514.3218" y1="546.2306" x2="514.3218" y2="533.1268" stroke="#4169E1" stroke-width="1.2" stroke-opacity="0.7"/>
  <line x1="446.6869" y1="463.8185" x2="514.3218" y2="466.8732" stroke="#8B4513" stroke-width="1.2" stroke-opacity="0.7"/>
  <line x1="446.6869" y1="463.8185" x2="446.6869" y2="449.5063" stroke="#4169E1" stroke-width="1.2" stroke-opacity="0.7"/>
  <line x1="514.3218" y1="466.8732" x2="514.3218" y2="453.7694" stroke="#4169E1" stroke-width="1.2" stroke-opacity="0.7"/>
  <line x1="446.6869" y1="536.1815" x2="514.3218" y2="533.1268" stroke="#8B4513" stroke-width="1.2" stroke-opacity="0.7"/>
  <line x1="446.6869" y1="536.1815" x2="446.6869" y2="449.5063" stroke="#DC143C" stroke-width="1.2" stroke-opacity="0.7"/>
  <line x1="514.3218" y1="533.1268" x2="514.3218" y2="453.7694" stroke="#DC143C" stroke-width="1.2" stroke-opacity="0.7"/>
  <line x1="446.6869" y1="449.5063" x2="514.3218" y2="453.7694" stroke="#8B4513" stroke-width="1.2" stroke-opacity="0.7"/>
  <circle cx="481.1809" cy="560.7476" r="2.5" fill="#8B4513" stroke="#333" stroke-width="0.5"/>
  <circle cx="557.7345" cy="554.6813" r="2.5" fill="#DC143C" stroke="#333" stroke-width="0.5"/>
  <circle cx="481.1809" cy="456.471" r="2.5" fill="#DC143C" stroke="#333" stroke-width="0.5"/>
  <circle cx="557.7345" cy="460.8179" r="2.5" fill="#4169E1" stroke="#333" stroke-width="0.5"/>
  <circle cx="481.1809" cy="543.529" r="2.5" fill="#DC143C" stroke="#333" stroke-width="0.5"/>
  <circle cx="557.7345" cy="539.1821" r="2.5" fill="#4169E1" stroke="#333" stroke-width="0.5"/>
  <circle cx="481.1809" cy="439.2524" r="2.5" fill="#4169E1" stroke="#333" stroke-width="0.5"/>
  <circle cx="557.7345" cy="445.3187" r="2.5" fill="#228B22" stroke="#333" stroke-width="0.5"/>
  <circle cx="446.6869" cy="550.4937" r="2.5" fill="#DC143C" stroke="#333" stroke-width="0.5"/>
  <circle cx="514.3218" cy="546.2306" r="2.5" fill="#4169E1" stroke="#333" stroke-width="0.5"/>
  <circle cx="446.6869" cy="463.8185" r="2.5" fill="#4169E1" stroke="#333" stroke-width="0.5"/>
  <circle cx="514.3218" cy="466.8732" r="2.5" fill="#228B22" stroke="#333" stroke-width="0.5"/>
  <circle cx="446.6869" cy="536.1815" r="2.5" fill="#4169E1" stroke="#333" stroke-width="0.5"/>
  <circle cx="514.3218" cy="533.1268" r="2.5" fill="#228B22" stroke="#333" stroke-width="0.5"/>
  <circle cx="446.6869" cy="449.5063" r="2.5" fill="#228B22" stroke="#333" stroke-width="0.5"/>
  <circle cx="514.3218" cy="453.7694" r="2.5" fill="#8B4513" stroke="#333" stroke-width="0.5"/>
  <text x="490" y="566.0643" font-size="11" fill="#555" font-weight="bold">4D E4</text>
</g>
  <polyline points="576.5965,500 538.2982,461.7018 500,461.7018 480.8509,480.8509 480.8509,500 490.4254,509.5746 500,509.5746 504.7873,504.7873 504.7873,500 502.3936,497.6064 500,497.6064 498.8032,498.8032 498.8032,500 499.4016,500.5984 500,500.5984 500.2992,500.2992 500.2992,500 500.1496,499.8504 500,499.8504 499.9252,499.9252" stroke="#9b59b6" stroke-width="1" fill="none" stroke-dasharray="2,2"/>
  <circle cx="500" cy="500" r="4" fill="#6c3483" stroke="#fff" stroke-width="1.5"/>
  <text x="855" y="504" font-size="8" fill="#9b59b6">12D W9 Crown</text>
  <text x="721.3119" y="504" font-size="8" fill="#4169e1">10D W7 Hepta</text>
  <text x="638.6881" y="504" font-size="8" fill="#2ecc71">8D W5 Penta</text>
  <text x="587.6238" y="504" font-size="8" fill="#e74c3c">6D W3 Mobius</text>
  <text x="556.0643" y="504" font-size="8" fill="#e67e22">4D E4 Tess</text>
</g>
</svg>