<svg xmlns="http://www.w3.org/2000/svg" width="800" height="800" viewBox="0 0 800 800">
  <g>
  <polyline points="579.1256,373.435 574.2708,368.9239 568.4251,364.5905 561.6137,360.4621 553.8648,356.5653 545.2101,352.9261 535.6847,349.5701 525.3271,346.522 514.1793,343.8061 502.2871,341.4458 489.6998,339.4636 476.4705,337.8811 462.6563,336.7187 448.3179,335.9957 433.52,335.73 418.3312,335.9379 402.8238,336.634 387.0737,337.8311 371.1607,339.5397 355.1675,341.7682 339.1802,344.5224 323.2878,347.8053 307.5814,351.6173 292.1546,355.9556 277.1023,360.814 262.5206,366.1831 248.5061,372.0499 235.1552,378.3976 222.5635,385.206 210.8254,392.4506 200.0326,400.1035 190.2743,408.1326 181.6355,416.5022 174.1968,425.1729 168.0333,434.1015 163.2142,443.2414 159.8012,452.543 157.8488,461.9532 157.4026,471.4166 158.4994,480.8752 161.1659,490.2689 165.4187,499.536 171.2634,508.6135 178.6946,517.4378 187.695,525.9447 198.2358,534.0704 210.2761,541.7519 223.7632,548.9272 238.6324,555.5363 254.8075,561.5214 272.2008,566.8277 290.7138,571.4037 310.2377,575.2019 330.6537,578.1791 351.8345,580.297 373.6442,581.5227 395.9402,581.8288 418.5734,581.194 441.3901,579.6035 464.2324,577.0489 486.9403,573.5287 509.3522,569.0483 531.3067,563.62 552.6438,557.2633 573.2063,550.0045 592.841,541.8771 611.4005,532.9208 628.7437,523.1821 644.7379,512.7136 659.2594,501.5736 672.1949,489.8259 683.4425,477.5391 692.9125,464.7862 700.5285,451.6442 706.2279,438.193 709.9625,424.5155 711.6993,410.6963 711.4203,396.8213 709.1231,382.977 704.821,369.2497 698.5427,355.725" stroke="#333" stroke-width="0.8" fill="none"/>
  <polyline points="589.077,371.9592 583.9425,366.7208 577.7436,361.6761 570.5094,356.8565 562.2731,352.2928 553.072,348.0147 542.9476,344.0512 531.9455,340.4303 520.1153,337.1787 507.5109,334.3219 494.1898,331.8844 480.214,329.8888 465.6491,328.3565 450.5645,327.3069 435.0335,326.7578 419.1329,326.7246 402.9431,327.221 386.5474,328.2579 370.0325,329.844 353.4873,331.9853 337.0035,334.6848 320.6746,337.9426 304.5958,341.7557 288.8633,346.1179 273.574,351.0194 258.8248,356.4472 244.7124,362.3844 231.332,368.8109 218.7774,375.7024 207.1396,383.0313 196.5068,390.7662 186.9632,398.8721 178.5885,407.3105 171.457,416.0395 165.6372,425.0139 161.1907,434.1854 158.1719,443.503 156.627,452.9129 156.5937,462.3591 158.1004,471.7838 161.1659,481.1274 165.7987,490.3291 171.9968,499.3273 179.7474,508.0601 189.0267,516.4655 199.7996,524.4824 212.0198,532.0504 225.6298,539.1107 240.5611,545.6067 256.7346,551.4841 274.0606,556.6917 292.4396,561.1818 311.7626,564.9106 331.9119,567.8387 352.7619,569.9314 374.1799,571.1592 396.0268,571.498 418.1585,570.9297 440.4265,569.442 462.6793,567.029 484.7636,563.6911 506.5253,559.4354 527.811,554.2754 548.4687,548.2312 568.3499,541.3294 587.3099,533.603 605.2097,525.0911 621.917,515.8389 637.3071,505.8973 651.2644,495.3223 663.6828,484.175 674.4674,472.521 683.5348,460.4299 690.8141,447.9747 696.2472,435.2315 699.7899,422.2787 701.4119,409.1964 701.0972,396.0659 698.8445,382.9689 694.6666,369.9869 688.5912,357.2009" stroke="#333" stroke-width="0.8" fill="none"/>
  <polyline points="599.0284,370.4833 593.6143,364.5177 587.0622,358.7616 579.4052,353.2509 570.6814,348.0203 560.9338,343.1033 550.2104,338.5324 538.5638,334.3386 526.0513,330.5512 512.7346,327.1981 498.6799,324.3052 483.9575,321.8966 468.6418,319.9943 452.8111,318.6182 436.547,317.7855 419.9347,317.5113 403.0624,317.8079 386.0212,318.6847 368.9043,320.1484 351.8071,322.2024 334.8268,324.8472 318.0615,328.0798 301.6102,331.894 285.5719,336.2801 270.0456,341.2248 255.1291,346.7112 240.9187,352.719 227.5089,359.2241 214.9912,366.1988 203.4539,373.6119 192.981,381.4289 183.6521,389.6116 175.5415,398.1188 168.7173,406.9062 163.241,415.9263 159.1672,425.1294 156.5425,434.463 155.4052,443.8725 155.7847,453.3016 157.7014,462.6925 161.1659,471.9859 166.1787,481.1222 172.7302,490.0411 180.8003,498.6824 190.3585,506.9864 201.3634,514.8944 213.7634,522.3489 227.4964,529.2942 242.4899,535.6771 258.6618,541.4467 275.9205,546.5557 294.1654,550.9599 313.2875,554.6194 333.17,557.4984 353.6894,559.5658 374.7156,560.7957 396.1135,561.1673 417.7436,560.6654 439.4629,559.2805 461.1262,557.009 482.5869,553.8535 503.6985,549.8226 524.3153,544.9308 544.2937,539.1991 563.4935,532.6542 581.7787,525.3289 599.019,517.2614 615.0903,508.4958 629.8764,499.081 643.2693,489.0709 655.1707,478.524 665.4924,467.5028 674.1572,456.0735 681.0996,444.3052 686.2665,432.27 689.6172,420.0419 691.1245,407.6965 690.7742,395.3105 688.5658,382.9608 684.5122,370.7241 678.6398,358.6767" stroke="#333" stroke-width="0.8" fill="none"/>
  <polyline points="608.9799,369.0075 603.286,362.3146 596.3807,355.8472 588.3009,349.6453 579.0897,343.7477 568.7957,338.1919 557.4733,333.0136 545.1822,328.2469 531.9873,323.9237 517.9584,320.0742 503.17,316.726 487.701,313.9044 471.6346,311.6322 455.0576,309.9294 438.0604,308.8133 420.7364,308.2981 403.1817,308.3948 385.4949,309.1115 367.776,310.4527 350.1269,312.4195 332.6501,315.0096 315.4484,318.2171 298.6245,322.0324 282.2806,326.4424 266.5172,331.4302 251.4333,336.9753 237.125,343.0536 223.6858,349.6373 211.2051,356.6951 199.7681,364.1926 189.4552,372.0916 180.3411,380.3511 172.4945,388.9272 165.9775,397.7728 160.8449,406.8388 157.1438,416.0734 154.9131,425.423 154.1834,434.8322 154.9758,444.2441 157.3025,453.6011 161.1659,462.8444 166.5587,471.9153 173.4636,480.7548 181.8532,489.3047 191.6902,497.5073 202.9272,505.3064 215.5071,512.6473 229.3629,519.4777 244.4186,525.7475 260.5889,531.4094 277.7803,536.4197 295.8911,540.738 314.8124,544.3281 334.4282,547.158 354.6168,549.2002 375.2513,550.4322 396.2002,550.8366 417.3287,550.401 438.4993,549.1189 459.573,546.9891 480.4102,544.0159 500.8716,540.2097 520.8195,535.5863 540.1186,530.167 558.6371,523.9791 576.2476,517.0548 592.8282,509.4318 608.2636,501.1526 622.4456,492.2646 635.2743,482.8196 646.6586,472.8731 656.5173,462.4847 664.7795,451.7171 671.3851,440.6357 676.2857,429.3085 679.4446,417.8051 680.8371,406.1967 680.4512,394.5551 678.2871,382.9527 674.3577,371.4614 668.6884,360.1525" stroke="#333" stroke-width="0.8" fill="none"/>
  <polyline points="618.9313,367.5317 612.9578,360.1115 605.6992,352.9327 597.1967,346.0397 587.498,339.4752 576.6576,333.2805 564.7362,327.4948 551.8006,322.1552 537.9233,317.2963 523.1821,312.9503 507.66,309.1467 491.4445,305.9121 474.6274,303.27 457.3042,301.2406 439.5739,299.8411 421.5381,299.0848 403.3011,298.9818 384.9686,299.5383 366.6478,300.757 348.4468,302.6366 330.4734,305.172 312.8352,308.3543 295.6389,312.1707 278.9892,316.6047 262.9888,321.6356 247.7375,327.2394 233.3313,333.3881 219.8627,340.0505 207.4189,347.1915 196.0823,354.7732 185.9293,362.7543 177.03,371.0907 169.4475,379.7355 163.2377,388.6395 158.4487,397.7512 155.1203,407.0174 153.2838,416.383 152.9616,425.7918 154.1668,435.1867 156.9035,444.5097 161.1659,453.703 166.9387,462.7084 174.1969,471.4686 182.9061,479.927 193.022,488.0281 204.4911,495.7183 217.2508,502.9458 231.2295,509.6612 246.3473,515.8179 262.5161,521.3721 279.6402,526.2837 297.6169,530.5161 316.3372,534.0369 335.6863,536.8176 355.5443,538.8346 375.787,540.0687 396.2869,540.5058 416.9138,540.1367 437.5357,538.9574 458.0199,536.9691 478.2335,534.1784 498.0447,530.5969 517.3238,526.2417 535.9436,521.135 553.7807,515.3039 570.7164,508.7807 586.6375,501.6021 601.437,493.8094 615.0149,485.4483 627.2793,476.5682 638.1465,467.2222 647.5423,457.4666 655.4018,447.3607 661.6707,436.9662 666.305,426.347 669.2719,415.5683 670.5497,404.6968 670.1281,393.7997 668.0084,382.9446 664.2033,372.1986 658.737,361.6284" stroke="#333" stroke-width="0.8" fill="none"/>
  <polyline points="628.8827,366.0558 622.6296,357.9085 615.0178,350.0183 606.0924,342.4341 595.9063,335.2027 584.5194,328.3691 571.999,321.976 558.419,316.0635 543.8593,310.6688 528.4059,305.8264 512.1501,301.5675 495.188,297.9199 477.6202,294.9078 459.5508,292.5519 441.0873,290.8688 422.3399,289.8715 403.4204,289.5687 384.4423,289.9651 365.5196,291.0613 346.7666,292.8537 328.2967,295.3344 310.2221,298.4916 292.6533,302.3091 275.6979,306.7669 259.4605,311.841 244.0417,317.5034 229.5377,323.7227 216.0395,330.4637 203.6328,337.6879 192.3966,345.3539 182.4035,353.417 173.7189,361.8302 166.4005,370.5438 160.498,379.5061 156.0526,388.6636 153.0968,397.9613 151.6544,407.343 151.7397,416.7514 153.3579,426.1292 156.5045,435.4184 161.1659,444.5615 167.3187,453.5015 174.9303,462.1824 183.959,470.5493 194.3537,478.549 206.0549,486.1303 218.9944,493.2443 233.0961,499.8447 248.276,505.8883 264.4432,511.3348 281.5,516.1477 299.3427,520.2942 317.8621,523.7456 336.9445,526.4773 356.4717,528.469 376.3227,529.7053 396.3736,530.1751 416.4989,529.8724 436.5722,528.7959 456.4667,526.9492 476.0568,524.3408 495.2179,520.984 513.8281,516.8971 531.7685,512.1029 548.9243,506.6288 565.1853,500.5066 580.4468,493.7724 594.6103,486.4663 607.5841,478.632 619.2842,470.3168 629.6344,461.5712 638.5672,452.4484 646.0241,443.0043 651.9562,433.2967 656.3243,423.3854 659.0993,413.3315 660.2623,403.1969 659.8051,393.0443 657.7297,382.9364 654.0489,372.9358 648.7855,363.1042" stroke="#333" stroke-width="0.8" fill="none"/>
  <polyline points="638.8341,364.58 632.3013,355.7054 624.3363,347.1039 614.9882,338.8284 604.3146,330.9302 592.3813,323.4577 579.2619,316.4572 565.0373,309.9718 549.7953,304.0414 533.6296,298.7026 516.6401,293.9883 498.9315,289.9277 480.613,286.5456 461.7974,283.8631 442.6008,281.8966 423.1416,280.6582 403.5397,280.1556 383.916,280.3919 364.3914,281.3656 345.0864,283.0708 326.1199,285.4968 307.609,288.6288 289.6676,292.4475 272.4065,296.9292 255.9321,302.0464 240.3459,307.7675 225.744,314.0573 212.2164,320.8769 199.8466,328.1843 188.7108,335.9345 178.8777,344.0797 170.4079,352.5697 163.3535,361.3521 157.7582,370.3728 153.6564,379.5761 151.0734,388.9053 150.0251,398.303 150.5179,407.7111 152.5489,417.0717 156.1056,426.327 161.1659,435.42 167.6987,444.2946 175.6637,452.8961 185.0118,461.1716 195.6854,469.0698 207.6187,476.5423 220.7381,483.5428 234.9627,490.0282 250.2047,495.9586 266.3704,501.2974 283.3599,506.0117 301.0685,510.0723 319.387,513.4544 338.2026,516.1369 357.3992,518.1034 376.8584,519.3418 396.4603,519.8444 416.084,519.6081 435.6086,518.6344 454.9136,516.9292 473.8801,514.5032 492.391,511.3712 510.3324,507.5525 527.5935,503.0708 544.0679,497.9536 559.6541,492.2325 574.256,485.9427 587.7836,479.1231 600.1534,471.8157 611.2892,464.0655 621.1223,455.9203 629.5921,447.4303 636.6465,438.6479 642.2418,429.6272 646.3436,420.4239 648.9266,411.0947 649.9749,401.697 649.4821,392.2889 647.4511,382.9283 643.8944,373.673 638.8341,364.58" stroke="#333" stroke-width="0.8" fill="none"/>
  <polyline points="648.7855,363.1042 641.9731,353.5023 633.6548,344.1894 623.8839,335.2228 612.7229,326.6576 600.2431,318.5463 586.5248,310.9384 571.6557,303.88 555.7312,297.4139 538.8534,291.5787 521.1302,286.4091 502.675,281.9354 483.6057,278.1835 464.044,275.1743 444.1143,272.9244 423.9433,271.4449 403.659,270.7426 383.3897,270.8187 363.2632,271.67 343.4062,273.2879 323.9432,275.6592 304.9959,278.7661 286.682,282.5858 269.1152,287.0915 252.4037,292.2518 236.6501,298.0316 221.9503,304.3918 208.3933,311.2901 196.0605,318.6807 185.0251,326.5152 175.3519,334.7424 167.0968,343.3092 160.3065,352.1604 155.0185,361.2394 151.2602,370.4885 149.0499,379.8493 148.3957,389.263 149.2961,398.6707 151.74,408.0142 155.7066,417.2356 161.1659,426.2785 168.0787,435.0877 176.3971,443.6099 186.0647,451.7939 197.0172,459.5907 209.1825,466.9542 222.4817,473.8413 236.8292,480.2118 252.1335,486.029 268.2975,491.2601 285.2197,495.8757 302.7943,499.8504 320.9119,503.1631 339.4608,505.7965 358.3266,507.7378 377.3941,508.9783 396.547,509.5136 415.6691,509.3438 434.645,508.4728 453.3605,506.9093 471.7033,504.6656 489.5641,501.7583 506.8366,498.208 523.4184,494.0387 539.2115,489.2785 554.123,483.9584 568.0653,478.1131 580.9569,471.78 592.7226,464.9993 603.2942,457.8141 612.6102,450.2693 620.6171,442.4122 627.2688,434.2915 632.5273,425.9578 636.3629,417.4624 638.754,408.8579 639.6876,400.1971 639.159,391.5335 637.1724,382.9202 633.74,374.4102 628.8827,366.0558" stroke="#333" stroke-width="0.8" fill="none"/>
  <polyline points="658.737,361.6284 651.6448,351.2992 642.9734,341.275 632.7797,331.6172 621.1311,322.3851 608.105,313.6349 593.7877,305.4196 578.2741,297.7883 561.6672,290.7864 544.0771,284.4548 525.6203,278.8299 506.4185,273.9432 486.5985,269.8213 466.2906,266.4856 445.6277,263.9521 424.7451,262.2317 403.7783,261.3295 382.8634,261.2455 362.135,261.9743 341.726,263.505 321.7665,265.8216 302.3827,268.9033 283.6964,272.7242 265.8238,277.2537 248.8753,282.4572 232.9543,288.2956 218.1566,294.7264 204.5702,301.7033 192.2743,309.1771 181.3393,317.0958 171.826,325.4052 163.7857,334.0487 157.2595,342.9687 152.2787,352.106 148.8641,361.4009 147.0264,370.7933 146.7663,380.223 148.0743,389.6304 150.931,398.9567 155.3076,408.1442 161.1659,417.137 168.4587,425.8808 177.1305,434.3237 187.1176,442.4162 198.3489,450.1115 210.7464,457.3662 224.2254,464.1398 238.6958,470.3953 254.0622,476.0994 270.2247,481.2228 287.0795,485.7397 304.52,489.6285 322.4368,492.8718 340.7189,495.4562 359.2541,497.3722 377.9298,498.6148 396.6337,499.1829 415.2542,499.0794 433.6814,498.3113 451.8073,496.8893 469.5266,494.828 486.7373,492.1455 503.3409,488.8634 519.2433,485.0067 534.3551,480.6033 548.5918,475.6843 561.8746,470.2834 574.1302,464.4368 585.2919,458.183 595.2991,451.5627 604.0981,444.6184 611.642,437.394 617.8911,429.9351 622.8129,422.2883 626.3822,414.5009 628.5813,406.621 629.4002,398.6973 628.836,390.7781 626.8937,382.9121 623.5856,375.1475 618.9313,367.5317" stroke="#333" stroke-width="0.8" fill="none"/>
  <polyline points="668.6884,360.1525 661.3166,349.0962 652.2919,338.3605 641.6754,328.0116 629.5394,318.1126 615.9669,308.7235 601.0505,299.9008 584.8925,291.6966 567.6032,284.159 549.3009,277.3309 530.1103,271.2507 510.162,265.951 489.5913,261.4591 468.5371,257.7968 447.1412,254.9799 425.5468,253.0184 403.8977,251.9164 382.3371,251.6723 361.0068,252.2786 340.0459,253.7221 319.5898,255.9841 299.7696,259.0406 280.7108,262.8625 262.5325,267.416 245.347,272.6626 229.2585,278.5597 214.3629,285.0609 200.747,292.1165 188.4881,299.6735 177.6535,307.6765 168.3002,316.0679 160.4746,324.7883 154.2126,333.777 149.5389,342.9727 146.4679,352.3134 145.003,361.7373 145.137,371.183 146.8525,380.59 150.1221,389.8992 154.9087,399.0529 161.1659,407.9955 168.8387,416.6739 177.8639,425.0375 188.1705,433.0385 199.6807,440.6324 212.3102,447.7782 225.9691,454.4382 240.5624,460.5788 255.9909,466.1698 272.1518,471.1854 288.9394,475.6037 306.2458,479.4066 323.9617,482.5806 341.9771,485.1158 360.1815,487.0066 378.4655,488.2513 396.7204,488.8522 414.8393,488.8151 432.7178,488.1498 450.2542,486.8694 467.3499,484.9904 483.9104,482.5326 499.8452,479.5188 515.0683,475.9746 529.4987,471.9282 543.0607,467.4102 555.6838,462.4537 567.3035,457.0936 577.8611,451.3667 587.3041,445.3114 595.586,438.9674 602.667,432.3759 608.5134,425.5787 613.0984,418.6188 616.4015,411.5394 618.4087,404.3842 619.1128,397.1974 618.513,390.0227 616.615,382.904 613.4311,375.8847 608.9799,369.0075" stroke="#333" stroke-width="0.8" fill="none"/>
  <polyline points="678.6398,358.6767 670.9884,346.8931 661.6104,335.4461 650.5712,324.406 637.9477,313.8401 623.8287,303.8122 608.3134,294.382 591.5109,285.6049 573.5392,277.5315 554.5247,270.2071 534.6004,263.6715 513.9055,257.9587 492.5841,253.097 470.7837,249.108 448.6547,246.0076 426.3485,243.8051 404.017,242.5034 381.8108,242.0991 359.8786,242.5829 338.3657,243.9392 317.4131,246.1465 297.1565,249.1778 277.7251,253.0009 259.2412,257.5782 241.8186,262.868 225.5627,268.8238 210.5692,275.3955 196.9239,282.5297 184.702,290.1699 173.9678,298.2572 164.7744,306.7306 157.1636,315.5278 151.1656,324.5853 146.7992,333.8393 144.0718,343.2258 142.9795,352.6812 143.5076,362.143 145.6307,371.5497 149.3131,380.8417 154.5097,389.9615 161.1659,398.854 169.2187,407.467 178.5972,415.7512 189.2234,423.6608 201.0124,431.1533 213.874,438.1902 227.7127,444.7367 242.429,450.7623 257.9196,456.2402 274.0789,461.1481 290.7992,465.4677 307.9716,469.1848 325.4866,472.2893 343.2352,474.7754 361.109,476.641 379.0012,477.8879 396.8071,478.5214 414.4244,478.5508 431.7543,477.9883 448.701,476.8494 465.1732,475.1528 481.0835,472.9198 496.3495,470.1743 510.8932,466.9425 524.6423,463.253 537.5295,459.1361 549.4931,454.6241 560.4768,449.7505 570.4304,444.5504 579.309,439.06 587.0739,433.3165 593.6919,427.3578 599.1358,421.2224 603.384,414.9493 606.4208,408.5778 608.236,402.1474 608.8254,395.6975 608.1899,389.2673 606.3364,382.8959 603.2767,376.6219 599.0284,370.4833" stroke="#333" stroke-width="0.8" fill="none"/>
  <polyline points="688.5912,357.2009 680.6601,344.69 670.9289,332.5316 659.4669,320.8004 646.356,309.5676 631.6906,298.9008 615.5763,288.8632 598.1292,279.5132 579.4752,270.904 559.7484,263.0832 539.0904,256.0923 517.649,249.9665 495.5768,244.7348 473.0303,240.4193 450.1681,237.0354 427.1502,234.5918 404.1363,233.0903 381.2845,232.5259 358.7504,232.8872 336.6855,234.1563 315.2364,236.3089 294.5433,239.3151 274.7395,243.1392 255.9498,247.7405 238.2902,253.0734 221.8669,259.0878 206.7755,265.7301 193.1008,272.9429 180.9158,280.6663 170.282,288.8378 161.2486,297.3933 153.8525,306.2673 148.1186,315.3936 144.0594,324.706 141.6756,334.1383 140.956,343.6252 141.8782,353.103 144.4089,362.5093 148.5042,371.7842 154.1107,380.8701 161.1659,389.7126 169.5987,398.2601 179.3306,406.465 190.2762,414.2831 202.3442,421.6741 215.4378,428.6021 229.4564,435.0352 244.2955,440.9458 259.8483,446.3106 276.0061,451.1108 292.6591,455.3317 309.6974,458.9629 327.0115,461.9981 344.4933,464.4351 362.0364,466.2754 379.5369,467.5244 396.8938,468.1907 414.0095,468.2865 430.7907,467.8267 447.1479,466.8295 462.9965,465.3152 478.2567,463.307 492.8537,460.8297 506.7182,457.9104 519.786,454.5779 531.9984,450.862 543.3023,446.7944 553.6502,442.4073 562.9996,437.7341 571.314,432.8086 578.5618,427.6655 584.7169,422.3396 589.7581,416.866 593.6695,411.2798 596.44,405.6163 598.0634,399.9106 598.538,394.1976 597.8669,388.5119 596.0577,382.8878 593.1223,377.3591 589.077,371.9592" stroke="#333" stroke-width="0.8" fill="none"/>
  <polyline points="579.1256,373.435 589.077,371.9592 599.0284,370.4833 608.9799,369.0075 618.9313,367.5317 628.8827,366.0558 638.8341,364.58 648.7855,363.1042 658.737,361.6284 668.6884,360.1525 678.6398,358.6767 688.5912,357.2009" stroke="#999" stroke-width="0.5" fill="none"/>
  <polyline points="535.6847,349.5701 542.9476,344.0512 550.2104,338.5324 557.4733,333.0136 564.7362,327.4948 571.999,321.976 579.2619,316.4572 586.5248,310.9384 593.7877,305.4196 601.0505,299.9008 608.3134,294.382 615.5763,288.8632" stroke="#999" stroke-width="0.5" fill="none"/>
  <polyline points="462.6563,336.7187 465.6491,328.3565 468.6418,319.9943 471.6346,311.6322 474.6274,303.27 477.6202,294.9078 480.613,286.5456 483.6057,278.1835 486.5985,269.8213 489.5913,261.4591 492.5841,253.097 495.5768,244.7348" stroke="#999" stroke-width="0.5" fill="none"/>
  <polyline points="371.1607,339.5397 370.0325,329.844 368.9043,320.1484 367.776,310.4527 366.6478,300.757 365.5196,291.0613 364.3914,281.3656 363.2632,271.67 362.135,261.9743 361.0068,252.2786 359.8786,242.5829 358.7504,232.8872" stroke="#999" stroke-width="0.5" fill="none"/>
  <polyline points="277.1023,360.814 273.574,351.0194 270.0456,341.2248 266.5172,331.4302 262.9888,321.6356 259.4605,311.841 255.9321,302.0464 252.4037,292.2518 248.8753,282.4572 245.347,272.6626 241.8186,262.868 238.2902,253.0734" stroke="#999" stroke-width="0.5" fill="none"/>
  <polyline points="200.0326,400.1035 196.5068,390.7662 192.981,381.4289 189.4552,372.0916 185.9293,362.7543 182.4035,353.417 178.8777,344.0797 175.3519,334.7424 171.826,325.4052 168.3002,316.0679 164.7744,306.7306 161.2486,297.3933" stroke="#999" stroke-width="0.5" fill="none"/>
  <polyline points="159.8012,452.543 158.1719,443.503 156.5425,434.463 154.9131,425.423 153.2838,416.383 151.6544,407.343 150.0251,398.303 148.3957,389.263 146.7663,380.223 145.137,371.183 143.5076,362.143 141.8782,353.103" stroke="#999" stroke-width="0.5" fill="none"/>
  <polyline points="171.2634,508.6135 171.9968,499.3273 172.7302,490.0411 173.4636,480.7548 174.1969,471.4686 174.9303,462.1824 175.6637,452.8961 176.3971,443.6099 177.1305,434.3237 177.8639,425.0375 178.5972,415.7512 179.3306,406.465" stroke="#999" stroke-width="0.5" fill="none"/>
  <polyline points="238.6324,555.5363 240.5611,545.6067 242.4899,535.6771 244.4186,525.7475 246.3473,515.8179 248.276,505.8883 250.2047,495.9586 252.1335,486.029 254.0622,476.0994 255.9909,466.1698 257.9196,456.2402 259.8483,446.3106" stroke="#999" stroke-width="0.5" fill="none"/>
  <polyline points="351.8345,580.297 352.7619,569.9314 353.6894,559.5658 354.6168,549.2002 355.5443,538.8346 356.4717,528.469 357.3992,518.1034 358.3266,507.7378 359.2541,497.3722 360.1815,487.0066 361.109,476.641 362.0364,466.2754" stroke="#999" stroke-width="0.5" fill="none"/>
  <polyline points="486.9403,573.5287 484.7636,563.6911 482.5869,553.8535 480.4102,544.0159 478.2335,534.1784 476.0568,524.3408 473.8801,514.5032 471.7033,504.6656 469.5266,494.828 467.3499,484.9904 465.1732,475.1528 462.9965,465.3152" stroke="#999" stroke-width="0.5" fill="none"/>
  <polyline points="611.4005,532.9208 605.2097,525.0911 599.019,517.2614 592.8282,509.4318 586.6375,501.6021 580.4468,493.7724 574.256,485.9427 568.0653,478.1131 561.8746,470.2834 555.6838,462.4537 549.4931,454.6241 543.3023,446.7944" stroke="#999" stroke-width="0.5" fill="none"/>
  <polyline points="692.9125,464.7862 683.5348,460.4299 674.1572,456.0735 664.7795,451.7171 655.4018,447.3607 646.0241,443.0043 636.6465,438.6479 627.2688,434.2915 617.8911,429.9351 608.5134,425.5787 599.1358,421.2224 589.7581,416.866" stroke="#999" stroke-width="0.5" fill="none"/>
  <polyline points="709.1231,382.977 698.8445,382.9689 688.5658,382.9608 678.2871,382.9527 668.0084,382.9446 657.7297,382.9364 647.4511,382.9283 637.1724,382.9202 626.8937,382.9121 616.615,382.904 606.3364,382.8959 596.0577,382.8878" stroke="#999" stroke-width="0.5" fill="none"/>
</g>
</svg>