<svg xmlns="http://www.w3.org/2000/svg" width="800" height="800" viewBox="0 0 800 800">
  <g>
  <line x1="49" y1="49" x2="49" y2="729" stroke="#ccc" stroke-width="0.5"/>
  <line x1="84" y1="49" x2="84" y2="729" stroke="#ccc" stroke-width="0.5"/>
  <line x1="119" y1="49" x2="119" y2="729" stroke="#ccc" stroke-width="0.5"/>
  <line x1="154" y1="49" x2="154" y2="729" stroke="#ccc" stroke-width="0.5"/>
  <line x1="189" y1="49" x2="189" y2="729" stroke="#ccc" stroke-width="0.5"/>
  <line x1="224" y1="49" x2="224" y2="729" stroke="#ccc" stroke-width="0.5"/>
  <line x1="259" y1="49" x2="259" y2="729" stroke="#ccc" stroke-width="0.5"/>
  <line x1="294" y1="49" x2="294" y2="729" stroke="#ccc" stroke-width="0.5"/>
  <line x1="329" y1="49" x2="329" y2="729" stroke="#ccc" stroke-width="0.5"/>
  <line x1="364" y1="49" x2="364" y2="729" stroke="#ccc" stroke-width="0.5"/>
  <line x1="399" y1="49" x2="399" y2="729" stroke="#ccc" stroke-width="0.5"/>
  <line x1="434" y1="49" x2="434" y2="729" stroke="#ccc" stroke-width="0.5"/>
  <line x1="469" y1="49" x2="469" y2="729" stroke="#ccc" stroke-width="0.5"/>
  <line x1="504" y1="49" x2="504" y2="729" stroke="#ccc" stroke-width="0.5"/>
  <line x1="539" y1="49" x2="539" y2="729" stroke="#ccc" stroke-width="0.5"/>
  <line x1="574" y1="49" x2="574" y2="729" stroke="#ccc" stroke-width="0.5"/>
  <line x1="609" y1="49" x2="609" y2="729" stroke="#ccc" stroke-width="0.5"/>
  <line x1="644" y1="49" x2="644" y2="729" stroke="#ccc" stroke-width="0.5"/>
  <line x1="679" y1="49" x2="679" y2="729" stroke="#ccc" stroke-width="0.5"/>
  <line x1="714" y1="49" x2="714" y2="729" stroke="#ccc" stroke-width="0.5"/>
  <line x1="49" y1="49" x2="734" y2="49" stroke="#ccc" stroke-width="0.5"/>
  <line x1="49" y1="84" x2="734" y2="84" stroke="#ccc" stroke-width="0.5"/>
  <line x1="49" y1="119" x2="734" y2="119" stroke="#ccc" stroke-width="0.5"/>
  <line x1="49" y1="154" x2="734" y2="154" stroke="#ccc" stroke-width="0.5"/>
  <line x1="49" y1="189" x2="734" y2="189" stroke="#ccc" stroke-width="0.5"/>
  <line x1="49" y1="224" x2="734" y2="224" stroke="#ccc" stroke-width="0.5"/>
  <line x1="49" y1="259" x2="734" y2="259" stroke="#ccc" stroke-width="0.5"/>
  <line x1="49" y1="294" x2="734" y2="294" stroke="#ccc" stroke-width="0.5"/>
  <line x1="49" y1="329" x2="734" y2="329" stroke="#ccc" stroke-width="0.5"/>
  <line x1="49" y1="364" x2="734" y2="364" stroke="#ccc" stroke-width="0.5"/>
  <line x1="49" y1="399" x2="734" y2="399" stroke="#ccc" stroke-width="0.5"/>
  <line x1="49" y1="434" x2="734" y2="434" stroke="#ccc" stroke-width="0.5"/>
  <line x1="49" y1="469" x2="734" y2="469" stroke="#ccc" stroke-width="0.5"/>
  <line x1="49" y1="504" x2="734" y2="504" stroke="#ccc" stroke-width="0.5"/>
  <line x1="49" y1="539" x2="734" y2="539" stroke="#ccc" stroke-width="0.5"/>
  <line x1="49" y1="574" x2="734" y2="574" stroke="#ccc" stroke-width="0.5"/>
  <line x1="49" y1="609" x2="734" y2="609" stroke="#ccc" stroke-width="0.5"/>
  <line x1="49" y1="644" x2="734" y2="644" stroke="#ccc" stroke-width="0.5"/>
  <line x1="49" y1="679" x2="734" y2="679" stroke="#ccc" stroke-width="0.5"/>
  <line x1="49" y1="714" x2="734" y2="714" stroke="#ccc" stroke-width="0.5"/>
</g>
</svg>