<svg xmlns="http://www.w3.org/2000/svg" width="800" height="800" viewBox="0 0 800 800">
  <g>
  <line x1="400" y1="400" x2="550" y2="400" stroke="#999" stroke-width="0.5"/>
  <line x1="400" y1="400" x2="475" y2="529.9038" stroke="#999" stroke-width="0.5"/>
  <line x1="400" y1="400" x2="325" y2="529.9038" stroke="#999" stroke-width="0.5"/>
  <line x1="400" y1="400" x2="250" y2="400" stroke="#999" stroke-width="0.5"/>
  <line x1="400" y1="400" x2="325" y2="270.0962" stroke="#999" stroke-width="0.5"/>
  <line x1="400" y1="400" x2="475" y2="270.0962" stroke="#999" stroke-width="0.5"/>
  <line x1="400" y1="400" x2="659.8076" y2="550" stroke="#999" stroke-width="0.5"/>
  <line x1="400" y1="400" x2="400" y2="700" stroke="#999" stroke-width="0.5"/>
  <line x1="400" y1="400" x2="140.1924" y2="550" stroke="#999" stroke-width="0.5"/>
  <line x1="400" y1="400" x2="140.1924" y2="250" stroke="#999" stroke-width="0.5"/>
  <line x1="400" y1="400" x2="400" y2="100" stroke="#999" stroke-width="0.5"/>
  <line x1="400" y1="400" x2="659.8076" y2="250" stroke="#999" stroke-width="0.5"/>
  <line x1="550" y1="400" x2="475" y2="529.9038" stroke="#999" stroke-width="0.5"/>
  <line x1="550" y1="400" x2="325" y2="529.9038" stroke="#999" stroke-width="0.5"/>
  <line x1="550" y1="400" x2="250" y2="400" stroke="#999" stroke-width="0.5"/>
  <line x1="550" y1="400" x2="325" y2="270.0962" stroke="#999" stroke-width="0.5"/>
  <line x1="550" y1="400" x2="475" y2="270.0962" stroke="#999" stroke-width="0.5"/>
  <line x1="550" y1="400" x2="659.8076" y2="550" stroke="#999" stroke-width="0.5"/>
  <line x1="550" y1="400" x2="400" y2="700" stroke="#999" stroke-width="0.5"/>
  <line x1="550" y1="400" x2="140.1924" y2="550" stroke="#999" stroke-width="0.5"/>
  <line x1="550" y1="400" x2="140.1924" y2="250" stroke="#999" stroke-width="0.5"/>
  <line x1="550" y1="400" x2="400" y2="100" stroke="#999" stroke-width="0.5"/>
  <line x1="550" y1="400" x2="659.8076" y2="250" stroke="#999" stroke-width="0.5"/>
  <line x1="475" y1="529.9038" x2="325" y2="529.9038" stroke="#999" stroke-width="0.5"/>
  <line x1="475" y1="529.9038" x2="250" y2="400" stroke="#999" stroke-width="0.5"/>
  <line x1="475" y1="529.9038" x2="325" y2="270.0962" stroke="#999" stroke-width="0.5"/>
  <line x1="475" y1="529.9038" x2="475" y2="270.0962" stroke="#999" stroke-width="0.5"/>
  <line x1="475" y1="529.9038" x2="659.8076" y2="550" stroke="#999" stroke-width="0.5"/>
  <line x1="475" y1="529.9038" x2="400" y2="700" stroke="#999" stroke-width="0.5"/>
  <line x1="475" y1="529.9038" x2="140.1924" y2="550" stroke="#999" stroke-width="0.5"/>
  <line x1="475" y1="529.9038" x2="140.1924" y2="250" stroke="#999" stroke-width="0.5"/>
  <line x1="475" y1="529.9038" x2="400" y2="100" stroke="#999" stroke-width="0.5"/>
  <line x1="475" y1="529.9038" x2="659.8076" y2="250" stroke="#999" stroke-width="0.5"/>
  <line x1="325" y1="529.9038" x2="250" y2="400" stroke="#999" stroke-width="0.5"/>
  <line x1="325" y1="529.9038" x2="325" y2="270.0962" stroke="#999" stroke-width="0.5"/>
  <line x1="325" y1="529.9038" x2="475" y2="270.0962" stroke="#999" stroke-width="0.5"/>
  <line x1="325" y1="529.9038" x2="659.8076" y2="550" stroke="#999" stroke-width="0.5"/>
  <line x1="325" y1="529.9038" x2="400" y2="700" stroke="#999" stroke-width="0.5"/>
  <line x1="325" y1="529.9038" x2="140.1924" y2="550" stroke="#999" stroke-width="0.5"/>
  <line x1="325" y1="529.9038" x2="140.1924" y2="250" stroke="#999" stroke-width="0.5"/>
  <line x1="325" y1="529.9038" x2="400" y2="100" stroke="#999" stroke-width="0.5"/>
  <line x1="325" y1="529.9038" x2="659.8076" y2="250" stroke="#999" stroke-width="0.5"/>
  <line x1="250" y1="400" x2="325" y2="270.0962" stroke="#999" stroke-width="0.5"/>
  <line x1="250" y1="400" x2="475" y2="270.0962" stroke="#999" stroke-width="0.5"/>
  <line x1="250" y1="400" x2="659.8076" y2="550" stroke="#999" stroke-width="0.5"/>
  <line x1="250" y1="400" x2="400" y2="700" stroke="#999" stroke-width="0.5"/>
  <line x1="250" y1="400" x2="140.1924" y2="550" stroke="#999" stroke-width="0.5"/>
  <line x1="250" y1="400" x2="140.1924" y2="250" stroke="#999" stroke-width="0.5"/>
  <line x1="250" y1="400" x2="400" y2="100" stroke="#999" stroke-width="0.5"/>
  <line x1="250" y1="400" x2="659.8076" y2="250" stroke="#999" stroke-width="0.5"/>
  <line x1="325" y1="270.0962" x2="475" y2="270.0962" stroke="#999" stroke-width="0.5"/>
  <line x1="325" y1="270.0962" x2="659.8076" y2="550" stroke="#999" stroke-width="0.5"/>
  <line x1="325" y1="270.0962" x2="400" y2="700" stroke="#999" stroke-width="0.5"/>
  <line x1="325" y1="270.0962" x2="140.1924" y2="550" stroke="#999" stroke-width="0.5"/>
  <line x1="325" y1="270.0962" x2="140.1924" y2="250" stroke="#999" stroke-width="0.5"/>
  <line x1="325" y1="270.0962" x2="400" y2="100" stroke="#999" stroke-width="0.5"/>
  <line x1="325" y1="270.0962" x2="659.8076" y2="250" stroke="#999" stroke-width="0.5"/>
  <line x1="475" y1="270.0962" x2="659.8076" y2="550" stroke="#999" stroke-width="0.5"/>
  <line x1="475" y1="270.0962" x2="400" y2="700" stroke="#999" stroke-width="0.5"/>
  <line x1="475" y1="270.0962" x2="140.1924" y2="550" stroke="#999" stroke-width="0.5"/>
  <line x1="475" y1="270.0962" x2="140.1924" y2="250" stroke="#999" stroke-width="0.5"/>
  <line x1="475" y1="270.0962" x2="400" y2="100" stroke="#999" stroke-width="0.5"/>
  <line x1="475" y1="270.0962" x2="659.8076" y2="250" stroke="#999" stroke-width="0.5"/>
  <line x1="659.8076" y1="550" x2="400" y2="700" stroke="#999" stroke-width="0.5"/>
  <line x1="659.8076" y1="550" x2="140.1924" y2="550" stroke="#999" stroke-width="0.5"/>
  <line x1="659.8076" y1="550" x2="140.1924" y2="250" stroke="#999" stroke-width="0.5"/>
  <line x1="659.8076" y1="550" x2="400" y2="100" stroke="#999" stroke-width="0.5"/>
  <line x1="659.8076" y1="550" x2="659.8076" y2="250" stroke="#999" stroke-width="0.5"/>
  <line x1="400" y1="700" x2="140.1924" y2="550" stroke="#999" stroke-width="0.5"/>
  <line x1="400" y1="700" x2="140.1924" y2="250" stroke="#999" stroke-width="0.5"/>
  <line x1="400" y1="700" x2="400" y2="100" stroke="#999" stroke-width="0.5"/>
  <line x1="400" y1="700" x2="659.8076" y2="250" stroke="#999" stroke-width="0.5"/>
  <line x1="140.1924" y1="550" x2="140.1924" y2="250" stroke="#999" stroke-width="0.5"/>
  <line x1="140.1924" y1="550" x2="400" y2="100" stroke="#999" stroke-width="0.5"/>
  <line x1="140.1924" y1="550" x2="659.8076" y2="250" stroke="#999" stroke-width="0.5"/>
  <line x1="140.1924" y1="250" x2="400" y2="100" stroke="#999" stroke-width="0.5"/>
  <line x1="140.1924" y1="250" x2="659.8076" y2="250" stroke="#999" stroke-width="0.5"/>
  <line x1="400" y1="100" x2="659.8076" y2="250" stroke="#999" stroke-width="0.5"/>
  <circle cx="400" cy="400" r="22.5" fill="none" stroke="#333" stroke-width="1"/>
  <circle cx="550" cy="400" r="22.5" fill="none" stroke="#333" stroke-width="1"/>
  <circle cx="475" cy="529.9038" r="22.5" fill="none" stroke="#333" stroke-width="1"/>
  <circle cx="325" cy="529.9038" r="22.5" fill="none" stroke="#333" stroke-width="1"/>
  <circle cx="250" cy="400" r="22.5" fill="none" stroke="#333" stroke-width="1"/>
  <circle cx="325" cy="270.0962" r="22.5" fill="none" stroke="#333" stroke-width="1"/>
  <circle cx="475" cy="270.0962" r="22.5" fill="none" stroke="#333" stroke-width="1"/>
  <circle cx="659.8076" cy="550" r="22.5" fill="none" stroke="#333" stroke-width="1"/>
  <circle cx="400" cy="700" r="22.5" fill="none" stroke="#333" stroke-width="1"/>
  <circle cx="140.1924" cy="550" r="22.5" fill="none" stroke="#333" stroke-width="1"/>
  <circle cx="140.1924" cy="250" r="22.5" fill="none" stroke="#333" stroke-width="1"/>
  <circle cx="400" cy="100" r="22.5" fill="none" stroke="#333" stroke-width="1"/>
  <circle cx="659.8076" cy="250" r="22.5" fill="none" stroke="#333" stroke-width="1"/>
</g>
</svg>