<svg xmlns="http://www.w3.org/2000/svg" width="800" height="800" viewBox="0 0 800 800">
  <g>
  <circle cx="400" cy="400" r="60" fill="none" stroke="#333" stroke-width="1"/>
  <circle cx="460" cy="400" r="60" fill="none" stroke="#333" stroke-width="1"/>
  <circle cx="430" cy="451.9615" r="60" fill="none" stroke="#333" stroke-width="1"/>
  <circle cx="370" cy="451.9615" r="60" fill="none" stroke="#333" stroke-width="1"/>
  <circle cx="340" cy="400" r="60" fill="none" stroke="#333" stroke-width="1"/>
  <circle cx="370" cy="348.0385" r="60" fill="none" stroke="#333" stroke-width="1"/>
  <circle cx="430" cy="348.0385" r="60" fill="none" stroke="#333" stroke-width="1"/>
  <circle cx="520" cy="400" r="60" fill="none" stroke="#333" stroke-width="1"/>
  <circle cx="503.923" cy="460" r="60" fill="none" stroke="#333" stroke-width="1"/>
  <circle cx="460" cy="503.923" r="60" fill="none" stroke="#333" stroke-width="1"/>
  <circle cx="400" cy="520" r="60" fill="none" stroke="#333" stroke-width="1"/>
  <circle cx="340" cy="503.923" r="60" fill="none" stroke="#333" stroke-width="1"/>
  <circle cx="296.077" cy="460" r="60" fill="none" stroke="#333" stroke-width="1"/>
  <circle cx="280" cy="400" r="60" fill="none" stroke="#333" stroke-width="1"/>
  <circle cx="296.077" cy="340" r="60" fill="none" stroke="#333" stroke-width="1"/>
  <circle cx="340" cy="296.077" r="60" fill="none" stroke="#333" stroke-width="1"/>
  <circle cx="400" cy="280" r="60" fill="none" stroke="#333" stroke-width="1"/>
  <circle cx="460" cy="296.077" r="60" fill="none" stroke="#333" stroke-width="1"/>
  <circle cx="503.923" cy="340" r="60" fill="none" stroke="#333" stroke-width="1"/>
  <circle cx="580" cy="400" r="60" fill="none" stroke="#333" stroke-width="1"/>
  <circle cx="569.1447" cy="461.5636" r="60" fill="none" stroke="#333" stroke-width="1"/>
  <circle cx="537.888" cy="515.7018" r="60" fill="none" stroke="#333" stroke-width="1"/>
  <circle cx="490" cy="555.8846" r="60" fill="none" stroke="#333" stroke-width="1"/>
  <circle cx="431.2567" cy="577.2654" r="60" fill="none" stroke="#333" stroke-width="1"/>
  <circle cx="368.7433" cy="577.2654" r="60" fill="none" stroke="#333" stroke-width="1"/>
  <circle cx="310" cy="555.8846" r="60" fill="none" stroke="#333" stroke-width="1"/>
  <circle cx="262.112" cy="515.7018" r="60" fill="none" stroke="#333" stroke-width="1"/>
  <circle cx="230.8553" cy="461.5636" r="60" fill="none" stroke="#333" stroke-width="1"/>
  <circle cx="220" cy="400" r="60" fill="none" stroke="#333" stroke-width="1"/>
  <circle cx="230.8553" cy="338.4364" r="60" fill="none" stroke="#333" stroke-width="1"/>
  <circle cx="262.112" cy="284.2982" r="60" fill="none" stroke="#333" stroke-width="1"/>
  <circle cx="310" cy="244.1154" r="60" fill="none" stroke="#333" stroke-width="1"/>
  <circle cx="368.7433" cy="222.7346" r="60" fill="none" stroke="#333" stroke-width="1"/>
  <circle cx="431.2567" cy="222.7346" r="60" fill="none" stroke="#333" stroke-width="1"/>
  <circle cx="490" cy="244.1154" r="60" fill="none" stroke="#333" stroke-width="1"/>
  <circle cx="537.888" cy="284.2982" r="60" fill="none" stroke="#333" stroke-width="1"/>
  <circle cx="569.1447" cy="338.4364" r="60" fill="none" stroke="#333" stroke-width="1"/>
</g>
</svg>