<svg xmlns="http://www.w3.org/2000/svg" width="800" height="800" viewBox="0 0 800 800">
  <g>
  <polygon points="347.8614,692.4688 582.7221,617.8569 677.9956,604.5159 502.0171,670.8827 297.9829,725.2405" stroke="#333" stroke-width="1.2" fill="#8B4513" fill-opacity="0.3"/>
  <polygon points="347.8614,692.4688 582.7221,617.8569 582.7221,390.1581 347.8614,324.0444 202.7094,510.8827" stroke="#333" stroke-width="1.2" fill="#DC143C" fill-opacity="0.3"/>
  <polygon points="347.8614,692.4688 297.9829,725.2405 122.0044,563.9085 63.1221,431.428 202.7094,510.8827" stroke="#333" stroke-width="1.2" fill="#4169E1" fill-opacity="0.3"/>
  <polygon points="347.8614,324.0444 202.7094,510.8827 63.1221,431.428 122.0044,195.4841 297.9829,129.1173" stroke="#333" stroke-width="1.2" fill="#228B22" fill-opacity="0.3"/>
  <polygon points="347.8614,324.0444 582.7221,390.1581 677.9956,236.0915 502.0171,74.7595 297.9829,129.1173" stroke="#333" stroke-width="1.2" fill="#8B4513" fill-opacity="0.3"/>
  <polygon points="122.0044,563.9085 297.9829,725.2405 502.0171,670.8827 452.1386,475.9556 217.2779,409.8419" stroke="#333" stroke-width="1.2" fill="#DC143C" fill-opacity="0.3"/>
  <polygon points="122.0044,563.9085 63.1221,431.428 122.0044,195.4841 217.2779,182.1431 217.2779,409.8419" stroke="#333" stroke-width="1.2" fill="#4169E1" fill-opacity="0.3"/>
  <polygon points="122.0044,195.4841 297.9829,129.1173 502.0171,74.7595 452.1386,107.5312 217.2779,182.1431" stroke="#333" stroke-width="1.2" fill="#228B22" fill-opacity="0.3"/>
  <polygon points="677.9956,604.5159 582.7221,617.8569 582.7221,390.1581 677.9956,236.0915 736.8779,368.572" stroke="#333" stroke-width="1.2" fill="#8B4513" fill-opacity="0.3"/>
  <polygon points="677.9956,604.5159 502.0171,670.8827 452.1386,475.9556 597.2906,289.1173 736.8779,368.572" stroke="#333" stroke-width="1.2" fill="#DC143C" fill-opacity="0.3"/>
  <polygon points="677.9956,236.0915 736.8779,368.572 597.2906,289.1173 452.1386,107.5312 502.0171,74.7595" stroke="#333" stroke-width="1.2" fill="#4169E1" fill-opacity="0.3"/>
  <polygon points="452.1386,475.9556 217.2779,409.8419 217.2779,182.1431 452.1386,107.5312 597.2906,289.1173" stroke="#333" stroke-width="1.2" fill="#228B22" fill-opacity="0.3"/>
  <line x1="347.8614" y1="692.4688" x2="582.7221" y2="617.8569" stroke="#333" stroke-width="1.2" fill="none"/>
  <line x1="347.8614" y1="692.4688" x2="297.9829" y2="725.2405" stroke="#333" stroke-width="1.2" fill="none"/>
  <line x1="347.8614" y1="692.4688" x2="202.7094" y2="510.8827" stroke="#333" stroke-width="1.2" fill="none"/>
  <line x1="347.8614" y1="324.0444" x2="202.7094" y2="510.8827" stroke="#333" stroke-width="1.2" fill="none"/>
  <line x1="347.8614" y1="324.0444" x2="582.7221" y2="390.1581" stroke="#333" stroke-width="1.2" fill="none"/>
  <line x1="347.8614" y1="324.0444" x2="297.9829" y2="129.1173" stroke="#333" stroke-width="1.2" fill="none"/>
  <line x1="122.0044" y1="563.9085" x2="297.9829" y2="725.2405" stroke="#333" stroke-width="1.2" fill="none"/>
  <line x1="122.0044" y1="563.9085" x2="63.1221" y2="431.428" stroke="#333" stroke-width="1.2" fill="none"/>
  <line x1="122.0044" y1="563.9085" x2="217.2779" y2="409.8419" stroke="#333" stroke-width="1.2" fill="none"/>
  <line x1="122.0044" y1="195.4841" x2="297.9829" y2="129.1173" stroke="#333" stroke-width="1.2" fill="none"/>
  <line x1="122.0044" y1="195.4841" x2="63.1221" y2="431.428" stroke="#333" stroke-width="1.2" fill="none"/>
  <line x1="122.0044" y1="195.4841" x2="217.2779" y2="182.1431" stroke="#333" stroke-width="1.2" fill="none"/>
  <line x1="677.9956" y1="604.5159" x2="582.7221" y2="617.8569" stroke="#333" stroke-width="1.2" fill="none"/>
  <line x1="677.9956" y1="604.5159" x2="502.0171" y2="670.8827" stroke="#333" stroke-width="1.2" fill="none"/>
  <line x1="677.9956" y1="604.5159" x2="736.8779" y2="368.572" stroke="#333" stroke-width="1.2" fill="none"/>
  <line x1="677.9956" y1="236.0915" x2="582.7221" y2="390.1581" stroke="#333" stroke-width="1.2" fill="none"/>
  <line x1="677.9956" y1="236.0915" x2="736.8779" y2="368.572" stroke="#333" stroke-width="1.2" fill="none"/>
  <line x1="677.9956" y1="236.0915" x2="502.0171" y2="74.7595" stroke="#333" stroke-width="1.2" fill="none"/>
  <line x1="452.1386" y1="475.9556" x2="217.2779" y2="409.8419" stroke="#333" stroke-width="1.2" fill="none"/>
  <line x1="452.1386" y1="475.9556" x2="502.0171" y2="670.8827" stroke="#333" stroke-width="1.2" fill="none"/>
  <line x1="452.1386" y1="475.9556" x2="597.2906" y2="289.1173" stroke="#333" stroke-width="1.2" fill="none"/>
  <line x1="452.1386" y1="107.5312" x2="217.2779" y2="182.1431" stroke="#333" stroke-width="1.2" fill="none"/>
  <line x1="452.1386" y1="107.5312" x2="502.0171" y2="74.7595" stroke="#333" stroke-width="1.2" fill="none"/>
  <line x1="452.1386" y1="107.5312" x2="597.2906" y2="289.1173" stroke="#333" stroke-width="1.2" fill="none"/>
  <line x1="582.7221" y1="617.8569" x2="582.7221" y2="390.1581" stroke="#333" stroke-width="1.2" fill="none"/>
  <line x1="297.9829" y1="725.2405" x2="502.0171" y2="670.8827" stroke="#333" stroke-width="1.2" fill="none"/>
  <line x1="202.7094" y1="510.8827" x2="63.1221" y2="431.428" stroke="#333" stroke-width="1.2" fill="none"/>
  <line x1="297.9829" y1="129.1173" x2="502.0171" y2="74.7595" stroke="#333" stroke-width="1.2" fill="none"/>
  <line x1="217.2779" y1="409.8419" x2="217.2779" y2="182.1431" stroke="#333" stroke-width="1.2" fill="none"/>
  <line x1="736.8779" y1="368.572" x2="597.2906" y2="289.1173" stroke="#333" stroke-width="1.2" fill="none"/>
  <circle cx="347.8614" cy="692.4688" r="6" fill="#333" stroke="none"/>
  <circle cx="347.8614" cy="324.0444" r="6" fill="#333" stroke="none"/>
  <circle cx="122.0044" cy="563.9085" r="6" fill="#333" stroke="none"/>
  <circle cx="122.0044" cy="195.4841" r="6" fill="#333" stroke="none"/>
  <circle cx="677.9956" cy="604.5159" r="6" fill="#333" stroke="none"/>
  <circle cx="677.9956" cy="236.0915" r="6" fill="#333" stroke="none"/>
  <circle cx="452.1386" cy="475.9556" r="6" fill="#333" stroke="none"/>
  <circle cx="452.1386" cy="107.5312" r="6" fill="#333" stroke="none"/>
  <circle cx="582.7221" cy="617.8569" r="6" fill="#333" stroke="none"/>
  <circle cx="297.9829" cy="725.2405" r="6" fill="#333" stroke="none"/>
  <circle cx="202.7094" cy="510.8827" r="6" fill="#333" stroke="none"/>
  <circle cx="582.7221" cy="390.1581" r="6" fill="#333" stroke="none"/>
  <circle cx="297.9829" cy="129.1173" r="6" fill="#333" stroke="none"/>
  <circle cx="63.1221" cy="431.428" r="6" fill="#333" stroke="none"/>
  <circle cx="217.2779" cy="409.8419" r="6" fill="#333" stroke="none"/>
  <circle cx="502.0171" cy="670.8827" r="6" fill="#333" stroke="none"/>
  <circle cx="736.8779" cy="368.572" r="6" fill="#333" stroke="none"/>
  <circle cx="217.2779" cy="182.1431" r="6" fill="#333" stroke="none"/>
  <circle cx="502.0171" cy="74.7595" r="6" fill="#333" stroke="none"/>
  <circle cx="597.2906" cy="289.1173" r="6" fill="#333" stroke="none"/>
</g>
</svg>