<svg xmlns="http://www.w3.org/2000/svg" width="1000" height="1000" viewBox="0 0 1000 1000">
  <rect x="0" y="0" width="1000" height="1000" fill="#0a0a1a"/>
  <g>
  <circle cx="500" cy="500" r="400" stroke="#9b59b6" stroke-width="2" fill="#9b59b6" fill-opacity="0.02"/>
  <circle cx="500" cy="120" r="4" fill="#e74c3c" stroke="#333" stroke-width="0.5"/>
  <circle cx="744.2593" cy="208.9031" r="4" fill="#e98b6d" stroke="#333" stroke-width="0.5"/>
  <circle cx="874.2269" cy="434.0137" r="4" fill="#c0392b" stroke="#333" stroke-width="0.5"/>
  <circle cx="829.0897" cy="690" r="4" fill="#f39c12" stroke="#333" stroke-width="0.5"/>
  <circle cx="629.9677" cy="857.0832" r="4" fill="#f1c40f" stroke="#333" stroke-width="0.5"/>
  <circle cx="370.0323" cy="857.0832" r="4" fill="#d4ac0d" stroke="#333" stroke-width="0.5"/>
  <circle cx="170.9103" cy="690" r="4" fill="#8e44ad" stroke="#333" stroke-width="0.5"/>
  <circle cx="125.7731" cy="434.0137" r="4" fill="#9b59b6" stroke="#333" stroke-width="0.5"/>
  <circle cx="255.7407" cy="208.9031" r="4" fill="#6c3483" stroke="#333" stroke-width="0.5"/>
  <polyline points="747.2136,500 760.0193,529.0974 761.8553,559.6393 749.4966,587.8431 724.7979,610.3191 693.5678,626.2503 662.4457,638.0789 635.5734,650.1803 612.9021,666.2194 590.9842,686.707 565.6396,708.2248 534.8278,724.8621 500,731.1447 465.1722,724.8621 434.3604,708.2248 409.0158,686.707 387.0979,666.2194 364.4266,650.1803 337.5543,638.0789 306.4322,626.2503 275.2021,610.3191 250.5034,587.8431 238.1447,559.6393 239.9807,529.0974 252.7864,500 269.822,474.242 284.2753,450.8672 292.7054,427.0154 296.6114,400.1875 301.3123,370.4103 312.8329,340.908 334.5852,316.7632 365.6885,302.2609 401.7751,298.4345 437.6724,302.2818 470.2921,308.1944 500,310.8816 529.7079,308.1944 562.3276,302.2818 598.2249,298.4345 634.3115,302.2609 665.4148,316.7632 687.1671,340.908 698.6877,370.4103 703.3886,400.1875 707.2946,427.0154 715.7247,450.8672 730.178,474.242" stroke="#c0c0c0" stroke-width="0.8" fill="none" stroke-opacity="0.4"/>
  <polyline points="639.1081,648.2706 615.9917,663.6238 594.2394,683.5991 569.5839,705.3013 539.5462,723.0162 505.0829,731.0125 469.9772,726.4908 438.4226,711.0479 412.3449,689.8404 390.1707,668.9129 367.8694,652.1761 341.6995,639.6843 311.0215,628.0995 279.4266,612.9722 253.3805,591.4591 239.0286,563.9069 238.9206,533.4487 250.522,503.9659 267.4107,477.7245 282.5512,454.161 291.8654,430.5662 296.1534,404.2373 300.3488,374.7531 310.5962,344.9181 330.8378,319.6957 360.8147,303.6581 396.5219,298.4018 432.7089,301.4632 465.8557,307.4471 495.8376,310.8229 525.3355,308.8702 557.4372,303.142 592.9794,298.6285 629.3345,301.0888 661.4702,314.0333 684.7138,337.0086 697.5802,366.0698 702.9156,396.0717 706.5538,423.3993 714.1323,447.5631 727.8254,470.8117 744.8627,496.1075 758.729,524.779 762.4405,555.3234 752.1147,584.1056 728.8877,607.5265 698.1638,624.3138 666.6853,636.4803" stroke="#a0a0a0" stroke-width="0.8" fill="none" stroke-opacity="0.4"/>
  <polyline points="442.603,713.7518 415.7581,692.9833 393.2406,671.6989 371.2276,654.2645 345.7451,641.3102 315.5868,629.8735 283.7648,615.4891 256.5026,594.9469 240.2124,568.1138 238.1064,537.8229 248.3665,508.0031 264.9584,481.2655 280.6993,457.4541 290.9155,434.0571 295.6914,408.2168 299.5127,379.0847 308.5711,349.0229 327.2957,322.821 356.06,305.2826 391.2753,298.5442 427.6771,300.7045 461.3495,306.6416 491.6646,310.6478 521.0203,309.4628 552.6234,304.0256 587.7549,298.9688 624.2709,300.1378 657.3384,311.5144 682.041,333.2355 696.3136,361.7456 702.4083,391.8957 705.8996,419.7136 712.6736,444.2391 725.5479,467.4262 742.4479,492.289 757.2259,520.5028 762.7302,550.9715 754.4619,580.2544 732.8221,604.5926 702.7482,622.2789 671.0119,634.8745 642.7404,646.4388 619.1111,661.1296 597.432,680.5316 573.412,702.2966 544.1691,720.9668 510.1519,730.617 474.8588,727.8902" stroke="#d4a574" stroke-width="0.8" fill="none" stroke-opacity="0.4"/>
  <polyline points="259.8544,598.3008 241.6947,572.2482 237.5522,542.2091 246.3423,512.1083 262.4841,484.8705 278.7261,460.7564 289.8466,437.4945 295.2069,412.1233 298.7868,383.3929 306.7506,353.2065 323.9657,326.1278 351.4399,307.1348 386.0504,298.874 422.5835,300.024 456.7693,305.7923 487.4706,310.3592 516.7546,309.9619 547.8878,304.9148 582.5637,299.4396 619.1371,299.4021 653.0309,309.2132 679.1475,329.6038 694.8741,357.4527 701.8472,387.6665 705.3179,415.9555 711.3482,440.8858 723.3598,464.0773 739.9917,488.544 755.5288,516.2769 762.73,546.596 756.5282,576.2986 736.5811,601.5169 707.3018,620.1356 675.4164,633.2474 646.4744,644.6753 622.2732,658.7386 600.5743,677.518 577.1275,699.2295 548.6891,718.7287 515.1933,729.9611 479.806,729.0499 446.9001,716.318 419.2647,696.119 396.321,674.5702 374.5101,656.4509 349.6876,642.9697 320.1123,631.585 288.1957,617.8748" stroke="#ffd700" stroke-width="0.8" fill="none" stroke-opacity="0.4"/>
  <polyline points="294.6821,415.9555 298.1528,387.6665 305.1259,357.4527 320.8525,329.6038 346.9691,309.2132 380.8629,299.4021 417.4363,299.4396 452.1122,304.9148 483.2454,309.9619 512.5294,310.3592 543.2307,305.7923 577.4165,300.024 613.9496,298.874 648.5601,307.1348 676.0343,326.1278 693.2494,353.2065 701.2132,383.3929 704.7931,412.1233 710.1534,437.4945 721.2739,460.7564 737.5159,484.8705 753.6577,512.1083 762.4478,542.2091 758.3053,572.2482 740.1456,598.3008 711.8043,617.8748 679.8877,631.585 650.3124,642.9697 625.4899,656.4509 603.679,674.5702 580.7353,696.119 553.0999,716.318 520.194,729.0499 484.8067,729.9611 451.3109,718.7287 422.8725,699.2295 399.4257,677.518 377.7268,658.7386 353.5256,644.6753 324.5836,633.2474 292.6982,620.1356 263.4189,601.5169 243.4718,576.2986 237.27,546.596 244.4712,516.2769 260.0083,488.544 276.6402,464.0773 288.6518,440.8858" stroke="#ff4500" stroke-width="0.8" fill="none" stroke-opacity="0.4"/>
  <polyline points="447.3766,304.0256 478.9797,309.4628 508.3354,310.6478 538.6505,306.6416 572.3229,300.7045 608.7247,298.5442 643.94,305.2826 672.7043,322.821 691.4289,349.0229 700.4873,379.0847 704.3086,408.2168 709.0845,434.0571 719.3007,457.4541 735.0416,481.2655 751.6335,508.0031 761.8936,537.8229 759.7876,568.1138 743.4974,594.9469 716.2352,615.4891 684.4132,629.8735 654.2549,641.3102 628.7724,654.2645 606.7594,671.6989 584.2419,692.9833 557.397,713.7518 525.1412,727.8902 489.8481,730.617 455.8309,720.9668 426.588,702.2966 402.568,680.5316 380.8889,661.1296 357.2596,646.4388 328.9881,634.8745 297.2518,622.2789 267.1779,604.5926 245.5381,580.2544 237.2698,550.9715 242.7741,520.5028 257.5521,492.289 274.4521,467.4262 287.3264,444.2391 294.1004,419.7136 297.5917,391.8957 303.6864,361.7456 317.959,333.2355 342.6616,311.5144 375.7291,300.1378 412.2451,298.9688" stroke="#4169e1" stroke-width="0.8" fill="none" stroke-opacity="0.4"/>
  <polyline points="669.1622,319.6957 689.4038,344.9181 699.6512,374.7531 703.8466,404.2373 708.1346,430.5662 717.4488,454.161 732.5893,477.7245 749.478,503.9659 761.0794,533.4487 760.9714,563.9069 746.6195,591.4591 720.5734,612.9722 688.9785,628.0995 658.3005,639.6843 632.1306,652.1761 609.8293,668.9129 587.6551,689.8404 561.5774,711.0479 530.0228,726.4908 494.9171,731.0125 460.4538,723.0162 430.4161,705.3013 405.7606,683.5991 384.0083,663.6238 360.8919,648.2706 333.3147,636.4803 301.8362,624.3138 271.1123,607.5265 247.8853,584.1056 237.5595,555.3234 241.271,524.779 255.1373,496.1075 272.1746,470.8117 285.8677,447.5631 293.4462,423.3993 297.0844,396.0717 302.4198,366.0698 315.2862,337.0086 338.5298,314.0333 370.6655,301.0888 407.0206,298.6285 442.5628,303.142 474.6645,308.8702 504.1624,310.8229 534.1443,307.4471 567.2911,301.4632 603.4781,298.4018 639.1853,303.6581" stroke="#696969" stroke-width="0.8" fill="none" stroke-opacity="0.4"/>
  <polyline points="652.7864,500 659.1265,521.4227 659.4154,544.0276 652.2686,565.947 637.7136,585.0466 617.2035,599.623 593.1358,608.9618 568.0615,613.5414 543.8834,614.8004 521.3455,614.5549 500,614.2842 478.6545,614.5549 456.1166,614.8004 431.9385,613.5414 406.8642,608.9618 382.7965,599.623 362.2864,585.0466 347.7314,565.947 340.5846,544.0276 340.8735,521.4227 347.2136,500 357.3158,480.7909 368.7983,463.7645 380.0012,448.0289 390.5,432.3771 401.1309,415.9612 413.5246,398.8303 429.3343,382.1142 449.4562,367.7759 473.5434,358.0158 500,354.5473 526.4566,358.0158 550.5438,367.7759 570.6657,382.1142 586.4754,398.8303 598.8691,415.9612 609.5,432.3771 619.9988,448.0289 631.2017,463.7645 642.6842,480.7909" stroke="#e67e22" stroke-width="1" fill="none" stroke-opacity="0.5"/>
  <polyline points="543.8834,614.8004 521.3455,614.5549 500,614.2842 478.6545,614.5549 456.1166,614.8004 431.9385,613.5414 406.8642,608.9618 382.7965,599.623 362.2864,585.0466 347.7314,565.947 340.5846,544.0276 340.8735,521.4227 347.2136,500 357.3158,480.7909 368.7983,463.7645 380.0012,448.0289 390.5,432.3771 401.1309,415.9612 413.5246,398.8303 429.3343,382.1142 449.4562,367.7759 473.5434,358.0158 500,354.5473 526.4566,358.0158 550.5438,367.7759 570.6657,382.1142 586.4754,398.8303 598.8691,415.9612 609.5,432.3771 619.9988,448.0289 631.2017,463.7645 642.6842,480.7909 652.7864,500 659.1265,521.4227 659.4154,544.0276 652.2686,565.947 637.7136,585.0466 617.2035,599.623 593.1358,608.9618 568.0615,613.5414" stroke="#95a5a6" stroke-width="1" fill="none" stroke-opacity="0.5"/>
  <polyline points="362.2864,585.0466 347.7314,565.947 340.5846,544.0276 340.8735,521.4227 347.2136,500 357.3158,480.7909 368.7983,463.7645 380.0012,448.0289 390.5,432.3771 401.1309,415.9612 413.5246,398.8303 429.3343,382.1142 449.4562,367.7759 473.5434,358.0158 500,354.5473 526.4566,358.0158 550.5438,367.7759 570.6657,382.1142 586.4754,398.8303 598.8691,415.9612 609.5,432.3771 619.9988,448.0289 631.2017,463.7645 642.6842,480.7909 652.7864,500 659.1265,521.4227 659.4154,544.0276 652.2686,565.947 637.7136,585.0466 617.2035,599.623 593.1358,608.9618 568.0615,613.5414 543.8834,614.8004 521.3455,614.5549 500,614.2842 478.6545,614.5549 456.1166,614.8004 431.9385,613.5414 406.8642,608.9618 382.7965,599.623" stroke="#f1c40f" stroke-width="1" fill="none" stroke-opacity="0.5"/>
  <polyline points="390.5,432.3771 401.1309,415.9612 413.5246,398.8303 429.3343,382.1142 449.4562,367.7759 473.5434,358.0158 500,354.5473 526.4566,358.0158 550.5438,367.7759 570.6657,382.1142 586.4754,398.8303 598.8691,415.9612 609.5,432.3771 619.9988,448.0289 631.2017,463.7645 642.6842,480.7909 652.7864,500 659.1265,521.4227 659.4154,544.0276 652.2686,565.947 637.7136,585.0466 617.2035,599.623 593.1358,608.9618 568.0615,613.5414 543.8834,614.8004 521.3455,614.5549 500,614.2842 478.6545,614.5549 456.1166,614.8004 431.9385,613.5414 406.8642,608.9618 382.7965,599.623 362.2864,585.0466 347.7314,565.947 340.5846,544.0276 340.8735,521.4227 347.2136,500 357.3158,480.7909 368.7983,463.7645 380.0012,448.0289" stroke="#2ecc71" stroke-width="1" fill="none" stroke-opacity="0.5"/>
  <polyline points="550.5438,367.7759 570.6657,382.1142 586.4754,398.8303 598.8691,415.9612 609.5,432.3771 619.9988,448.0289 631.2017,463.7645 642.6842,480.7909 652.7864,500 659.1265,521.4227 659.4154,544.0276 652.2686,565.947 637.7136,585.0466 617.2035,599.623 593.1358,608.9618 568.0615,613.5414 543.8834,614.8004 521.3455,614.5549 500,614.2842 478.6545,614.5549 456.1166,614.8004 431.9385,613.5414 406.8642,608.9618 382.7965,599.623 362.2864,585.0466 347.7314,565.947 340.5846,544.0276 340.8735,521.4227 347.2136,500 357.3158,480.7909 368.7983,463.7645 380.0012,448.0289 390.5,432.3771 401.1309,415.9612 413.5246,398.8303 429.3343,382.1142 449.4562,367.7759 473.5434,358.0158 500,354.5473 526.4566,358.0158" stroke="#e74c3c" stroke-width="1" fill="none" stroke-opacity="0.5"/>
  <polyline points="613.3126,500 612.3031,512.5672 609.2955,524.8928 604.352,536.7404 597.5743,547.8844 589.1018,558.1147 579.1076,567.2415 567.7947,575.099 555.3912,581.5494 542.1449,586.4847 528.3174,589.8297 514.1785,591.5422 500,591.614 486.0495,590.0701 472.5849,586.9675 459.8491,582.3929 448.065,576.4609 437.4315,569.3097 428.1195,561.0984 420.2698,552.0023 413.9906,542.2089 409.3567,531.9138 406.4093,521.3159 405.156,510.6135 405.5728,500 407.6052,489.6606 411.1714,479.7687 416.1646,470.4831 422.4567,461.9458 429.9019,454.2801 438.3403,447.5892 447.6012,441.9557 457.5078,437.4411 467.8795,434.086 478.536,431.911 489.3001,430.9172 500,431.0878 510.4719,432.3893 520.5617,434.7732 530.1266,438.1778 539.036,442.5296 547.1725,447.745 554.4326,453.7323 560.7264,460.3925 565.9784,467.6213 570.1267,475.3097 573.1238,483.3456 574.9356,491.6144" stroke="#e74c3c" stroke-width="1.5" fill="none" stroke-opacity="0.7"/>
  <polyline points="448.065,576.4609 437.4315,569.3097 428.1195,561.0984 420.2698,552.0023 413.9906,542.2089 409.3567,531.9138 406.4093,521.3159 405.156,510.6135 405.5728,500 407.6052,489.6606 411.1714,479.7687 416.1646,470.4831 422.4567,461.9458 429.9019,454.2801 438.3403,447.5892 447.6012,441.9557 457.5078,437.4411 467.8795,434.086 478.536,431.911 489.3001,430.9172 500,431.0878 510.4719,432.3893 520.5617,434.7732 530.1266,438.1778 539.036,442.5296 547.1725,447.745 554.4326,453.7323 560.7264,460.3925 565.9784,467.6213 570.1267,475.3097 573.1238,483.3456 574.9356,491.6144 575.5418,500 574.9356,508.3856 573.1238,516.6544 570.1267,524.6903 565.9784,532.3787 560.7264,539.6075 554.4326,546.2677 547.1725,552.255 539.036,557.4704 530.1266,561.8222 520.5617,565.2268 510.4719,567.6107 500,568.9122 489.3001,569.0828 478.536,568.089 467.8795,565.914" stroke="#f39c12" stroke-width="1.5" fill="none" stroke-opacity="0.7"/>
  <polyline points="457.5078,437.4411 467.8795,434.086 478.536,431.911 489.3001,430.9172 500,431.0878 510.4719,432.3893 520.5617,434.7732 530.1266,438.1778 539.036,442.5296 547.1725,447.745 554.4326,453.7323 560.7264,460.3925 565.9784,467.6213 570.1267,475.3097 573.1238,483.3456 574.9356,491.6144 575.5418,500 574.9356,508.3856 573.1238,516.6544 570.1267,524.6903 565.9784,532.3787 560.7264,539.6075 554.4326,546.2677 547.1725,552.255 539.036,557.4704 530.1266,561.8222 520.5617,565.2268 510.4719,567.6107 500,568.9122 489.3001,569.0828 478.536,568.089 467.8795,565.914 457.5078,562.5589 447.6012,558.0443 438.3403,552.4108 429.9019,545.7199 422.4567,538.0542 416.1646,529.5169 411.1714,520.2313 407.6052,510.3394 405.5728,500 405.156,489.3865 406.4093,478.6841 409.3567,468.0862 413.9906,457.7911 420.2698,447.9977 428.1195,438.9016 437.4315,430.6903" stroke="#8e44ad" stroke-width="1.5" fill="none" stroke-opacity="0.7"/>
  <g>
  <line x1="478.4925" y1="569.4258" x2="565.9823" y2="562.4929" stroke="#8B4513" stroke-width="1.2" stroke-opacity="0.7"/>
  <line x1="478.4925" y1="569.4258" x2="478.4925" y2="450.2526" stroke="#DC143C" stroke-width="1.2" stroke-opacity="0.7"/>
  <line x1="478.4925" y1="569.4258" x2="478.4925" y2="549.7474" stroke="#4169E1" stroke-width="1.2" stroke-opacity="0.7"/>
  <line x1="478.4925" y1="569.4258" x2="439.0708" y2="557.707" stroke="#228B22" stroke-width="1.2" stroke-opacity="0.7"/>
  <line x1="565.9823" y1="562.4929" x2="565.9823" y2="455.2204" stroke="#DC143C" stroke-width="1.2" stroke-opacity="0.7"/>
  <line x1="565.9823" y1="562.4929" x2="565.9823" y2="544.7796" stroke="#4169E1" stroke-width="1.2" stroke-opacity="0.7"/>
  <line x1="565.9823" y1="562.4929" x2="516.3678" y2="552.8349" stroke="#228B22" stroke-width="1.2" stroke-opacity="0.7"/>
  <line x1="478.4925" y1="450.2526" x2="565.9823" y2="455.2204" stroke="#8B4513" stroke-width="1.2" stroke-opacity="0.7"/>
  <line x1="478.4925" y1="450.2526" x2="478.4925" y2="430.5742" stroke="#4169E1" stroke-width="1.2" stroke-opacity="0.7"/>
  <line x1="478.4925" y1="450.2526" x2="439.0708" y2="458.6497" stroke="#228B22" stroke-width="1.2" stroke-opacity="0.7"/>
  <line x1="565.9823" y1="455.2204" x2="565.9823" y2="437.5071" stroke="#4169E1" stroke-width="1.2" stroke-opacity="0.7"/>
  <line x1="565.9823" y1="455.2204" x2="516.3678" y2="462.1409" stroke="#228B22" stroke-width="1.2" stroke-opacity="0.7"/>
  <line x1="478.4925" y1="549.7474" x2="565.9823" y2="544.7796" stroke="#8B4513" stroke-width="1.2" stroke-opacity="0.7"/>
  <line x1="478.4925" y1="549.7474" x2="478.4925" y2="430.5742" stroke="#DC143C" stroke-width="1.2" stroke-opacity="0.7"/>
  <line x1="478.4925" y1="549.7474" x2="439.0708" y2="541.3503" stroke="#228B22" stroke-width="1.2" stroke-opacity="0.7"/>
  <line x1="565.9823" y1="544.7796" x2="565.9823" y2="437.5071" stroke="#DC143C" stroke-width="1.2" stroke-opacity="0.7"/>
  <line x1="565.9823" y1="544.7796" x2="516.3678" y2="537.8591" stroke="#228B22" stroke-width="1.2" stroke-opacity="0.7"/>
  <line x1="478.4925" y1="430.5742" x2="565.9823" y2="437.5071" stroke="#8B4513" stroke-width="1.2" stroke-opacity="0.7"/>
  <line x1="478.4925" y1="430.5742" x2="439.0708" y2="442.293" stroke="#228B22" stroke-width="1.2" stroke-opacity="0.7"/>
  <line x1="565.9823" y1="437.5071" x2="516.3678" y2="447.1651" stroke="#228B22" stroke-width="1.2" stroke-opacity="0.7"/>
  <line x1="439.0708" y1="557.707" x2="516.3678" y2="552.8349" stroke="#8B4513" stroke-width="1.2" stroke-opacity="0.7"/>
  <line x1="439.0708" y1="557.707" x2="439.0708" y2="458.6497" stroke="#DC143C" stroke-width="1.2" stroke-opacity="0.7"/>
  <line x1="439.0708" y1="557.707" x2="439.0708" y2="541.3503" stroke="#4169E1" stroke-width="1.2" stroke-opacity="0.7"/>
  <line x1="516.3678" y1="552.8349" x2="516.3678" y2="462.1409" stroke="#DC143C" stroke-width="1.2" stroke-opacity="0.7"/>
  <line x1="516.3678" y1="552.8349" x2="516.3678" y2="537.8591" stroke="#4169E1" stroke-width="1.2" stroke-opacity="0.7"/>
  <line x1="439.0708" y1="458.6497" x2="516.3678" y2="462.1409" stroke="#8B4513" stroke-width="1.2" stroke-opacity="0.7"/>
  <line x1="439.0708" y1="458.6497" x2="439.0708" y2="442.293" stroke="#4169E1" stroke-width="1.2" stroke-opacity="0.7"/>
  <line x1="516.3678" y1="462.1409" x2="516.3678" y2="447.1651" stroke="#4169E1" stroke-width="1.2" stroke-opacity="0.7"/>
  <line x1="439.0708" y1="541.3503" x2="516.3678" y2="537.8591" stroke="#8B4513" stroke-width="1.2" stroke-opacity="0.7"/>
  <line x1="439.0708" y1="541.3503" x2="439.0708" y2="442.293" stroke="#DC143C" stroke-width="1.2" stroke-opacity="0.7"/>
  <line x1="516.3678" y1="537.8591" x2="516.3678" y2="447.1651" stroke="#DC143C" stroke-width="1.2" stroke-opacity="0.7"/>
  <line x1="439.0708" y1="442.293" x2="516.3678" y2="447.1651" stroke="#8B4513" stroke-width="1.2" stroke-opacity="0.7"/>
  <circle cx="478.4925" cy="569.4258" r="2.5" fill="#8B4513" stroke="#333" stroke-width="0.5"/>
  <circle cx="565.9823" cy="562.4929" r="2.5" fill="#DC143C" stroke="#333" stroke-width="0.5"/>
  <circle cx="478.4925" cy="450.2526" r="2.5" fill="#DC143C" stroke="#333" stroke-width="0.5"/>
  <circle cx="565.9823" cy="455.2204" r="2.5" fill="#4169E1" stroke="#333" stroke-width="0.5"/>
  <circle cx="478.4925" cy="549.7474" r="2.5" fill="#DC143C" stroke="#333" stroke-width="0.5"/>
  <circle cx="565.9823" cy="544.7796" r="2.5" fill="#4169E1" stroke="#333" stroke-width="0.5"/>
  <circle cx="478.4925" cy="430.5742" r="2.5" fill="#4169E1" stroke="#333" stroke-width="0.5"/>
  <circle cx="565.9823" cy="437.5071" r="2.5" fill="#228B22" stroke="#333" stroke-width="0.5"/>
  <circle cx="439.0708" cy="557.707" r="2.5" fill="#DC143C" stroke="#333" stroke-width="0.5"/>
  <circle cx="516.3678" cy="552.8349" r="2.5" fill="#4169E1" stroke="#333" stroke-width="0.5"/>
  <circle cx="439.0708" cy="458.6497" r="2.5" fill="#4169E1" stroke="#333" stroke-width="0.5"/>
  <circle cx="516.3678" cy="462.1409" r="2.5" fill="#228B22" stroke="#333" stroke-width="0.5"/>
  <circle cx="439.0708" cy="541.3503" r="2.5" fill="#4169E1" stroke="#333" stroke-width="0.5"/>
  <circle cx="516.3678" cy="537.8591" r="2.5" fill="#228B22" stroke="#333" stroke-width="0.5"/>
  <circle cx="439.0708" cy="442.293" r="2.5" fill="#228B22" stroke="#333" stroke-width="0.5"/>
  <circle cx="516.3678" cy="447.1651" r="2.5" fill="#8B4513" stroke="#333" stroke-width="0.5"/>
  <text x="490" y="573.3592" font-size="11" fill="#555" font-weight="bold">4D E4</text>
</g>
  <polyline points="587.5388,500 543.7694,456.2306 500,456.2306 478.1153,478.1153 478.1153,500 489.0576,510.9424 500,510.9424 505.4712,505.4712 505.4712,500 502.7356,497.2644 500,497.2644 498.6322,498.6322 498.6322,500 499.3161,500.6839 500,500.6839 500.3419,500.3419 500.3419,500 500.171,499.829 500,499.829 499.9145,499.9145" stroke="#9b59b6" stroke-width="1" fill="none" stroke-dasharray="2,2"/>
  <circle cx="500" cy="500" r="4" fill="#6c3483" stroke="#fff" stroke-width="1.5"/>
  <text x="905" y="504" font-size="8" fill="#9b59b6">12D W9 Crown</text>
  <text x="752.2136" y="504" font-size="8" fill="#4169e1">10D W7 Hepta</text>
  <text x="657.7864" y="504" font-size="8" fill="#2ecc71">8D W5 Penta</text>
  <text x="599.4272" y="504" font-size="8" fill="#e74c3c">6D W3 Mobius</text>
  <text x="563.3592" y="504" font-size="8" fill="#e67e22">4D E4 Tess</text>
</g>
</svg>