<svg xmlns="http://www.w3.org/2000/svg" width="800" height="800" viewBox="0 0 800 800">
  <rect x="0" y="0" width="800" height="800" fill="#0a0a1a"/>
  <g>
  <polyline points="640,400 647.1701,380.7066 650.8385,367.4014 649.736,363.9675 643.2942,370.7221 631.768,384.3138 616.1599,398.9472 597.9673,408.493 578.8202,408.7161 560.1056,398.8186 542.6718,381.7362 526.6876,363.0815 511.6862,349.1159 496.7742,344.4845 480.9445,350.5325 463.4027,364.8138 443.8186,381.9702 422.434,395.6635 400,400.8633 377.566,395.6635 356.1814,381.9702 336.5973,364.8138 319.0555,350.5325 303.2258,344.4845 288.3138,349.1159 273.3124,363.0815 257.3282,381.7362 239.8944,398.8186 221.1798,408.7161 202.0327,408.493 183.8401,398.9472 168.232,384.3138 156.7058,370.7221 150.264,363.9675 149.1615,367.4014 152.8299,380.7066 160,400 168.9967,419.2264 178.1307,432.3409 186.0916,435.4892 192.2418,428.3985 196.7403,414.4743 200.4677,399.5683 204.7743,389.8622 211.1189,389.6313 220.6944,399.697 234.1337,417.1266 251.3709,436.2891 271.6862,450.8841 293.9175,456.2119 316.7749,450.8624 339.1696,437.2139 360.4675,420.5618 380.5992,407.1933 400,402.1055 419.4008,407.1933 439.5325,420.5618 460.8304,437.2139 483.2251,450.8624 506.0825,456.2119 528.3138,450.8841 548.6291,436.2891 565.8663,417.1266 579.3056,399.697 588.8811,389.6313 595.2257,389.8622 599.5323,399.5683 603.2597,414.4743 607.7582,428.3985 613.9084,435.4892 621.8693,432.3409 631.0033,419.2264" stroke="#c0c0c0" stroke-width="1.2" fill="none" stroke-opacity="0.6"/>
  <circle cx="604" cy="400" r="7" fill="#c0c0c0" stroke="#333" stroke-width="0.5"/>
  <polyline points="537.9667,351.2282 522.3347,343.5891 507.4613,346.6622 492.3864,358.8997 476.132,375.5089 458.0159,390.1803 437.8679,397.3654 416.0887,394.2806 393.5417,381.9136 371.3083,364.6678 350.3809,348.774 331.3809,340.0432 314.3857,341.7716 298.9143,353.557 284.081,371.4504 268.8765,389.3901 252.5007,401.3964 234.6532,403.7341 215.7007,396.2591 196.6676,382.463 179.0456,368.1995 164.4664,359.5543 154.3199,360.6296 149.4139,372.0457 149.7671,390.7025 154.59,410.8888 162.4613,426.3376 171.6599,432.4854 180.5673,428.1175 188.0417,415.8051 193.669,400.9734 197.8309,389.9395 201.574,387.6265 206.3189,395.7814 213.485,412.3396 224.1294,432.1664 238.6916,448.9054 256.9061,457.2678 277.8994,454.9325 300.4383,443.3729 323.2584,427.3104 345.3804,412.9947 366.3276,405.9329 386.1881,408.8909 405.5084,420.8887 425.0513,437.5559 445.491,452.7156 467.1344,460.6265 489.7494,458.0692 512.5535,445.522 534.3699,427.0001 553.9102,408.6149 570.1099,396.3736 582.4207,394.0147 590.9799,401.6612 596.6023,415.7799 600.5919,430.4599 604.4163,439.5508 609.325,438.8863 616.0114,427.7905 624.4059,409.3229 633.6578,389.1752 642.3121,373.6171 648.6417,367.237 651.0501,371.2932 648.4448,383.2712 640.4884,397.808 627.666,408.6462 611.1536,410.9118 592.5258,402.8898 573.38,386.6548 554.9734,367.3278" stroke="#a0a0a0" stroke-width="1.2" fill="none" stroke-opacity="0.6"/>
  <circle cx="527.1919" cy="346.1709" r="6.5" fill="#a0a0a0" stroke="#333" stroke-width="0.5"/>
  <polyline points="344.7413,335.2963 326.3319,344.5445 309.843,361.1873 294.6557,379.4997 279.8164,393.2699 264.3418,398.0476 247.5487,392.7508 229.3175,380.0504 210.2121,365.3938 191.4168,355.0209 174.501,353.6924 161.0664,362.9514 152.3668,380.5496 148.9983,401.2462 150.7417,418.6913 156.6008,427.7133 165.0302,426.1828 174.2962,415.7787 182.8822,401.3791 189.8358,389.2954 194.9724,384.9892 198.8849,391.0945 202.762,406.4618 208.0635,426.5675 216.139,445.1415 227.8888,456.4236 243.5515,457.2336 262.6705,448.1059 284.239,433.0817 306.9802,418.232 329.6817,409.4497 351.4916,410.3083 372.0959,420.7636 391.7315,437.168 411.0356,453.5926 430.7773,463.9775 451.5513,464.3338 473.5213,454.1973 496.2917,436.8091 518.9447,417.9553 540.2387,403.8852 558.9153,399.0595 574.0316,404.543 585.2251,417.6228 592.8357,432.7904 597.8444,443.733 601.6395,445.6154 605.665,436.8266 611.0418,419.5622 618.2589,399.0319 627.0165,381.5791 636.2652,372.3944 644.4335,373.6484 649.79,383.7204 650.8476,397.7995 646.7114,409.6413 637.281,413.8427 623.2603,407.8111 605.9745,392.715 587.0443,373.0711 568.0039,355.1166 549.9598,344.5565 533.3776,344.4997 518.0459,354.3315 503.2201,369.9321 487.9004,385.1618 471.1642,394.0779 452.4596,393.0818 431.7809,382.2204 409.6793,365.1725 387.1095,347.9228 365.1596,336.606" stroke="#d4a574" stroke-width="1.2" fill="none" stroke-opacity="0.6"/>
  <circle cx="354.6057" cy="325.418" r="6" fill="#d4a574" stroke="#333" stroke-width="0.5"/>
  <polyline points="170.2429,369.8118 158.0572,390.5426 150.8543,409.5862 149.0051,421.2776 152.0558,422.62 158.8227,414.3628 167.666,400.7277 176.8734,387.8804 185.0589,381.6996 191.4766,385.6482 196.172,399.518 199.9343,419.4983 204.0671,439.5458 210.0375,453.5577 219.0973,457.5647 231.9721,451.1504 248.6971,437.5839 268.6366,422.6212 290.6739,412.4075 313.5165,411.2431 336.0287,420.0188 357.5009,435.8905 377.7826,453.3082 397.247,466.0288 416.5996,469.3822 436.5905,461.9719 457.7129,446.1925 479.977,427.3759 502.8265,411.8737 525.225,404.7694 545.8918,408.0453 563.626,419.8691 577.6285,435.2567 587.7329,447.8734 594.4765,452.3215 598.9871,446.0897 602.7079,430.4592 607.028,410.04 612.9139,391.1066 620.637,379.3348 629.6705,377.7589 638.7854,385.6878 646.3238,398.9709 650.5834,411.5169 650.216,417.5154 644.5406,413.5555 633.6948,399.8749 618.5861,380.286 600.6617,360.806 581.5566,347.4854 562.7134,344.2213 545.07,351.3465 528.8941,365.5063 513.8001,380.8679 498.9381,391.2271 483.2963,392.2505 466.0321,383.0437 446.7384,366.4784 425.5752,348.1606 403.2308,334.412 380.7291,329.995 359.1388,336.4023 339.2693,351.3286 321.443,369.5148 305.4087,384.6572 290.4258,391.691 275.4981,388.6216 259.6958,377.24 242.4748,362.4658 223.9064,350.554 204.7462,346.8168 186.3192,353.6852" stroke="#ffd700" stroke-width="1.2" fill="none" stroke-opacity="0.6"/>
  <circle cx="216.2024" cy="363.4887" r="7" fill="#ffd700" stroke="#333" stroke-width="0.5"/>
  <polyline points="197.2921,432.1304 201.0129,448.6093 205.5235,455.7839 212.2671,452.2948 222.3715,440.5657 236.374,425.9075 254.1082,414.5793 274.775,411.5104 297.1735,418.5055 320.023,433.5862 342.2871,451.7046 363.4095,466.5724 383.4004,472.9427 402.753,468.5176 422.2174,454.7916 442.4991,436.5231 463.9713,420.0245 486.4835,410.8881 509.3261,411.9696 531.3634,422.3575 551.3029,437.7029 568.0279,451.7891 580.9027,458.7756 589.9625,455.3056 595.9329,441.7155 600.0657,421.9115 603.828,401.9575 608.5234,387.8869 614.9411,383.5296 623.1266,389.1393 632.334,401.3186 641.1773,414.2664 647.9442,421.8956 650.9949,420.0544 649.1457,408.0456 641.9428,388.8938 629.7571,368.2626 613.6808,352.4139 595.2538,345.9466 576.0936,350.134 557.5252,362.4616 540.3042,377.5337 524.5019,389.0232 509.5742,391.9585 494.5913,384.5236 478.557,368.7195 460.7307,349.648 440.8612,333.6779 419.2709,326.1541 396.7692,329.4792 374.4248,342.2587 353.2616,359.8183 333.9679,375.9047 316.7037,384.9532 301.0619,384.102 286.1999,374.2232 271.1059,359.5989 254.93,346.3594 237.2866,340.2498 218.4434,344.5338 199.3383,358.7947 181.4139,379.0685 166.3052,399.2618 155.4594,413.3429 149.784,417.5139 149.4166,411.5781 153.6762,399.0072 161.2146,385.684 170.3295,377.7735 179.363,379.4915 187.0861,391.5763 192.972,411.0165" stroke="#ff4500" stroke-width="1.2" fill="none" stroke-opacity="0.6"/>
  <circle cx="216.2024" cy="439.8305" r="5" fill="#ff4500" stroke="#333" stroke-width="0.5"/>
  <polyline points="348.4487,474.7773 369.2227,473.5317 388.9644,462.2605 408.2685,445.0426 427.9041,428.0101 448.5084,417.1392 470.3183,416.0945 493.0198,424.9058 515.761,439.9553 537.3295,455.2825 556.4485,464.7332 572.1112,464.1782 583.861,453.0004 591.9365,434.3133 597.238,413.8337 601.1151,397.8167 605.0276,390.8014 610.1642,393.9807 617.1178,404.7864 625.7038,417.8376 634.9698,426.9076 643.3992,427.1976 649.2583,417.0924 651.0017,398.7623 647.6332,377.3922 638.9336,359.3162 625.499,349.7331 608.5832,350.8284 589.7879,360.9841 570.6825,375.3621 552.4513,387.6533 535.6582,392.3588 520.1836,386.7813 505.3443,372.0062 490.157,352.5179 473.6681,334.5901 455.2587,324.0317 434.8404,324.1028 412.8905,334.3521 390.3207,350.7963 368.2191,367.3734 347.5404,378.1445 328.8358,379.4457 312.0996,371.2115 296.7799,356.9915 281.9541,342.6546 266.6224,334.25 250.0402,335.8011 231.9961,347.8305 212.9557,367.1522 194.0255,388.0064 176.7397,404.129 162.719,411.0059 153.2886,407.4987 149.1524,396.2521 150.21,382.7354 155.5665,373.2634 163.7348,372.7113 172.9835,382.749 181.7411,401.2318 188.9582,422.9679 194.335,441.5839 198.3605,451.8142 202.1556,451.387 207.1643,441.8252 214.7749,427.8749 225.9684,415.7679 241.0847,410.9509 259.7613,416.1009 281.0553,430.1478 303.7083,448.6576 326.4787,465.4366" stroke="#4169e1" stroke-width="1.2" fill="none" stroke-opacity="0.6"/>
  <circle cx="354.6057" cy="496.9566" r="4.5" fill="#4169e1" stroke="#333" stroke-width="0.5"/>
  <polyline points="561.3084,463.9599 575.8706,446.877 586.515,426.3896 593.6811,408.8338 598.426,399.3557 602.1691,400.0603 606.331,409.2664 611.9583,422.1337 619.4327,432.4359 628.3401,434.8355 637.5387,426.8368 645.41,409.7083 650.2329,388.0413 650.5861,368.1019 645.6801,355.573 635.5336,353.5039 620.9544,361.209 603.3324,374.5159 584.2993,387.2737 565.3468,393.5787 547.4993,389.9123 531.1235,376.4199 515.919,356.868 501.0857,337.2958 485.6143,323.8473 468.6191,320.5681 449.6191,327.9615 428.6917,342.8255 406.4583,359.4265 383.9113,371.5856 362.1321,374.9197 341.9841,368.4283 323.868,354.8498 307.6136,339.6607 292.5387,329.0794 277.6653,327.7987 262.0333,337.2685 245.0266,355.1512 226.62,376.1491 207.4742,393.9053 188.8464,403.2902 172.334,402.2497 159.5116,392.5429 151.5552,379.1042 148.9499,368.2583 151.3583,365.4321 157.6879,373.191 166.3422,390.3064 175.5941,412.1928 183.9886,432.555 190.675,445.6489 195.5837,448.3407 199.4081,441.2178 203.3977,428.3541 209.0201,415.8139 217.5793,409.4381 229.8901,412.7143 246.0898,425.5038 265.6301,444.0838 287.4465,462.493 310.2506,474.6902 332.8656,476.7469 354.509,468.2778 374.9487,452.5908 394.4916,435.5007 413.8119,423.2344 433.6724,420.1834 454.6196,427.3171 476.7416,441.8294 499.5617,458.148 522.1006,469.9409 543.0939,472.3978" stroke="#696969" stroke-width="1.2" fill="none" stroke-opacity="0.6"/>
  <circle cx="527.1919" cy="483.7342" r="4" fill="#696969" stroke="#333" stroke-width="0.5"/>
  <line x1="400" y1="325" x2="432.5413" y2="467.5727" stroke="#c0c0c0" stroke-width="0.8"/>
  <line x1="458.6374" y1="353.2383" x2="367.4587" y2="467.5727" stroke="#c0c0c0" stroke-width="0.8"/>
  <line x1="473.1196" y1="416.6891" x2="326.8804" y2="416.6891" stroke="#c0c0c0" stroke-width="0.8"/>
  <line x1="432.5413" y1="467.5727" x2="341.3626" y2="353.2383" stroke="#c0c0c0" stroke-width="0.8"/>
  <line x1="367.4587" y1="467.5727" x2="400" y2="325" stroke="#c0c0c0" stroke-width="0.8"/>
  <line x1="326.8804" y1="416.6891" x2="458.6374" y2="353.2383" stroke="#c0c0c0" stroke-width="0.8"/>
  <line x1="341.3626" y1="353.2383" x2="473.1196" y2="416.6891" stroke="#c0c0c0" stroke-width="0.8"/>
  <text x="385" y="715" font-size="11" fill="#555" font-weight="bold">10D W7</text>
</g>
</svg>