<svg xmlns="http://www.w3.org/2000/svg" width="600" height="600" viewBox="0 0 600 600">
  <rect x="0" y="0" width="600" height="600" fill="#0a0a1a"/>
  <g>
  <polyline points="410.819,286.6506 406.6589,283.3647 401.3849,280.2556 395.0434,277.3601 387.6898,274.7135 379.3877,272.3493 370.2088,270.299 360.2331,268.5919 349.5478,267.2548 338.2479,266.3117 326.4348,265.7838 314.2167,265.6886 301.7073,266.0405 289.0256,266.8497 276.295,268.1225 263.6423,269.8608 251.1969,272.0619 239.0896,274.7183 227.4513,277.8175 216.4122,281.3422 206.0997,285.2696 196.6374,289.572 188.1436,294.2164 180.7296,299.165 174.4982,304.3752 169.5422,309.7997 165.9428,315.387 163.7681,321.0821 163.0721,326.8265 163.8931,332.5591 166.2529,338.2168 170.1556,343.7351 175.5874,349.0489 182.5155,354.0933 190.8887,358.8048 200.6367,363.1214 211.6709,366.9841 223.8849,370.3376 237.1554,373.1311 251.3434,375.319 266.2955,376.862 281.8459,377.7273 297.818,377.8897 314.0271,377.3319 330.2819,376.0448 346.388,374.028 362.1495,371.29 377.3724,367.848 391.8672,363.7284 405.451,358.9658 417.951,353.6033 429.2063,347.6918 439.0709,341.2894 447.415,334.4609 454.1282,327.2767 459.1199,319.8121 462.3218,312.1461 463.6881,304.3607 463.197,296.5396 460.8506,288.767 456.6752,281.1267" stroke="#e74c3c" stroke-width="1" stroke-opacity="0.8" fill="none"/>
  <polyline points="426.1044,284.8093 421.3462,280.1434 415.2766,275.6932 407.9586,271.5084 399.4674,267.636 389.8905,264.12 379.3265,261.0008 367.8841,258.3148 355.6815,256.0941 342.8448,254.3662 329.5074,253.1537 315.8082,252.4737 301.8906,252.3381 287.9011,252.7531 273.9878,253.7193 260.2989,255.2312 246.9813,257.2779 234.179,259.8423 222.0318,262.902 210.6735,266.429 200.2309,270.3898 190.8219,274.7463 182.5543,279.4554 175.525,284.4699 169.8181,289.7387 165.5042,295.2072 162.6396,300.8184 161.2654,306.5128 161.4065,312.2292 163.0717,317.9056 166.2529,323.4798 170.9253,328.8899 177.0474,334.075 184.5611,338.9761 193.3921,343.5368 203.4509,347.7035 214.6334,351.4269 226.8219,354.6617 239.8863,357.3678 253.6856,359.5107 268.0694,361.0616 282.8794,361.9983 297.9512,362.3053 313.1165,361.9741 328.2045,361.0032 343.0445,359.3984 357.4675,357.1728 371.3084,354.3465 384.4077,350.9466 396.6142,347.007 407.786,342.5678 417.7927,337.6749 426.5171,332.3798 433.8565,326.7388 439.7241,320.812 444.0498,314.6633 446.7819,308.3593 447.8867,301.9682 447.3499,295.5595 445.1763,289.2031 441.3898,282.968" stroke="#e74c3c" stroke-width="1" stroke-opacity="0.4" fill="none"/>
  <polyline points="441.3898,282.968 436.0334,276.922 429.1684,271.1307 420.8737,265.6566 411.245,260.5585 400.3934,255.8907 388.4442,251.7026 375.5352,248.0377 361.8151,244.9334 347.4417,242.4207 332.5799,240.5236 317.3996,239.2587 302.0739,238.6357 286.7766,238.6565 271.6806,239.316 256.9555,240.6016 242.7656,242.4938 229.2684,244.9663 216.6122,247.9865 204.9349,251.5158 194.3621,255.5101 185.0063,259.9207 176.9651,264.6945 170.3204,269.7748 165.1379,275.1021 161.4662,280.6148 159.3365,286.2499 158.7627,291.9434 159.7409,297.6318 162.2502,303.2521 166.2529,308.7429 171.6951,314.0447 178.5075,319.1011 186.6066,323.8589 195.8955,328.2687 206.2651,332.2857 217.5959,335.8697 229.7588,338.9858 242.6172,341.6046 256.0279,343.7023 269.8433,345.2612 283.9129,346.2693 298.0843,346.7209 312.2058,346.6163 326.1271,345.9615 339.7011,344.7688 352.7856,343.0556 365.2443,340.8449 376.9483,338.1649 387.7774,335.0483 397.621,331.5323 406.3791,327.6581 413.9634,323.4703 420.298,319.0166 425.32,314.3472 428.9798,309.5146 431.242,304.5725 432.0853,299.5757 431.5027,294.5795 429.5019,289.6392 426.1044,284.8093" stroke="#e74c3c" stroke-width="1" stroke-opacity="0.4" fill="none"/>
  <polyline points="456.6752,281.1267 450.7207,273.7007 443.0602,266.5683 433.7889,259.8049 423.0226,253.481 410.8963,247.6615 397.5619,242.4044 383.1862,237.7605 367.9487,233.7727 352.0386,230.4752 335.6524,227.8935 318.9911,226.0438 302.2571,224.9333 285.6521,224.5599 269.3734,224.9128 253.612,225.972 238.55,227.7098 224.3578,230.0903 211.1926,233.071 199.1962,236.6025 188.4934,240.6304 179.1908,245.0951 171.3758,249.9335 165.1158,255.0796 160.4577,260.4656 157.4282,266.0224 156.0334,271.6813 156.26,277.3741 158.0753,283.0345 161.4287,288.5986 166.2529,294.0059 172.4648,299.1995 179.9676,304.1272 188.6522,308.7417 198.3989,313.0007 209.0794,316.8679 220.5584,320.3125 232.6958,323.3099 245.348,325.8414 258.3701,327.894 271.6172,329.4608 284.9464,330.5403 298.2175,331.1365 311.2952,331.2584 324.0497,330.9199 336.3577,330.1392 348.1036,328.9384 359.1802,327.3433 369.4889,325.3831 378.9406,323.0895 387.456,320.4968 394.9655,317.6412 401.4097,314.5607 406.7395,311.2944 410.9159,307.8825 413.9097,304.3659 415.7021,300.7857 416.2838,297.1832 415.6556,293.5995 413.8275,290.0753 410.819,286.6506" stroke="#e74c3c" stroke-width="1" stroke-opacity="0.8" fill="none"/>
  <text x="471" y="304" font-size="10" fill="#e74c3c" font-weight="bold">Su</text>
  <polyline points="200.3723,268.9437 194.6775,275.6207 190.0716,282.5657 186.5996,289.722 184.2979,297.0306 183.1939,304.4311 183.3055,311.8615 184.641,319.2592 187.1987,326.5605 190.9668,333.7017 195.9228,340.6193 202.0337,347.2502 209.2555,353.5327 217.5333,359.4063 226.8013,364.8131 236.9829,369.6975 247.9906,374.0078 259.727,377.6956 272.0844,380.7176 284.9464,383.0354 298.1877,384.6166 311.6758,385.4351 325.2716,385.4717 338.8311,384.7148 352.2063,383.1604 365.247,380.8131 377.8025,377.6858 389.7234,373.8002 400.8631,369.1869 411.0803,363.885 420.2403,357.9423 428.2174,351.415 434.8967,344.3671 440.1758,336.8699 443.9666,329.0014 446.197,320.8455 446.8123,312.4908 445.7764,304.0301 443.0728,295.5588 438.7053,287.1741 432.6987,278.9733 425.0988,271.0531 415.9722,263.5077 405.4062,256.4277 393.5077,249.899 380.4022,244.0014 366.2326,238.8073 351.1575,234.3805 335.349,230.7758 318.9911,228.0374 302.2765,226.1987 285.4049,225.2811 268.5798,225.2945 252.0058,226.2363 235.8857,228.0915 220.418,230.833 205.7937,234.4221 192.1938,238.8083 179.7867,243.9309 168.7257,249.7189 159.1471,256.0928" stroke="#f39c12" stroke-width="1" stroke-opacity="0.8" fill="none"/>
  <polyline points="186.6306,264.6601 180.1743,271.4022 175.0092,278.458 171.19,285.7566 168.758,293.2244 167.7407,300.7863 168.151,308.3657 169.9876,315.8859 173.2348,323.2702 177.8624,330.4432 183.8259,337.3312 191.0671,343.863 199.5144,349.9706 209.0831,355.59 219.6769,360.6616 231.1879,365.1312 243.498,368.9504 256.4801,372.0769 269.9991,374.4756 283.9129,376.1183 298.0744,376.9848 312.3327,377.0626 326.5344,376.3475 340.5256,374.8435 354.1531,372.5631 367.2665,369.5271 379.7195,365.7645 391.3717,361.3123 402.09,356.2153 411.7507,350.5255 420.2403,344.3019 427.4573,337.6097 433.3136,330.5196 437.7351,323.1074 440.6635,315.4529 442.0563,307.6392 441.8883,299.7517 440.1515,291.8772 436.8557,284.1029 432.0283,276.5154 425.7146,269.1997 417.977,262.2381 408.8949,255.7095 398.5634,249.688 387.0928,244.2424 374.6072,239.4351 361.2431,235.3213 347.148,231.9485 332.4788,229.3556 317.3996,227.5726 302.0803,226.6203 286.6942,226.5095 271.4161,227.2413 256.42,228.8068 241.8775,231.1875 227.9551,234.3549 214.8125,238.2715 202.6007,242.8905 191.4599,248.1573 181.518,254.0091 172.8888,260.3765" stroke="#f39c12" stroke-width="1" stroke-opacity="0.4" fill="none"/>
  <polyline points="172.8888,260.3765 165.6711,267.1838 159.9468,274.3503 155.7804,281.7912 153.2181,289.4183 152.2874,297.1415 152.9964,304.8699 155.3342,312.5126 159.2709,319.9799 164.758,327.1847 171.729,334.0431 180.1006,340.4758 189.7732,346.4085 200.6329,351.7736 212.5524,356.5101 225.3928,360.5649 239.0054,363.893 253.2333,366.4582 267.9137,368.2335 282.8794,369.2012 297.9611,369.353 312.9896,368.6901 327.7972,367.2233 342.2201,364.9723 356.1,361.9659 369.2861,358.2412 381.6365,353.8432 393.02,348.8244 403.3169,343.2437 412.4211,337.1661 420.2403,330.6615 426.6973,323.8043 431.7305,316.672 435.2945,309.3448 437.3604,301.9044 437.9156,294.433 436.9643,287.0126 434.5266,279.7244 430.6385,272.647 425.3513,265.8567 418.7304,259.426 410.8553,253.4231 401.8175,247.9114 391.7206,242.9484 380.6779,238.5858 368.8121,234.8688 356.2535,231.8353 343.1385,229.5164 329.6085,227.9353 315.8082,227.1079 301.8841,227.0419 287.9835,227.7378 274.2523,229.188 260.8343,231.3774 247.8693,234.2835 235.4922,237.8768 223.8314,242.1208 213.0077,246.9728 203.1331,252.3837 194.3102,258.2993 186.6306,264.6601" stroke="#f39c12" stroke-width="1" stroke-opacity="0.4" fill="none"/>
  <polyline points="159.1471,256.0928 151.1679,262.9654 144.8844,270.2426 140.3708,277.8258 137.6782,285.6121 136.8341,293.4968 137.8419,301.3741 140.6809,309.1393 145.3071,316.6896 151.6536,323.9262 159.6321,330.755 169.134,337.0885 180.0321,342.8465 192.1827,347.9573 205.428,352.3587 219.5978,355.9986 234.5128,358.8356 249.9865,360.8395 265.8283,361.9915 281.8459,362.2841 297.8479,361.7211 313.6465,360.3176 329.06,358.099 343.9145,355.1011 358.0469,351.3686 371.3057,346.9552 383.5536,341.9219 394.6683,336.3365 404.5438,330.2721 413.0915,323.8066 420.2403,317.0211 425.9372,309.9989 430.1473,302.8245 432.8538,295.5823 434.0572,288.3558 433.7749,281.2267 432.0403,274.2736 428.9017,267.5715 424.4214,261.1911 418.6743,255.198 411.7463,249.6523 403.7335,244.6081 394.7402,240.1132 384.8777,236.2087 374.263,232.9292 363.0171,230.3025 351.264,228.3494 339.129,227.0843 326.7382,226.5151 314.2167,226.6431 301.6879,227.4636 289.2728,228.9662 277.0886,231.1347 265.2486,233.9479 253.8612,237.3795 243.0294,241.3987 232.8503,245.9702 223.4146,251.055 214.8064,256.6101 207.1025,262.5895 200.3723,268.9437" stroke="#f39c12" stroke-width="1" stroke-opacity="0.8" fill="none"/>
  <text x="202.5" y="210.9889" font-size="10" fill="#f39c12" font-weight="bold">Me</text>
  <polyline points="322.5088,373.3089 334.2901,372.3725 345.7281,370.6887 356.7159,368.2777 367.1497,365.1657 376.9294,361.3845 385.9589,356.9716 394.1474,351.9699 401.4097,346.428 407.667,340.3994 412.8476,333.9426 416.8878,327.1211 419.7325,320.0025 421.3363,312.6588 421.6639,305.1653 420.6911,297.6005 418.4052,290.0455 414.8063,282.5833 409.907,275.2977 403.7335,268.2733 396.3257,261.5937 387.7374,255.3414 378.0363,249.5963 367.3042,244.4349 355.6361,239.9291 343.1403,236.1456 329.9372,233.1444 316.1586,230.9779 301.9467,229.6902 287.4524,229.316 272.8342,229.88 258.256,231.3958 243.8856,233.8658 229.8927,237.2808 216.4464,241.619 203.7136,246.847 191.8559,252.9187 181.0282,259.7766 171.3758,267.3515 163.0327,275.5633 156.1189,284.3221 150.7393,293.5287 146.9808,303.0762 144.9119,312.8507 144.5804,322.7335 146.0129,332.6019 149.214,342.3313 154.1655,351.7967 160.8266,360.8745 169.134,369.4442 179.0024,377.39 190.3257,384.603 202.9776,390.9822 216.8138,396.4362 231.6735,400.885 247.3816,404.2607 263.7509,406.5086 280.5848,407.5886 297.6798,407.4752 314.8287,406.1583 331.8228,403.6436" stroke="#8e44ad" stroke-width="1" stroke-opacity="0.8" fill="none"/>
  <polyline points="325.6135,383.4205 339.0119,381.5657 351.9937,378.8324 364.4229,375.2512 376.1686,370.8612 387.107,365.7097 397.1219,359.852 406.1064,353.3503 413.9634,346.2738 420.6072,338.6976 425.9639,330.7023 429.9725,322.3729 432.5855,313.7985 433.7694,305.0709 433.5055,296.2841 431.7897,287.533 428.6331,278.9131 424.062,270.5188 418.1173,262.4427 410.8553,254.7749 402.346,247.6018 392.6738,241.0049 381.9357,235.0603 370.2412,229.8377 357.7109,225.3994 344.4756,221.7999 330.6748,219.0846 316.4555,217.29 301.9704,216.4424 287.3767,216.5581 272.8342,217.6425 258.5034,219.6904 244.5442,222.6858 231.1133,226.6017 218.3635,231.4004 206.4406,237.0341 195.483,243.4448 185.6188,250.5653 176.9651,258.3194 169.626,266.6233 163.6916,275.386 159.2365,284.5103 156.319,293.8944 154.98,303.4322 155.2426,313.0155 157.1116,322.5344 160.5733,331.8792 165.5953,340.9412 172.1272,349.6147 180.1006,357.7975 189.43,365.3928 200.0139,372.3099 211.7356,378.4659 224.4648,383.786 238.059,388.2053 252.365,391.6689 267.2212,394.133 282.459,395.5655 297.9051,395.946 313.3836,395.2667 328.7181,393.532" stroke="#8e44ad" stroke-width="1" stroke-opacity="0.4" fill="none"/>
  <polyline points="328.7181,393.532 343.7338,390.7588 358.2594,386.9761 372.1298,382.2246 385.1875,376.5566 397.2846,370.035 408.285,362.7323 418.0654,354.7306 426.5171,346.1195 433.5474,336.9958 439.0802,327.4619 443.0571,317.6248 445.4384,307.5945 446.2025,297.4831 445.3471,287.4029 442.8884,277.4656 438.8611,267.7807 433.3176,258.4542 426.3277,249.5877 417.977,241.2766 408.3664,233.6099 397.6102,226.6683 385.835,220.5243 373.1781,215.2405 359.7857,210.8697 345.8109,207.4541 331.4125,205.0249 316.7523,203.6021 301.9941,203.1947 287.301,203.8001 272.8342,205.405 258.7509,207.9851 245.2027,211.5057 232.334,215.9225 220.2805,221.1818 209.1677,227.2212 199.1101,233.9709 190.2094,241.3539 182.5543,249.2873 176.2194,257.6833 171.2643,266.4499 167.7338,275.4919 165.6572,284.7126 165.0481,294.0138 165.9048,303.2976 168.2103,312.467 171.9325,321.427 177.0251,330.0858 183.4278,338.3549 191.0671,346.1509 199.8576,353.3956 209.7021,360.0169 220.4937,365.9496 232.1159,371.1358 244.4445,375.5256 257.3485,379.0772 270.6915,381.7575 284.3332,383.5424 298.1304,384.4169 311.9386,384.3751 325.6135,383.4205" stroke="#8e44ad" stroke-width="1" stroke-opacity="0.4" fill="none"/>
  <polyline points="331.8228,403.6436 348.4556,399.952 364.5251,395.1198 379.8367,389.1981 394.2063,382.2521 407.4623,374.3602 419.4481,365.6127 430.0244,356.1109 439.0709,345.9652 446.4876,335.294 452.1964,324.2215 456.1418,312.8766 458.2913,301.3905 458.6356,289.8952 457.1887,278.5217 453.9871,267.3981 449.089,256.6482 442.5733,246.3897 434.538,236.7326 425.0988,227.7783 414.3868,219.618 402.5466,212.3318 389.7344,205.9883 376.1151,200.6433 361.8604,196.34 347.1462,193.1083 332.1501,190.9651 317.0492,189.9143 302.0178,189.9469 287.2253,191.0422 272.8342,193.1675 258.9984,196.2797 245.8613,200.3257 233.5547,205.2434 222.1975,210.9631 211.8948,217.4083 202.7372,224.497 194.8,232.1425 188.1436,240.2553 182.8127,248.7433 178.837,257.5137 176.2311,266.4736 174.9954,275.5308 175.1162,284.5953 176.567,293.5796 179.3089,302.3995 183.2918,310.9749 188.4549,319.2303 194.7284,327.0951 202.0337,334.5043 210.2851,341.3983 219.3904,347.7238 229.2518,353.4333 239.7669,358.4856 250.8299,362.8459 262.3319,366.4854 274.1618,369.3819 286.2074,371.5193 298.3557,372.8877 310.4936,373.4834 322.5088,373.3089" stroke="#8e44ad" stroke-width="1" stroke-opacity="0.8" fill="none"/>
  <text x="202.5" y="397.0111" font-size="10" fill="#8e44ad" font-weight="bold">Sa</text>
  <text x="296" y="130" font-size="14" fill="#333" font-weight="bold">+</text>
  <text x="296" y="480" font-size="14" fill="#999" font-weight="bold">-</text>
  <text x="285" y="515" font-size="11" fill="#555" font-weight="bold">6D W3</text>
</g>
</svg>