<svg xmlns="http://www.w3.org/2000/svg" width="500" height="500" viewBox="0 0 500 500">
  <rect x="0" y="0" width="500" height="500" fill="#0a0a1a"/>
  <g>
  <line x1="216.8317" y1="357.0666" x2="351.7561" y2="346.3748" stroke="#8B4513" stroke-width="1.2" stroke-opacity="0.7"/>
  <line x1="216.8317" y1="357.0666" x2="216.8317" y2="173.2809" stroke="#DC143C" stroke-width="1.2" stroke-opacity="0.7"/>
  <line x1="216.8317" y1="357.0666" x2="216.8317" y2="326.7191" stroke="#4169E1" stroke-width="1.2" stroke-opacity="0.7"/>
  <line x1="216.8317" y1="357.0666" x2="156.0366" y2="338.9942" stroke="#228B22" stroke-width="1.2" stroke-opacity="0.7"/>
  <line x1="351.7561" y1="346.3748" x2="351.7561" y2="180.9421" stroke="#DC143C" stroke-width="1.2" stroke-opacity="0.7"/>
  <line x1="351.7561" y1="346.3748" x2="351.7561" y2="319.0579" stroke="#4169E1" stroke-width="1.2" stroke-opacity="0.7"/>
  <line x1="351.7561" y1="346.3748" x2="275.242" y2="331.4806" stroke="#228B22" stroke-width="1.2" stroke-opacity="0.7"/>
  <line x1="216.8317" y1="173.2809" x2="351.7561" y2="180.9421" stroke="#8B4513" stroke-width="1.2" stroke-opacity="0.7"/>
  <line x1="216.8317" y1="173.2809" x2="216.8317" y2="142.9334" stroke="#4169E1" stroke-width="1.2" stroke-opacity="0.7"/>
  <line x1="216.8317" y1="173.2809" x2="156.0366" y2="186.2307" stroke="#228B22" stroke-width="1.2" stroke-opacity="0.7"/>
  <line x1="351.7561" y1="180.9421" x2="351.7561" y2="153.6252" stroke="#4169E1" stroke-width="1.2" stroke-opacity="0.7"/>
  <line x1="351.7561" y1="180.9421" x2="275.242" y2="191.6146" stroke="#228B22" stroke-width="1.2" stroke-opacity="0.7"/>
  <line x1="216.8317" y1="326.7191" x2="351.7561" y2="319.0579" stroke="#8B4513" stroke-width="1.2" stroke-opacity="0.7"/>
  <line x1="216.8317" y1="326.7191" x2="216.8317" y2="142.9334" stroke="#DC143C" stroke-width="1.2" stroke-opacity="0.7"/>
  <line x1="216.8317" y1="326.7191" x2="156.0366" y2="313.7693" stroke="#228B22" stroke-width="1.2" stroke-opacity="0.7"/>
  <line x1="351.7561" y1="319.0579" x2="351.7561" y2="153.6252" stroke="#DC143C" stroke-width="1.2" stroke-opacity="0.7"/>
  <line x1="351.7561" y1="319.0579" x2="275.242" y2="308.3854" stroke="#228B22" stroke-width="1.2" stroke-opacity="0.7"/>
  <line x1="216.8317" y1="142.9334" x2="351.7561" y2="153.6252" stroke="#8B4513" stroke-width="1.2" stroke-opacity="0.7"/>
  <line x1="216.8317" y1="142.9334" x2="156.0366" y2="161.0058" stroke="#228B22" stroke-width="1.2" stroke-opacity="0.7"/>
  <line x1="351.7561" y1="153.6252" x2="275.242" y2="168.5194" stroke="#228B22" stroke-width="1.2" stroke-opacity="0.7"/>
  <line x1="156.0366" y1="338.9942" x2="275.242" y2="331.4806" stroke="#8B4513" stroke-width="1.2" stroke-opacity="0.7"/>
  <line x1="156.0366" y1="338.9942" x2="156.0366" y2="186.2307" stroke="#DC143C" stroke-width="1.2" stroke-opacity="0.7"/>
  <line x1="156.0366" y1="338.9942" x2="156.0366" y2="313.7693" stroke="#4169E1" stroke-width="1.2" stroke-opacity="0.7"/>
  <line x1="275.242" y1="331.4806" x2="275.242" y2="191.6146" stroke="#DC143C" stroke-width="1.2" stroke-opacity="0.7"/>
  <line x1="275.242" y1="331.4806" x2="275.242" y2="308.3854" stroke="#4169E1" stroke-width="1.2" stroke-opacity="0.7"/>
  <line x1="156.0366" y1="186.2307" x2="275.242" y2="191.6146" stroke="#8B4513" stroke-width="1.2" stroke-opacity="0.7"/>
  <line x1="156.0366" y1="186.2307" x2="156.0366" y2="161.0058" stroke="#4169E1" stroke-width="1.2" stroke-opacity="0.7"/>
  <line x1="275.242" y1="191.6146" x2="275.242" y2="168.5194" stroke="#4169E1" stroke-width="1.2" stroke-opacity="0.7"/>
  <line x1="156.0366" y1="313.7693" x2="275.242" y2="308.3854" stroke="#8B4513" stroke-width="1.2" stroke-opacity="0.7"/>
  <line x1="156.0366" y1="313.7693" x2="156.0366" y2="161.0058" stroke="#DC143C" stroke-width="1.2" stroke-opacity="0.7"/>
  <line x1="275.242" y1="308.3854" x2="275.242" y2="168.5194" stroke="#DC143C" stroke-width="1.2" stroke-opacity="0.7"/>
  <line x1="156.0366" y1="161.0058" x2="275.242" y2="168.5194" stroke="#8B4513" stroke-width="1.2" stroke-opacity="0.7"/>
  <circle cx="216.8317" cy="357.0666" r="2.5" fill="#8B4513" stroke="#333" stroke-width="0.5"/>
  <circle cx="351.7561" cy="346.3748" r="2.5" fill="#DC143C" stroke="#333" stroke-width="0.5"/>
  <circle cx="216.8317" cy="173.2809" r="2.5" fill="#DC143C" stroke="#333" stroke-width="0.5"/>
  <circle cx="351.7561" cy="180.9421" r="2.5" fill="#4169E1" stroke="#333" stroke-width="0.5"/>
  <circle cx="216.8317" cy="326.7191" r="2.5" fill="#DC143C" stroke="#333" stroke-width="0.5"/>
  <circle cx="351.7561" cy="319.0579" r="2.5" fill="#4169E1" stroke="#333" stroke-width="0.5"/>
  <circle cx="216.8317" cy="142.9334" r="2.5" fill="#4169E1" stroke="#333" stroke-width="0.5"/>
  <circle cx="351.7561" cy="153.6252" r="2.5" fill="#228B22" stroke="#333" stroke-width="0.5"/>
  <circle cx="156.0366" cy="338.9942" r="2.5" fill="#DC143C" stroke="#333" stroke-width="0.5"/>
  <circle cx="275.242" cy="331.4806" r="2.5" fill="#4169E1" stroke="#333" stroke-width="0.5"/>
  <circle cx="156.0366" cy="186.2307" r="2.5" fill="#4169E1" stroke="#333" stroke-width="0.5"/>
  <circle cx="275.242" cy="191.6146" r="2.5" fill="#228B22" stroke="#333" stroke-width="0.5"/>
  <circle cx="156.0366" cy="313.7693" r="2.5" fill="#4169E1" stroke="#333" stroke-width="0.5"/>
  <circle cx="275.242" cy="308.3854" r="2.5" fill="#228B22" stroke="#333" stroke-width="0.5"/>
  <circle cx="156.0366" cy="161.0058" r="2.5" fill="#228B22" stroke="#333" stroke-width="0.5"/>
  <circle cx="275.242" cy="168.5194" r="2.5" fill="#8B4513" stroke="#333" stroke-width="0.5"/>
  <text x="240" y="355" font-size="11" fill="#555" font-weight="bold">4D E4</text>
</g>
</svg>