<svg xmlns="http://www.w3.org/2000/svg" width="700" height="700" viewBox="0 0 700 700">
  <rect x="0" y="0" width="700" height="700" fill="#0a0a1a"/>
  <g>
  <circle cx="365" cy="350" r="150" stroke="#ddd" stroke-width="0.5" fill="none"/>
  <circle cx="342.5" cy="362.9904" r="150" stroke="#ddd" stroke-width="0.5" fill="none"/>
  <circle cx="342.5" cy="337.0096" r="150" stroke="#ddd" stroke-width="0.5" fill="none"/>
  <polyline points="537.5,350 545.1163,326.027 549.5729,306.4384 549.9631,294.9744 545.7257,293.2221 536.7367,300.2267 523.3306,312.7845 506.2489,326.3367 486.5237,336.2172 465.3182,338.9196 443.75,333.039 422.7281,319.6393 402.8322,301.9482 384.2527,284.4655 366.8031,271.7294 350,267.0763 333.1969,271.7294 315.7473,284.4655 297.1678,301.9482 277.2719,319.6393 256.25,333.039 234.6818,338.9196 213.4763,336.2172 193.7511,326.3367 176.6694,312.7845 163.2633,300.2267 154.2743,293.2221 150.0369,294.9744 150.4271,306.4384 154.8837,326.027 162.5,350 172.1706,373.436 182.7675,391.5301 193.3169,400.8699 203.1462,400.3476 211.9772,391.4618 219.9493,377.9229 227.5696,364.6647 235.5997,356.5217 244.8988,356.9247 256.25,366.961 270.2019,385.0534 286.9508,407.3444 306.2858,428.689 327.6049,443.9934 350,449.5467 372.3951,443.9934 393.7142,428.689 413.0492,407.3444 429.7981,385.0534 443.75,366.961 455.1012,356.9247 464.4003,356.5217 472.4304,364.6647 480.0507,377.9229 488.0228,391.4618 496.8538,400.3476 506.6831,400.8699 517.2325,391.5301 527.8294,373.436" stroke="#e67e22" stroke-width="1.5" fill="none" stroke-opacity="0.7"/>
  <circle cx="509.375" cy="350" r="5" fill="#e67e22" stroke="#333" stroke-width="0.8"/>
  <text x="517.375" y="354" font-size="8" fill="#555">Tiger</text>
  <polyline points="402.8322,267.8765 384.2527,267.3358 366.8031,276.1317 350,291.8309 333.1969,310.2034 315.7473,326.3497 297.1678,336.0199 277.2719,336.769 256.25,328.6368 234.6818,314.165 213.4763,297.7433 193.7511,284.4524 176.6694,278.7128 163.2633,283.097 154.2743,297.6243 150.0369,319.7289 150.4271,344.9123 154.8837,367.9113 162.5,384.0717 172.1706,390.5657 182.7675,387.1279 193.3169,376.1153 203.1462,361.8737 211.9772,349.5776 219.9493,343.8512 227.5696,347.535 235.5997,360.9239 244.8988,381.6792 256.25,405.435 270.2019,426.9376 286.9508,441.4161 306.2858,445.8187 327.6049,439.5912 350,424.7921 372.3951,405.5194 393.7142,386.8047 413.0492,373.2726 429.7981,367.9237 443.75,371.3632 455.1012,381.6792 464.4003,394.9956 472.4304,406.5489 480.0507,411.9946 488.0228,408.5915 496.8538,395.9454 506.6831,376.1153 517.2325,353.0562 527.8294,331.5518 537.5,315.9283 545.1163,308.8973 549.5729,310.8406 549.9631,319.7289 545.7257,331.696 536.7367,342.1109 523.3306,346.8562 506.2489,343.4664 486.5237,331.815 465.3182,314.165 443.75,294.565 422.7281,277.7551" stroke="#95a5a6" stroke-width="1.5" fill="none" stroke-opacity="0.7"/>
  <circle cx="399.2496" cy="243.8978" r="5" fill="#95a5a6" stroke="#333" stroke-width="0.8"/>
  <text x="407.2496" y="247.8978" font-size="8" fill="#555">Crane</text>
  <polyline points="176.6694,291.727 163.2633,314.3945 154.2743,338.819 150.0369,359.7826 150.4271,373.0927 154.8837,376.6675 162.5,371.0575 172.1706,359.2682 182.7675,345.9333 193.3169,336.0616 203.1462,333.6933 211.9772,340.8214 219.9493,356.8655 227.5696,378.8325 235.5997,402.1185 244.8988,421.7329 256.25,433.6154 270.2019,435.6938 286.9508,428.4018 306.2858,414.5212 327.6049,398.3965 350,384.7384 372.3951,377.339 393.7142,378.0485 413.0492,386.2869 429.7981,399.2212 443.75,412.5579 455.1012,421.7329 464.4003,423.176 472.4304,415.3051 480.0507,398.9804 488.0228,377.294 496.8538,354.7508 506.6831,336.0616 517.2325,324.8758 527.8294,322.7956 537.5,328.9425 545.1163,340.1949 549.5729,352.0353 549.9631,359.7826 545.7257,359.8764 536.7367,350.8671 523.3306,333.842 506.2489,312.1689 486.5237,290.6204 465.3182,274.1113 443.75,266.3846 422.7281,268.9989 402.8322,280.8907 384.2527,298.6333 366.8031,317.3263 350,331.8846 333.1969,338.3838 315.7473,335.1059 297.1678,323.0057 277.2719,305.4715 256.25,287.4421 234.6818,274.1113 213.4763,269.5629 193.7511,275.6962" stroke="#f1c40f" stroke-width="1.5" fill="none" stroke-opacity="0.7"/>
  <circle cx="221.0629" cy="284.4252" r="5" fill="#f1c40f" stroke="#333" stroke-width="0.8"/>
  <text x="229.0629" y="288.4252" font-size="8" fill="#555">Leopard</text>
  <polyline points="219.9493,398.9804 227.5696,415.3051 235.5997,423.176 244.8988,421.7329 256.25,412.5579 270.2019,399.2212 286.9508,386.2869 306.2858,378.0485 327.6049,377.339 350,384.7384 372.3951,398.3965 393.7142,414.5212 413.0492,428.4018 429.7981,435.6938 443.75,433.6154 455.1012,421.7329 464.4003,402.1185 472.4304,378.8325 480.0507,356.8655 488.0228,340.8214 496.8538,333.6933 506.6831,336.0616 517.2325,345.9333 527.8294,359.2682 537.5,371.0575 545.1163,376.6675 549.5729,373.0927 549.9631,359.7826 545.7257,338.819 536.7367,314.3945 523.3306,291.727 506.2489,275.6962 486.5237,269.5629 465.3182,274.1113 443.75,287.4421 422.7281,305.4715 402.8322,323.0057 384.2527,335.1059 366.8031,338.3838 350,331.8846 333.1969,317.3263 315.7473,298.6333 297.1678,280.8907 277.2719,268.9989 256.25,266.3846 234.6818,274.1113 213.4763,290.6204 193.7511,312.1689 176.6694,333.842 163.2633,350.8671 154.2743,359.8764 150.0369,359.7826 150.4271,352.0353 154.8837,340.1949 162.5,328.9425 172.1706,322.7956 182.7675,324.8758 193.3169,336.0616 203.1462,354.7508 211.9772,377.294" stroke="#2ecc71" stroke-width="1.5" fill="none" stroke-opacity="0.7"/>
  <circle cx="221.0629" cy="415.5748" r="5" fill="#2ecc71" stroke="#333" stroke-width="0.8"/>
  <text x="229.0629" y="419.5748" font-size="8" fill="#555">Snake</text>
  <polyline points="413.0492,441.4161 429.7981,426.9376 443.75,405.435 455.1012,381.6792 464.4003,360.9239 472.4304,347.535 480.0507,343.8512 488.0228,349.5776 496.8538,361.8737 506.6831,376.1153 517.2325,387.1279 527.8294,390.5657 537.5,384.0717 545.1163,367.9113 549.5729,344.9123 549.9631,319.7289 545.7257,297.6243 536.7367,283.097 523.3306,278.7128 506.2489,284.4524 486.5237,297.7433 465.3182,314.165 443.75,328.6368 422.7281,336.769 402.8322,336.0199 384.2527,326.3497 366.8031,310.2034 350,291.8309 333.1969,276.1317 315.7473,267.3358 297.1678,267.8765 277.2719,277.7551 256.25,294.565 234.6818,314.165 213.4763,331.815 193.7511,343.4664 176.6694,346.8562 163.2633,342.1109 154.2743,331.696 150.0369,319.7289 150.4271,310.8406 154.8837,308.8973 162.5,315.9283 172.1706,331.5518 182.7675,353.0562 193.3169,376.1153 203.1462,395.9454 211.9772,408.5915 219.9493,411.9946 227.5696,406.5489 235.5997,394.9956 244.8988,381.6792 256.25,371.3632 270.2019,367.9237 286.9508,373.2726 306.2858,386.8047 327.6049,405.5194 350,424.7921 372.3951,439.5912 393.7142,445.8187" stroke="#e74c3c" stroke-width="1.5" fill="none" stroke-opacity="0.7"/>
  <circle cx="399.2496" cy="456.1022" r="5" fill="#e74c3c" stroke="#333" stroke-width="0.8"/>
  <text x="407.2496" y="460.1022" font-size="8" fill="#555">Dragon</text>
  <line x1="462.5" y1="350" x2="384.7644" y2="275.1043" stroke="#bbb" stroke-width="0.8" stroke-dasharray="3,3"/>
  <line x1="384.7644" y1="275.1043" x2="258.9856" y2="303.7119" stroke="#bbb" stroke-width="0.8" stroke-dasharray="3,3"/>
  <line x1="258.9856" y1="303.7119" x2="258.9856" y2="396.2881" stroke="#bbb" stroke-width="0.8" stroke-dasharray="3,3"/>
  <line x1="258.9856" y1="396.2881" x2="384.7644" y2="424.8957" stroke="#bbb" stroke-width="0.8" stroke-dasharray="3,3"/>
  <line x1="384.7644" y1="424.8957" x2="462.5" y2="350" stroke="#bbb" stroke-width="0.8" stroke-dasharray="3,3"/>
  <text x="335" y="615" font-size="11" fill="#555" font-weight="bold">8D W5</text>
</g>
</svg>