<svg xmlns="http://www.w3.org/2000/svg" width="800" height="800" viewBox="0 0 800 800">
  <g>
  <polygon points="512,388 641.9038,613 382.0962,613" fill="none" stroke="#333" stroke-width="1.5"/>
  <polygon points="512,425.5 609.4279,594.25 414.5721,594.25" fill="none" stroke="#333" stroke-width="1.5"/>
  <polygon points="512,463 576.9519,575.5 447.0481,575.5" fill="none" stroke="#333" stroke-width="1.5"/>
  <polygon points="512,493 550.9711,560.5 473.0289,560.5" fill="none" stroke="#333" stroke-width="1.5"/>
  <polygon points="512,680.5 388.5914,466.75 635.4086,466.75" fill="none" stroke="#333" stroke-width="1.5"/>
  <polygon points="512,643 421.0673,485.5 602.9327,485.5" fill="none" stroke="#333" stroke-width="1.5"/>
  <polygon points="512,610 449.6462,502 574.3538,502" fill="none" stroke="#333" stroke-width="1.5"/>
  <polygon points="512,580 475.6269,517 548.3731,517" fill="none" stroke="#333" stroke-width="1.5"/>
  <polygon points="512,560.5 492.5144,526.75 531.4856,526.75" fill="none" stroke="#333" stroke-width="1.5"/>
</g>
  <g opacity="0.61">
  <g>
  <line x1="488" y1="298" x2="557" y2="298" stroke="#999" stroke-width="0.5"/>
  <line x1="488" y1="298" x2="522.5" y2="357.7558" stroke="#999" stroke-width="0.5"/>
  <line x1="488" y1="298" x2="453.5" y2="357.7558" stroke="#999" stroke-width="0.5"/>
  <line x1="488" y1="298" x2="419" y2="298" stroke="#999" stroke-width="0.5"/>
  <line x1="488" y1="298" x2="453.5" y2="238.2442" stroke="#999" stroke-width="0.5"/>
  <line x1="488" y1="298" x2="522.5" y2="238.2442" stroke="#999" stroke-width="0.5"/>
  <line x1="488" y1="298" x2="607.5115" y2="367" stroke="#999" stroke-width="0.5"/>
  <line x1="488" y1="298" x2="488" y2="436" stroke="#999" stroke-width="0.5"/>
  <line x1="488" y1="298" x2="368.4885" y2="367" stroke="#999" stroke-width="0.5"/>
  <line x1="488" y1="298" x2="368.4885" y2="229" stroke="#999" stroke-width="0.5"/>
  <line x1="488" y1="298" x2="488" y2="160" stroke="#999" stroke-width="0.5"/>
  <line x1="488" y1="298" x2="607.5115" y2="229" stroke="#999" stroke-width="0.5"/>
  <line x1="557" y1="298" x2="522.5" y2="357.7558" stroke="#999" stroke-width="0.5"/>
  <line x1="557" y1="298" x2="453.5" y2="357.7558" stroke="#999" stroke-width="0.5"/>
  <line x1="557" y1="298" x2="419" y2="298" stroke="#999" stroke-width="0.5"/>
  <line x1="557" y1="298" x2="453.5" y2="238.2442" stroke="#999" stroke-width="0.5"/>
  <line x1="557" y1="298" x2="522.5" y2="238.2442" stroke="#999" stroke-width="0.5"/>
  <line x1="557" y1="298" x2="607.5115" y2="367" stroke="#999" stroke-width="0.5"/>
  <line x1="557" y1="298" x2="488" y2="436" stroke="#999" stroke-width="0.5"/>
  <line x1="557" y1="298" x2="368.4885" y2="367" stroke="#999" stroke-width="0.5"/>
  <line x1="557" y1="298" x2="368.4885" y2="229" stroke="#999" stroke-width="0.5"/>
  <line x1="557" y1="298" x2="488" y2="160" stroke="#999" stroke-width="0.5"/>
  <line x1="557" y1="298" x2="607.5115" y2="229" stroke="#999" stroke-width="0.5"/>
  <line x1="522.5" y1="357.7558" x2="453.5" y2="357.7558" stroke="#999" stroke-width="0.5"/>
  <line x1="522.5" y1="357.7558" x2="419" y2="298" stroke="#999" stroke-width="0.5"/>
  <line x1="522.5" y1="357.7558" x2="453.5" y2="238.2442" stroke="#999" stroke-width="0.5"/>
  <line x1="522.5" y1="357.7558" x2="522.5" y2="238.2442" stroke="#999" stroke-width="0.5"/>
  <line x1="522.5" y1="357.7558" x2="607.5115" y2="367" stroke="#999" stroke-width="0.5"/>
  <line x1="522.5" y1="357.7558" x2="488" y2="436" stroke="#999" stroke-width="0.5"/>
  <line x1="522.5" y1="357.7558" x2="368.4885" y2="367" stroke="#999" stroke-width="0.5"/>
  <line x1="522.5" y1="357.7558" x2="368.4885" y2="229" stroke="#999" stroke-width="0.5"/>
  <line x1="522.5" y1="357.7558" x2="488" y2="160" stroke="#999" stroke-width="0.5"/>
  <line x1="522.5" y1="357.7558" x2="607.5115" y2="229" stroke="#999" stroke-width="0.5"/>
  <line x1="453.5" y1="357.7558" x2="419" y2="298" stroke="#999" stroke-width="0.5"/>
  <line x1="453.5" y1="357.7558" x2="453.5" y2="238.2442" stroke="#999" stroke-width="0.5"/>
  <line x1="453.5" y1="357.7558" x2="522.5" y2="238.2442" stroke="#999" stroke-width="0.5"/>
  <line x1="453.5" y1="357.7558" x2="607.5115" y2="367" stroke="#999" stroke-width="0.5"/>
  <line x1="453.5" y1="357.7558" x2="488" y2="436" stroke="#999" stroke-width="0.5"/>
  <line x1="453.5" y1="357.7558" x2="368.4885" y2="367" stroke="#999" stroke-width="0.5"/>
  <line x1="453.5" y1="357.7558" x2="368.4885" y2="229" stroke="#999" stroke-width="0.5"/>
  <line x1="453.5" y1="357.7558" x2="488" y2="160" stroke="#999" stroke-width="0.5"/>
  <line x1="453.5" y1="357.7558" x2="607.5115" y2="229" stroke="#999" stroke-width="0.5"/>
  <line x1="419" y1="298" x2="453.5" y2="238.2442" stroke="#999" stroke-width="0.5"/>
  <line x1="419" y1="298" x2="522.5" y2="238.2442" stroke="#999" stroke-width="0.5"/>
  <line x1="419" y1="298" x2="607.5115" y2="367" stroke="#999" stroke-width="0.5"/>
  <line x1="419" y1="298" x2="488" y2="436" stroke="#999" stroke-width="0.5"/>
  <line x1="419" y1="298" x2="368.4885" y2="367" stroke="#999" stroke-width="0.5"/>
  <line x1="419" y1="298" x2="368.4885" y2="229" stroke="#999" stroke-width="0.5"/>
  <line x1="419" y1="298" x2="488" y2="160" stroke="#999" stroke-width="0.5"/>
  <line x1="419" y1="298" x2="607.5115" y2="229" stroke="#999" stroke-width="0.5"/>
  <line x1="453.5" y1="238.2442" x2="522.5" y2="238.2442" stroke="#999" stroke-width="0.5"/>
  <line x1="453.5" y1="238.2442" x2="607.5115" y2="367" stroke="#999" stroke-width="0.5"/>
  <line x1="453.5" y1="238.2442" x2="488" y2="436" stroke="#999" stroke-width="0.5"/>
  <line x1="453.5" y1="238.2442" x2="368.4885" y2="367" stroke="#999" stroke-width="0.5"/>
  <line x1="453.5" y1="238.2442" x2="368.4885" y2="229" stroke="#999" stroke-width="0.5"/>
  <line x1="453.5" y1="238.2442" x2="488" y2="160" stroke="#999" stroke-width="0.5"/>
  <line x1="453.5" y1="238.2442" x2="607.5115" y2="229" stroke="#999" stroke-width="0.5"/>
  <line x1="522.5" y1="238.2442" x2="607.5115" y2="367" stroke="#999" stroke-width="0.5"/>
  <line x1="522.5" y1="238.2442" x2="488" y2="436" stroke="#999" stroke-width="0.5"/>
  <line x1="522.5" y1="238.2442" x2="368.4885" y2="367" stroke="#999" stroke-width="0.5"/>
  <line x1="522.5" y1="238.2442" x2="368.4885" y2="229" stroke="#999" stroke-width="0.5"/>
  <line x1="522.5" y1="238.2442" x2="488" y2="160" stroke="#999" stroke-width="0.5"/>
  <line x1="522.5" y1="238.2442" x2="607.5115" y2="229" stroke="#999" stroke-width="0.5"/>
  <line x1="607.5115" y1="367" x2="488" y2="436" stroke="#999" stroke-width="0.5"/>
  <line x1="607.5115" y1="367" x2="368.4885" y2="367" stroke="#999" stroke-width="0.5"/>
  <line x1="607.5115" y1="367" x2="368.4885" y2="229" stroke="#999" stroke-width="0.5"/>
  <line x1="607.5115" y1="367" x2="488" y2="160" stroke="#999" stroke-width="0.5"/>
  <line x1="607.5115" y1="367" x2="607.5115" y2="229" stroke="#999" stroke-width="0.5"/>
  <line x1="488" y1="436" x2="368.4885" y2="367" stroke="#999" stroke-width="0.5"/>
  <line x1="488" y1="436" x2="368.4885" y2="229" stroke="#999" stroke-width="0.5"/>
  <line x1="488" y1="436" x2="488" y2="160" stroke="#999" stroke-width="0.5"/>
  <line x1="488" y1="436" x2="607.5115" y2="229" stroke="#999" stroke-width="0.5"/>
  <line x1="368.4885" y1="367" x2="368.4885" y2="229" stroke="#999" stroke-width="0.5"/>
  <line x1="368.4885" y1="367" x2="488" y2="160" stroke="#999" stroke-width="0.5"/>
  <line x1="368.4885" y1="367" x2="607.5115" y2="229" stroke="#999" stroke-width="0.5"/>
  <line x1="368.4885" y1="229" x2="488" y2="160" stroke="#999" stroke-width="0.5"/>
  <line x1="368.4885" y1="229" x2="607.5115" y2="229" stroke="#999" stroke-width="0.5"/>
  <line x1="488" y1="160" x2="607.5115" y2="229" stroke="#999" stroke-width="0.5"/>
  <circle cx="488" cy="298" r="10.35" fill="none" stroke="#333" stroke-width="1"/>
  <circle cx="557" cy="298" r="10.35" fill="none" stroke="#333" stroke-width="1"/>
  <circle cx="522.5" cy="357.7558" r="10.35" fill="none" stroke="#333" stroke-width="1"/>
  <circle cx="453.5" cy="357.7558" r="10.35" fill="none" stroke="#333" stroke-width="1"/>
  <circle cx="419" cy="298" r="10.35" fill="none" stroke="#333" stroke-width="1"/>
  <circle cx="453.5" cy="238.2442" r="10.35" fill="none" stroke="#333" stroke-width="1"/>
  <circle cx="522.5" cy="238.2442" r="10.35" fill="none" stroke="#333" stroke-width="1"/>
  <circle cx="607.5115" cy="367" r="10.35" fill="none" stroke="#333" stroke-width="1"/>
  <circle cx="488" cy="436" r="10.35" fill="none" stroke="#333" stroke-width="1"/>
  <circle cx="368.4885" cy="367" r="10.35" fill="none" stroke="#333" stroke-width="1"/>
  <circle cx="368.4885" cy="229" r="10.35" fill="none" stroke="#333" stroke-width="1"/>
  <circle cx="488" cy="160" r="10.35" fill="none" stroke="#333" stroke-width="1"/>
  <circle cx="607.5115" cy="229" r="10.35" fill="none" stroke="#333" stroke-width="1"/>
</g>
</g>
  <g transform="rotate(134.5,400,400)">
  <g>
  <circle cx="321" cy="210" r="171" stroke="#333" stroke-width="2" fill="#333" fill-opacity="0.05"/>
  <circle cx="321" cy="73.2" r="13.68" fill="#333" stroke="#fff" stroke-width="1"/>
  <text x="318" y="77.2" font-size="9" fill="#fff" font-weight="bold">1</text>
  <circle cx="457.8" cy="210" r="13.68" fill="#333" stroke="#fff" stroke-width="1"/>
  <text x="454.8" y="214" font-size="9" fill="#fff" font-weight="bold">2</text>
  <circle cx="321" cy="346.8" r="13.68" fill="#333" stroke="#fff" stroke-width="1"/>
  <text x="318" y="350.8" font-size="9" fill="#fff" font-weight="bold">3</text>
  <circle cx="184.2" cy="210" r="13.68" fill="#333" stroke="#fff" stroke-width="1"/>
  <text x="181.2" y="214" font-size="9" fill="#fff" font-weight="bold">4</text>
  <path d="M 321,73.2 Q 422.5688,108.4312 457.8,210" stroke="#333" stroke-width="1" fill="none"/>
  <path d="M 457.8,210 Q 422.5688,311.5688 321,346.8" stroke="#333" stroke-width="1" fill="none"/>
  <path d="M 321,346.8 Q 219.4312,311.5688 184.2,210" stroke="#333" stroke-width="1" fill="none"/>
  <path d="M 184.2,210 Q 422.5688,311.5688 321,73.2" stroke="#333" stroke-width="1" fill="none"/>
  <text x="313" y="214" font-size="14" fill="#333" font-weight="bold">W4</text>
</g>
</g>
</svg>