<svg xmlns="http://www.w3.org/2000/svg" width="800" height="800" viewBox="0 0 800 800">
  <g transform="rotate(-105.5,400,400)">
  <g>
  <line x1="280.5874" y1="0" x2="280.5874" y2="577" stroke="#c0a040" stroke-width="1" stroke-opacity="0.6"/>
  <line x1="387.7623" y1="0" x2="387.7623" y2="577" stroke="#c0a040" stroke-width="1" stroke-opacity="0.6"/>
  <line x1="428.6994" y1="0" x2="428.6994" y2="577" stroke="#c0a040" stroke-width="1" stroke-opacity="0.6"/>
  <line x1="444.336" y1="0" x2="444.336" y2="577" stroke="#c0a040" stroke-width="1" stroke-opacity="0.6"/>
  <line x1="450.3087" y1="0" x2="450.3087" y2="577" stroke="#c0a040" stroke-width="1" stroke-opacity="0.6"/>
  <line x1="0" y1="356.6056" x2="454" y2="356.6056" stroke="#c0a040" stroke-width="1" stroke-opacity="0.6"/>
  <line x1="0" y1="492.8168" x2="454" y2="492.8168" stroke="#c0a040" stroke-width="1" stroke-opacity="0.6"/>
  <line x1="0" y1="544.8449" x2="454" y2="544.8449" stroke="#c0a040" stroke-width="1" stroke-opacity="0.6"/>
  <line x1="0" y1="564.7178" x2="454" y2="564.7178" stroke="#c0a040" stroke-width="1" stroke-opacity="0.6"/>
  <line x1="0" y1="572.3086" x2="454" y2="572.3086" stroke="#c0a040" stroke-width="1" stroke-opacity="0.6"/>
</g>
</g>
  <g transform="rotate(172.2,400,400)">
  <path d="M 457 260 A 0.065 0.065 0 0 1 456.935 260.065 A 0.065 0.065 0 0 1 456.87 260 A 0.13 0.13 0 0 1 457 259.87 A 0.195 0.195 0 0 1 457.195 260.065 A 0.3251 0.3251 0 0 1 456.87 260.3901 A 0.5201 0.5201 0 0 1 456.3498 259.87 A 0.8452 0.8452 0 0 1 457.195 259.0248 A 1.3653 1.3653 0 0 1 458.5604 260.3901 A 2.2105 2.2105 0 0 1 456.3498 262.6006 A 3.5759 3.5759 0 0 1 452.774 259.0248 A 5.7864 5.7864 0 0 1 458.5604 253.2384 A 9.3622 9.3622 0 0 1 467.9226 262.6006 A 15.1486 15.1486 0 0 1 452.774 277.7492 A 24.5108 24.5108 0 0 1 428.2632 253.2384 A 39.6594 39.6594 0 0 1 467.9226 213.5789 A 64.1703 64.1703 0 0 1 532.0929 277.7492" fill="none" stroke="#333" stroke-width="2"/>
</g>
  <g opacity="1.00">
  <g>
  <polygon points="235,507 270,507 270,542" fill="none" stroke="#333" stroke-width="1"/>
  <polygon points="235,507 270,542 245.2513,566.7487" fill="none" stroke="#333" stroke-width="1"/>
  <polygon points="235,507 245.2513,566.7487 210.7553,572.6673" fill="none" stroke="#333" stroke-width="1"/>
  <polygon points="235,507 210.7553,572.6673 177.9217,560.545" fill="none" stroke="#333" stroke-width="1"/>
  <polygon points="235,507 177.9217,560.545 153.9756,535.0188" fill="none" stroke="#333" stroke-width="1"/>
  <polygon points="235,507 153.9756,535.0188 142.537,501.9407" fill="none" stroke="#333" stroke-width="1"/>
  <polygon points="235,507 142.537,501.9407 144.4493,466.993" fill="none" stroke="#333" stroke-width="1"/>
  <polygon points="235,507 144.4493,466.993 158.5939,434.9784" fill="none" stroke="#333" stroke-width="1"/>
  <polygon points="235,507 158.5939,434.9784 182.6011,409.5097" fill="none" stroke="#333" stroke-width="1"/>
  <polygon points="235,507 182.6011,409.5097 213.4302,392.9397" fill="none" stroke="#333" stroke-width="1"/>
  <polygon points="235,507 213.4302,392.9397 247.8207,386.4362" fill="none" stroke="#333" stroke-width="1"/>
  <polygon points="235,507 247.8207,386.4362 282.6244,390.1372" fill="none" stroke="#333" stroke-width="1"/>
  <polygon points="235,507 282.6244,390.1372 315.0363,403.3458" fill="none" stroke="#333" stroke-width="1"/>
  <polygon points="235,507 315.0363,403.3458 342.7391,424.7364" fill="none" stroke="#333" stroke-width="1"/>
  <polygon points="235,507 342.7391,424.7364 363.9794,452.5546" fill="none" stroke="#333" stroke-width="1"/>
  <polygon points="235,507 363.9794,452.5546 377.5908,484.7994" fill="none" stroke="#333" stroke-width="1"/>
  <polygon points="235,507 377.5908,484.7994 382.9752,519.3828" fill="none" stroke="#333" stroke-width="1"/>
  <polygon points="235,507 382.9752,519.3828 380.0566,554.2609" fill="none" stroke="#333" stroke-width="1"/>
  <polygon points="235,507 380.0566,554.2609 369.2142,587.5391" fill="none" stroke="#333" stroke-width="1"/>
  <polygon points="235,507 369.2142,587.5391 351.2051,617.5503" fill="none" stroke="#333" stroke-width="1"/>
</g>
</g>
</svg>