<svg xmlns="http://www.w3.org/2000/svg" width="800" height="800" viewBox="0 0 800 800">
  <polygon points="472,38 647,213 472,388 297,213" fill="none" stroke="#333" stroke-width="1.5"/>
  <g opacity="0.72">
  <g>
  <line x1="632" y1="434" x2="886" y2="434" stroke="#333" stroke-width="1.5"/>
  <line x1="610.9117" y1="484.9117" x2="790.5168" y2="664.5168" stroke="#333" stroke-width="1.5"/>
  <line x1="560" y1="506" x2="560" y2="760" stroke="#333" stroke-width="1.5"/>
  <line x1="509.0883" y1="484.9117" x2="329.4832" y2="664.5168" stroke="#333" stroke-width="1.5"/>
  <line x1="488" y1="434" x2="234" y2="434" stroke="#333" stroke-width="1.5"/>
  <line x1="509.0883" y1="383.0883" x2="329.4832" y2="203.4832" stroke="#333" stroke-width="1.5"/>
  <line x1="560" y1="362" x2="560" y2="108" stroke="#333" stroke-width="1.5"/>
  <line x1="610.9117" y1="383.0883" x2="790.5168" y2="203.4832" stroke="#333" stroke-width="1.5"/>
</g>
</g>
  <g>
  <polygon points="516,401 505.8783,418.5312 526.1217,418.5312" fill="#333" stroke="none"/>
  <polygon points="505.8783,418.5312 495.7567,436.0625 516,436.0625" fill="#333" stroke="none"/>
  <polygon points="526.1217,418.5312 516,436.0625 536.2433,436.0625" fill="#333" stroke="none"/>
  <polygon points="495.7567,436.0625 485.635,453.5938 505.8783,453.5938" fill="#333" stroke="none"/>
  <polygon points="485.635,453.5938 475.5133,471.125 495.7567,471.125" fill="#333" stroke="none"/>
  <polygon points="505.8783,453.5938 495.7567,471.125 516,471.125" fill="#333" stroke="none"/>
  <polygon points="536.2433,436.0625 526.1217,453.5938 546.365,453.5938" fill="#333" stroke="none"/>
  <polygon points="526.1217,453.5938 516,471.125 536.2433,471.125" fill="#333" stroke="none"/>
  <polygon points="546.365,453.5938 536.2433,471.125 556.4867,471.125" fill="#333" stroke="none"/>
  <polygon points="475.5133,471.125 465.3916,488.6562 485.635,488.6562" fill="#333" stroke="none"/>
  <polygon points="465.3916,488.6562 455.27,506.1875 475.5133,506.1875" fill="#333" stroke="none"/>
  <polygon points="485.635,488.6562 475.5133,506.1875 495.7567,506.1875" fill="#333" stroke="none"/>
  <polygon points="455.27,506.1875 445.1483,523.7188 465.3916,523.7188" fill="#333" stroke="none"/>
  <polygon points="445.1483,523.7188 435.0266,541.25 455.27,541.25" fill="#333" stroke="none"/>
  <polygon points="465.3916,523.7188 455.27,541.25 475.5133,541.25" fill="#333" stroke="none"/>
  <polygon points="495.7567,506.1875 485.635,523.7188 505.8783,523.7188" fill="#333" stroke="none"/>
  <polygon points="485.635,523.7188 475.5133,541.25 495.7567,541.25" fill="#333" stroke="none"/>
  <polygon points="505.8783,523.7188 495.7567,541.25 516,541.25" fill="#333" stroke="none"/>
  <polygon points="556.4867,471.125 546.365,488.6562 566.6084,488.6562" fill="#333" stroke="none"/>
  <polygon points="546.365,488.6562 536.2433,506.1875 556.4867,506.1875" fill="#333" stroke="none"/>
  <polygon points="566.6084,488.6562 556.4867,506.1875 576.73,506.1875" fill="#333" stroke="none"/>
  <polygon points="536.2433,506.1875 526.1217,523.7188 546.365,523.7188" fill="#333" stroke="none"/>
  <polygon points="526.1217,523.7188 516,541.25 536.2433,541.25" fill="#333" stroke="none"/>
  <polygon points="546.365,523.7188 536.2433,541.25 556.4867,541.25" fill="#333" stroke="none"/>
  <polygon points="576.73,506.1875 566.6084,523.7188 586.8517,523.7188" fill="#333" stroke="none"/>
  <polygon points="566.6084,523.7188 556.4867,541.25 576.73,541.25" fill="#333" stroke="none"/>
  <polygon points="586.8517,523.7188 576.73,541.25 596.9734,541.25" fill="#333" stroke="none"/>
  <polygon points="435.0266,541.25 424.905,558.7812 445.1483,558.7812" fill="#333" stroke="none"/>
  <polygon points="424.905,558.7812 414.7833,576.3125 435.0266,576.3125" fill="#333" stroke="none"/>
  <polygon points="445.1483,558.7812 435.0266,576.3125 455.27,576.3125" fill="#333" stroke="none"/>
  <polygon points="414.7833,576.3125 404.6616,593.8438 424.905,593.8438" fill="#333" stroke="none"/>
  <polygon points="404.6616,593.8438 394.5399,611.375 414.7833,611.375" fill="#333" stroke="none"/>
  <polygon points="424.905,593.8438 414.7833,611.375 435.0266,611.375" fill="#333" stroke="none"/>
  <polygon points="455.27,576.3125 445.1483,593.8438 465.3916,593.8438" fill="#333" stroke="none"/>
  <polygon points="445.1483,593.8438 435.0266,611.375 455.27,611.375" fill="#333" stroke="none"/>
  <polygon points="465.3916,593.8438 455.27,611.375 475.5133,611.375" fill="#333" stroke="none"/>
  <polygon points="394.5399,611.375 384.4183,628.9062 404.6616,628.9062" fill="#333" stroke="none"/>
  <polygon points="384.4183,628.9062 374.2966,646.4375 394.5399,646.4375" fill="#333" stroke="none"/>
  <polygon points="404.6616,628.9062 394.5399,646.4375 414.7833,646.4375" fill="#333" stroke="none"/>
  <polygon points="374.2966,646.4375 364.1749,663.9688 384.4183,663.9688" fill="#333" stroke="none"/>
  <polygon points="364.1749,663.9688 354.0532,681.5 374.2966,681.5" fill="#333" stroke="none"/>
  <polygon points="384.4183,663.9688 374.2966,681.5 394.5399,681.5" fill="#333" stroke="none"/>
  <polygon points="414.7833,646.4375 404.6616,663.9688 424.905,663.9688" fill="#333" stroke="none"/>
  <polygon points="404.6616,663.9688 394.5399,681.5 414.7833,681.5" fill="#333" stroke="none"/>
  <polygon points="424.905,663.9688 414.7833,681.5 435.0266,681.5" fill="#333" stroke="none"/>
  <polygon points="475.5133,611.375 465.3916,628.9062 485.635,628.9062" fill="#333" stroke="none"/>
  <polygon points="465.3916,628.9062 455.27,646.4375 475.5133,646.4375" fill="#333" stroke="none"/>
  <polygon points="485.635,628.9062 475.5133,646.4375 495.7567,646.4375" fill="#333" stroke="none"/>
  <polygon points="455.27,646.4375 445.1483,663.9688 465.3916,663.9688" fill="#333" stroke="none"/>
  <polygon points="445.1483,663.9688 435.0266,681.5 455.27,681.5" fill="#333" stroke="none"/>
  <polygon points="465.3916,663.9688 455.27,681.5 475.5133,681.5" fill="#333" stroke="none"/>
  <polygon points="495.7567,646.4375 485.635,663.9688 505.8783,663.9688" fill="#333" stroke="none"/>
  <polygon points="485.635,663.9688 475.5133,681.5 495.7567,681.5" fill="#333" stroke="none"/>
  <polygon points="505.8783,663.9688 495.7567,681.5 516,681.5" fill="#333" stroke="none"/>
  <polygon points="596.9734,541.25 586.8517,558.7812 607.095,558.7812" fill="#333" stroke="none"/>
  <polygon points="586.8517,558.7812 576.73,576.3125 596.9734,576.3125" fill="#333" stroke="none"/>
  <polygon points="607.095,558.7812 596.9734,576.3125 617.2167,576.3125" fill="#333" stroke="none"/>
  <polygon points="576.73,576.3125 566.6084,593.8438 586.8517,593.8438" fill="#333" stroke="none"/>
  <polygon points="566.6084,593.8438 556.4867,611.375 576.73,611.375" fill="#333" stroke="none"/>
  <polygon points="586.8517,593.8438 576.73,611.375 596.9734,611.375" fill="#333" stroke="none"/>
  <polygon points="617.2167,576.3125 607.095,593.8438 627.3384,593.8438" fill="#333" stroke="none"/>
  <polygon points="607.095,593.8438 596.9734,611.375 617.2167,611.375" fill="#333" stroke="none"/>
  <polygon points="627.3384,593.8438 617.2167,611.375 637.4601,611.375" fill="#333" stroke="none"/>
  <polygon points="556.4867,611.375 546.365,628.9062 566.6084,628.9062" fill="#333" stroke="none"/>
  <polygon points="546.365,628.9062 536.2433,646.4375 556.4867,646.4375" fill="#333" stroke="none"/>
  <polygon points="566.6084,628.9062 556.4867,646.4375 576.73,646.4375" fill="#333" stroke="none"/>
  <polygon points="536.2433,646.4375 526.1217,663.9688 546.365,663.9688" fill="#333" stroke="none"/>
  <polygon points="526.1217,663.9688 516,681.5 536.2433,681.5" fill="#333" stroke="none"/>
  <polygon points="546.365,663.9688 536.2433,681.5 556.4867,681.5" fill="#333" stroke="none"/>
  <polygon points="576.73,646.4375 566.6084,663.9688 586.8517,663.9688" fill="#333" stroke="none"/>
  <polygon points="566.6084,663.9688 556.4867,681.5 576.73,681.5" fill="#333" stroke="none"/>
  <polygon points="586.8517,663.9688 576.73,681.5 596.9734,681.5" fill="#333" stroke="none"/>
  <polygon points="637.4601,611.375 627.3384,628.9062 647.5817,628.9062" fill="#333" stroke="none"/>
  <polygon points="627.3384,628.9062 617.2167,646.4375 637.4601,646.4375" fill="#333" stroke="none"/>
  <polygon points="647.5817,628.9062 637.4601,646.4375 657.7034,646.4375" fill="#333" stroke="none"/>
  <polygon points="617.2167,646.4375 607.095,663.9688 627.3384,663.9688" fill="#333" stroke="none"/>
  <polygon points="607.095,663.9688 596.9734,681.5 617.2167,681.5" fill="#333" stroke="none"/>
  <polygon points="627.3384,663.9688 617.2167,681.5 637.4601,681.5" fill="#333" stroke="none"/>
  <polygon points="657.7034,646.4375 647.5817,663.9688 667.8251,663.9688" fill="#333" stroke="none"/>
  <polygon points="647.5817,663.9688 637.4601,681.5 657.7034,681.5" fill="#333" stroke="none"/>
  <polygon points="667.8251,663.9688 657.7034,681.5 677.9468,681.5" fill="#333" stroke="none"/>
</g>
  <g transform="rotate(105.0,400,400)">
  <g>
  <polyline points="659.2137,405.5783 647.9677,397.8819 635.225,390.9091 621.0735,384.731 605.6085,379.4165 588.9334,375.0319 571.1603,371.6413 552.4107,369.3059 532.8165,368.0834 512.5206,368.0277 491.6774,369.1873 470.4528,371.6047 449.0248,375.3154 427.5828,380.3461 406.3273,386.7134 385.4687,394.4229 365.2258,403.467 345.8245,413.8244 327.495,425.4581 310.4697,438.315 294.9799,452.3245 281.2528,467.3981 269.5079,483.4293 259.9532,500.293 252.7814,517.8464 248.1662,535.9295 246.2579,554.3661 247.1803,572.9654 251.0268,591.5238 257.8571,609.8274 267.6947,627.6541 280.5244,644.7768 296.2905,660.9666 314.8956,675.996 336.2004,689.6425 360.0234,701.6923 386.1425,711.9439 414.2964,720.2115 444.1869,726.3289 475.4828,730.1525 507.8232,731.5643 540.8224,730.475 574.0751,726.8256 607.1622,720.5901 639.6563,711.7761 671.129,700.4262 701.1568,686.6179 729.3281,670.4634 755.2497,652.1087 778.5532,631.7318 798.9015,609.5412 815.9941,585.7726 829.5723,560.6862 839.4242,534.5628 845.3883,507.7002 847.3561,480.4082 845.2751,453.005 839.1494,425.8115 829.0402,399.1471 815.0653,373.3245 797.3969,348.6454" stroke="#333" stroke-width="0.8" fill="none"/>
  <polyline points="676.4866,398.4617 664.0043,388.8211 649.8129,380.0255 634.0292,372.1673 616.7814,365.3333 598.2089,359.6048 578.4621,355.0564 557.7026,351.756 536.1026,349.7638 513.845,349.1321 491.1226,349.9036 468.1375,352.1114 445.1007,355.7778 422.2307,360.9129 399.7519,367.5146 377.894,375.5667 356.8891,385.039 336.9704,395.8858 318.3693,408.0458 301.3134,421.4414 286.0231,435.9785 272.7091,451.5468 261.5689,468.0195 252.7843,485.2541 246.5175,503.0933 242.9083,521.3658 242.0713,539.8879 244.0927,558.465 249.0279,576.8938 256.8994,594.9644 267.6947,612.4626 281.3648,629.1729 297.8237,644.8813 316.9476,659.378 338.5752,672.4609 362.5088,683.9383 388.515,693.6325 416.3277,701.382 445.65,707.0454 476.1576,710.5031 507.5028,711.6601 539.3188,710.4483 571.2242,706.828 602.8281,700.7892 633.7358,692.3526 663.5543,681.5701 691.8979,668.5247 718.3941,653.33 742.6892,636.1293 764.4538,617.0937 783.388,596.4207 799.2261,574.3313 811.7412,551.0671 820.7487,526.8877 826.1098,502.0666 827.7334,476.8875 825.5785,451.6404 819.6546,426.6177 810.0223,402.1094 796.7923,378.3996 780.124,355.762" stroke="#333" stroke-width="0.8" fill="none"/>
  <polyline points="693.7595,391.3451 680.0408,379.7603 664.4008,369.1418 646.985,359.6035 627.9543,351.2502 607.4843,344.1777 585.7639,338.4715 562.9944,334.2061 539.3887,331.4442 515.1694,330.2364 490.5677,330.6199 465.8223,332.6181 441.1767,336.2401 416.8785,341.4798 393.1765,348.3157 370.3193,356.7106 348.5523,366.611 328.1162,377.9473 309.2436,390.6335 292.1571,404.5678 277.0663,419.6326 264.1653,435.6955 253.63,452.6097 245.6155,470.2153 240.2535,488.3402 237.6504,506.8021 237.8846,525.4097 241.005,543.9646 247.0291,562.2638 255.9418,580.1014 267.6947,597.2711 282.2052,613.5691 299.357,628.796 318.9996,642.76 340.9501,655.2793 364.9941,666.1843 390.8875,675.3211 418.3591,682.5526 447.113,687.7619 476.8324,690.8536 507.1825,691.7559 537.8153,690.4217 568.3732,686.8305 598.494,680.9883 627.8153,672.9291 655.9796,662.7139 682.639,650.4314 707.4601,636.1966 730.1287,620.1499 750.3543,602.4557 767.8744,583.3002 782.4581,562.8899 793.9101,541.448 802.0732,519.2126 806.8313,496.4331 808.1107,473.3667 805.8819,450.2759 800.1599,427.4238 791.0045,405.0716 778.5194,383.4746 762.8511,362.8786" stroke="#333" stroke-width="0.8" fill="none"/>
  <polyline points="711.0324,384.2284 696.0773,370.6994 678.9887,358.2582 659.9407,347.0397 639.1272,337.1671 616.7598,328.7507 593.0657,321.8866 568.2863,316.6562 542.6748,313.1246 516.4937,311.3408 490.0129,311.3363 463.507,313.1248 437.2527,316.7024 411.5263,322.0466 386.6011,329.1168 362.7446,337.8545 340.2156,348.183 319.262,360.0087 300.1179,373.2212 283.0008,387.6941 268.1096,403.2867 255.6216,419.8442 245.6911,437.2 238.4466,455.1764 233.9896,473.5871 232.3925,492.2384 233.698,510.9315 237.9173,529.4643 245.0302,547.6338 254.9841,565.2384 267.6947,582.0796 283.0457,597.9652 300.8902,612.7107 321.0516,626.1421 343.325,638.0976 367.4795,648.4304 393.26,657.0097 420.3905,663.7232 448.5761,668.4785 477.5072,671.2042 506.8622,671.8516 536.3118,670.3951 565.5223,666.8329 594.1599,661.1874 621.8948,653.5055 648.4049,643.8578 673.3801,632.3382 696.5261,619.0632 717.5683,604.1705 736.2549,587.8176 752.3608,570.1797 765.6901,551.4485 776.079,531.8289 783.3977,511.5375 787.5529,490.7995 788.488,469.846 786.1853,448.9113 780.6651,428.23 771.9866,408.0339 760.2464,388.5496 745.5782,369.9952" stroke="#333" stroke-width="0.8" fill="none"/>
  <polyline points="728.3053,377.1118 712.1139,361.6386 693.5765,347.3745 672.8964,334.4759 650.3001,323.084 626.0352,313.3236 600.3675,305.3017 573.5782,299.1063 545.9609,294.805 517.8181,292.4452 489.4581,292.0526 461.1918,293.6315 433.3287,297.1647 406.1742,302.6134 380.0257,309.918 355.1698,318.9983 331.8788,329.755 310.4079,342.0702 290.9922,355.8088 273.8445,370.8205 259.1528,386.9408 247.0779,403.9929 237.7522,421.7902 231.2778,440.1376 227.7256,458.834 227.1347,477.6747 229.5114,496.4533 234.8297,514.9639 243.0313,533.0038 254.0265,550.3753 267.6947,566.8882 283.8861,582.3614 302.4235,596.6255 323.1036,609.5241 345.6999,620.916 369.9648,630.6764 395.6325,638.6983 422.4218,644.8937 450.0391,649.195 478.1819,651.5548 506.5419,651.9474 534.8082,650.3685 562.6713,646.8353 589.8258,641.3866 615.9743,634.082 640.8302,625.0017 664.1212,614.245 685.5921,601.9298 705.0078,588.1912 722.1555,573.1795 736.8472,557.0592 748.9221,540.0071 758.2478,522.2098 764.7222,503.8624 768.2744,485.166 768.8653,466.3253 766.4886,447.5467 761.1703,429.0361 752.9687,410.9962 741.9735,393.6247 728.3053,377.1118" stroke="#333" stroke-width="0.8" fill="none"/>
  <polyline points="745.5782,369.9952 728.1504,352.5778 708.1644,336.4909 685.8522,321.9121 661.473,309.0008 635.3106,297.8965 607.6693,288.7169 578.8701,281.5563 549.2469,276.4854 519.1424,273.5496 488.9033,272.7689 458.8765,274.1382 429.4047,277.627 400.822,283.1803 373.4503,290.7191 347.5951,300.1422 323.5421,311.327 301.5537,324.1316 281.8665,338.3965 264.6883,353.9469 250.196,370.5948 238.5342,388.1416 229.8132,406.3804 224.1089,425.0987 221.4617,444.0809 221.8768,463.1111 225.3247,481.9751 231.742,500.4635 241.0325,518.3738 253.0688,535.5123 267.6947,551.6967 284.7266,566.7575 303.9567,580.5402 325.1555,592.9062 348.0747,603.7344 372.4502,612.9224 398.005,620.3869 424.4532,626.0643 451.5022,629.9115 478.8567,631.9054 506.2216,632.0432 533.3047,630.3418 559.8203,626.8377 585.4917,621.5857 610.0537,614.6585 633.2554,606.1455 654.8623,596.1518 674.6582,584.7965 692.4474,572.2118 708.056,558.5414 721.3336,543.9387 732.1541,528.5657 740.4167,512.5907 746.0467,496.1873 748.9959,479.5324 749.2427,462.8045 746.792,446.1822 741.6756,429.8423 733.9508,413.9585 723.7006,398.6997 711.0324,384.2284" stroke="#333" stroke-width="0.8" fill="none"/>
  <polyline points="762.8511,362.8786 744.1869,343.517 722.7523,325.6072 698.8079,309.3483 672.6459,294.9177 644.5861,282.4695 614.9711,272.132 584.1619,264.0064 552.533,258.1658 520.4668,254.6539 488.3485,253.4853 456.5613,254.6449 425.4807,258.0894 395.4699,263.7471 366.8749,271.5203 340.0204,281.2861 315.2053,292.899 292.6995,306.193 272.7408,320.9842 255.532,337.0733 241.2392,354.2489 229.9905,372.2903 221.8743,390.9707 216.94,410.0599 215.1977,429.3278 216.6189,448.5474 221.1381,467.4969 228.6543,485.9632 239.0336,503.7438 252.1112,520.6493 267.6947,536.5052 285.567,551.1537 305.4899,564.4549 327.2075,576.2882 350.4496,586.5528 374.9355,595.1684 400.3775,602.0755 426.4845,607.2349 452.9653,610.628 479.5315,612.256 505.9012,612.1389 531.8011,610.3152 556.9694,606.8401 581.1576,601.7848 604.1332,595.235 625.6807,587.2894 645.6034,578.0585 663.7242,567.6631 679.8869,556.2324 693.9566,543.9033 705.82,530.8182 715.3861,517.1243 722.5856,502.9716 727.3712,488.5122 729.7175,473.8989 729.62,459.2838 727.0954,444.8176 722.1808,430.6484 714.9329,416.9208 705.4276,403.7747 693.7595,391.3451" stroke="#333" stroke-width="0.8" fill="none"/>
  <polyline points="780.124,355.762 760.2235,334.4561 737.3402,314.7236 711.7637,296.7845 683.8188,280.8346 653.8615,267.0424 622.2728,255.5471 589.4538,246.4565 555.8191,239.8462 521.7911,235.7583 487.7937,234.2016 454.246,235.1516 421.5567,238.5517 390.1177,244.3139 360.2996,252.3214 332.4457,262.4299 306.8685,274.471 283.8454,288.2545 263.6151,303.5719 246.3757,320.1997 232.2825,337.903 221.4467,356.439 213.9354,375.5609 209.7712,395.021 208.9338,414.5747 211.361,433.9837 216.9514,453.0187 225.5667,471.4628 237.0347,489.1138 251.1536,505.7863 267.6947,521.3137 286.4074,535.5498 307.0232,548.3696 329.2595,559.6703 352.8245,569.3712 377.4208,577.4145 402.75,583.7641 428.5159,588.4054 454.4283,591.3445 480.2063,592.6066 505.5809,592.2347 530.2976,590.2886 554.1184,586.8425 576.8235,581.9839 598.2127,575.8115 618.106,568.4333 636.3445,559.9653 652.7902,550.5297 667.3264,540.2531 679.8571,529.2652 690.3065,517.6977 698.6181,505.6829 704.7545,493.3525 708.6957,480.8371 710.439,468.2653 709.9973,455.763 707.3988,443.453 702.686,431.4546 695.915,419.883 687.1547,408.8498 676.4866,398.4617" stroke="#333" stroke-width="0.8" fill="none"/>
  <polyline points="659.2137,405.5783 676.4866,398.4617 693.7595,391.3451 711.0324,384.2284 728.3053,377.1118 745.5782,369.9952 762.8511,362.8786 780.124,355.762" stroke="#999" stroke-width="0.5" fill="none"/>
  <polyline points="588.9334,375.0319 598.2089,359.6048 607.4843,344.1777 616.7598,328.7507 626.0352,313.3236 635.3106,297.8965 644.5861,282.4695 653.8615,267.0424" stroke="#999" stroke-width="0.5" fill="none"/>
  <polyline points="491.6774,369.1873 491.1226,349.9036 490.5677,330.6199 490.0129,311.3363 489.4581,292.0526 488.9033,272.7689 488.3485,253.4853 487.7937,234.2016" stroke="#999" stroke-width="0.5" fill="none"/>
  <polyline points="385.4687,394.4229 377.894,375.5667 370.3193,356.7106 362.7446,337.8545 355.1698,318.9983 347.5951,300.1422 340.0204,281.2861 332.4457,262.4299" stroke="#999" stroke-width="0.5" fill="none"/>
  <polyline points="294.9799,452.3245 286.0231,435.9785 277.0663,419.6326 268.1096,403.2867 259.1528,386.9408 250.196,370.5948 241.2392,354.2489 232.2825,337.903" stroke="#999" stroke-width="0.5" fill="none"/>
  <polyline points="248.1662,535.9295 242.9083,521.3658 237.6504,506.8021 232.3925,492.2384 227.1347,477.6747 221.8768,463.1111 216.6189,448.5474 211.361,433.9837" stroke="#999" stroke-width="0.5" fill="none"/>
  <polyline points="267.6947,627.6541 267.6947,612.4626 267.6947,597.2711 267.6947,582.0796 267.6947,566.8882 267.6947,551.6967 267.6947,536.5052 267.6947,521.3137" stroke="#999" stroke-width="0.5" fill="none"/>
  <polyline points="360.0234,701.6923 362.5088,683.9383 364.9941,666.1843 367.4795,648.4304 369.9648,630.6764 372.4502,612.9224 374.9355,595.1684 377.4208,577.4145" stroke="#999" stroke-width="0.5" fill="none"/>
  <polyline points="507.8232,731.5643 507.5028,711.6601 507.1825,691.7559 506.8622,671.8516 506.5419,651.9474 506.2216,632.0432 505.9012,612.1389 505.5809,592.2347" stroke="#999" stroke-width="0.5" fill="none"/>
  <polyline points="671.129,700.4262 663.5543,681.5701 655.9796,662.7139 648.4049,643.8578 640.8302,625.0017 633.2554,606.1455 625.6807,587.2894 618.106,568.4333" stroke="#999" stroke-width="0.5" fill="none"/>
  <polyline points="798.9015,609.5412 783.388,596.4207 767.8744,583.3002 752.3608,570.1797 736.8472,557.0592 721.3336,543.9387 705.82,530.8182 690.3065,517.6977" stroke="#999" stroke-width="0.5" fill="none"/>
  <polyline points="847.3561,480.4082 827.7334,476.8875 808.1107,473.3667 788.488,469.846 768.8653,466.3253 749.2427,462.8045 729.62,459.2838 709.9973,455.763" stroke="#999" stroke-width="0.5" fill="none"/>
</g>
</g>
</svg>