<svg xmlns="http://www.w3.org/2000/svg" width="800" height="800" viewBox="0 0 800 800">
  <g opacity="0.94">
  <g transform="rotate(-101.1,400,400)">
  <g>
  <polygon points="324,65 625.3768,587 22.6232,587" fill="none" stroke="#333" stroke-width="1.5"/>
  <polygon points="324,152 550.0326,543.5 97.9674,543.5" fill="none" stroke="#333" stroke-width="1.5"/>
  <polygon points="324,239 474.6884,500 173.3116,500" fill="none" stroke="#333" stroke-width="1.5"/>
  <polygon points="324,308.6 414.4131,465.2 233.5869,465.2" fill="none" stroke="#333" stroke-width="1.5"/>
  <polygon points="324,743.6 37.692,247.7 610.308,247.7" fill="none" stroke="#333" stroke-width="1.5"/>
  <polygon points="324,656.6 113.0362,291.2 534.9638,291.2" fill="none" stroke="#333" stroke-width="1.5"/>
  <polygon points="324,580.04 179.3391,329.48 468.6609,329.48" fill="none" stroke="#333" stroke-width="1.5"/>
  <polygon points="324,510.44 239.6145,364.28 408.3855,364.28" fill="none" stroke="#333" stroke-width="1.5"/>
  <polygon points="324,465.2 278.7935,386.9 369.2065,386.9" fill="none" stroke="#333" stroke-width="1.5"/>
</g>
</g>
</g>
  <g opacity="0.63">
  <g transform="rotate(40.6,400,400)">
  <g>
  <line x1="597" y1="475" x2="810" y2="475" stroke="#333" stroke-width="1.5"/>
  <line x1="592.2254" y1="489.6946" x2="764.546" y2="614.8929" stroke="#333" stroke-width="1.5"/>
  <line x1="579.7254" y1="498.7764" x2="645.546" y2="701.3515" stroke="#333" stroke-width="1.5"/>
  <line x1="564.2746" y1="498.7764" x2="498.454" y2="701.3515" stroke="#333" stroke-width="1.5"/>
  <line x1="551.7746" y1="489.6946" x2="379.454" y2="614.8929" stroke="#333" stroke-width="1.5"/>
  <line x1="547" y1="475" x2="334" y2="475" stroke="#333" stroke-width="1.5"/>
  <line x1="551.7746" y1="460.3054" x2="379.454" y2="335.1071" stroke="#333" stroke-width="1.5"/>
  <line x1="564.2746" y1="451.2236" x2="498.454" y2="248.6485" stroke="#333" stroke-width="1.5"/>
  <line x1="579.7254" y1="451.2236" x2="645.546" y2="248.6485" stroke="#333" stroke-width="1.5"/>
  <line x1="592.2254" y1="460.3054" x2="764.546" y2="335.1071" stroke="#333" stroke-width="1.5"/>
</g>
</g>
</g>
  <g opacity="0.30">
  <g transform="rotate(18.7,400,400)">
  <g>
  <circle cx="500" cy="363" r="193" fill="none" stroke="#333" stroke-width="1"/>
  <circle cx="500" cy="363" r="119.2806" fill="none" stroke="#333" stroke-width="1"/>
  <circle cx="500" cy="363" r="73.7194" fill="none" stroke="#333" stroke-width="1"/>
  <circle cx="500" cy="363" r="45.5611" fill="none" stroke="#333" stroke-width="1"/>
  <circle cx="500" cy="363" r="28.1583" fill="none" stroke="#333" stroke-width="1"/>
</g>
</g>
</g>
</svg>