<svg xmlns="http://www.w3.org/2000/svg" width="800" height="800" viewBox="0 0 800 800">
  <g opacity="0.94">
  <g>
  <line x1="211" y1="518" x2="356" y2="518" stroke="#999" stroke-width="0.5"/>
  <line x1="211" y1="518" x2="283.5" y2="643.5737" stroke="#999" stroke-width="0.5"/>
  <line x1="211" y1="518" x2="138.5" y2="643.5737" stroke="#999" stroke-width="0.5"/>
  <line x1="211" y1="518" x2="66" y2="518" stroke="#999" stroke-width="0.5"/>
  <line x1="211" y1="518" x2="138.5" y2="392.4263" stroke="#999" stroke-width="0.5"/>
  <line x1="211" y1="518" x2="283.5" y2="392.4263" stroke="#999" stroke-width="0.5"/>
  <line x1="211" y1="518" x2="462.1474" y2="663" stroke="#999" stroke-width="0.5"/>
  <line x1="211" y1="518" x2="211" y2="808" stroke="#999" stroke-width="0.5"/>
  <line x1="211" y1="518" x2="-40.1474" y2="663" stroke="#999" stroke-width="0.5"/>
  <line x1="211" y1="518" x2="-40.1474" y2="373" stroke="#999" stroke-width="0.5"/>
  <line x1="211" y1="518" x2="211" y2="228" stroke="#999" stroke-width="0.5"/>
  <line x1="211" y1="518" x2="462.1474" y2="373" stroke="#999" stroke-width="0.5"/>
  <line x1="356" y1="518" x2="283.5" y2="643.5737" stroke="#999" stroke-width="0.5"/>
  <line x1="356" y1="518" x2="138.5" y2="643.5737" stroke="#999" stroke-width="0.5"/>
  <line x1="356" y1="518" x2="66" y2="518" stroke="#999" stroke-width="0.5"/>
  <line x1="356" y1="518" x2="138.5" y2="392.4263" stroke="#999" stroke-width="0.5"/>
  <line x1="356" y1="518" x2="283.5" y2="392.4263" stroke="#999" stroke-width="0.5"/>
  <line x1="356" y1="518" x2="462.1474" y2="663" stroke="#999" stroke-width="0.5"/>
  <line x1="356" y1="518" x2="211" y2="808" stroke="#999" stroke-width="0.5"/>
  <line x1="356" y1="518" x2="-40.1474" y2="663" stroke="#999" stroke-width="0.5"/>
  <line x1="356" y1="518" x2="-40.1474" y2="373" stroke="#999" stroke-width="0.5"/>
  <line x1="356" y1="518" x2="211" y2="228" stroke="#999" stroke-width="0.5"/>
  <line x1="356" y1="518" x2="462.1474" y2="373" stroke="#999" stroke-width="0.5"/>
  <line x1="283.5" y1="643.5737" x2="138.5" y2="643.5737" stroke="#999" stroke-width="0.5"/>
  <line x1="283.5" y1="643.5737" x2="66" y2="518" stroke="#999" stroke-width="0.5"/>
  <line x1="283.5" y1="643.5737" x2="138.5" y2="392.4263" stroke="#999" stroke-width="0.5"/>
  <line x1="283.5" y1="643.5737" x2="283.5" y2="392.4263" stroke="#999" stroke-width="0.5"/>
  <line x1="283.5" y1="643.5737" x2="462.1474" y2="663" stroke="#999" stroke-width="0.5"/>
  <line x1="283.5" y1="643.5737" x2="211" y2="808" stroke="#999" stroke-width="0.5"/>
  <line x1="283.5" y1="643.5737" x2="-40.1474" y2="663" stroke="#999" stroke-width="0.5"/>
  <line x1="283.5" y1="643.5737" x2="-40.1474" y2="373" stroke="#999" stroke-width="0.5"/>
  <line x1="283.5" y1="643.5737" x2="211" y2="228" stroke="#999" stroke-width="0.5"/>
  <line x1="283.5" y1="643.5737" x2="462.1474" y2="373" stroke="#999" stroke-width="0.5"/>
  <line x1="138.5" y1="643.5737" x2="66" y2="518" stroke="#999" stroke-width="0.5"/>
  <line x1="138.5" y1="643.5737" x2="138.5" y2="392.4263" stroke="#999" stroke-width="0.5"/>
  <line x1="138.5" y1="643.5737" x2="283.5" y2="392.4263" stroke="#999" stroke-width="0.5"/>
  <line x1="138.5" y1="643.5737" x2="462.1474" y2="663" stroke="#999" stroke-width="0.5"/>
  <line x1="138.5" y1="643.5737" x2="211" y2="808" stroke="#999" stroke-width="0.5"/>
  <line x1="138.5" y1="643.5737" x2="-40.1474" y2="663" stroke="#999" stroke-width="0.5"/>
  <line x1="138.5" y1="643.5737" x2="-40.1474" y2="373" stroke="#999" stroke-width="0.5"/>
  <line x1="138.5" y1="643.5737" x2="211" y2="228" stroke="#999" stroke-width="0.5"/>
  <line x1="138.5" y1="643.5737" x2="462.1474" y2="373" stroke="#999" stroke-width="0.5"/>
  <line x1="66" y1="518" x2="138.5" y2="392.4263" stroke="#999" stroke-width="0.5"/>
  <line x1="66" y1="518" x2="283.5" y2="392.4263" stroke="#999" stroke-width="0.5"/>
  <line x1="66" y1="518" x2="462.1474" y2="663" stroke="#999" stroke-width="0.5"/>
  <line x1="66" y1="518" x2="211" y2="808" stroke="#999" stroke-width="0.5"/>
  <line x1="66" y1="518" x2="-40.1474" y2="663" stroke="#999" stroke-width="0.5"/>
  <line x1="66" y1="518" x2="-40.1474" y2="373" stroke="#999" stroke-width="0.5"/>
  <line x1="66" y1="518" x2="211" y2="228" stroke="#999" stroke-width="0.5"/>
  <line x1="66" y1="518" x2="462.1474" y2="373" stroke="#999" stroke-width="0.5"/>
  <line x1="138.5" y1="392.4263" x2="283.5" y2="392.4263" stroke="#999" stroke-width="0.5"/>
  <line x1="138.5" y1="392.4263" x2="462.1474" y2="663" stroke="#999" stroke-width="0.5"/>
  <line x1="138.5" y1="392.4263" x2="211" y2="808" stroke="#999" stroke-width="0.5"/>
  <line x1="138.5" y1="392.4263" x2="-40.1474" y2="663" stroke="#999" stroke-width="0.5"/>
  <line x1="138.5" y1="392.4263" x2="-40.1474" y2="373" stroke="#999" stroke-width="0.5"/>
  <line x1="138.5" y1="392.4263" x2="211" y2="228" stroke="#999" stroke-width="0.5"/>
  <line x1="138.5" y1="392.4263" x2="462.1474" y2="373" stroke="#999" stroke-width="0.5"/>
  <line x1="283.5" y1="392.4263" x2="462.1474" y2="663" stroke="#999" stroke-width="0.5"/>
  <line x1="283.5" y1="392.4263" x2="211" y2="808" stroke="#999" stroke-width="0.5"/>
  <line x1="283.5" y1="392.4263" x2="-40.1474" y2="663" stroke="#999" stroke-width="0.5"/>
  <line x1="283.5" y1="392.4263" x2="-40.1474" y2="373" stroke="#999" stroke-width="0.5"/>
  <line x1="283.5" y1="392.4263" x2="211" y2="228" stroke="#999" stroke-width="0.5"/>
  <line x1="283.5" y1="392.4263" x2="462.1474" y2="373" stroke="#999" stroke-width="0.5"/>
  <line x1="462.1474" y1="663" x2="211" y2="808" stroke="#999" stroke-width="0.5"/>
  <line x1="462.1474" y1="663" x2="-40.1474" y2="663" stroke="#999" stroke-width="0.5"/>
  <line x1="462.1474" y1="663" x2="-40.1474" y2="373" stroke="#999" stroke-width="0.5"/>
  <line x1="462.1474" y1="663" x2="211" y2="228" stroke="#999" stroke-width="0.5"/>
  <line x1="462.1474" y1="663" x2="462.1474" y2="373" stroke="#999" stroke-width="0.5"/>
  <line x1="211" y1="808" x2="-40.1474" y2="663" stroke="#999" stroke-width="0.5"/>
  <line x1="211" y1="808" x2="-40.1474" y2="373" stroke="#999" stroke-width="0.5"/>
  <line x1="211" y1="808" x2="211" y2="228" stroke="#999" stroke-width="0.5"/>
  <line x1="211" y1="808" x2="462.1474" y2="373" stroke="#999" stroke-width="0.5"/>
  <line x1="-40.1474" y1="663" x2="-40.1474" y2="373" stroke="#999" stroke-width="0.5"/>
  <line x1="-40.1474" y1="663" x2="211" y2="228" stroke="#999" stroke-width="0.5"/>
  <line x1="-40.1474" y1="663" x2="462.1474" y2="373" stroke="#999" stroke-width="0.5"/>
  <line x1="-40.1474" y1="373" x2="211" y2="228" stroke="#999" stroke-width="0.5"/>
  <line x1="-40.1474" y1="373" x2="462.1474" y2="373" stroke="#999" stroke-width="0.5"/>
  <line x1="211" y1="228" x2="462.1474" y2="373" stroke="#999" stroke-width="0.5"/>
  <circle cx="211" cy="518" r="21.75" fill="none" stroke="#333" stroke-width="1"/>
  <circle cx="356" cy="518" r="21.75" fill="none" stroke="#333" stroke-width="1"/>
  <circle cx="283.5" cy="643.5737" r="21.75" fill="none" stroke="#333" stroke-width="1"/>
  <circle cx="138.5" cy="643.5737" r="21.75" fill="none" stroke="#333" stroke-width="1"/>
  <circle cx="66" cy="518" r="21.75" fill="none" stroke="#333" stroke-width="1"/>
  <circle cx="138.5" cy="392.4263" r="21.75" fill="none" stroke="#333" stroke-width="1"/>
  <circle cx="283.5" cy="392.4263" r="21.75" fill="none" stroke="#333" stroke-width="1"/>
  <circle cx="462.1474" cy="663" r="21.75" fill="none" stroke="#333" stroke-width="1"/>
  <circle cx="211" cy="808" r="21.75" fill="none" stroke="#333" stroke-width="1"/>
  <circle cx="-40.1474" cy="663" r="21.75" fill="none" stroke="#333" stroke-width="1"/>
  <circle cx="-40.1474" cy="373" r="21.75" fill="none" stroke="#333" stroke-width="1"/>
  <circle cx="211" cy="228" r="21.75" fill="none" stroke="#333" stroke-width="1"/>
  <circle cx="462.1474" cy="373" r="21.75" fill="none" stroke="#333" stroke-width="1"/>
</g>
</g>
  <g>
  <circle cx="391" cy="271" r="90" fill="none" stroke="#333" stroke-width="1.5"/>
  <circle cx="481" cy="271" r="90" fill="none" stroke="#333" stroke-width="1.5"/>
</g>
  <g>
  <line x1="449.2628" y1="384.319" x2="593.1315" y2="331.2254" stroke="#333" stroke-width="1.2" fill="none"/>
  <line x1="449.2628" y1="384.319" x2="397.9287" y2="432.9643" stroke="#333" stroke-width="1.2" fill="none"/>
  <line x1="449.2628" y1="384.319" x2="360.347" y2="266.2945" stroke="#333" stroke-width="1.2" fill="none"/>
  <line x1="449.2628" y1="140.2578" x2="360.347" y2="266.2945" stroke="#333" stroke-width="1.2" fill="none"/>
  <line x1="449.2628" y1="140.2578" x2="593.1315" y2="180.3873" stroke="#333" stroke-width="1.2" fill="none"/>
  <line x1="449.2628" y1="140.2578" x2="397.9287" y2="38.0649" stroke="#333" stroke-width="1.2" fill="none"/>
  <line x1="277.2868" y1="345.0042" x2="397.9287" y2="432.9643" stroke="#333" stroke-width="1.2" fill="none"/>
  <line x1="277.2868" y1="345.0042" x2="254.06" y2="241.9966" stroke="#333" stroke-width="1.2" fill="none"/>
  <line x1="277.2868" y1="345.0042" x2="314.8685" y2="267.6127" stroke="#333" stroke-width="1.2" fill="none"/>
  <line x1="277.2868" y1="100.943" x2="397.9287" y2="38.0649" stroke="#333" stroke-width="1.2" fill="none"/>
  <line x1="277.2868" y1="100.943" x2="254.06" y2="241.9966" stroke="#333" stroke-width="1.2" fill="none"/>
  <line x1="277.2868" y1="100.943" x2="314.8685" y2="116.7746" stroke="#333" stroke-width="1.2" fill="none"/>
  <line x1="630.7132" y1="347.057" x2="593.1315" y2="331.2254" stroke="#333" stroke-width="1.2" fill="none"/>
  <line x1="630.7132" y1="347.057" x2="510.0713" y2="409.9351" stroke="#333" stroke-width="1.2" fill="none"/>
  <line x1="630.7132" y1="347.057" x2="653.94" y2="206.0034" stroke="#333" stroke-width="1.2" fill="none"/>
  <line x1="630.7132" y1="102.9958" x2="593.1315" y2="180.3873" stroke="#333" stroke-width="1.2" fill="none"/>
  <line x1="630.7132" y1="102.9958" x2="653.94" y2="206.0034" stroke="#333" stroke-width="1.2" fill="none"/>
  <line x1="630.7132" y1="102.9958" x2="510.0713" y2="15.0357" stroke="#333" stroke-width="1.2" fill="none"/>
  <line x1="458.7372" y1="307.7422" x2="314.8685" y2="267.6127" stroke="#333" stroke-width="1.2" fill="none"/>
  <line x1="458.7372" y1="307.7422" x2="510.0713" y2="409.9351" stroke="#333" stroke-width="1.2" fill="none"/>
  <line x1="458.7372" y1="307.7422" x2="547.653" y2="181.7055" stroke="#333" stroke-width="1.2" fill="none"/>
  <line x1="458.7372" y1="63.681" x2="314.8685" y2="116.7746" stroke="#333" stroke-width="1.2" fill="none"/>
  <line x1="458.7372" y1="63.681" x2="510.0713" y2="15.0357" stroke="#333" stroke-width="1.2" fill="none"/>
  <line x1="458.7372" y1="63.681" x2="547.653" y2="181.7055" stroke="#333" stroke-width="1.2" fill="none"/>
  <line x1="593.1315" y1="331.2254" x2="593.1315" y2="180.3873" stroke="#333" stroke-width="1.2" fill="none"/>
  <line x1="397.9287" y1="432.9643" x2="510.0713" y2="409.9351" stroke="#333" stroke-width="1.2" fill="none"/>
  <line x1="360.347" y1="266.2945" x2="254.06" y2="241.9966" stroke="#333" stroke-width="1.2" fill="none"/>
  <line x1="397.9287" y1="38.0649" x2="510.0713" y2="15.0357" stroke="#333" stroke-width="1.2" fill="none"/>
  <line x1="314.8685" y1="267.6127" x2="314.8685" y2="116.7746" stroke="#333" stroke-width="1.2" fill="none"/>
  <line x1="653.94" y1="206.0034" x2="547.653" y2="181.7055" stroke="#333" stroke-width="1.2" fill="none"/>
  <circle cx="449.2628" cy="384.319" r="3.75" fill="#333" stroke="none"/>
  <circle cx="449.2628" cy="140.2578" r="3.75" fill="#333" stroke="none"/>
  <circle cx="277.2868" cy="345.0042" r="3.75" fill="#333" stroke="none"/>
  <circle cx="277.2868" cy="100.943" r="3.75" fill="#333" stroke="none"/>
  <circle cx="630.7132" cy="347.057" r="3.75" fill="#333" stroke="none"/>
  <circle cx="630.7132" cy="102.9958" r="3.75" fill="#333" stroke="none"/>
  <circle cx="458.7372" cy="307.7422" r="3.75" fill="#333" stroke="none"/>
  <circle cx="458.7372" cy="63.681" r="3.75" fill="#333" stroke="none"/>
  <circle cx="593.1315" cy="331.2254" r="3.75" fill="#333" stroke="none"/>
  <circle cx="397.9287" cy="432.9643" r="3.75" fill="#333" stroke="none"/>
  <circle cx="360.347" cy="266.2945" r="3.75" fill="#333" stroke="none"/>
  <circle cx="593.1315" cy="180.3873" r="3.75" fill="#333" stroke="none"/>
  <circle cx="397.9287" cy="38.0649" r="3.75" fill="#333" stroke="none"/>
  <circle cx="254.06" cy="241.9966" r="3.75" fill="#333" stroke="none"/>
  <circle cx="314.8685" cy="267.6127" r="3.75" fill="#333" stroke="none"/>
  <circle cx="510.0713" cy="409.9351" r="3.75" fill="#333" stroke="none"/>
  <circle cx="653.94" cy="206.0034" r="3.75" fill="#333" stroke="none"/>
  <circle cx="314.8685" cy="116.7746" r="3.75" fill="#333" stroke="none"/>
  <circle cx="510.0713" cy="15.0357" r="3.75" fill="#333" stroke="none"/>
  <circle cx="547.653" cy="181.7055" r="3.75" fill="#333" stroke="none"/>
</g>
  <polygon points="406,271 408.0421,274.537 406,278.0741 410.0842,278.0741 412.1263,281.6111 410.0842,285.1481 406,285.1481 408.0421,288.6852 406,292.2222 410.0842,292.2222 412.1263,295.7593 414.1684,292.2222 418.2527,292.2222 420.2948,295.7593 418.2527,299.2963 422.3369,299.2963 424.379,302.8333 422.3369,306.3704 418.2527,306.3704 420.2948,309.9074 418.2527,313.4444 414.1684,313.4444 412.1263,309.9074 410.0842,313.4444 406,313.4444 408.0421,316.9815 406,320.5185 410.0842,320.5185 412.1263,324.0556 410.0842,327.5926 406,327.5926 408.0421,331.1296 406,334.6667 410.0842,334.6667 412.1263,338.2037 414.1684,334.6667 418.2527,334.6667 420.2948,338.2037 418.2527,341.7407 422.3369,341.7407 424.379,345.2778 426.4211,341.7407 430.5053,341.7407 428.4632,338.2037 430.5053,334.6667 434.5895,334.6667 436.6316,338.2037 438.6737,334.6667 442.758,334.6667 444.8001,338.2037 442.758,341.7407 446.8422,341.7407 448.8843,345.2778 446.8422,348.8148 442.758,348.8148 444.8001,352.3519 442.758,355.8889 446.8422,355.8889 448.8843,359.4259 450.9264,355.8889 455.0106,355.8889 457.0527,359.4259 455.0106,362.963 459.0948,362.963 461.137,366.5 459.0948,370.037 455.0106,370.037 457.0527,373.5741 455.0106,377.1111 450.9264,377.1111 448.8843,373.5741 446.8422,377.1111 442.758,377.1111 444.8001,380.6481 442.758,384.1852 446.8422,384.1852 448.8843,387.7222 446.8422,391.2593 442.758,391.2593 444.8001,394.7963 442.758,398.3333 438.6737,398.3333 436.6316,394.7963 434.5895,398.3333 430.5053,398.3333 428.4632,394.7963 430.5053,391.2593 426.4211,391.2593 424.379,387.7222 422.3369,391.2593 418.2527,391.2593 420.2948,394.7963 418.2527,398.3333 414.1684,398.3333 412.1263,394.7963 410.0842,398.3333 406,398.3333 408.0421,401.8704 406,405.4074 410.0842,405.4074 412.1263,408.9444 410.0842,412.4815 406,412.4815 408.0421,416.0185 406,419.5556 410.0842,419.5556 412.1263,423.0926 414.1684,419.5556 418.2527,419.5556 420.2948,423.0926 418.2527,426.6296 422.3369,426.6296 424.379,430.1667 422.3369,433.7037 418.2527,433.7037 420.2948,437.2407 418.2527,440.7778 414.1684,440.7778 412.1263,437.2407 410.0842,440.7778 406,440.7778 408.0421,444.3148 406,447.8519 410.0842,447.8519 412.1263,451.3889 410.0842,454.9259 406,454.9259 408.0421,458.463 406,462 410.0842,462 412.1263,465.537 414.1684,462 418.2527,462 420.2948,465.537 418.2527,469.0741 422.3369,469.0741 424.379,472.6111 426.4211,469.0741 430.5053,469.0741 428.4632,465.537 430.5053,462 434.5895,462 436.6316,465.537 438.6737,462 442.758,462 444.8001,465.537 442.758,469.0741 446.8422,469.0741 448.8843,472.6111 446.8422,476.1481 442.758,476.1481 444.8001,479.6852 442.758,483.2222 446.8422,483.2222 448.8843,486.7593 450.9264,483.2222 455.0106,483.2222 457.0527,486.7593 455.0106,490.2963 459.0948,490.2963 461.137,493.8333 463.1791,490.2963 467.2633,490.2963 465.2212,486.7593 467.2633,483.2222 471.3475,483.2222 473.3896,486.7593 475.4317,483.2222 479.5159,483.2222 477.4738,479.6852 479.5159,476.1481 475.4317,476.1481 473.3896,472.6111 475.4317,469.0741 479.5159,469.0741 477.4738,465.537 479.5159,462 483.6002,462 485.6423,465.537 487.6844,462 491.7686,462 493.8107,465.537 491.7686,469.0741 495.8528,469.0741 497.8949,472.6111 499.937,469.0741 504.0212,469.0741 501.9791,465.537 504.0212,462 508.1055,462 510.1476,465.537 512.1897,462 516.2739,462 518.316,465.537 516.2739,469.0741 520.3581,469.0741 522.4002,472.6111 520.3581,476.1481 516.2739,476.1481 518.316,479.6852 516.2739,483.2222 520.3581,483.2222 522.4002,486.7593 524.4423,483.2222 528.5266,483.2222 530.5687,486.7593 528.5266,490.2963 532.6108,490.2963 534.6529,493.8333 532.6108,497.3704 528.5266,497.3704 530.5687,500.9074 528.5266,504.4444 524.4423,504.4444 522.4002,500.9074 520.3581,504.4444 516.2739,504.4444 518.316,507.9815 516.2739,511.5185 520.3581,511.5185 522.4002,515.0556 520.3581,518.5926 516.2739,518.5926 518.316,522.1296 516.2739,525.6667 520.3581,525.6667 522.4002,529.2037 524.4423,525.6667 528.5266,525.6667 530.5687,529.2037 528.5266,532.7407 532.6108,532.7407 534.6529,536.2778 536.695,532.7407 540.7792,532.7407 538.7371,529.2037 540.7792,525.6667 544.8634,525.6667 546.9055,529.2037 548.9476,525.6667 553.0319,525.6667 555.074,529.2037 553.0319,532.7407 557.1161,532.7407 559.1582,536.2778 557.1161,539.8148 553.0319,539.8148 555.074,543.3519 553.0319,546.8889 557.1161,546.8889 559.1582,550.4259 561.2003,546.8889 565.2845,546.8889 567.3266,550.4259 565.2845,553.963 569.3687,553.963 571.4109,557.5 567.3266,557.5 565.2845,553.963 563.2424,557.5 559.1582,557.5 557.1161,553.963 559.1582,550.4259 555.074,550.4259 553.0319,546.8889 550.9898,550.4259 546.9055,550.4259 548.9476,553.963 546.9055,557.5 542.8213,557.5 540.7792,553.963 538.7371,557.5 534.6529,557.5 532.6108,553.963 534.6529,550.4259 530.5687,550.4259 528.5266,546.8889 530.5687,543.3519 534.6529,543.3519 532.6108,539.8148 534.6529,536.2778 530.5687,536.2778 528.5266,532.7407 526.4844,536.2778 522.4002,536.2778 520.3581,532.7407 522.4002,529.2037 518.316,529.2037 516.2739,525.6667 514.2318,529.2037 510.1476,529.2037 512.1897,532.7407 510.1476,536.2778 506.0634,536.2778 504.0212,532.7407 501.9791,536.2778 497.8949,536.2778 499.937,539.8148 497.8949,543.3519 501.9791,543.3519 504.0212,546.8889 501.9791,550.4259 497.8949,550.4259 499.937,553.963 497.8949,557.5 493.8107,557.5 491.7686,553.963 489.7265,557.5 485.6423,557.5 483.6002,553.963 485.6423,550.4259 481.558,550.4259 479.5159,546.8889 477.4738,550.4259 473.3896,550.4259 475.4317,553.963 473.3896,557.5 469.3054,557.5 467.2633,553.963 465.2212,557.5 461.137,557.5 459.0948,553.963 461.137,550.4259 457.0527,550.4259 455.0106,546.8889 457.0527,543.3519 461.137,543.3519 459.0948,539.8148 461.137,536.2778 457.0527,536.2778 455.0106,532.7407 452.9685,536.2778 448.8843,536.2778 446.8422,532.7407 448.8843,529.2037 444.8001,529.2037 442.758,525.6667 444.8001,522.1296 448.8843,522.1296 446.8422,518.5926 448.8843,515.0556 452.9685,515.0556 455.0106,518.5926 457.0527,515.0556 461.137,515.0556 459.0948,511.5185 461.137,507.9815 457.0527,507.9815 455.0106,504.4444 457.0527,500.9074 461.137,500.9074 459.0948,497.3704 461.137,493.8333 457.0527,493.8333 455.0106,490.2963 452.9685,493.8333 448.8843,493.8333 446.8422,490.2963 448.8843,486.7593 444.8001,486.7593 442.758,483.2222 440.7159,486.7593 436.6316,486.7593 438.6737,490.2963 436.6316,493.8333 432.5474,493.8333 430.5053,490.2963 428.4632,493.8333 424.379,493.8333 422.3369,490.2963 424.379,486.7593 420.2948,486.7593 418.2527,483.2222 420.2948,479.6852 424.379,479.6852 422.3369,476.1481 424.379,472.6111 420.2948,472.6111 418.2527,469.0741 416.2105,472.6111 412.1263,472.6111 410.0842,469.0741 412.1263,465.537 408.0421,465.537 406,462 403.9579,465.537 399.8737,465.537 401.9158,469.0741 399.8737,472.6111 395.7895,472.6111 393.7473,469.0741 391.7052,472.6111 387.621,472.6111 389.6631,476.1481 387.621,479.6852 391.7052,479.6852 393.7473,483.2222 391.7052,486.7593 387.621,486.7593 389.6631,490.2963 387.621,493.8333 383.5368,493.8333 381.4947,490.2963 379.4526,493.8333 375.3684,493.8333 373.3263,490.2963 375.3684,486.7593 371.2841,486.7593 369.242,483.2222 367.1999,486.7593 363.1157,486.7593 365.1578,490.2963 363.1157,493.8333 359.0315,493.8333 356.9894,490.2963 354.9473,493.8333 350.863,493.8333 352.9052,497.3704 350.863,500.9074 354.9473,500.9074 356.9894,504.4444 354.9473,507.9815 350.863,507.9815 352.9052,511.5185 350.863,515.0556 354.9473,515.0556 356.9894,518.5926 359.0315,515.0556 363.1157,515.0556 365.1578,518.5926 363.1157,522.1296 367.1999,522.1296 369.242,525.6667 367.1999,529.2037 363.1157,529.2037 365.1578,532.7407 363.1157,536.2778 359.0315,536.2778 356.9894,532.7407 354.9473,536.2778 350.863,536.2778 352.9052,539.8148 350.863,543.3519 354.9473,543.3519 356.9894,546.8889 354.9473,550.4259 350.863,550.4259 352.9052,553.963 350.863,557.5 346.7788,557.5 344.7367,553.963 342.6946,557.5 338.6104,557.5 336.5683,553.963 338.6104,550.4259 334.5262,550.4259 332.4841,546.8889 330.442,550.4259 326.3577,550.4259 328.3998,553.963 326.3577,557.5 322.2735,557.5 320.2314,553.963 318.1893,557.5 314.1051,557.5 312.063,553.963 314.1051,550.4259 310.0209,550.4259 307.9788,546.8889 310.0209,543.3519 314.1051,543.3519 312.063,539.8148 314.1051,536.2778 310.0209,536.2778 307.9788,532.7407 305.9366,536.2778 301.8524,536.2778 299.8103,532.7407 301.8524,529.2037 297.7682,529.2037 295.7261,525.6667 293.684,529.2037 289.5998,529.2037 291.6419,532.7407 289.5998,536.2778 285.5156,536.2778 283.4734,532.7407 281.4313,536.2778 277.3471,536.2778 279.3892,539.8148 277.3471,543.3519 281.4313,543.3519 283.4734,546.8889 281.4313,550.4259 277.3471,550.4259 279.3892,553.963 277.3471,557.5 273.2629,557.5 271.2208,553.963 269.1787,557.5 265.0945,557.5 263.0524,553.963 265.0945,550.4259 261.0102,550.4259 258.9681,546.8889 256.926,550.4259 252.8418,550.4259 254.8839,553.963 252.8418,557.5 248.7576,557.5 246.7155,553.963 244.6734,557.5 240.5891,557.5 242.6313,553.963 246.7155,553.963 244.6734,550.4259 246.7155,546.8889 250.7997,546.8889 252.8418,550.4259 254.8839,546.8889 258.9681,546.8889 256.926,543.3519 258.9681,539.8148 254.8839,539.8148 252.8418,536.2778 254.8839,532.7407 258.9681,532.7407 256.926,529.2037 258.9681,525.6667 263.0524,525.6667 265.0945,529.2037 267.1366,525.6667 271.2208,525.6667 273.2629,529.2037 271.2208,532.7407 275.305,532.7407 277.3471,536.2778 279.3892,532.7407 283.4734,532.7407 281.4313,529.2037 283.4734,525.6667 287.5577,525.6667 289.5998,529.2037 291.6419,525.6667 295.7261,525.6667 293.684,522.1296 295.7261,518.5926 291.6419,518.5926 289.5998,515.0556 291.6419,511.5185 295.7261,511.5185 293.684,507.9815 295.7261,504.4444 291.6419,504.4444 289.5998,500.9074 287.5577,504.4444 283.4734,504.4444 281.4313,500.9074 283.4734,497.3704 279.3892,497.3704 277.3471,493.8333 279.3892,490.2963 283.4734,490.2963 281.4313,486.7593 283.4734,483.2222 287.5577,483.2222 289.5998,486.7593 291.6419,483.2222 295.7261,483.2222 293.684,479.6852 295.7261,476.1481 291.6419,476.1481 289.5998,472.6111 291.6419,469.0741 295.7261,469.0741 293.684,465.537 295.7261,462 299.8103,462 301.8524,465.537 303.8945,462 307.9788,462 310.0209,465.537 307.9788,469.0741 312.063,469.0741 314.1051,472.6111 316.1472,469.0741 320.2314,469.0741 318.1893,465.537 320.2314,462 324.3156,462 326.3577,465.537 328.3998,462 332.4841,462 334.5262,465.537 332.4841,469.0741 336.5683,469.0741 338.6104,472.6111 336.5683,476.1481 332.4841,476.1481 334.5262,479.6852 332.4841,483.2222 336.5683,483.2222 338.6104,486.7593 340.6525,483.2222 344.7367,483.2222 346.7788,486.7593 344.7367,490.2963 348.8209,490.2963 350.863,493.8333 352.9052,490.2963 356.9894,490.2963 354.9473,486.7593 356.9894,483.2222 361.0736,483.2222 363.1157,486.7593 365.1578,483.2222 369.242,483.2222 367.1999,479.6852 369.242,476.1481 365.1578,476.1481 363.1157,472.6111 365.1578,469.0741 369.242,469.0741 367.1999,465.537 369.242,462 373.3263,462 375.3684,465.537 377.4105,462 381.4947,462 383.5368,465.537 381.4947,469.0741 385.5789,469.0741 387.621,472.6111 389.6631,469.0741 393.7473,469.0741 391.7052,465.537 393.7473,462 397.8316,462 399.8737,465.537 401.9158,462 406,462 403.9579,458.463 406,454.9259 401.9158,454.9259 399.8737,451.3889 401.9158,447.8519 406,447.8519 403.9579,444.3148 406,440.7778 401.9158,440.7778 399.8737,437.2407 397.8316,440.7778 393.7473,440.7778 391.7052,437.2407 393.7473,433.7037 389.6631,433.7037 387.621,430.1667 389.6631,426.6296 393.7473,426.6296 391.7052,423.0926 393.7473,419.5556 397.8316,419.5556 399.8737,423.0926 401.9158,419.5556 406,419.5556 403.9579,416.0185 406,412.4815 401.9158,412.4815 399.8737,408.9444 401.9158,405.4074 406,405.4074 403.9579,401.8704 406,398.3333 401.9158,398.3333 399.8737,394.7963 397.8316,398.3333 393.7473,398.3333 391.7052,394.7963 393.7473,391.2593 389.6631,391.2593 387.621,387.7222 385.5789,391.2593 381.4947,391.2593 383.5368,394.7963 381.4947,398.3333 377.4105,398.3333 375.3684,394.7963 373.3263,398.3333 369.242,398.3333 367.1999,394.7963 369.242,391.2593 365.1578,391.2593 363.1157,387.7222 365.1578,384.1852 369.242,384.1852 367.1999,380.6481 369.242,377.1111 365.1578,377.1111 363.1157,373.5741 361.0736,377.1111 356.9894,377.1111 354.9473,373.5741 356.9894,370.037 352.9052,370.037 350.863,366.5 352.9052,362.963 356.9894,362.963 354.9473,359.4259 356.9894,355.8889 361.0736,355.8889 363.1157,359.4259 365.1578,355.8889 369.242,355.8889 367.1999,352.3519 369.242,348.8148 365.1578,348.8148 363.1157,345.2778 365.1578,341.7407 369.242,341.7407 367.1999,338.2037 369.242,334.6667 373.3263,334.6667 375.3684,338.2037 377.4105,334.6667 381.4947,334.6667 383.5368,338.2037 381.4947,341.7407 385.5789,341.7407 387.621,345.2778 389.6631,341.7407 393.7473,341.7407 391.7052,338.2037 393.7473,334.6667 397.8316,334.6667 399.8737,338.2037 401.9158,334.6667 406,334.6667 403.9579,331.1296 406,327.5926 401.9158,327.5926 399.8737,324.0556 401.9158,320.5185 406,320.5185 403.9579,316.9815 406,313.4444 401.9158,313.4444 399.8737,309.9074 397.8316,313.4444 393.7473,313.4444 391.7052,309.9074 393.7473,306.3704 389.6631,306.3704 387.621,302.8333 389.6631,299.2963 393.7473,299.2963 391.7052,295.7593 393.7473,292.2222 397.8316,292.2222 399.8737,295.7593 401.9158,292.2222 406,292.2222 403.9579,288.6852 406,285.1481 401.9158,285.1481 399.8737,281.6111 401.9158,278.0741 406,278.0741 403.9579,274.537" fill="none" stroke="#333" stroke-width="1"/>
  <g opacity="0.67">
  <g>
  <polygon points="480,317 605.5737,534.5 354.4263,534.5" fill="none" stroke="#333" stroke-width="1.5"/>
  <polygon points="480,353.25 574.1803,516.375 385.8197,516.375" fill="none" stroke="#333" stroke-width="1.5"/>
  <polygon points="480,389.5 542.7868,498.25 417.2132,498.25" fill="none" stroke="#333" stroke-width="1.5"/>
  <polygon points="480,418.5 517.6721,483.75 442.3279,483.75" fill="none" stroke="#333" stroke-width="1.5"/>
  <polygon points="480,599.75 360.705,393.125 599.295,393.125" fill="none" stroke="#333" stroke-width="1.5"/>
  <polygon points="480,563.5 392.0984,411.25 567.9016,411.25" fill="none" stroke="#333" stroke-width="1.5"/>
  <polygon points="480,531.6 419.7246,427.2 540.2754,427.2" fill="none" stroke="#333" stroke-width="1.5"/>
  <polygon points="480,502.6 444.8394,441.7 515.1606,441.7" fill="none" stroke="#333" stroke-width="1.5"/>
  <polygon points="480,483.75 461.1639,451.125 498.8361,451.125" fill="none" stroke="#333" stroke-width="1.5"/>
</g>
</g>
</svg>