<svg xmlns="http://www.w3.org/2000/svg" width="800" height="800" viewBox="0 0 800 800">
  <g>
  <polygon points="236,349 274,349 274,387" fill="none" stroke="#333" stroke-width="1"/>
  <polygon points="236,349 274,387 247.1299,413.8701" fill="none" stroke="#333" stroke-width="1"/>
  <polygon points="236,349 247.1299,413.8701 209.6772,420.2959" fill="none" stroke="#333" stroke-width="1"/>
  <polygon points="236,349 209.6772,420.2959 174.0292,407.1345" fill="none" stroke="#333" stroke-width="1"/>
  <polygon points="236,349 174.0292,407.1345 148.0307,379.4204" fill="none" stroke="#333" stroke-width="1"/>
  <polygon points="236,349 148.0307,379.4204 135.6116,343.507" fill="none" stroke="#333" stroke-width="1"/>
  <polygon points="236,349 135.6116,343.507 137.6878,305.5638" fill="none" stroke="#333" stroke-width="1"/>
  <polygon points="236,349 137.6878,305.5638 153.0448,270.8052" fill="none" stroke="#333" stroke-width="1"/>
  <polygon points="236,349 153.0448,270.8052 179.1097,243.1534" fill="none" stroke="#333" stroke-width="1"/>
  <polygon points="236,349 179.1097,243.1534 212.5813,225.1631" fill="none" stroke="#333" stroke-width="1"/>
  <polygon points="236,349 212.5813,225.1631 249.9196,218.1022" fill="none" stroke="#333" stroke-width="1"/>
  <polygon points="236,349 249.9196,218.1022 287.7065,222.1204" fill="none" stroke="#333" stroke-width="1"/>
  <polygon points="236,349 287.7065,222.1204 322.8966,236.4612" fill="none" stroke="#333" stroke-width="1"/>
</g>
  <g opacity="1.00">
  <g>
  <circle cx="514" cy="371" r="8.0251" stroke="#e74c3c" stroke-width="2" fill="#e74c3c" fill-opacity="0.08"/>
  <circle cx="522.0251" cy="371" r="3" fill="#e74c3c" stroke="none"/>
  <circle cx="509.9874" cy="364.05" r="3" fill="#e74c3c" stroke="none"/>
  <circle cx="509.9874" cy="377.95" r="3" fill="#e74c3c" stroke="none"/>
  <text x="530.0251" y="375" font-size="10" fill="#e74c3c">3D c3 seed</text>
  <circle cx="514" cy="371" r="12.9849" stroke="#e67e22" stroke-width="2" fill="#e67e22" fill-opacity="0.08"/>
  <circle cx="526.9849" cy="371" r="3" fill="#e67e22" stroke="none"/>
  <circle cx="514" cy="358.0151" r="3" fill="#e67e22" stroke="none"/>
  <circle cx="501.0151" cy="371" r="3" fill="#e67e22" stroke="none"/>
  <circle cx="514" cy="383.9849" r="3" fill="#e67e22" stroke="none"/>
  <text x="534.9849" y="375" font-size="10" fill="#e67e22">4D E4 base</text>
  <circle cx="514" cy="371" r="21.01" stroke="#f1c40f" stroke-width="2" fill="#f1c40f" fill-opacity="0.08"/>
  <circle cx="535.01" cy="371" r="3" fill="#f1c40f" stroke="none"/>
  <circle cx="524.505" cy="352.8048" r="3" fill="#f1c40f" stroke="none"/>
  <circle cx="503.495" cy="352.8048" r="3" fill="#f1c40f" stroke="none"/>
  <circle cx="492.99" cy="371" r="3" fill="#f1c40f" stroke="none"/>
  <circle cx="503.495" cy="389.1952" r="3" fill="#f1c40f" stroke="none"/>
  <circle cx="524.505" cy="389.1952" r="3" fill="#f1c40f" stroke="none"/>
  <text x="543.01" y="375" font-size="10" fill="#f1c40f">6D W3 Mobius</text>
  <circle cx="514" cy="371" r="33.995" stroke="#2ecc71" stroke-width="2" fill="#2ecc71" fill-opacity="0.08"/>
  <circle cx="547.995" cy="371" r="3" fill="#2ecc71" stroke="none"/>
  <circle cx="538.0381" cy="346.9619" r="3" fill="#2ecc71" stroke="none"/>
  <circle cx="514" cy="337.005" r="3" fill="#2ecc71" stroke="none"/>
  <circle cx="489.9619" cy="346.9619" r="3" fill="#2ecc71" stroke="none"/>
  <circle cx="480.005" cy="371" r="3" fill="#2ecc71" stroke="none"/>
  <circle cx="489.9619" cy="395.0381" r="3" fill="#2ecc71" stroke="none"/>
  <circle cx="514" cy="404.995" r="3" fill="#2ecc71" stroke="none"/>
  <circle cx="538.0381" cy="395.0381" r="3" fill="#2ecc71" stroke="none"/>
  <text x="555.995" y="375" font-size="10" fill="#2ecc71">8D W5 penta</text>
  <circle cx="514" cy="371" r="55.005" stroke="#3498db" stroke-width="2" fill="#3498db" fill-opacity="0.08"/>
  <circle cx="569.005" cy="371" r="3" fill="#3498db" stroke="none"/>
  <circle cx="558.5" cy="338.6689" r="3" fill="#3498db" stroke="none"/>
  <circle cx="530.9975" cy="318.6871" r="3" fill="#3498db" stroke="none"/>
  <circle cx="497.0025" cy="318.6871" r="3" fill="#3498db" stroke="none"/>
  <circle cx="469.5" cy="338.6689" r="3" fill="#3498db" stroke="none"/>
  <circle cx="458.995" cy="371" r="3" fill="#3498db" stroke="none"/>
  <circle cx="469.5" cy="403.3311" r="3" fill="#3498db" stroke="none"/>
  <circle cx="497.0025" cy="423.3129" r="3" fill="#3498db" stroke="none"/>
  <circle cx="530.9975" cy="423.3129" r="3" fill="#3498db" stroke="none"/>
  <circle cx="558.5" cy="403.3311" r="3" fill="#3498db" stroke="none"/>
  <text x="577.005" y="375" font-size="10" fill="#3498db">10D W7 hepta</text>
  <circle cx="514" cy="371" r="89" stroke="#9b59b6" stroke-width="2" fill="#9b59b6" fill-opacity="0.08"/>
  <circle cx="603" cy="371" r="3" fill="#9b59b6" stroke="none"/>
  <circle cx="591.0763" cy="326.5" r="3" fill="#9b59b6" stroke="none"/>
  <circle cx="558.5" cy="293.9237" r="3" fill="#9b59b6" stroke="none"/>
  <circle cx="514" cy="282" r="3" fill="#9b59b6" stroke="none"/>
  <circle cx="469.5" cy="293.9237" r="3" fill="#9b59b6" stroke="none"/>
  <circle cx="436.9237" cy="326.5" r="3" fill="#9b59b6" stroke="none"/>
  <circle cx="425" cy="371" r="3" fill="#9b59b6" stroke="none"/>
  <circle cx="436.9237" cy="415.5" r="3" fill="#9b59b6" stroke="none"/>
  <circle cx="469.5" cy="448.0763" r="3" fill="#9b59b6" stroke="none"/>
  <circle cx="514" cy="460" r="3" fill="#9b59b6" stroke="none"/>
  <circle cx="558.5" cy="448.0763" r="3" fill="#9b59b6" stroke="none"/>
  <circle cx="591.0763" cy="415.5" r="3" fill="#9b59b6" stroke="none"/>
  <text x="611" y="375" font-size="10" fill="#9b59b6">12D W9 crown</text>
</g>
</g>
  <g opacity="0.66">
  <polygon points="401,199 403.6943,203.6667 401,208.3333 406.3886,208.3333 409.0829,213 406.3886,217.6667 401,217.6667 403.6943,222.3333 401,227 406.3886,227 409.0829,231.6667 411.7772,227 417.1658,227 419.8601,231.6667 417.1658,236.3333 422.5544,236.3333 425.2487,241 422.5544,245.6667 417.1658,245.6667 419.8601,250.3333 417.1658,255 411.7772,255 409.0829,250.3333 406.3886,255 401,255 403.6943,259.6667 401,264.3333 406.3886,264.3333 409.0829,269 406.3886,273.6667 401,273.6667 403.6943,278.3333 401,283 406.3886,283 409.0829,287.6667 411.7772,283 417.1658,283 419.8601,287.6667 417.1658,292.3333 422.5544,292.3333 425.2487,297 427.943,292.3333 433.3316,292.3333 430.6373,287.6667 433.3316,283 438.7202,283 441.4145,287.6667 444.1088,283 449.4974,283 452.1917,287.6667 449.4974,292.3333 454.886,292.3333 457.5803,297 454.886,301.6667 449.4974,301.6667 452.1917,306.3333 449.4974,311 454.886,311 457.5803,315.6667 460.2746,311 465.6632,311 468.3575,315.6667 465.6632,320.3333 471.0518,320.3333 473.7461,325 471.0518,329.6667 465.6632,329.6667 468.3575,334.3333 465.6632,339 460.2746,339 457.5803,334.3333 454.886,339 449.4974,339 452.1917,343.6667 449.4974,348.3333 454.886,348.3333 457.5803,353 454.886,357.6667 449.4974,357.6667 452.1917,362.3333 449.4974,367 444.1088,367 441.4145,362.3333 438.7202,367 433.3316,367 430.6373,362.3333 433.3316,357.6667 427.943,357.6667 425.2487,353 422.5544,357.6667 417.1658,357.6667 419.8601,362.3333 417.1658,367 411.7772,367 409.0829,362.3333 406.3886,367 401,367 403.6943,371.6667 401,376.3333 406.3886,376.3333 409.0829,381 406.3886,385.6667 401,385.6667 403.6943,390.3333 401,395 406.3886,395 409.0829,399.6667 411.7772,395 417.1658,395 419.8601,399.6667 417.1658,404.3333 422.5544,404.3333 425.2487,409 422.5544,413.6667 417.1658,413.6667 419.8601,418.3333 417.1658,423 411.7772,423 409.0829,418.3333 406.3886,423 401,423 403.6943,427.6667 401,432.3333 406.3886,432.3333 409.0829,437 406.3886,441.6667 401,441.6667 403.6943,446.3333 401,451 406.3886,451 409.0829,455.6667 411.7772,451 417.1658,451 419.8601,455.6667 417.1658,460.3333 422.5544,460.3333 425.2487,465 427.943,460.3333 433.3316,460.3333 430.6373,455.6667 433.3316,451 438.7202,451 441.4145,455.6667 444.1088,451 449.4974,451 452.1917,455.6667 449.4974,460.3333 454.886,460.3333 457.5803,465 454.886,469.6667 449.4974,469.6667 452.1917,474.3333 449.4974,479 454.886,479 457.5803,483.6667 460.2746,479 465.6632,479 468.3575,483.6667 465.6632,488.3333 471.0518,488.3333 473.7461,493 476.4404,488.3333 481.829,488.3333 479.1347,483.6667 481.829,479 487.2176,479 489.9119,483.6667 492.6062,479 497.9948,479 495.3005,474.3333 497.9948,469.6667 492.6062,469.6667 489.9119,465 492.6062,460.3333 497.9948,460.3333 495.3005,455.6667 497.9948,451 503.3834,451 506.0777,455.6667 508.7721,451 514.1607,451 516.855,455.6667 514.1607,460.3333 519.5493,460.3333 522.2436,465 524.9379,460.3333 530.3265,460.3333 527.6322,455.6667 530.3265,451 535.7151,451 538.4094,455.6667 541.1037,451 546.4923,451 549.1866,455.6667 546.4923,460.3333 551.8809,460.3333 554.5752,465 551.8809,469.6667 546.4923,469.6667 549.1866,474.3333 546.4923,479 551.8809,479 554.5752,483.6667 557.2695,479 562.6581,479 565.3524,483.6667 562.6581,488.3333 568.0467,488.3333 570.741,493 568.0467,497.6667 562.6581,497.6667 565.3524,502.3333 562.6581,507 557.2695,507 554.5752,502.3333 551.8809,507 546.4923,507 549.1866,511.6667 546.4923,516.3333 551.8809,516.3333 554.5752,521 551.8809,525.6667 546.4923,525.6667 549.1866,530.3333 546.4923,535 551.8809,535 554.5752,539.6667 557.2695,535 562.6581,535 565.3524,539.6667 562.6581,544.3333 568.0467,544.3333 570.741,549 573.4353,544.3333 578.8239,544.3333 576.1296,539.6667 578.8239,535 584.2125,535 586.9068,539.6667 589.6011,535 594.9897,535 597.684,539.6667 594.9897,544.3333 600.3783,544.3333 603.0726,549 600.3783,553.6667 594.9897,553.6667 597.684,558.3333 594.9897,563 600.3783,563 603.0726,567.6667 605.7669,563 611.1555,563 613.8498,567.6667 611.1555,572.3333 616.5441,572.3333 619.2384,577 613.8498,577 611.1555,572.3333 608.4612,577 603.0726,577 600.3783,572.3333 603.0726,567.6667 597.684,567.6667 594.9897,563 592.2954,567.6667 586.9068,567.6667 589.6011,572.3333 586.9068,577 581.5182,577 578.8239,572.3333 576.1296,577 570.741,577 568.0467,572.3333 570.741,567.6667 565.3524,567.6667 562.6581,563 565.3524,558.3333 570.741,558.3333 568.0467,553.6667 570.741,549 565.3524,549 562.6581,544.3333 559.9638,549 554.5752,549 551.8809,544.3333 554.5752,539.6667 549.1866,539.6667 546.4923,535 543.798,539.6667 538.4094,539.6667 541.1037,544.3333 538.4094,549 533.0208,549 530.3265,544.3333 527.6322,549 522.2436,549 524.9379,553.6667 522.2436,558.3333 527.6322,558.3333 530.3265,563 527.6322,567.6667 522.2436,567.6667 524.9379,572.3333 522.2436,577 516.855,577 514.1607,572.3333 511.4664,577 506.0777,577 503.3834,572.3333 506.0777,567.6667 500.6891,567.6667 497.9948,563 495.3005,567.6667 489.9119,567.6667 492.6062,572.3333 489.9119,577 484.5233,577 481.829,572.3333 479.1347,577 473.7461,577 471.0518,572.3333 473.7461,567.6667 468.3575,567.6667 465.6632,563 468.3575,558.3333 473.7461,558.3333 471.0518,553.6667 473.7461,549 468.3575,549 465.6632,544.3333 462.9689,549 457.5803,549 454.886,544.3333 457.5803,539.6667 452.1917,539.6667 449.4974,535 452.1917,530.3333 457.5803,530.3333 454.886,525.6667 457.5803,521 462.9689,521 465.6632,525.6667 468.3575,521 473.7461,521 471.0518,516.3333 473.7461,511.6667 468.3575,511.6667 465.6632,507 468.3575,502.3333 473.7461,502.3333 471.0518,497.6667 473.7461,493 468.3575,493 465.6632,488.3333 462.9689,493 457.5803,493 454.886,488.3333 457.5803,483.6667 452.1917,483.6667 449.4974,479 446.8031,483.6667 441.4145,483.6667 444.1088,488.3333 441.4145,493 436.0259,493 433.3316,488.3333 430.6373,493 425.2487,493 422.5544,488.3333 425.2487,483.6667 419.8601,483.6667 417.1658,479 419.8601,474.3333 425.2487,474.3333 422.5544,469.6667 425.2487,465 419.8601,465 417.1658,460.3333 414.4715,465 409.0829,465 406.3886,460.3333 409.0829,455.6667 403.6943,455.6667 401,451 398.3057,455.6667 392.9171,455.6667 395.6114,460.3333 392.9171,465 387.5285,465 384.8342,460.3333 382.1399,465 376.7513,465 379.4456,469.6667 376.7513,474.3333 382.1399,474.3333 384.8342,479 382.1399,483.6667 376.7513,483.6667 379.4456,488.3333 376.7513,493 371.3627,493 368.6684,488.3333 365.9741,493 360.5855,493 357.8912,488.3333 360.5855,483.6667 355.1969,483.6667 352.5026,479 349.8083,483.6667 344.4197,483.6667 347.114,488.3333 344.4197,493 339.0311,493 336.3368,488.3333 333.6425,493 328.2539,493 330.9482,497.6667 328.2539,502.3333 333.6425,502.3333 336.3368,507 333.6425,511.6667 328.2539,511.6667 330.9482,516.3333 328.2539,521 333.6425,521 336.3368,525.6667 339.0311,521 344.4197,521 347.114,525.6667 344.4197,530.3333 349.8083,530.3333 352.5026,535 349.8083,539.6667 344.4197,539.6667 347.114,544.3333 344.4197,549 339.0311,549 336.3368,544.3333 333.6425,549 328.2539,549 330.9482,553.6667 328.2539,558.3333 333.6425,558.3333 336.3368,563 333.6425,567.6667 328.2539,567.6667 330.9482,572.3333 328.2539,577 322.8653,577 320.171,572.3333 317.4767,577 312.0881,577 309.3938,572.3333 312.0881,567.6667 306.6995,567.6667 304.0052,563 301.3109,567.6667 295.9223,567.6667 298.6166,572.3333 295.9223,577 290.5336,577 287.8393,572.3333 285.145,577 279.7564,577 277.0621,572.3333 279.7564,567.6667 274.3678,567.6667 271.6735,563 274.3678,558.3333 279.7564,558.3333 277.0621,553.6667 279.7564,549 274.3678,549 271.6735,544.3333 268.9792,549 263.5906,549 260.8963,544.3333 263.5906,539.6667 258.202,539.6667 255.5077,535 252.8134,539.6667 247.4248,539.6667 250.1191,544.3333 247.4248,549 242.0362,549 239.3419,544.3333 236.6476,549 231.259,549 233.9533,553.6667 231.259,558.3333 236.6476,558.3333 239.3419,563 236.6476,567.6667 231.259,567.6667 233.9533,572.3333 231.259,577 225.8704,577 223.1761,572.3333 220.4818,577 215.0932,577 212.3989,572.3333 215.0932,567.6667 209.7046,567.6667 207.0103,563 204.316,567.6667 198.9274,567.6667 201.6217,572.3333 198.9274,577 193.5388,577 190.8445,572.3333 188.1502,577 182.7616,577 185.4559,572.3333 190.8445,572.3333 188.1502,567.6667 190.8445,563 196.2331,563 198.9274,567.6667 201.6217,563 207.0103,563 204.316,558.3333 207.0103,553.6667 201.6217,553.6667 198.9274,549 201.6217,544.3333 207.0103,544.3333 204.316,539.6667 207.0103,535 212.3989,535 215.0932,539.6667 217.7875,535 223.1761,535 225.8704,539.6667 223.1761,544.3333 228.5647,544.3333 231.259,549 233.9533,544.3333 239.3419,544.3333 236.6476,539.6667 239.3419,535 244.7305,535 247.4248,539.6667 250.1191,535 255.5077,535 252.8134,530.3333 255.5077,525.6667 250.1191,525.6667 247.4248,521 250.1191,516.3333 255.5077,516.3333 252.8134,511.6667 255.5077,507 250.1191,507 247.4248,502.3333 244.7305,507 239.3419,507 236.6476,502.3333 239.3419,497.6667 233.9533,497.6667 231.259,493 233.9533,488.3333 239.3419,488.3333 236.6476,483.6667 239.3419,479 244.7305,479 247.4248,483.6667 250.1191,479 255.5077,479 252.8134,474.3333 255.5077,469.6667 250.1191,469.6667 247.4248,465 250.1191,460.3333 255.5077,460.3333 252.8134,455.6667 255.5077,451 260.8963,451 263.5906,455.6667 266.2849,451 271.6735,451 274.3678,455.6667 271.6735,460.3333 277.0621,460.3333 279.7564,465 282.4507,460.3333 287.8393,460.3333 285.145,455.6667 287.8393,451 293.2279,451 295.9223,455.6667 298.6166,451 304.0052,451 306.6995,455.6667 304.0052,460.3333 309.3938,460.3333 312.0881,465 309.3938,469.6667 304.0052,469.6667 306.6995,474.3333 304.0052,479 309.3938,479 312.0881,483.6667 314.7824,479 320.171,479 322.8653,483.6667 320.171,488.3333 325.5596,488.3333 328.2539,493 330.9482,488.3333 336.3368,488.3333 333.6425,483.6667 336.3368,479 341.7254,479 344.4197,483.6667 347.114,479 352.5026,479 349.8083,474.3333 352.5026,469.6667 347.114,469.6667 344.4197,465 347.114,460.3333 352.5026,460.3333 349.8083,455.6667 352.5026,451 357.8912,451 360.5855,455.6667 363.2798,451 368.6684,451 371.3627,455.6667 368.6684,460.3333 374.057,460.3333 376.7513,465 379.4456,460.3333 384.8342,460.3333 382.1399,455.6667 384.8342,451 390.2228,451 392.9171,455.6667 395.6114,451 401,451 398.3057,446.3333 401,441.6667 395.6114,441.6667 392.9171,437 395.6114,432.3333 401,432.3333 398.3057,427.6667 401,423 395.6114,423 392.9171,418.3333 390.2228,423 384.8342,423 382.1399,418.3333 384.8342,413.6667 379.4456,413.6667 376.7513,409 379.4456,404.3333 384.8342,404.3333 382.1399,399.6667 384.8342,395 390.2228,395 392.9171,399.6667 395.6114,395 401,395 398.3057,390.3333 401,385.6667 395.6114,385.6667 392.9171,381 395.6114,376.3333 401,376.3333 398.3057,371.6667 401,367 395.6114,367 392.9171,362.3333 390.2228,367 384.8342,367 382.1399,362.3333 384.8342,357.6667 379.4456,357.6667 376.7513,353 374.057,357.6667 368.6684,357.6667 371.3627,362.3333 368.6684,367 363.2798,367 360.5855,362.3333 357.8912,367 352.5026,367 349.8083,362.3333 352.5026,357.6667 347.114,357.6667 344.4197,353 347.114,348.3333 352.5026,348.3333 349.8083,343.6667 352.5026,339 347.114,339 344.4197,334.3333 341.7254,339 336.3368,339 333.6425,334.3333 336.3368,329.6667 330.9482,329.6667 328.2539,325 330.9482,320.3333 336.3368,320.3333 333.6425,315.6667 336.3368,311 341.7254,311 344.4197,315.6667 347.114,311 352.5026,311 349.8083,306.3333 352.5026,301.6667 347.114,301.6667 344.4197,297 347.114,292.3333 352.5026,292.3333 349.8083,287.6667 352.5026,283 357.8912,283 360.5855,287.6667 363.2798,283 368.6684,283 371.3627,287.6667 368.6684,292.3333 374.057,292.3333 376.7513,297 379.4456,292.3333 384.8342,292.3333 382.1399,287.6667 384.8342,283 390.2228,283 392.9171,287.6667 395.6114,283 401,283 398.3057,278.3333 401,273.6667 395.6114,273.6667 392.9171,269 395.6114,264.3333 401,264.3333 398.3057,259.6667 401,255 395.6114,255 392.9171,250.3333 390.2228,255 384.8342,255 382.1399,250.3333 384.8342,245.6667 379.4456,245.6667 376.7513,241 379.4456,236.3333 384.8342,236.3333 382.1399,231.6667 384.8342,227 390.2228,227 392.9171,231.6667 395.6114,227 401,227 398.3057,222.3333 401,217.6667 395.6114,217.6667 392.9171,213 395.6114,208.3333 401,208.3333 398.3057,203.6667" fill="none" stroke="#333" stroke-width="1"/>
</g>
  <g transform="rotate(-115.3,400,400)">
  <g>
  <line x1="259" y1="350" x2="514" y2="350" stroke="#333" stroke-width="1.5"/>
  <line x1="257.808" y1="357.1434" x2="498.9914" y2="439.9418" stroke="#333" stroke-width="1.5"/>
  <line x1="254.3611" y1="363.5127" x2="455.5919" y2="520.1369" stroke="#333" stroke-width="1.5"/>
  <line x1="249.0329" y1="368.4177" x2="388.5046" y2="581.8951" stroke="#333" stroke-width="1.5"/>
  <line x1="242.4007" y1="371.3268" x2="304.9995" y2="618.5239" stroke="#333" stroke-width="1.5"/>
  <line x1="235.1833" y1="371.9249" x2="214.1255" y2="626.0539" stroke="#333" stroke-width="1.5"/>
  <line x1="228.1627" y1="370.147" x2="125.7304" y2="603.6692" stroke="#333" stroke-width="1.5"/>
  <line x1="222.0998" y1="366.1859" x2="49.393" y2="553.7955" stroke="#333" stroke-width="1.5"/>
  <line x1="217.6516" y1="360.4708" x2="-6.6142" y2="481.8374" stroke="#333" stroke-width="1.5"/>
  <line x1="215.3001" y1="353.6211" x2="-36.2221" y2="395.5927" stroke="#333" stroke-width="1.5"/>
  <line x1="215.3001" y1="346.3789" x2="-36.2221" y2="304.4073" stroke="#333" stroke-width="1.5"/>
  <line x1="217.6516" y1="339.5292" x2="-6.6142" y2="218.1626" stroke="#333" stroke-width="1.5"/>
  <line x1="222.0998" y1="333.8141" x2="49.393" y2="146.2045" stroke="#333" stroke-width="1.5"/>
  <line x1="228.1627" y1="329.853" x2="125.7304" y2="96.3308" stroke="#333" stroke-width="1.5"/>
  <line x1="235.1833" y1="328.0751" x2="214.1255" y2="73.9461" stroke="#333" stroke-width="1.5"/>
  <line x1="242.4007" y1="328.6732" x2="304.9995" y2="81.4761" stroke="#333" stroke-width="1.5"/>
  <line x1="249.0329" y1="331.5823" x2="388.5046" y2="118.1049" stroke="#333" stroke-width="1.5"/>
  <line x1="254.3611" y1="336.4873" x2="455.5919" y2="179.8631" stroke="#333" stroke-width="1.5"/>
  <line x1="257.808" y1="342.8566" x2="498.9914" y2="260.0582" stroke="#333" stroke-width="1.5"/>
</g>
</g>
  <g>
  <line x1="540" y1="498" x2="612" y2="498" stroke="#999" stroke-width="0.5"/>
  <line x1="540" y1="498" x2="576" y2="560.3538" stroke="#999" stroke-width="0.5"/>
  <line x1="540" y1="498" x2="504" y2="560.3538" stroke="#999" stroke-width="0.5"/>
  <line x1="540" y1="498" x2="468" y2="498" stroke="#999" stroke-width="0.5"/>
  <line x1="540" y1="498" x2="504" y2="435.6462" stroke="#999" stroke-width="0.5"/>
  <line x1="540" y1="498" x2="576" y2="435.6462" stroke="#999" stroke-width="0.5"/>
  <line x1="540" y1="498" x2="664.7077" y2="570" stroke="#999" stroke-width="0.5"/>
  <line x1="540" y1="498" x2="540" y2="642" stroke="#999" stroke-width="0.5"/>
  <line x1="540" y1="498" x2="415.2923" y2="570" stroke="#999" stroke-width="0.5"/>
  <line x1="540" y1="498" x2="415.2923" y2="426" stroke="#999" stroke-width="0.5"/>
  <line x1="540" y1="498" x2="540" y2="354" stroke="#999" stroke-width="0.5"/>
  <line x1="540" y1="498" x2="664.7077" y2="426" stroke="#999" stroke-width="0.5"/>
  <line x1="612" y1="498" x2="576" y2="560.3538" stroke="#999" stroke-width="0.5"/>
  <line x1="612" y1="498" x2="504" y2="560.3538" stroke="#999" stroke-width="0.5"/>
  <line x1="612" y1="498" x2="468" y2="498" stroke="#999" stroke-width="0.5"/>
  <line x1="612" y1="498" x2="504" y2="435.6462" stroke="#999" stroke-width="0.5"/>
  <line x1="612" y1="498" x2="576" y2="435.6462" stroke="#999" stroke-width="0.5"/>
  <line x1="612" y1="498" x2="664.7077" y2="570" stroke="#999" stroke-width="0.5"/>
  <line x1="612" y1="498" x2="540" y2="642" stroke="#999" stroke-width="0.5"/>
  <line x1="612" y1="498" x2="415.2923" y2="570" stroke="#999" stroke-width="0.5"/>
  <line x1="612" y1="498" x2="415.2923" y2="426" stroke="#999" stroke-width="0.5"/>
  <line x1="612" y1="498" x2="540" y2="354" stroke="#999" stroke-width="0.5"/>
  <line x1="612" y1="498" x2="664.7077" y2="426" stroke="#999" stroke-width="0.5"/>
  <line x1="576" y1="560.3538" x2="504" y2="560.3538" stroke="#999" stroke-width="0.5"/>
  <line x1="576" y1="560.3538" x2="468" y2="498" stroke="#999" stroke-width="0.5"/>
  <line x1="576" y1="560.3538" x2="504" y2="435.6462" stroke="#999" stroke-width="0.5"/>
  <line x1="576" y1="560.3538" x2="576" y2="435.6462" stroke="#999" stroke-width="0.5"/>
  <line x1="576" y1="560.3538" x2="664.7077" y2="570" stroke="#999" stroke-width="0.5"/>
  <line x1="576" y1="560.3538" x2="540" y2="642" stroke="#999" stroke-width="0.5"/>
  <line x1="576" y1="560.3538" x2="415.2923" y2="570" stroke="#999" stroke-width="0.5"/>
  <line x1="576" y1="560.3538" x2="415.2923" y2="426" stroke="#999" stroke-width="0.5"/>
  <line x1="576" y1="560.3538" x2="540" y2="354" stroke="#999" stroke-width="0.5"/>
  <line x1="576" y1="560.3538" x2="664.7077" y2="426" stroke="#999" stroke-width="0.5"/>
  <line x1="504" y1="560.3538" x2="468" y2="498" stroke="#999" stroke-width="0.5"/>
  <line x1="504" y1="560.3538" x2="504" y2="435.6462" stroke="#999" stroke-width="0.5"/>
  <line x1="504" y1="560.3538" x2="576" y2="435.6462" stroke="#999" stroke-width="0.5"/>
  <line x1="504" y1="560.3538" x2="664.7077" y2="570" stroke="#999" stroke-width="0.5"/>
  <line x1="504" y1="560.3538" x2="540" y2="642" stroke="#999" stroke-width="0.5"/>
  <line x1="504" y1="560.3538" x2="415.2923" y2="570" stroke="#999" stroke-width="0.5"/>
  <line x1="504" y1="560.3538" x2="415.2923" y2="426" stroke="#999" stroke-width="0.5"/>
  <line x1="504" y1="560.3538" x2="540" y2="354" stroke="#999" stroke-width="0.5"/>
  <line x1="504" y1="560.3538" x2="664.7077" y2="426" stroke="#999" stroke-width="0.5"/>
  <line x1="468" y1="498" x2="504" y2="435.6462" stroke="#999" stroke-width="0.5"/>
  <line x1="468" y1="498" x2="576" y2="435.6462" stroke="#999" stroke-width="0.5"/>
  <line x1="468" y1="498" x2="664.7077" y2="570" stroke="#999" stroke-width="0.5"/>
  <line x1="468" y1="498" x2="540" y2="642" stroke="#999" stroke-width="0.5"/>
  <line x1="468" y1="498" x2="415.2923" y2="570" stroke="#999" stroke-width="0.5"/>
  <line x1="468" y1="498" x2="415.2923" y2="426" stroke="#999" stroke-width="0.5"/>
  <line x1="468" y1="498" x2="540" y2="354" stroke="#999" stroke-width="0.5"/>
  <line x1="468" y1="498" x2="664.7077" y2="426" stroke="#999" stroke-width="0.5"/>
  <line x1="504" y1="435.6462" x2="576" y2="435.6462" stroke="#999" stroke-width="0.5"/>
  <line x1="504" y1="435.6462" x2="664.7077" y2="570" stroke="#999" stroke-width="0.5"/>
  <line x1="504" y1="435.6462" x2="540" y2="642" stroke="#999" stroke-width="0.5"/>
  <line x1="504" y1="435.6462" x2="415.2923" y2="570" stroke="#999" stroke-width="0.5"/>
  <line x1="504" y1="435.6462" x2="415.2923" y2="426" stroke="#999" stroke-width="0.5"/>
  <line x1="504" y1="435.6462" x2="540" y2="354" stroke="#999" stroke-width="0.5"/>
  <line x1="504" y1="435.6462" x2="664.7077" y2="426" stroke="#999" stroke-width="0.5"/>
  <line x1="576" y1="435.6462" x2="664.7077" y2="570" stroke="#999" stroke-width="0.5"/>
  <line x1="576" y1="435.6462" x2="540" y2="642" stroke="#999" stroke-width="0.5"/>
  <line x1="576" y1="435.6462" x2="415.2923" y2="570" stroke="#999" stroke-width="0.5"/>
  <line x1="576" y1="435.6462" x2="415.2923" y2="426" stroke="#999" stroke-width="0.5"/>
  <line x1="576" y1="435.6462" x2="540" y2="354" stroke="#999" stroke-width="0.5"/>
  <line x1="576" y1="435.6462" x2="664.7077" y2="426" stroke="#999" stroke-width="0.5"/>
  <line x1="664.7077" y1="570" x2="540" y2="642" stroke="#999" stroke-width="0.5"/>
  <line x1="664.7077" y1="570" x2="415.2923" y2="570" stroke="#999" stroke-width="0.5"/>
  <line x1="664.7077" y1="570" x2="415.2923" y2="426" stroke="#999" stroke-width="0.5"/>
  <line x1="664.7077" y1="570" x2="540" y2="354" stroke="#999" stroke-width="0.5"/>
  <line x1="664.7077" y1="570" x2="664.7077" y2="426" stroke="#999" stroke-width="0.5"/>
  <line x1="540" y1="642" x2="415.2923" y2="570" stroke="#999" stroke-width="0.5"/>
  <line x1="540" y1="642" x2="415.2923" y2="426" stroke="#999" stroke-width="0.5"/>
  <line x1="540" y1="642" x2="540" y2="354" stroke="#999" stroke-width="0.5"/>
  <line x1="540" y1="642" x2="664.7077" y2="426" stroke="#999" stroke-width="0.5"/>
  <line x1="415.2923" y1="570" x2="415.2923" y2="426" stroke="#999" stroke-width="0.5"/>
  <line x1="415.2923" y1="570" x2="540" y2="354" stroke="#999" stroke-width="0.5"/>
  <line x1="415.2923" y1="570" x2="664.7077" y2="426" stroke="#999" stroke-width="0.5"/>
  <line x1="415.2923" y1="426" x2="540" y2="354" stroke="#999" stroke-width="0.5"/>
  <line x1="415.2923" y1="426" x2="664.7077" y2="426" stroke="#999" stroke-width="0.5"/>
  <line x1="540" y1="354" x2="664.7077" y2="426" stroke="#999" stroke-width="0.5"/>
  <circle cx="540" cy="498" r="10.8" fill="none" stroke="#333" stroke-width="1"/>
  <circle cx="612" cy="498" r="10.8" fill="none" stroke="#333" stroke-width="1"/>
  <circle cx="576" cy="560.3538" r="10.8" fill="none" stroke="#333" stroke-width="1"/>
  <circle cx="504" cy="560.3538" r="10.8" fill="none" stroke="#333" stroke-width="1"/>
  <circle cx="468" cy="498" r="10.8" fill="none" stroke="#333" stroke-width="1"/>
  <circle cx="504" cy="435.6462" r="10.8" fill="none" stroke="#333" stroke-width="1"/>
  <circle cx="576" cy="435.6462" r="10.8" fill="none" stroke="#333" stroke-width="1"/>
  <circle cx="664.7077" cy="570" r="10.8" fill="none" stroke="#333" stroke-width="1"/>
  <circle cx="540" cy="642" r="10.8" fill="none" stroke="#333" stroke-width="1"/>
  <circle cx="415.2923" cy="570" r="10.8" fill="none" stroke="#333" stroke-width="1"/>
  <circle cx="415.2923" cy="426" r="10.8" fill="none" stroke="#333" stroke-width="1"/>
  <circle cx="540" cy="354" r="10.8" fill="none" stroke="#333" stroke-width="1"/>
  <circle cx="664.7077" cy="426" r="10.8" fill="none" stroke="#333" stroke-width="1"/>
</g>
</svg>