<svg xmlns="http://www.w3.org/2000/svg" width="800" height="800" viewBox="0 0 800 800">
  <g transform="rotate(2.5,400,400)">
  <g>
  <polygon points="400,242 395.9946,248.9375 404.0054,248.9375" fill="#333" stroke="none"/>
  <polygon points="395.9946,248.9375 391.9893,255.875 400,255.875" fill="#333" stroke="none"/>
  <polygon points="404.0054,248.9375 400,255.875 408.0107,255.875" fill="#333" stroke="none"/>
  <polygon points="391.9893,255.875 387.9839,262.8125 395.9946,262.8125" fill="#333" stroke="none"/>
  <polygon points="387.9839,262.8125 383.9785,269.75 391.9893,269.75" fill="#333" stroke="none"/>
  <polygon points="395.9946,262.8125 391.9893,269.75 400,269.75" fill="#333" stroke="none"/>
  <polygon points="408.0107,255.875 404.0054,262.8125 412.0161,262.8125" fill="#333" stroke="none"/>
  <polygon points="404.0054,262.8125 400,269.75 408.0107,269.75" fill="#333" stroke="none"/>
  <polygon points="412.0161,262.8125 408.0107,269.75 416.0215,269.75" fill="#333" stroke="none"/>
  <polygon points="383.9785,269.75 379.9732,276.6875 387.9839,276.6875" fill="#333" stroke="none"/>
  <polygon points="379.9732,276.6875 375.9678,283.625 383.9785,283.625" fill="#333" stroke="none"/>
  <polygon points="387.9839,276.6875 383.9785,283.625 391.9893,283.625" fill="#333" stroke="none"/>
  <polygon points="375.9678,283.625 371.9624,290.5625 379.9732,290.5625" fill="#333" stroke="none"/>
  <polygon points="371.9624,290.5625 367.9571,297.5 375.9678,297.5" fill="#333" stroke="none"/>
  <polygon points="379.9732,290.5625 375.9678,297.5 383.9785,297.5" fill="#333" stroke="none"/>
  <polygon points="391.9893,283.625 387.9839,290.5625 395.9946,290.5625" fill="#333" stroke="none"/>
  <polygon points="387.9839,290.5625 383.9785,297.5 391.9893,297.5" fill="#333" stroke="none"/>
  <polygon points="395.9946,290.5625 391.9893,297.5 400,297.5" fill="#333" stroke="none"/>
  <polygon points="416.0215,269.75 412.0161,276.6875 420.0268,276.6875" fill="#333" stroke="none"/>
  <polygon points="412.0161,276.6875 408.0107,283.625 416.0215,283.625" fill="#333" stroke="none"/>
  <polygon points="420.0268,276.6875 416.0215,283.625 424.0322,283.625" fill="#333" stroke="none"/>
  <polygon points="408.0107,283.625 404.0054,290.5625 412.0161,290.5625" fill="#333" stroke="none"/>
  <polygon points="404.0054,290.5625 400,297.5 408.0107,297.5" fill="#333" stroke="none"/>
  <polygon points="412.0161,290.5625 408.0107,297.5 416.0215,297.5" fill="#333" stroke="none"/>
  <polygon points="424.0322,283.625 420.0268,290.5625 428.0376,290.5625" fill="#333" stroke="none"/>
  <polygon points="420.0268,290.5625 416.0215,297.5 424.0322,297.5" fill="#333" stroke="none"/>
  <polygon points="428.0376,290.5625 424.0322,297.5 432.0429,297.5" fill="#333" stroke="none"/>
  <polygon points="367.9571,297.5 363.9517,304.4375 371.9624,304.4375" fill="#333" stroke="none"/>
  <polygon points="363.9517,304.4375 359.9463,311.375 367.9571,311.375" fill="#333" stroke="none"/>
  <polygon points="371.9624,304.4375 367.9571,311.375 375.9678,311.375" fill="#333" stroke="none"/>
  <polygon points="359.9463,311.375 355.941,318.3125 363.9517,318.3125" fill="#333" stroke="none"/>
  <polygon points="355.941,318.3125 351.9356,325.25 359.9463,325.25" fill="#333" stroke="none"/>
  <polygon points="363.9517,318.3125 359.9463,325.25 367.9571,325.25" fill="#333" stroke="none"/>
  <polygon points="375.9678,311.375 371.9624,318.3125 379.9732,318.3125" fill="#333" stroke="none"/>
  <polygon points="371.9624,318.3125 367.9571,325.25 375.9678,325.25" fill="#333" stroke="none"/>
  <polygon points="379.9732,318.3125 375.9678,325.25 383.9785,325.25" fill="#333" stroke="none"/>
  <polygon points="351.9356,325.25 347.9302,332.1875 355.941,332.1875" fill="#333" stroke="none"/>
  <polygon points="347.9302,332.1875 343.9249,339.125 351.9356,339.125" fill="#333" stroke="none"/>
  <polygon points="355.941,332.1875 351.9356,339.125 359.9463,339.125" fill="#333" stroke="none"/>
  <polygon points="343.9249,339.125 339.9195,346.0625 347.9302,346.0625" fill="#333" stroke="none"/>
  <polygon points="339.9195,346.0625 335.9141,353 343.9249,353" fill="#333" stroke="none"/>
  <polygon points="347.9302,346.0625 343.9249,353 351.9356,353" fill="#333" stroke="none"/>
  <polygon points="359.9463,339.125 355.941,346.0625 363.9517,346.0625" fill="#333" stroke="none"/>
  <polygon points="355.941,346.0625 351.9356,353 359.9463,353" fill="#333" stroke="none"/>
  <polygon points="363.9517,346.0625 359.9463,353 367.9571,353" fill="#333" stroke="none"/>
  <polygon points="383.9785,325.25 379.9732,332.1875 387.9839,332.1875" fill="#333" stroke="none"/>
  <polygon points="379.9732,332.1875 375.9678,339.125 383.9785,339.125" fill="#333" stroke="none"/>
  <polygon points="387.9839,332.1875 383.9785,339.125 391.9893,339.125" fill="#333" stroke="none"/>
  <polygon points="375.9678,339.125 371.9624,346.0625 379.9732,346.0625" fill="#333" stroke="none"/>
  <polygon points="371.9624,346.0625 367.9571,353 375.9678,353" fill="#333" stroke="none"/>
  <polygon points="379.9732,346.0625 375.9678,353 383.9785,353" fill="#333" stroke="none"/>
  <polygon points="391.9893,339.125 387.9839,346.0625 395.9946,346.0625" fill="#333" stroke="none"/>
  <polygon points="387.9839,346.0625 383.9785,353 391.9893,353" fill="#333" stroke="none"/>
  <polygon points="395.9946,346.0625 391.9893,353 400,353" fill="#333" stroke="none"/>
  <polygon points="432.0429,297.5 428.0376,304.4375 436.0483,304.4375" fill="#333" stroke="none"/>
  <polygon points="428.0376,304.4375 424.0322,311.375 432.0429,311.375" fill="#333" stroke="none"/>
  <polygon points="436.0483,304.4375 432.0429,311.375 440.0537,311.375" fill="#333" stroke="none"/>
  <polygon points="424.0322,311.375 420.0268,318.3125 428.0376,318.3125" fill="#333" stroke="none"/>
  <polygon points="420.0268,318.3125 416.0215,325.25 424.0322,325.25" fill="#333" stroke="none"/>
  <polygon points="428.0376,318.3125 424.0322,325.25 432.0429,325.25" fill="#333" stroke="none"/>
  <polygon points="440.0537,311.375 436.0483,318.3125 444.059,318.3125" fill="#333" stroke="none"/>
  <polygon points="436.0483,318.3125 432.0429,325.25 440.0537,325.25" fill="#333" stroke="none"/>
  <polygon points="444.059,318.3125 440.0537,325.25 448.0644,325.25" fill="#333" stroke="none"/>
  <polygon points="416.0215,325.25 412.0161,332.1875 420.0268,332.1875" fill="#333" stroke="none"/>
  <polygon points="412.0161,332.1875 408.0107,339.125 416.0215,339.125" fill="#333" stroke="none"/>
  <polygon points="420.0268,332.1875 416.0215,339.125 424.0322,339.125" fill="#333" stroke="none"/>
  <polygon points="408.0107,339.125 404.0054,346.0625 412.0161,346.0625" fill="#333" stroke="none"/>
  <polygon points="404.0054,346.0625 400,353 408.0107,353" fill="#333" stroke="none"/>
  <polygon points="412.0161,346.0625 408.0107,353 416.0215,353" fill="#333" stroke="none"/>
  <polygon points="424.0322,339.125 420.0268,346.0625 428.0376,346.0625" fill="#333" stroke="none"/>
  <polygon points="420.0268,346.0625 416.0215,353 424.0322,353" fill="#333" stroke="none"/>
  <polygon points="428.0376,346.0625 424.0322,353 432.0429,353" fill="#333" stroke="none"/>
  <polygon points="448.0644,325.25 444.059,332.1875 452.0698,332.1875" fill="#333" stroke="none"/>
  <polygon points="444.059,332.1875 440.0537,339.125 448.0644,339.125" fill="#333" stroke="none"/>
  <polygon points="452.0698,332.1875 448.0644,339.125 456.0751,339.125" fill="#333" stroke="none"/>
  <polygon points="440.0537,339.125 436.0483,346.0625 444.059,346.0625" fill="#333" stroke="none"/>
  <polygon points="436.0483,346.0625 432.0429,353 440.0537,353" fill="#333" stroke="none"/>
  <polygon points="444.059,346.0625 440.0537,353 448.0644,353" fill="#333" stroke="none"/>
  <polygon points="456.0751,339.125 452.0698,346.0625 460.0805,346.0625" fill="#333" stroke="none"/>
  <polygon points="452.0698,346.0625 448.0644,353 456.0751,353" fill="#333" stroke="none"/>
  <polygon points="460.0805,346.0625 456.0751,353 464.0859,353" fill="#333" stroke="none"/>
  <polygon points="335.9141,353 331.9088,359.9375 339.9195,359.9375" fill="#333" stroke="none"/>
  <polygon points="331.9088,359.9375 327.9034,366.875 335.9141,366.875" fill="#333" stroke="none"/>
  <polygon points="339.9195,359.9375 335.9141,366.875 343.9249,366.875" fill="#333" stroke="none"/>
  <polygon points="327.9034,366.875 323.898,373.8125 331.9088,373.8125" fill="#333" stroke="none"/>
  <polygon points="323.898,373.8125 319.8927,380.75 327.9034,380.75" fill="#333" stroke="none"/>
  <polygon points="331.9088,373.8125 327.9034,380.75 335.9141,380.75" fill="#333" stroke="none"/>
  <polygon points="343.9249,366.875 339.9195,373.8125 347.9302,373.8125" fill="#333" stroke="none"/>
  <polygon points="339.9195,373.8125 335.9141,380.75 343.9249,380.75" fill="#333" stroke="none"/>
  <polygon points="347.9302,373.8125 343.9249,380.75 351.9356,380.75" fill="#333" stroke="none"/>
  <polygon points="319.8927,380.75 315.8873,387.6875 323.898,387.6875" fill="#333" stroke="none"/>
  <polygon points="315.8873,387.6875 311.8819,394.625 319.8927,394.625" fill="#333" stroke="none"/>
  <polygon points="323.898,387.6875 319.8927,394.625 327.9034,394.625" fill="#333" stroke="none"/>
  <polygon points="311.8819,394.625 307.8765,401.5625 315.8873,401.5625" fill="#333" stroke="none"/>
  <polygon points="307.8765,401.5625 303.8712,408.5 311.8819,408.5" fill="#333" stroke="none"/>
  <polygon points="315.8873,401.5625 311.8819,408.5 319.8927,408.5" fill="#333" stroke="none"/>
  <polygon points="327.9034,394.625 323.898,401.5625 331.9088,401.5625" fill="#333" stroke="none"/>
  <polygon points="323.898,401.5625 319.8927,408.5 327.9034,408.5" fill="#333" stroke="none"/>
  <polygon points="331.9088,401.5625 327.9034,408.5 335.9141,408.5" fill="#333" stroke="none"/>
  <polygon points="351.9356,380.75 347.9302,387.6875 355.941,387.6875" fill="#333" stroke="none"/>
  <polygon points="347.9302,387.6875 343.9249,394.625 351.9356,394.625" fill="#333" stroke="none"/>
  <polygon points="355.941,387.6875 351.9356,394.625 359.9463,394.625" fill="#333" stroke="none"/>
  <polygon points="343.9249,394.625 339.9195,401.5625 347.9302,401.5625" fill="#333" stroke="none"/>
  <polygon points="339.9195,401.5625 335.9141,408.5 343.9249,408.5" fill="#333" stroke="none"/>
  <polygon points="347.9302,401.5625 343.9249,408.5 351.9356,408.5" fill="#333" stroke="none"/>
  <polygon points="359.9463,394.625 355.941,401.5625 363.9517,401.5625" fill="#333" stroke="none"/>
  <polygon points="355.941,401.5625 351.9356,408.5 359.9463,408.5" fill="#333" stroke="none"/>
  <polygon points="363.9517,401.5625 359.9463,408.5 367.9571,408.5" fill="#333" stroke="none"/>
  <polygon points="303.8712,408.5 299.8658,415.4375 307.8765,415.4375" fill="#333" stroke="none"/>
  <polygon points="299.8658,415.4375 295.8604,422.375 303.8712,422.375" fill="#333" stroke="none"/>
  <polygon points="307.8765,415.4375 303.8712,422.375 311.8819,422.375" fill="#333" stroke="none"/>
  <polygon points="295.8604,422.375 291.8551,429.3125 299.8658,429.3125" fill="#333" stroke="none"/>
  <polygon points="291.8551,429.3125 287.8497,436.25 295.8604,436.25" fill="#333" stroke="none"/>
  <polygon points="299.8658,429.3125 295.8604,436.25 303.8712,436.25" fill="#333" stroke="none"/>
  <polygon points="311.8819,422.375 307.8765,429.3125 315.8873,429.3125" fill="#333" stroke="none"/>
  <polygon points="307.8765,429.3125 303.8712,436.25 311.8819,436.25" fill="#333" stroke="none"/>
  <polygon points="315.8873,429.3125 311.8819,436.25 319.8927,436.25" fill="#333" stroke="none"/>
  <polygon points="287.8497,436.25 283.8443,443.1875 291.8551,443.1875" fill="#333" stroke="none"/>
  <polygon points="283.8443,443.1875 279.839,450.125 287.8497,450.125" fill="#333" stroke="none"/>
  <polygon points="291.8551,443.1875 287.8497,450.125 295.8604,450.125" fill="#333" stroke="none"/>
  <polygon points="279.839,450.125 275.8336,457.0625 283.8443,457.0625" fill="#333" stroke="none"/>
  <polygon points="275.8336,457.0625 271.8282,464 279.839,464" fill="#333" stroke="none"/>
  <polygon points="283.8443,457.0625 279.839,464 287.8497,464" fill="#333" stroke="none"/>
  <polygon points="295.8604,450.125 291.8551,457.0625 299.8658,457.0625" fill="#333" stroke="none"/>
  <polygon points="291.8551,457.0625 287.8497,464 295.8604,464" fill="#333" stroke="none"/>
  <polygon points="299.8658,457.0625 295.8604,464 303.8712,464" fill="#333" stroke="none"/>
  <polygon points="319.8927,436.25 315.8873,443.1875 323.898,443.1875" fill="#333" stroke="none"/>
  <polygon points="315.8873,443.1875 311.8819,450.125 319.8927,450.125" fill="#333" stroke="none"/>
  <polygon points="323.898,443.1875 319.8927,450.125 327.9034,450.125" fill="#333" stroke="none"/>
  <polygon points="311.8819,450.125 307.8765,457.0625 315.8873,457.0625" fill="#333" stroke="none"/>
  <polygon points="307.8765,457.0625 303.8712,464 311.8819,464" fill="#333" stroke="none"/>
  <polygon points="315.8873,457.0625 311.8819,464 319.8927,464" fill="#333" stroke="none"/>
  <polygon points="327.9034,450.125 323.898,457.0625 331.9088,457.0625" fill="#333" stroke="none"/>
  <polygon points="323.898,457.0625 319.8927,464 327.9034,464" fill="#333" stroke="none"/>
  <polygon points="331.9088,457.0625 327.9034,464 335.9141,464" fill="#333" stroke="none"/>
  <polygon points="367.9571,408.5 363.9517,415.4375 371.9624,415.4375" fill="#333" stroke="none"/>
  <polygon points="363.9517,415.4375 359.9463,422.375 367.9571,422.375" fill="#333" stroke="none"/>
  <polygon points="371.9624,415.4375 367.9571,422.375 375.9678,422.375" fill="#333" stroke="none"/>
  <polygon points="359.9463,422.375 355.941,429.3125 363.9517,429.3125" fill="#333" stroke="none"/>
  <polygon points="355.941,429.3125 351.9356,436.25 359.9463,436.25" fill="#333" stroke="none"/>
  <polygon points="363.9517,429.3125 359.9463,436.25 367.9571,436.25" fill="#333" stroke="none"/>
  <polygon points="375.9678,422.375 371.9624,429.3125 379.9732,429.3125" fill="#333" stroke="none"/>
  <polygon points="371.9624,429.3125 367.9571,436.25 375.9678,436.25" fill="#333" stroke="none"/>
  <polygon points="379.9732,429.3125 375.9678,436.25 383.9785,436.25" fill="#333" stroke="none"/>
  <polygon points="351.9356,436.25 347.9302,443.1875 355.941,443.1875" fill="#333" stroke="none"/>
  <polygon points="347.9302,443.1875 343.9249,450.125 351.9356,450.125" fill="#333" stroke="none"/>
  <polygon points="355.941,443.1875 351.9356,450.125 359.9463,450.125" fill="#333" stroke="none"/>
  <polygon points="343.9249,450.125 339.9195,457.0625 347.9302,457.0625" fill="#333" stroke="none"/>
  <polygon points="339.9195,457.0625 335.9141,464 343.9249,464" fill="#333" stroke="none"/>
  <polygon points="347.9302,457.0625 343.9249,464 351.9356,464" fill="#333" stroke="none"/>
  <polygon points="359.9463,450.125 355.941,457.0625 363.9517,457.0625" fill="#333" stroke="none"/>
  <polygon points="355.941,457.0625 351.9356,464 359.9463,464" fill="#333" stroke="none"/>
  <polygon points="363.9517,457.0625 359.9463,464 367.9571,464" fill="#333" stroke="none"/>
  <polygon points="383.9785,436.25 379.9732,443.1875 387.9839,443.1875" fill="#333" stroke="none"/>
  <polygon points="379.9732,443.1875 375.9678,450.125 383.9785,450.125" fill="#333" stroke="none"/>
  <polygon points="387.9839,443.1875 383.9785,450.125 391.9893,450.125" fill="#333" stroke="none"/>
  <polygon points="375.9678,450.125 371.9624,457.0625 379.9732,457.0625" fill="#333" stroke="none"/>
  <polygon points="371.9624,457.0625 367.9571,464 375.9678,464" fill="#333" stroke="none"/>
  <polygon points="379.9732,457.0625 375.9678,464 383.9785,464" fill="#333" stroke="none"/>
  <polygon points="391.9893,450.125 387.9839,457.0625 395.9946,457.0625" fill="#333" stroke="none"/>
  <polygon points="387.9839,457.0625 383.9785,464 391.9893,464" fill="#333" stroke="none"/>
  <polygon points="395.9946,457.0625 391.9893,464 400,464" fill="#333" stroke="none"/>
  <polygon points="464.0859,353 460.0805,359.9375 468.0912,359.9375" fill="#333" stroke="none"/>
  <polygon points="460.0805,359.9375 456.0751,366.875 464.0859,366.875" fill="#333" stroke="none"/>
  <polygon points="468.0912,359.9375 464.0859,366.875 472.0966,366.875" fill="#333" stroke="none"/>
  <polygon points="456.0751,366.875 452.0698,373.8125 460.0805,373.8125" fill="#333" stroke="none"/>
  <polygon points="452.0698,373.8125 448.0644,380.75 456.0751,380.75" fill="#333" stroke="none"/>
  <polygon points="460.0805,373.8125 456.0751,380.75 464.0859,380.75" fill="#333" stroke="none"/>
  <polygon points="472.0966,366.875 468.0912,373.8125 476.102,373.8125" fill="#333" stroke="none"/>
  <polygon points="468.0912,373.8125 464.0859,380.75 472.0966,380.75" fill="#333" stroke="none"/>
  <polygon points="476.102,373.8125 472.0966,380.75 480.1073,380.75" fill="#333" stroke="none"/>
  <polygon points="448.0644,380.75 444.059,387.6875 452.0698,387.6875" fill="#333" stroke="none"/>
  <polygon points="444.059,387.6875 440.0537,394.625 448.0644,394.625" fill="#333" stroke="none"/>
  <polygon points="452.0698,387.6875 448.0644,394.625 456.0751,394.625" fill="#333" stroke="none"/>
  <polygon points="440.0537,394.625 436.0483,401.5625 444.059,401.5625" fill="#333" stroke="none"/>
  <polygon points="436.0483,401.5625 432.0429,408.5 440.0537,408.5" fill="#333" stroke="none"/>
  <polygon points="444.059,401.5625 440.0537,408.5 448.0644,408.5" fill="#333" stroke="none"/>
  <polygon points="456.0751,394.625 452.0698,401.5625 460.0805,401.5625" fill="#333" stroke="none"/>
  <polygon points="452.0698,401.5625 448.0644,408.5 456.0751,408.5" fill="#333" stroke="none"/>
  <polygon points="460.0805,401.5625 456.0751,408.5 464.0859,408.5" fill="#333" stroke="none"/>
  <polygon points="480.1073,380.75 476.102,387.6875 484.1127,387.6875" fill="#333" stroke="none"/>
  <polygon points="476.102,387.6875 472.0966,394.625 480.1073,394.625" fill="#333" stroke="none"/>
  <polygon points="484.1127,387.6875 480.1073,394.625 488.1181,394.625" fill="#333" stroke="none"/>
  <polygon points="472.0966,394.625 468.0912,401.5625 476.102,401.5625" fill="#333" stroke="none"/>
  <polygon points="468.0912,401.5625 464.0859,408.5 472.0966,408.5" fill="#333" stroke="none"/>
  <polygon points="476.102,401.5625 472.0966,408.5 480.1073,408.5" fill="#333" stroke="none"/>
  <polygon points="488.1181,394.625 484.1127,401.5625 492.1235,401.5625" fill="#333" stroke="none"/>
  <polygon points="484.1127,401.5625 480.1073,408.5 488.1181,408.5" fill="#333" stroke="none"/>
  <polygon points="492.1235,401.5625 488.1181,408.5 496.1288,408.5" fill="#333" stroke="none"/>
  <polygon points="432.0429,408.5 428.0376,415.4375 436.0483,415.4375" fill="#333" stroke="none"/>
  <polygon points="428.0376,415.4375 424.0322,422.375 432.0429,422.375" fill="#333" stroke="none"/>
  <polygon points="436.0483,415.4375 432.0429,422.375 440.0537,422.375" fill="#333" stroke="none"/>
  <polygon points="424.0322,422.375 420.0268,429.3125 428.0376,429.3125" fill="#333" stroke="none"/>
  <polygon points="420.0268,429.3125 416.0215,436.25 424.0322,436.25" fill="#333" stroke="none"/>
  <polygon points="428.0376,429.3125 424.0322,436.25 432.0429,436.25" fill="#333" stroke="none"/>
  <polygon points="440.0537,422.375 436.0483,429.3125 444.059,429.3125" fill="#333" stroke="none"/>
  <polygon points="436.0483,429.3125 432.0429,436.25 440.0537,436.25" fill="#333" stroke="none"/>
  <polygon points="444.059,429.3125 440.0537,436.25 448.0644,436.25" fill="#333" stroke="none"/>
  <polygon points="416.0215,436.25 412.0161,443.1875 420.0268,443.1875" fill="#333" stroke="none"/>
  <polygon points="412.0161,443.1875 408.0107,450.125 416.0215,450.125" fill="#333" stroke="none"/>
  <polygon points="420.0268,443.1875 416.0215,450.125 424.0322,450.125" fill="#333" stroke="none"/>
  <polygon points="408.0107,450.125 404.0054,457.0625 412.0161,457.0625" fill="#333" stroke="none"/>
  <polygon points="404.0054,457.0625 400,464 408.0107,464" fill="#333" stroke="none"/>
  <polygon points="412.0161,457.0625 408.0107,464 416.0215,464" fill="#333" stroke="none"/>
  <polygon points="424.0322,450.125 420.0268,457.0625 428.0376,457.0625" fill="#333" stroke="none"/>
  <polygon points="420.0268,457.0625 416.0215,464 424.0322,464" fill="#333" stroke="none"/>
  <polygon points="428.0376,457.0625 424.0322,464 432.0429,464" fill="#333" stroke="none"/>
  <polygon points="448.0644,436.25 444.059,443.1875 452.0698,443.1875" fill="#333" stroke="none"/>
  <polygon points="444.059,443.1875 440.0537,450.125 448.0644,450.125" fill="#333" stroke="none"/>
  <polygon points="452.0698,443.1875 448.0644,450.125 456.0751,450.125" fill="#333" stroke="none"/>
  <polygon points="440.0537,450.125 436.0483,457.0625 444.059,457.0625" fill="#333" stroke="none"/>
  <polygon points="436.0483,457.0625 432.0429,464 440.0537,464" fill="#333" stroke="none"/>
  <polygon points="444.059,457.0625 440.0537,464 448.0644,464" fill="#333" stroke="none"/>
  <polygon points="456.0751,450.125 452.0698,457.0625 460.0805,457.0625" fill="#333" stroke="none"/>
  <polygon points="452.0698,457.0625 448.0644,464 456.0751,464" fill="#333" stroke="none"/>
  <polygon points="460.0805,457.0625 456.0751,464 464.0859,464" fill="#333" stroke="none"/>
  <polygon points="496.1288,408.5 492.1235,415.4375 500.1342,415.4375" fill="#333" stroke="none"/>
  <polygon points="492.1235,415.4375 488.1181,422.375 496.1288,422.375" fill="#333" stroke="none"/>
  <polygon points="500.1342,415.4375 496.1288,422.375 504.1396,422.375" fill="#333" stroke="none"/>
  <polygon points="488.1181,422.375 484.1127,429.3125 492.1235,429.3125" fill="#333" stroke="none"/>
  <polygon points="484.1127,429.3125 480.1073,436.25 488.1181,436.25" fill="#333" stroke="none"/>
  <polygon points="492.1235,429.3125 488.1181,436.25 496.1288,436.25" fill="#333" stroke="none"/>
  <polygon points="504.1396,422.375 500.1342,429.3125 508.1449,429.3125" fill="#333" stroke="none"/>
  <polygon points="500.1342,429.3125 496.1288,436.25 504.1396,436.25" fill="#333" stroke="none"/>
  <polygon points="508.1449,429.3125 504.1396,436.25 512.1503,436.25" fill="#333" stroke="none"/>
  <polygon points="480.1073,436.25 476.102,443.1875 484.1127,443.1875" fill="#333" stroke="none"/>
  <polygon points="476.102,443.1875 472.0966,450.125 480.1073,450.125" fill="#333" stroke="none"/>
  <polygon points="484.1127,443.1875 480.1073,450.125 488.1181,450.125" fill="#333" stroke="none"/>
  <polygon points="472.0966,450.125 468.0912,457.0625 476.102,457.0625" fill="#333" stroke="none"/>
  <polygon points="468.0912,457.0625 464.0859,464 472.0966,464" fill="#333" stroke="none"/>
  <polygon points="476.102,457.0625 472.0966,464 480.1073,464" fill="#333" stroke="none"/>
  <polygon points="488.1181,450.125 484.1127,457.0625 492.1235,457.0625" fill="#333" stroke="none"/>
  <polygon points="484.1127,457.0625 480.1073,464 488.1181,464" fill="#333" stroke="none"/>
  <polygon points="492.1235,457.0625 488.1181,464 496.1288,464" fill="#333" stroke="none"/>
  <polygon points="512.1503,436.25 508.1449,443.1875 516.1557,443.1875" fill="#333" stroke="none"/>
  <polygon points="508.1449,443.1875 504.1396,450.125 512.1503,450.125" fill="#333" stroke="none"/>
  <polygon points="516.1557,443.1875 512.1503,450.125 520.161,450.125" fill="#333" stroke="none"/>
  <polygon points="504.1396,450.125 500.1342,457.0625 508.1449,457.0625" fill="#333" stroke="none"/>
  <polygon points="500.1342,457.0625 496.1288,464 504.1396,464" fill="#333" stroke="none"/>
  <polygon points="508.1449,457.0625 504.1396,464 512.1503,464" fill="#333" stroke="none"/>
  <polygon points="520.161,450.125 516.1557,457.0625 524.1664,457.0625" fill="#333" stroke="none"/>
  <polygon points="516.1557,457.0625 512.1503,464 520.161,464" fill="#333" stroke="none"/>
  <polygon points="524.1664,457.0625 520.161,464 528.1718,464" fill="#333" stroke="none"/>
</g>
</g>
  <circle cx="462" cy="259" r="60" fill="none" stroke="#333" stroke-width="1.5"/>
  <g opacity="0.46">
  <g>
  <polygon points="359.1945,674.8927 503.1619,656.5621 616.4484,651.4758 542.4958,666.6628 383.5042,681.1352" stroke="#333" stroke-width="1.2" fill="#8B4513" fill-opacity="0.3"/>
  <polygon points="359.1945,674.8927 503.1619,656.5621 503.1619,513.784 359.1945,443.8728 270.2177,543.4434" stroke="#333" stroke-width="1.2" fill="#DC143C" fill-opacity="0.3"/>
  <polygon points="359.1945,674.8927 383.5042,681.1352 309.5516,553.5441 239.5367,468.4459 270.2177,543.4434" stroke="#333" stroke-width="1.2" fill="#4169E1" fill-opacity="0.3"/>
  <polygon points="359.1945,443.8728 270.2177,543.4434 239.5367,468.4459 309.5516,322.5242 383.5042,307.3372" stroke="#333" stroke-width="1.2" fill="#228B22" fill-opacity="0.3"/>
  <polygon points="359.1945,443.8728 503.1619,513.784 616.4484,420.4559 542.4958,292.8648 383.5042,307.3372" stroke="#333" stroke-width="1.2" fill="#8B4513" fill-opacity="0.3"/>
  <polygon points="309.5516,553.5441 383.5042,681.1352 542.4958,666.6628 566.8055,530.1272 422.8381,460.216" stroke="#333" stroke-width="1.2" fill="#DC143C" fill-opacity="0.3"/>
  <polygon points="309.5516,553.5441 239.5367,468.4459 309.5516,322.5242 422.8381,317.4379 422.8381,460.216" stroke="#333" stroke-width="1.2" fill="#4169E1" fill-opacity="0.3"/>
  <polygon points="309.5516,322.5242 383.5042,307.3372 542.4958,292.8648 566.8055,299.1073 422.8381,317.4379" stroke="#333" stroke-width="1.2" fill="#228B22" fill-opacity="0.3"/>
  <polygon points="616.4484,651.4758 503.1619,656.5621 503.1619,513.784 616.4484,420.4559 686.4633,505.5541" stroke="#333" stroke-width="1.2" fill="#8B4513" fill-opacity="0.3"/>
  <polygon points="616.4484,651.4758 542.4958,666.6628 566.8055,530.1272 655.7823,430.5566 686.4633,505.5541" stroke="#333" stroke-width="1.2" fill="#DC143C" fill-opacity="0.3"/>
  <polygon points="616.4484,420.4559 686.4633,505.5541 655.7823,430.5566 566.8055,299.1073 542.4958,292.8648" stroke="#333" stroke-width="1.2" fill="#4169E1" fill-opacity="0.3"/>
  <polygon points="566.8055,530.1272 422.8381,460.216 422.8381,317.4379 566.8055,299.1073 655.7823,430.5566" stroke="#333" stroke-width="1.2" fill="#228B22" fill-opacity="0.3"/>
  <line x1="359.1945" y1="674.8927" x2="503.1619" y2="656.5621" stroke="#333" stroke-width="1.2" fill="none"/>
  <line x1="359.1945" y1="674.8927" x2="383.5042" y2="681.1352" stroke="#333" stroke-width="1.2" fill="none"/>
  <line x1="359.1945" y1="674.8927" x2="270.2177" y2="543.4434" stroke="#333" stroke-width="1.2" fill="none"/>
  <line x1="359.1945" y1="443.8728" x2="270.2177" y2="543.4434" stroke="#333" stroke-width="1.2" fill="none"/>
  <line x1="359.1945" y1="443.8728" x2="503.1619" y2="513.784" stroke="#333" stroke-width="1.2" fill="none"/>
  <line x1="359.1945" y1="443.8728" x2="383.5042" y2="307.3372" stroke="#333" stroke-width="1.2" fill="none"/>
  <line x1="309.5516" y1="553.5441" x2="383.5042" y2="681.1352" stroke="#333" stroke-width="1.2" fill="none"/>
  <line x1="309.5516" y1="553.5441" x2="239.5367" y2="468.4459" stroke="#333" stroke-width="1.2" fill="none"/>
  <line x1="309.5516" y1="553.5441" x2="422.8381" y2="460.216" stroke="#333" stroke-width="1.2" fill="none"/>
  <line x1="309.5516" y1="322.5242" x2="383.5042" y2="307.3372" stroke="#333" stroke-width="1.2" fill="none"/>
  <line x1="309.5516" y1="322.5242" x2="239.5367" y2="468.4459" stroke="#333" stroke-width="1.2" fill="none"/>
  <line x1="309.5516" y1="322.5242" x2="422.8381" y2="317.4379" stroke="#333" stroke-width="1.2" fill="none"/>
  <line x1="616.4484" y1="651.4758" x2="503.1619" y2="656.5621" stroke="#333" stroke-width="1.2" fill="none"/>
  <line x1="616.4484" y1="651.4758" x2="542.4958" y2="666.6628" stroke="#333" stroke-width="1.2" fill="none"/>
  <line x1="616.4484" y1="651.4758" x2="686.4633" y2="505.5541" stroke="#333" stroke-width="1.2" fill="none"/>
  <line x1="616.4484" y1="420.4559" x2="503.1619" y2="513.784" stroke="#333" stroke-width="1.2" fill="none"/>
  <line x1="616.4484" y1="420.4559" x2="686.4633" y2="505.5541" stroke="#333" stroke-width="1.2" fill="none"/>
  <line x1="616.4484" y1="420.4559" x2="542.4958" y2="292.8648" stroke="#333" stroke-width="1.2" fill="none"/>
  <line x1="566.8055" y1="530.1272" x2="422.8381" y2="460.216" stroke="#333" stroke-width="1.2" fill="none"/>
  <line x1="566.8055" y1="530.1272" x2="542.4958" y2="666.6628" stroke="#333" stroke-width="1.2" fill="none"/>
  <line x1="566.8055" y1="530.1272" x2="655.7823" y2="430.5566" stroke="#333" stroke-width="1.2" fill="none"/>
  <line x1="566.8055" y1="299.1073" x2="422.8381" y2="317.4379" stroke="#333" stroke-width="1.2" fill="none"/>
  <line x1="566.8055" y1="299.1073" x2="542.4958" y2="292.8648" stroke="#333" stroke-width="1.2" fill="none"/>
  <line x1="566.8055" y1="299.1073" x2="655.7823" y2="430.5566" stroke="#333" stroke-width="1.2" fill="none"/>
  <line x1="503.1619" y1="656.5621" x2="503.1619" y2="513.784" stroke="#333" stroke-width="1.2" fill="none"/>
  <line x1="383.5042" y1="681.1352" x2="542.4958" y2="666.6628" stroke="#333" stroke-width="1.2" fill="none"/>
  <line x1="270.2177" y1="543.4434" x2="239.5367" y2="468.4459" stroke="#333" stroke-width="1.2" fill="none"/>
  <line x1="383.5042" y1="307.3372" x2="542.4958" y2="292.8648" stroke="#333" stroke-width="1.2" fill="none"/>
  <line x1="422.8381" y1="460.216" x2="422.8381" y2="317.4379" stroke="#333" stroke-width="1.2" fill="none"/>
  <line x1="686.4633" y1="505.5541" x2="655.7823" y2="430.5566" stroke="#333" stroke-width="1.2" fill="none"/>
  <circle cx="359.1945" cy="674.8927" r="3.93" fill="#333" stroke="none"/>
  <circle cx="359.1945" cy="443.8728" r="3.93" fill="#333" stroke="none"/>
  <circle cx="309.5516" cy="553.5441" r="3.93" fill="#333" stroke="none"/>
  <circle cx="309.5516" cy="322.5242" r="3.93" fill="#333" stroke="none"/>
  <circle cx="616.4484" cy="651.4758" r="3.93" fill="#333" stroke="none"/>
  <circle cx="616.4484" cy="420.4559" r="3.93" fill="#333" stroke="none"/>
  <circle cx="566.8055" cy="530.1272" r="3.93" fill="#333" stroke="none"/>
  <circle cx="566.8055" cy="299.1073" r="3.93" fill="#333" stroke="none"/>
  <circle cx="503.1619" cy="656.5621" r="3.93" fill="#333" stroke="none"/>
  <circle cx="383.5042" cy="681.1352" r="3.93" fill="#333" stroke="none"/>
  <circle cx="270.2177" cy="543.4434" r="3.93" fill="#333" stroke="none"/>
  <circle cx="503.1619" cy="513.784" r="3.93" fill="#333" stroke="none"/>
  <circle cx="383.5042" cy="307.3372" r="3.93" fill="#333" stroke="none"/>
  <circle cx="239.5367" cy="468.4459" r="3.93" fill="#333" stroke="none"/>
  <circle cx="422.8381" cy="460.216" r="3.93" fill="#333" stroke="none"/>
  <circle cx="542.4958" cy="666.6628" r="3.93" fill="#333" stroke="none"/>
  <circle cx="686.4633" cy="505.5541" r="3.93" fill="#333" stroke="none"/>
  <circle cx="422.8381" cy="317.4379" r="3.93" fill="#333" stroke="none"/>
  <circle cx="542.4958" cy="292.8648" r="3.93" fill="#333" stroke="none"/>
  <circle cx="655.7823" cy="430.5566" r="3.93" fill="#333" stroke="none"/>
</g>
</g>
  <g transform="rotate(9.0,400,400)">
  <g>
  <line x1="411" y1="604" x2="380.5436" y2="430.6552" stroke="#333" stroke-width="1.5"/>
  <g>
  <line x1="380.5436" y1="430.6552" x2="310.6758" y2="347.2869" stroke="#333" stroke-width="1.5"/>
  <g>
  <line x1="310.6758" y1="347.2869" x2="247.5181" y2="324.2558" stroke="#333" stroke-width="1.5"/>
  <g>
  <line x1="247.5181" y1="324.2558" x2="206.5969" y2="331.4455" stroke="#333" stroke-width="1.5"/>
  <g>
  <line x1="206.5969" y1="331.4455" x2="186.9163" y2="347.9391" stroke="#333" stroke-width="1.5"/>
  <g>
  <line x1="186.9163" y1="347.9391" x2="181.4794" y2="362.8486" stroke="#333" stroke-width="1.5"/>
  <g>
  <line x1="181.4794" y1="362.8486" x2="183.1767" y2="372.5088" stroke="#333" stroke-width="1.5"/>
</g>
  <g>
  <line x1="181.4794" y1="362.8486" x2="173.9621" y2="369.1486" stroke="#333" stroke-width="1.5"/>
</g>
</g>
  <g>
  <line x1="186.9163" y1="347.9391" x2="171.2859" y2="350.6853" stroke="#333" stroke-width="1.5"/>
  <g>
  <line x1="171.2859" y1="350.6853" x2="163.7685" y2="356.9853" stroke="#333" stroke-width="1.5"/>
</g>
  <g>
  <line x1="171.2859" y1="350.6853" x2="162.0713" y2="347.3251" stroke="#333" stroke-width="1.5"/>
</g>
</g>
</g>
  <g>
  <line x1="206.5969" y1="331.4455" x2="182.4728" y2="322.6484" stroke="#333" stroke-width="1.5"/>
  <g>
  <line x1="182.4728" y1="322.6484" x2="166.8423" y2="325.3947" stroke="#333" stroke-width="1.5"/>
  <g>
  <line x1="166.8423" y1="325.3947" x2="159.325" y2="331.6946" stroke="#333" stroke-width="1.5"/>
</g>
  <g>
  <line x1="166.8423" y1="325.3947" x2="157.6277" y2="322.0345" stroke="#333" stroke-width="1.5"/>
</g>
</g>
  <g>
  <line x1="182.4728" y1="322.6484" x2="172.2792" y2="310.4851" stroke="#333" stroke-width="1.5"/>
  <g>
  <line x1="172.2792" y1="310.4851" x2="163.0647" y2="307.1249" stroke="#333" stroke-width="1.5"/>
</g>
  <g>
  <line x1="172.2792" y1="310.4851" x2="170.582" y2="300.825" stroke="#333" stroke-width="1.5"/>
</g>
</g>
</g>
</g>
  <g>
  <line x1="247.5181" y1="324.2558" x2="220.831" y2="292.4119" stroke="#333" stroke-width="1.5"/>
  <g>
  <line x1="220.831" y1="292.4119" x2="196.7069" y2="283.6148" stroke="#333" stroke-width="1.5"/>
  <g>
  <line x1="196.7069" y1="283.6148" x2="181.0764" y2="286.361" stroke="#333" stroke-width="1.5"/>
  <g>
  <line x1="181.0764" y1="286.361" x2="173.5591" y2="292.661" stroke="#333" stroke-width="1.5"/>
</g>
  <g>
  <line x1="181.0764" y1="286.361" x2="171.8618" y2="283.0008" stroke="#333" stroke-width="1.5"/>
</g>
</g>
  <g>
  <line x1="196.7069" y1="283.6148" x2="186.5133" y2="271.4515" stroke="#333" stroke-width="1.5"/>
  <g>
  <line x1="186.5133" y1="271.4515" x2="177.2987" y2="268.0913" stroke="#333" stroke-width="1.5"/>
</g>
  <g>
  <line x1="186.5133" y1="271.4515" x2="184.816" y2="261.7913" stroke="#333" stroke-width="1.5"/>
</g>
</g>
</g>
  <g>
  <line x1="220.831" y1="292.4119" x2="216.3874" y2="267.1212" stroke="#333" stroke-width="1.5"/>
  <g>
  <line x1="216.3874" y1="267.1212" x2="206.1939" y2="254.958" stroke="#333" stroke-width="1.5"/>
  <g>
  <line x1="206.1939" y1="254.958" x2="196.9793" y2="251.5978" stroke="#333" stroke-width="1.5"/>
</g>
  <g>
  <line x1="206.1939" y1="254.958" x2="204.4966" y2="245.2978" stroke="#333" stroke-width="1.5"/>
</g>
</g>
  <g>
  <line x1="216.3874" y1="267.1212" x2="221.8244" y2="252.2117" stroke="#333" stroke-width="1.5"/>
  <g>
  <line x1="221.8244" y1="252.2117" x2="220.1271" y2="242.5515" stroke="#333" stroke-width="1.5"/>
</g>
  <g>
  <line x1="221.8244" y1="252.2117" x2="229.3417" y2="245.9117" stroke="#333" stroke-width="1.5"/>
</g>
</g>
</g>
</g>
</g>
  <g>
  <line x1="310.6758" y1="347.2869" x2="299.0425" y2="281.0751" stroke="#333" stroke-width="1.5"/>
  <g>
  <line x1="299.0425" y1="281.0751" x2="272.3554" y2="249.2312" stroke="#333" stroke-width="1.5"/>
  <g>
  <line x1="272.3554" y1="249.2312" x2="248.2313" y2="240.4341" stroke="#333" stroke-width="1.5"/>
  <g>
  <line x1="248.2313" y1="240.4341" x2="232.6008" y2="243.1804" stroke="#333" stroke-width="1.5"/>
  <g>
  <line x1="232.6008" y1="243.1804" x2="225.0835" y2="249.4803" stroke="#333" stroke-width="1.5"/>
</g>
  <g>
  <line x1="232.6008" y1="243.1804" x2="223.3862" y2="239.8202" stroke="#333" stroke-width="1.5"/>
</g>
</g>
  <g>
  <line x1="248.2313" y1="240.4341" x2="238.0377" y2="228.2709" stroke="#333" stroke-width="1.5"/>
  <g>
  <line x1="238.0377" y1="228.2709" x2="228.8232" y2="224.9106" stroke="#333" stroke-width="1.5"/>
</g>
  <g>
  <line x1="238.0377" y1="228.2709" x2="236.3405" y2="218.6107" stroke="#333" stroke-width="1.5"/>
</g>
</g>
</g>
  <g>
  <line x1="272.3554" y1="249.2312" x2="267.9119" y2="223.9406" stroke="#333" stroke-width="1.5"/>
  <g>
  <line x1="267.9119" y1="223.9406" x2="257.7183" y2="211.7773" stroke="#333" stroke-width="1.5"/>
  <g>
  <line x1="257.7183" y1="211.7773" x2="248.5037" y2="208.4171" stroke="#333" stroke-width="1.5"/>
</g>
  <g>
  <line x1="257.7183" y1="211.7773" x2="256.0211" y2="202.1171" stroke="#333" stroke-width="1.5"/>
</g>
</g>
  <g>
  <line x1="267.9119" y1="223.9406" x2="273.3488" y2="209.0311" stroke="#333" stroke-width="1.5"/>
  <g>
  <line x1="273.3488" y1="209.0311" x2="271.6515" y2="199.3709" stroke="#333" stroke-width="1.5"/>
</g>
  <g>
  <line x1="273.3488" y1="209.0311" x2="280.8661" y2="202.7311" stroke="#333" stroke-width="1.5"/>
</g>
</g>
</g>
</g>
  <g>
  <line x1="299.0425" y1="281.0751" x2="313.2766" y2="242.0415" stroke="#333" stroke-width="1.5"/>
  <g>
  <line x1="313.2766" y1="242.0415" x2="308.833" y2="216.7508" stroke="#333" stroke-width="1.5"/>
  <g>
  <line x1="308.833" y1="216.7508" x2="298.6395" y2="204.5875" stroke="#333" stroke-width="1.5"/>
  <g>
  <line x1="298.6395" y1="204.5875" x2="289.4249" y2="201.2273" stroke="#333" stroke-width="1.5"/>
</g>
  <g>
  <line x1="298.6395" y1="204.5875" x2="296.9422" y2="194.9274" stroke="#333" stroke-width="1.5"/>
</g>
</g>
  <g>
  <line x1="308.833" y1="216.7508" x2="314.27" y2="201.8413" stroke="#333" stroke-width="1.5"/>
  <g>
  <line x1="314.27" y1="201.8413" x2="312.5727" y2="192.1811" stroke="#333" stroke-width="1.5"/>
</g>
  <g>
  <line x1="314.27" y1="201.8413" x2="321.7873" y2="195.5413" stroke="#333" stroke-width="1.5"/>
</g>
</g>
</g>
  <g>
  <line x1="313.2766" y1="242.0415" x2="332.9572" y2="225.5479" stroke="#333" stroke-width="1.5"/>
  <g>
  <line x1="332.9572" y1="225.5479" x2="338.3941" y2="210.6384" stroke="#333" stroke-width="1.5"/>
  <g>
  <line x1="338.3941" y1="210.6384" x2="336.6968" y2="200.9782" stroke="#333" stroke-width="1.5"/>
</g>
  <g>
  <line x1="338.3941" y1="210.6384" x2="345.9114" y2="204.3384" stroke="#333" stroke-width="1.5"/>
</g>
</g>
  <g>
  <line x1="332.9572" y1="225.5479" x2="348.5877" y2="222.8017" stroke="#333" stroke-width="1.5"/>
  <g>
  <line x1="348.5877" y1="222.8017" x2="356.105" y2="216.5017" stroke="#333" stroke-width="1.5"/>
</g>
  <g>
  <line x1="348.5877" y1="222.8017" x2="357.8022" y2="226.1619" stroke="#333" stroke-width="1.5"/>
</g>
</g>
</g>
</g>
</g>
</g>
  <g>
  <line x1="380.5436" y1="430.6552" x2="417.8088" y2="328.4638" stroke="#333" stroke-width="1.5"/>
  <g>
  <line x1="417.8088" y1="328.4638" x2="406.1755" y2="262.252" stroke="#333" stroke-width="1.5"/>
  <g>
  <line x1="406.1755" y1="262.252" x2="379.4884" y2="230.4082" stroke="#333" stroke-width="1.5"/>
  <g>
  <line x1="379.4884" y1="230.4082" x2="355.3643" y2="221.611" stroke="#333" stroke-width="1.5"/>
  <g>
  <line x1="355.3643" y1="221.611" x2="339.7338" y2="224.3573" stroke="#333" stroke-width="1.5"/>
  <g>
  <line x1="339.7338" y1="224.3573" x2="332.2165" y2="230.6573" stroke="#333" stroke-width="1.5"/>
</g>
  <g>
  <line x1="339.7338" y1="224.3573" x2="330.5192" y2="220.9971" stroke="#333" stroke-width="1.5"/>
</g>
</g>
  <g>
  <line x1="355.3643" y1="221.611" x2="345.1707" y2="209.4478" stroke="#333" stroke-width="1.5"/>
  <g>
  <line x1="345.1707" y1="209.4478" x2="335.9561" y2="206.0876" stroke="#333" stroke-width="1.5"/>
</g>
  <g>
  <line x1="345.1707" y1="209.4478" x2="343.4734" y2="199.7876" stroke="#333" stroke-width="1.5"/>
</g>
</g>
</g>
  <g>
  <line x1="379.4884" y1="230.4082" x2="375.0449" y2="205.1175" stroke="#333" stroke-width="1.5"/>
  <g>
  <line x1="375.0449" y1="205.1175" x2="364.8513" y2="192.9542" stroke="#333" stroke-width="1.5"/>
  <g>
  <line x1="364.8513" y1="192.9542" x2="355.6367" y2="189.594" stroke="#333" stroke-width="1.5"/>
</g>
  <g>
  <line x1="364.8513" y1="192.9542" x2="363.154" y2="183.294" stroke="#333" stroke-width="1.5"/>
</g>
</g>
  <g>
  <line x1="375.0449" y1="205.1175" x2="380.4818" y2="190.208" stroke="#333" stroke-width="1.5"/>
  <g>
  <line x1="380.4818" y1="190.208" x2="378.7845" y2="180.5478" stroke="#333" stroke-width="1.5"/>
</g>
  <g>
  <line x1="380.4818" y1="190.208" x2="387.9991" y2="183.908" stroke="#333" stroke-width="1.5"/>
</g>
</g>
</g>
</g>
  <g>
  <line x1="406.1755" y1="262.252" x2="420.4095" y2="223.2184" stroke="#333" stroke-width="1.5"/>
  <g>
  <line x1="420.4095" y1="223.2184" x2="415.966" y2="197.9277" stroke="#333" stroke-width="1.5"/>
  <g>
  <line x1="415.966" y1="197.9277" x2="405.7724" y2="185.7644" stroke="#333" stroke-width="1.5"/>
  <g>
  <line x1="405.7724" y1="185.7644" x2="396.5578" y2="182.4042" stroke="#333" stroke-width="1.5"/>
</g>
  <g>
  <line x1="405.7724" y1="185.7644" x2="404.0752" y2="176.1043" stroke="#333" stroke-width="1.5"/>
</g>
</g>
  <g>
  <line x1="415.966" y1="197.9277" x2="421.4029" y2="183.0182" stroke="#333" stroke-width="1.5"/>
  <g>
  <line x1="421.4029" y1="183.0182" x2="419.7056" y2="173.358" stroke="#333" stroke-width="1.5"/>
</g>
  <g>
  <line x1="421.4029" y1="183.0182" x2="428.9202" y2="176.7182" stroke="#333" stroke-width="1.5"/>
</g>
</g>
</g>
  <g>
  <line x1="420.4095" y1="223.2184" x2="440.0901" y2="206.7248" stroke="#333" stroke-width="1.5"/>
  <g>
  <line x1="440.0901" y1="206.7248" x2="445.527" y2="191.8153" stroke="#333" stroke-width="1.5"/>
  <g>
  <line x1="445.527" y1="191.8153" x2="443.8298" y2="182.1551" stroke="#333" stroke-width="1.5"/>
</g>
  <g>
  <line x1="445.527" y1="191.8153" x2="453.0444" y2="185.5153" stroke="#333" stroke-width="1.5"/>
</g>
</g>
  <g>
  <line x1="440.0901" y1="206.7248" x2="455.7206" y2="203.9786" stroke="#333" stroke-width="1.5"/>
  <g>
  <line x1="455.7206" y1="203.9786" x2="463.2379" y2="197.6786" stroke="#333" stroke-width="1.5"/>
</g>
  <g>
  <line x1="455.7206" y1="203.9786" x2="464.9352" y2="207.3388" stroke="#333" stroke-width="1.5"/>
</g>
</g>
</g>
</g>
</g>
  <g>
  <line x1="417.8088" y1="328.4638" x2="469.3333" y2="285.2832" stroke="#333" stroke-width="1.5"/>
  <g>
  <line x1="469.3333" y1="285.2832" x2="483.5673" y2="246.2495" stroke="#333" stroke-width="1.5"/>
  <g>
  <line x1="483.5673" y1="246.2495" x2="479.1238" y2="220.9589" stroke="#333" stroke-width="1.5"/>
  <g>
  <line x1="479.1238" y1="220.9589" x2="468.9302" y2="208.7956" stroke="#333" stroke-width="1.5"/>
  <g>
  <line x1="468.9302" y1="208.7956" x2="459.7156" y2="205.4354" stroke="#333" stroke-width="1.5"/>
</g>
  <g>
  <line x1="468.9302" y1="208.7956" x2="467.2329" y2="199.1354" stroke="#333" stroke-width="1.5"/>
</g>
</g>
  <g>
  <line x1="479.1238" y1="220.9589" x2="484.5607" y2="206.0494" stroke="#333" stroke-width="1.5"/>
  <g>
  <line x1="484.5607" y1="206.0494" x2="482.8634" y2="196.3892" stroke="#333" stroke-width="1.5"/>
</g>
  <g>
  <line x1="484.5607" y1="206.0494" x2="492.078" y2="199.7494" stroke="#333" stroke-width="1.5"/>
</g>
</g>
</g>
  <g>
  <line x1="483.5673" y1="246.2495" x2="503.2479" y2="229.756" stroke="#333" stroke-width="1.5"/>
  <g>
  <line x1="503.2479" y1="229.756" x2="508.6848" y2="214.8465" stroke="#333" stroke-width="1.5"/>
  <g>
  <line x1="508.6848" y1="214.8465" x2="506.9875" y2="205.1863" stroke="#333" stroke-width="1.5"/>
</g>
  <g>
  <line x1="508.6848" y1="214.8465" x2="516.2021" y2="208.5465" stroke="#333" stroke-width="1.5"/>
</g>
</g>
  <g>
  <line x1="503.2479" y1="229.756" x2="518.8784" y2="227.0097" stroke="#333" stroke-width="1.5"/>
  <g>
  <line x1="518.8784" y1="227.0097" x2="526.3957" y2="220.7098" stroke="#333" stroke-width="1.5"/>
</g>
  <g>
  <line x1="518.8784" y1="227.0097" x2="528.093" y2="230.3699" stroke="#333" stroke-width="1.5"/>
</g>
</g>
</g>
</g>
  <g>
  <line x1="469.3333" y1="285.2832" x2="510.2544" y2="278.0934" stroke="#333" stroke-width="1.5"/>
  <g>
  <line x1="510.2544" y1="278.0934" x2="529.935" y2="261.5999" stroke="#333" stroke-width="1.5"/>
  <g>
  <line x1="529.935" y1="261.5999" x2="535.3719" y2="246.6903" stroke="#333" stroke-width="1.5"/>
  <g>
  <line x1="535.3719" y1="246.6903" x2="533.6746" y2="237.0302" stroke="#333" stroke-width="1.5"/>
</g>
  <g>
  <line x1="535.3719" y1="246.6903" x2="542.8892" y2="240.3904" stroke="#333" stroke-width="1.5"/>
</g>
</g>
  <g>
  <line x1="529.935" y1="261.5999" x2="545.5655" y2="258.8536" stroke="#333" stroke-width="1.5"/>
  <g>
  <line x1="545.5655" y1="258.8536" x2="553.0828" y2="252.5536" stroke="#333" stroke-width="1.5"/>
</g>
  <g>
  <line x1="545.5655" y1="258.8536" x2="554.7801" y2="262.2138" stroke="#333" stroke-width="1.5"/>
</g>
</g>
</g>
  <g>
  <line x1="510.2544" y1="278.0934" x2="534.3785" y2="286.8905" stroke="#333" stroke-width="1.5"/>
  <g>
  <line x1="534.3785" y1="286.8905" x2="550.009" y2="284.1443" stroke="#333" stroke-width="1.5"/>
  <g>
  <line x1="550.009" y1="284.1443" x2="557.5263" y2="277.8443" stroke="#333" stroke-width="1.5"/>
</g>
  <g>
  <line x1="550.009" y1="284.1443" x2="559.2236" y2="287.5045" stroke="#333" stroke-width="1.5"/>
</g>
</g>
  <g>
  <line x1="534.3785" y1="286.8905" x2="544.5721" y2="299.0538" stroke="#333" stroke-width="1.5"/>
  <g>
  <line x1="544.5721" y1="299.0538" x2="553.7867" y2="302.414" stroke="#333" stroke-width="1.5"/>
</g>
  <g>
  <line x1="544.5721" y1="299.0538" x2="546.2694" y2="308.714" stroke="#333" stroke-width="1.5"/>
</g>
</g>
</g>
</g>
</g>
</g>
</g>
</g>
</svg>