<svg xmlns="http://www.w3.org/2000/svg" width="800" height="800" viewBox="0 0 800 800">
  <g opacity="0.73">
  <g transform="rotate(20.4,400,400)">
  <g>
  <line x1="504" y1="402" x2="650" y2="402" stroke="#999" stroke-width="0.5"/>
  <line x1="504" y1="402" x2="577" y2="528.4397" stroke="#999" stroke-width="0.5"/>
  <line x1="504" y1="402" x2="431" y2="528.4397" stroke="#999" stroke-width="0.5"/>
  <line x1="504" y1="402" x2="358" y2="402" stroke="#999" stroke-width="0.5"/>
  <line x1="504" y1="402" x2="431" y2="275.5603" stroke="#999" stroke-width="0.5"/>
  <line x1="504" y1="402" x2="577" y2="275.5603" stroke="#999" stroke-width="0.5"/>
  <line x1="504" y1="402" x2="756.8794" y2="548" stroke="#999" stroke-width="0.5"/>
  <line x1="504" y1="402" x2="504" y2="694" stroke="#999" stroke-width="0.5"/>
  <line x1="504" y1="402" x2="251.1206" y2="548" stroke="#999" stroke-width="0.5"/>
  <line x1="504" y1="402" x2="251.1206" y2="256" stroke="#999" stroke-width="0.5"/>
  <line x1="504" y1="402" x2="504" y2="110" stroke="#999" stroke-width="0.5"/>
  <line x1="504" y1="402" x2="756.8794" y2="256" stroke="#999" stroke-width="0.5"/>
  <line x1="650" y1="402" x2="577" y2="528.4397" stroke="#999" stroke-width="0.5"/>
  <line x1="650" y1="402" x2="431" y2="528.4397" stroke="#999" stroke-width="0.5"/>
  <line x1="650" y1="402" x2="358" y2="402" stroke="#999" stroke-width="0.5"/>
  <line x1="650" y1="402" x2="431" y2="275.5603" stroke="#999" stroke-width="0.5"/>
  <line x1="650" y1="402" x2="577" y2="275.5603" stroke="#999" stroke-width="0.5"/>
  <line x1="650" y1="402" x2="756.8794" y2="548" stroke="#999" stroke-width="0.5"/>
  <line x1="650" y1="402" x2="504" y2="694" stroke="#999" stroke-width="0.5"/>
  <line x1="650" y1="402" x2="251.1206" y2="548" stroke="#999" stroke-width="0.5"/>
  <line x1="650" y1="402" x2="251.1206" y2="256" stroke="#999" stroke-width="0.5"/>
  <line x1="650" y1="402" x2="504" y2="110" stroke="#999" stroke-width="0.5"/>
  <line x1="650" y1="402" x2="756.8794" y2="256" stroke="#999" stroke-width="0.5"/>
  <line x1="577" y1="528.4397" x2="431" y2="528.4397" stroke="#999" stroke-width="0.5"/>
  <line x1="577" y1="528.4397" x2="358" y2="402" stroke="#999" stroke-width="0.5"/>
  <line x1="577" y1="528.4397" x2="431" y2="275.5603" stroke="#999" stroke-width="0.5"/>
  <line x1="577" y1="528.4397" x2="577" y2="275.5603" stroke="#999" stroke-width="0.5"/>
  <line x1="577" y1="528.4397" x2="756.8794" y2="548" stroke="#999" stroke-width="0.5"/>
  <line x1="577" y1="528.4397" x2="504" y2="694" stroke="#999" stroke-width="0.5"/>
  <line x1="577" y1="528.4397" x2="251.1206" y2="548" stroke="#999" stroke-width="0.5"/>
  <line x1="577" y1="528.4397" x2="251.1206" y2="256" stroke="#999" stroke-width="0.5"/>
  <line x1="577" y1="528.4397" x2="504" y2="110" stroke="#999" stroke-width="0.5"/>
  <line x1="577" y1="528.4397" x2="756.8794" y2="256" stroke="#999" stroke-width="0.5"/>
  <line x1="431" y1="528.4397" x2="358" y2="402" stroke="#999" stroke-width="0.5"/>
  <line x1="431" y1="528.4397" x2="431" y2="275.5603" stroke="#999" stroke-width="0.5"/>
  <line x1="431" y1="528.4397" x2="577" y2="275.5603" stroke="#999" stroke-width="0.5"/>
  <line x1="431" y1="528.4397" x2="756.8794" y2="548" stroke="#999" stroke-width="0.5"/>
  <line x1="431" y1="528.4397" x2="504" y2="694" stroke="#999" stroke-width="0.5"/>
  <line x1="431" y1="528.4397" x2="251.1206" y2="548" stroke="#999" stroke-width="0.5"/>
  <line x1="431" y1="528.4397" x2="251.1206" y2="256" stroke="#999" stroke-width="0.5"/>
  <line x1="431" y1="528.4397" x2="504" y2="110" stroke="#999" stroke-width="0.5"/>
  <line x1="431" y1="528.4397" x2="756.8794" y2="256" stroke="#999" stroke-width="0.5"/>
  <line x1="358" y1="402" x2="431" y2="275.5603" stroke="#999" stroke-width="0.5"/>
  <line x1="358" y1="402" x2="577" y2="275.5603" stroke="#999" stroke-width="0.5"/>
  <line x1="358" y1="402" x2="756.8794" y2="548" stroke="#999" stroke-width="0.5"/>
  <line x1="358" y1="402" x2="504" y2="694" stroke="#999" stroke-width="0.5"/>
  <line x1="358" y1="402" x2="251.1206" y2="548" stroke="#999" stroke-width="0.5"/>
  <line x1="358" y1="402" x2="251.1206" y2="256" stroke="#999" stroke-width="0.5"/>
  <line x1="358" y1="402" x2="504" y2="110" stroke="#999" stroke-width="0.5"/>
  <line x1="358" y1="402" x2="756.8794" y2="256" stroke="#999" stroke-width="0.5"/>
  <line x1="431" y1="275.5603" x2="577" y2="275.5603" stroke="#999" stroke-width="0.5"/>
  <line x1="431" y1="275.5603" x2="756.8794" y2="548" stroke="#999" stroke-width="0.5"/>
  <line x1="431" y1="275.5603" x2="504" y2="694" stroke="#999" stroke-width="0.5"/>
  <line x1="431" y1="275.5603" x2="251.1206" y2="548" stroke="#999" stroke-width="0.5"/>
  <line x1="431" y1="275.5603" x2="251.1206" y2="256" stroke="#999" stroke-width="0.5"/>
  <line x1="431" y1="275.5603" x2="504" y2="110" stroke="#999" stroke-width="0.5"/>
  <line x1="431" y1="275.5603" x2="756.8794" y2="256" stroke="#999" stroke-width="0.5"/>
  <line x1="577" y1="275.5603" x2="756.8794" y2="548" stroke="#999" stroke-width="0.5"/>
  <line x1="577" y1="275.5603" x2="504" y2="694" stroke="#999" stroke-width="0.5"/>
  <line x1="577" y1="275.5603" x2="251.1206" y2="548" stroke="#999" stroke-width="0.5"/>
  <line x1="577" y1="275.5603" x2="251.1206" y2="256" stroke="#999" stroke-width="0.5"/>
  <line x1="577" y1="275.5603" x2="504" y2="110" stroke="#999" stroke-width="0.5"/>
  <line x1="577" y1="275.5603" x2="756.8794" y2="256" stroke="#999" stroke-width="0.5"/>
  <line x1="756.8794" y1="548" x2="504" y2="694" stroke="#999" stroke-width="0.5"/>
  <line x1="756.8794" y1="548" x2="251.1206" y2="548" stroke="#999" stroke-width="0.5"/>
  <line x1="756.8794" y1="548" x2="251.1206" y2="256" stroke="#999" stroke-width="0.5"/>
  <line x1="756.8794" y1="548" x2="504" y2="110" stroke="#999" stroke-width="0.5"/>
  <line x1="756.8794" y1="548" x2="756.8794" y2="256" stroke="#999" stroke-width="0.5"/>
  <line x1="504" y1="694" x2="251.1206" y2="548" stroke="#999" stroke-width="0.5"/>
  <line x1="504" y1="694" x2="251.1206" y2="256" stroke="#999" stroke-width="0.5"/>
  <line x1="504" y1="694" x2="504" y2="110" stroke="#999" stroke-width="0.5"/>
  <line x1="504" y1="694" x2="756.8794" y2="256" stroke="#999" stroke-width="0.5"/>
  <line x1="251.1206" y1="548" x2="251.1206" y2="256" stroke="#999" stroke-width="0.5"/>
  <line x1="251.1206" y1="548" x2="504" y2="110" stroke="#999" stroke-width="0.5"/>
  <line x1="251.1206" y1="548" x2="756.8794" y2="256" stroke="#999" stroke-width="0.5"/>
  <line x1="251.1206" y1="256" x2="504" y2="110" stroke="#999" stroke-width="0.5"/>
  <line x1="251.1206" y1="256" x2="756.8794" y2="256" stroke="#999" stroke-width="0.5"/>
  <line x1="504" y1="110" x2="756.8794" y2="256" stroke="#999" stroke-width="0.5"/>
  <circle cx="504" cy="402" r="21.9" fill="none" stroke="#333" stroke-width="1"/>
  <circle cx="650" cy="402" r="21.9" fill="none" stroke="#333" stroke-width="1"/>
  <circle cx="577" cy="528.4397" r="21.9" fill="none" stroke="#333" stroke-width="1"/>
  <circle cx="431" cy="528.4397" r="21.9" fill="none" stroke="#333" stroke-width="1"/>
  <circle cx="358" cy="402" r="21.9" fill="none" stroke="#333" stroke-width="1"/>
  <circle cx="431" cy="275.5603" r="21.9" fill="none" stroke="#333" stroke-width="1"/>
  <circle cx="577" cy="275.5603" r="21.9" fill="none" stroke="#333" stroke-width="1"/>
  <circle cx="756.8794" cy="548" r="21.9" fill="none" stroke="#333" stroke-width="1"/>
  <circle cx="504" cy="694" r="21.9" fill="none" stroke="#333" stroke-width="1"/>
  <circle cx="251.1206" cy="548" r="21.9" fill="none" stroke="#333" stroke-width="1"/>
  <circle cx="251.1206" cy="256" r="21.9" fill="none" stroke="#333" stroke-width="1"/>
  <circle cx="504" cy="110" r="21.9" fill="none" stroke="#333" stroke-width="1"/>
  <circle cx="756.8794" cy="256" r="21.9" fill="none" stroke="#333" stroke-width="1"/>
</g>
</g>
</g>
  <g transform="rotate(-1.8,400,400)">
  <g>
  <polyline points="461.6545,535.4382 459.9825,529.3571 457.2577,523.4038 453.4952,517.6319 448.7147,512.0953 442.9411,506.8478 436.2048,501.9436 428.5421,497.4368 419.996,493.3818 410.617,489.8323 400.4632,486.8418 389.6015,484.4622 378.1074,482.7436 366.0661,481.7337 353.5721,481.4765 340.7297,482.0119 327.6525,483.3741 314.4631,485.591 301.2923,488.6832 288.2787,492.6626 275.5669,497.5316 263.3061,503.2824 251.6491,509.8957 240.7494,517.3406 230.7599,525.5738 221.8301,534.5392 214.1041,544.1682 207.7176,554.3794 202.7959,565.0793 199.451,576.1628 197.7794,587.5142 197.8594,599.0083 199.7497,610.5116 203.4869,621.8844 209.0839,632.9819 216.5291,643.6571 225.7851,653.7621 236.7885,663.1508 249.4496,671.6812 263.6531,679.2178 279.2587,685.6335 296.1027,690.8124 313.9997,694.6517 332.7447,697.0638 352.1159,697.978 371.8778,697.3421 391.784,695.1236 411.5816,691.3111 431.014,685.9144 449.8257,678.9651 467.7657,670.5166 484.5916,660.6436 500.0736,649.4413 513.9981,637.0241 526.1712,623.5245 536.4219,609.091 544.6052,593.8862 550.6041,578.0842 554.3319,561.8683 555.7336,545.428 554.7868,528.9567" stroke="#333" stroke-width="0.8" fill="none"/>
  <polyline points="473.296,534.628 471.4225,527.2685 468.3409,520.065 464.0741,513.0879 458.6527,506.4065 452.1154,500.0889 444.5091,494.2018 435.8892,488.8101 426.3193,483.9765 415.8719,479.7611 404.6281,476.2208 392.6777,473.4089 380.1191,471.3742 367.0592,470.1607 353.6132,469.8063 339.9038,470.3426 326.061,471.794 312.2208,474.1767 298.5249,477.4981 285.1187,481.7562 272.1507,486.9389 259.7706,493.0235 248.1276,499.9762 237.3689,507.7519 227.6373,516.2942 219.0696,525.5351 211.7942,535.3954 205.9292,545.7854 201.5803,556.6049 198.8387,567.7444 197.7794,579.0863 198.459,590.5056 200.9146,601.8716 205.1624,613.0493 211.1963,623.9014 218.9873,634.2898 228.4833,644.0774 239.6088,653.1306 252.265,661.3207 266.3307,668.5264 281.6633,674.6356 298.1005,679.547 315.4613,683.1722 333.5489,685.4375 352.1529,686.2846 371.0518,685.6728 390.0164,683.5793 408.8126,679.9999 427.2049,674.9502 444.9597,668.4646 461.8487,660.5973 477.6527,651.4211 492.1644,641.0266 505.1917,629.5216 516.561,617.0295 526.1194,603.6876 533.7378,589.6453 539.3121,575.0623 542.7656,560.1058 544.0498,544.9487 543.1453,529.7669" stroke="#333" stroke-width="0.8" fill="none"/>
  <polyline points="484.9376,533.8178 482.8624,525.1798 479.4242,516.7262 474.6531,508.5439 468.5906,500.7177 461.2896,493.33 452.8134,486.4601 443.2362,480.1835 432.6426,474.5713 421.1269,469.6899 408.793,465.5999 395.7539,462.3557 382.1307,460.0049 368.0523,458.5877 353.6542,458.136 339.0779,458.6734 324.4694,460.214 309.9786,462.7623 295.7574,466.3129 281.9586,470.8497 268.7345,476.3461 256.235,482.7645 244.6062,490.0566 233.9885,498.1632 224.5148,507.0146 216.309,516.531 209.4842,526.6227 204.1407,537.1914 200.3646,548.1305 198.2264,559.326 197.7794,570.6584 199.0585,582.0029 202.0795,593.2315 206.8379,604.2143 213.3086,614.8209 221.4455,624.9225 231.1816,634.3927 242.4291,643.1103 255.0803,650.9602 269.0082,657.8351 284.068,663.6377 300.0982,668.2816 316.9228,671.6927 334.3531,673.8111 352.1898,674.5912 370.2259,674.0036 388.2489,672.0349 406.0437,668.6888 423.3958,663.9859 440.0936,657.9641 455.9318,650.678 470.7138,642.1985 484.2551,632.6119 496.3853,622.0191 506.9507,610.5345 515.817,598.2842 522.8704,585.4045 528.0202,572.0404 531.1993,558.3433 532.3659,544.4694 531.5037,530.5771" stroke="#333" stroke-width="0.8" fill="none"/>
  <polyline points="496.5791,533.0076 494.3024,523.0912 490.5074,513.3875 485.232,503.9998 478.5286,495.0289 470.4638,486.5711 461.1177,478.7183 450.5833,471.5568 438.9659,465.1661 426.3818,459.6187 412.9579,454.979 398.8301,451.3025 384.1424,448.6356 369.0454,447.0147 353.6952,446.4658 338.2519,447.0041 322.8779,448.6339 307.7364,451.348 292.9899,455.1277 278.7986,459.9433 265.3184,465.7533 252.6995,472.5056 241.0848,480.1371 230.608,488.5745 221.3922,497.735 213.5485,507.5268 207.1743,517.85 202.3522,528.5975 199.1489,539.6561 197.6141,550.9077 197.7794,562.2305 199.658,573.5001 203.2444,584.5914 208.5135,595.3792 215.421,605.7404 223.9038,615.5551 233.8798,624.7081 245.2493,633.0901 257.8956,640.5996 271.6857,647.1438 286.4726,652.6399 302.0959,657.0162 318.3844,660.2133 335.1573,662.1847 352.2268,662.8979 369.3999,662.3343 386.4813,660.4905 403.2748,657.3776 419.5867,653.0217 435.2276,647.4637 450.0148,640.7587 463.7749,632.9759 476.3459,624.1972 487.5789,614.5166 497.3405,604.0395 505.5145,592.8807 512.003,581.1636 516.7282,569.0184 519.633,556.5808 520.6821,543.99 519.8622,531.3873" stroke="#333" stroke-width="0.8" fill="none"/>
  <polyline points="508.2206,532.1975 505.7424,521.0026 501.5907,510.0487 495.811,499.4558 488.4666,489.34 479.638,479.8122 469.422,470.9766 457.9304,462.9301 445.2891,455.7609 431.6368,449.5475 417.1228,444.358 401.9064,440.2492 386.1541,437.2662 370.0385,435.4417 353.7363,434.7955 337.426,435.3349 321.2863,437.0539 305.4941,439.9336 290.2224,443.9426 275.6385,449.0368 261.9022,455.1606 249.164,462.2467 237.5634,470.2175 227.2275,478.9858 218.2697,488.4555 210.788,498.5227 204.8644,509.0773 200.5638,520.0035 197.9333,531.1816 197.0017,542.4893 197.7794,553.8025 200.2576,564.9974 204.4093,575.9513 210.189,586.5442 217.5334,596.66 226.362,606.1878 236.578,615.0234 248.0696,623.0699 260.7109,630.2391 274.3632,636.4525 288.8772,641.642 304.0936,645.7508 319.8459,648.7338 335.9615,650.5583 352.2637,651.2045 368.574,650.6651 384.7137,648.9461 400.5059,646.0664 415.7776,642.0574 430.3615,636.9632 444.0978,630.8394 456.836,623.7533 468.4366,615.7825 478.7725,607.0142 487.7303,597.5445 495.212,587.4773 501.1356,576.9227 505.4362,565.9965 508.0667,554.8184 508.9983,543.5107 508.2206,532.1975" stroke="#333" stroke-width="0.8" fill="none"/>
  <polyline points="519.8622,531.3873 517.1824,518.9139 512.6739,506.7099 506.3899,494.9118 498.4046,483.6512 488.8122,473.0533 477.7263,463.2349 465.2774,454.3035 451.6124,446.3557 436.8917,439.4763 421.2877,433.7371 404.9826,429.196 388.1657,425.8969 371.0316,423.8687 353.7773,423.1253 336.6001,423.6657 319.6948,425.4738 303.2519,428.5193 287.4549,432.7574 272.4784,438.1304 258.486,444.5678 245.6284,451.9877 234.0419,460.298 223.8471,469.3971 215.1471,479.1759 208.0274,489.5186 202.5544,500.3045 198.7753,511.4095 196.7176,522.7072 196.3894,534.0709 197.7794,545.3746 200.8571,556.4947 205.5742,567.3112 211.8646,577.7091 219.6458,587.5795 228.8202,596.8205 239.2763,605.3387 250.8899,613.0496 263.5262,619.8785 277.0408,625.7612 291.2818,630.6441 306.0914,634.4854 321.3075,637.2543 336.7657,638.932 352.3007,639.5111 367.7481,638.9959 382.9461,637.4018 397.7369,634.7552 411.9685,631.0932 425.4954,626.4627 438.1808,620.9201 449.8972,614.5307 460.5274,607.3678 469.9661,599.5117 478.1201,591.0495 484.9096,582.0738 490.2683,572.6819 494.1443,562.9746 496.5004,553.0559 497.3144,543.0314 496.5791,533.0076" stroke="#333" stroke-width="0.8" fill="none"/>
  <polyline points="531.5037,530.5771 528.6224,516.8253 523.7572,503.3711 516.9689,490.3678 508.3425,477.9624 497.9865,466.2943 486.0305,455.4931 472.6245,445.6768 457.9357,436.9505 442.1466,429.4051 425.4526,423.1161 408.0588,418.1428 390.1774,414.5276 372.0247,412.2957 353.8184,411.455 335.7741,411.9964 318.1032,413.8938 301.0097,417.1049 284.6875,421.5722 269.3184,427.2239 255.0698,433.975 242.0929,441.7288 230.5205,450.3785 220.4666,459.8085 212.0246,469.8963 205.2669,480.5145 200.2445,491.5318 196.9868,502.8155 195.5019,514.2328 195.7771,525.6525 197.7794,536.9467 201.4567,547.992 206.7391,558.6712 213.5401,568.8741 221.7582,578.499 231.2784,587.4532 241.9745,595.6541 253.7102,603.0294 266.3415,609.518 279.7183,615.0698 293.6864,619.6463 308.0891,623.2199 322.7691,625.7748 337.5699,627.3056 352.3376,627.8177 366.9221,627.3266 381.1785,625.8574 394.968,623.444 408.1594,620.1289 420.6294,615.9622 432.2639,611.0008 442.9583,605.3082 452.6181,598.9531 461.1597,592.0092 468.5099,584.5545 474.6071,576.6704 479.4009,568.441 482.8523,559.9527 484.9341,551.2934 485.6306,542.552 484.9376,533.8178" stroke="#333" stroke-width="0.8" fill="none"/>
  <polyline points="543.1453,529.7669 540.0623,514.7367 534.8404,500.0324 527.5478,485.8238 518.2805,472.2736 507.1607,459.5354 494.3348,447.7514 479.9716,437.0501 464.259,427.5453 447.4016,419.3339 429.6175,412.4952 411.135,407.0896 392.189,403.1582 373.0178,400.7227 353.8594,399.7848 334.9482,400.3272 316.5117,402.3137 298.7674,405.6905 281.92,410.3871 266.1583,416.3175 251.6537,423.3822 238.5573,431.4699 226.9991,440.4589 217.0861,450.2198 208.902,460.6168 202.5064,471.5104 197.9346,482.7591 195.1983,494.2216 194.2863,505.7584 195.1648,517.2342 197.7794,528.5188 202.0562,539.4893 207.904,550.0311 215.2156,560.039 223.8705,569.4185 233.7367,578.0859 244.6727,585.9694 256.5305,593.0092 269.1568,599.1575 282.3958,604.3785 296.091,608.6484 310.0868,611.9545 324.2306,614.2953 338.3741,615.6792 352.3746,616.1243 366.0962,615.6574 379.4109,614.313 392.1991,612.1328 404.3503,609.1647 415.7633,605.4617 426.3469,601.0815 436.0194,596.0856 444.7089,590.5384 452.3533,584.5067 458.8997,578.0595 464.3046,571.267 468.5335,564.2001 471.5604,556.9308 473.3678,549.5309 473.9468,542.0727 473.296,534.628" stroke="#333" stroke-width="0.8" fill="none"/>
  <polyline points="461.6545,535.4382 473.296,534.628 484.9376,533.8178 496.5791,533.0076 508.2206,532.1975 519.8622,531.3873 531.5037,530.5771 543.1453,529.7669" stroke="#999" stroke-width="0.5" fill="none"/>
  <polyline points="442.9411,506.8478 452.1154,500.0889 461.2896,493.33 470.4638,486.5711 479.638,479.8122 488.8122,473.0533 497.9865,466.2943 507.1607,459.5354" stroke="#999" stroke-width="0.5" fill="none"/>
  <polyline points="400.4632,486.8418 404.6281,476.2208 408.793,465.5999 412.9579,454.979 417.1228,444.358 421.2877,433.7371 425.4526,423.1161 429.6175,412.4952" stroke="#999" stroke-width="0.5" fill="none"/>
  <polyline points="340.7297,482.0119 339.9038,470.3426 339.0779,458.6734 338.2519,447.0041 337.426,435.3349 336.6001,423.6657 335.7741,411.9964 334.9482,400.3272" stroke="#999" stroke-width="0.5" fill="none"/>
  <polyline points="275.5669,497.5316 272.1507,486.9389 268.7345,476.3461 265.3184,465.7533 261.9022,455.1606 258.486,444.5678 255.0698,433.975 251.6537,423.3822" stroke="#999" stroke-width="0.5" fill="none"/>
  <polyline points="221.8301,534.5392 219.0696,525.5351 216.309,516.531 213.5485,507.5268 210.788,498.5227 208.0274,489.5186 205.2669,480.5145 202.5064,471.5104" stroke="#999" stroke-width="0.5" fill="none"/>
  <polyline points="197.7794,587.5142 197.7794,579.0863 197.7794,570.6584 197.7794,562.2305 197.7794,553.8025 197.7794,545.3746 197.7794,536.9467 197.7794,528.5188" stroke="#999" stroke-width="0.5" fill="none"/>
  <polyline points="216.5291,643.6571 218.9873,634.2898 221.4455,624.9225 223.9038,615.5551 226.362,606.1878 228.8202,596.8205 231.2784,587.4532 233.7367,578.0859" stroke="#999" stroke-width="0.5" fill="none"/>
  <polyline points="279.2587,685.6335 281.6633,674.6356 284.068,663.6377 286.4726,652.6399 288.8772,641.642 291.2818,630.6441 293.6864,619.6463 296.091,608.6484" stroke="#999" stroke-width="0.5" fill="none"/>
  <polyline points="371.8778,697.3421 371.0518,685.6728 370.2259,674.0036 369.3999,662.3343 368.574,650.6651 367.7481,638.9959 366.9221,627.3266 366.0962,615.6574" stroke="#999" stroke-width="0.5" fill="none"/>
  <polyline points="467.7657,670.5166 461.8487,660.5973 455.9318,650.678 450.0148,640.7587 444.0978,630.8394 438.1808,620.9201 432.2639,611.0008 426.3469,601.0815" stroke="#999" stroke-width="0.5" fill="none"/>
  <polyline points="536.4219,609.091 526.1194,603.6876 515.817,598.2842 505.5145,592.8807 495.212,587.4773 484.9096,582.0738 474.6071,576.6704 464.3046,571.267" stroke="#999" stroke-width="0.5" fill="none"/>
</g>
</g>
  <g>
  <line x1="385" y1="622" x2="362.6923" y2="508.1652" stroke="#333" stroke-width="1.5"/>
  <g>
  <line x1="362.6923" y1="508.1652" x2="315.5756" y2="454.1305" stroke="#333" stroke-width="1.5"/>
  <g>
  <line x1="315.5756" y1="454.1305" x2="273.6595" y2="439.7692" stroke="#333" stroke-width="1.5"/>
  <g>
  <line x1="273.6595" y1="439.7692" x2="246.7868" y2="445.0353" stroke="#333" stroke-width="1.5"/>
</g>
  <g>
  <line x1="273.6595" y1="439.7692" x2="255.6625" y2="419.1297" stroke="#333" stroke-width="1.5"/>
</g>
</g>
  <g>
  <line x1="315.5756" y1="454.1305" x2="307.0548" y2="410.6494" stroke="#333" stroke-width="1.5"/>
  <g>
  <line x1="307.0548" y1="410.6494" x2="289.0578" y2="390.01" stroke="#333" stroke-width="1.5"/>
</g>
  <g>
  <line x1="307.0548" y1="410.6494" x2="315.9306" y2="384.7439" stroke="#333" stroke-width="1.5"/>
</g>
</g>
</g>
  <g>
  <line x1="362.6923" y1="508.1652" x2="385.9294" y2="440.3436" stroke="#333" stroke-width="1.5"/>
  <g>
  <line x1="385.9294" y1="440.3436" x2="377.4086" y2="396.8625" stroke="#333" stroke-width="1.5"/>
  <g>
  <line x1="377.4086" y1="396.8625" x2="359.4116" y2="376.2231" stroke="#333" stroke-width="1.5"/>
</g>
  <g>
  <line x1="377.4086" y1="396.8625" x2="386.2844" y2="370.957" stroke="#333" stroke-width="1.5"/>
</g>
</g>
  <g>
  <line x1="385.9294" y1="440.3436" x2="419.3247" y2="411.2238" stroke="#333" stroke-width="1.5"/>
  <g>
  <line x1="419.3247" y1="411.2238" x2="428.2004" y2="385.3183" stroke="#333" stroke-width="1.5"/>
</g>
  <g>
  <line x1="419.3247" y1="411.2238" x2="446.1974" y2="405.9577" stroke="#333" stroke-width="1.5"/>
</g>
</g>
</g>
</g>
  <g transform="rotate(27.5,400,400)">
  <g>
  <circle cx="397" cy="475" r="22.272" stroke="#e74c3c" stroke-width="2" fill="#e74c3c" fill-opacity="0.08"/>
  <circle cx="419.272" cy="475" r="3" fill="#e74c3c" stroke="none"/>
  <circle cx="385.864" cy="455.7119" r="3" fill="#e74c3c" stroke="none"/>
  <circle cx="385.864" cy="494.2881" r="3" fill="#e74c3c" stroke="none"/>
  <text x="427.272" y="479" font-size="10" fill="#e74c3c">3D c3 seed</text>
  <circle cx="397" cy="475" r="36.0368" stroke="#e67e22" stroke-width="2" fill="#e67e22" fill-opacity="0.08"/>
  <circle cx="433.0368" cy="475" r="3" fill="#e67e22" stroke="none"/>
  <circle cx="397" cy="438.9632" r="3" fill="#e67e22" stroke="none"/>
  <circle cx="360.9632" cy="475" r="3" fill="#e67e22" stroke="none"/>
  <circle cx="397" cy="511.0368" r="3" fill="#e67e22" stroke="none"/>
  <text x="441.0368" y="479" font-size="10" fill="#e67e22">4D E4 base</text>
  <circle cx="397" cy="475" r="58.3088" stroke="#f1c40f" stroke-width="2" fill="#f1c40f" fill-opacity="0.08"/>
  <circle cx="455.3088" cy="475" r="3" fill="#f1c40f" stroke="none"/>
  <circle cx="426.1544" cy="424.5031" r="3" fill="#f1c40f" stroke="none"/>
  <circle cx="367.8456" cy="424.5031" r="3" fill="#f1c40f" stroke="none"/>
  <circle cx="338.6912" cy="475" r="3" fill="#f1c40f" stroke="none"/>
  <circle cx="367.8456" cy="525.4969" r="3" fill="#f1c40f" stroke="none"/>
  <circle cx="426.1544" cy="525.4969" r="3" fill="#f1c40f" stroke="none"/>
  <text x="463.3088" y="479" font-size="10" fill="#f1c40f">6D W3 Mobius</text>
  <circle cx="397" cy="475" r="94.3456" stroke="#2ecc71" stroke-width="2" fill="#2ecc71" fill-opacity="0.08"/>
  <circle cx="491.3456" cy="475" r="3" fill="#2ecc71" stroke="none"/>
  <circle cx="463.7124" cy="408.2876" r="3" fill="#2ecc71" stroke="none"/>
  <circle cx="397" cy="380.6544" r="3" fill="#2ecc71" stroke="none"/>
  <circle cx="330.2876" cy="408.2876" r="3" fill="#2ecc71" stroke="none"/>
  <circle cx="302.6544" cy="475" r="3" fill="#2ecc71" stroke="none"/>
  <circle cx="330.2876" cy="541.7124" r="3" fill="#2ecc71" stroke="none"/>
  <circle cx="397" cy="569.3456" r="3" fill="#2ecc71" stroke="none"/>
  <circle cx="463.7124" cy="541.7124" r="3" fill="#2ecc71" stroke="none"/>
  <text x="499.3456" y="479" font-size="10" fill="#2ecc71">8D W5 penta</text>
  <circle cx="397" cy="475" r="152.6544" stroke="#3498db" stroke-width="2" fill="#3498db" fill-opacity="0.08"/>
  <circle cx="549.6544" cy="475" r="3" fill="#3498db" stroke="none"/>
  <circle cx="520.5" cy="385.272" r="3" fill="#3498db" stroke="none"/>
  <circle cx="444.1728" cy="329.817" r="3" fill="#3498db" stroke="none"/>
  <circle cx="349.8272" cy="329.817" r="3" fill="#3498db" stroke="none"/>
  <circle cx="273.5" cy="385.272" r="3" fill="#3498db" stroke="none"/>
  <circle cx="244.3456" cy="475" r="3" fill="#3498db" stroke="none"/>
  <circle cx="273.5" cy="564.728" r="3" fill="#3498db" stroke="none"/>
  <circle cx="349.8272" cy="620.183" r="3" fill="#3498db" stroke="none"/>
  <circle cx="444.1728" cy="620.183" r="3" fill="#3498db" stroke="none"/>
  <circle cx="520.5" cy="564.728" r="3" fill="#3498db" stroke="none"/>
  <text x="557.6544" y="479" font-size="10" fill="#3498db">10D W7 hepta</text>
  <circle cx="397" cy="475" r="247" stroke="#9b59b6" stroke-width="2" fill="#9b59b6" fill-opacity="0.08"/>
  <circle cx="644" cy="475" r="3" fill="#9b59b6" stroke="none"/>
  <circle cx="610.9083" cy="351.5" r="3" fill="#9b59b6" stroke="none"/>
  <circle cx="520.5" cy="261.0917" r="3" fill="#9b59b6" stroke="none"/>
  <circle cx="397" cy="228" r="3" fill="#9b59b6" stroke="none"/>
  <circle cx="273.5" cy="261.0917" r="3" fill="#9b59b6" stroke="none"/>
  <circle cx="183.0917" cy="351.5" r="3" fill="#9b59b6" stroke="none"/>
  <circle cx="150" cy="475" r="3" fill="#9b59b6" stroke="none"/>
  <circle cx="183.0917" cy="598.5" r="3" fill="#9b59b6" stroke="none"/>
  <circle cx="273.5" cy="688.9083" r="3" fill="#9b59b6" stroke="none"/>
  <circle cx="397" cy="722" r="3" fill="#9b59b6" stroke="none"/>
  <circle cx="520.5" cy="688.9083" r="3" fill="#9b59b6" stroke="none"/>
  <circle cx="610.9083" cy="598.5" r="3" fill="#9b59b6" stroke="none"/>
  <text x="652" y="479" font-size="10" fill="#9b59b6">12D W9 crown</text>
</g>
</g>
  <g opacity="0.82">
  <g>
  <line x1="524" y1="580" x2="583.2943" y2="421.7433" stroke="#333" stroke-width="1.5"/>
  <g>
  <line x1="583.2943" y1="421.7433" x2="566.1266" y2="318.7161" stroke="#333" stroke-width="1.5"/>
  <g>
  <line x1="566.1266" y1="318.7161" x2="525.1007" y2="268.8777" stroke="#333" stroke-width="1.5"/>
  <g>
  <line x1="525.1007" y1="268.8777" x2="487.7414" y2="254.8802" stroke="#333" stroke-width="1.5"/>
</g>
  <g>
  <line x1="525.1007" y1="268.8777" x2="518.5432" y2="229.5248" stroke="#333" stroke-width="1.5"/>
</g>
</g>
  <g>
  <line x1="566.1266" y1="318.7161" x2="588.775" y2="258.2674" stroke="#333" stroke-width="1.5"/>
  <g>
  <line x1="588.775" y1="258.2674" x2="582.2175" y2="218.9145" stroke="#333" stroke-width="1.5"/>
</g>
  <g>
  <line x1="588.775" y1="258.2674" x2="619.5768" y2="232.912" stroke="#333" stroke-width="1.5"/>
</g>
</g>
</g>
  <g>
  <line x1="583.2943" y1="421.7433" x2="663.9346" y2="355.362" stroke="#333" stroke-width="1.5"/>
  <g>
  <line x1="663.9346" y1="355.362" x2="686.583" y2="294.9133" stroke="#333" stroke-width="1.5"/>
  <g>
  <line x1="686.583" y1="294.9133" x2="680.0255" y2="255.5605" stroke="#333" stroke-width="1.5"/>
</g>
  <g>
  <line x1="686.583" y1="294.9133" x2="717.3849" y2="269.5579" stroke="#333" stroke-width="1.5"/>
</g>
</g>
  <g>
  <line x1="663.9346" y1="355.362" x2="727.6089" y2="344.7518" stroke="#333" stroke-width="1.5"/>
  <g>
  <line x1="727.6089" y1="344.7518" x2="758.4108" y2="319.3964" stroke="#333" stroke-width="1.5"/>
</g>
  <g>
  <line x1="727.6089" y1="344.7518" x2="764.9682" y2="358.7493" stroke="#333" stroke-width="1.5"/>
</g>
</g>
</g>
</g>
</g>
</svg>