<svg xmlns="http://www.w3.org/2000/svg" width="800" height="800" viewBox="0 0 800 800">
  <g transform="rotate(-47.7,400,400)">
  <polygon points="231,-41 234.0257,-35.7593 231,-30.5185 237.0515,-30.5185 240.0772,-25.2778 237.0515,-20.037 231,-20.037 234.0257,-14.7963 231,-9.5556 237.0515,-9.5556 240.0772,-4.3148 243.103,-9.5556 249.1545,-9.5556 252.1802,-4.3148 249.1545,0.9259 255.2059,0.9259 258.2317,6.1667 255.2059,11.4074 249.1545,11.4074 252.1802,16.6481 249.1545,21.8889 243.103,21.8889 240.0772,16.6481 237.0515,21.8889 231,21.8889 234.0257,27.1296 231,32.3704 237.0515,32.3704 240.0772,37.6111 237.0515,42.8519 231,42.8519 234.0257,48.0926 231,53.3333 237.0515,53.3333 240.0772,58.5741 243.103,53.3333 249.1545,53.3333 252.1802,58.5741 249.1545,63.8148 255.2059,63.8148 258.2317,69.0556 261.2574,63.8148 267.3089,63.8148 264.2832,58.5741 267.3089,53.3333 273.3604,53.3333 276.3861,58.5741 279.4119,53.3333 285.4634,53.3333 288.4891,58.5741 285.4634,63.8148 291.5149,63.8148 294.5406,69.0556 291.5149,74.2963 285.4634,74.2963 288.4891,79.537 285.4634,84.7778 291.5149,84.7778 294.5406,90.0185 297.5663,84.7778 303.6178,84.7778 306.6436,90.0185 303.6178,95.2593 309.6693,95.2593 312.6951,100.5 309.6693,105.7407 303.6178,105.7407 306.6436,110.9815 303.6178,116.2222 297.5663,116.2222 294.5406,110.9815 291.5149,116.2222 285.4634,116.2222 288.4891,121.463 285.4634,126.7037 291.5149,126.7037 294.5406,131.9444 291.5149,137.1852 285.4634,137.1852 288.4891,142.4259 285.4634,147.6667 279.4119,147.6667 276.3861,142.4259 273.3604,147.6667 267.3089,147.6667 264.2832,142.4259 267.3089,137.1852 261.2574,137.1852 258.2317,131.9444 255.2059,137.1852 249.1545,137.1852 252.1802,142.4259 249.1545,147.6667 243.103,147.6667 240.0772,142.4259 237.0515,147.6667 231,147.6667 234.0257,152.9074 231,158.1481 237.0515,158.1481 240.0772,163.3889 237.0515,168.6296 231,168.6296 234.0257,173.8704 231,179.1111 237.0515,179.1111 240.0772,184.3519 243.103,179.1111 249.1545,179.1111 252.1802,184.3519 249.1545,189.5926 255.2059,189.5926 258.2317,194.8333 255.2059,200.0741 249.1545,200.0741 252.1802,205.3148 249.1545,210.5556 243.103,210.5556 240.0772,205.3148 237.0515,210.5556 231,210.5556 234.0257,215.7963 231,221.037 237.0515,221.037 240.0772,226.2778 237.0515,231.5185 231,231.5185 234.0257,236.7593 231,242 237.0515,242 240.0772,247.2407 243.103,242 249.1545,242 252.1802,247.2407 249.1545,252.4815 255.2059,252.4815 258.2317,257.7222 261.2574,252.4815 267.3089,252.4815 264.2832,247.2407 267.3089,242 273.3604,242 276.3861,247.2407 279.4119,242 285.4634,242 288.4891,247.2407 285.4634,252.4815 291.5149,252.4815 294.5406,257.7222 291.5149,262.963 285.4634,262.963 288.4891,268.2037 285.4634,273.4444 291.5149,273.4444 294.5406,278.6852 297.5663,273.4444 303.6178,273.4444 306.6436,278.6852 303.6178,283.9259 309.6693,283.9259 312.6951,289.1667 315.7208,283.9259 321.7723,283.9259 318.7465,278.6852 321.7723,273.4444 327.8238,273.4444 330.8495,278.6852 333.8753,273.4444 339.9268,273.4444 336.901,268.2037 339.9268,262.963 333.8753,262.963 330.8495,257.7222 333.8753,252.4815 339.9268,252.4815 336.901,247.2407 339.9268,242 345.9782,242 349.004,247.2407 352.0297,242 358.0812,242 361.107,247.2407 358.0812,252.4815 364.1327,252.4815 367.1584,257.7222 370.1842,252.4815 376.2357,252.4815 373.2099,247.2407 376.2357,242 382.2872,242 385.3129,247.2407 388.3386,242 394.3901,242 397.4159,247.2407 394.3901,252.4815 400.4416,252.4815 403.4674,257.7222 400.4416,262.963 394.3901,262.963 397.4159,268.2037 394.3901,273.4444 400.4416,273.4444 403.4674,278.6852 406.4931,273.4444 412.5446,273.4444 415.5703,278.6852 412.5446,283.9259 418.5961,283.9259 421.6218,289.1667 418.5961,294.4074 412.5446,294.4074 415.5703,299.6481 412.5446,304.8889 406.4931,304.8889 403.4674,299.6481 400.4416,304.8889 394.3901,304.8889 397.4159,310.1296 394.3901,315.3704 400.4416,315.3704 403.4674,320.6111 400.4416,325.8519 394.3901,325.8519 397.4159,331.0926 394.3901,336.3333 400.4416,336.3333 403.4674,341.5741 406.4931,336.3333 412.5446,336.3333 415.5703,341.5741 412.5446,346.8148 418.5961,346.8148 421.6218,352.0556 424.6476,346.8148 430.699,346.8148 427.6733,341.5741 430.699,336.3333 436.7505,336.3333 439.7763,341.5741 442.802,336.3333 448.8535,336.3333 451.8792,341.5741 448.8535,346.8148 454.905,346.8148 457.9307,352.0556 454.905,357.2963 448.8535,357.2963 451.8792,362.537 448.8535,367.7778 454.905,367.7778 457.9307,373.0185 460.9565,367.7778 467.008,367.7778 470.0337,373.0185 467.008,378.2593 473.0594,378.2593 476.0852,383.5 470.0337,383.5 467.008,378.2593 463.9822,383.5 457.9307,383.5 454.905,378.2593 457.9307,373.0185 451.8792,373.0185 448.8535,367.7778 445.8278,373.0185 439.7763,373.0185 442.802,378.2593 439.7763,383.5 433.7248,383.5 430.699,378.2593 427.6733,383.5 421.6218,383.5 418.5961,378.2593 421.6218,373.0185 415.5703,373.0185 412.5446,367.7778 415.5703,362.537 421.6218,362.537 418.5961,357.2963 421.6218,352.0556 415.5703,352.0556 412.5446,346.8148 409.5188,352.0556 403.4674,352.0556 400.4416,346.8148 403.4674,341.5741 397.4159,341.5741 394.3901,336.3333 391.3644,341.5741 385.3129,341.5741 388.3386,346.8148 385.3129,352.0556 379.2614,352.0556 376.2357,346.8148 373.2099,352.0556 367.1584,352.0556 370.1842,357.2963 367.1584,362.537 373.2099,362.537 376.2357,367.7778 373.2099,373.0185 367.1584,373.0185 370.1842,378.2593 367.1584,383.5 361.107,383.5 358.0812,378.2593 355.0555,383.5 349.004,383.5 345.9782,378.2593 349.004,373.0185 342.9525,373.0185 339.9268,367.7778 336.901,373.0185 330.8495,373.0185 333.8753,378.2593 330.8495,383.5 324.798,383.5 321.7723,378.2593 318.7465,383.5 312.6951,383.5 309.6693,378.2593 312.6951,373.0185 306.6436,373.0185 303.6178,367.7778 306.6436,362.537 312.6951,362.537 309.6693,357.2963 312.6951,352.0556 306.6436,352.0556 303.6178,346.8148 300.5921,352.0556 294.5406,352.0556 291.5149,346.8148 294.5406,341.5741 288.4891,341.5741 285.4634,336.3333 288.4891,331.0926 294.5406,331.0926 291.5149,325.8519 294.5406,320.6111 300.5921,320.6111 303.6178,325.8519 306.6436,320.6111 312.6951,320.6111 309.6693,315.3704 312.6951,310.1296 306.6436,310.1296 303.6178,304.8889 306.6436,299.6481 312.6951,299.6481 309.6693,294.4074 312.6951,289.1667 306.6436,289.1667 303.6178,283.9259 300.5921,289.1667 294.5406,289.1667 291.5149,283.9259 294.5406,278.6852 288.4891,278.6852 285.4634,273.4444 282.4376,278.6852 276.3861,278.6852 279.4119,283.9259 276.3861,289.1667 270.3347,289.1667 267.3089,283.9259 264.2832,289.1667 258.2317,289.1667 255.2059,283.9259 258.2317,278.6852 252.1802,278.6852 249.1545,273.4444 252.1802,268.2037 258.2317,268.2037 255.2059,262.963 258.2317,257.7222 252.1802,257.7222 249.1545,252.4815 246.1287,257.7222 240.0772,257.7222 237.0515,252.4815 240.0772,247.2407 234.0257,247.2407 231,242 227.9743,247.2407 221.9228,247.2407 224.9485,252.4815 221.9228,257.7222 215.8713,257.7222 212.8455,252.4815 209.8198,257.7222 203.7683,257.7222 206.7941,262.963 203.7683,268.2037 209.8198,268.2037 212.8455,273.4444 209.8198,278.6852 203.7683,278.6852 206.7941,283.9259 203.7683,289.1667 197.7168,289.1667 194.6911,283.9259 191.6653,289.1667 185.6139,289.1667 182.5881,283.9259 185.6139,278.6852 179.5624,278.6852 176.5366,273.4444 173.5109,278.6852 167.4594,278.6852 170.4851,283.9259 167.4594,289.1667 161.4079,289.1667 158.3822,283.9259 155.3564,289.1667 149.3049,289.1667 152.3307,294.4074 149.3049,299.6481 155.3564,299.6481 158.3822,304.8889 155.3564,310.1296 149.3049,310.1296 152.3307,315.3704 149.3049,320.6111 155.3564,320.6111 158.3822,325.8519 161.4079,320.6111 167.4594,320.6111 170.4851,325.8519 167.4594,331.0926 173.5109,331.0926 176.5366,336.3333 173.5109,341.5741 167.4594,341.5741 170.4851,346.8148 167.4594,352.0556 161.4079,352.0556 158.3822,346.8148 155.3564,352.0556 149.3049,352.0556 152.3307,357.2963 149.3049,362.537 155.3564,362.537 158.3822,367.7778 155.3564,373.0185 149.3049,373.0185 152.3307,378.2593 149.3049,383.5 143.2535,383.5 140.2277,378.2593 137.202,383.5 131.1505,383.5 128.1247,378.2593 131.1505,373.0185 125.099,373.0185 122.0732,367.7778 119.0475,373.0185 112.996,373.0185 116.0218,378.2593 112.996,383.5 106.9445,383.5 103.9188,378.2593 100.893,383.5 94.8416,383.5 91.8158,378.2593 94.8416,373.0185 88.7901,373.0185 85.7643,367.7778 88.7901,362.537 94.8416,362.537 91.8158,357.2963 94.8416,352.0556 88.7901,352.0556 85.7643,346.8148 82.7386,352.0556 76.6871,352.0556 73.6614,346.8148 76.6871,341.5741 70.6356,341.5741 67.6099,336.3333 64.5841,341.5741 58.5326,341.5741 61.5584,346.8148 58.5326,352.0556 52.4812,352.0556 49.4554,346.8148 46.4297,352.0556 40.3782,352.0556 43.4039,357.2963 40.3782,362.537 46.4297,362.537 49.4554,367.7778 46.4297,373.0185 40.3782,373.0185 43.4039,378.2593 40.3782,383.5 34.3267,383.5 31.301,378.2593 28.2752,383.5 22.2237,383.5 19.198,378.2593 22.2237,373.0185 16.1722,373.0185 13.1465,367.7778 10.1208,373.0185 4.0693,373.0185 7.095,378.2593 4.0693,383.5 -1.9822,383.5 -5.008,378.2593 -8.0337,383.5 -14.0852,383.5 -11.0594,378.2593 -5.008,378.2593 -8.0337,373.0185 -5.008,367.7778 1.0435,367.7778 4.0693,373.0185 7.095,367.7778 13.1465,367.7778 10.1208,362.537 13.1465,357.2963 7.095,357.2963 4.0693,352.0556 7.095,346.8148 13.1465,346.8148 10.1208,341.5741 13.1465,336.3333 19.198,336.3333 22.2237,341.5741 25.2495,336.3333 31.301,336.3333 34.3267,341.5741 31.301,346.8148 37.3524,346.8148 40.3782,352.0556 43.4039,346.8148 49.4554,346.8148 46.4297,341.5741 49.4554,336.3333 55.5069,336.3333 58.5326,341.5741 61.5584,336.3333 67.6099,336.3333 64.5841,331.0926 67.6099,325.8519 61.5584,325.8519 58.5326,320.6111 61.5584,315.3704 67.6099,315.3704 64.5841,310.1296 67.6099,304.8889 61.5584,304.8889 58.5326,299.6481 55.5069,304.8889 49.4554,304.8889 46.4297,299.6481 49.4554,294.4074 43.4039,294.4074 40.3782,289.1667 43.4039,283.9259 49.4554,283.9259 46.4297,278.6852 49.4554,273.4444 55.5069,273.4444 58.5326,278.6852 61.5584,273.4444 67.6099,273.4444 64.5841,268.2037 67.6099,262.963 61.5584,262.963 58.5326,257.7222 61.5584,252.4815 67.6099,252.4815 64.5841,247.2407 67.6099,242 73.6614,242 76.6871,247.2407 79.7128,242 85.7643,242 88.7901,247.2407 85.7643,252.4815 91.8158,252.4815 94.8416,257.7222 97.8673,252.4815 103.9188,252.4815 100.893,247.2407 103.9188,242 109.9703,242 112.996,247.2407 116.0218,242 122.0732,242 125.099,247.2407 122.0732,252.4815 128.1247,252.4815 131.1505,257.7222 128.1247,262.963 122.0732,262.963 125.099,268.2037 122.0732,273.4444 128.1247,273.4444 131.1505,278.6852 134.1762,273.4444 140.2277,273.4444 143.2535,278.6852 140.2277,283.9259 146.2792,283.9259 149.3049,289.1667 152.3307,283.9259 158.3822,283.9259 155.3564,278.6852 158.3822,273.4444 164.4337,273.4444 167.4594,278.6852 170.4851,273.4444 176.5366,273.4444 173.5109,268.2037 176.5366,262.963 170.4851,262.963 167.4594,257.7222 170.4851,252.4815 176.5366,252.4815 173.5109,247.2407 176.5366,242 182.5881,242 185.6139,247.2407 188.6396,242 194.6911,242 197.7168,247.2407 194.6911,252.4815 200.7426,252.4815 203.7683,257.7222 206.7941,252.4815 212.8455,252.4815 209.8198,247.2407 212.8455,242 218.897,242 221.9228,247.2407 224.9485,242 231,242 227.9743,236.7593 231,231.5185 224.9485,231.5185 221.9228,226.2778 224.9485,221.037 231,221.037 227.9743,215.7963 231,210.5556 224.9485,210.5556 221.9228,205.3148 218.897,210.5556 212.8455,210.5556 209.8198,205.3148 212.8455,200.0741 206.7941,200.0741 203.7683,194.8333 206.7941,189.5926 212.8455,189.5926 209.8198,184.3519 212.8455,179.1111 218.897,179.1111 221.9228,184.3519 224.9485,179.1111 231,179.1111 227.9743,173.8704 231,168.6296 224.9485,168.6296 221.9228,163.3889 224.9485,158.1481 231,158.1481 227.9743,152.9074 231,147.6667 224.9485,147.6667 221.9228,142.4259 218.897,147.6667 212.8455,147.6667 209.8198,142.4259 212.8455,137.1852 206.7941,137.1852 203.7683,131.9444 200.7426,137.1852 194.6911,137.1852 197.7168,142.4259 194.6911,147.6667 188.6396,147.6667 185.6139,142.4259 182.5881,147.6667 176.5366,147.6667 173.5109,142.4259 176.5366,137.1852 170.4851,137.1852 167.4594,131.9444 170.4851,126.7037 176.5366,126.7037 173.5109,121.463 176.5366,116.2222 170.4851,116.2222 167.4594,110.9815 164.4337,116.2222 158.3822,116.2222 155.3564,110.9815 158.3822,105.7407 152.3307,105.7407 149.3049,100.5 152.3307,95.2593 158.3822,95.2593 155.3564,90.0185 158.3822,84.7778 164.4337,84.7778 167.4594,90.0185 170.4851,84.7778 176.5366,84.7778 173.5109,79.537 176.5366,74.2963 170.4851,74.2963 167.4594,69.0556 170.4851,63.8148 176.5366,63.8148 173.5109,58.5741 176.5366,53.3333 182.5881,53.3333 185.6139,58.5741 188.6396,53.3333 194.6911,53.3333 197.7168,58.5741 194.6911,63.8148 200.7426,63.8148 203.7683,69.0556 206.7941,63.8148 212.8455,63.8148 209.8198,58.5741 212.8455,53.3333 218.897,53.3333 221.9228,58.5741 224.9485,53.3333 231,53.3333 227.9743,48.0926 231,42.8519 224.9485,42.8519 221.9228,37.6111 224.9485,32.3704 231,32.3704 227.9743,27.1296 231,21.8889 224.9485,21.8889 221.9228,16.6481 218.897,21.8889 212.8455,21.8889 209.8198,16.6481 212.8455,11.4074 206.7941,11.4074 203.7683,6.1667 206.7941,0.9259 212.8455,0.9259 209.8198,-4.3148 212.8455,-9.5556 218.897,-9.5556 221.9228,-4.3148 224.9485,-9.5556 231,-9.5556 227.9743,-14.7963 231,-20.037 224.9485,-20.037 221.9228,-25.2778 224.9485,-30.5185 231,-30.5185 227.9743,-35.7593" fill="none" stroke="#333" stroke-width="1"/>
</g>
  <g>
  <g>
  <circle cx="203" cy="499" r="21.5867" stroke="#e74c3c" stroke-width="2" fill="#e74c3c" fill-opacity="0.08"/>
  <circle cx="224.5867" cy="499" r="3" fill="#e74c3c" stroke="none"/>
  <circle cx="192.2067" cy="480.3054" r="3" fill="#e74c3c" stroke="none"/>
  <circle cx="192.2067" cy="517.6946" r="3" fill="#e74c3c" stroke="none"/>
  <text x="232.5867" y="503" font-size="10" fill="#e74c3c">3D c3 seed</text>
  <circle cx="203" cy="499" r="34.928" stroke="#e67e22" stroke-width="2" fill="#e67e22" fill-opacity="0.08"/>
  <circle cx="237.928" cy="499" r="3" fill="#e67e22" stroke="none"/>
  <circle cx="203" cy="464.072" r="3" fill="#e67e22" stroke="none"/>
  <circle cx="168.072" cy="499" r="3" fill="#e67e22" stroke="none"/>
  <circle cx="203" cy="533.928" r="3" fill="#e67e22" stroke="none"/>
  <text x="245.928" y="503" font-size="10" fill="#e67e22">4D E4 base</text>
  <circle cx="203" cy="499" r="56.5147" stroke="#f1c40f" stroke-width="2" fill="#f1c40f" fill-opacity="0.08"/>
  <circle cx="259.5147" cy="499" r="3" fill="#f1c40f" stroke="none"/>
  <circle cx="231.2573" cy="450.0569" r="3" fill="#f1c40f" stroke="none"/>
  <circle cx="174.7427" cy="450.0569" r="3" fill="#f1c40f" stroke="none"/>
  <circle cx="146.4853" cy="499" r="3" fill="#f1c40f" stroke="none"/>
  <circle cx="174.7427" cy="547.9431" r="3" fill="#f1c40f" stroke="none"/>
  <circle cx="231.2573" cy="547.9431" r="3" fill="#f1c40f" stroke="none"/>
  <text x="267.5147" y="503" font-size="10" fill="#f1c40f">6D W3 Mobius</text>
  <circle cx="203" cy="499" r="91.4427" stroke="#2ecc71" stroke-width="2" fill="#2ecc71" fill-opacity="0.08"/>
  <circle cx="294.4427" cy="499" r="3" fill="#2ecc71" stroke="none"/>
  <circle cx="267.6597" cy="434.3403" r="3" fill="#2ecc71" stroke="none"/>
  <circle cx="203" cy="407.5573" r="3" fill="#2ecc71" stroke="none"/>
  <circle cx="138.3403" cy="434.3403" r="3" fill="#2ecc71" stroke="none"/>
  <circle cx="111.5573" cy="499" r="3" fill="#2ecc71" stroke="none"/>
  <circle cx="138.3403" cy="563.6597" r="3" fill="#2ecc71" stroke="none"/>
  <circle cx="203" cy="590.4427" r="3" fill="#2ecc71" stroke="none"/>
  <circle cx="267.6597" cy="563.6597" r="3" fill="#2ecc71" stroke="none"/>
  <text x="302.4427" y="503" font-size="10" fill="#2ecc71">8D W5 penta</text>
  <circle cx="203" cy="499" r="147.9573" stroke="#3498db" stroke-width="2" fill="#3498db" fill-opacity="0.08"/>
  <circle cx="350.9573" cy="499" r="3" fill="#3498db" stroke="none"/>
  <circle cx="322.7" cy="412.0329" r="3" fill="#3498db" stroke="none"/>
  <circle cx="248.7213" cy="358.2842" r="3" fill="#3498db" stroke="none"/>
  <circle cx="157.2787" cy="358.2842" r="3" fill="#3498db" stroke="none"/>
  <circle cx="83.3" cy="412.0329" r="3" fill="#3498db" stroke="none"/>
  <circle cx="55.0427" cy="499" r="3" fill="#3498db" stroke="none"/>
  <circle cx="83.3" cy="585.9671" r="3" fill="#3498db" stroke="none"/>
  <circle cx="157.2787" cy="639.7158" r="3" fill="#3498db" stroke="none"/>
  <circle cx="248.7213" cy="639.7158" r="3" fill="#3498db" stroke="none"/>
  <circle cx="322.7" cy="585.9671" r="3" fill="#3498db" stroke="none"/>
  <text x="358.9573" y="503" font-size="10" fill="#3498db">10D W7 hepta</text>
  <circle cx="203" cy="499" r="239.4" stroke="#9b59b6" stroke-width="2" fill="#9b59b6" fill-opacity="0.08"/>
  <circle cx="442.4" cy="499" r="3" fill="#9b59b6" stroke="none"/>
  <circle cx="410.3265" cy="379.3" r="3" fill="#9b59b6" stroke="none"/>
  <circle cx="322.7" cy="291.6735" r="3" fill="#9b59b6" stroke="none"/>
  <circle cx="203" cy="259.6" r="3" fill="#9b59b6" stroke="none"/>
  <circle cx="83.3" cy="291.6735" r="3" fill="#9b59b6" stroke="none"/>
  <circle cx="-4.3265" cy="379.3" r="3" fill="#9b59b6" stroke="none"/>
  <circle cx="-36.4" cy="499" r="3" fill="#9b59b6" stroke="none"/>
  <circle cx="-4.3265" cy="618.7" r="3" fill="#9b59b6" stroke="none"/>
  <circle cx="83.3" cy="706.3265" r="3" fill="#9b59b6" stroke="none"/>
  <circle cx="203" cy="738.4" r="3" fill="#9b59b6" stroke="none"/>
  <circle cx="322.7" cy="706.3265" r="3" fill="#9b59b6" stroke="none"/>
  <circle cx="410.3265" cy="618.7" r="3" fill="#9b59b6" stroke="none"/>
  <text x="450.4" y="503" font-size="10" fill="#9b59b6">12D W9 crown</text>
</g>
  <line x1="172.3654" y1="597.8879" x2="296.983" y2="588.0129" stroke="#8B4513" stroke-width="1.2"/>
  <line x1="172.3654" y1="597.8879" x2="172.3654" y2="428.1413" stroke="#DC143C" stroke-width="1.2"/>
  <line x1="172.3654" y1="597.8879" x2="172.3654" y2="569.8587" stroke="#4169E1" stroke-width="1.2"/>
  <line x1="172.3654" y1="597.8879" x2="116.2144" y2="581.1961" stroke="#228B22" stroke-width="1.2"/>
  <line x1="296.983" y1="588.0129" x2="296.983" y2="435.2174" stroke="#DC143C" stroke-width="1.2"/>
  <line x1="296.983" y1="588.0129" x2="296.983" y2="562.7826" stroke="#4169E1" stroke-width="1.2"/>
  <line x1="296.983" y1="588.0129" x2="226.3137" y2="574.2564" stroke="#228B22" stroke-width="1.2"/>
  <line x1="172.3654" y1="428.1413" x2="296.983" y2="435.2174" stroke="#8B4513" stroke-width="1.2"/>
  <line x1="172.3654" y1="428.1413" x2="172.3654" y2="400.1121" stroke="#4169E1" stroke-width="1.2"/>
  <line x1="172.3654" y1="428.1413" x2="116.2144" y2="440.102" stroke="#228B22" stroke-width="1.2"/>
  <line x1="296.983" y1="435.2174" x2="296.983" y2="409.9871" stroke="#4169E1" stroke-width="1.2"/>
  <line x1="296.983" y1="435.2174" x2="226.3137" y2="445.0746" stroke="#228B22" stroke-width="1.2"/>
  <line x1="172.3654" y1="569.8587" x2="296.983" y2="562.7826" stroke="#8B4513" stroke-width="1.2"/>
  <line x1="172.3654" y1="569.8587" x2="172.3654" y2="400.1121" stroke="#DC143C" stroke-width="1.2"/>
  <line x1="172.3654" y1="569.8587" x2="116.2144" y2="557.898" stroke="#228B22" stroke-width="1.2"/>
  <line x1="296.983" y1="562.7826" x2="296.983" y2="409.9871" stroke="#DC143C" stroke-width="1.2"/>
  <line x1="296.983" y1="562.7826" x2="226.3137" y2="552.9254" stroke="#228B22" stroke-width="1.2"/>
  <line x1="172.3654" y1="400.1121" x2="296.983" y2="409.9871" stroke="#8B4513" stroke-width="1.2"/>
  <line x1="172.3654" y1="400.1121" x2="116.2144" y2="416.8039" stroke="#228B22" stroke-width="1.2"/>
  <line x1="296.983" y1="409.9871" x2="226.3137" y2="423.7436" stroke="#228B22" stroke-width="1.2"/>
  <line x1="116.2144" y1="581.1961" x2="226.3137" y2="574.2564" stroke="#8B4513" stroke-width="1.2"/>
  <line x1="116.2144" y1="581.1961" x2="116.2144" y2="440.102" stroke="#DC143C" stroke-width="1.2"/>
  <line x1="116.2144" y1="581.1961" x2="116.2144" y2="557.898" stroke="#4169E1" stroke-width="1.2"/>
  <line x1="226.3137" y1="574.2564" x2="226.3137" y2="445.0746" stroke="#DC143C" stroke-width="1.2"/>
  <line x1="226.3137" y1="574.2564" x2="226.3137" y2="552.9254" stroke="#4169E1" stroke-width="1.2"/>
  <line x1="116.2144" y1="440.102" x2="226.3137" y2="445.0746" stroke="#8B4513" stroke-width="1.2"/>
  <line x1="116.2144" y1="440.102" x2="116.2144" y2="416.8039" stroke="#4169E1" stroke-width="1.2"/>
  <line x1="226.3137" y1="445.0746" x2="226.3137" y2="423.7436" stroke="#4169E1" stroke-width="1.2"/>
  <line x1="116.2144" y1="557.898" x2="226.3137" y2="552.9254" stroke="#8B4513" stroke-width="1.2"/>
  <line x1="116.2144" y1="557.898" x2="116.2144" y2="416.8039" stroke="#DC143C" stroke-width="1.2"/>
  <line x1="226.3137" y1="552.9254" x2="226.3137" y2="423.7436" stroke="#DC143C" stroke-width="1.2"/>
  <line x1="116.2144" y1="416.8039" x2="226.3137" y2="423.7436" stroke="#8B4513" stroke-width="1.2"/>
  <circle cx="172.3654" cy="597.8879" r="3" fill="#8B4513" stroke="#333" stroke-width="0.5"/>
  <circle cx="296.983" cy="588.0129" r="3" fill="#DC143C" stroke="#333" stroke-width="0.5"/>
  <circle cx="172.3654" cy="428.1413" r="3" fill="#DC143C" stroke="#333" stroke-width="0.5"/>
  <circle cx="296.983" cy="435.2174" r="3" fill="#4169E1" stroke="#333" stroke-width="0.5"/>
  <circle cx="172.3654" cy="569.8587" r="3" fill="#DC143C" stroke="#333" stroke-width="0.5"/>
  <circle cx="296.983" cy="562.7826" r="3" fill="#4169E1" stroke="#333" stroke-width="0.5"/>
  <circle cx="172.3654" cy="400.1121" r="3" fill="#4169E1" stroke="#333" stroke-width="0.5"/>
  <circle cx="296.983" cy="409.9871" r="3" fill="#228B22" stroke="#333" stroke-width="0.5"/>
  <circle cx="116.2144" cy="581.1961" r="3" fill="#DC143C" stroke="#333" stroke-width="0.5"/>
  <circle cx="226.3137" cy="574.2564" r="3" fill="#4169E1" stroke="#333" stroke-width="0.5"/>
  <circle cx="116.2144" cy="440.102" r="3" fill="#4169E1" stroke="#333" stroke-width="0.5"/>
  <circle cx="226.3137" cy="445.0746" r="3" fill="#228B22" stroke="#333" stroke-width="0.5"/>
  <circle cx="116.2144" cy="557.898" r="3" fill="#4169E1" stroke="#333" stroke-width="0.5"/>
  <circle cx="226.3137" cy="552.9254" r="3" fill="#228B22" stroke="#333" stroke-width="0.5"/>
  <circle cx="116.2144" cy="416.8039" r="3" fill="#228B22" stroke="#333" stroke-width="0.5"/>
  <circle cx="226.3137" cy="423.7436" r="3" fill="#8B4513" stroke="#333" stroke-width="0.5"/>
  <g>
  <polyline points="278.6006,487.7882 274.9285,483.9487 270.0729,480.3585 264.1029,477.0801 257.1024,474.1724 249.1698,471.69 240.4172,469.6822 230.9693,468.1926 220.9623,467.2582 210.5431,466.9088 199.8675,467.1665 189.0987,468.0446 178.4053,469.5477 167.9592,471.6706 157.9335,474.3981 148.4995,477.705 139.8245,481.5555 132.0684,485.9036 125.3809,490.6932 119.8987,495.8585 115.7421,501.3248 113.0125,507.0092 111.7894,512.8219 112.1283,518.6673 114.0582,524.4458 117.5804,530.0554 122.667,535.3934 129.2607,540.3584 137.2743,544.8528 146.5918,548.784 157.0698,552.0675 168.5391,554.6278 180.8077,556.4012 193.6639,557.3366 206.8803,557.3976 220.2179,556.5635 233.4311,554.8296 246.2723,552.2086 258.4973,548.73 269.8705,544.44 280.17,539.4011 289.1924,533.6908 296.7576,527.4006 302.7127,520.6336 306.9357,513.5032 309.3381,506.1304 309.8675,498.6415 308.5084,491.1654 305.2831,483.831" stroke="#9b59b6" stroke-width="0.5" fill="none" stroke-opacity="0.6"/>
  <polyline points="283.0476,487.1286 279.1489,482.7514 273.9787,478.6466 267.6162,474.8853 260.1581,471.5337 251.7177,468.6524 242.4238,466.2952 232.4185,464.5087 221.8562,463.331 210.9014,462.7916 199.7265,462.9103 188.5097,463.6971 177.4325,465.1515 166.6772,467.2622 156.4239,470.0074 146.848,473.3542 138.1171,477.2594 130.3883,481.6692 123.8053,486.5206 118.4954,491.7412 114.5673,497.2508 112.1082,502.9623 111.1822,508.7828 111.8281,514.6155 114.0582,520.3607 117.857,525.9181 123.1812,531.188 129.9595,536.0737 138.0931,540.4831 147.4567,544.3303 157.901,547.5379 169.2538,550.0383 181.3238,551.7752 193.9033,552.7053 206.7721,552.7991 219.7014,552.0416 232.4584,550.4334 244.8105,547.9906 256.5299,544.7447 267.3987,540.7424 277.2126,536.045 285.7855,530.7271 292.9537,524.8753 298.5789,518.5869 302.5512,511.9679 304.7922,505.1308 305.2557,498.1928 303.9296,491.273 300.836,484.4906" stroke="#9b59b6" stroke-width="0.5" fill="none" stroke-opacity="0.6"/>
  <polyline points="287.4947,486.4691 283.3693,481.554 277.8845,476.9347 271.1295,472.6905 263.2137,468.895 254.2656,465.6148 244.4303,462.9082 233.8677,460.8248 222.7501,459.4038 211.2597,458.6744 199.5854,458.6542 187.9207,459.3496 176.4598,460.7552 165.3952,462.8539 154.9143,465.6166 145.1964,469.0034 136.4096,472.9632 128.7082,477.4348 122.2297,482.3479 117.0922,487.6238 113.3925,493.1768 111.204,498.9153 110.5751,504.7437 111.528,510.5636 114.0582,516.2755 118.1336,521.7807 123.6955,526.9826 130.6584,531.789 138.9118,536.1134 148.3216,539.8766 158.7321,543.0083 169.9685,545.4487 181.8399,547.1493 194.1427,548.0741 206.6638,548.2005 219.1849,547.5197 231.4857,546.0372 243.3486,543.7725 254.5626,540.7594 264.927,537.0449 274.2552,532.689 282.3787,527.7633 289.1498,522.35 294.445,516.5402 298.1668,510.4326 300.2462,504.1312 300.6439,497.7441 299.3509,491.3806 296.3889,485.1501" stroke="#9b59b6" stroke-width="0.5" fill="none" stroke-opacity="0.6"/>
  <polyline points="291.9418,485.8096 287.5898,480.3567 281.7903,475.2228 274.6428,470.4957 266.2694,466.2563 256.8135,462.5772 246.4368,459.5212 235.3169,457.1408 223.644,455.4766 211.6179,454.5571 199.4444,454.398 187.3317,455.0021 175.4871,456.359 164.1132,458.4455 153.4047,461.2259 143.5448,464.6526 134.7022,468.667 127.0282,473.2004 120.6541,478.1753 115.6889,483.5065 112.2177,489.1027 110.2997,494.8683 109.9679,500.7047 111.2279,506.5118 114.0582,512.1904 118.4102,517.6433 124.2097,522.7772 131.3572,527.5043 139.7306,531.7437 149.1865,535.4228 159.5632,538.4788 170.6831,540.8592 182.356,542.5234 194.3821,543.4429 206.5556,543.602 218.6683,542.9979 230.5129,541.641 241.8868,539.5545 252.5953,536.7741 262.4552,533.3474 271.2978,529.333 278.9718,524.7996 285.3459,519.8247 290.3111,514.4935 293.7823,508.8973 295.7003,503.1317 296.0321,497.2953 294.7721,491.4882 291.9418,485.8096" stroke="#9b59b6" stroke-width="0.5" fill="none" stroke-opacity="0.6"/>
  <polyline points="296.3889,485.1501 291.8102,479.1593 285.6962,473.5108 278.1561,468.3009 269.3251,463.6176 259.3614,459.5395 248.4433,456.1343 236.7661,453.4569 224.5379,451.5494 211.9762,450.4399 199.3033,450.1419 186.7427,450.6546 174.5143,451.9628 162.8312,454.0372 151.8951,456.8352 141.8932,460.3018 132.9947,464.3709 125.3481,468.966 119.0784,474.0026 114.2856,479.3891 111.0428,485.0287 109.3955,490.8214 109.3608,496.6656 110.9278,502.46 114.0582,508.1053 118.6869,513.506 124.7239,518.5719 132.0561,523.2196 140.5494,527.374 150.0514,530.9691 160.3943,533.9492 171.3978,536.2696 182.8721,537.8975 194.6215,538.8116 206.4474,539.0034 218.1518,538.476 229.5402,537.2448 240.425,535.3364 250.628,532.7888 259.9834,529.6499 268.3404,525.9769 275.565,521.8358 281.5421,517.2994 286.1772,512.4468 289.3979,507.362 291.1543,502.1321 291.4203,496.8466 290.1933,491.5958 287.4947,486.4691" stroke="#9b59b6" stroke-width="0.5" fill="none" stroke-opacity="0.6"/>
  <polyline points="300.836,484.4906 296.0306,477.962 289.602,471.7989 281.6694,466.1061 272.3808,460.9789 261.9092,456.5019 250.4498,452.7473 238.2153,449.773 225.4318,447.6222 212.3345,446.3227 199.1623,445.8858 186.1537,446.3071 173.5416,447.5666 161.5492,449.6288 150.3855,452.4444 140.2416,455.951 131.2873,460.0747 123.668,464.7316 117.5028,469.83 112.8824,475.2717 109.868,480.9547 108.4912,486.7744 108.7536,492.6265 110.6277,498.4081 114.0582,504.0201 118.9635,509.3686 125.2381,514.3665 132.7549,518.9349 141.3681,523.0043 150.9163,526.5154 161.2255,529.4196 172.1125,531.6801 183.3882,533.2715 194.8609,534.1804 206.3392,534.4048 217.6352,533.9541 228.5675,532.8485 238.9631,531.1184 248.6606,528.8035 257.5117,525.9523 265.383,522.6209 272.1581,518.872 277.7382,514.7741 282.0434,510.4002 285.0134,505.8266 286.6084,501.1325 286.8085,496.3979 285.6145,491.7034 283.0476,487.1286" stroke="#9b59b6" stroke-width="0.5" fill="none" stroke-opacity="0.6"/>
  <polyline points="278.6006,487.7882 283.0476,487.1286 287.4947,486.4691 291.9418,485.8096 296.3889,485.1501 300.836,484.4906" stroke="#999" stroke-width="0.5" fill="none" stroke-opacity="0.6"/>
  <polyline points="257.1024,474.1724 260.1581,471.5337 263.2137,468.895 266.2694,466.2563 269.3251,463.6176 272.3808,460.9789" stroke="#999" stroke-width="0.5" fill="none" stroke-opacity="0.6"/>
  <polyline points="220.9623,467.2582 221.8562,463.331 222.7501,459.4038 223.644,455.4766 224.5379,451.5494 225.4318,447.6222" stroke="#999" stroke-width="0.5" fill="none" stroke-opacity="0.6"/>
  <polyline points="178.4053,469.5477 177.4325,465.1515 176.4598,460.7552 175.4871,456.359 174.5143,451.9628 173.5416,447.5666" stroke="#999" stroke-width="0.5" fill="none" stroke-opacity="0.6"/>
  <polyline points="139.8245,481.5555 138.1171,477.2594 136.4096,472.9632 134.7022,468.667 132.9947,464.3709 131.2873,460.0747" stroke="#999" stroke-width="0.5" fill="none" stroke-opacity="0.6"/>
  <polyline points="115.7421,501.3248 114.5673,497.2508 113.3925,493.1768 112.2177,489.1027 111.0428,485.0287 109.868,480.9547" stroke="#999" stroke-width="0.5" fill="none" stroke-opacity="0.6"/>
  <polyline points="114.0582,524.4458 114.0582,520.3607 114.0582,516.2755 114.0582,512.1904 114.0582,508.1053 114.0582,504.0201" stroke="#999" stroke-width="0.5" fill="none" stroke-opacity="0.6"/>
  <polyline points="137.2743,544.8528 138.0931,540.4831 138.9118,536.1134 139.7306,531.7437 140.5494,527.374 141.3681,523.0043" stroke="#999" stroke-width="0.5" fill="none" stroke-opacity="0.6"/>
  <polyline points="180.8077,556.4012 181.3238,551.7752 181.8399,547.1493 182.356,542.5234 182.8721,537.8975 183.3882,533.2715" stroke="#999" stroke-width="0.5" fill="none" stroke-opacity="0.6"/>
  <polyline points="233.4311,554.8296 232.4584,550.4334 231.4857,546.0372 230.5129,541.641 229.5402,537.2448 228.5675,532.8485" stroke="#999" stroke-width="0.5" fill="none" stroke-opacity="0.6"/>
  <polyline points="280.17,539.4011 277.2126,536.045 274.2552,532.689 271.2978,529.333 268.3404,525.9769 265.383,522.6209" stroke="#999" stroke-width="0.5" fill="none" stroke-opacity="0.6"/>
  <polyline points="306.9357,513.5032 302.5512,511.9679 298.1668,510.4326 293.7823,508.8973 289.3979,507.362 285.0134,505.8266" stroke="#999" stroke-width="0.5" fill="none" stroke-opacity="0.6"/>
</g>
</g>
  <g opacity="0.43">
  <g>
  <circle cx="203" cy="548" r="230" fill="none" stroke="#333" stroke-width="1"/>
  <circle cx="203" cy="548" r="142.1478" fill="none" stroke="#333" stroke-width="1"/>
  <circle cx="203" cy="548" r="87.8522" fill="none" stroke="#333" stroke-width="1"/>
  <circle cx="203" cy="548" r="54.2956" fill="none" stroke="#333" stroke-width="1"/>
  <circle cx="203" cy="548" r="33.5565" fill="none" stroke="#333" stroke-width="1"/>
  <circle cx="203" cy="548" r="20.7391" fill="none" stroke="#333" stroke-width="1"/>
</g>
</g>
</svg>