<svg xmlns="http://www.w3.org/2000/svg" width="800" height="800" viewBox="0 0 800 800">
  <g opacity="0.84">
  <g transform="rotate(106.6,400,400)">
  <g>
  <polygon points="212,15 203.7728,29.25 220.2272,29.25" fill="#333" stroke="none"/>
  <polygon points="203.7728,29.25 195.5455,43.5 212,43.5" fill="#333" stroke="none"/>
  <polygon points="220.2272,29.25 212,43.5 228.4545,43.5" fill="#333" stroke="none"/>
  <polygon points="195.5455,43.5 187.3183,57.75 203.7728,57.75" fill="#333" stroke="none"/>
  <polygon points="187.3183,57.75 179.091,72 195.5455,72" fill="#333" stroke="none"/>
  <polygon points="203.7728,57.75 195.5455,72 212,72" fill="#333" stroke="none"/>
  <polygon points="228.4545,43.5 220.2272,57.75 236.6817,57.75" fill="#333" stroke="none"/>
  <polygon points="220.2272,57.75 212,72 228.4545,72" fill="#333" stroke="none"/>
  <polygon points="236.6817,57.75 228.4545,72 244.909,72" fill="#333" stroke="none"/>
  <polygon points="179.091,72 170.8638,86.25 187.3183,86.25" fill="#333" stroke="none"/>
  <polygon points="170.8638,86.25 162.6366,100.5 179.091,100.5" fill="#333" stroke="none"/>
  <polygon points="187.3183,86.25 179.091,100.5 195.5455,100.5" fill="#333" stroke="none"/>
  <polygon points="162.6366,100.5 154.4093,114.75 170.8638,114.75" fill="#333" stroke="none"/>
  <polygon points="154.4093,114.75 146.1821,129 162.6366,129" fill="#333" stroke="none"/>
  <polygon points="170.8638,114.75 162.6366,129 179.091,129" fill="#333" stroke="none"/>
  <polygon points="195.5455,100.5 187.3183,114.75 203.7728,114.75" fill="#333" stroke="none"/>
  <polygon points="187.3183,114.75 179.091,129 195.5455,129" fill="#333" stroke="none"/>
  <polygon points="203.7728,114.75 195.5455,129 212,129" fill="#333" stroke="none"/>
  <polygon points="244.909,72 236.6817,86.25 253.1362,86.25" fill="#333" stroke="none"/>
  <polygon points="236.6817,86.25 228.4545,100.5 244.909,100.5" fill="#333" stroke="none"/>
  <polygon points="253.1362,86.25 244.909,100.5 261.3634,100.5" fill="#333" stroke="none"/>
  <polygon points="228.4545,100.5 220.2272,114.75 236.6817,114.75" fill="#333" stroke="none"/>
  <polygon points="220.2272,114.75 212,129 228.4545,129" fill="#333" stroke="none"/>
  <polygon points="236.6817,114.75 228.4545,129 244.909,129" fill="#333" stroke="none"/>
  <polygon points="261.3634,100.5 253.1362,114.75 269.5907,114.75" fill="#333" stroke="none"/>
  <polygon points="253.1362,114.75 244.909,129 261.3634,129" fill="#333" stroke="none"/>
  <polygon points="269.5907,114.75 261.3634,129 277.8179,129" fill="#333" stroke="none"/>
  <polygon points="146.1821,129 137.9548,143.25 154.4093,143.25" fill="#333" stroke="none"/>
  <polygon points="137.9548,143.25 129.7276,157.5 146.1821,157.5" fill="#333" stroke="none"/>
  <polygon points="154.4093,143.25 146.1821,157.5 162.6366,157.5" fill="#333" stroke="none"/>
  <polygon points="129.7276,157.5 121.5003,171.75 137.9548,171.75" fill="#333" stroke="none"/>
  <polygon points="121.5003,171.75 113.2731,186 129.7276,186" fill="#333" stroke="none"/>
  <polygon points="137.9548,171.75 129.7276,186 146.1821,186" fill="#333" stroke="none"/>
  <polygon points="162.6366,157.5 154.4093,171.75 170.8638,171.75" fill="#333" stroke="none"/>
  <polygon points="154.4093,171.75 146.1821,186 162.6366,186" fill="#333" stroke="none"/>
  <polygon points="170.8638,171.75 162.6366,186 179.091,186" fill="#333" stroke="none"/>
  <polygon points="113.2731,186 105.0459,200.25 121.5003,200.25" fill="#333" stroke="none"/>
  <polygon points="105.0459,200.25 96.8186,214.5 113.2731,214.5" fill="#333" stroke="none"/>
  <polygon points="121.5003,200.25 113.2731,214.5 129.7276,214.5" fill="#333" stroke="none"/>
  <polygon points="96.8186,214.5 88.5914,228.75 105.0459,228.75" fill="#333" stroke="none"/>
  <polygon points="88.5914,228.75 80.3641,243 96.8186,243" fill="#333" stroke="none"/>
  <polygon points="105.0459,228.75 96.8186,243 113.2731,243" fill="#333" stroke="none"/>
  <polygon points="129.7276,214.5 121.5003,228.75 137.9548,228.75" fill="#333" stroke="none"/>
  <polygon points="121.5003,228.75 113.2731,243 129.7276,243" fill="#333" stroke="none"/>
  <polygon points="137.9548,228.75 129.7276,243 146.1821,243" fill="#333" stroke="none"/>
  <polygon points="179.091,186 170.8638,200.25 187.3183,200.25" fill="#333" stroke="none"/>
  <polygon points="170.8638,200.25 162.6366,214.5 179.091,214.5" fill="#333" stroke="none"/>
  <polygon points="187.3183,200.25 179.091,214.5 195.5455,214.5" fill="#333" stroke="none"/>
  <polygon points="162.6366,214.5 154.4093,228.75 170.8638,228.75" fill="#333" stroke="none"/>
  <polygon points="154.4093,228.75 146.1821,243 162.6366,243" fill="#333" stroke="none"/>
  <polygon points="170.8638,228.75 162.6366,243 179.091,243" fill="#333" stroke="none"/>
  <polygon points="195.5455,214.5 187.3183,228.75 203.7728,228.75" fill="#333" stroke="none"/>
  <polygon points="187.3183,228.75 179.091,243 195.5455,243" fill="#333" stroke="none"/>
  <polygon points="203.7728,228.75 195.5455,243 212,243" fill="#333" stroke="none"/>
  <polygon points="277.8179,129 269.5907,143.25 286.0452,143.25" fill="#333" stroke="none"/>
  <polygon points="269.5907,143.25 261.3634,157.5 277.8179,157.5" fill="#333" stroke="none"/>
  <polygon points="286.0452,143.25 277.8179,157.5 294.2724,157.5" fill="#333" stroke="none"/>
  <polygon points="261.3634,157.5 253.1362,171.75 269.5907,171.75" fill="#333" stroke="none"/>
  <polygon points="253.1362,171.75 244.909,186 261.3634,186" fill="#333" stroke="none"/>
  <polygon points="269.5907,171.75 261.3634,186 277.8179,186" fill="#333" stroke="none"/>
  <polygon points="294.2724,157.5 286.0452,171.75 302.4997,171.75" fill="#333" stroke="none"/>
  <polygon points="286.0452,171.75 277.8179,186 294.2724,186" fill="#333" stroke="none"/>
  <polygon points="302.4997,171.75 294.2724,186 310.7269,186" fill="#333" stroke="none"/>
  <polygon points="244.909,186 236.6817,200.25 253.1362,200.25" fill="#333" stroke="none"/>
  <polygon points="236.6817,200.25 228.4545,214.5 244.909,214.5" fill="#333" stroke="none"/>
  <polygon points="253.1362,200.25 244.909,214.5 261.3634,214.5" fill="#333" stroke="none"/>
  <polygon points="228.4545,214.5 220.2272,228.75 236.6817,228.75" fill="#333" stroke="none"/>
  <polygon points="220.2272,228.75 212,243 228.4545,243" fill="#333" stroke="none"/>
  <polygon points="236.6817,228.75 228.4545,243 244.909,243" fill="#333" stroke="none"/>
  <polygon points="261.3634,214.5 253.1362,228.75 269.5907,228.75" fill="#333" stroke="none"/>
  <polygon points="253.1362,228.75 244.909,243 261.3634,243" fill="#333" stroke="none"/>
  <polygon points="269.5907,228.75 261.3634,243 277.8179,243" fill="#333" stroke="none"/>
  <polygon points="310.7269,186 302.4997,200.25 318.9541,200.25" fill="#333" stroke="none"/>
  <polygon points="302.4997,200.25 294.2724,214.5 310.7269,214.5" fill="#333" stroke="none"/>
  <polygon points="318.9541,200.25 310.7269,214.5 327.1814,214.5" fill="#333" stroke="none"/>
  <polygon points="294.2724,214.5 286.0452,228.75 302.4997,228.75" fill="#333" stroke="none"/>
  <polygon points="286.0452,228.75 277.8179,243 294.2724,243" fill="#333" stroke="none"/>
  <polygon points="302.4997,228.75 294.2724,243 310.7269,243" fill="#333" stroke="none"/>
  <polygon points="327.1814,214.5 318.9541,228.75 335.4086,228.75" fill="#333" stroke="none"/>
  <polygon points="318.9541,228.75 310.7269,243 327.1814,243" fill="#333" stroke="none"/>
  <polygon points="335.4086,228.75 327.1814,243 343.6359,243" fill="#333" stroke="none"/>
  <polygon points="80.3641,243 72.1369,257.25 88.5914,257.25" fill="#333" stroke="none"/>
  <polygon points="72.1369,257.25 63.9097,271.5 80.3641,271.5" fill="#333" stroke="none"/>
  <polygon points="88.5914,257.25 80.3641,271.5 96.8186,271.5" fill="#333" stroke="none"/>
  <polygon points="63.9097,271.5 55.6824,285.75 72.1369,285.75" fill="#333" stroke="none"/>
  <polygon points="55.6824,285.75 47.4552,300 63.9097,300" fill="#333" stroke="none"/>
  <polygon points="72.1369,285.75 63.9097,300 80.3641,300" fill="#333" stroke="none"/>
  <polygon points="96.8186,271.5 88.5914,285.75 105.0459,285.75" fill="#333" stroke="none"/>
  <polygon points="88.5914,285.75 80.3641,300 96.8186,300" fill="#333" stroke="none"/>
  <polygon points="105.0459,285.75 96.8186,300 113.2731,300" fill="#333" stroke="none"/>
  <polygon points="47.4552,300 39.2279,314.25 55.6824,314.25" fill="#333" stroke="none"/>
  <polygon points="39.2279,314.25 31.0007,328.5 47.4552,328.5" fill="#333" stroke="none"/>
  <polygon points="55.6824,314.25 47.4552,328.5 63.9097,328.5" fill="#333" stroke="none"/>
  <polygon points="31.0007,328.5 22.7734,342.75 39.2279,342.75" fill="#333" stroke="none"/>
  <polygon points="22.7734,342.75 14.5462,357 31.0007,357" fill="#333" stroke="none"/>
  <polygon points="39.2279,342.75 31.0007,357 47.4552,357" fill="#333" stroke="none"/>
  <polygon points="63.9097,328.5 55.6824,342.75 72.1369,342.75" fill="#333" stroke="none"/>
  <polygon points="55.6824,342.75 47.4552,357 63.9097,357" fill="#333" stroke="none"/>
  <polygon points="72.1369,342.75 63.9097,357 80.3641,357" fill="#333" stroke="none"/>
  <polygon points="113.2731,300 105.0459,314.25 121.5003,314.25" fill="#333" stroke="none"/>
  <polygon points="105.0459,314.25 96.8186,328.5 113.2731,328.5" fill="#333" stroke="none"/>
  <polygon points="121.5003,314.25 113.2731,328.5 129.7276,328.5" fill="#333" stroke="none"/>
  <polygon points="96.8186,328.5 88.5914,342.75 105.0459,342.75" fill="#333" stroke="none"/>
  <polygon points="88.5914,342.75 80.3641,357 96.8186,357" fill="#333" stroke="none"/>
  <polygon points="105.0459,342.75 96.8186,357 113.2731,357" fill="#333" stroke="none"/>
  <polygon points="129.7276,328.5 121.5003,342.75 137.9548,342.75" fill="#333" stroke="none"/>
  <polygon points="121.5003,342.75 113.2731,357 129.7276,357" fill="#333" stroke="none"/>
  <polygon points="137.9548,342.75 129.7276,357 146.1821,357" fill="#333" stroke="none"/>
  <polygon points="14.5462,357 6.319,371.25 22.7734,371.25" fill="#333" stroke="none"/>
  <polygon points="6.319,371.25 -1.9083,385.5 14.5462,385.5" fill="#333" stroke="none"/>
  <polygon points="22.7734,371.25 14.5462,385.5 31.0007,385.5" fill="#333" stroke="none"/>
  <polygon points="-1.9083,385.5 -10.1355,399.75 6.319,399.75" fill="#333" stroke="none"/>
  <polygon points="-10.1355,399.75 -18.3628,414 -1.9083,414" fill="#333" stroke="none"/>
  <polygon points="6.319,399.75 -1.9083,414 14.5462,414" fill="#333" stroke="none"/>
  <polygon points="31.0007,385.5 22.7734,399.75 39.2279,399.75" fill="#333" stroke="none"/>
  <polygon points="22.7734,399.75 14.5462,414 31.0007,414" fill="#333" stroke="none"/>
  <polygon points="39.2279,399.75 31.0007,414 47.4552,414" fill="#333" stroke="none"/>
  <polygon points="-18.3628,414 -26.59,428.25 -10.1355,428.25" fill="#333" stroke="none"/>
  <polygon points="-26.59,428.25 -34.8172,442.5 -18.3628,442.5" fill="#333" stroke="none"/>
  <polygon points="-10.1355,428.25 -18.3628,442.5 -1.9083,442.5" fill="#333" stroke="none"/>
  <polygon points="-34.8172,442.5 -43.0445,456.75 -26.59,456.75" fill="#333" stroke="none"/>
  <polygon points="-43.0445,456.75 -51.2717,471 -34.8172,471" fill="#333" stroke="none"/>
  <polygon points="-26.59,456.75 -34.8172,471 -18.3628,471" fill="#333" stroke="none"/>
  <polygon points="-1.9083,442.5 -10.1355,456.75 6.319,456.75" fill="#333" stroke="none"/>
  <polygon points="-10.1355,456.75 -18.3628,471 -1.9083,471" fill="#333" stroke="none"/>
  <polygon points="6.319,456.75 -1.9083,471 14.5462,471" fill="#333" stroke="none"/>
  <polygon points="47.4552,414 39.2279,428.25 55.6824,428.25" fill="#333" stroke="none"/>
  <polygon points="39.2279,428.25 31.0007,442.5 47.4552,442.5" fill="#333" stroke="none"/>
  <polygon points="55.6824,428.25 47.4552,442.5 63.9097,442.5" fill="#333" stroke="none"/>
  <polygon points="31.0007,442.5 22.7734,456.75 39.2279,456.75" fill="#333" stroke="none"/>
  <polygon points="22.7734,456.75 14.5462,471 31.0007,471" fill="#333" stroke="none"/>
  <polygon points="39.2279,456.75 31.0007,471 47.4552,471" fill="#333" stroke="none"/>
  <polygon points="63.9097,442.5 55.6824,456.75 72.1369,456.75" fill="#333" stroke="none"/>
  <polygon points="55.6824,456.75 47.4552,471 63.9097,471" fill="#333" stroke="none"/>
  <polygon points="72.1369,456.75 63.9097,471 80.3641,471" fill="#333" stroke="none"/>
  <polygon points="146.1821,357 137.9548,371.25 154.4093,371.25" fill="#333" stroke="none"/>
  <polygon points="137.9548,371.25 129.7276,385.5 146.1821,385.5" fill="#333" stroke="none"/>
  <polygon points="154.4093,371.25 146.1821,385.5 162.6366,385.5" fill="#333" stroke="none"/>
  <polygon points="129.7276,385.5 121.5003,399.75 137.9548,399.75" fill="#333" stroke="none"/>
  <polygon points="121.5003,399.75 113.2731,414 129.7276,414" fill="#333" stroke="none"/>
  <polygon points="137.9548,399.75 129.7276,414 146.1821,414" fill="#333" stroke="none"/>
  <polygon points="162.6366,385.5 154.4093,399.75 170.8638,399.75" fill="#333" stroke="none"/>
  <polygon points="154.4093,399.75 146.1821,414 162.6366,414" fill="#333" stroke="none"/>
  <polygon points="170.8638,399.75 162.6366,414 179.091,414" fill="#333" stroke="none"/>
  <polygon points="113.2731,414 105.0459,428.25 121.5003,428.25" fill="#333" stroke="none"/>
  <polygon points="105.0459,428.25 96.8186,442.5 113.2731,442.5" fill="#333" stroke="none"/>
  <polygon points="121.5003,428.25 113.2731,442.5 129.7276,442.5" fill="#333" stroke="none"/>
  <polygon points="96.8186,442.5 88.5914,456.75 105.0459,456.75" fill="#333" stroke="none"/>
  <polygon points="88.5914,456.75 80.3641,471 96.8186,471" fill="#333" stroke="none"/>
  <polygon points="105.0459,456.75 96.8186,471 113.2731,471" fill="#333" stroke="none"/>
  <polygon points="129.7276,442.5 121.5003,456.75 137.9548,456.75" fill="#333" stroke="none"/>
  <polygon points="121.5003,456.75 113.2731,471 129.7276,471" fill="#333" stroke="none"/>
  <polygon points="137.9548,456.75 129.7276,471 146.1821,471" fill="#333" stroke="none"/>
  <polygon points="179.091,414 170.8638,428.25 187.3183,428.25" fill="#333" stroke="none"/>
  <polygon points="170.8638,428.25 162.6366,442.5 179.091,442.5" fill="#333" stroke="none"/>
  <polygon points="187.3183,428.25 179.091,442.5 195.5455,442.5" fill="#333" stroke="none"/>
  <polygon points="162.6366,442.5 154.4093,456.75 170.8638,456.75" fill="#333" stroke="none"/>
  <polygon points="154.4093,456.75 146.1821,471 162.6366,471" fill="#333" stroke="none"/>
  <polygon points="170.8638,456.75 162.6366,471 179.091,471" fill="#333" stroke="none"/>
  <polygon points="195.5455,442.5 187.3183,456.75 203.7728,456.75" fill="#333" stroke="none"/>
  <polygon points="187.3183,456.75 179.091,471 195.5455,471" fill="#333" stroke="none"/>
  <polygon points="203.7728,456.75 195.5455,471 212,471" fill="#333" stroke="none"/>
  <polygon points="343.6359,243 335.4086,257.25 351.8631,257.25" fill="#333" stroke="none"/>
  <polygon points="335.4086,257.25 327.1814,271.5 343.6359,271.5" fill="#333" stroke="none"/>
  <polygon points="351.8631,257.25 343.6359,271.5 360.0903,271.5" fill="#333" stroke="none"/>
  <polygon points="327.1814,271.5 318.9541,285.75 335.4086,285.75" fill="#333" stroke="none"/>
  <polygon points="318.9541,285.75 310.7269,300 327.1814,300" fill="#333" stroke="none"/>
  <polygon points="335.4086,285.75 327.1814,300 343.6359,300" fill="#333" stroke="none"/>
  <polygon points="360.0903,271.5 351.8631,285.75 368.3176,285.75" fill="#333" stroke="none"/>
  <polygon points="351.8631,285.75 343.6359,300 360.0903,300" fill="#333" stroke="none"/>
  <polygon points="368.3176,285.75 360.0903,300 376.5448,300" fill="#333" stroke="none"/>
  <polygon points="310.7269,300 302.4997,314.25 318.9541,314.25" fill="#333" stroke="none"/>
  <polygon points="302.4997,314.25 294.2724,328.5 310.7269,328.5" fill="#333" stroke="none"/>
  <polygon points="318.9541,314.25 310.7269,328.5 327.1814,328.5" fill="#333" stroke="none"/>
  <polygon points="294.2724,328.5 286.0452,342.75 302.4997,342.75" fill="#333" stroke="none"/>
  <polygon points="286.0452,342.75 277.8179,357 294.2724,357" fill="#333" stroke="none"/>
  <polygon points="302.4997,342.75 294.2724,357 310.7269,357" fill="#333" stroke="none"/>
  <polygon points="327.1814,328.5 318.9541,342.75 335.4086,342.75" fill="#333" stroke="none"/>
  <polygon points="318.9541,342.75 310.7269,357 327.1814,357" fill="#333" stroke="none"/>
  <polygon points="335.4086,342.75 327.1814,357 343.6359,357" fill="#333" stroke="none"/>
  <polygon points="376.5448,300 368.3176,314.25 384.7721,314.25" fill="#333" stroke="none"/>
  <polygon points="368.3176,314.25 360.0903,328.5 376.5448,328.5" fill="#333" stroke="none"/>
  <polygon points="384.7721,314.25 376.5448,328.5 392.9993,328.5" fill="#333" stroke="none"/>
  <polygon points="360.0903,328.5 351.8631,342.75 368.3176,342.75" fill="#333" stroke="none"/>
  <polygon points="351.8631,342.75 343.6359,357 360.0903,357" fill="#333" stroke="none"/>
  <polygon points="368.3176,342.75 360.0903,357 376.5448,357" fill="#333" stroke="none"/>
  <polygon points="392.9993,328.5 384.7721,342.75 401.2266,342.75" fill="#333" stroke="none"/>
  <polygon points="384.7721,342.75 376.5448,357 392.9993,357" fill="#333" stroke="none"/>
  <polygon points="401.2266,342.75 392.9993,357 409.4538,357" fill="#333" stroke="none"/>
  <polygon points="277.8179,357 269.5907,371.25 286.0452,371.25" fill="#333" stroke="none"/>
  <polygon points="269.5907,371.25 261.3634,385.5 277.8179,385.5" fill="#333" stroke="none"/>
  <polygon points="286.0452,371.25 277.8179,385.5 294.2724,385.5" fill="#333" stroke="none"/>
  <polygon points="261.3634,385.5 253.1362,399.75 269.5907,399.75" fill="#333" stroke="none"/>
  <polygon points="253.1362,399.75 244.909,414 261.3634,414" fill="#333" stroke="none"/>
  <polygon points="269.5907,399.75 261.3634,414 277.8179,414" fill="#333" stroke="none"/>
  <polygon points="294.2724,385.5 286.0452,399.75 302.4997,399.75" fill="#333" stroke="none"/>
  <polygon points="286.0452,399.75 277.8179,414 294.2724,414" fill="#333" stroke="none"/>
  <polygon points="302.4997,399.75 294.2724,414 310.7269,414" fill="#333" stroke="none"/>
  <polygon points="244.909,414 236.6817,428.25 253.1362,428.25" fill="#333" stroke="none"/>
  <polygon points="236.6817,428.25 228.4545,442.5 244.909,442.5" fill="#333" stroke="none"/>
  <polygon points="253.1362,428.25 244.909,442.5 261.3634,442.5" fill="#333" stroke="none"/>
  <polygon points="228.4545,442.5 220.2272,456.75 236.6817,456.75" fill="#333" stroke="none"/>
  <polygon points="220.2272,456.75 212,471 228.4545,471" fill="#333" stroke="none"/>
  <polygon points="236.6817,456.75 228.4545,471 244.909,471" fill="#333" stroke="none"/>
  <polygon points="261.3634,442.5 253.1362,456.75 269.5907,456.75" fill="#333" stroke="none"/>
  <polygon points="253.1362,456.75 244.909,471 261.3634,471" fill="#333" stroke="none"/>
  <polygon points="269.5907,456.75 261.3634,471 277.8179,471" fill="#333" stroke="none"/>
  <polygon points="310.7269,414 302.4997,428.25 318.9541,428.25" fill="#333" stroke="none"/>
  <polygon points="302.4997,428.25 294.2724,442.5 310.7269,442.5" fill="#333" stroke="none"/>
  <polygon points="318.9541,428.25 310.7269,442.5 327.1814,442.5" fill="#333" stroke="none"/>
  <polygon points="294.2724,442.5 286.0452,456.75 302.4997,456.75" fill="#333" stroke="none"/>
  <polygon points="286.0452,456.75 277.8179,471 294.2724,471" fill="#333" stroke="none"/>
  <polygon points="302.4997,456.75 294.2724,471 310.7269,471" fill="#333" stroke="none"/>
  <polygon points="327.1814,442.5 318.9541,456.75 335.4086,456.75" fill="#333" stroke="none"/>
  <polygon points="318.9541,456.75 310.7269,471 327.1814,471" fill="#333" stroke="none"/>
  <polygon points="335.4086,456.75 327.1814,471 343.6359,471" fill="#333" stroke="none"/>
  <polygon points="409.4538,357 401.2266,371.25 417.681,371.25" fill="#333" stroke="none"/>
  <polygon points="401.2266,371.25 392.9993,385.5 409.4538,385.5" fill="#333" stroke="none"/>
  <polygon points="417.681,371.25 409.4538,385.5 425.9083,385.5" fill="#333" stroke="none"/>
  <polygon points="392.9993,385.5 384.7721,399.75 401.2266,399.75" fill="#333" stroke="none"/>
  <polygon points="384.7721,399.75 376.5448,414 392.9993,414" fill="#333" stroke="none"/>
  <polygon points="401.2266,399.75 392.9993,414 409.4538,414" fill="#333" stroke="none"/>
  <polygon points="425.9083,385.5 417.681,399.75 434.1355,399.75" fill="#333" stroke="none"/>
  <polygon points="417.681,399.75 409.4538,414 425.9083,414" fill="#333" stroke="none"/>
  <polygon points="434.1355,399.75 425.9083,414 442.3628,414" fill="#333" stroke="none"/>
  <polygon points="376.5448,414 368.3176,428.25 384.7721,428.25" fill="#333" stroke="none"/>
  <polygon points="368.3176,428.25 360.0903,442.5 376.5448,442.5" fill="#333" stroke="none"/>
  <polygon points="384.7721,428.25 376.5448,442.5 392.9993,442.5" fill="#333" stroke="none"/>
  <polygon points="360.0903,442.5 351.8631,456.75 368.3176,456.75" fill="#333" stroke="none"/>
  <polygon points="351.8631,456.75 343.6359,471 360.0903,471" fill="#333" stroke="none"/>
  <polygon points="368.3176,456.75 360.0903,471 376.5448,471" fill="#333" stroke="none"/>
  <polygon points="392.9993,442.5 384.7721,456.75 401.2266,456.75" fill="#333" stroke="none"/>
  <polygon points="384.7721,456.75 376.5448,471 392.9993,471" fill="#333" stroke="none"/>
  <polygon points="401.2266,456.75 392.9993,471 409.4538,471" fill="#333" stroke="none"/>
  <polygon points="442.3628,414 434.1355,428.25 450.59,428.25" fill="#333" stroke="none"/>
  <polygon points="434.1355,428.25 425.9083,442.5 442.3628,442.5" fill="#333" stroke="none"/>
  <polygon points="450.59,428.25 442.3628,442.5 458.8172,442.5" fill="#333" stroke="none"/>
  <polygon points="425.9083,442.5 417.681,456.75 434.1355,456.75" fill="#333" stroke="none"/>
  <polygon points="417.681,456.75 409.4538,471 425.9083,471" fill="#333" stroke="none"/>
  <polygon points="434.1355,456.75 425.9083,471 442.3628,471" fill="#333" stroke="none"/>
  <polygon points="458.8172,442.5 450.59,456.75 467.0445,456.75" fill="#333" stroke="none"/>
  <polygon points="450.59,456.75 442.3628,471 458.8172,471" fill="#333" stroke="none"/>
  <polygon points="467.0445,456.75 458.8172,471 475.2717,471" fill="#333" stroke="none"/>
</g>
</g>
</g>
  <g>
  <circle cx="189" cy="84" r="3" fill="#333"/>
  <circle cx="257" cy="84" r="3" fill="#333"/>
  <circle cx="325" cy="84" r="3" fill="#333"/>
  <circle cx="393" cy="84" r="3" fill="#333"/>
  <circle cx="223" cy="142.8897" r="3" fill="#333"/>
  <circle cx="291" cy="142.8897" r="3" fill="#333"/>
  <circle cx="359" cy="142.8897" r="3" fill="#333"/>
  <circle cx="427" cy="142.8897" r="3" fill="#333"/>
  <circle cx="189" cy="201.7795" r="3" fill="#333"/>
  <circle cx="257" cy="201.7795" r="3" fill="#333"/>
  <circle cx="325" cy="201.7795" r="3" fill="#333"/>
  <circle cx="393" cy="201.7795" r="3" fill="#333"/>
  <circle cx="223" cy="260.6692" r="3" fill="#333"/>
  <circle cx="291" cy="260.6692" r="3" fill="#333"/>
  <circle cx="359" cy="260.6692" r="3" fill="#333"/>
  <circle cx="427" cy="260.6692" r="3" fill="#333"/>
  <circle cx="189" cy="319.5589" r="3" fill="#333"/>
  <circle cx="257" cy="319.5589" r="3" fill="#333"/>
  <circle cx="325" cy="319.5589" r="3" fill="#333"/>
  <circle cx="393" cy="319.5589" r="3" fill="#333"/>
</g>
  <g>
  <line x1="325" y1="388" x2="423" y2="388" stroke="#999" stroke-width="0.5"/>
  <line x1="325" y1="388" x2="374" y2="472.8705" stroke="#999" stroke-width="0.5"/>
  <line x1="325" y1="388" x2="276" y2="472.8705" stroke="#999" stroke-width="0.5"/>
  <line x1="325" y1="388" x2="227" y2="388" stroke="#999" stroke-width="0.5"/>
  <line x1="325" y1="388" x2="276" y2="303.1295" stroke="#999" stroke-width="0.5"/>
  <line x1="325" y1="388" x2="374" y2="303.1295" stroke="#999" stroke-width="0.5"/>
  <line x1="325" y1="388" x2="494.741" y2="486" stroke="#999" stroke-width="0.5"/>
  <line x1="325" y1="388" x2="325" y2="584" stroke="#999" stroke-width="0.5"/>
  <line x1="325" y1="388" x2="155.259" y2="486" stroke="#999" stroke-width="0.5"/>
  <line x1="325" y1="388" x2="155.259" y2="290" stroke="#999" stroke-width="0.5"/>
  <line x1="325" y1="388" x2="325" y2="192" stroke="#999" stroke-width="0.5"/>
  <line x1="325" y1="388" x2="494.741" y2="290" stroke="#999" stroke-width="0.5"/>
  <line x1="423" y1="388" x2="374" y2="472.8705" stroke="#999" stroke-width="0.5"/>
  <line x1="423" y1="388" x2="276" y2="472.8705" stroke="#999" stroke-width="0.5"/>
  <line x1="423" y1="388" x2="227" y2="388" stroke="#999" stroke-width="0.5"/>
  <line x1="423" y1="388" x2="276" y2="303.1295" stroke="#999" stroke-width="0.5"/>
  <line x1="423" y1="388" x2="374" y2="303.1295" stroke="#999" stroke-width="0.5"/>
  <line x1="423" y1="388" x2="494.741" y2="486" stroke="#999" stroke-width="0.5"/>
  <line x1="423" y1="388" x2="325" y2="584" stroke="#999" stroke-width="0.5"/>
  <line x1="423" y1="388" x2="155.259" y2="486" stroke="#999" stroke-width="0.5"/>
  <line x1="423" y1="388" x2="155.259" y2="290" stroke="#999" stroke-width="0.5"/>
  <line x1="423" y1="388" x2="325" y2="192" stroke="#999" stroke-width="0.5"/>
  <line x1="423" y1="388" x2="494.741" y2="290" stroke="#999" stroke-width="0.5"/>
  <line x1="374" y1="472.8705" x2="276" y2="472.8705" stroke="#999" stroke-width="0.5"/>
  <line x1="374" y1="472.8705" x2="227" y2="388" stroke="#999" stroke-width="0.5"/>
  <line x1="374" y1="472.8705" x2="276" y2="303.1295" stroke="#999" stroke-width="0.5"/>
  <line x1="374" y1="472.8705" x2="374" y2="303.1295" stroke="#999" stroke-width="0.5"/>
  <line x1="374" y1="472.8705" x2="494.741" y2="486" stroke="#999" stroke-width="0.5"/>
  <line x1="374" y1="472.8705" x2="325" y2="584" stroke="#999" stroke-width="0.5"/>
  <line x1="374" y1="472.8705" x2="155.259" y2="486" stroke="#999" stroke-width="0.5"/>
  <line x1="374" y1="472.8705" x2="155.259" y2="290" stroke="#999" stroke-width="0.5"/>
  <line x1="374" y1="472.8705" x2="325" y2="192" stroke="#999" stroke-width="0.5"/>
  <line x1="374" y1="472.8705" x2="494.741" y2="290" stroke="#999" stroke-width="0.5"/>
  <line x1="276" y1="472.8705" x2="227" y2="388" stroke="#999" stroke-width="0.5"/>
  <line x1="276" y1="472.8705" x2="276" y2="303.1295" stroke="#999" stroke-width="0.5"/>
  <line x1="276" y1="472.8705" x2="374" y2="303.1295" stroke="#999" stroke-width="0.5"/>
  <line x1="276" y1="472.8705" x2="494.741" y2="486" stroke="#999" stroke-width="0.5"/>
  <line x1="276" y1="472.8705" x2="325" y2="584" stroke="#999" stroke-width="0.5"/>
  <line x1="276" y1="472.8705" x2="155.259" y2="486" stroke="#999" stroke-width="0.5"/>
  <line x1="276" y1="472.8705" x2="155.259" y2="290" stroke="#999" stroke-width="0.5"/>
  <line x1="276" y1="472.8705" x2="325" y2="192" stroke="#999" stroke-width="0.5"/>
  <line x1="276" y1="472.8705" x2="494.741" y2="290" stroke="#999" stroke-width="0.5"/>
  <line x1="227" y1="388" x2="276" y2="303.1295" stroke="#999" stroke-width="0.5"/>
  <line x1="227" y1="388" x2="374" y2="303.1295" stroke="#999" stroke-width="0.5"/>
  <line x1="227" y1="388" x2="494.741" y2="486" stroke="#999" stroke-width="0.5"/>
  <line x1="227" y1="388" x2="325" y2="584" stroke="#999" stroke-width="0.5"/>
  <line x1="227" y1="388" x2="155.259" y2="486" stroke="#999" stroke-width="0.5"/>
  <line x1="227" y1="388" x2="155.259" y2="290" stroke="#999" stroke-width="0.5"/>
  <line x1="227" y1="388" x2="325" y2="192" stroke="#999" stroke-width="0.5"/>
  <line x1="227" y1="388" x2="494.741" y2="290" stroke="#999" stroke-width="0.5"/>
  <line x1="276" y1="303.1295" x2="374" y2="303.1295" stroke="#999" stroke-width="0.5"/>
  <line x1="276" y1="303.1295" x2="494.741" y2="486" stroke="#999" stroke-width="0.5"/>
  <line x1="276" y1="303.1295" x2="325" y2="584" stroke="#999" stroke-width="0.5"/>
  <line x1="276" y1="303.1295" x2="155.259" y2="486" stroke="#999" stroke-width="0.5"/>
  <line x1="276" y1="303.1295" x2="155.259" y2="290" stroke="#999" stroke-width="0.5"/>
  <line x1="276" y1="303.1295" x2="325" y2="192" stroke="#999" stroke-width="0.5"/>
  <line x1="276" y1="303.1295" x2="494.741" y2="290" stroke="#999" stroke-width="0.5"/>
  <line x1="374" y1="303.1295" x2="494.741" y2="486" stroke="#999" stroke-width="0.5"/>
  <line x1="374" y1="303.1295" x2="325" y2="584" stroke="#999" stroke-width="0.5"/>
  <line x1="374" y1="303.1295" x2="155.259" y2="486" stroke="#999" stroke-width="0.5"/>
  <line x1="374" y1="303.1295" x2="155.259" y2="290" stroke="#999" stroke-width="0.5"/>
  <line x1="374" y1="303.1295" x2="325" y2="192" stroke="#999" stroke-width="0.5"/>
  <line x1="374" y1="303.1295" x2="494.741" y2="290" stroke="#999" stroke-width="0.5"/>
  <line x1="494.741" y1="486" x2="325" y2="584" stroke="#999" stroke-width="0.5"/>
  <line x1="494.741" y1="486" x2="155.259" y2="486" stroke="#999" stroke-width="0.5"/>
  <line x1="494.741" y1="486" x2="155.259" y2="290" stroke="#999" stroke-width="0.5"/>
  <line x1="494.741" y1="486" x2="325" y2="192" stroke="#999" stroke-width="0.5"/>
  <line x1="494.741" y1="486" x2="494.741" y2="290" stroke="#999" stroke-width="0.5"/>
  <line x1="325" y1="584" x2="155.259" y2="486" stroke="#999" stroke-width="0.5"/>
  <line x1="325" y1="584" x2="155.259" y2="290" stroke="#999" stroke-width="0.5"/>
  <line x1="325" y1="584" x2="325" y2="192" stroke="#999" stroke-width="0.5"/>
  <line x1="325" y1="584" x2="494.741" y2="290" stroke="#999" stroke-width="0.5"/>
  <line x1="155.259" y1="486" x2="155.259" y2="290" stroke="#999" stroke-width="0.5"/>
  <line x1="155.259" y1="486" x2="325" y2="192" stroke="#999" stroke-width="0.5"/>
  <line x1="155.259" y1="486" x2="494.741" y2="290" stroke="#999" stroke-width="0.5"/>
  <line x1="155.259" y1="290" x2="325" y2="192" stroke="#999" stroke-width="0.5"/>
  <line x1="155.259" y1="290" x2="494.741" y2="290" stroke="#999" stroke-width="0.5"/>
  <line x1="325" y1="192" x2="494.741" y2="290" stroke="#999" stroke-width="0.5"/>
  <circle cx="325" cy="388" r="14.7" fill="none" stroke="#333" stroke-width="1"/>
  <circle cx="423" cy="388" r="14.7" fill="none" stroke="#333" stroke-width="1"/>
  <circle cx="374" cy="472.8705" r="14.7" fill="none" stroke="#333" stroke-width="1"/>
  <circle cx="276" cy="472.8705" r="14.7" fill="none" stroke="#333" stroke-width="1"/>
  <circle cx="227" cy="388" r="14.7" fill="none" stroke="#333" stroke-width="1"/>
  <circle cx="276" cy="303.1295" r="14.7" fill="none" stroke="#333" stroke-width="1"/>
  <circle cx="374" cy="303.1295" r="14.7" fill="none" stroke="#333" stroke-width="1"/>
  <circle cx="494.741" cy="486" r="14.7" fill="none" stroke="#333" stroke-width="1"/>
  <circle cx="325" cy="584" r="14.7" fill="none" stroke="#333" stroke-width="1"/>
  <circle cx="155.259" cy="486" r="14.7" fill="none" stroke="#333" stroke-width="1"/>
  <circle cx="155.259" cy="290" r="14.7" fill="none" stroke="#333" stroke-width="1"/>
  <circle cx="325" cy="192" r="14.7" fill="none" stroke="#333" stroke-width="1"/>
  <circle cx="494.741" cy="290" r="14.7" fill="none" stroke="#333" stroke-width="1"/>
</g>
  <g transform="rotate(103.1,400,400)">
  <g>
  <circle cx="168" cy="186" r="3" fill="#333"/>
  <circle cx="225" cy="186" r="3" fill="#333"/>
  <circle cx="282" cy="186" r="3" fill="#333"/>
  <circle cx="339" cy="186" r="3" fill="#333"/>
  <circle cx="396" cy="186" r="3" fill="#333"/>
  <circle cx="196.5" cy="235.3634" r="3" fill="#333"/>
  <circle cx="253.5" cy="235.3634" r="3" fill="#333"/>
  <circle cx="310.5" cy="235.3634" r="3" fill="#333"/>
  <circle cx="367.5" cy="235.3634" r="3" fill="#333"/>
  <circle cx="424.5" cy="235.3634" r="3" fill="#333"/>
  <circle cx="168" cy="284.7269" r="3" fill="#333"/>
  <circle cx="225" cy="284.7269" r="3" fill="#333"/>
  <circle cx="282" cy="284.7269" r="3" fill="#333"/>
  <circle cx="339" cy="284.7269" r="3" fill="#333"/>
  <circle cx="396" cy="284.7269" r="3" fill="#333"/>
  <circle cx="196.5" cy="334.0903" r="3" fill="#333"/>
  <circle cx="253.5" cy="334.0903" r="3" fill="#333"/>
  <circle cx="310.5" cy="334.0903" r="3" fill="#333"/>
  <circle cx="367.5" cy="334.0903" r="3" fill="#333"/>
  <circle cx="424.5" cy="334.0903" r="3" fill="#333"/>
  <circle cx="168" cy="383.4538" r="3" fill="#333"/>
  <circle cx="225" cy="383.4538" r="3" fill="#333"/>
  <circle cx="282" cy="383.4538" r="3" fill="#333"/>
  <circle cx="339" cy="383.4538" r="3" fill="#333"/>
  <circle cx="396" cy="383.4538" r="3" fill="#333"/>
</g>
</g>
  <g opacity="0.50">
  <g transform="rotate(-159.8,400,400)">
  <g>
  <line x1="314" y1="566" x2="315.3204" y2="360.0042" stroke="#333" stroke-width="1.5"/>
  <g>
  <line x1="315.3204" y1="360.0042" x2="252.3709" y2="249.3404" stroke="#333" stroke-width="1.5"/>
  <g>
  <line x1="252.3709" y1="249.3404" x2="184.4813" y2="209.562" stroke="#333" stroke-width="1.5"/>
  <g>
  <line x1="184.4813" y1="209.562" x2="135.8523" y2="209.2503" stroke="#333" stroke-width="1.5"/>
  <g>
  <line x1="135.8523" y1="209.2503" x2="109.7281" y2="224.1106" stroke="#333" stroke-width="1.5"/>
</g>
  <g>
  <line x1="135.8523" y1="209.2503" x2="109.9208" y2="194.0562" stroke="#333" stroke-width="1.5"/>
</g>
</g>
  <g>
  <line x1="184.4813" y1="209.562" x2="160.4367" y2="167.2922" stroke="#333" stroke-width="1.5"/>
  <g>
  <line x1="160.4367" y1="167.2922" x2="134.5052" y2="152.0981" stroke="#333" stroke-width="1.5"/>
</g>
  <g>
  <line x1="160.4367" y1="167.2922" x2="160.6294" y2="137.2378" stroke="#333" stroke-width="1.5"/>
</g>
</g>
</g>
  <g>
  <line x1="252.3709" y1="249.3404" x2="252.8753" y2="170.6571" stroke="#333" stroke-width="1.5"/>
  <g>
  <line x1="252.8753" y1="170.6571" x2="228.8307" y2="128.3873" stroke="#333" stroke-width="1.5"/>
  <g>
  <line x1="228.8307" y1="128.3873" x2="202.8992" y2="113.1932" stroke="#333" stroke-width="1.5"/>
</g>
  <g>
  <line x1="228.8307" y1="128.3873" x2="229.0234" y2="98.3329" stroke="#333" stroke-width="1.5"/>
</g>
</g>
  <g>
  <line x1="252.8753" y1="170.6571" x2="277.4597" y2="128.699" stroke="#333" stroke-width="1.5"/>
  <g>
  <line x1="277.4597" y1="128.699" x2="277.6524" y2="98.6446" stroke="#333" stroke-width="1.5"/>
</g>
  <g>
  <line x1="277.4597" y1="128.699" x2="303.5839" y2="113.8386" stroke="#333" stroke-width="1.5"/>
</g>
</g>
</g>
</g>
  <g>
  <line x1="315.3204" y1="360.0042" x2="379.6833" y2="250.1565" stroke="#333" stroke-width="1.5"/>
  <g>
  <line x1="379.6833" y1="250.1565" x2="380.1877" y2="171.4731" stroke="#333" stroke-width="1.5"/>
  <g>
  <line x1="380.1877" y1="171.4731" x2="356.1431" y2="129.2033" stroke="#333" stroke-width="1.5"/>
  <g>
  <line x1="356.1431" y1="129.2033" x2="330.2116" y2="114.0093" stroke="#333" stroke-width="1.5"/>
</g>
  <g>
  <line x1="356.1431" y1="129.2033" x2="356.3358" y2="99.1489" stroke="#333" stroke-width="1.5"/>
</g>
</g>
  <g>
  <line x1="380.1877" y1="171.4731" x2="404.7721" y2="129.515" stroke="#333" stroke-width="1.5"/>
  <g>
  <line x1="404.7721" y1="129.515" x2="404.9648" y2="99.4606" stroke="#333" stroke-width="1.5"/>
</g>
  <g>
  <line x1="404.7721" y1="129.515" x2="430.8963" y2="114.6547" stroke="#333" stroke-width="1.5"/>
</g>
</g>
</g>
  <g>
  <line x1="379.6833" y1="250.1565" x2="448.0773" y2="211.2516" stroke="#333" stroke-width="1.5"/>
  <g>
  <line x1="448.0773" y1="211.2516" x2="472.6617" y2="169.2935" stroke="#333" stroke-width="1.5"/>
  <g>
  <line x1="472.6617" y1="169.2935" x2="472.8544" y2="139.2391" stroke="#333" stroke-width="1.5"/>
</g>
  <g>
  <line x1="472.6617" y1="169.2935" x2="498.7859" y2="154.4331" stroke="#333" stroke-width="1.5"/>
</g>
</g>
  <g>
  <line x1="448.0773" y1="211.2516" x2="496.7063" y2="211.5633" stroke="#333" stroke-width="1.5"/>
  <g>
  <line x1="496.7063" y1="211.5633" x2="522.8305" y2="196.7029" stroke="#333" stroke-width="1.5"/>
</g>
  <g>
  <line x1="496.7063" y1="211.5633" x2="522.6378" y2="226.7573" stroke="#333" stroke-width="1.5"/>
</g>
</g>
</g>
</g>
</g>
</g>
</g>
</svg>