<svg xmlns="http://www.w3.org/2000/svg" width="800" height="800" viewBox="0 0 800 800">
  <g opacity="0.75">
  <g>
  <line x1="299" y1="410" x2="468" y2="410" stroke="#333" stroke-width="1.5"/>
  <line x1="297.5806" y1="418.9615" x2="458.3092" y2="471.1854" stroke="#333" stroke-width="1.5"/>
  <line x1="293.4615" y1="427.0458" x2="430.1854" y2="526.3815" stroke="#333" stroke-width="1.5"/>
  <line x1="287.0458" y1="433.4615" x2="386.3815" y2="570.1854" stroke="#333" stroke-width="1.5"/>
  <line x1="278.9615" y1="437.5806" x2="331.1854" y2="598.3092" stroke="#333" stroke-width="1.5"/>
  <line x1="270" y1="439" x2="270" y2="608" stroke="#333" stroke-width="1.5"/>
  <line x1="261.0385" y1="437.5806" x2="208.8146" y2="598.3092" stroke="#333" stroke-width="1.5"/>
  <line x1="252.9542" y1="433.4615" x2="153.6185" y2="570.1854" stroke="#333" stroke-width="1.5"/>
  <line x1="246.5385" y1="427.0458" x2="109.8146" y2="526.3815" stroke="#333" stroke-width="1.5"/>
  <line x1="242.4194" y1="418.9615" x2="81.6908" y2="471.1854" stroke="#333" stroke-width="1.5"/>
  <line x1="241" y1="410" x2="72" y2="410" stroke="#333" stroke-width="1.5"/>
  <line x1="242.4194" y1="401.0385" x2="81.6908" y2="348.8146" stroke="#333" stroke-width="1.5"/>
  <line x1="246.5385" y1="392.9542" x2="109.8146" y2="293.6185" stroke="#333" stroke-width="1.5"/>
  <line x1="252.9542" y1="386.5385" x2="153.6185" y2="249.8146" stroke="#333" stroke-width="1.5"/>
  <line x1="261.0385" y1="382.4194" x2="208.8146" y2="221.6908" stroke="#333" stroke-width="1.5"/>
  <line x1="270" y1="381" x2="270" y2="212" stroke="#333" stroke-width="1.5"/>
  <line x1="278.9615" y1="382.4194" x2="331.1854" y2="221.6908" stroke="#333" stroke-width="1.5"/>
  <line x1="287.0458" y1="386.5385" x2="386.3815" y2="249.8146" stroke="#333" stroke-width="1.5"/>
  <line x1="293.4615" y1="392.9542" x2="430.1854" y2="293.6185" stroke="#333" stroke-width="1.5"/>
  <line x1="297.5806" y1="401.0385" x2="458.3092" y2="348.8146" stroke="#333" stroke-width="1.5"/>
</g>
</g>
  <g>
  <polygon points="454,278 487,278 487,311" fill="none" stroke="#333" stroke-width="1"/>
  <polygon points="454,278 487,311 463.6655,334.3345" fill="none" stroke="#333" stroke-width="1"/>
  <polygon points="454,278 463.6655,334.3345 431.1407,339.9149" fill="none" stroke="#333" stroke-width="1"/>
  <polygon points="454,278 431.1407,339.9149 400.1833,328.4853" fill="none" stroke="#333" stroke-width="1"/>
  <polygon points="454,278 400.1833,328.4853 377.6056,304.4177" fill="none" stroke="#333" stroke-width="1"/>
  <polygon points="454,278 377.6056,304.4177 366.8206,273.2298" fill="none" stroke="#333" stroke-width="1"/>
  <polygon points="454,278 366.8206,273.2298 368.6236,240.2791" fill="none" stroke="#333" stroke-width="1"/>
  <polygon points="454,278 368.6236,240.2791 381.9599,210.094" fill="none" stroke="#333" stroke-width="1"/>
  <polygon points="454,278 381.9599,210.094 404.5953,186.0806" fill="none" stroke="#333" stroke-width="1"/>
  <polygon points="454,278 404.5953,186.0806 433.6628,170.4575" fill="none" stroke="#333" stroke-width="1"/>
  <polygon points="454,278 433.6628,170.4575 466.088,164.3256" fill="none" stroke="#333" stroke-width="1"/>
  <polygon points="454,278 466.088,164.3256 498.903,167.8151" fill="none" stroke="#333" stroke-width="1"/>
</g>
  <g opacity="0.75">
  <g>
  <line x1="321" y1="420" x2="496" y2="420" stroke="#333" stroke-width="1.5"/>
  <line x1="319.8743" y1="427.1074" x2="486.3092" y2="481.1854" stroke="#333" stroke-width="1.5"/>
  <line x1="316.6074" y1="433.5191" x2="458.1854" y2="536.3815" stroke="#333" stroke-width="1.5"/>
  <line x1="311.5191" y1="438.6074" x2="414.3815" y2="580.1854" stroke="#333" stroke-width="1.5"/>
  <line x1="305.1074" y1="441.8743" x2="359.1854" y2="608.3092" stroke="#333" stroke-width="1.5"/>
  <line x1="298" y1="443" x2="298" y2="618" stroke="#333" stroke-width="1.5"/>
  <line x1="290.8926" y1="441.8743" x2="236.8146" y2="608.3092" stroke="#333" stroke-width="1.5"/>
  <line x1="284.4809" y1="438.6074" x2="181.6185" y2="580.1854" stroke="#333" stroke-width="1.5"/>
  <line x1="279.3926" y1="433.5191" x2="137.8146" y2="536.3815" stroke="#333" stroke-width="1.5"/>
  <line x1="276.1257" y1="427.1074" x2="109.6908" y2="481.1854" stroke="#333" stroke-width="1.5"/>
  <line x1="275" y1="420" x2="100" y2="420" stroke="#333" stroke-width="1.5"/>
  <line x1="276.1257" y1="412.8926" x2="109.6908" y2="358.8146" stroke="#333" stroke-width="1.5"/>
  <line x1="279.3926" y1="406.4809" x2="137.8146" y2="303.6185" stroke="#333" stroke-width="1.5"/>
  <line x1="284.4809" y1="401.3926" x2="181.6185" y2="259.8146" stroke="#333" stroke-width="1.5"/>
  <line x1="290.8926" y1="398.1257" x2="236.8146" y2="231.6908" stroke="#333" stroke-width="1.5"/>
  <line x1="298" y1="397" x2="298" y2="222" stroke="#333" stroke-width="1.5"/>
  <line x1="305.1074" y1="398.1257" x2="359.1854" y2="231.6908" stroke="#333" stroke-width="1.5"/>
  <line x1="311.5191" y1="401.3926" x2="414.3815" y2="259.8146" stroke="#333" stroke-width="1.5"/>
  <line x1="316.6074" y1="406.4809" x2="458.1854" y2="303.6185" stroke="#333" stroke-width="1.5"/>
  <line x1="319.8743" y1="412.8926" x2="486.3092" y2="358.8146" stroke="#333" stroke-width="1.5"/>
</g>
</g>
  <g opacity="0.30">
  <g transform="rotate(106.9,400,400)">
  <g>
  <line x1="396" y1="569" x2="680" y2="569" stroke="#333" stroke-width="1.5"/>
  <line x1="394.8253" y1="577.1702" x2="667.3213" y2="657.1823" stroke="#333" stroke-width="1.5"/>
  <line x1="391.3964" y1="584.6786" x2="630.3124" y2="738.2206" stroke="#333" stroke-width="1.5"/>
  <line x1="385.991" y1="590.9167" x2="571.9714" y2="805.5496" stroke="#333" stroke-width="1.5"/>
  <line x1="379.047" y1="595.3793" x2="497.0249" y2="853.7148" stroke="#333" stroke-width="1.5"/>
  <line x1="371.1271" y1="597.7048" x2="411.5445" y2="878.8141" stroke="#333" stroke-width="1.5"/>
  <line x1="362.8729" y1="597.7048" x2="322.4555" y2="878.8141" stroke="#333" stroke-width="1.5"/>
  <line x1="354.953" y1="595.3793" x2="236.9751" y2="853.7148" stroke="#333" stroke-width="1.5"/>
  <line x1="348.009" y1="590.9167" x2="162.0286" y2="805.5496" stroke="#333" stroke-width="1.5"/>
  <line x1="342.6036" y1="584.6786" x2="103.6876" y2="738.2206" stroke="#333" stroke-width="1.5"/>
  <line x1="339.1747" y1="577.1702" x2="66.6787" y2="657.1823" stroke="#333" stroke-width="1.5"/>
  <line x1="338" y1="569" x2="54" y2="569" stroke="#333" stroke-width="1.5"/>
  <line x1="339.1747" y1="560.8298" x2="66.6787" y2="480.8177" stroke="#333" stroke-width="1.5"/>
  <line x1="342.6036" y1="553.3214" x2="103.6876" y2="399.7794" stroke="#333" stroke-width="1.5"/>
  <line x1="348.009" y1="547.0833" x2="162.0286" y2="332.4504" stroke="#333" stroke-width="1.5"/>
  <line x1="354.953" y1="542.6207" x2="236.9751" y2="284.2852" stroke="#333" stroke-width="1.5"/>
  <line x1="362.8729" y1="540.2952" x2="322.4555" y2="259.1859" stroke="#333" stroke-width="1.5"/>
  <line x1="371.1271" y1="540.2952" x2="411.5445" y2="259.1859" stroke="#333" stroke-width="1.5"/>
  <line x1="379.047" y1="542.6207" x2="497.0249" y2="284.2852" stroke="#333" stroke-width="1.5"/>
  <line x1="385.991" y1="547.0833" x2="571.9714" y2="332.4504" stroke="#333" stroke-width="1.5"/>
  <line x1="391.3964" y1="553.3214" x2="630.3124" y2="399.7794" stroke="#333" stroke-width="1.5"/>
  <line x1="394.8253" y1="560.8298" x2="667.3213" y2="480.8177" stroke="#333" stroke-width="1.5"/>
</g>
</g>
</g>
  <g opacity="0.30">
  <g transform="rotate(106.9,400,400)">
  <g>
  <line x1="378" y1="569" x2="642" y2="569" stroke="#333" stroke-width="1.5"/>
  <line x1="376.8253" y1="577.1702" x2="630.1314" y2="651.5476" stroke="#333" stroke-width="1.5"/>
  <line x1="373.3964" y1="584.6786" x2="595.4873" y2="727.4078" stroke="#333" stroke-width="1.5"/>
  <line x1="367.991" y1="590.9167" x2="540.8742" y2="790.4346" stroke="#333" stroke-width="1.5"/>
  <line x1="361.047" y1="595.3793" x2="470.7166" y2="835.5222" stroke="#333" stroke-width="1.5"/>
  <line x1="353.1271" y1="597.7048" x2="390.6982" y2="859.0177" stroke="#333" stroke-width="1.5"/>
  <line x1="344.8729" y1="597.7048" x2="307.3018" y2="859.0177" stroke="#333" stroke-width="1.5"/>
  <line x1="336.953" y1="595.3793" x2="227.2834" y2="835.5222" stroke="#333" stroke-width="1.5"/>
  <line x1="330.009" y1="590.9167" x2="157.1258" y2="790.4346" stroke="#333" stroke-width="1.5"/>
  <line x1="324.6036" y1="584.6786" x2="102.5127" y2="727.4078" stroke="#333" stroke-width="1.5"/>
  <line x1="321.1747" y1="577.1702" x2="67.8686" y2="651.5476" stroke="#333" stroke-width="1.5"/>
  <line x1="320" y1="569" x2="56" y2="569" stroke="#333" stroke-width="1.5"/>
  <line x1="321.1747" y1="560.8298" x2="67.8686" y2="486.4524" stroke="#333" stroke-width="1.5"/>
  <line x1="324.6036" y1="553.3214" x2="102.5127" y2="410.5922" stroke="#333" stroke-width="1.5"/>
  <line x1="330.009" y1="547.0833" x2="157.1258" y2="347.5654" stroke="#333" stroke-width="1.5"/>
  <line x1="336.953" y1="542.6207" x2="227.2834" y2="302.4778" stroke="#333" stroke-width="1.5"/>
  <line x1="344.8729" y1="540.2952" x2="307.3018" y2="278.9823" stroke="#333" stroke-width="1.5"/>
  <line x1="353.1271" y1="540.2952" x2="390.6982" y2="278.9823" stroke="#333" stroke-width="1.5"/>
  <line x1="361.047" y1="542.6207" x2="470.7166" y2="302.4778" stroke="#333" stroke-width="1.5"/>
  <line x1="367.991" y1="547.0833" x2="540.8742" y2="347.5654" stroke="#333" stroke-width="1.5"/>
  <line x1="373.3964" y1="553.3214" x2="595.4873" y2="410.5922" stroke="#333" stroke-width="1.5"/>
  <line x1="376.8253" y1="560.8298" x2="630.1314" y2="486.4524" stroke="#333" stroke-width="1.5"/>
</g>
</g>
</g>
</svg>