<svg xmlns="http://www.w3.org/2000/svg" width="800" height="800" viewBox="0 0 800 800">
  <g>
  <polygon points="546,218 517.8542,266.75 574.1458,266.75" fill="#333" stroke="none"/>
  <polygon points="517.8542,266.75 489.7083,315.5 546,315.5" fill="#333" stroke="none"/>
  <polygon points="574.1458,266.75 546,315.5 602.2917,315.5" fill="#333" stroke="none"/>
  <polygon points="489.7083,315.5 461.5625,364.25 517.8542,364.25" fill="#333" stroke="none"/>
  <polygon points="461.5625,364.25 433.4167,413 489.7083,413" fill="#333" stroke="none"/>
  <polygon points="517.8542,364.25 489.7083,413 546,413" fill="#333" stroke="none"/>
  <polygon points="602.2917,315.5 574.1458,364.25 630.4375,364.25" fill="#333" stroke="none"/>
  <polygon points="574.1458,364.25 546,413 602.2917,413" fill="#333" stroke="none"/>
  <polygon points="630.4375,364.25 602.2917,413 658.5833,413" fill="#333" stroke="none"/>
</g>
  <g opacity="0.73">
  <g transform="rotate(79.0,400,400)">
  <g>
  <line x1="570" y1="183.152" x2="796.272" y2="70" stroke="#333" stroke-width="1.5" fill="none"/>
  <line x1="570" y1="183.152" x2="570" y2="503.152" stroke="#333" stroke-width="1.5" fill="none"/>
  <line x1="570" y1="183.152" x2="343.728" y2="70" stroke="#333" stroke-width="1.5" fill="none"/>
  <line x1="796.272" y1="70" x2="796.272" y2="390" stroke="#333" stroke-width="1.5" fill="none"/>
  <line x1="796.272" y1="70" x2="570" y2="-43.152" stroke="#333" stroke-width="1.5" fill="none"/>
  <line x1="570" y1="503.152" x2="796.272" y2="390" stroke="#333" stroke-width="1.5" fill="none"/>
  <line x1="570" y1="503.152" x2="343.728" y2="390" stroke="#333" stroke-width="1.5" fill="none"/>
  <line x1="796.272" y1="390" x2="570" y2="276.848" stroke="#333" stroke-width="1.5" fill="none"/>
  <line x1="343.728" y1="70" x2="570" y2="-43.152" stroke="#333" stroke-width="1.5" fill="none"/>
  <line x1="343.728" y1="70" x2="343.728" y2="390" stroke="#333" stroke-width="1.5" fill="none"/>
  <line x1="570" y1="-43.152" x2="570" y2="276.848" stroke="#333" stroke-width="1.5" fill="none"/>
  <line x1="343.728" y1="390" x2="570" y2="276.848" stroke="#333" stroke-width="1.5" fill="none"/>
  <line x1="570" y1="201.0463" x2="709.8438" y2="131.1146" stroke="#333" stroke-width="1.5" fill="none"/>
  <line x1="570" y1="201.0463" x2="570" y2="398.8172" stroke="#333" stroke-width="1.5" fill="none"/>
  <line x1="570" y1="201.0463" x2="430.1562" y2="131.1146" stroke="#333" stroke-width="1.5" fill="none"/>
  <line x1="709.8438" y1="131.1146" x2="709.8438" y2="328.8854" stroke="#333" stroke-width="1.5" fill="none"/>
  <line x1="709.8438" y1="131.1146" x2="570" y2="61.1828" stroke="#333" stroke-width="1.5" fill="none"/>
  <line x1="570" y1="398.8172" x2="709.8438" y2="328.8854" stroke="#333" stroke-width="1.5" fill="none"/>
  <line x1="570" y1="398.8172" x2="430.1562" y2="328.8854" stroke="#333" stroke-width="1.5" fill="none"/>
  <line x1="709.8438" y1="328.8854" x2="570" y2="258.9537" stroke="#333" stroke-width="1.5" fill="none"/>
  <line x1="430.1562" y1="131.1146" x2="570" y2="61.1828" stroke="#333" stroke-width="1.5" fill="none"/>
  <line x1="430.1562" y1="131.1146" x2="430.1562" y2="328.8854" stroke="#333" stroke-width="1.5" fill="none"/>
  <line x1="570" y1="61.1828" x2="570" y2="258.9537" stroke="#333" stroke-width="1.5" fill="none"/>
  <line x1="430.1562" y1="328.8854" x2="570" y2="258.9537" stroke="#333" stroke-width="1.5" fill="none"/>
  <line x1="570" y1="183.152" x2="570" y2="201.0463" stroke="#999" stroke-width="1" fill="none"/>
  <line x1="796.272" y1="70" x2="709.8438" y2="131.1146" stroke="#999" stroke-width="1" fill="none"/>
  <line x1="570" y1="503.152" x2="570" y2="398.8172" stroke="#999" stroke-width="1" fill="none"/>
  <line x1="796.272" y1="390" x2="709.8438" y2="328.8854" stroke="#999" stroke-width="1" fill="none"/>
  <line x1="343.728" y1="70" x2="430.1562" y2="131.1146" stroke="#999" stroke-width="1" fill="none"/>
  <line x1="570" y1="-43.152" x2="570" y2="61.1828" stroke="#999" stroke-width="1" fill="none"/>
  <line x1="343.728" y1="390" x2="430.1562" y2="328.8854" stroke="#999" stroke-width="1" fill="none"/>
  <line x1="570" y1="276.848" x2="570" y2="258.9537" stroke="#999" stroke-width="1" fill="none"/>
</g>
</g>
</g>
</svg>