<svg xmlns="http://www.w3.org/2000/svg" width="800" height="800" viewBox="0 0 800 800">
  <g opacity="0.50">
  <g>
  <line x1="331" y1="478" x2="418" y2="478" stroke="#999" stroke-width="0.5"/>
  <line x1="331" y1="478" x2="374.5" y2="553.3442" stroke="#999" stroke-width="0.5"/>
  <line x1="331" y1="478" x2="287.5" y2="553.3442" stroke="#999" stroke-width="0.5"/>
  <line x1="331" y1="478" x2="244" y2="478" stroke="#999" stroke-width="0.5"/>
  <line x1="331" y1="478" x2="287.5" y2="402.6558" stroke="#999" stroke-width="0.5"/>
  <line x1="331" y1="478" x2="374.5" y2="402.6558" stroke="#999" stroke-width="0.5"/>
  <line x1="331" y1="478" x2="481.6884" y2="565" stroke="#999" stroke-width="0.5"/>
  <line x1="331" y1="478" x2="331" y2="652" stroke="#999" stroke-width="0.5"/>
  <line x1="331" y1="478" x2="180.3116" y2="565" stroke="#999" stroke-width="0.5"/>
  <line x1="331" y1="478" x2="180.3116" y2="391" stroke="#999" stroke-width="0.5"/>
  <line x1="331" y1="478" x2="331" y2="304" stroke="#999" stroke-width="0.5"/>
  <line x1="331" y1="478" x2="481.6884" y2="391" stroke="#999" stroke-width="0.5"/>
  <line x1="418" y1="478" x2="374.5" y2="553.3442" stroke="#999" stroke-width="0.5"/>
  <line x1="418" y1="478" x2="287.5" y2="553.3442" stroke="#999" stroke-width="0.5"/>
  <line x1="418" y1="478" x2="244" y2="478" stroke="#999" stroke-width="0.5"/>
  <line x1="418" y1="478" x2="287.5" y2="402.6558" stroke="#999" stroke-width="0.5"/>
  <line x1="418" y1="478" x2="374.5" y2="402.6558" stroke="#999" stroke-width="0.5"/>
  <line x1="418" y1="478" x2="481.6884" y2="565" stroke="#999" stroke-width="0.5"/>
  <line x1="418" y1="478" x2="331" y2="652" stroke="#999" stroke-width="0.5"/>
  <line x1="418" y1="478" x2="180.3116" y2="565" stroke="#999" stroke-width="0.5"/>
  <line x1="418" y1="478" x2="180.3116" y2="391" stroke="#999" stroke-width="0.5"/>
  <line x1="418" y1="478" x2="331" y2="304" stroke="#999" stroke-width="0.5"/>
  <line x1="418" y1="478" x2="481.6884" y2="391" stroke="#999" stroke-width="0.5"/>
  <line x1="374.5" y1="553.3442" x2="287.5" y2="553.3442" stroke="#999" stroke-width="0.5"/>
  <line x1="374.5" y1="553.3442" x2="244" y2="478" stroke="#999" stroke-width="0.5"/>
  <line x1="374.5" y1="553.3442" x2="287.5" y2="402.6558" stroke="#999" stroke-width="0.5"/>
  <line x1="374.5" y1="553.3442" x2="374.5" y2="402.6558" stroke="#999" stroke-width="0.5"/>
  <line x1="374.5" y1="553.3442" x2="481.6884" y2="565" stroke="#999" stroke-width="0.5"/>
  <line x1="374.5" y1="553.3442" x2="331" y2="652" stroke="#999" stroke-width="0.5"/>
  <line x1="374.5" y1="553.3442" x2="180.3116" y2="565" stroke="#999" stroke-width="0.5"/>
  <line x1="374.5" y1="553.3442" x2="180.3116" y2="391" stroke="#999" stroke-width="0.5"/>
  <line x1="374.5" y1="553.3442" x2="331" y2="304" stroke="#999" stroke-width="0.5"/>
  <line x1="374.5" y1="553.3442" x2="481.6884" y2="391" stroke="#999" stroke-width="0.5"/>
  <line x1="287.5" y1="553.3442" x2="244" y2="478" stroke="#999" stroke-width="0.5"/>
  <line x1="287.5" y1="553.3442" x2="287.5" y2="402.6558" stroke="#999" stroke-width="0.5"/>
  <line x1="287.5" y1="553.3442" x2="374.5" y2="402.6558" stroke="#999" stroke-width="0.5"/>
  <line x1="287.5" y1="553.3442" x2="481.6884" y2="565" stroke="#999" stroke-width="0.5"/>
  <line x1="287.5" y1="553.3442" x2="331" y2="652" stroke="#999" stroke-width="0.5"/>
  <line x1="287.5" y1="553.3442" x2="180.3116" y2="565" stroke="#999" stroke-width="0.5"/>
  <line x1="287.5" y1="553.3442" x2="180.3116" y2="391" stroke="#999" stroke-width="0.5"/>
  <line x1="287.5" y1="553.3442" x2="331" y2="304" stroke="#999" stroke-width="0.5"/>
  <line x1="287.5" y1="553.3442" x2="481.6884" y2="391" stroke="#999" stroke-width="0.5"/>
  <line x1="244" y1="478" x2="287.5" y2="402.6558" stroke="#999" stroke-width="0.5"/>
  <line x1="244" y1="478" x2="374.5" y2="402.6558" stroke="#999" stroke-width="0.5"/>
  <line x1="244" y1="478" x2="481.6884" y2="565" stroke="#999" stroke-width="0.5"/>
  <line x1="244" y1="478" x2="331" y2="652" stroke="#999" stroke-width="0.5"/>
  <line x1="244" y1="478" x2="180.3116" y2="565" stroke="#999" stroke-width="0.5"/>
  <line x1="244" y1="478" x2="180.3116" y2="391" stroke="#999" stroke-width="0.5"/>
  <line x1="244" y1="478" x2="331" y2="304" stroke="#999" stroke-width="0.5"/>
  <line x1="244" y1="478" x2="481.6884" y2="391" stroke="#999" stroke-width="0.5"/>
  <line x1="287.5" y1="402.6558" x2="374.5" y2="402.6558" stroke="#999" stroke-width="0.5"/>
  <line x1="287.5" y1="402.6558" x2="481.6884" y2="565" stroke="#999" stroke-width="0.5"/>
  <line x1="287.5" y1="402.6558" x2="331" y2="652" stroke="#999" stroke-width="0.5"/>
  <line x1="287.5" y1="402.6558" x2="180.3116" y2="565" stroke="#999" stroke-width="0.5"/>
  <line x1="287.5" y1="402.6558" x2="180.3116" y2="391" stroke="#999" stroke-width="0.5"/>
  <line x1="287.5" y1="402.6558" x2="331" y2="304" stroke="#999" stroke-width="0.5"/>
  <line x1="287.5" y1="402.6558" x2="481.6884" y2="391" stroke="#999" stroke-width="0.5"/>
  <line x1="374.5" y1="402.6558" x2="481.6884" y2="565" stroke="#999" stroke-width="0.5"/>
  <line x1="374.5" y1="402.6558" x2="331" y2="652" stroke="#999" stroke-width="0.5"/>
  <line x1="374.5" y1="402.6558" x2="180.3116" y2="565" stroke="#999" stroke-width="0.5"/>
  <line x1="374.5" y1="402.6558" x2="180.3116" y2="391" stroke="#999" stroke-width="0.5"/>
  <line x1="374.5" y1="402.6558" x2="331" y2="304" stroke="#999" stroke-width="0.5"/>
  <line x1="374.5" y1="402.6558" x2="481.6884" y2="391" stroke="#999" stroke-width="0.5"/>
  <line x1="481.6884" y1="565" x2="331" y2="652" stroke="#999" stroke-width="0.5"/>
  <line x1="481.6884" y1="565" x2="180.3116" y2="565" stroke="#999" stroke-width="0.5"/>
  <line x1="481.6884" y1="565" x2="180.3116" y2="391" stroke="#999" stroke-width="0.5"/>
  <line x1="481.6884" y1="565" x2="331" y2="304" stroke="#999" stroke-width="0.5"/>
  <line x1="481.6884" y1="565" x2="481.6884" y2="391" stroke="#999" stroke-width="0.5"/>
  <line x1="331" y1="652" x2="180.3116" y2="565" stroke="#999" stroke-width="0.5"/>
  <line x1="331" y1="652" x2="180.3116" y2="391" stroke="#999" stroke-width="0.5"/>
  <line x1="331" y1="652" x2="331" y2="304" stroke="#999" stroke-width="0.5"/>
  <line x1="331" y1="652" x2="481.6884" y2="391" stroke="#999" stroke-width="0.5"/>
  <line x1="180.3116" y1="565" x2="180.3116" y2="391" stroke="#999" stroke-width="0.5"/>
  <line x1="180.3116" y1="565" x2="331" y2="304" stroke="#999" stroke-width="0.5"/>
  <line x1="180.3116" y1="565" x2="481.6884" y2="391" stroke="#999" stroke-width="0.5"/>
  <line x1="180.3116" y1="391" x2="331" y2="304" stroke="#999" stroke-width="0.5"/>
  <line x1="180.3116" y1="391" x2="481.6884" y2="391" stroke="#999" stroke-width="0.5"/>
  <line x1="331" y1="304" x2="481.6884" y2="391" stroke="#999" stroke-width="0.5"/>
  <circle cx="331" cy="478" r="13.05" fill="none" stroke="#333" stroke-width="1"/>
  <circle cx="418" cy="478" r="13.05" fill="none" stroke="#333" stroke-width="1"/>
  <circle cx="374.5" cy="553.3442" r="13.05" fill="none" stroke="#333" stroke-width="1"/>
  <circle cx="287.5" cy="553.3442" r="13.05" fill="none" stroke="#333" stroke-width="1"/>
  <circle cx="244" cy="478" r="13.05" fill="none" stroke="#333" stroke-width="1"/>
  <circle cx="287.5" cy="402.6558" r="13.05" fill="none" stroke="#333" stroke-width="1"/>
  <circle cx="374.5" cy="402.6558" r="13.05" fill="none" stroke="#333" stroke-width="1"/>
  <circle cx="481.6884" cy="565" r="13.05" fill="none" stroke="#333" stroke-width="1"/>
  <circle cx="331" cy="652" r="13.05" fill="none" stroke="#333" stroke-width="1"/>
  <circle cx="180.3116" cy="565" r="13.05" fill="none" stroke="#333" stroke-width="1"/>
  <circle cx="180.3116" cy="391" r="13.05" fill="none" stroke="#333" stroke-width="1"/>
  <circle cx="331" cy="304" r="13.05" fill="none" stroke="#333" stroke-width="1"/>
  <circle cx="481.6884" cy="391" r="13.05" fill="none" stroke="#333" stroke-width="1"/>
</g>
</g>
  <g>
  <circle cx="200" cy="492" r="30" fill="none" stroke="#333" stroke-width="0.8"/>
  <circle cx="230" cy="492" r="30" fill="none" stroke="#333" stroke-width="0.8"/>
  <circle cx="215" cy="517.9808" r="30" fill="none" stroke="#333" stroke-width="0.8"/>
  <circle cx="185" cy="517.9808" r="30" fill="none" stroke="#333" stroke-width="0.8"/>
  <circle cx="170" cy="492" r="30" fill="none" stroke="#333" stroke-width="0.8"/>
  <circle cx="185" cy="466.0192" r="30" fill="none" stroke="#333" stroke-width="0.8"/>
  <circle cx="215" cy="466.0192" r="30" fill="none" stroke="#333" stroke-width="0.8"/>
</g>
  <g transform="rotate(-56.1,400,400)">
  <g>
  <polygon points="422,310 452,310 452,340" fill="none" stroke="#333" stroke-width="1"/>
  <polygon points="422,310 452,340 430.7868,361.2132" fill="none" stroke="#333" stroke-width="1"/>
  <polygon points="422,310 430.7868,361.2132 401.2188,366.2863" fill="none" stroke="#333" stroke-width="1"/>
  <polygon points="422,310 401.2188,366.2863 373.0757,355.8957" fill="none" stroke="#333" stroke-width="1"/>
  <polygon points="422,310 373.0757,355.8957 352.5505,334.0161" fill="none" stroke="#333" stroke-width="1"/>
  <polygon points="422,310 352.5505,334.0161 342.746,305.6634" fill="none" stroke="#333" stroke-width="1"/>
  <polygon points="422,310 342.746,305.6634 344.3851,275.7083" fill="none" stroke="#333" stroke-width="1"/>
  <polygon points="422,310 344.3851,275.7083 356.509,248.2672" fill="none" stroke="#333" stroke-width="1"/>
  <polygon points="422,310 356.509,248.2672 377.0866,226.4369" fill="none" stroke="#333" stroke-width="1"/>
  <polygon points="422,310 377.0866,226.4369 403.5116,212.2341" fill="none" stroke="#333" stroke-width="1"/>
  <polygon points="422,310 403.5116,212.2341 432.9891,206.6596" fill="none" stroke="#333" stroke-width="1"/>
  <polygon points="422,310 432.9891,206.6596 462.8209,209.8319" fill="none" stroke="#333" stroke-width="1"/>
  <polygon points="422,310 462.8209,209.8319 490.6026,221.1536" fill="none" stroke="#333" stroke-width="1"/>
  <polygon points="422,310 490.6026,221.1536 514.3478,239.4884" fill="none" stroke="#333" stroke-width="1"/>
  <polygon points="422,310 514.3478,239.4884 532.5538,263.3325" fill="none" stroke="#333" stroke-width="1"/>
  <polygon points="422,310 532.5538,263.3325 544.2207,290.9709" fill="none" stroke="#333" stroke-width="1"/>
  <polygon points="422,310 544.2207,290.9709 548.8359,320.6138" fill="none" stroke="#333" stroke-width="1"/>
  <polygon points="422,310 548.8359,320.6138 546.3342,350.5093" fill="none" stroke="#333" stroke-width="1"/>
</g>
</g>
  <g opacity="0.79">
  <g transform="rotate(-155.0,400,400)">
  <g>
  <line x1="270" y1="540.1616" x2="380.3076" y2="485" stroke="#333" stroke-width="1.5" fill="none"/>
  <line x1="270" y1="540.1616" x2="270" y2="696.1616" stroke="#333" stroke-width="1.5" fill="none"/>
  <line x1="270" y1="540.1616" x2="159.6924" y2="485" stroke="#333" stroke-width="1.5" fill="none"/>
  <line x1="380.3076" y1="485" x2="380.3076" y2="641" stroke="#333" stroke-width="1.5" fill="none"/>
  <line x1="380.3076" y1="485" x2="270" y2="429.8384" stroke="#333" stroke-width="1.5" fill="none"/>
  <line x1="270" y1="696.1616" x2="380.3076" y2="641" stroke="#333" stroke-width="1.5" fill="none"/>
  <line x1="270" y1="696.1616" x2="159.6924" y2="641" stroke="#333" stroke-width="1.5" fill="none"/>
  <line x1="380.3076" y1="641" x2="270" y2="585.8384" stroke="#333" stroke-width="1.5" fill="none"/>
  <line x1="159.6924" y1="485" x2="270" y2="429.8384" stroke="#333" stroke-width="1.5" fill="none"/>
  <line x1="159.6924" y1="485" x2="159.6924" y2="641" stroke="#333" stroke-width="1.5" fill="none"/>
  <line x1="270" y1="429.8384" x2="270" y2="585.8384" stroke="#333" stroke-width="1.5" fill="none"/>
  <line x1="159.6924" y1="641" x2="270" y2="585.8384" stroke="#333" stroke-width="1.5" fill="none"/>
  <line x1="270" y1="548.8851" x2="338.1738" y2="514.7933" stroke="#333" stroke-width="1.5" fill="none"/>
  <line x1="270" y1="548.8851" x2="270" y2="645.2984" stroke="#333" stroke-width="1.5" fill="none"/>
  <line x1="270" y1="548.8851" x2="201.8262" y2="514.7933" stroke="#333" stroke-width="1.5" fill="none"/>
  <line x1="338.1738" y1="514.7933" x2="338.1738" y2="611.2067" stroke="#333" stroke-width="1.5" fill="none"/>
  <line x1="338.1738" y1="514.7933" x2="270" y2="480.7016" stroke="#333" stroke-width="1.5" fill="none"/>
  <line x1="270" y1="645.2984" x2="338.1738" y2="611.2067" stroke="#333" stroke-width="1.5" fill="none"/>
  <line x1="270" y1="645.2984" x2="201.8262" y2="611.2067" stroke="#333" stroke-width="1.5" fill="none"/>
  <line x1="338.1738" y1="611.2067" x2="270" y2="577.1149" stroke="#333" stroke-width="1.5" fill="none"/>
  <line x1="201.8262" y1="514.7933" x2="270" y2="480.7016" stroke="#333" stroke-width="1.5" fill="none"/>
  <line x1="201.8262" y1="514.7933" x2="201.8262" y2="611.2067" stroke="#333" stroke-width="1.5" fill="none"/>
  <line x1="270" y1="480.7016" x2="270" y2="577.1149" stroke="#333" stroke-width="1.5" fill="none"/>
  <line x1="201.8262" y1="611.2067" x2="270" y2="577.1149" stroke="#333" stroke-width="1.5" fill="none"/>
  <line x1="270" y1="540.1616" x2="270" y2="548.8851" stroke="#999" stroke-width="1" fill="none"/>
  <line x1="380.3076" y1="485" x2="338.1738" y2="514.7933" stroke="#999" stroke-width="1" fill="none"/>
  <line x1="270" y1="696.1616" x2="270" y2="645.2984" stroke="#999" stroke-width="1" fill="none"/>
  <line x1="380.3076" y1="641" x2="338.1738" y2="611.2067" stroke="#999" stroke-width="1" fill="none"/>
  <line x1="159.6924" y1="485" x2="201.8262" y2="514.7933" stroke="#999" stroke-width="1" fill="none"/>
  <line x1="270" y1="429.8384" x2="270" y2="480.7016" stroke="#999" stroke-width="1" fill="none"/>
  <line x1="159.6924" y1="641" x2="201.8262" y2="611.2067" stroke="#999" stroke-width="1" fill="none"/>
  <line x1="270" y1="585.8384" x2="270" y2="577.1149" stroke="#999" stroke-width="1" fill="none"/>
</g>
</g>
</g>
  <g>
  <circle cx="519" cy="596" r="125" fill="none" stroke="#333" stroke-width="1"/>
  <circle cx="519" cy="596" r="77.2542" fill="none" stroke="#333" stroke-width="1"/>
  <circle cx="519" cy="596" r="47.7458" fill="none" stroke="#333" stroke-width="1"/>
  <circle cx="519" cy="596" r="29.5085" fill="none" stroke="#333" stroke-width="1"/>
  <circle cx="519" cy="596" r="18.2373" fill="none" stroke="#333" stroke-width="1"/>
  <circle cx="519" cy="596" r="11.2712" fill="none" stroke="#333" stroke-width="1"/>
</g>
</svg>