<svg xmlns="http://www.w3.org/2000/svg" width="800" height="800" viewBox="0 0 800 800">
  <g>
  <polygon points="330,239 320.9067,254.75 339.0933,254.75" fill="#333" stroke="none"/>
  <polygon points="320.9067,254.75 311.8135,270.5 330,270.5" fill="#333" stroke="none"/>
  <polygon points="339.0933,254.75 330,270.5 348.1865,270.5" fill="#333" stroke="none"/>
  <polygon points="311.8135,270.5 302.7202,286.25 320.9067,286.25" fill="#333" stroke="none"/>
  <polygon points="302.7202,286.25 293.6269,302 311.8135,302" fill="#333" stroke="none"/>
  <polygon points="320.9067,286.25 311.8135,302 330,302" fill="#333" stroke="none"/>
  <polygon points="348.1865,270.5 339.0933,286.25 357.2798,286.25" fill="#333" stroke="none"/>
  <polygon points="339.0933,286.25 330,302 348.1865,302" fill="#333" stroke="none"/>
  <polygon points="357.2798,286.25 348.1865,302 366.3731,302" fill="#333" stroke="none"/>
  <polygon points="293.6269,302 284.5337,317.75 302.7202,317.75" fill="#333" stroke="none"/>
  <polygon points="284.5337,317.75 275.4404,333.5 293.6269,333.5" fill="#333" stroke="none"/>
  <polygon points="302.7202,317.75 293.6269,333.5 311.8135,333.5" fill="#333" stroke="none"/>
  <polygon points="275.4404,333.5 266.3471,349.25 284.5337,349.25" fill="#333" stroke="none"/>
  <polygon points="266.3471,349.25 257.2539,365 275.4404,365" fill="#333" stroke="none"/>
  <polygon points="284.5337,349.25 275.4404,365 293.6269,365" fill="#333" stroke="none"/>
  <polygon points="311.8135,333.5 302.7202,349.25 320.9067,349.25" fill="#333" stroke="none"/>
  <polygon points="302.7202,349.25 293.6269,365 311.8135,365" fill="#333" stroke="none"/>
  <polygon points="320.9067,349.25 311.8135,365 330,365" fill="#333" stroke="none"/>
  <polygon points="366.3731,302 357.2798,317.75 375.4663,317.75" fill="#333" stroke="none"/>
  <polygon points="357.2798,317.75 348.1865,333.5 366.3731,333.5" fill="#333" stroke="none"/>
  <polygon points="375.4663,317.75 366.3731,333.5 384.5596,333.5" fill="#333" stroke="none"/>
  <polygon points="348.1865,333.5 339.0933,349.25 357.2798,349.25" fill="#333" stroke="none"/>
  <polygon points="339.0933,349.25 330,365 348.1865,365" fill="#333" stroke="none"/>
  <polygon points="357.2798,349.25 348.1865,365 366.3731,365" fill="#333" stroke="none"/>
  <polygon points="384.5596,333.5 375.4663,349.25 393.6529,349.25" fill="#333" stroke="none"/>
  <polygon points="375.4663,349.25 366.3731,365 384.5596,365" fill="#333" stroke="none"/>
  <polygon points="393.6529,349.25 384.5596,365 402.7461,365" fill="#333" stroke="none"/>
  <polygon points="257.2539,365 248.1606,380.75 266.3471,380.75" fill="#333" stroke="none"/>
  <polygon points="248.1606,380.75 239.0673,396.5 257.2539,396.5" fill="#333" stroke="none"/>
  <polygon points="266.3471,380.75 257.2539,396.5 275.4404,396.5" fill="#333" stroke="none"/>
  <polygon points="239.0673,396.5 229.9741,412.25 248.1606,412.25" fill="#333" stroke="none"/>
  <polygon points="229.9741,412.25 220.8808,428 239.0673,428" fill="#333" stroke="none"/>
  <polygon points="248.1606,412.25 239.0673,428 257.2539,428" fill="#333" stroke="none"/>
  <polygon points="275.4404,396.5 266.3471,412.25 284.5337,412.25" fill="#333" stroke="none"/>
  <polygon points="266.3471,412.25 257.2539,428 275.4404,428" fill="#333" stroke="none"/>
  <polygon points="284.5337,412.25 275.4404,428 293.6269,428" fill="#333" stroke="none"/>
  <polygon points="220.8808,428 211.7875,443.75 229.9741,443.75" fill="#333" stroke="none"/>
  <polygon points="211.7875,443.75 202.6943,459.5 220.8808,459.5" fill="#333" stroke="none"/>
  <polygon points="229.9741,443.75 220.8808,459.5 239.0673,459.5" fill="#333" stroke="none"/>
  <polygon points="202.6943,459.5 193.601,475.25 211.7875,475.25" fill="#333" stroke="none"/>
  <polygon points="193.601,475.25 184.5077,491 202.6943,491" fill="#333" stroke="none"/>
  <polygon points="211.7875,475.25 202.6943,491 220.8808,491" fill="#333" stroke="none"/>
  <polygon points="239.0673,459.5 229.9741,475.25 248.1606,475.25" fill="#333" stroke="none"/>
  <polygon points="229.9741,475.25 220.8808,491 239.0673,491" fill="#333" stroke="none"/>
  <polygon points="248.1606,475.25 239.0673,491 257.2539,491" fill="#333" stroke="none"/>
  <polygon points="293.6269,428 284.5337,443.75 302.7202,443.75" fill="#333" stroke="none"/>
  <polygon points="284.5337,443.75 275.4404,459.5 293.6269,459.5" fill="#333" stroke="none"/>
  <polygon points="302.7202,443.75 293.6269,459.5 311.8135,459.5" fill="#333" stroke="none"/>
  <polygon points="275.4404,459.5 266.3471,475.25 284.5337,475.25" fill="#333" stroke="none"/>
  <polygon points="266.3471,475.25 257.2539,491 275.4404,491" fill="#333" stroke="none"/>
  <polygon points="284.5337,475.25 275.4404,491 293.6269,491" fill="#333" stroke="none"/>
  <polygon points="311.8135,459.5 302.7202,475.25 320.9067,475.25" fill="#333" stroke="none"/>
  <polygon points="302.7202,475.25 293.6269,491 311.8135,491" fill="#333" stroke="none"/>
  <polygon points="320.9067,475.25 311.8135,491 330,491" fill="#333" stroke="none"/>
  <polygon points="402.7461,365 393.6529,380.75 411.8394,380.75" fill="#333" stroke="none"/>
  <polygon points="393.6529,380.75 384.5596,396.5 402.7461,396.5" fill="#333" stroke="none"/>
  <polygon points="411.8394,380.75 402.7461,396.5 420.9327,396.5" fill="#333" stroke="none"/>
  <polygon points="384.5596,396.5 375.4663,412.25 393.6529,412.25" fill="#333" stroke="none"/>
  <polygon points="375.4663,412.25 366.3731,428 384.5596,428" fill="#333" stroke="none"/>
  <polygon points="393.6529,412.25 384.5596,428 402.7461,428" fill="#333" stroke="none"/>
  <polygon points="420.9327,396.5 411.8394,412.25 430.0259,412.25" fill="#333" stroke="none"/>
  <polygon points="411.8394,412.25 402.7461,428 420.9327,428" fill="#333" stroke="none"/>
  <polygon points="430.0259,412.25 420.9327,428 439.1192,428" fill="#333" stroke="none"/>
  <polygon points="366.3731,428 357.2798,443.75 375.4663,443.75" fill="#333" stroke="none"/>
  <polygon points="357.2798,443.75 348.1865,459.5 366.3731,459.5" fill="#333" stroke="none"/>
  <polygon points="375.4663,443.75 366.3731,459.5 384.5596,459.5" fill="#333" stroke="none"/>
  <polygon points="348.1865,459.5 339.0933,475.25 357.2798,475.25" fill="#333" stroke="none"/>
  <polygon points="339.0933,475.25 330,491 348.1865,491" fill="#333" stroke="none"/>
  <polygon points="357.2798,475.25 348.1865,491 366.3731,491" fill="#333" stroke="none"/>
  <polygon points="384.5596,459.5 375.4663,475.25 393.6529,475.25" fill="#333" stroke="none"/>
  <polygon points="375.4663,475.25 366.3731,491 384.5596,491" fill="#333" stroke="none"/>
  <polygon points="393.6529,475.25 384.5596,491 402.7461,491" fill="#333" stroke="none"/>
  <polygon points="439.1192,428 430.0259,443.75 448.2125,443.75" fill="#333" stroke="none"/>
  <polygon points="430.0259,443.75 420.9327,459.5 439.1192,459.5" fill="#333" stroke="none"/>
  <polygon points="448.2125,443.75 439.1192,459.5 457.3057,459.5" fill="#333" stroke="none"/>
  <polygon points="420.9327,459.5 411.8394,475.25 430.0259,475.25" fill="#333" stroke="none"/>
  <polygon points="411.8394,475.25 402.7461,491 420.9327,491" fill="#333" stroke="none"/>
  <polygon points="430.0259,475.25 420.9327,491 439.1192,491" fill="#333" stroke="none"/>
  <polygon points="457.3057,459.5 448.2125,475.25 466.399,475.25" fill="#333" stroke="none"/>
  <polygon points="448.2125,475.25 439.1192,491 457.3057,491" fill="#333" stroke="none"/>
  <polygon points="466.399,475.25 457.3057,491 475.4923,491" fill="#333" stroke="none"/>
</g>
  <g>
  <circle cx="477" cy="283" r="325" fill="none" stroke="#333" stroke-width="1"/>
  <circle cx="477" cy="283" r="200.861" fill="none" stroke="#333" stroke-width="1"/>
  <circle cx="477" cy="283" r="124.139" fill="none" stroke="#333" stroke-width="1"/>
</g>
</svg>