<svg xmlns="http://www.w3.org/2000/svg" width="800" height="800" viewBox="0 0 800 800">
  <g opacity="0.88">
  <g transform="rotate(33.8,400,400)">
  <g>
  <line x1="424" y1="264" x2="502" y2="264" stroke="#999" stroke-width="0.5"/>
  <line x1="424" y1="264" x2="463" y2="331.55" stroke="#999" stroke-width="0.5"/>
  <line x1="424" y1="264" x2="385" y2="331.55" stroke="#999" stroke-width="0.5"/>
  <line x1="424" y1="264" x2="346" y2="264" stroke="#999" stroke-width="0.5"/>
  <line x1="424" y1="264" x2="385" y2="196.45" stroke="#999" stroke-width="0.5"/>
  <line x1="424" y1="264" x2="463" y2="196.45" stroke="#999" stroke-width="0.5"/>
  <line x1="424" y1="264" x2="559.1" y2="342" stroke="#999" stroke-width="0.5"/>
  <line x1="424" y1="264" x2="424" y2="420" stroke="#999" stroke-width="0.5"/>
  <line x1="424" y1="264" x2="288.9" y2="342" stroke="#999" stroke-width="0.5"/>
  <line x1="424" y1="264" x2="288.9" y2="186" stroke="#999" stroke-width="0.5"/>
  <line x1="424" y1="264" x2="424" y2="108" stroke="#999" stroke-width="0.5"/>
  <line x1="424" y1="264" x2="559.1" y2="186" stroke="#999" stroke-width="0.5"/>
  <line x1="502" y1="264" x2="463" y2="331.55" stroke="#999" stroke-width="0.5"/>
  <line x1="502" y1="264" x2="385" y2="331.55" stroke="#999" stroke-width="0.5"/>
  <line x1="502" y1="264" x2="346" y2="264" stroke="#999" stroke-width="0.5"/>
  <line x1="502" y1="264" x2="385" y2="196.45" stroke="#999" stroke-width="0.5"/>
  <line x1="502" y1="264" x2="463" y2="196.45" stroke="#999" stroke-width="0.5"/>
  <line x1="502" y1="264" x2="559.1" y2="342" stroke="#999" stroke-width="0.5"/>
  <line x1="502" y1="264" x2="424" y2="420" stroke="#999" stroke-width="0.5"/>
  <line x1="502" y1="264" x2="288.9" y2="342" stroke="#999" stroke-width="0.5"/>
  <line x1="502" y1="264" x2="288.9" y2="186" stroke="#999" stroke-width="0.5"/>
  <line x1="502" y1="264" x2="424" y2="108" stroke="#999" stroke-width="0.5"/>
  <line x1="502" y1="264" x2="559.1" y2="186" stroke="#999" stroke-width="0.5"/>
  <line x1="463" y1="331.55" x2="385" y2="331.55" stroke="#999" stroke-width="0.5"/>
  <line x1="463" y1="331.55" x2="346" y2="264" stroke="#999" stroke-width="0.5"/>
  <line x1="463" y1="331.55" x2="385" y2="196.45" stroke="#999" stroke-width="0.5"/>
  <line x1="463" y1="331.55" x2="463" y2="196.45" stroke="#999" stroke-width="0.5"/>
  <line x1="463" y1="331.55" x2="559.1" y2="342" stroke="#999" stroke-width="0.5"/>
  <line x1="463" y1="331.55" x2="424" y2="420" stroke="#999" stroke-width="0.5"/>
  <line x1="463" y1="331.55" x2="288.9" y2="342" stroke="#999" stroke-width="0.5"/>
  <line x1="463" y1="331.55" x2="288.9" y2="186" stroke="#999" stroke-width="0.5"/>
  <line x1="463" y1="331.55" x2="424" y2="108" stroke="#999" stroke-width="0.5"/>
  <line x1="463" y1="331.55" x2="559.1" y2="186" stroke="#999" stroke-width="0.5"/>
  <line x1="385" y1="331.55" x2="346" y2="264" stroke="#999" stroke-width="0.5"/>
  <line x1="385" y1="331.55" x2="385" y2="196.45" stroke="#999" stroke-width="0.5"/>
  <line x1="385" y1="331.55" x2="463" y2="196.45" stroke="#999" stroke-width="0.5"/>
  <line x1="385" y1="331.55" x2="559.1" y2="342" stroke="#999" stroke-width="0.5"/>
  <line x1="385" y1="331.55" x2="424" y2="420" stroke="#999" stroke-width="0.5"/>
  <line x1="385" y1="331.55" x2="288.9" y2="342" stroke="#999" stroke-width="0.5"/>
  <line x1="385" y1="331.55" x2="288.9" y2="186" stroke="#999" stroke-width="0.5"/>
  <line x1="385" y1="331.55" x2="424" y2="108" stroke="#999" stroke-width="0.5"/>
  <line x1="385" y1="331.55" x2="559.1" y2="186" stroke="#999" stroke-width="0.5"/>
  <line x1="346" y1="264" x2="385" y2="196.45" stroke="#999" stroke-width="0.5"/>
  <line x1="346" y1="264" x2="463" y2="196.45" stroke="#999" stroke-width="0.5"/>
  <line x1="346" y1="264" x2="559.1" y2="342" stroke="#999" stroke-width="0.5"/>
  <line x1="346" y1="264" x2="424" y2="420" stroke="#999" stroke-width="0.5"/>
  <line x1="346" y1="264" x2="288.9" y2="342" stroke="#999" stroke-width="0.5"/>
  <line x1="346" y1="264" x2="288.9" y2="186" stroke="#999" stroke-width="0.5"/>
  <line x1="346" y1="264" x2="424" y2="108" stroke="#999" stroke-width="0.5"/>
  <line x1="346" y1="264" x2="559.1" y2="186" stroke="#999" stroke-width="0.5"/>
  <line x1="385" y1="196.45" x2="463" y2="196.45" stroke="#999" stroke-width="0.5"/>
  <line x1="385" y1="196.45" x2="559.1" y2="342" stroke="#999" stroke-width="0.5"/>
  <line x1="385" y1="196.45" x2="424" y2="420" stroke="#999" stroke-width="0.5"/>
  <line x1="385" y1="196.45" x2="288.9" y2="342" stroke="#999" stroke-width="0.5"/>
  <line x1="385" y1="196.45" x2="288.9" y2="186" stroke="#999" stroke-width="0.5"/>
  <line x1="385" y1="196.45" x2="424" y2="108" stroke="#999" stroke-width="0.5"/>
  <line x1="385" y1="196.45" x2="559.1" y2="186" stroke="#999" stroke-width="0.5"/>
  <line x1="463" y1="196.45" x2="559.1" y2="342" stroke="#999" stroke-width="0.5"/>
  <line x1="463" y1="196.45" x2="424" y2="420" stroke="#999" stroke-width="0.5"/>
  <line x1="463" y1="196.45" x2="288.9" y2="342" stroke="#999" stroke-width="0.5"/>
  <line x1="463" y1="196.45" x2="288.9" y2="186" stroke="#999" stroke-width="0.5"/>
  <line x1="463" y1="196.45" x2="424" y2="108" stroke="#999" stroke-width="0.5"/>
  <line x1="463" y1="196.45" x2="559.1" y2="186" stroke="#999" stroke-width="0.5"/>
  <line x1="559.1" y1="342" x2="424" y2="420" stroke="#999" stroke-width="0.5"/>
  <line x1="559.1" y1="342" x2="288.9" y2="342" stroke="#999" stroke-width="0.5"/>
  <line x1="559.1" y1="342" x2="288.9" y2="186" stroke="#999" stroke-width="0.5"/>
  <line x1="559.1" y1="342" x2="424" y2="108" stroke="#999" stroke-width="0.5"/>
  <line x1="559.1" y1="342" x2="559.1" y2="186" stroke="#999" stroke-width="0.5"/>
  <line x1="424" y1="420" x2="288.9" y2="342" stroke="#999" stroke-width="0.5"/>
  <line x1="424" y1="420" x2="288.9" y2="186" stroke="#999" stroke-width="0.5"/>
  <line x1="424" y1="420" x2="424" y2="108" stroke="#999" stroke-width="0.5"/>
  <line x1="424" y1="420" x2="559.1" y2="186" stroke="#999" stroke-width="0.5"/>
  <line x1="288.9" y1="342" x2="288.9" y2="186" stroke="#999" stroke-width="0.5"/>
  <line x1="288.9" y1="342" x2="424" y2="108" stroke="#999" stroke-width="0.5"/>
  <line x1="288.9" y1="342" x2="559.1" y2="186" stroke="#999" stroke-width="0.5"/>
  <line x1="288.9" y1="186" x2="424" y2="108" stroke="#999" stroke-width="0.5"/>
  <line x1="288.9" y1="186" x2="559.1" y2="186" stroke="#999" stroke-width="0.5"/>
  <line x1="424" y1="108" x2="559.1" y2="186" stroke="#999" stroke-width="0.5"/>
  <circle cx="424" cy="264" r="11.7" fill="none" stroke="#333" stroke-width="1"/>
  <circle cx="502" cy="264" r="11.7" fill="none" stroke="#333" stroke-width="1"/>
  <circle cx="463" cy="331.55" r="11.7" fill="none" stroke="#333" stroke-width="1"/>
  <circle cx="385" cy="331.55" r="11.7" fill="none" stroke="#333" stroke-width="1"/>
  <circle cx="346" cy="264" r="11.7" fill="none" stroke="#333" stroke-width="1"/>
  <circle cx="385" cy="196.45" r="11.7" fill="none" stroke="#333" stroke-width="1"/>
  <circle cx="463" cy="196.45" r="11.7" fill="none" stroke="#333" stroke-width="1"/>
  <circle cx="559.1" cy="342" r="11.7" fill="none" stroke="#333" stroke-width="1"/>
  <circle cx="424" cy="420" r="11.7" fill="none" stroke="#333" stroke-width="1"/>
  <circle cx="288.9" cy="342" r="11.7" fill="none" stroke="#333" stroke-width="1"/>
  <circle cx="288.9" cy="186" r="11.7" fill="none" stroke="#333" stroke-width="1"/>
  <circle cx="424" cy="108" r="11.7" fill="none" stroke="#333" stroke-width="1"/>
  <circle cx="559.1" cy="186" r="11.7" fill="none" stroke="#333" stroke-width="1"/>
</g>
</g>
</g>
  <g transform="rotate(139.4,400,400)">
  <g>
  <line x1="407" y1="674" x2="407.8624" y2="489.002" stroke="#333" stroke-width="1.5"/>
  <g>
  <line x1="407.8624" y1="489.002" x2="351.1565" y2="389.7185" stroke="#333" stroke-width="1.5"/>
  <g>
  <line x1="351.1565" y1="389.7185" x2="290.1253" y2="354.1017" stroke="#333" stroke-width="1.5"/>
</g>
  <g>
  <line x1="351.1565" y1="389.7185" x2="351.4859" y2="319.0555" stroke="#333" stroke-width="1.5"/>
</g>
</g>
  <g>
  <line x1="407.8624" y1="489.002" x2="465.4915" y2="390.2515" stroke="#333" stroke-width="1.5"/>
  <g>
  <line x1="465.4915" y1="390.2515" x2="465.8209" y2="319.5885" stroke="#333" stroke-width="1.5"/>
</g>
  <g>
  <line x1="465.4915" y1="390.2515" x2="526.8521" y2="355.2053" stroke="#333" stroke-width="1.5"/>
</g>
</g>
</g>
</g>
  <g transform="rotate(-21.3,400,400)">
  <g>
  <polygon points="297,-4 252.8327,72.5 341.1673,72.5" fill="#333" stroke="none"/>
  <polygon points="252.8327,72.5 208.6654,149 297,149" fill="#333" stroke="none"/>
  <polygon points="341.1673,72.5 297,149 385.3346,149" fill="#333" stroke="none"/>
  <polygon points="208.6654,149 164.4981,225.5 252.8327,225.5" fill="#333" stroke="none"/>
  <polygon points="164.4981,225.5 120.3308,302 208.6654,302" fill="#333" stroke="none"/>
  <polygon points="252.8327,225.5 208.6654,302 297,302" fill="#333" stroke="none"/>
  <polygon points="385.3346,149 341.1673,225.5 429.5019,225.5" fill="#333" stroke="none"/>
  <polygon points="341.1673,225.5 297,302 385.3346,302" fill="#333" stroke="none"/>
  <polygon points="429.5019,225.5 385.3346,302 473.6692,302" fill="#333" stroke="none"/>
</g>
</g>
  <g>
  <polygon points="270,171 263.9378,181.5 276.0622,181.5" fill="#333" stroke="none"/>
  <polygon points="263.9378,181.5 257.8756,192 270,192" fill="#333" stroke="none"/>
  <polygon points="276.0622,181.5 270,192 282.1244,192" fill="#333" stroke="none"/>
  <polygon points="257.8756,192 251.8135,202.5 263.9378,202.5" fill="#333" stroke="none"/>
  <polygon points="251.8135,202.5 245.7513,213 257.8756,213" fill="#333" stroke="none"/>
  <polygon points="263.9378,202.5 257.8756,213 270,213" fill="#333" stroke="none"/>
  <polygon points="282.1244,192 276.0622,202.5 288.1865,202.5" fill="#333" stroke="none"/>
  <polygon points="276.0622,202.5 270,213 282.1244,213" fill="#333" stroke="none"/>
  <polygon points="288.1865,202.5 282.1244,213 294.2487,213" fill="#333" stroke="none"/>
  <polygon points="245.7513,213 239.6891,223.5 251.8135,223.5" fill="#333" stroke="none"/>
  <polygon points="239.6891,223.5 233.6269,234 245.7513,234" fill="#333" stroke="none"/>
  <polygon points="251.8135,223.5 245.7513,234 257.8756,234" fill="#333" stroke="none"/>
  <polygon points="233.6269,234 227.5648,244.5 239.6891,244.5" fill="#333" stroke="none"/>
  <polygon points="227.5648,244.5 221.5026,255 233.6269,255" fill="#333" stroke="none"/>
  <polygon points="239.6891,244.5 233.6269,255 245.7513,255" fill="#333" stroke="none"/>
  <polygon points="257.8756,234 251.8135,244.5 263.9378,244.5" fill="#333" stroke="none"/>
  <polygon points="251.8135,244.5 245.7513,255 257.8756,255" fill="#333" stroke="none"/>
  <polygon points="263.9378,244.5 257.8756,255 270,255" fill="#333" stroke="none"/>
  <polygon points="294.2487,213 288.1865,223.5 300.3109,223.5" fill="#333" stroke="none"/>
  <polygon points="288.1865,223.5 282.1244,234 294.2487,234" fill="#333" stroke="none"/>
  <polygon points="300.3109,223.5 294.2487,234 306.3731,234" fill="#333" stroke="none"/>
  <polygon points="282.1244,234 276.0622,244.5 288.1865,244.5" fill="#333" stroke="none"/>
  <polygon points="276.0622,244.5 270,255 282.1244,255" fill="#333" stroke="none"/>
  <polygon points="288.1865,244.5 282.1244,255 294.2487,255" fill="#333" stroke="none"/>
  <polygon points="306.3731,234 300.3109,244.5 312.4352,244.5" fill="#333" stroke="none"/>
  <polygon points="300.3109,244.5 294.2487,255 306.3731,255" fill="#333" stroke="none"/>
  <polygon points="312.4352,244.5 306.3731,255 318.4974,255" fill="#333" stroke="none"/>
  <polygon points="221.5026,255 215.4404,265.5 227.5648,265.5" fill="#333" stroke="none"/>
  <polygon points="215.4404,265.5 209.3782,276 221.5026,276" fill="#333" stroke="none"/>
  <polygon points="227.5648,265.5 221.5026,276 233.6269,276" fill="#333" stroke="none"/>
  <polygon points="209.3782,276 203.316,286.5 215.4404,286.5" fill="#333" stroke="none"/>
  <polygon points="203.316,286.5 197.2539,297 209.3782,297" fill="#333" stroke="none"/>
  <polygon points="215.4404,286.5 209.3782,297 221.5026,297" fill="#333" stroke="none"/>
  <polygon points="233.6269,276 227.5648,286.5 239.6891,286.5" fill="#333" stroke="none"/>
  <polygon points="227.5648,286.5 221.5026,297 233.6269,297" fill="#333" stroke="none"/>
  <polygon points="239.6891,286.5 233.6269,297 245.7513,297" fill="#333" stroke="none"/>
  <polygon points="197.2539,297 191.1917,307.5 203.316,307.5" fill="#333" stroke="none"/>
  <polygon points="191.1917,307.5 185.1295,318 197.2539,318" fill="#333" stroke="none"/>
  <polygon points="203.316,307.5 197.2539,318 209.3782,318" fill="#333" stroke="none"/>
  <polygon points="185.1295,318 179.0673,328.5 191.1917,328.5" fill="#333" stroke="none"/>
  <polygon points="179.0673,328.5 173.0052,339 185.1295,339" fill="#333" stroke="none"/>
  <polygon points="191.1917,328.5 185.1295,339 197.2539,339" fill="#333" stroke="none"/>
  <polygon points="209.3782,318 203.316,328.5 215.4404,328.5" fill="#333" stroke="none"/>
  <polygon points="203.316,328.5 197.2539,339 209.3782,339" fill="#333" stroke="none"/>
  <polygon points="215.4404,328.5 209.3782,339 221.5026,339" fill="#333" stroke="none"/>
  <polygon points="245.7513,297 239.6891,307.5 251.8135,307.5" fill="#333" stroke="none"/>
  <polygon points="239.6891,307.5 233.6269,318 245.7513,318" fill="#333" stroke="none"/>
  <polygon points="251.8135,307.5 245.7513,318 257.8756,318" fill="#333" stroke="none"/>
  <polygon points="233.6269,318 227.5648,328.5 239.6891,328.5" fill="#333" stroke="none"/>
  <polygon points="227.5648,328.5 221.5026,339 233.6269,339" fill="#333" stroke="none"/>
  <polygon points="239.6891,328.5 233.6269,339 245.7513,339" fill="#333" stroke="none"/>
  <polygon points="257.8756,318 251.8135,328.5 263.9378,328.5" fill="#333" stroke="none"/>
  <polygon points="251.8135,328.5 245.7513,339 257.8756,339" fill="#333" stroke="none"/>
  <polygon points="263.9378,328.5 257.8756,339 270,339" fill="#333" stroke="none"/>
  <polygon points="318.4974,255 312.4352,265.5 324.5596,265.5" fill="#333" stroke="none"/>
  <polygon points="312.4352,265.5 306.3731,276 318.4974,276" fill="#333" stroke="none"/>
  <polygon points="324.5596,265.5 318.4974,276 330.6218,276" fill="#333" stroke="none"/>
  <polygon points="306.3731,276 300.3109,286.5 312.4352,286.5" fill="#333" stroke="none"/>
  <polygon points="300.3109,286.5 294.2487,297 306.3731,297" fill="#333" stroke="none"/>
  <polygon points="312.4352,286.5 306.3731,297 318.4974,297" fill="#333" stroke="none"/>
  <polygon points="330.6218,276 324.5596,286.5 336.684,286.5" fill="#333" stroke="none"/>
  <polygon points="324.5596,286.5 318.4974,297 330.6218,297" fill="#333" stroke="none"/>
  <polygon points="336.684,286.5 330.6218,297 342.7461,297" fill="#333" stroke="none"/>
  <polygon points="294.2487,297 288.1865,307.5 300.3109,307.5" fill="#333" stroke="none"/>
  <polygon points="288.1865,307.5 282.1244,318 294.2487,318" fill="#333" stroke="none"/>
  <polygon points="300.3109,307.5 294.2487,318 306.3731,318" fill="#333" stroke="none"/>
  <polygon points="282.1244,318 276.0622,328.5 288.1865,328.5" fill="#333" stroke="none"/>
  <polygon points="276.0622,328.5 270,339 282.1244,339" fill="#333" stroke="none"/>
  <polygon points="288.1865,328.5 282.1244,339 294.2487,339" fill="#333" stroke="none"/>
  <polygon points="306.3731,318 300.3109,328.5 312.4352,328.5" fill="#333" stroke="none"/>
  <polygon points="300.3109,328.5 294.2487,339 306.3731,339" fill="#333" stroke="none"/>
  <polygon points="312.4352,328.5 306.3731,339 318.4974,339" fill="#333" stroke="none"/>
  <polygon points="342.7461,297 336.684,307.5 348.8083,307.5" fill="#333" stroke="none"/>
  <polygon points="336.684,307.5 330.6218,318 342.7461,318" fill="#333" stroke="none"/>
  <polygon points="348.8083,307.5 342.7461,318 354.8705,318" fill="#333" stroke="none"/>
  <polygon points="330.6218,318 324.5596,328.5 336.684,328.5" fill="#333" stroke="none"/>
  <polygon points="324.5596,328.5 318.4974,339 330.6218,339" fill="#333" stroke="none"/>
  <polygon points="336.684,328.5 330.6218,339 342.7461,339" fill="#333" stroke="none"/>
  <polygon points="354.8705,318 348.8083,328.5 360.9327,328.5" fill="#333" stroke="none"/>
  <polygon points="348.8083,328.5 342.7461,339 354.8705,339" fill="#333" stroke="none"/>
  <polygon points="360.9327,328.5 354.8705,339 366.9948,339" fill="#333" stroke="none"/>
  <polygon points="173.0052,339 166.943,349.5 179.0673,349.5" fill="#333" stroke="none"/>
  <polygon points="166.943,349.5 160.8808,360 173.0052,360" fill="#333" stroke="none"/>
  <polygon points="179.0673,349.5 173.0052,360 185.1295,360" fill="#333" stroke="none"/>
  <polygon points="160.8808,360 154.8186,370.5 166.943,370.5" fill="#333" stroke="none"/>
  <polygon points="154.8186,370.5 148.7564,381 160.8808,381" fill="#333" stroke="none"/>
  <polygon points="166.943,370.5 160.8808,381 173.0052,381" fill="#333" stroke="none"/>
  <polygon points="185.1295,360 179.0673,370.5 191.1917,370.5" fill="#333" stroke="none"/>
  <polygon points="179.0673,370.5 173.0052,381 185.1295,381" fill="#333" stroke="none"/>
  <polygon points="191.1917,370.5 185.1295,381 197.2539,381" fill="#333" stroke="none"/>
  <polygon points="148.7564,381 142.6943,391.5 154.8186,391.5" fill="#333" stroke="none"/>
  <polygon points="142.6943,391.5 136.6321,402 148.7564,402" fill="#333" stroke="none"/>
  <polygon points="154.8186,391.5 148.7564,402 160.8808,402" fill="#333" stroke="none"/>
  <polygon points="136.6321,402 130.5699,412.5 142.6943,412.5" fill="#333" stroke="none"/>
  <polygon points="130.5699,412.5 124.5077,423 136.6321,423" fill="#333" stroke="none"/>
  <polygon points="142.6943,412.5 136.6321,423 148.7564,423" fill="#333" stroke="none"/>
  <polygon points="160.8808,402 154.8186,412.5 166.943,412.5" fill="#333" stroke="none"/>
  <polygon points="154.8186,412.5 148.7564,423 160.8808,423" fill="#333" stroke="none"/>
  <polygon points="166.943,412.5 160.8808,423 173.0052,423" fill="#333" stroke="none"/>
  <polygon points="197.2539,381 191.1917,391.5 203.316,391.5" fill="#333" stroke="none"/>
  <polygon points="191.1917,391.5 185.1295,402 197.2539,402" fill="#333" stroke="none"/>
  <polygon points="203.316,391.5 197.2539,402 209.3782,402" fill="#333" stroke="none"/>
  <polygon points="185.1295,402 179.0673,412.5 191.1917,412.5" fill="#333" stroke="none"/>
  <polygon points="179.0673,412.5 173.0052,423 185.1295,423" fill="#333" stroke="none"/>
  <polygon points="191.1917,412.5 185.1295,423 197.2539,423" fill="#333" stroke="none"/>
  <polygon points="209.3782,402 203.316,412.5 215.4404,412.5" fill="#333" stroke="none"/>
  <polygon points="203.316,412.5 197.2539,423 209.3782,423" fill="#333" stroke="none"/>
  <polygon points="215.4404,412.5 209.3782,423 221.5026,423" fill="#333" stroke="none"/>
  <polygon points="124.5077,423 118.4456,433.5 130.5699,433.5" fill="#333" stroke="none"/>
  <polygon points="118.4456,433.5 112.3834,444 124.5077,444" fill="#333" stroke="none"/>
  <polygon points="130.5699,433.5 124.5077,444 136.6321,444" fill="#333" stroke="none"/>
  <polygon points="112.3834,444 106.3212,454.5 118.4456,454.5" fill="#333" stroke="none"/>
  <polygon points="106.3212,454.5 100.259,465 112.3834,465" fill="#333" stroke="none"/>
  <polygon points="118.4456,454.5 112.3834,465 124.5077,465" fill="#333" stroke="none"/>
  <polygon points="136.6321,444 130.5699,454.5 142.6943,454.5" fill="#333" stroke="none"/>
  <polygon points="130.5699,454.5 124.5077,465 136.6321,465" fill="#333" stroke="none"/>
  <polygon points="142.6943,454.5 136.6321,465 148.7564,465" fill="#333" stroke="none"/>
  <polygon points="100.259,465 94.1968,475.5 106.3212,475.5" fill="#333" stroke="none"/>
  <polygon points="94.1968,475.5 88.1347,486 100.259,486" fill="#333" stroke="none"/>
  <polygon points="106.3212,475.5 100.259,486 112.3834,486" fill="#333" stroke="none"/>
  <polygon points="88.1347,486 82.0725,496.5 94.1968,496.5" fill="#333" stroke="none"/>
  <polygon points="82.0725,496.5 76.0103,507 88.1347,507" fill="#333" stroke="none"/>
  <polygon points="94.1968,496.5 88.1347,507 100.259,507" fill="#333" stroke="none"/>
  <polygon points="112.3834,486 106.3212,496.5 118.4456,496.5" fill="#333" stroke="none"/>
  <polygon points="106.3212,496.5 100.259,507 112.3834,507" fill="#333" stroke="none"/>
  <polygon points="118.4456,496.5 112.3834,507 124.5077,507" fill="#333" stroke="none"/>
  <polygon points="148.7564,465 142.6943,475.5 154.8186,475.5" fill="#333" stroke="none"/>
  <polygon points="142.6943,475.5 136.6321,486 148.7564,486" fill="#333" stroke="none"/>
  <polygon points="154.8186,475.5 148.7564,486 160.8808,486" fill="#333" stroke="none"/>
  <polygon points="136.6321,486 130.5699,496.5 142.6943,496.5" fill="#333" stroke="none"/>
  <polygon points="130.5699,496.5 124.5077,507 136.6321,507" fill="#333" stroke="none"/>
  <polygon points="142.6943,496.5 136.6321,507 148.7564,507" fill="#333" stroke="none"/>
  <polygon points="160.8808,486 154.8186,496.5 166.943,496.5" fill="#333" stroke="none"/>
  <polygon points="154.8186,496.5 148.7564,507 160.8808,507" fill="#333" stroke="none"/>
  <polygon points="166.943,496.5 160.8808,507 173.0052,507" fill="#333" stroke="none"/>
  <polygon points="221.5026,423 215.4404,433.5 227.5648,433.5" fill="#333" stroke="none"/>
  <polygon points="215.4404,433.5 209.3782,444 221.5026,444" fill="#333" stroke="none"/>
  <polygon points="227.5648,433.5 221.5026,444 233.6269,444" fill="#333" stroke="none"/>
  <polygon points="209.3782,444 203.316,454.5 215.4404,454.5" fill="#333" stroke="none"/>
  <polygon points="203.316,454.5 197.2539,465 209.3782,465" fill="#333" stroke="none"/>
  <polygon points="215.4404,454.5 209.3782,465 221.5026,465" fill="#333" stroke="none"/>
  <polygon points="233.6269,444 227.5648,454.5 239.6891,454.5" fill="#333" stroke="none"/>
  <polygon points="227.5648,454.5 221.5026,465 233.6269,465" fill="#333" stroke="none"/>
  <polygon points="239.6891,454.5 233.6269,465 245.7513,465" fill="#333" stroke="none"/>
  <polygon points="197.2539,465 191.1917,475.5 203.316,475.5" fill="#333" stroke="none"/>
  <polygon points="191.1917,475.5 185.1295,486 197.2539,486" fill="#333" stroke="none"/>
  <polygon points="203.316,475.5 197.2539,486 209.3782,486" fill="#333" stroke="none"/>
  <polygon points="185.1295,486 179.0673,496.5 191.1917,496.5" fill="#333" stroke="none"/>
  <polygon points="179.0673,496.5 173.0052,507 185.1295,507" fill="#333" stroke="none"/>
  <polygon points="191.1917,496.5 185.1295,507 197.2539,507" fill="#333" stroke="none"/>
  <polygon points="209.3782,486 203.316,496.5 215.4404,496.5" fill="#333" stroke="none"/>
  <polygon points="203.316,496.5 197.2539,507 209.3782,507" fill="#333" stroke="none"/>
  <polygon points="215.4404,496.5 209.3782,507 221.5026,507" fill="#333" stroke="none"/>
  <polygon points="245.7513,465 239.6891,475.5 251.8135,475.5" fill="#333" stroke="none"/>
  <polygon points="239.6891,475.5 233.6269,486 245.7513,486" fill="#333" stroke="none"/>
  <polygon points="251.8135,475.5 245.7513,486 257.8756,486" fill="#333" stroke="none"/>
  <polygon points="233.6269,486 227.5648,496.5 239.6891,496.5" fill="#333" stroke="none"/>
  <polygon points="227.5648,496.5 221.5026,507 233.6269,507" fill="#333" stroke="none"/>
  <polygon points="239.6891,496.5 233.6269,507 245.7513,507" fill="#333" stroke="none"/>
  <polygon points="257.8756,486 251.8135,496.5 263.9378,496.5" fill="#333" stroke="none"/>
  <polygon points="251.8135,496.5 245.7513,507 257.8756,507" fill="#333" stroke="none"/>
  <polygon points="263.9378,496.5 257.8756,507 270,507" fill="#333" stroke="none"/>
  <polygon points="366.9948,339 360.9327,349.5 373.057,349.5" fill="#333" stroke="none"/>
  <polygon points="360.9327,349.5 354.8705,360 366.9948,360" fill="#333" stroke="none"/>
  <polygon points="373.057,349.5 366.9948,360 379.1192,360" fill="#333" stroke="none"/>
  <polygon points="354.8705,360 348.8083,370.5 360.9327,370.5" fill="#333" stroke="none"/>
  <polygon points="348.8083,370.5 342.7461,381 354.8705,381" fill="#333" stroke="none"/>
  <polygon points="360.9327,370.5 354.8705,381 366.9948,381" fill="#333" stroke="none"/>
  <polygon points="379.1192,360 373.057,370.5 385.1814,370.5" fill="#333" stroke="none"/>
  <polygon points="373.057,370.5 366.9948,381 379.1192,381" fill="#333" stroke="none"/>
  <polygon points="385.1814,370.5 379.1192,381 391.2436,381" fill="#333" stroke="none"/>
  <polygon points="342.7461,381 336.684,391.5 348.8083,391.5" fill="#333" stroke="none"/>
  <polygon points="336.684,391.5 330.6218,402 342.7461,402" fill="#333" stroke="none"/>
  <polygon points="348.8083,391.5 342.7461,402 354.8705,402" fill="#333" stroke="none"/>
  <polygon points="330.6218,402 324.5596,412.5 336.684,412.5" fill="#333" stroke="none"/>
  <polygon points="324.5596,412.5 318.4974,423 330.6218,423" fill="#333" stroke="none"/>
  <polygon points="336.684,412.5 330.6218,423 342.7461,423" fill="#333" stroke="none"/>
  <polygon points="354.8705,402 348.8083,412.5 360.9327,412.5" fill="#333" stroke="none"/>
  <polygon points="348.8083,412.5 342.7461,423 354.8705,423" fill="#333" stroke="none"/>
  <polygon points="360.9327,412.5 354.8705,423 366.9948,423" fill="#333" stroke="none"/>
  <polygon points="391.2436,381 385.1814,391.5 397.3057,391.5" fill="#333" stroke="none"/>
  <polygon points="385.1814,391.5 379.1192,402 391.2436,402" fill="#333" stroke="none"/>
  <polygon points="397.3057,391.5 391.2436,402 403.3679,402" fill="#333" stroke="none"/>
  <polygon points="379.1192,402 373.057,412.5 385.1814,412.5" fill="#333" stroke="none"/>
  <polygon points="373.057,412.5 366.9948,423 379.1192,423" fill="#333" stroke="none"/>
  <polygon points="385.1814,412.5 379.1192,423 391.2436,423" fill="#333" stroke="none"/>
  <polygon points="403.3679,402 397.3057,412.5 409.4301,412.5" fill="#333" stroke="none"/>
  <polygon points="397.3057,412.5 391.2436,423 403.3679,423" fill="#333" stroke="none"/>
  <polygon points="409.4301,412.5 403.3679,423 415.4923,423" fill="#333" stroke="none"/>
  <polygon points="318.4974,423 312.4352,433.5 324.5596,433.5" fill="#333" stroke="none"/>
  <polygon points="312.4352,433.5 306.3731,444 318.4974,444" fill="#333" stroke="none"/>
  <polygon points="324.5596,433.5 318.4974,444 330.6218,444" fill="#333" stroke="none"/>
  <polygon points="306.3731,444 300.3109,454.5 312.4352,454.5" fill="#333" stroke="none"/>
  <polygon points="300.3109,454.5 294.2487,465 306.3731,465" fill="#333" stroke="none"/>
  <polygon points="312.4352,454.5 306.3731,465 318.4974,465" fill="#333" stroke="none"/>
  <polygon points="330.6218,444 324.5596,454.5 336.684,454.5" fill="#333" stroke="none"/>
  <polygon points="324.5596,454.5 318.4974,465 330.6218,465" fill="#333" stroke="none"/>
  <polygon points="336.684,454.5 330.6218,465 342.7461,465" fill="#333" stroke="none"/>
  <polygon points="294.2487,465 288.1865,475.5 300.3109,475.5" fill="#333" stroke="none"/>
  <polygon points="288.1865,475.5 282.1244,486 294.2487,486" fill="#333" stroke="none"/>
  <polygon points="300.3109,475.5 294.2487,486 306.3731,486" fill="#333" stroke="none"/>
  <polygon points="282.1244,486 276.0622,496.5 288.1865,496.5" fill="#333" stroke="none"/>
  <polygon points="276.0622,496.5 270,507 282.1244,507" fill="#333" stroke="none"/>
  <polygon points="288.1865,496.5 282.1244,507 294.2487,507" fill="#333" stroke="none"/>
  <polygon points="306.3731,486 300.3109,496.5 312.4352,496.5" fill="#333" stroke="none"/>
  <polygon points="300.3109,496.5 294.2487,507 306.3731,507" fill="#333" stroke="none"/>
  <polygon points="312.4352,496.5 306.3731,507 318.4974,507" fill="#333" stroke="none"/>
  <polygon points="342.7461,465 336.684,475.5 348.8083,475.5" fill="#333" stroke="none"/>
  <polygon points="336.684,475.5 330.6218,486 342.7461,486" fill="#333" stroke="none"/>
  <polygon points="348.8083,475.5 342.7461,486 354.8705,486" fill="#333" stroke="none"/>
  <polygon points="330.6218,486 324.5596,496.5 336.684,496.5" fill="#333" stroke="none"/>
  <polygon points="324.5596,496.5 318.4974,507 330.6218,507" fill="#333" stroke="none"/>
  <polygon points="336.684,496.5 330.6218,507 342.7461,507" fill="#333" stroke="none"/>
  <polygon points="354.8705,486 348.8083,496.5 360.9327,496.5" fill="#333" stroke="none"/>
  <polygon points="348.8083,496.5 342.7461,507 354.8705,507" fill="#333" stroke="none"/>
  <polygon points="360.9327,496.5 354.8705,507 366.9948,507" fill="#333" stroke="none"/>
  <polygon points="415.4923,423 409.4301,433.5 421.5544,433.5" fill="#333" stroke="none"/>
  <polygon points="409.4301,433.5 403.3679,444 415.4923,444" fill="#333" stroke="none"/>
  <polygon points="421.5544,433.5 415.4923,444 427.6166,444" fill="#333" stroke="none"/>
  <polygon points="403.3679,444 397.3057,454.5 409.4301,454.5" fill="#333" stroke="none"/>
  <polygon points="397.3057,454.5 391.2436,465 403.3679,465" fill="#333" stroke="none"/>
  <polygon points="409.4301,454.5 403.3679,465 415.4923,465" fill="#333" stroke="none"/>
  <polygon points="427.6166,444 421.5544,454.5 433.6788,454.5" fill="#333" stroke="none"/>
  <polygon points="421.5544,454.5 415.4923,465 427.6166,465" fill="#333" stroke="none"/>
  <polygon points="433.6788,454.5 427.6166,465 439.741,465" fill="#333" stroke="none"/>
  <polygon points="391.2436,465 385.1814,475.5 397.3057,475.5" fill="#333" stroke="none"/>
  <polygon points="385.1814,475.5 379.1192,486 391.2436,486" fill="#333" stroke="none"/>
  <polygon points="397.3057,475.5 391.2436,486 403.3679,486" fill="#333" stroke="none"/>
  <polygon points="379.1192,486 373.057,496.5 385.1814,496.5" fill="#333" stroke="none"/>
  <polygon points="373.057,496.5 366.9948,507 379.1192,507" fill="#333" stroke="none"/>
  <polygon points="385.1814,496.5 379.1192,507 391.2436,507" fill="#333" stroke="none"/>
  <polygon points="403.3679,486 397.3057,496.5 409.4301,496.5" fill="#333" stroke="none"/>
  <polygon points="397.3057,496.5 391.2436,507 403.3679,507" fill="#333" stroke="none"/>
  <polygon points="409.4301,496.5 403.3679,507 415.4923,507" fill="#333" stroke="none"/>
  <polygon points="439.741,465 433.6788,475.5 445.8032,475.5" fill="#333" stroke="none"/>
  <polygon points="433.6788,475.5 427.6166,486 439.741,486" fill="#333" stroke="none"/>
  <polygon points="445.8032,475.5 439.741,486 451.8653,486" fill="#333" stroke="none"/>
  <polygon points="427.6166,486 421.5544,496.5 433.6788,496.5" fill="#333" stroke="none"/>
  <polygon points="421.5544,496.5 415.4923,507 427.6166,507" fill="#333" stroke="none"/>
  <polygon points="433.6788,496.5 427.6166,507 439.741,507" fill="#333" stroke="none"/>
  <polygon points="451.8653,486 445.8032,496.5 457.9275,496.5" fill="#333" stroke="none"/>
  <polygon points="445.8032,496.5 439.741,507 451.8653,507" fill="#333" stroke="none"/>
  <polygon points="457.9275,496.5 451.8653,507 463.9897,507" fill="#333" stroke="none"/>
</g>
  <g opacity="0.59">
  <g transform="rotate(67.0,400,400)">
  <g>
  <polygon points="323,392 503.1333,704 142.8667,704" fill="none" stroke="#333" stroke-width="1.5"/>
  <polygon points="323,444 458.1,678 187.9,678" fill="none" stroke="#333" stroke-width="1.5"/>
  <polygon points="323,496 413.0666,652 232.9334,652" fill="none" stroke="#333" stroke-width="1.5"/>
  <polygon points="323,537.6 377.04,631.2 268.96,631.2" fill="none" stroke="#333" stroke-width="1.5"/>
  <polygon points="323,797.6 151.8734,501.2 494.1266,501.2" fill="none" stroke="#333" stroke-width="1.5"/>
  <polygon points="323,745.6 196.9067,527.2 449.0933,527.2" fill="none" stroke="#333" stroke-width="1.5"/>
  <polygon points="323,699.84 236.536,550.08 409.464,550.08" fill="none" stroke="#333" stroke-width="1.5"/>
  <polygon points="323,658.24 272.5627,570.88 373.4373,570.88" fill="none" stroke="#333" stroke-width="1.5"/>
  <polygon points="323,631.2 295.98,584.4 350.02,584.4" fill="none" stroke="#333" stroke-width="1.5"/>
</g>
</g>
</g>
</svg>