<svg xmlns="http://www.w3.org/2000/svg" width="800" height="800" viewBox="0 0 800 800">
  <g opacity="0.60">
  <g>
  <circle cx="379.5" cy="394" r="145" fill="none" stroke="#333" stroke-width="1.5"/>
  <circle cx="524.5" cy="394" r="145" fill="none" stroke="#333" stroke-width="1.5"/>
</g>
</g>
  <g transform="rotate(170.7,400,400)">
  <g>
  <line x1="310" y1="469" x2="397" y2="469" stroke="#999" stroke-width="0.5"/>
  <line x1="310" y1="469" x2="353.5" y2="544.3442" stroke="#999" stroke-width="0.5"/>
  <line x1="310" y1="469" x2="266.5" y2="544.3442" stroke="#999" stroke-width="0.5"/>
  <line x1="310" y1="469" x2="223" y2="469" stroke="#999" stroke-width="0.5"/>
  <line x1="310" y1="469" x2="266.5" y2="393.6558" stroke="#999" stroke-width="0.5"/>
  <line x1="310" y1="469" x2="353.5" y2="393.6558" stroke="#999" stroke-width="0.5"/>
  <line x1="310" y1="469" x2="460.6884" y2="556" stroke="#999" stroke-width="0.5"/>
  <line x1="310" y1="469" x2="310" y2="643" stroke="#999" stroke-width="0.5"/>
  <line x1="310" y1="469" x2="159.3116" y2="556" stroke="#999" stroke-width="0.5"/>
  <line x1="310" y1="469" x2="159.3116" y2="382" stroke="#999" stroke-width="0.5"/>
  <line x1="310" y1="469" x2="310" y2="295" stroke="#999" stroke-width="0.5"/>
  <line x1="310" y1="469" x2="460.6884" y2="382" stroke="#999" stroke-width="0.5"/>
  <line x1="397" y1="469" x2="353.5" y2="544.3442" stroke="#999" stroke-width="0.5"/>
  <line x1="397" y1="469" x2="266.5" y2="544.3442" stroke="#999" stroke-width="0.5"/>
  <line x1="397" y1="469" x2="223" y2="469" stroke="#999" stroke-width="0.5"/>
  <line x1="397" y1="469" x2="266.5" y2="393.6558" stroke="#999" stroke-width="0.5"/>
  <line x1="397" y1="469" x2="353.5" y2="393.6558" stroke="#999" stroke-width="0.5"/>
  <line x1="397" y1="469" x2="460.6884" y2="556" stroke="#999" stroke-width="0.5"/>
  <line x1="397" y1="469" x2="310" y2="643" stroke="#999" stroke-width="0.5"/>
  <line x1="397" y1="469" x2="159.3116" y2="556" stroke="#999" stroke-width="0.5"/>
  <line x1="397" y1="469" x2="159.3116" y2="382" stroke="#999" stroke-width="0.5"/>
  <line x1="397" y1="469" x2="310" y2="295" stroke="#999" stroke-width="0.5"/>
  <line x1="397" y1="469" x2="460.6884" y2="382" stroke="#999" stroke-width="0.5"/>
  <line x1="353.5" y1="544.3442" x2="266.5" y2="544.3442" stroke="#999" stroke-width="0.5"/>
  <line x1="353.5" y1="544.3442" x2="223" y2="469" stroke="#999" stroke-width="0.5"/>
  <line x1="353.5" y1="544.3442" x2="266.5" y2="393.6558" stroke="#999" stroke-width="0.5"/>
  <line x1="353.5" y1="544.3442" x2="353.5" y2="393.6558" stroke="#999" stroke-width="0.5"/>
  <line x1="353.5" y1="544.3442" x2="460.6884" y2="556" stroke="#999" stroke-width="0.5"/>
  <line x1="353.5" y1="544.3442" x2="310" y2="643" stroke="#999" stroke-width="0.5"/>
  <line x1="353.5" y1="544.3442" x2="159.3116" y2="556" stroke="#999" stroke-width="0.5"/>
  <line x1="353.5" y1="544.3442" x2="159.3116" y2="382" stroke="#999" stroke-width="0.5"/>
  <line x1="353.5" y1="544.3442" x2="310" y2="295" stroke="#999" stroke-width="0.5"/>
  <line x1="353.5" y1="544.3442" x2="460.6884" y2="382" stroke="#999" stroke-width="0.5"/>
  <line x1="266.5" y1="544.3442" x2="223" y2="469" stroke="#999" stroke-width="0.5"/>
  <line x1="266.5" y1="544.3442" x2="266.5" y2="393.6558" stroke="#999" stroke-width="0.5"/>
  <line x1="266.5" y1="544.3442" x2="353.5" y2="393.6558" stroke="#999" stroke-width="0.5"/>
  <line x1="266.5" y1="544.3442" x2="460.6884" y2="556" stroke="#999" stroke-width="0.5"/>
  <line x1="266.5" y1="544.3442" x2="310" y2="643" stroke="#999" stroke-width="0.5"/>
  <line x1="266.5" y1="544.3442" x2="159.3116" y2="556" stroke="#999" stroke-width="0.5"/>
  <line x1="266.5" y1="544.3442" x2="159.3116" y2="382" stroke="#999" stroke-width="0.5"/>
  <line x1="266.5" y1="544.3442" x2="310" y2="295" stroke="#999" stroke-width="0.5"/>
  <line x1="266.5" y1="544.3442" x2="460.6884" y2="382" stroke="#999" stroke-width="0.5"/>
  <line x1="223" y1="469" x2="266.5" y2="393.6558" stroke="#999" stroke-width="0.5"/>
  <line x1="223" y1="469" x2="353.5" y2="393.6558" stroke="#999" stroke-width="0.5"/>
  <line x1="223" y1="469" x2="460.6884" y2="556" stroke="#999" stroke-width="0.5"/>
  <line x1="223" y1="469" x2="310" y2="643" stroke="#999" stroke-width="0.5"/>
  <line x1="223" y1="469" x2="159.3116" y2="556" stroke="#999" stroke-width="0.5"/>
  <line x1="223" y1="469" x2="159.3116" y2="382" stroke="#999" stroke-width="0.5"/>
  <line x1="223" y1="469" x2="310" y2="295" stroke="#999" stroke-width="0.5"/>
  <line x1="223" y1="469" x2="460.6884" y2="382" stroke="#999" stroke-width="0.5"/>
  <line x1="266.5" y1="393.6558" x2="353.5" y2="393.6558" stroke="#999" stroke-width="0.5"/>
  <line x1="266.5" y1="393.6558" x2="460.6884" y2="556" stroke="#999" stroke-width="0.5"/>
  <line x1="266.5" y1="393.6558" x2="310" y2="643" stroke="#999" stroke-width="0.5"/>
  <line x1="266.5" y1="393.6558" x2="159.3116" y2="556" stroke="#999" stroke-width="0.5"/>
  <line x1="266.5" y1="393.6558" x2="159.3116" y2="382" stroke="#999" stroke-width="0.5"/>
  <line x1="266.5" y1="393.6558" x2="310" y2="295" stroke="#999" stroke-width="0.5"/>
  <line x1="266.5" y1="393.6558" x2="460.6884" y2="382" stroke="#999" stroke-width="0.5"/>
  <line x1="353.5" y1="393.6558" x2="460.6884" y2="556" stroke="#999" stroke-width="0.5"/>
  <line x1="353.5" y1="393.6558" x2="310" y2="643" stroke="#999" stroke-width="0.5"/>
  <line x1="353.5" y1="393.6558" x2="159.3116" y2="556" stroke="#999" stroke-width="0.5"/>
  <line x1="353.5" y1="393.6558" x2="159.3116" y2="382" stroke="#999" stroke-width="0.5"/>
  <line x1="353.5" y1="393.6558" x2="310" y2="295" stroke="#999" stroke-width="0.5"/>
  <line x1="353.5" y1="393.6558" x2="460.6884" y2="382" stroke="#999" stroke-width="0.5"/>
  <line x1="460.6884" y1="556" x2="310" y2="643" stroke="#999" stroke-width="0.5"/>
  <line x1="460.6884" y1="556" x2="159.3116" y2="556" stroke="#999" stroke-width="0.5"/>
  <line x1="460.6884" y1="556" x2="159.3116" y2="382" stroke="#999" stroke-width="0.5"/>
  <line x1="460.6884" y1="556" x2="310" y2="295" stroke="#999" stroke-width="0.5"/>
  <line x1="460.6884" y1="556" x2="460.6884" y2="382" stroke="#999" stroke-width="0.5"/>
  <line x1="310" y1="643" x2="159.3116" y2="556" stroke="#999" stroke-width="0.5"/>
  <line x1="310" y1="643" x2="159.3116" y2="382" stroke="#999" stroke-width="0.5"/>
  <line x1="310" y1="643" x2="310" y2="295" stroke="#999" stroke-width="0.5"/>
  <line x1="310" y1="643" x2="460.6884" y2="382" stroke="#999" stroke-width="0.5"/>
  <line x1="159.3116" y1="556" x2="159.3116" y2="382" stroke="#999" stroke-width="0.5"/>
  <line x1="159.3116" y1="556" x2="310" y2="295" stroke="#999" stroke-width="0.5"/>
  <line x1="159.3116" y1="556" x2="460.6884" y2="382" stroke="#999" stroke-width="0.5"/>
  <line x1="159.3116" y1="382" x2="310" y2="295" stroke="#999" stroke-width="0.5"/>
  <line x1="159.3116" y1="382" x2="460.6884" y2="382" stroke="#999" stroke-width="0.5"/>
  <line x1="310" y1="295" x2="460.6884" y2="382" stroke="#999" stroke-width="0.5"/>
  <circle cx="310" cy="469" r="13.05" fill="none" stroke="#333" stroke-width="1"/>
  <circle cx="397" cy="469" r="13.05" fill="none" stroke="#333" stroke-width="1"/>
  <circle cx="353.5" cy="544.3442" r="13.05" fill="none" stroke="#333" stroke-width="1"/>
  <circle cx="266.5" cy="544.3442" r="13.05" fill="none" stroke="#333" stroke-width="1"/>
  <circle cx="223" cy="469" r="13.05" fill="none" stroke="#333" stroke-width="1"/>
  <circle cx="266.5" cy="393.6558" r="13.05" fill="none" stroke="#333" stroke-width="1"/>
  <circle cx="353.5" cy="393.6558" r="13.05" fill="none" stroke="#333" stroke-width="1"/>
  <circle cx="460.6884" cy="556" r="13.05" fill="none" stroke="#333" stroke-width="1"/>
  <circle cx="310" cy="643" r="13.05" fill="none" stroke="#333" stroke-width="1"/>
  <circle cx="159.3116" cy="556" r="13.05" fill="none" stroke="#333" stroke-width="1"/>
  <circle cx="159.3116" cy="382" r="13.05" fill="none" stroke="#333" stroke-width="1"/>
  <circle cx="310" cy="295" r="13.05" fill="none" stroke="#333" stroke-width="1"/>
  <circle cx="460.6884" cy="382" r="13.05" fill="none" stroke="#333" stroke-width="1"/>
</g>
</g>
  <g>
  <polygon points="432.4628,929.7624 676.9075,756.7472 640.2959,663.137 373.224,778.2979 244.776,943.0814" stroke="#333" stroke-width="1.2" fill="#8B4513" fill-opacity="0.3"/>
  <polygon points="432.4628,929.7624 676.9075,756.7472 676.9075,506.4146 432.4628,524.7156 281.3877,786.359" stroke="#333" stroke-width="1.2" fill="#DC143C" fill-opacity="0.3"/>
  <polygon points="432.4628,929.7624 244.776,943.0814 -22.2959,807.9097 0.3314,711.0499 281.3877,786.359" stroke="#333" stroke-width="1.2" fill="#4169E1" fill-opacity="0.3"/>
  <polygon points="432.4628,524.7156 281.3877,786.359 0.3314,711.0499 -22.2959,402.863 244.776,287.7021" stroke="#333" stroke-width="1.2" fill="#228B22" fill-opacity="0.3"/>
  <polygon points="432.4628,524.7156 676.9075,506.4146 640.2959,258.0903 373.224,122.9186 244.776,287.7021" stroke="#333" stroke-width="1.2" fill="#8B4513" fill-opacity="0.3"/>
  <polygon points="-22.2959,807.9097 244.776,943.0814 373.224,778.2979 185.5372,541.2844 -58.9075,559.5854" stroke="#333" stroke-width="1.2" fill="#DC143C" fill-opacity="0.3"/>
  <polygon points="-22.2959,807.9097 0.3314,711.0499 -22.2959,402.863 -58.9075,309.2528 -58.9075,559.5854" stroke="#333" stroke-width="1.2" fill="#4169E1" fill-opacity="0.3"/>
  <polygon points="-22.2959,402.863 244.776,287.7021 373.224,122.9186 185.5372,136.2376 -58.9075,309.2528" stroke="#333" stroke-width="1.2" fill="#228B22" fill-opacity="0.3"/>
  <polygon points="640.2959,663.137 676.9075,756.7472 676.9075,506.4146 640.2959,258.0903 617.6686,354.9501" stroke="#333" stroke-width="1.2" fill="#8B4513" fill-opacity="0.3"/>
  <polygon points="640.2959,663.137 373.224,778.2979 185.5372,541.2844 336.6123,279.641 617.6686,354.9501" stroke="#333" stroke-width="1.2" fill="#DC143C" fill-opacity="0.3"/>
  <polygon points="640.2959,258.0903 617.6686,354.9501 336.6123,279.641 185.5372,136.2376 373.224,122.9186" stroke="#333" stroke-width="1.2" fill="#4169E1" fill-opacity="0.3"/>
  <polygon points="185.5372,541.2844 -58.9075,559.5854 -58.9075,309.2528 185.5372,136.2376 336.6123,279.641" stroke="#333" stroke-width="1.2" fill="#228B22" fill-opacity="0.3"/>
  <line x1="432.4628" y1="929.7624" x2="676.9075" y2="756.7472" stroke="#333" stroke-width="1.2" fill="none"/>
  <line x1="432.4628" y1="929.7624" x2="244.776" y2="943.0814" stroke="#333" stroke-width="1.2" fill="none"/>
  <line x1="432.4628" y1="929.7624" x2="281.3877" y2="786.359" stroke="#333" stroke-width="1.2" fill="none"/>
  <line x1="432.4628" y1="524.7156" x2="281.3877" y2="786.359" stroke="#333" stroke-width="1.2" fill="none"/>
  <line x1="432.4628" y1="524.7156" x2="676.9075" y2="506.4146" stroke="#333" stroke-width="1.2" fill="none"/>
  <line x1="432.4628" y1="524.7156" x2="244.776" y2="287.7021" stroke="#333" stroke-width="1.2" fill="none"/>
  <line x1="-22.2959" y1="807.9097" x2="244.776" y2="943.0814" stroke="#333" stroke-width="1.2" fill="none"/>
  <line x1="-22.2959" y1="807.9097" x2="0.3314" y2="711.0499" stroke="#333" stroke-width="1.2" fill="none"/>
  <line x1="-22.2959" y1="807.9097" x2="-58.9075" y2="559.5854" stroke="#333" stroke-width="1.2" fill="none"/>
  <line x1="-22.2959" y1="402.863" x2="244.776" y2="287.7021" stroke="#333" stroke-width="1.2" fill="none"/>
  <line x1="-22.2959" y1="402.863" x2="0.3314" y2="711.0499" stroke="#333" stroke-width="1.2" fill="none"/>
  <line x1="-22.2959" y1="402.863" x2="-58.9075" y2="309.2528" stroke="#333" stroke-width="1.2" fill="none"/>
  <line x1="640.2959" y1="663.137" x2="676.9075" y2="756.7472" stroke="#333" stroke-width="1.2" fill="none"/>
  <line x1="640.2959" y1="663.137" x2="373.224" y2="778.2979" stroke="#333" stroke-width="1.2" fill="none"/>
  <line x1="640.2959" y1="663.137" x2="617.6686" y2="354.9501" stroke="#333" stroke-width="1.2" fill="none"/>
  <line x1="640.2959" y1="258.0903" x2="676.9075" y2="506.4146" stroke="#333" stroke-width="1.2" fill="none"/>
  <line x1="640.2959" y1="258.0903" x2="617.6686" y2="354.9501" stroke="#333" stroke-width="1.2" fill="none"/>
  <line x1="640.2959" y1="258.0903" x2="373.224" y2="122.9186" stroke="#333" stroke-width="1.2" fill="none"/>
  <line x1="185.5372" y1="541.2844" x2="-58.9075" y2="559.5854" stroke="#333" stroke-width="1.2" fill="none"/>
  <line x1="185.5372" y1="541.2844" x2="373.224" y2="778.2979" stroke="#333" stroke-width="1.2" fill="none"/>
  <line x1="185.5372" y1="541.2844" x2="336.6123" y2="279.641" stroke="#333" stroke-width="1.2" fill="none"/>
  <line x1="185.5372" y1="136.2376" x2="-58.9075" y2="309.2528" stroke="#333" stroke-width="1.2" fill="none"/>
  <line x1="185.5372" y1="136.2376" x2="373.224" y2="122.9186" stroke="#333" stroke-width="1.2" fill="none"/>
  <line x1="185.5372" y1="136.2376" x2="336.6123" y2="279.641" stroke="#333" stroke-width="1.2" fill="none"/>
  <line x1="676.9075" y1="756.7472" x2="676.9075" y2="506.4146" stroke="#333" stroke-width="1.2" fill="none"/>
  <line x1="244.776" y1="943.0814" x2="373.224" y2="778.2979" stroke="#333" stroke-width="1.2" fill="none"/>
  <line x1="281.3877" y1="786.359" x2="0.3314" y2="711.0499" stroke="#333" stroke-width="1.2" fill="none"/>
  <line x1="244.776" y1="287.7021" x2="373.224" y2="122.9186" stroke="#333" stroke-width="1.2" fill="none"/>
  <line x1="-58.9075" y1="559.5854" x2="-58.9075" y2="309.2528" stroke="#333" stroke-width="1.2" fill="none"/>
  <line x1="617.6686" y1="354.9501" x2="336.6123" y2="279.641" stroke="#333" stroke-width="1.2" fill="none"/>
  <circle cx="432.4628" cy="929.7624" r="7.5" fill="#333" stroke="none"/>
  <circle cx="432.4628" cy="524.7156" r="7.5" fill="#333" stroke="none"/>
  <circle cx="-22.2959" cy="807.9097" r="7.5" fill="#333" stroke="none"/>
  <circle cx="-22.2959" cy="402.863" r="7.5" fill="#333" stroke="none"/>
  <circle cx="640.2959" cy="663.137" r="7.5" fill="#333" stroke="none"/>
  <circle cx="640.2959" cy="258.0903" r="7.5" fill="#333" stroke="none"/>
  <circle cx="185.5372" cy="541.2844" r="7.5" fill="#333" stroke="none"/>
  <circle cx="185.5372" cy="136.2376" r="7.5" fill="#333" stroke="none"/>
  <circle cx="676.9075" cy="756.7472" r="7.5" fill="#333" stroke="none"/>
  <circle cx="244.776" cy="943.0814" r="7.5" fill="#333" stroke="none"/>
  <circle cx="281.3877" cy="786.359" r="7.5" fill="#333" stroke="none"/>
  <circle cx="676.9075" cy="506.4146" r="7.5" fill="#333" stroke="none"/>
  <circle cx="244.776" cy="287.7021" r="7.5" fill="#333" stroke="none"/>
  <circle cx="0.3314" cy="711.0499" r="7.5" fill="#333" stroke="none"/>
  <circle cx="-58.9075" cy="559.5854" r="7.5" fill="#333" stroke="none"/>
  <circle cx="373.224" cy="778.2979" r="7.5" fill="#333" stroke="none"/>
  <circle cx="617.6686" cy="354.9501" r="7.5" fill="#333" stroke="none"/>
  <circle cx="-58.9075" cy="309.2528" r="7.5" fill="#333" stroke="none"/>
  <circle cx="373.224" cy="122.9186" r="7.5" fill="#333" stroke="none"/>
  <circle cx="336.6123" cy="279.641" r="7.5" fill="#333" stroke="none"/>
</g>
  <g opacity="0.77">
  <g>
  <circle cx="342" cy="391" r="41" fill="none" stroke="#333" stroke-width="0.8"/>
  <circle cx="383" cy="391" r="41" fill="none" stroke="#333" stroke-width="0.8"/>
  <circle cx="362.5" cy="426.507" r="41" fill="none" stroke="#333" stroke-width="0.8"/>
  <circle cx="321.5" cy="426.507" r="41" fill="none" stroke="#333" stroke-width="0.8"/>
  <circle cx="301" cy="391" r="41" fill="none" stroke="#333" stroke-width="0.8"/>
  <circle cx="321.5" cy="355.493" r="41" fill="none" stroke="#333" stroke-width="0.8"/>
  <circle cx="362.5" cy="355.493" r="41" fill="none" stroke="#333" stroke-width="0.8"/>
</g>
</g>
  <g transform="rotate(99.2,400,400)">
  <g>
  <circle cx="418" cy="418" r="20.7391" stroke="#e74c3c" stroke-width="2" fill="#e74c3c" fill-opacity="0.08"/>
  <circle cx="438.7391" cy="418" r="3" fill="#e74c3c" stroke="none"/>
  <circle cx="407.6305" cy="400.0394" r="3" fill="#e74c3c" stroke="none"/>
  <circle cx="407.6305" cy="435.9606" r="3" fill="#e74c3c" stroke="none"/>
  <text x="446.7391" y="422" font-size="10" fill="#e74c3c">3D c3 seed</text>
  <circle cx="418" cy="418" r="33.5565" stroke="#e67e22" stroke-width="2" fill="#e67e22" fill-opacity="0.08"/>
  <circle cx="451.5565" cy="418" r="3" fill="#e67e22" stroke="none"/>
  <circle cx="418" cy="384.4435" r="3" fill="#e67e22" stroke="none"/>
  <circle cx="384.4435" cy="418" r="3" fill="#e67e22" stroke="none"/>
  <circle cx="418" cy="451.5565" r="3" fill="#e67e22" stroke="none"/>
  <text x="459.5565" y="422" font-size="10" fill="#e67e22">4D E4 base</text>
  <circle cx="418" cy="418" r="54.2956" stroke="#f1c40f" stroke-width="2" fill="#f1c40f" fill-opacity="0.08"/>
  <circle cx="472.2956" cy="418" r="3" fill="#f1c40f" stroke="none"/>
  <circle cx="445.1478" cy="370.9786" r="3" fill="#f1c40f" stroke="none"/>
  <circle cx="390.8522" cy="370.9786" r="3" fill="#f1c40f" stroke="none"/>
  <circle cx="363.7044" cy="418" r="3" fill="#f1c40f" stroke="none"/>
  <circle cx="390.8522" cy="465.0214" r="3" fill="#f1c40f" stroke="none"/>
  <circle cx="445.1478" cy="465.0214" r="3" fill="#f1c40f" stroke="none"/>
  <text x="480.2956" y="422" font-size="10" fill="#f1c40f">6D W3 Mobius</text>
  <circle cx="418" cy="418" r="87.8522" stroke="#2ecc71" stroke-width="2" fill="#2ecc71" fill-opacity="0.08"/>
  <circle cx="505.8522" cy="418" r="3" fill="#2ecc71" stroke="none"/>
  <circle cx="480.1209" cy="355.8791" r="3" fill="#2ecc71" stroke="none"/>
  <circle cx="418" cy="330.1478" r="3" fill="#2ecc71" stroke="none"/>
  <circle cx="355.8791" cy="355.8791" r="3" fill="#2ecc71" stroke="none"/>
  <circle cx="330.1478" cy="418" r="3" fill="#2ecc71" stroke="none"/>
  <circle cx="355.8791" cy="480.1209" r="3" fill="#2ecc71" stroke="none"/>
  <circle cx="418" cy="505.8522" r="3" fill="#2ecc71" stroke="none"/>
  <circle cx="480.1209" cy="480.1209" r="3" fill="#2ecc71" stroke="none"/>
  <text x="513.8522" y="422" font-size="10" fill="#2ecc71">8D W5 penta</text>
  <circle cx="418" cy="418" r="142.1478" stroke="#3498db" stroke-width="2" fill="#3498db" fill-opacity="0.08"/>
  <circle cx="560.1478" cy="418" r="3" fill="#3498db" stroke="none"/>
  <circle cx="533" cy="334.4476" r="3" fill="#3498db" stroke="none"/>
  <circle cx="461.9261" cy="282.8094" r="3" fill="#3498db" stroke="none"/>
  <circle cx="374.0739" cy="282.8094" r="3" fill="#3498db" stroke="none"/>
  <circle cx="303" cy="334.4476" r="3" fill="#3498db" stroke="none"/>
  <circle cx="275.8522" cy="418" r="3" fill="#3498db" stroke="none"/>
  <circle cx="303" cy="501.5524" r="3" fill="#3498db" stroke="none"/>
  <circle cx="374.0739" cy="553.1906" r="3" fill="#3498db" stroke="none"/>
  <circle cx="461.9261" cy="553.1906" r="3" fill="#3498db" stroke="none"/>
  <circle cx="533" cy="501.5524" r="3" fill="#3498db" stroke="none"/>
  <text x="568.1478" y="422" font-size="10" fill="#3498db">10D W7 hepta</text>
  <circle cx="418" cy="418" r="230" stroke="#9b59b6" stroke-width="2" fill="#9b59b6" fill-opacity="0.08"/>
  <circle cx="648" cy="418" r="3" fill="#9b59b6" stroke="none"/>
  <circle cx="617.1858" cy="303" r="3" fill="#9b59b6" stroke="none"/>
  <circle cx="533" cy="218.8142" r="3" fill="#9b59b6" stroke="none"/>
  <circle cx="418" cy="188" r="3" fill="#9b59b6" stroke="none"/>
  <circle cx="303" cy="218.8142" r="3" fill="#9b59b6" stroke="none"/>
  <circle cx="218.8142" cy="303" r="3" fill="#9b59b6" stroke="none"/>
  <circle cx="188" cy="418" r="3" fill="#9b59b6" stroke="none"/>
  <circle cx="218.8142" cy="533" r="3" fill="#9b59b6" stroke="none"/>
  <circle cx="303" cy="617.1858" r="3" fill="#9b59b6" stroke="none"/>
  <circle cx="418" cy="648" r="3" fill="#9b59b6" stroke="none"/>
  <circle cx="533" cy="617.1858" r="3" fill="#9b59b6" stroke="none"/>
  <circle cx="617.1858" cy="533" r="3" fill="#9b59b6" stroke="none"/>
  <text x="656" y="422" font-size="10" fill="#9b59b6">12D W9 crown</text>
</g>
</g>
</svg>