<svg xmlns="http://www.w3.org/2000/svg" width="800" height="800" viewBox="0 0 800 800">
  <g opacity="0.89">
  <g>
  <circle cx="391.5" cy="546" r="197" fill="none" stroke="#333" stroke-width="1.5"/>
  <circle cx="588.5" cy="546" r="197" fill="none" stroke="#333" stroke-width="1.5"/>
</g>
</g>
  <g opacity="0.89">
  <g>
  <circle cx="394" cy="564" r="192" fill="none" stroke="#333" stroke-width="1.5"/>
  <circle cx="586" cy="564" r="192" fill="none" stroke="#333" stroke-width="1.5"/>
</g>
</g>
  <g transform="rotate(-2.4,400,400)">
  <g>
  <circle cx="332" cy="385" r="103" stroke="#9b59b6" stroke-width="2" fill="#9b59b6" fill-opacity="0.05"/>
  <circle cx="332" cy="302.6" r="8.24" fill="#9b59b6" stroke="#fff" stroke-width="1"/>
  <text x="329" y="306.6" font-size="9" fill="#fff" font-weight="bold">1</text>
  <circle cx="384.9657" cy="321.8779" r="8.24" fill="#9b59b6" stroke="#fff" stroke-width="1"/>
  <text x="381.9657" y="325.8779" font-size="9" fill="#fff" font-weight="bold">2</text>
  <circle cx="413.1482" cy="370.6914" r="8.24" fill="#9b59b6" stroke="#fff" stroke-width="1"/>
  <text x="410.1482" y="374.6914" font-size="9" fill="#fff" font-weight="bold">3</text>
  <circle cx="403.3605" cy="426.2" r="8.24" fill="#9b59b6" stroke="#fff" stroke-width="1"/>
  <text x="400.3605" y="430.2" font-size="9" fill="#fff" font-weight="bold">4</text>
  <circle cx="360.1825" cy="462.4307" r="8.24" fill="#9b59b6" stroke="#fff" stroke-width="1"/>
  <text x="357.1825" y="466.4307" font-size="9" fill="#fff" font-weight="bold">5</text>
  <circle cx="303.8175" cy="462.4307" r="8.24" fill="#9b59b6" stroke="#fff" stroke-width="1"/>
  <text x="300.8175" y="466.4307" font-size="9" fill="#fff" font-weight="bold">6</text>
  <circle cx="260.6395" cy="426.2" r="8.24" fill="#9b59b6" stroke="#fff" stroke-width="1"/>
  <text x="257.6395" y="430.2" font-size="9" fill="#fff" font-weight="bold">7</text>
  <circle cx="250.8518" cy="370.6914" r="8.24" fill="#9b59b6" stroke="#fff" stroke-width="1"/>
  <text x="247.8518" y="374.6914" font-size="9" fill="#fff" font-weight="bold">8</text>
  <circle cx="279.0343" cy="321.8779" r="8.24" fill="#9b59b6" stroke="#fff" stroke-width="1"/>
  <text x="276.0343" y="325.8779" font-size="9" fill="#fff" font-weight="bold">9</text>
  <path d="M 332,302.6 Q 361.5916,303.6978 384.9657,321.8779" stroke="#9b59b6" stroke-width="1" fill="none"/>
  <path d="M 384.9657,321.8779 Q 406.9285,341.74 413.1482,370.6914" stroke="#9b59b6" stroke-width="1" fill="none"/>
  <path d="M 413.1482,370.6914 Q 417.2056,400.024 403.3605,426.2" stroke="#9b59b6" stroke-width="1" fill="none"/>
  <path d="M 403.3605,426.2 Q 387.614,451.2782 360.1825,462.4307" stroke="#9b59b6" stroke-width="1" fill="none"/>
  <path d="M 360.1825,462.4307 Q 332,471.52 303.8175,462.4307" stroke="#9b59b6" stroke-width="1" fill="none"/>
  <path d="M 303.8175,462.4307 Q 276.386,451.2782 260.6395,426.2" stroke="#9b59b6" stroke-width="1" fill="none"/>
  <path d="M 260.6395,426.2 Q 246.7944,400.024 250.8518,370.6914" stroke="#9b59b6" stroke-width="1" fill="none"/>
  <path d="M 250.8518,370.6914 Q 257.0715,341.74 279.0343,321.8779" stroke="#9b59b6" stroke-width="1" fill="none"/>
  <path d="M 279.0343,321.8779 Q 361.5916,466.3022 332,302.6" stroke="#9b59b6" stroke-width="1" fill="none"/>
  <text x="324" y="389" font-size="14" fill="#9b59b6" font-weight="bold">W9</text>
</g>
</g>
  <g transform="rotate(-2.4,400,400)">
  <g>
  <circle cx="332" cy="385" r="103" stroke="#9b59b6" stroke-width="2" fill="#9b59b6" fill-opacity="0.05"/>
  <circle cx="332" cy="302.6" r="8.24" fill="#9b59b6" stroke="#fff" stroke-width="1"/>
  <text x="329" y="306.6" font-size="9" fill="#fff" font-weight="bold">1</text>
  <circle cx="384.9657" cy="321.8779" r="8.24" fill="#9b59b6" stroke="#fff" stroke-width="1"/>
  <text x="381.9657" y="325.8779" font-size="9" fill="#fff" font-weight="bold">2</text>
  <circle cx="413.1482" cy="370.6914" r="8.24" fill="#9b59b6" stroke="#fff" stroke-width="1"/>
  <text x="410.1482" y="374.6914" font-size="9" fill="#fff" font-weight="bold">3</text>
  <circle cx="403.3605" cy="426.2" r="8.24" fill="#9b59b6" stroke="#fff" stroke-width="1"/>
  <text x="400.3605" y="430.2" font-size="9" fill="#fff" font-weight="bold">4</text>
  <circle cx="360.1825" cy="462.4307" r="8.24" fill="#9b59b6" stroke="#fff" stroke-width="1"/>
  <text x="357.1825" y="466.4307" font-size="9" fill="#fff" font-weight="bold">5</text>
  <circle cx="303.8175" cy="462.4307" r="8.24" fill="#9b59b6" stroke="#fff" stroke-width="1"/>
  <text x="300.8175" y="466.4307" font-size="9" fill="#fff" font-weight="bold">6</text>
  <circle cx="260.6395" cy="426.2" r="8.24" fill="#9b59b6" stroke="#fff" stroke-width="1"/>
  <text x="257.6395" y="430.2" font-size="9" fill="#fff" font-weight="bold">7</text>
  <circle cx="250.8518" cy="370.6914" r="8.24" fill="#9b59b6" stroke="#fff" stroke-width="1"/>
  <text x="247.8518" y="374.6914" font-size="9" fill="#fff" font-weight="bold">8</text>
  <circle cx="279.0343" cy="321.8779" r="8.24" fill="#9b59b6" stroke="#fff" stroke-width="1"/>
  <text x="276.0343" y="325.8779" font-size="9" fill="#fff" font-weight="bold">9</text>
  <path d="M 332,302.6 Q 361.5916,303.6978 384.9657,321.8779" stroke="#9b59b6" stroke-width="1" fill="none"/>
  <path d="M 384.9657,321.8779 Q 406.9285,341.74 413.1482,370.6914" stroke="#9b59b6" stroke-width="1" fill="none"/>
  <path d="M 413.1482,370.6914 Q 417.2056,400.024 403.3605,426.2" stroke="#9b59b6" stroke-width="1" fill="none"/>
  <path d="M 403.3605,426.2 Q 387.614,451.2782 360.1825,462.4307" stroke="#9b59b6" stroke-width="1" fill="none"/>
  <path d="M 360.1825,462.4307 Q 332,471.52 303.8175,462.4307" stroke="#9b59b6" stroke-width="1" fill="none"/>
  <path d="M 303.8175,462.4307 Q 276.386,451.2782 260.6395,426.2" stroke="#9b59b6" stroke-width="1" fill="none"/>
  <path d="M 260.6395,426.2 Q 246.7944,400.024 250.8518,370.6914" stroke="#9b59b6" stroke-width="1" fill="none"/>
  <path d="M 250.8518,370.6914 Q 257.0715,341.74 279.0343,321.8779" stroke="#9b59b6" stroke-width="1" fill="none"/>
  <path d="M 279.0343,321.8779 Q 361.5916,466.3022 332,302.6" stroke="#9b59b6" stroke-width="1" fill="none"/>
  <text x="324" y="389" font-size="14" fill="#9b59b6" font-weight="bold">W9</text>
</g>
</g>
  <g opacity="0.64">
  <g transform="rotate(-71.0,400,400)">
  <g>
  <polygon points="403,379 432,379 432,408" fill="none" stroke="#333" stroke-width="1"/>
  <polygon points="403,379 432,408 411.4939,428.5061" fill="none" stroke="#333" stroke-width="1"/>
  <polygon points="403,379 411.4939,428.5061 382.9115,433.4101" fill="none" stroke="#333" stroke-width="1"/>
  <polygon points="403,379 382.9115,433.4101 355.7065,423.3658" fill="none" stroke="#333" stroke-width="1"/>
  <polygon points="403,379 355.7065,423.3658 335.8655,402.2155" fill="none" stroke="#333" stroke-width="1"/>
  <polygon points="403,379 335.8655,402.2155 326.3878,374.808" fill="none" stroke="#333" stroke-width="1"/>
  <polygon points="403,379 326.3878,374.808 327.9722,345.8513" fill="none" stroke="#333" stroke-width="1"/>
  <polygon points="403,379 327.9722,345.8513 339.6921,319.325" fill="none" stroke="#333" stroke-width="1"/>
  <polygon points="403,379 339.6921,319.325 359.5837,298.2224" fill="none" stroke="#333" stroke-width="1"/>
  <polygon points="403,379 359.5837,298.2224 385.1279,284.4929" fill="none" stroke="#333" stroke-width="1"/>
  <polygon points="403,379 385.1279,284.4929 413.6228,279.1043" fill="none" stroke="#333" stroke-width="1"/>
  <polygon points="403,379 413.6228,279.1043 442.4602,282.1708" fill="none" stroke="#333" stroke-width="1"/>
</g>
</g>
</g>
</svg>