<svg xmlns="http://www.w3.org/2000/svg" width="800" height="800" viewBox="0 0 800 800">
  <g>
  <line x1="304" y1="373" x2="444" y2="373" stroke="#999" stroke-width="0.5"/>
  <line x1="304" y1="373" x2="374" y2="494.2436" stroke="#999" stroke-width="0.5"/>
  <line x1="304" y1="373" x2="234" y2="494.2436" stroke="#999" stroke-width="0.5"/>
  <line x1="304" y1="373" x2="164" y2="373" stroke="#999" stroke-width="0.5"/>
  <line x1="304" y1="373" x2="234" y2="251.7564" stroke="#999" stroke-width="0.5"/>
  <line x1="304" y1="373" x2="374" y2="251.7564" stroke="#999" stroke-width="0.5"/>
  <line x1="304" y1="373" x2="546.4871" y2="513" stroke="#999" stroke-width="0.5"/>
  <line x1="304" y1="373" x2="304" y2="653" stroke="#999" stroke-width="0.5"/>
  <line x1="304" y1="373" x2="61.5129" y2="513" stroke="#999" stroke-width="0.5"/>
  <line x1="304" y1="373" x2="61.5129" y2="233" stroke="#999" stroke-width="0.5"/>
  <line x1="304" y1="373" x2="304" y2="93" stroke="#999" stroke-width="0.5"/>
  <line x1="304" y1="373" x2="546.4871" y2="233" stroke="#999" stroke-width="0.5"/>
  <line x1="444" y1="373" x2="374" y2="494.2436" stroke="#999" stroke-width="0.5"/>
  <line x1="444" y1="373" x2="234" y2="494.2436" stroke="#999" stroke-width="0.5"/>
  <line x1="444" y1="373" x2="164" y2="373" stroke="#999" stroke-width="0.5"/>
  <line x1="444" y1="373" x2="234" y2="251.7564" stroke="#999" stroke-width="0.5"/>
  <line x1="444" y1="373" x2="374" y2="251.7564" stroke="#999" stroke-width="0.5"/>
  <line x1="444" y1="373" x2="546.4871" y2="513" stroke="#999" stroke-width="0.5"/>
  <line x1="444" y1="373" x2="304" y2="653" stroke="#999" stroke-width="0.5"/>
  <line x1="444" y1="373" x2="61.5129" y2="513" stroke="#999" stroke-width="0.5"/>
  <line x1="444" y1="373" x2="61.5129" y2="233" stroke="#999" stroke-width="0.5"/>
  <line x1="444" y1="373" x2="304" y2="93" stroke="#999" stroke-width="0.5"/>
  <line x1="444" y1="373" x2="546.4871" y2="233" stroke="#999" stroke-width="0.5"/>
  <line x1="374" y1="494.2436" x2="234" y2="494.2436" stroke="#999" stroke-width="0.5"/>
  <line x1="374" y1="494.2436" x2="164" y2="373" stroke="#999" stroke-width="0.5"/>
  <line x1="374" y1="494.2436" x2="234" y2="251.7564" stroke="#999" stroke-width="0.5"/>
  <line x1="374" y1="494.2436" x2="374" y2="251.7564" stroke="#999" stroke-width="0.5"/>
  <line x1="374" y1="494.2436" x2="546.4871" y2="513" stroke="#999" stroke-width="0.5"/>
  <line x1="374" y1="494.2436" x2="304" y2="653" stroke="#999" stroke-width="0.5"/>
  <line x1="374" y1="494.2436" x2="61.5129" y2="513" stroke="#999" stroke-width="0.5"/>
  <line x1="374" y1="494.2436" x2="61.5129" y2="233" stroke="#999" stroke-width="0.5"/>
  <line x1="374" y1="494.2436" x2="304" y2="93" stroke="#999" stroke-width="0.5"/>
  <line x1="374" y1="494.2436" x2="546.4871" y2="233" stroke="#999" stroke-width="0.5"/>
  <line x1="234" y1="494.2436" x2="164" y2="373" stroke="#999" stroke-width="0.5"/>
  <line x1="234" y1="494.2436" x2="234" y2="251.7564" stroke="#999" stroke-width="0.5"/>
  <line x1="234" y1="494.2436" x2="374" y2="251.7564" stroke="#999" stroke-width="0.5"/>
  <line x1="234" y1="494.2436" x2="546.4871" y2="513" stroke="#999" stroke-width="0.5"/>
  <line x1="234" y1="494.2436" x2="304" y2="653" stroke="#999" stroke-width="0.5"/>
  <line x1="234" y1="494.2436" x2="61.5129" y2="513" stroke="#999" stroke-width="0.5"/>
  <line x1="234" y1="494.2436" x2="61.5129" y2="233" stroke="#999" stroke-width="0.5"/>
  <line x1="234" y1="494.2436" x2="304" y2="93" stroke="#999" stroke-width="0.5"/>
  <line x1="234" y1="494.2436" x2="546.4871" y2="233" stroke="#999" stroke-width="0.5"/>
  <line x1="164" y1="373" x2="234" y2="251.7564" stroke="#999" stroke-width="0.5"/>
  <line x1="164" y1="373" x2="374" y2="251.7564" stroke="#999" stroke-width="0.5"/>
  <line x1="164" y1="373" x2="546.4871" y2="513" stroke="#999" stroke-width="0.5"/>
  <line x1="164" y1="373" x2="304" y2="653" stroke="#999" stroke-width="0.5"/>
  <line x1="164" y1="373" x2="61.5129" y2="513" stroke="#999" stroke-width="0.5"/>
  <line x1="164" y1="373" x2="61.5129" y2="233" stroke="#999" stroke-width="0.5"/>
  <line x1="164" y1="373" x2="304" y2="93" stroke="#999" stroke-width="0.5"/>
  <line x1="164" y1="373" x2="546.4871" y2="233" stroke="#999" stroke-width="0.5"/>
  <line x1="234" y1="251.7564" x2="374" y2="251.7564" stroke="#999" stroke-width="0.5"/>
  <line x1="234" y1="251.7564" x2="546.4871" y2="513" stroke="#999" stroke-width="0.5"/>
  <line x1="234" y1="251.7564" x2="304" y2="653" stroke="#999" stroke-width="0.5"/>
  <line x1="234" y1="251.7564" x2="61.5129" y2="513" stroke="#999" stroke-width="0.5"/>
  <line x1="234" y1="251.7564" x2="61.5129" y2="233" stroke="#999" stroke-width="0.5"/>
  <line x1="234" y1="251.7564" x2="304" y2="93" stroke="#999" stroke-width="0.5"/>
  <line x1="234" y1="251.7564" x2="546.4871" y2="233" stroke="#999" stroke-width="0.5"/>
  <line x1="374" y1="251.7564" x2="546.4871" y2="513" stroke="#999" stroke-width="0.5"/>
  <line x1="374" y1="251.7564" x2="304" y2="653" stroke="#999" stroke-width="0.5"/>
  <line x1="374" y1="251.7564" x2="61.5129" y2="513" stroke="#999" stroke-width="0.5"/>
  <line x1="374" y1="251.7564" x2="61.5129" y2="233" stroke="#999" stroke-width="0.5"/>
  <line x1="374" y1="251.7564" x2="304" y2="93" stroke="#999" stroke-width="0.5"/>
  <line x1="374" y1="251.7564" x2="546.4871" y2="233" stroke="#999" stroke-width="0.5"/>
  <line x1="546.4871" y1="513" x2="304" y2="653" stroke="#999" stroke-width="0.5"/>
  <line x1="546.4871" y1="513" x2="61.5129" y2="513" stroke="#999" stroke-width="0.5"/>
  <line x1="546.4871" y1="513" x2="61.5129" y2="233" stroke="#999" stroke-width="0.5"/>
  <line x1="546.4871" y1="513" x2="304" y2="93" stroke="#999" stroke-width="0.5"/>
  <line x1="546.4871" y1="513" x2="546.4871" y2="233" stroke="#999" stroke-width="0.5"/>
  <line x1="304" y1="653" x2="61.5129" y2="513" stroke="#999" stroke-width="0.5"/>
  <line x1="304" y1="653" x2="61.5129" y2="233" stroke="#999" stroke-width="0.5"/>
  <line x1="304" y1="653" x2="304" y2="93" stroke="#999" stroke-width="0.5"/>
  <line x1="304" y1="653" x2="546.4871" y2="233" stroke="#999" stroke-width="0.5"/>
  <line x1="61.5129" y1="513" x2="61.5129" y2="233" stroke="#999" stroke-width="0.5"/>
  <line x1="61.5129" y1="513" x2="304" y2="93" stroke="#999" stroke-width="0.5"/>
  <line x1="61.5129" y1="513" x2="546.4871" y2="233" stroke="#999" stroke-width="0.5"/>
  <line x1="61.5129" y1="233" x2="304" y2="93" stroke="#999" stroke-width="0.5"/>
  <line x1="61.5129" y1="233" x2="546.4871" y2="233" stroke="#999" stroke-width="0.5"/>
  <line x1="304" y1="93" x2="546.4871" y2="233" stroke="#999" stroke-width="0.5"/>
  <circle cx="304" cy="373" r="21" fill="none" stroke="#333" stroke-width="1"/>
  <circle cx="444" cy="373" r="21" fill="none" stroke="#333" stroke-width="1"/>
  <circle cx="374" cy="494.2436" r="21" fill="none" stroke="#333" stroke-width="1"/>
  <circle cx="234" cy="494.2436" r="21" fill="none" stroke="#333" stroke-width="1"/>
  <circle cx="164" cy="373" r="21" fill="none" stroke="#333" stroke-width="1"/>
  <circle cx="234" cy="251.7564" r="21" fill="none" stroke="#333" stroke-width="1"/>
  <circle cx="374" cy="251.7564" r="21" fill="none" stroke="#333" stroke-width="1"/>
  <circle cx="546.4871" cy="513" r="21" fill="none" stroke="#333" stroke-width="1"/>
  <circle cx="304" cy="653" r="21" fill="none" stroke="#333" stroke-width="1"/>
  <circle cx="61.5129" cy="513" r="21" fill="none" stroke="#333" stroke-width="1"/>
  <circle cx="61.5129" cy="233" r="21" fill="none" stroke="#333" stroke-width="1"/>
  <circle cx="304" cy="93" r="21" fill="none" stroke="#333" stroke-width="1"/>
  <circle cx="546.4871" cy="233" r="21" fill="none" stroke="#333" stroke-width="1"/>
</g>
  <g>
  <line x1="600" y1="489.008" x2="797.988" y2="390" stroke="#333" stroke-width="1.5" fill="none"/>
  <line x1="600" y1="489.008" x2="600" y2="769.008" stroke="#333" stroke-width="1.5" fill="none"/>
  <line x1="600" y1="489.008" x2="402.012" y2="390" stroke="#333" stroke-width="1.5" fill="none"/>
  <line x1="797.988" y1="390" x2="797.988" y2="670" stroke="#333" stroke-width="1.5" fill="none"/>
  <line x1="797.988" y1="390" x2="600" y2="290.992" stroke="#333" stroke-width="1.5" fill="none"/>
  <line x1="600" y1="769.008" x2="797.988" y2="670" stroke="#333" stroke-width="1.5" fill="none"/>
  <line x1="600" y1="769.008" x2="402.012" y2="670" stroke="#333" stroke-width="1.5" fill="none"/>
  <line x1="797.988" y1="670" x2="600" y2="570.992" stroke="#333" stroke-width="1.5" fill="none"/>
  <line x1="402.012" y1="390" x2="600" y2="290.992" stroke="#333" stroke-width="1.5" fill="none"/>
  <line x1="402.012" y1="390" x2="402.012" y2="670" stroke="#333" stroke-width="1.5" fill="none"/>
  <line x1="600" y1="290.992" x2="600" y2="570.992" stroke="#333" stroke-width="1.5" fill="none"/>
  <line x1="402.012" y1="670" x2="600" y2="570.992" stroke="#333" stroke-width="1.5" fill="none"/>
  <line x1="600" y1="504.6656" x2="722.3633" y2="443.4752" stroke="#333" stroke-width="1.5" fill="none"/>
  <line x1="600" y1="504.6656" x2="600" y2="677.7151" stroke="#333" stroke-width="1.5" fill="none"/>
  <line x1="600" y1="504.6656" x2="477.6367" y2="443.4752" stroke="#333" stroke-width="1.5" fill="none"/>
  <line x1="722.3633" y1="443.4752" x2="722.3633" y2="616.5248" stroke="#333" stroke-width="1.5" fill="none"/>
  <line x1="722.3633" y1="443.4752" x2="600" y2="382.2849" stroke="#333" stroke-width="1.5" fill="none"/>
  <line x1="600" y1="677.7151" x2="722.3633" y2="616.5248" stroke="#333" stroke-width="1.5" fill="none"/>
  <line x1="600" y1="677.7151" x2="477.6367" y2="616.5248" stroke="#333" stroke-width="1.5" fill="none"/>
  <line x1="722.3633" y1="616.5248" x2="600" y2="555.3344" stroke="#333" stroke-width="1.5" fill="none"/>
  <line x1="477.6367" y1="443.4752" x2="600" y2="382.2849" stroke="#333" stroke-width="1.5" fill="none"/>
  <line x1="477.6367" y1="443.4752" x2="477.6367" y2="616.5248" stroke="#333" stroke-width="1.5" fill="none"/>
  <line x1="600" y1="382.2849" x2="600" y2="555.3344" stroke="#333" stroke-width="1.5" fill="none"/>
  <line x1="477.6367" y1="616.5248" x2="600" y2="555.3344" stroke="#333" stroke-width="1.5" fill="none"/>
  <line x1="600" y1="489.008" x2="600" y2="504.6656" stroke="#999" stroke-width="1" fill="none"/>
  <line x1="797.988" y1="390" x2="722.3633" y2="443.4752" stroke="#999" stroke-width="1" fill="none"/>
  <line x1="600" y1="769.008" x2="600" y2="677.7151" stroke="#999" stroke-width="1" fill="none"/>
  <line x1="797.988" y1="670" x2="722.3633" y2="616.5248" stroke="#999" stroke-width="1" fill="none"/>
  <line x1="402.012" y1="390" x2="477.6367" y2="443.4752" stroke="#999" stroke-width="1" fill="none"/>
  <line x1="600" y1="290.992" x2="600" y2="382.2849" stroke="#999" stroke-width="1" fill="none"/>
  <line x1="402.012" y1="670" x2="477.6367" y2="616.5248" stroke="#999" stroke-width="1" fill="none"/>
  <line x1="600" y1="570.992" x2="600" y2="555.3344" stroke="#999" stroke-width="1" fill="none"/>
</g>
  <g opacity="0.30">
  <g transform="rotate(-11.0,400,400)">
  <g>
  <circle cx="542" cy="509" r="260" fill="none" stroke="#333" stroke-width="1"/>
  <circle cx="542" cy="509" r="160.6888" fill="none" stroke="#333" stroke-width="1"/>
  <circle cx="542" cy="509" r="99.3112" fill="none" stroke="#333" stroke-width="1"/>
  <circle cx="542" cy="509" r="61.3777" fill="none" stroke="#333" stroke-width="1"/>
  <circle cx="542" cy="509" r="37.9335" fill="none" stroke="#333" stroke-width="1"/>
</g>
</g>
</g>
  <polygon points="440,58 447.8584,71.6111 440,85.2222 455.7168,85.2222 463.5751,98.8333 455.7168,112.4444 440,112.4444 447.8584,126.0556 440,139.6667 455.7168,139.6667 463.5751,153.2778 471.4335,139.6667 487.1503,139.6667 495.0087,153.2778 487.1503,166.8889 502.867,166.8889 510.7254,180.5 502.867,194.1111 487.1503,194.1111 495.0087,207.7222 487.1503,221.3333 471.4335,221.3333 463.5751,207.7222 455.7168,221.3333 440,221.3333 447.8584,234.9444 440,248.5556 455.7168,248.5556 463.5751,262.1667 455.7168,275.7778 440,275.7778 447.8584,289.3889 440,303 455.7168,303 463.5751,316.6111 471.4335,303 487.1503,303 495.0087,316.6111 487.1503,330.2222 502.867,330.2222 510.7254,343.8333 518.5838,330.2222 534.3005,330.2222 526.4422,316.6111 534.3005,303 550.0173,303 557.8757,316.6111 565.7341,303 581.4508,303 589.3092,316.6111 581.4508,330.2222 597.1676,330.2222 605.026,343.8333 597.1676,357.4444 581.4508,357.4444 589.3092,371.0556 581.4508,384.6667 597.1676,384.6667 605.026,398.2778 612.8843,384.6667 628.6011,384.6667 636.4595,398.2778 628.6011,411.8889 644.3178,411.8889 652.1762,425.5 636.4595,425.5 628.6011,411.8889 620.7427,425.5 605.026,425.5 597.1676,411.8889 605.026,398.2778 589.3092,398.2778 581.4508,384.6667 573.5924,398.2778 557.8757,398.2778 565.7341,411.8889 557.8757,425.5 542.1589,425.5 534.3005,411.8889 526.4422,425.5 510.7254,425.5 502.867,411.8889 510.7254,398.2778 495.0087,398.2778 487.1503,384.6667 495.0087,371.0556 510.7254,371.0556 502.867,357.4444 510.7254,343.8333 495.0087,343.8333 487.1503,330.2222 479.2919,343.8333 463.5751,343.8333 455.7168,330.2222 463.5751,316.6111 447.8584,316.6111 440,303 432.1416,316.6111 416.4249,316.6111 424.2832,330.2222 416.4249,343.8333 400.7081,343.8333 392.8497,330.2222 384.9913,343.8333 369.2746,343.8333 377.133,357.4444 369.2746,371.0556 384.9913,371.0556 392.8497,384.6667 384.9913,398.2778 369.2746,398.2778 377.133,411.8889 369.2746,425.5 353.5578,425.5 345.6995,411.8889 337.8411,425.5 322.1243,425.5 314.2659,411.8889 322.1243,398.2778 306.4076,398.2778 298.5492,384.6667 290.6908,398.2778 274.974,398.2778 282.8324,411.8889 274.974,425.5 259.2573,425.5 251.3989,411.8889 243.5405,425.5 227.8238,425.5 235.6822,411.8889 251.3989,411.8889 243.5405,398.2778 251.3989,384.6667 267.1157,384.6667 274.974,398.2778 282.8324,384.6667 298.5492,384.6667 290.6908,371.0556 298.5492,357.4444 282.8324,357.4444 274.974,343.8333 282.8324,330.2222 298.5492,330.2222 290.6908,316.6111 298.5492,303 314.2659,303 322.1243,316.6111 329.9827,303 345.6995,303 353.5578,316.6111 345.6995,330.2222 361.4162,330.2222 369.2746,343.8333 377.133,330.2222 392.8497,330.2222 384.9913,316.6111 392.8497,303 408.5665,303 416.4249,316.6111 424.2832,303 440,303 432.1416,289.3889 440,275.7778 424.2832,275.7778 416.4249,262.1667 424.2832,248.5556 440,248.5556 432.1416,234.9444 440,221.3333 424.2832,221.3333 416.4249,207.7222 408.5665,221.3333 392.8497,221.3333 384.9913,207.7222 392.8497,194.1111 377.133,194.1111 369.2746,180.5 377.133,166.8889 392.8497,166.8889 384.9913,153.2778 392.8497,139.6667 408.5665,139.6667 416.4249,153.2778 424.2832,139.6667 440,139.6667 432.1416,126.0556 440,112.4444 424.2832,112.4444 416.4249,98.8333 424.2832,85.2222 440,85.2222 432.1416,71.6111" fill="none" stroke="#333" stroke-width="1"/>
</svg>