<svg xmlns="http://www.w3.org/2000/svg" width="800" height="800" viewBox="0 0 800 800">
  <g>
  <polygon points="395,63 379.5198,89.8125 410.4802,89.8125" fill="#333" stroke="none"/>
  <polygon points="379.5198,89.8125 364.0396,116.625 395,116.625" fill="#333" stroke="none"/>
  <polygon points="410.4802,89.8125 395,116.625 425.9604,116.625" fill="#333" stroke="none"/>
  <polygon points="364.0396,116.625 348.5594,143.4375 379.5198,143.4375" fill="#333" stroke="none"/>
  <polygon points="348.5594,143.4375 333.0792,170.25 364.0396,170.25" fill="#333" stroke="none"/>
  <polygon points="379.5198,143.4375 364.0396,170.25 395,170.25" fill="#333" stroke="none"/>
  <polygon points="425.9604,116.625 410.4802,143.4375 441.4406,143.4375" fill="#333" stroke="none"/>
  <polygon points="410.4802,143.4375 395,170.25 425.9604,170.25" fill="#333" stroke="none"/>
  <polygon points="441.4406,143.4375 425.9604,170.25 456.9208,170.25" fill="#333" stroke="none"/>
  <polygon points="333.0792,170.25 317.599,197.0625 348.5594,197.0625" fill="#333" stroke="none"/>
  <polygon points="317.599,197.0625 302.1188,223.875 333.0792,223.875" fill="#333" stroke="none"/>
  <polygon points="348.5594,197.0625 333.0792,223.875 364.0396,223.875" fill="#333" stroke="none"/>
  <polygon points="302.1188,223.875 286.6386,250.6875 317.599,250.6875" fill="#333" stroke="none"/>
  <polygon points="286.6386,250.6875 271.1584,277.5 302.1188,277.5" fill="#333" stroke="none"/>
  <polygon points="317.599,250.6875 302.1188,277.5 333.0792,277.5" fill="#333" stroke="none"/>
  <polygon points="364.0396,223.875 348.5594,250.6875 379.5198,250.6875" fill="#333" stroke="none"/>
  <polygon points="348.5594,250.6875 333.0792,277.5 364.0396,277.5" fill="#333" stroke="none"/>
  <polygon points="379.5198,250.6875 364.0396,277.5 395,277.5" fill="#333" stroke="none"/>
  <polygon points="456.9208,170.25 441.4406,197.0625 472.401,197.0625" fill="#333" stroke="none"/>
  <polygon points="441.4406,197.0625 425.9604,223.875 456.9208,223.875" fill="#333" stroke="none"/>
  <polygon points="472.401,197.0625 456.9208,223.875 487.8812,223.875" fill="#333" stroke="none"/>
  <polygon points="425.9604,223.875 410.4802,250.6875 441.4406,250.6875" fill="#333" stroke="none"/>
  <polygon points="410.4802,250.6875 395,277.5 425.9604,277.5" fill="#333" stroke="none"/>
  <polygon points="441.4406,250.6875 425.9604,277.5 456.9208,277.5" fill="#333" stroke="none"/>
  <polygon points="487.8812,223.875 472.401,250.6875 503.3614,250.6875" fill="#333" stroke="none"/>
  <polygon points="472.401,250.6875 456.9208,277.5 487.8812,277.5" fill="#333" stroke="none"/>
  <polygon points="503.3614,250.6875 487.8812,277.5 518.8416,277.5" fill="#333" stroke="none"/>
</g>
  <g transform="rotate(-75.7,400,400)">
  <g>
  <circle cx="245" cy="436" r="215" fill="none" stroke="#333" stroke-width="1"/>
  <circle cx="245" cy="436" r="132.8773" fill="none" stroke="#333" stroke-width="1"/>
  <circle cx="245" cy="436" r="82.1227" fill="none" stroke="#333" stroke-width="1"/>
</g>
</g>
</svg>