<svg xmlns="http://www.w3.org/2000/svg" width="800" height="800" viewBox="0 0 800 800">
  <polygon points="479,364 481.4591,368.2593 479,372.5185 483.9182,372.5185 486.3773,376.7778 483.9182,381.037 479,381.037 481.4591,385.2963 479,389.5556 483.9182,389.5556 486.3773,393.8148 488.8363,389.5556 493.7545,389.5556 496.2136,393.8148 493.7545,398.0741 498.6727,398.0741 501.1318,402.3333 498.6727,406.5926 493.7545,406.5926 496.2136,410.8519 493.7545,415.1111 488.8363,415.1111 486.3773,410.8519 483.9182,415.1111 479,415.1111 481.4591,419.3704 479,423.6296 483.9182,423.6296 486.3773,427.8889 483.9182,432.1481 479,432.1481 481.4591,436.4074 479,440.6667 483.9182,440.6667 486.3773,444.9259 488.8363,440.6667 493.7545,440.6667 496.2136,444.9259 493.7545,449.1852 498.6727,449.1852 501.1318,453.4444 503.5908,449.1852 508.509,449.1852 506.0499,444.9259 508.509,440.6667 513.4272,440.6667 515.8863,444.9259 518.3454,440.6667 523.2635,440.6667 525.7226,444.9259 523.2635,449.1852 528.1817,449.1852 530.6408,453.4444 528.1817,457.7037 523.2635,457.7037 525.7226,461.963 523.2635,466.2222 528.1817,466.2222 530.6408,470.4815 533.0999,466.2222 538.018,466.2222 540.4771,470.4815 538.018,474.7407 542.9362,474.7407 545.3953,479 542.9362,483.2593 538.018,483.2593 540.4771,487.5185 538.018,491.7778 533.0999,491.7778 530.6408,487.5185 528.1817,491.7778 523.2635,491.7778 525.7226,496.037 523.2635,500.2963 528.1817,500.2963 530.6408,504.5556 528.1817,508.8148 523.2635,508.8148 525.7226,513.0741 523.2635,517.3333 518.3454,517.3333 515.8863,513.0741 513.4272,517.3333 508.509,517.3333 506.0499,513.0741 508.509,508.8148 503.5908,508.8148 501.1318,504.5556 498.6727,508.8148 493.7545,508.8148 496.2136,513.0741 493.7545,517.3333 488.8363,517.3333 486.3773,513.0741 483.9182,517.3333 479,517.3333 481.4591,521.5926 479,525.8519 483.9182,525.8519 486.3773,530.1111 483.9182,534.3704 479,534.3704 481.4591,538.6296 479,542.8889 483.9182,542.8889 486.3773,547.1481 488.8363,542.8889 493.7545,542.8889 496.2136,547.1481 493.7545,551.4074 498.6727,551.4074 501.1318,555.6667 498.6727,559.9259 493.7545,559.9259 496.2136,564.1852 493.7545,568.4444 488.8363,568.4444 486.3773,564.1852 483.9182,568.4444 479,568.4444 481.4591,572.7037 479,576.963 483.9182,576.963 486.3773,581.2222 483.9182,585.4815 479,585.4815 481.4591,589.7407 479,594 483.9182,594 486.3773,598.2593 488.8363,594 493.7545,594 496.2136,598.2593 493.7545,602.5185 498.6727,602.5185 501.1318,606.7778 503.5908,602.5185 508.509,602.5185 506.0499,598.2593 508.509,594 513.4272,594 515.8863,598.2593 518.3454,594 523.2635,594 525.7226,598.2593 523.2635,602.5185 528.1817,602.5185 530.6408,606.7778 528.1817,611.037 523.2635,611.037 525.7226,615.2963 523.2635,619.5556 528.1817,619.5556 530.6408,623.8148 533.0999,619.5556 538.018,619.5556 540.4771,623.8148 538.018,628.0741 542.9362,628.0741 545.3953,632.3333 547.8544,628.0741 552.7725,628.0741 550.3134,623.8148 552.7725,619.5556 557.6907,619.5556 560.1498,623.8148 562.6089,619.5556 567.527,619.5556 565.068,615.2963 567.527,611.037 562.6089,611.037 560.1498,606.7778 562.6089,602.5185 567.527,602.5185 565.068,598.2593 567.527,594 572.4452,594 574.9043,598.2593 577.3634,594 582.2815,594 584.7406,598.2593 582.2815,602.5185 587.1997,602.5185 589.6588,606.7778 592.1179,602.5185 597.0361,602.5185 594.577,598.2593 597.0361,594 601.9542,594 604.4133,598.2593 606.8724,594 611.7906,594 614.2496,598.2593 611.7906,602.5185 616.7087,602.5185 619.1678,606.7778 616.7087,611.037 611.7906,611.037 614.2496,615.2963 611.7906,619.5556 616.7087,619.5556 619.1678,623.8148 621.6269,619.5556 626.5451,619.5556 629.0042,623.8148 626.5451,628.0741 631.4632,628.0741 633.9223,632.3333 631.4632,636.5926 626.5451,636.5926 629.0042,640.8519 626.5451,645.1111 621.6269,645.1111 619.1678,640.8519 616.7087,645.1111 611.7906,645.1111 614.2496,649.3704 611.7906,653.6296 616.7087,653.6296 619.1678,657.8889 616.7087,662.1481 611.7906,662.1481 614.2496,666.4074 611.7906,670.6667 616.7087,670.6667 619.1678,674.9259 621.6269,670.6667 626.5451,670.6667 629.0042,674.9259 626.5451,679.1852 631.4632,679.1852 633.9223,683.4444 636.3814,679.1852 641.2996,679.1852 638.8405,674.9259 641.2996,670.6667 646.2177,670.6667 648.6768,674.9259 651.1359,670.6667 656.0541,670.6667 658.5132,674.9259 656.0541,679.1852 660.9723,679.1852 663.4313,683.4444 660.9723,687.7037 656.0541,687.7037 658.5132,691.963 656.0541,696.2222 660.9723,696.2222 663.4313,700.4815 665.8904,696.2222 670.8086,696.2222 673.2677,700.4815 670.8086,704.7407 675.7268,704.7407 678.1858,709 673.2677,709 670.8086,704.7407 668.3495,709 663.4313,709 660.9723,704.7407 663.4313,700.4815 658.5132,700.4815 656.0541,696.2222 653.595,700.4815 648.6768,700.4815 651.1359,704.7407 648.6768,709 643.7587,709 641.2996,704.7407 638.8405,709 633.9223,709 631.4632,704.7407 633.9223,700.4815 629.0042,700.4815 626.5451,696.2222 629.0042,691.963 633.9223,691.963 631.4632,687.7037 633.9223,683.4444 629.0042,683.4444 626.5451,679.1852 624.086,683.4444 619.1678,683.4444 616.7087,679.1852 619.1678,674.9259 614.2496,674.9259 611.7906,670.6667 609.3315,674.9259 604.4133,674.9259 606.8724,679.1852 604.4133,683.4444 599.4951,683.4444 597.0361,679.1852 594.577,683.4444 589.6588,683.4444 592.1179,687.7037 589.6588,691.963 594.577,691.963 597.0361,696.2222 594.577,700.4815 589.6588,700.4815 592.1179,704.7407 589.6588,709 584.7406,709 582.2815,704.7407 579.8225,709 574.9043,709 572.4452,704.7407 574.9043,700.4815 569.9861,700.4815 567.527,696.2222 565.068,700.4815 560.1498,700.4815 562.6089,704.7407 560.1498,709 555.2316,709 552.7725,704.7407 550.3134,709 545.3953,709 542.9362,704.7407 545.3953,700.4815 540.4771,700.4815 538.018,696.2222 540.4771,691.963 545.3953,691.963 542.9362,687.7037 545.3953,683.4444 540.4771,683.4444 538.018,679.1852 535.5589,683.4444 530.6408,683.4444 528.1817,679.1852 530.6408,674.9259 525.7226,674.9259 523.2635,670.6667 525.7226,666.4074 530.6408,666.4074 528.1817,662.1481 530.6408,657.8889 535.5589,657.8889 538.018,662.1481 540.4771,657.8889 545.3953,657.8889 542.9362,653.6296 545.3953,649.3704 540.4771,649.3704 538.018,645.1111 540.4771,640.8519 545.3953,640.8519 542.9362,636.5926 545.3953,632.3333 540.4771,632.3333 538.018,628.0741 535.5589,632.3333 530.6408,632.3333 528.1817,628.0741 530.6408,623.8148 525.7226,623.8148 523.2635,619.5556 520.8044,623.8148 515.8863,623.8148 518.3454,628.0741 515.8863,632.3333 510.9681,632.3333 508.509,628.0741 506.0499,632.3333 501.1318,632.3333 498.6727,628.0741 501.1318,623.8148 496.2136,623.8148 493.7545,619.5556 496.2136,615.2963 501.1318,615.2963 498.6727,611.037 501.1318,606.7778 496.2136,606.7778 493.7545,602.5185 491.2954,606.7778 486.3773,606.7778 483.9182,602.5185 486.3773,598.2593 481.4591,598.2593 479,594 476.5409,598.2593 471.6227,598.2593 474.0818,602.5185 471.6227,606.7778 466.7046,606.7778 464.2455,602.5185 461.7864,606.7778 456.8682,606.7778 459.3273,611.037 456.8682,615.2963 461.7864,615.2963 464.2455,619.5556 461.7864,623.8148 456.8682,623.8148 459.3273,628.0741 456.8682,632.3333 451.9501,632.3333 449.491,628.0741 447.0319,632.3333 442.1137,632.3333 439.6546,628.0741 442.1137,623.8148 437.1956,623.8148 434.7365,619.5556 432.2774,623.8148 427.3592,623.8148 429.8183,628.0741 427.3592,632.3333 422.4411,632.3333 419.982,628.0741 417.5229,632.3333 412.6047,632.3333 415.0638,636.5926 412.6047,640.8519 417.5229,640.8519 419.982,645.1111 417.5229,649.3704 412.6047,649.3704 415.0638,653.6296 412.6047,657.8889 417.5229,657.8889 419.982,662.1481 422.4411,657.8889 427.3592,657.8889 429.8183,662.1481 427.3592,666.4074 432.2774,666.4074 434.7365,670.6667 432.2774,674.9259 427.3592,674.9259 429.8183,679.1852 427.3592,683.4444 422.4411,683.4444 419.982,679.1852 417.5229,683.4444 412.6047,683.4444 415.0638,687.7037 412.6047,691.963 417.5229,691.963 419.982,696.2222 417.5229,700.4815 412.6047,700.4815 415.0638,704.7407 412.6047,709 407.6866,709 405.2275,704.7407 402.7684,709 397.8502,709 395.3911,704.7407 397.8502,700.4815 392.932,700.4815 390.473,696.2222 388.0139,700.4815 383.0957,700.4815 385.5548,704.7407 383.0957,709 378.1775,709 375.7185,704.7407 373.2594,709 368.3412,709 365.8821,704.7407 368.3412,700.4815 363.423,700.4815 360.9639,696.2222 363.423,691.963 368.3412,691.963 365.8821,687.7037 368.3412,683.4444 363.423,683.4444 360.9639,679.1852 358.5049,683.4444 353.5867,683.4444 351.1276,679.1852 353.5867,674.9259 348.6685,674.9259 346.2094,670.6667 343.7504,674.9259 338.8322,674.9259 341.2913,679.1852 338.8322,683.4444 333.914,683.4444 331.4549,679.1852 328.9958,683.4444 324.0777,683.4444 326.5368,687.7037 324.0777,691.963 328.9958,691.963 331.4549,696.2222 328.9958,700.4815 324.0777,700.4815 326.5368,704.7407 324.0777,709 319.1595,709 316.7004,704.7407 314.2413,709 309.3232,709 306.8641,704.7407 309.3232,700.4815 304.405,700.4815 301.9459,696.2222 299.4868,700.4815 294.5687,700.4815 297.0277,704.7407 294.5687,709 289.6505,709 287.1914,704.7407 284.7323,709 279.8142,709 282.2732,704.7407 287.1914,704.7407 284.7323,700.4815 287.1914,696.2222 292.1096,696.2222 294.5687,700.4815 297.0277,696.2222 301.9459,696.2222 299.4868,691.963 301.9459,687.7037 297.0277,687.7037 294.5687,683.4444 297.0277,679.1852 301.9459,679.1852 299.4868,674.9259 301.9459,670.6667 306.8641,670.6667 309.3232,674.9259 311.7823,670.6667 316.7004,670.6667 319.1595,674.9259 316.7004,679.1852 321.6186,679.1852 324.0777,683.4444 326.5368,679.1852 331.4549,679.1852 328.9958,674.9259 331.4549,670.6667 336.3731,670.6667 338.8322,674.9259 341.2913,670.6667 346.2094,670.6667 343.7504,666.4074 346.2094,662.1481 341.2913,662.1481 338.8322,657.8889 341.2913,653.6296 346.2094,653.6296 343.7504,649.3704 346.2094,645.1111 341.2913,645.1111 338.8322,640.8519 336.3731,645.1111 331.4549,645.1111 328.9958,640.8519 331.4549,636.5926 326.5368,636.5926 324.0777,632.3333 326.5368,628.0741 331.4549,628.0741 328.9958,623.8148 331.4549,619.5556 336.3731,619.5556 338.8322,623.8148 341.2913,619.5556 346.2094,619.5556 343.7504,615.2963 346.2094,611.037 341.2913,611.037 338.8322,606.7778 341.2913,602.5185 346.2094,602.5185 343.7504,598.2593 346.2094,594 351.1276,594 353.5867,598.2593 356.0458,594 360.9639,594 363.423,598.2593 360.9639,602.5185 365.8821,602.5185 368.3412,606.7778 370.8003,602.5185 375.7185,602.5185 373.2594,598.2593 375.7185,594 380.6366,594 383.0957,598.2593 385.5548,594 390.473,594 392.932,598.2593 390.473,602.5185 395.3911,602.5185 397.8502,606.7778 395.3911,611.037 390.473,611.037 392.932,615.2963 390.473,619.5556 395.3911,619.5556 397.8502,623.8148 400.3093,619.5556 405.2275,619.5556 407.6866,623.8148 405.2275,628.0741 410.1456,628.0741 412.6047,632.3333 415.0638,628.0741 419.982,628.0741 417.5229,623.8148 419.982,619.5556 424.9001,619.5556 427.3592,623.8148 429.8183,619.5556 434.7365,619.5556 432.2774,615.2963 434.7365,611.037 429.8183,611.037 427.3592,606.7778 429.8183,602.5185 434.7365,602.5185 432.2774,598.2593 434.7365,594 439.6546,594 442.1137,598.2593 444.5728,594 449.491,594 451.9501,598.2593 449.491,602.5185 454.4092,602.5185 456.8682,606.7778 459.3273,602.5185 464.2455,602.5185 461.7864,598.2593 464.2455,594 469.1637,594 471.6227,598.2593 474.0818,594 479,594 476.5409,589.7407 479,585.4815 474.0818,585.4815 471.6227,581.2222 474.0818,576.963 479,576.963 476.5409,572.7037 479,568.4444 474.0818,568.4444 471.6227,564.1852 469.1637,568.4444 464.2455,568.4444 461.7864,564.1852 464.2455,559.9259 459.3273,559.9259 456.8682,555.6667 459.3273,551.4074 464.2455,551.4074 461.7864,547.1481 464.2455,542.8889 469.1637,542.8889 471.6227,547.1481 474.0818,542.8889 479,542.8889 476.5409,538.6296 479,534.3704 474.0818,534.3704 471.6227,530.1111 474.0818,525.8519 479,525.8519 476.5409,521.5926 479,517.3333 474.0818,517.3333 471.6227,513.0741 469.1637,517.3333 464.2455,517.3333 461.7864,513.0741 464.2455,508.8148 459.3273,508.8148 456.8682,504.5556 454.4092,508.8148 449.491,508.8148 451.9501,513.0741 449.491,517.3333 444.5728,517.3333 442.1137,513.0741 439.6546,517.3333 434.7365,517.3333 432.2774,513.0741 434.7365,508.8148 429.8183,508.8148 427.3592,504.5556 429.8183,500.2963 434.7365,500.2963 432.2774,496.037 434.7365,491.7778 429.8183,491.7778 427.3592,487.5185 424.9001,491.7778 419.982,491.7778 417.5229,487.5185 419.982,483.2593 415.0638,483.2593 412.6047,479 415.0638,474.7407 419.982,474.7407 417.5229,470.4815 419.982,466.2222 424.9001,466.2222 427.3592,470.4815 429.8183,466.2222 434.7365,466.2222 432.2774,461.963 434.7365,457.7037 429.8183,457.7037 427.3592,453.4444 429.8183,449.1852 434.7365,449.1852 432.2774,444.9259 434.7365,440.6667 439.6546,440.6667 442.1137,444.9259 444.5728,440.6667 449.491,440.6667 451.9501,444.9259 449.491,449.1852 454.4092,449.1852 456.8682,453.4444 459.3273,449.1852 464.2455,449.1852 461.7864,444.9259 464.2455,440.6667 469.1637,440.6667 471.6227,444.9259 474.0818,440.6667 479,440.6667 476.5409,436.4074 479,432.1481 474.0818,432.1481 471.6227,427.8889 474.0818,423.6296 479,423.6296 476.5409,419.3704 479,415.1111 474.0818,415.1111 471.6227,410.8519 469.1637,415.1111 464.2455,415.1111 461.7864,410.8519 464.2455,406.5926 459.3273,406.5926 456.8682,402.3333 459.3273,398.0741 464.2455,398.0741 461.7864,393.8148 464.2455,389.5556 469.1637,389.5556 471.6227,393.8148 474.0818,389.5556 479,389.5556 476.5409,385.2963 479,381.037 474.0818,381.037 471.6227,376.7778 474.0818,372.5185 479,372.5185 476.5409,368.2593" fill="none" stroke="#333" stroke-width="1"/>
  <g opacity="0.30">
  <g>
  <circle cx="370" cy="352" r="136" fill="none" stroke="#333" stroke-width="1"/>
  <circle cx="370" cy="352" r="84.0526" fill="none" stroke="#333" stroke-width="1"/>
  <circle cx="370" cy="352" r="51.9474" fill="none" stroke="#333" stroke-width="1"/>
  <circle cx="370" cy="352" r="32.1052" fill="none" stroke="#333" stroke-width="1"/>
  <circle cx="370" cy="352" r="19.8421" fill="none" stroke="#333" stroke-width="1"/>
  <circle cx="370" cy="352" r="12.2631" fill="none" stroke="#333" stroke-width="1"/>
  <circle cx="370" cy="352" r="7.579" fill="none" stroke="#333" stroke-width="1"/>
</g>
</g>
  <g opacity="0.89">
  <polygon points="569,62 717,210 569,358 421,210" fill="none" stroke="#333" stroke-width="1.5"/>
</g>
  <g opacity="0.98">
  <g transform="rotate(-92.4,400,400)">
  <g>
  <line x1="218.5207" y1="386.941" x2="304.086" y2="341.7998" stroke="#333" stroke-width="1.2" fill="none"/>
  <line x1="218.5207" y1="386.941" x2="277.23" y2="348.5303" stroke="#333" stroke-width="1.2" fill="none"/>
  <line x1="218.5207" y1="386.941" x2="233.7762" y2="437.4175" stroke="#333" stroke-width="1.2" fill="none"/>
  <line x1="218.5207" y1="386.941" x2="233.7762" y2="485.6224" stroke="#333" stroke-width="1.2" fill="none"/>
  <line x1="218.5207" y1="386.941" x2="277.23" y2="426.5274" stroke="#333" stroke-width="1.2" fill="none"/>
  <line x1="387.4793" y1="463.059" x2="372.2238" y2="364.3776" stroke="#333" stroke-width="1.2" fill="none"/>
  <line x1="387.4793" y1="463.059" x2="328.77" y2="423.4726" stroke="#333" stroke-width="1.2" fill="none"/>
  <line x1="387.4793" y1="463.059" x2="301.914" y2="508.2002" stroke="#333" stroke-width="1.2" fill="none"/>
  <line x1="387.4793" y1="463.059" x2="328.77" y2="501.4697" stroke="#333" stroke-width="1.2" fill="none"/>
  <line x1="387.4793" y1="463.059" x2="372.2238" y2="412.5825" stroke="#333" stroke-width="1.2" fill="none"/>
  <line x1="304.086" y1="341.7998" x2="277.23" y2="348.5303" stroke="#333" stroke-width="1.2" fill="none"/>
  <line x1="304.086" y1="341.7998" x2="277.23" y2="426.5274" stroke="#333" stroke-width="1.2" fill="none"/>
  <line x1="304.086" y1="341.7998" x2="372.2238" y2="364.3776" stroke="#333" stroke-width="1.2" fill="none"/>
  <line x1="304.086" y1="341.7998" x2="372.2238" y2="412.5825" stroke="#333" stroke-width="1.2" fill="none"/>
  <line x1="277.23" y1="348.5303" x2="233.7762" y2="437.4175" stroke="#333" stroke-width="1.2" fill="none"/>
  <line x1="277.23" y1="348.5303" x2="372.2238" y2="364.3776" stroke="#333" stroke-width="1.2" fill="none"/>
  <line x1="277.23" y1="348.5303" x2="328.77" y2="423.4726" stroke="#333" stroke-width="1.2" fill="none"/>
  <line x1="233.7762" y1="437.4175" x2="233.7762" y2="485.6224" stroke="#333" stroke-width="1.2" fill="none"/>
  <line x1="233.7762" y1="437.4175" x2="328.77" y2="423.4726" stroke="#333" stroke-width="1.2" fill="none"/>
  <line x1="233.7762" y1="437.4175" x2="301.914" y2="508.2002" stroke="#333" stroke-width="1.2" fill="none"/>
  <line x1="233.7762" y1="485.6224" x2="277.23" y2="426.5274" stroke="#333" stroke-width="1.2" fill="none"/>
  <line x1="233.7762" y1="485.6224" x2="301.914" y2="508.2002" stroke="#333" stroke-width="1.2" fill="none"/>
  <line x1="233.7762" y1="485.6224" x2="328.77" y2="501.4697" stroke="#333" stroke-width="1.2" fill="none"/>
  <line x1="277.23" y1="426.5274" x2="328.77" y2="501.4697" stroke="#333" stroke-width="1.2" fill="none"/>
  <line x1="277.23" y1="426.5274" x2="372.2238" y2="412.5825" stroke="#333" stroke-width="1.2" fill="none"/>
  <line x1="372.2238" y1="364.3776" x2="328.77" y2="423.4726" stroke="#333" stroke-width="1.2" fill="none"/>
  <line x1="372.2238" y1="364.3776" x2="372.2238" y2="412.5825" stroke="#333" stroke-width="1.2" fill="none"/>
  <line x1="328.77" y1="423.4726" x2="301.914" y2="508.2002" stroke="#333" stroke-width="1.2" fill="none"/>
  <line x1="301.914" y1="508.2002" x2="328.77" y2="501.4697" stroke="#333" stroke-width="1.2" fill="none"/>
  <line x1="328.77" y1="501.4697" x2="372.2238" y2="412.5825" stroke="#333" stroke-width="1.2" fill="none"/>
  <circle cx="218.5207" cy="386.941" r="4.75" fill="#c66" stroke="#333" stroke-width="0.8"/>
  <circle cx="387.4793" cy="463.059" r="4.75" fill="#c66" stroke="#333" stroke-width="0.8"/>
  <circle cx="304.086" cy="341.7998" r="4.75" fill="#c66" stroke="#333" stroke-width="0.8"/>
  <circle cx="277.23" cy="348.5303" r="4.75" fill="#c66" stroke="#333" stroke-width="0.8"/>
  <circle cx="233.7762" cy="437.4175" r="4.75" fill="#c66" stroke="#333" stroke-width="0.8"/>
  <circle cx="233.7762" cy="485.6224" r="4.75" fill="#c66" stroke="#333" stroke-width="0.8"/>
  <circle cx="277.23" cy="426.5274" r="4.75" fill="#c66" stroke="#333" stroke-width="0.8"/>
  <circle cx="372.2238" cy="364.3776" r="4.75" fill="#c66" stroke="#333" stroke-width="0.8"/>
  <circle cx="328.77" cy="423.4726" r="4.75" fill="#c66" stroke="#333" stroke-width="0.8"/>
  <circle cx="301.914" cy="508.2002" r="4.75" fill="#c66" stroke="#333" stroke-width="0.8"/>
  <circle cx="328.77" cy="501.4697" r="4.75" fill="#c66" stroke="#333" stroke-width="0.8"/>
  <circle cx="372.2238" cy="412.5825" r="4.75" fill="#c66" stroke="#333" stroke-width="0.8"/>
</g>
</g>
</g>
  <g>
  <polyline points="654.535,238.2163 649.813,234.6697 643.6993,231.3284 636.2327,228.233 627.4585,225.4236 617.4286,222.9401 606.2028,220.822 593.8488,219.1085 580.4437,217.8382 566.0742,217.0488 550.8375,216.7767 534.8421,217.0567 518.2078,217.9211 501.0665,219.3993 483.5619,221.517 465.8495,224.2953 448.0956,227.7499 430.4769,231.8903 413.179,236.719 396.3949,242.2306 380.323,248.4111 365.1651,255.2375 351.1235,262.6769 338.3983,270.6862 327.1848,279.2123 317.6694,288.1915 310.0271,297.5498 304.418,307.2037 300.9833,317.0601 299.8432,327.0177 301.0928,336.9675 304.8001,346.7944 311.003,356.3785 319.7076,365.5963 330.8865,374.3231 344.4774,382.4342 360.3831,389.8071 378.4713,396.3236 398.5752,401.8715 420.4948,406.3469 443.9991,409.6557 468.8283,411.7159 494.6972,412.4588 521.2987,411.831 548.3079,409.7952 575.3869,406.3317 602.1893,401.4386 628.3661,395.1333 653.57,387.4514 677.4619,378.4478 699.7155,368.1954 720.023,356.785 738.0997,344.3236 753.6894,330.9338 766.5681,316.7514 776.5479,301.9241 783.4806,286.6094 787.2599,270.9718 787.8233,255.1813 785.1537,239.41 779.2793,223.8302" stroke="#333" stroke-width="0.8" fill="none"/>
  <polyline points="670.1281,236.418 664.8706,231.4124 658.0187,226.6522 649.6263,222.1924 639.7579,218.0867 628.4886,214.3867 615.9041,211.1423 602.1011,208.4011 587.1868,206.2078 571.2797,204.6045 554.5088,203.6294 537.014,203.3171 518.9455,203.6976 500.4635,204.7959 481.7373,206.6313 462.945,209.217 444.2715,212.5591 425.9082,216.6567 408.0505,221.5007 390.8969,227.0737 374.6461,233.3494 359.4954,240.2926 345.6381,247.8586 333.2606,255.9935 322.5404,264.6339 313.6427,273.7074 306.7181,283.1332 301.8995,292.822 299.2998,302.6773 299.0091,312.5961 301.0928,322.4698 305.5892,332.1857 312.5081,341.628 321.829,350.6796 333.5008,359.2234 347.4409,367.144 363.5353,374.3295 381.6391,380.673 401.5774,386.0745 423.1471,390.4423 446.1187,393.6949 470.2388,395.7623 495.2332,396.5873 520.8104,396.1268 546.665,394.3529 572.4823,391.2533 597.9422,386.8323 622.7241,381.111 646.5113,374.1271 668.9957,365.9351 689.8828,356.6055 708.8956,346.2242 725.7793,334.8917 740.3052,322.7215 752.2742,309.8389 761.5203,296.3792 767.9127,282.4862 771.3589,268.3096 771.8052,254.0037 769.2385,239.7247 763.6863,225.6284" stroke="#333" stroke-width="0.8" fill="none"/>
  <polyline points="685.7211,234.6197 679.9282,228.1551 672.3381,221.9759 663.0199,216.1518 652.0573,210.7497 639.5486,205.8333 625.6055,201.4626 610.3533,197.6936 593.9299,194.5775 576.4851,192.1602 558.18,190.4821 539.1859,189.5776 519.6832,189.4742 499.8605,190.1925 479.9128,191.7456 460.0404,194.1386 440.4474,197.3683 421.3394,201.4231 402.922,206.2824 385.3989,211.9168 368.9692,218.2877 353.8258,225.3477 340.1527,233.0404 328.1229,241.3007 317.8961,250.0554 309.6161,259.2234 303.409,268.7166 299.381,278.4404 297.6162,288.2946 298.175,298.1746 301.0928,307.9721 306.3784,317.5769 314.0131,326.8775 323.9503,335.7629 336.1151,344.1237 350.4044,351.8539 366.6875,358.8519 384.8068,365.0224 404.5796,370.2774 425.7994,374.5377 448.2383,377.7341 471.6493,379.8087 495.7692,380.7157 520.3221,380.4226 545.0222,378.9105 569.5778,376.1749 593.6951,372.226 617.0821,367.0887 639.4525,360.8028 660.5295,353.4224 680.0501,345.0155 697.7683,335.6635 713.4589,325.4599 726.921,314.5093 737.9804,302.9264 746.4926,290.8343 752.3449,278.3629 755.4579,265.6474 755.7871,252.8261 753.3234,240.0393 748.0932,227.4267" stroke="#333" stroke-width="0.8" fill="none"/>
  <polyline points="701.3141,232.8215 694.9858,224.8979 686.6575,217.2997 676.4134,210.1112 664.3568,203.4127 650.6086,197.2798 635.3069,191.7829 618.6055,186.9862 600.6729,182.9471 581.6905,179.7159 561.8513,177.3348 541.3579,175.8381 520.421,175.2508 499.2575,175.5891 478.0882,176.8599 457.1359,179.0602 436.6233,182.1775 416.7706,186.1895 397.7935,191.0641 379.9009,196.7599 363.2923,203.226 348.1561,210.4028 334.6673,218.2222 322.9852,226.6079 313.2517,235.4769 305.5894,244.7394 300.1,254.3 296.8625,264.0588 295.9326,273.9118 297.341,283.753 301.0928,293.4745 307.1675,302.9682 315.5181,312.127 326.0716,320.8462 338.7294,329.024 353.3679,336.5637 369.8396,343.3743 387.9745,349.3718 407.5818,354.4803 428.4517,358.6331 450.3579,361.7733 473.0597,363.8551 496.3053,364.8442 519.8338,364.7184 543.3793,363.4682 566.6732,361.0965 589.448,357.6196 611.4402,353.0664 632.3937,347.4785 652.0633,340.9097 670.2174,333.4256 686.6409,325.1028 701.1385,316.028 713.5368,306.2971 723.6865,296.014 731.4649,285.2895 736.777,274.2397 739.5569,262.9851 739.769,251.6485 737.4083,240.3539 732.5002,229.225" stroke="#333" stroke-width="0.8" fill="none"/>
  <polyline points="716.9072,231.0232 710.0433,221.6406 700.9769,212.6234 689.807,204.0706 676.6562,196.0757 661.6686,188.7264 645.0082,182.1032 626.8577,176.2787 607.416,171.3167 586.896,167.2716 565.5225,164.1876 543.5298,162.0985 521.1587,161.0274 498.6545,160.9858 476.2636,161.9742 454.2313,163.9818 432.7991,166.9867 412.2018,170.9559 392.665,175.8458 374.4029,181.603 357.6153,188.1643 342.4864,195.458 329.1819,203.4039 317.8475,211.9152 308.6073,220.8985 301.5628,230.2554 296.7909,239.8835 294.3441,249.6771 294.2491,259.5291 296.5069,269.3314 301.0928,278.9768 307.9567,288.3594 317.0231,297.3766 328.193,305.9294 341.3438,313.9243 356.3314,321.2736 372.9918,327.8968 391.1423,333.7213 410.584,338.6833 431.104,342.7284 452.4775,345.8124 474.4702,347.9015 496.8413,348.9726 519.3455,349.0142 541.7364,348.0258 563.7687,346.0182 585.2009,343.0133 605.7982,339.0441 625.335,334.1542 643.5971,328.397 660.3847,321.8357 675.5136,314.542 688.8181,306.5961 700.1525,298.0848 709.3927,289.1015 716.4372,279.7446 721.2091,270.1165 723.6559,260.3229 723.7509,250.4709 721.4931,240.6686 716.9072,231.0232" stroke="#333" stroke-width="0.8" fill="none"/>
  <polyline points="732.5002,229.225 725.1009,218.3833 715.2962,207.9472 703.2006,198.03 688.9557,188.7387 672.7285,180.173 654.7096,172.4235 635.11,165.5713 614.1591,159.6864 592.1014,154.8273 569.1938,151.0403 545.7017,148.359 521.8965,146.8039 498.0515,146.3824 474.439,147.0885 451.3268,148.9035 428.975,151.7959 407.633,155.7222 387.5365,160.6275 368.9048,166.4461 351.9384,173.1027 336.8168,180.5131 323.6965,188.5857 312.7097,197.2224 303.963,206.32 297.5361,215.7714 293.4819,225.4669 291.8256,235.2955 292.5655,245.1463 295.6728,254.9099 301.0928,264.4791 308.7458,273.7507 318.5282,282.6261 330.3143,291.0127 343.9581,298.8246 359.295,305.9834 376.1439,312.4192 394.31,318.0707 413.5862,322.8862 433.7563,326.8238 454.5971,329.8516 475.8807,331.9479 497.3773,333.1011 518.8572,333.3101 540.0936,332.5835 560.8641,330.9398 580.9537,328.407 600.1562,325.0219 618.2762,320.8299 635.1309,315.8843 650.5519,310.2457 664.3862,303.9813 676.4977,297.1642 686.7683,289.8726 695.0988,282.189 701.4096,274.1997 705.6412,265.9933 707.7549,257.6606 707.7329,249.2933 705.578,240.9832 701.3141,232.8215" stroke="#333" stroke-width="0.8" fill="none"/>
  <polyline points="748.0932,227.4267 740.1585,215.126 729.6156,203.2709 716.5942,191.9893 701.2551,181.4017 683.7885,171.6196 664.4109,162.7438 643.3622,154.8638 620.9021,148.056 597.3069,142.383 572.865,137.893 547.8737,134.6195 522.6342,132.5805 497.4485,131.779 472.6144,132.2028 448.4222,133.8251 425.1509,136.6051 403.0643,140.4886 382.408,145.4092 363.4068,151.2892 346.2615,158.041 331.1471,165.5682 318.2111,173.7674 307.572,182.5297 299.3186,191.7416 293.5095,201.2874 290.1728,211.0503 289.3071,220.9138 290.8819,230.7636 294.8387,240.4883 301.0928,249.9814 309.5349,259.1419 320.0332,267.8756 332.4356,276.096 346.5724,283.7249 362.2585,290.6933 379.2961,296.9416 397.4777,302.4201 416.5884,307.0891 436.4086,310.9192 456.7167,313.8908 477.2912,315.9942 497.9133,317.2296 518.3689,317.6059 538.4507,317.1411 557.9596,315.8614 576.7066,313.8006 594.5142,310.9996 611.2174,307.5056 626.6647,303.3716 640.7192,298.6558 653.2589,293.4206 664.1773,287.7323 673.3841,281.6603 680.8049,275.2766 686.3819,268.6548 690.0733,261.8701 691.8539,254.9984 691.7148,248.1157 689.6628,241.2978 685.7211,234.6197" stroke="#333" stroke-width="0.8" fill="none"/>
  <polyline points="763.6863,225.6284 755.2161,211.8687 743.935,198.5947 729.9877,185.9487 713.5545,174.0647 694.8485,163.0661 674.1123,153.0641 651.6144,144.1564 627.6452,136.4256 602.5123,129.9387 576.5363,124.7457 550.0456,120.8799 523.372,118.3571 496.8455,117.1756 470.7898,117.317 445.5177,118.7467 421.3268,121.4143 398.4955,125.255 377.2796,130.1909 357.9088,136.1323 340.5846,142.9793 325.4774,150.6233 312.7257,158.9492 302.4343,167.8369 294.6743,177.1631 289.4828,186.8034 286.8638,196.6337 286.7887,206.5322 289.1983,216.3808 294.0046,226.0668 301.0928,235.4837 310.3241,244.5332 321.5382,253.1251 334.557,261.1793 349.1868,268.6252 365.222,275.4031 382.4483,281.464 400.6455,286.7695 419.5906,291.2921 439.0609,295.0146 458.8363,297.93 478.7016,300.0406 498.4493,301.358 517.8806,301.9017 536.8078,301.6987 555.055,300.783 572.4595,299.1943 588.8723,296.9773 604.1586,294.1813 618.1985,290.8589 630.8865,287.0658 642.1315,282.8598 651.8569,278.3004 659.9999,273.4481 666.5111,268.3641 671.3542,263.1099 674.5054,257.7469 675.953,252.3362 675.6967,246.9381 673.7477,241.6125 670.1281,236.418" stroke="#333" stroke-width="0.8" fill="none"/>
  <polyline points="654.535,238.2163 670.1281,236.418 685.7211,234.6197 701.3141,232.8215 716.9072,231.0232 732.5002,229.225 748.0932,227.4267 763.6863,225.6284" stroke="#999" stroke-width="0.5" fill="none"/>
  <polyline points="617.4286,222.9401 628.4886,214.3867 639.5486,205.8333 650.6086,197.2798 661.6686,188.7264 672.7285,180.173 683.7885,171.6196 694.8485,163.0661" stroke="#999" stroke-width="0.5" fill="none"/>
  <polyline points="550.8375,216.7767 554.5088,203.6294 558.18,190.4821 561.8513,177.3348 565.5225,164.1876 569.1938,151.0403 572.865,137.893 576.5363,124.7457" stroke="#999" stroke-width="0.5" fill="none"/>
  <polyline points="465.8495,224.2953 462.945,209.217 460.0404,194.1386 457.1359,179.0602 454.2313,163.9818 451.3268,148.9035 448.4222,133.8251 445.5177,118.7467" stroke="#999" stroke-width="0.5" fill="none"/>
  <polyline points="380.323,248.4111 374.6461,233.3494 368.9692,218.2877 363.2923,203.226 357.6153,188.1643 351.9384,173.1027 346.2615,158.041 340.5846,142.9793" stroke="#999" stroke-width="0.5" fill="none"/>
  <polyline points="317.6694,288.1915 313.6427,273.7074 309.6161,259.2234 305.5894,244.7394 301.5628,230.2554 297.5361,215.7714 293.5095,201.2874 289.4828,186.8034" stroke="#999" stroke-width="0.5" fill="none"/>
  <polyline points="301.0928,336.9675 301.0928,322.4698 301.0928,307.9721 301.0928,293.4745 301.0928,278.9768 301.0928,264.4791 301.0928,249.9814 301.0928,235.4837" stroke="#999" stroke-width="0.5" fill="none"/>
  <polyline points="344.4774,382.4342 347.4409,367.144 350.4044,351.8539 353.3679,336.5637 356.3314,321.2736 359.295,305.9834 362.2585,290.6933 365.222,275.4031" stroke="#999" stroke-width="0.5" fill="none"/>
  <polyline points="443.9991,409.6557 446.1187,393.6949 448.2383,377.7341 450.3579,361.7733 452.4775,345.8124 454.5971,329.8516 456.7167,313.8908 458.8363,297.93" stroke="#999" stroke-width="0.5" fill="none"/>
  <polyline points="575.3869,406.3317 572.4823,391.2533 569.5778,376.1749 566.6732,361.0965 563.7687,346.0182 560.8641,330.9398 557.9596,315.8614 555.055,300.783" stroke="#999" stroke-width="0.5" fill="none"/>
  <polyline points="699.7155,368.1954 689.8828,356.6055 680.0501,345.0155 670.2174,333.4256 660.3847,321.8357 650.5519,310.2457 640.7192,298.6558 630.8865,287.0658" stroke="#999" stroke-width="0.5" fill="none"/>
  <polyline points="776.5479,301.9241 761.5203,296.3792 746.4926,290.8343 731.4649,285.2895 716.4372,279.7446 701.4096,274.1997 686.3819,268.6548 671.3542,263.1099" stroke="#999" stroke-width="0.5" fill="none"/>
</g>
</svg>