<svg xmlns="http://www.w3.org/2000/svg" width="800" height="800" viewBox="0 0 800 800">
  <g>
  <line x1="415.9369" y1="0" x2="415.9369" y2="655" stroke="#c0a040" stroke-width="1" stroke-opacity="0.6"/>
  <line x1="574.8106" y1="0" x2="574.8106" y2="655" stroke="#c0a040" stroke-width="1" stroke-opacity="0.6"/>
  <line x1="635.495" y1="0" x2="635.495" y2="655" stroke="#c0a040" stroke-width="1" stroke-opacity="0.6"/>
  <line x1="658.6744" y1="0" x2="658.6744" y2="655" stroke="#c0a040" stroke-width="1" stroke-opacity="0.6"/>
  <line x1="667.5281" y1="0" x2="667.5281" y2="655" stroke="#c0a040" stroke-width="1" stroke-opacity="0.6"/>
  <line x1="670.9099" y1="0" x2="670.9099" y2="655" stroke="#c0a040" stroke-width="1" stroke-opacity="0.6"/>
  <line x1="0" y1="404.8123" x2="673" y2="404.8123" stroke="#c0a040" stroke-width="1" stroke-opacity="0.6"/>
  <line x1="0" y1="559.4368" x2="673" y2="559.4368" stroke="#c0a040" stroke-width="1" stroke-opacity="0.6"/>
  <line x1="0" y1="618.4981" x2="673" y2="618.4981" stroke="#c0a040" stroke-width="1" stroke-opacity="0.6"/>
  <line x1="0" y1="641.0575" x2="673" y2="641.0575" stroke="#c0a040" stroke-width="1" stroke-opacity="0.6"/>
  <line x1="0" y1="649.6744" x2="673" y2="649.6744" stroke="#c0a040" stroke-width="1" stroke-opacity="0.6"/>
  <line x1="0" y1="652.9658" x2="673" y2="652.9658" stroke="#c0a040" stroke-width="1" stroke-opacity="0.6"/>
</g>
  <g transform="rotate(3.8,400,400)">
  <g>
  <polygon points="326,314 313.6591,335.375 338.3409,335.375" fill="#333" stroke="none"/>
  <polygon points="313.6591,335.375 301.3183,356.75 326,356.75" fill="#333" stroke="none"/>
  <polygon points="338.3409,335.375 326,356.75 350.6817,356.75" fill="#333" stroke="none"/>
  <polygon points="301.3183,356.75 288.9774,378.125 313.6591,378.125" fill="#333" stroke="none"/>
  <polygon points="288.9774,378.125 276.6366,399.5 301.3183,399.5" fill="#333" stroke="none"/>
  <polygon points="313.6591,378.125 301.3183,399.5 326,399.5" fill="#333" stroke="none"/>
  <polygon points="350.6817,356.75 338.3409,378.125 363.0226,378.125" fill="#333" stroke="none"/>
  <polygon points="338.3409,378.125 326,399.5 350.6817,399.5" fill="#333" stroke="none"/>
  <polygon points="363.0226,378.125 350.6817,399.5 375.3634,399.5" fill="#333" stroke="none"/>
  <polygon points="276.6366,399.5 264.2957,420.875 288.9774,420.875" fill="#333" stroke="none"/>
  <polygon points="264.2957,420.875 251.9548,442.25 276.6366,442.25" fill="#333" stroke="none"/>
  <polygon points="288.9774,420.875 276.6366,442.25 301.3183,442.25" fill="#333" stroke="none"/>
  <polygon points="251.9548,442.25 239.614,463.625 264.2957,463.625" fill="#333" stroke="none"/>
  <polygon points="239.614,463.625 227.2731,485 251.9548,485" fill="#333" stroke="none"/>
  <polygon points="264.2957,463.625 251.9548,485 276.6366,485" fill="#333" stroke="none"/>
  <polygon points="301.3183,442.25 288.9774,463.625 313.6591,463.625" fill="#333" stroke="none"/>
  <polygon points="288.9774,463.625 276.6366,485 301.3183,485" fill="#333" stroke="none"/>
  <polygon points="313.6591,463.625 301.3183,485 326,485" fill="#333" stroke="none"/>
  <polygon points="375.3634,399.5 363.0226,420.875 387.7043,420.875" fill="#333" stroke="none"/>
  <polygon points="363.0226,420.875 350.6817,442.25 375.3634,442.25" fill="#333" stroke="none"/>
  <polygon points="387.7043,420.875 375.3634,442.25 400.0452,442.25" fill="#333" stroke="none"/>
  <polygon points="350.6817,442.25 338.3409,463.625 363.0226,463.625" fill="#333" stroke="none"/>
  <polygon points="338.3409,463.625 326,485 350.6817,485" fill="#333" stroke="none"/>
  <polygon points="363.0226,463.625 350.6817,485 375.3634,485" fill="#333" stroke="none"/>
  <polygon points="400.0452,442.25 387.7043,463.625 412.386,463.625" fill="#333" stroke="none"/>
  <polygon points="387.7043,463.625 375.3634,485 400.0452,485" fill="#333" stroke="none"/>
  <polygon points="412.386,463.625 400.0452,485 424.7269,485" fill="#333" stroke="none"/>
</g>
</g>
  <g transform="rotate(94.4,400,400)">
  <polygon points="363,413 472.1192,451 450.4686,564.5 363,640 275.5314,564.5 253.8808,451" fill="none" stroke="#333" stroke-width="1.5"/>
</g>
</svg>