<svg xmlns="http://www.w3.org/2000/svg" width="800" height="800" viewBox="0 0 800 800">
  <g opacity="0.42">
  <g>
  <circle cx="430" cy="345" r="130" fill="none" stroke="#333" stroke-width="1.5"/>
  <circle cx="560" cy="345" r="130" fill="none" stroke="#333" stroke-width="1.5"/>
</g>
</g>
  <g>
  <circle cx="236" cy="417" r="12.714" stroke="#e74c3c" stroke-width="2" fill="#e74c3c" fill-opacity="0.08"/>
  <circle cx="248.714" cy="417" r="3" fill="#e74c3c" stroke="none"/>
  <circle cx="229.643" cy="405.9894" r="3" fill="#e74c3c" stroke="none"/>
  <circle cx="229.643" cy="428.0106" r="3" fill="#e74c3c" stroke="none"/>
  <text x="256.714" y="421" font-size="10" fill="#e74c3c">3D c3 seed</text>
  <circle cx="236" cy="417" r="20.5716" stroke="#e67e22" stroke-width="2" fill="#e67e22" fill-opacity="0.08"/>
  <circle cx="256.5716" cy="417" r="3" fill="#e67e22" stroke="none"/>
  <circle cx="236" cy="396.4284" r="3" fill="#e67e22" stroke="none"/>
  <circle cx="215.4284" cy="417" r="3" fill="#e67e22" stroke="none"/>
  <circle cx="236" cy="437.5716" r="3" fill="#e67e22" stroke="none"/>
  <text x="264.5716" y="421" font-size="10" fill="#e67e22">4D E4 base</text>
  <circle cx="236" cy="417" r="33.2856" stroke="#f1c40f" stroke-width="2" fill="#f1c40f" fill-opacity="0.08"/>
  <circle cx="269.2856" cy="417" r="3" fill="#f1c40f" stroke="none"/>
  <circle cx="252.6428" cy="388.1738" r="3" fill="#f1c40f" stroke="none"/>
  <circle cx="219.3572" cy="388.1738" r="3" fill="#f1c40f" stroke="none"/>
  <circle cx="202.7144" cy="417" r="3" fill="#f1c40f" stroke="none"/>
  <circle cx="219.3572" cy="445.8262" r="3" fill="#f1c40f" stroke="none"/>
  <circle cx="252.6428" cy="445.8262" r="3" fill="#f1c40f" stroke="none"/>
  <text x="277.2856" y="421" font-size="10" fill="#f1c40f">6D W3 Mobius</text>
  <circle cx="236" cy="417" r="53.8572" stroke="#2ecc71" stroke-width="2" fill="#2ecc71" fill-opacity="0.08"/>
  <circle cx="289.8572" cy="417" r="3" fill="#2ecc71" stroke="none"/>
  <circle cx="274.0828" cy="378.9172" r="3" fill="#2ecc71" stroke="none"/>
  <circle cx="236" cy="363.1428" r="3" fill="#2ecc71" stroke="none"/>
  <circle cx="197.9172" cy="378.9172" r="3" fill="#2ecc71" stroke="none"/>
  <circle cx="182.1428" cy="417" r="3" fill="#2ecc71" stroke="none"/>
  <circle cx="197.9172" cy="455.0828" r="3" fill="#2ecc71" stroke="none"/>
  <circle cx="236" cy="470.8572" r="3" fill="#2ecc71" stroke="none"/>
  <circle cx="274.0828" cy="455.0828" r="3" fill="#2ecc71" stroke="none"/>
  <text x="297.8572" y="421" font-size="10" fill="#2ecc71">8D W5 penta</text>
  <circle cx="236" cy="417" r="87.1428" stroke="#3498db" stroke-width="2" fill="#3498db" fill-opacity="0.08"/>
  <circle cx="323.1428" cy="417" r="3" fill="#3498db" stroke="none"/>
  <circle cx="306.5" cy="365.7788" r="3" fill="#3498db" stroke="none"/>
  <circle cx="262.9286" cy="334.1223" r="3" fill="#3498db" stroke="none"/>
  <circle cx="209.0714" cy="334.1223" r="3" fill="#3498db" stroke="none"/>
  <circle cx="165.5" cy="365.7788" r="3" fill="#3498db" stroke="none"/>
  <circle cx="148.8572" cy="417" r="3" fill="#3498db" stroke="none"/>
  <circle cx="165.5" cy="468.2212" r="3" fill="#3498db" stroke="none"/>
  <circle cx="209.0714" cy="499.8777" r="3" fill="#3498db" stroke="none"/>
  <circle cx="262.9286" cy="499.8777" r="3" fill="#3498db" stroke="none"/>
  <circle cx="306.5" cy="468.2212" r="3" fill="#3498db" stroke="none"/>
  <text x="331.1428" y="421" font-size="10" fill="#3498db">10D W7 hepta</text>
  <circle cx="236" cy="417" r="141" stroke="#9b59b6" stroke-width="2" fill="#9b59b6" fill-opacity="0.08"/>
  <circle cx="377" cy="417" r="3" fill="#9b59b6" stroke="none"/>
  <circle cx="358.1096" cy="346.5" r="3" fill="#9b59b6" stroke="none"/>
  <circle cx="306.5" cy="294.8904" r="3" fill="#9b59b6" stroke="none"/>
  <circle cx="236" cy="276" r="3" fill="#9b59b6" stroke="none"/>
  <circle cx="165.5" cy="294.8904" r="3" fill="#9b59b6" stroke="none"/>
  <circle cx="113.8904" cy="346.5" r="3" fill="#9b59b6" stroke="none"/>
  <circle cx="95" cy="417" r="3" fill="#9b59b6" stroke="none"/>
  <circle cx="113.8904" cy="487.5" r="3" fill="#9b59b6" stroke="none"/>
  <circle cx="165.5" cy="539.1096" r="3" fill="#9b59b6" stroke="none"/>
  <circle cx="236" cy="558" r="3" fill="#9b59b6" stroke="none"/>
  <circle cx="306.5" cy="539.1096" r="3" fill="#9b59b6" stroke="none"/>
  <circle cx="358.1096" cy="487.5" r="3" fill="#9b59b6" stroke="none"/>
  <text x="385" y="421" font-size="10" fill="#9b59b6">12D W9 crown</text>
</g>
  <g opacity="0.93">
  <g transform="rotate(-97.4,400,400)">
  <g>
  <circle cx="120" cy="50" r="3" fill="#333"/>
  <circle cx="167" cy="50" r="3" fill="#333"/>
  <circle cx="214" cy="50" r="3" fill="#333"/>
  <circle cx="261" cy="50" r="3" fill="#333"/>
  <circle cx="308" cy="50" r="3" fill="#333"/>
  <circle cx="355" cy="50" r="3" fill="#333"/>
  <circle cx="402" cy="50" r="3" fill="#333"/>
  <circle cx="449" cy="50" r="3" fill="#333"/>
  <circle cx="143.5" cy="90.7032" r="3" fill="#333"/>
  <circle cx="190.5" cy="90.7032" r="3" fill="#333"/>
  <circle cx="237.5" cy="90.7032" r="3" fill="#333"/>
  <circle cx="284.5" cy="90.7032" r="3" fill="#333"/>
  <circle cx="331.5" cy="90.7032" r="3" fill="#333"/>
  <circle cx="378.5" cy="90.7032" r="3" fill="#333"/>
  <circle cx="425.5" cy="90.7032" r="3" fill="#333"/>
  <circle cx="472.5" cy="90.7032" r="3" fill="#333"/>
  <circle cx="120" cy="131.4064" r="3" fill="#333"/>
  <circle cx="167" cy="131.4064" r="3" fill="#333"/>
  <circle cx="214" cy="131.4064" r="3" fill="#333"/>
  <circle cx="261" cy="131.4064" r="3" fill="#333"/>
  <circle cx="308" cy="131.4064" r="3" fill="#333"/>
  <circle cx="355" cy="131.4064" r="3" fill="#333"/>
  <circle cx="402" cy="131.4064" r="3" fill="#333"/>
  <circle cx="449" cy="131.4064" r="3" fill="#333"/>
</g>
</g>
</g>
  <g opacity="0.42">
  <g>
  <polyline points="402.6481,324.6873 395.8488,319.9621 388.4075,315.7807 380.3769,312.1828 371.8127,309.2062 362.7743,306.8867 353.3254,305.2579 343.5334,304.3513 333.4709,304.1952 323.2149,304.815 312.8475,306.2319 302.4558,308.4628 292.1319,311.5192 281.9721,315.4065 272.0773,320.1234 262.5514,325.6606 253.5012,332.0007 245.035,339.1169 237.2613,346.9727 230.2877,355.5215 224.2193,364.7059 219.1567,374.4578 215.1946,384.6987 212.4201,395.3391 210.9102,406.2797 210.7306,417.4121 211.934,428.6191 214.5578,439.7765 218.6232,450.7541 224.1337,461.4175 231.0742,471.6297 239.4097,481.253 249.0855,490.1513 260.0266,498.192 272.1379,505.2481 285.305,511.2009 299.3949,515.9414 314.2573,519.3732 329.7265,521.4138 345.6231,521.9967 361.7563,521.0732 377.9266,518.6131 393.9287,514.6066 409.5542,509.0643 424.595,502.0182 438.8464,493.5214 452.1104,483.6481 464.1991,472.4926 474.9372,460.1687 484.1659,446.8081 491.7447,432.5587 497.5547,417.5828 501.5,402.0545 503.5103,386.1578 503.5416,370.0831 501.5775,354.0251 497.6296,338.1795 491.7377,322.74 483.9691,307.8954 474.4179,293.8269 463.2036,280.705" stroke="#333" stroke-width="0.8" fill="none"/>
  <polyline points="410.2175,319.1895 402.6763,313.5527 394.404,308.5475 385.4694,304.2241 375.9464,300.6286 365.9134,297.8029 355.4538,295.7842 344.6552,294.6045 333.6097,294.2908 322.4136,294.8642 311.1669,296.3395 299.9727,298.7247 288.9375,302.0207 278.1697,306.2206 267.7792,311.3093 257.8767,317.2629 248.5724,324.0484 239.975,331.6238 232.1907,339.9369 225.3215,348.9264 219.4642,358.5209 214.7086,368.6398 211.1363,379.1934 208.8189,390.083 207.817,401.2026 208.1785,412.4385 209.9372,423.6715 213.112,434.7774 217.7056,445.6286 223.7036,456.0954 231.0742,466.0482 239.7675,475.3586 249.7158,483.9015 260.8332,491.557 273.0165,498.2121 286.1461,503.7627 300.0864,508.1154 314.6879,511.1889 329.7884,512.9159 345.2149,513.2446 360.786,512.1393 376.3141,509.5822 391.6079,505.5736 406.475,500.1325 420.725,493.2969 434.1717,485.1237 446.6364,475.6882 457.9505,465.0834 467.9582,453.4192 476.5186,440.8208 483.5087,427.4275 488.8249,413.3906 492.3847,398.8715 494.1289,384.0396 494.0218,369.0696 492.0526,354.1394 488.2355,339.4274 482.6096,325.1099 475.2386,311.3586 466.2101,298.3378 455.6341,286.2027" stroke="#333" stroke-width="0.8" fill="none"/>
  <polyline points="417.7869,313.6917 409.5039,307.1433 400.4005,301.3143 390.562,296.2654 380.0801,292.0511 369.0525,288.7192 357.5821,286.3104 345.7769,284.8577 333.7486,284.3864 321.6124,284.9134 309.4862,286.447 297.4897,288.9866 285.7432,292.5222 274.3673,297.0347 263.4812,302.4952 253.202,308.8651 243.6435,316.0962 234.915,324.1306 227.1201,332.9011 220.3554,342.3313 214.7092,352.336 210.2606,362.8218 207.0779,373.688 205.2177,384.827 204.7238,396.1254 205.6263,407.465 207.9404,418.724 211.6663,429.7784 216.788,440.503 223.2734,450.7733 231.0742,460.4668 240.1253,469.4642 250.346,477.6517 261.6397,484.922 273.8952,491.1761 286.9872,496.3246 300.778,500.2893 315.1185,503.0045 329.8502,504.4181 344.8066,504.4924 359.8157,503.2055 374.7016,500.5514 389.2871,496.5406 403.3959,491.2007 416.855,484.5756 429.4969,476.7259 441.1623,467.7282 451.702,457.6741 460.9791,446.6696 468.8714,434.8335 475.2728,422.2963 480.0951,409.1985 483.2695,395.6886 484.7475,381.9214 484.5021,368.056 482.5278,354.2537 478.8414,340.6753 473.4814,327.4799 466.5081,314.8217 458.0024,302.8488 448.0647,291.7005" stroke="#333" stroke-width="0.8" fill="none"/>
  <polyline points="425.3564,308.1939 416.3315,300.7339 406.397,294.0811 395.6545,288.3067 384.2138,283.4735 372.1915,279.6355 359.7105,276.8366 346.8986,275.111 333.8874,274.4821 320.8111,274.9627 307.8056,276.5546 295.0066,279.2485 282.5489,283.0238 270.5648,287.8488 259.1831,293.6811 248.5272,300.4673 238.7146,308.144 229.8551,316.6375 222.0495,325.8654 215.3892,335.7362 209.9542,346.151 205.8125,357.0038 203.0195,368.1827 201.6165,379.571 201.6307,391.0482 203.0741,402.4914 205.9436,413.7764 210.2205,424.7793 215.8704,435.3775 222.8433,445.4513 231.0742,454.8853 240.4832,463.5698 250.9763,471.4019 262.4463,478.287 274.7738,484.14 287.8283,488.8864 301.4695,492.4632 315.5491,494.8202 329.912,495.9202 344.3984,495.7402 358.8454,494.2716 373.089,491.5205 386.9663,487.5077 400.3167,482.2689 412.985,475.8543 424.8222,468.3282 435.6883,459.7682 445.4534,450.2649 454.0001,439.92 461.2242,428.8462 467.0368,417.1651 471.3653,405.0063 474.1542,392.5056 475.3661,379.8032 474.9823,367.0425 473.0029,354.3679 469.4473,341.9232 464.3533,329.8498 457.7777,318.2849 449.7946,307.3598 440.4953,297.1983" stroke="#333" stroke-width="0.8" fill="none"/>
  <polyline points="432.9258,302.6961 423.159,294.3246 412.3935,286.8479 400.7471,280.3479 388.3475,274.896 375.3306,270.5518 361.8389,267.3629 348.0203,265.3642 334.0262,264.5777 320.0099,265.0119 306.125,266.6622 292.5235,269.5104 279.3546,273.5253 266.7624,278.6629 254.885,284.867 243.8525,292.0696 233.7858,300.1917 224.7951,309.1444 216.979,318.8296 210.423,329.1411 205.1991,339.9661 201.3645,351.1858 198.9611,362.6774 198.0153,374.315 198.5375,385.971 200.5219,397.5178 203.9469,408.8289 208.7748,419.7802 214.9528,430.2519 222.4131,440.1292 231.0742,449.3039 240.841,457.6754 251.6065,465.1521 263.2529,471.6521 275.6525,477.104 288.6694,481.4482 302.1611,484.6371 315.9797,486.6358 329.9738,487.4223 343.9901,486.9881 357.875,485.3378 371.4765,482.4896 384.6454,478.4747 397.2376,473.3371 409.115,467.133 420.1475,459.9304 430.2142,451.8083 439.2049,442.8556 447.021,433.1704 453.577,422.8589 458.8009,412.0339 462.6355,400.8142 465.0389,389.3226 465.9847,377.685 465.4625,366.029 463.4781,354.4822 460.0531,343.1711 455.2252,332.2198 449.0472,321.7481 441.5869,311.8708 432.9258,302.6961" stroke="#333" stroke-width="0.8" fill="none"/>
  <polyline points="440.4953,297.1983 429.9866,287.9152 418.3899,279.6147 405.8396,272.3892 392.4812,266.3185 378.4696,261.4681 363.9673,257.8891 349.142,255.6174 334.165,254.6733 319.2087,255.0612 304.4443,256.7698 290.0404,259.7723 276.1602,264.0268 262.96,269.477 250.587,276.0529 239.1778,283.6718 228.8569,292.2395 219.7351,301.6513 211.9084,311.7938 205.4569,322.546 200.4441,333.7811 196.9164,345.3678 194.9027,357.1721 194.4141,369.059 195.4443,380.8938 197.9698,392.5442 201.9501,403.8813 207.329,414.7811 214.0352,425.1263 221.983,434.8071 231.0742,443.7224 241.1988,451.781 252.2368,458.9023 264.0595,465.0171 276.5311,470.068 289.5105,474.0101 302.8526,476.8111 316.4103,478.4515 330.0356,478.9245 343.5818,478.2359 356.9047,476.404 369.864,473.4587 382.3246,469.4417 394.1584,464.4053 405.245,458.4117 415.4728,451.5327 424.7402,443.8483 432.9564,435.4463 440.042,426.4208 445.9297,416.8716 450.5649,406.9027 453.9057,396.622 455.9236,386.1396 456.6033,375.5668 455.9427,365.0154 453.9532,354.5964 450.659,344.4191 446.0971,334.5898 440.3168,325.2113 433.3791,316.3818 425.3564,308.1939" stroke="#333" stroke-width="0.8" fill="none"/>
  <polyline points="448.0647,291.7005 436.8141,281.5058 424.3864,272.3815 410.9322,264.4305 396.6149,257.7409 381.6087,252.3843 366.0957,248.4153 350.2638,245.8707 334.3039,244.7689 318.4074,245.1104 302.7637,246.8773 287.5573,250.0342 272.9659,254.5283 259.1575,260.2911 246.2889,267.2388 234.5031,275.2741 223.9281,284.2872 214.6752,294.1582 206.8378,304.758 200.4907,315.951 195.6891,327.5962 192.4684,339.5498 190.8443,351.6668 190.8129,363.803 192.3512,375.8167 195.4176,387.5707 199.9533,398.9337 205.8833,409.7821 213.1175,420.0008 221.5528,429.485 231.0742,438.141 241.5566,445.8867 252.8671,452.6525 264.8661,458.3821 277.4098,463.0319 290.3516,466.5719 303.5442,468.985 316.8409,470.2671 330.0974,470.4266 343.1736,469.4837 355.9344,467.4701 368.2514,464.4279 380.0038,460.4088 391.0793,455.4734 401.375,449.6903 410.798,443.1349 419.2661,435.8884 426.7078,428.0371 433.0629,419.6713 438.2825,410.8843 442.329,401.7715 445.176,392.4299 446.8083,382.9566 447.2219,373.4486 446.4229,364.0019 444.4284,354.7107 441.2649,345.667 436.969,336.9597 431.5863,328.6745 425.1714,320.8928 417.7869,313.6917" stroke="#333" stroke-width="0.8" fill="none"/>
  <polyline points="455.6341,286.2027 443.6417,275.0965 430.3829,265.1483 416.0247,256.4718 400.7487,249.1634 384.7478,243.3006 368.2241,238.9416 351.3855,236.1239 334.4427,234.8645 317.6062,235.1597 301.0831,236.9849 285.0742,240.2961 269.7716,245.0299 255.3551,251.1052 241.9908,258.4248 229.8283,266.8763 218.9992,276.335 209.6152,286.6651 201.7672,297.7222 195.5245,309.3559 190.934,321.4112 188.0203,333.7318 186.7859,346.1615 187.2118,358.5469 189.258,370.7395 192.8654,382.5971 197.9565,393.9862 204.4375,404.783 212.1999,414.8752 221.1227,424.163 231.0742,432.5595 241.9144,439.9923 253.4973,446.4028 265.6727,451.7471 278.2884,455.9959 291.1927,459.1337 304.2357,461.1589 317.2714,462.0827 330.1592,461.9287 342.7653,460.7316 354.9641,458.5363 366.6389,455.397 377.683,451.3758 388.0001,446.5416 397.505,440.969 406.1233,434.7371 413.7921,427.9284 420.4593,420.6278 426.0839,412.9217 430.6353,404.8969 434.093,396.6403 436.4462,388.2378 437.6931,379.7736 437.8404,371.3304 436.9032,362.9884 434.9035,354.825 431.8708,346.9149 427.8409,339.3297 422.8559,332.1376 416.9636,325.4038 410.2175,319.1895" stroke="#333" stroke-width="0.8" fill="none"/>
  <polyline points="402.6481,324.6873 410.2175,319.1895 417.7869,313.6917 425.3564,308.1939 432.9258,302.6961 440.4953,297.1983 448.0647,291.7005 455.6341,286.2027" stroke="#999" stroke-width="0.5" fill="none"/>
  <polyline points="362.7743,306.8867 365.9134,297.8029 369.0525,288.7192 372.1915,279.6355 375.3306,270.5518 378.4696,261.4681 381.6087,252.3843 384.7478,243.3006" stroke="#999" stroke-width="0.5" fill="none"/>
  <polyline points="312.8475,306.2319 311.1669,296.3395 309.4862,286.447 307.8056,276.5546 306.125,266.6622 304.4443,256.7698 302.7637,246.8773 301.0831,236.9849" stroke="#999" stroke-width="0.5" fill="none"/>
  <polyline points="262.5514,325.6606 257.8767,317.2629 253.202,308.8651 248.5272,300.4673 243.8525,292.0696 239.1778,283.6718 234.5031,275.2741 229.8283,266.8763" stroke="#999" stroke-width="0.5" fill="none"/>
  <polyline points="224.2193,364.7059 219.4642,358.5209 214.7092,352.336 209.9542,346.151 205.1991,339.9661 200.4441,333.7811 195.6891,327.5962 190.934,321.4112" stroke="#999" stroke-width="0.5" fill="none"/>
  <polyline points="210.7306,417.4121 208.1785,412.4385 205.6263,407.465 203.0741,402.4914 200.5219,397.5178 197.9698,392.5442 195.4176,387.5707 192.8654,382.5971" stroke="#999" stroke-width="0.5" fill="none"/>
  <polyline points="231.0742,471.6297 231.0742,466.0482 231.0742,460.4668 231.0742,454.8853 231.0742,449.3039 231.0742,443.7224 231.0742,438.141 231.0742,432.5595" stroke="#999" stroke-width="0.5" fill="none"/>
  <polyline points="285.305,511.2009 286.1461,503.7627 286.9872,496.3246 287.8283,488.8864 288.6694,481.4482 289.5105,474.0101 290.3516,466.5719 291.1927,459.1337" stroke="#999" stroke-width="0.5" fill="none"/>
  <polyline points="361.7563,521.0732 360.786,512.1393 359.8157,503.2055 358.8454,494.2716 357.875,485.3378 356.9047,476.404 355.9344,467.4701 354.9641,458.5363" stroke="#999" stroke-width="0.5" fill="none"/>
  <polyline points="438.8464,493.5214 434.1717,485.1237 429.4969,476.7259 424.8222,468.3282 420.1475,459.9304 415.4728,451.5327 410.798,443.1349 406.1233,434.7371" stroke="#999" stroke-width="0.5" fill="none"/>
  <polyline points="491.7447,432.5587 483.5087,427.4275 475.2728,422.2963 467.0368,417.1651 458.8009,412.0339 450.5649,406.9027 442.329,401.7715 434.093,396.6403" stroke="#999" stroke-width="0.5" fill="none"/>
  <polyline points="501.5775,354.0251 492.0526,354.1394 482.5278,354.2537 473.0029,354.3679 463.4781,354.4822 453.9532,354.5964 444.4284,354.7107 434.9035,354.825" stroke="#999" stroke-width="0.5" fill="none"/>
</g>
</g>
</svg>