<svg xmlns="http://www.w3.org/2000/svg" width="800" height="800" viewBox="0 0 800 800">
  <g opacity="0.97">
  <g>
  <line x1="308" y1="342" x2="596" y2="342" stroke="#333" stroke-width="1.5"/>
  <line x1="305.4068" y1="356.7069" x2="576.0383" y2="455.2087" stroke="#333" stroke-width="1.5"/>
  <line x1="297.9399" y1="369.6399" x2="518.5607" y2="554.7627" stroke="#333" stroke-width="1.5"/>
  <line x1="286.5" y1="379.2391" x2="430.5" y2="628.6544" stroke="#333" stroke-width="1.5"/>
  <line x1="272.4669" y1="384.3467" x2="322.4775" y2="667.9714" stroke="#333" stroke-width="1.5"/>
  <line x1="257.5331" y1="384.3467" x2="207.5225" y2="667.9714" stroke="#333" stroke-width="1.5"/>
  <line x1="243.5" y1="379.2391" x2="99.5" y2="628.6544" stroke="#333" stroke-width="1.5"/>
  <line x1="232.0601" y1="369.6399" x2="11.4393" y2="554.7627" stroke="#333" stroke-width="1.5"/>
  <line x1="224.5932" y1="356.7069" x2="-46.0383" y2="455.2087" stroke="#333" stroke-width="1.5"/>
  <line x1="222" y1="342" x2="-66" y2="342" stroke="#333" stroke-width="1.5"/>
  <line x1="224.5932" y1="327.2931" x2="-46.0383" y2="228.7913" stroke="#333" stroke-width="1.5"/>
  <line x1="232.0601" y1="314.3601" x2="11.4393" y2="129.2373" stroke="#333" stroke-width="1.5"/>
  <line x1="243.5" y1="304.7609" x2="99.5" y2="55.3456" stroke="#333" stroke-width="1.5"/>
  <line x1="257.5331" y1="299.6533" x2="207.5225" y2="16.0286" stroke="#333" stroke-width="1.5"/>
  <line x1="272.4669" y1="299.6533" x2="322.4775" y2="16.0286" stroke="#333" stroke-width="1.5"/>
  <line x1="286.5" y1="304.7609" x2="430.5" y2="55.3456" stroke="#333" stroke-width="1.5"/>
  <line x1="297.9399" y1="314.3601" x2="518.5607" y2="129.2373" stroke="#333" stroke-width="1.5"/>
  <line x1="305.4068" y1="327.2931" x2="576.0383" y2="228.7913" stroke="#333" stroke-width="1.5"/>
</g>
</g>
  <g opacity="0.93">
  <g>
  <polygon points="396,547 436,547 436,587" fill="none" stroke="#333" stroke-width="1"/>
  <polygon points="396,547 436,587 407.7157,615.2843" fill="none" stroke="#333" stroke-width="1"/>
  <polygon points="396,547 407.7157,615.2843 368.2918,622.0484" fill="none" stroke="#333" stroke-width="1"/>
  <polygon points="396,547 368.2918,622.0484 330.7676,608.1942" fill="none" stroke="#333" stroke-width="1"/>
  <polygon points="396,547 330.7676,608.1942 303.4007,579.0214" fill="none" stroke="#333" stroke-width="1"/>
  <polygon points="396,547 303.4007,579.0214 290.328,541.2179" fill="none" stroke="#333" stroke-width="1"/>
  <polygon points="396,547 290.328,541.2179 292.5134,501.2777" fill="none" stroke="#333" stroke-width="1"/>
  <polygon points="396,547 292.5134,501.2777 308.6787,464.6897" fill="none" stroke="#333" stroke-width="1"/>
  <polygon points="396,547 308.6787,464.6897 336.1155,435.5826" fill="none" stroke="#333" stroke-width="1"/>
  <polygon points="396,547 336.1155,435.5826 371.3488,416.6454" fill="none" stroke="#333" stroke-width="1"/>
  <polygon points="396,547 371.3488,416.6454 410.6522,409.2128" fill="none" stroke="#333" stroke-width="1"/>
  <polygon points="396,547 410.6522,409.2128 450.4279,413.4425" fill="none" stroke="#333" stroke-width="1"/>
  <polygon points="396,547 450.4279,413.4425 487.4701,428.5381" fill="none" stroke="#333" stroke-width="1"/>
  <polygon points="396,547 487.4701,428.5381 519.1304,452.9845" fill="none" stroke="#333" stroke-width="1"/>
  <polygon points="396,547 519.1304,452.9845 543.4051,484.7766" fill="none" stroke="#333" stroke-width="1"/>
  <polygon points="396,547 543.4051,484.7766 558.9609,521.6279" fill="none" stroke="#333" stroke-width="1"/>
  <polygon points="396,547 558.9609,521.6279 565.1145,561.1517" fill="none" stroke="#333" stroke-width="1"/>
  <polygon points="396,547 565.1145,561.1517 561.7789,601.0124" fill="none" stroke="#333" stroke-width="1"/>
  <polygon points="396,547 561.7789,601.0124 549.3877,639.0447" fill="none" stroke="#333" stroke-width="1"/>
  <polygon points="396,547 549.3877,639.0447 528.8058,673.3432" fill="none" stroke="#333" stroke-width="1"/>
</g>
</g>
  <polygon points="306,439 333.5727,447.0961 352.3912,468.8138 356.4809,497.2581 344.5432,523.3979 320.3684,538.9341 291.6316,538.9341 267.4568,523.3979 255.5191,497.2581 259.6088,468.8138 278.4273,447.0961" fill="none" stroke="#333" stroke-width="1.5"/>
  <g transform="rotate(164.4,400,400)">
  <g>
  <circle cx="449" cy="357" r="133" fill="none" stroke="#333" stroke-width="1"/>
  <circle cx="449" cy="357" r="82.1985" fill="none" stroke="#333" stroke-width="1"/>
  <circle cx="449" cy="357" r="50.8015" fill="none" stroke="#333" stroke-width="1"/>
  <circle cx="449" cy="357" r="31.397" fill="none" stroke="#333" stroke-width="1"/>
  <circle cx="449" cy="357" r="19.4044" fill="none" stroke="#333" stroke-width="1"/>
  <circle cx="449" cy="357" r="11.9926" fill="none" stroke="#333" stroke-width="1"/>
  <circle cx="449" cy="357" r="7.4118" fill="none" stroke="#333" stroke-width="1"/>
</g>
</g>
  <g transform="rotate(159.0,400,400)">
  <g>
  <line x1="358" y1="320.2784" x2="530.5324" y2="234" stroke="#333" stroke-width="1.5" fill="none"/>
  <line x1="358" y1="320.2784" x2="358" y2="564.2784" stroke="#333" stroke-width="1.5" fill="none"/>
  <line x1="358" y1="320.2784" x2="185.4676" y2="234" stroke="#333" stroke-width="1.5" fill="none"/>
  <line x1="530.5324" y1="234" x2="530.5324" y2="478" stroke="#333" stroke-width="1.5" fill="none"/>
  <line x1="530.5324" y1="234" x2="358" y2="147.7216" stroke="#333" stroke-width="1.5" fill="none"/>
  <line x1="358" y1="564.2784" x2="530.5324" y2="478" stroke="#333" stroke-width="1.5" fill="none"/>
  <line x1="358" y1="564.2784" x2="185.4676" y2="478" stroke="#333" stroke-width="1.5" fill="none"/>
  <line x1="530.5324" y1="478" x2="358" y2="391.7216" stroke="#333" stroke-width="1.5" fill="none"/>
  <line x1="185.4676" y1="234" x2="358" y2="147.7216" stroke="#333" stroke-width="1.5" fill="none"/>
  <line x1="185.4676" y1="234" x2="185.4676" y2="478" stroke="#333" stroke-width="1.5" fill="none"/>
  <line x1="358" y1="147.7216" x2="358" y2="391.7216" stroke="#333" stroke-width="1.5" fill="none"/>
  <line x1="185.4676" y1="478" x2="358" y2="391.7216" stroke="#333" stroke-width="1.5" fill="none"/>
  <line x1="358" y1="333.9228" x2="464.6309" y2="280.5999" stroke="#333" stroke-width="1.5" fill="none"/>
  <line x1="358" y1="333.9228" x2="358" y2="484.7231" stroke="#333" stroke-width="1.5" fill="none"/>
  <line x1="358" y1="333.9228" x2="251.3691" y2="280.5999" stroke="#333" stroke-width="1.5" fill="none"/>
  <line x1="464.6309" y1="280.5999" x2="464.6309" y2="431.4001" stroke="#333" stroke-width="1.5" fill="none"/>
  <line x1="464.6309" y1="280.5999" x2="358" y2="227.2769" stroke="#333" stroke-width="1.5" fill="none"/>
  <line x1="358" y1="484.7231" x2="464.6309" y2="431.4001" stroke="#333" stroke-width="1.5" fill="none"/>
  <line x1="358" y1="484.7231" x2="251.3691" y2="431.4001" stroke="#333" stroke-width="1.5" fill="none"/>
  <line x1="464.6309" y1="431.4001" x2="358" y2="378.0772" stroke="#333" stroke-width="1.5" fill="none"/>
  <line x1="251.3691" y1="280.5999" x2="358" y2="227.2769" stroke="#333" stroke-width="1.5" fill="none"/>
  <line x1="251.3691" y1="280.5999" x2="251.3691" y2="431.4001" stroke="#333" stroke-width="1.5" fill="none"/>
  <line x1="358" y1="227.2769" x2="358" y2="378.0772" stroke="#333" stroke-width="1.5" fill="none"/>
  <line x1="251.3691" y1="431.4001" x2="358" y2="378.0772" stroke="#333" stroke-width="1.5" fill="none"/>
  <line x1="358" y1="320.2784" x2="358" y2="333.9228" stroke="#999" stroke-width="1" fill="none"/>
  <line x1="530.5324" y1="234" x2="464.6309" y2="280.5999" stroke="#999" stroke-width="1" fill="none"/>
  <line x1="358" y1="564.2784" x2="358" y2="484.7231" stroke="#999" stroke-width="1" fill="none"/>
  <line x1="530.5324" y1="478" x2="464.6309" y2="431.4001" stroke="#999" stroke-width="1" fill="none"/>
  <line x1="185.4676" y1="234" x2="251.3691" y2="280.5999" stroke="#999" stroke-width="1" fill="none"/>
  <line x1="358" y1="147.7216" x2="358" y2="227.2769" stroke="#999" stroke-width="1" fill="none"/>
  <line x1="185.4676" y1="478" x2="251.3691" y2="431.4001" stroke="#999" stroke-width="1" fill="none"/>
  <line x1="358" y1="391.7216" x2="358" y2="378.0772" stroke="#999" stroke-width="1" fill="none"/>
</g>
</g>
</svg>