<svg xmlns="http://www.w3.org/2000/svg" width="800" height="800" viewBox="0 0 800 800">
  <g>
  <line x1="451" y1="337" x2="512" y2="337" stroke="#999" stroke-width="0.5"/>
  <line x1="451" y1="337" x2="481.5" y2="389.8275" stroke="#999" stroke-width="0.5"/>
  <line x1="451" y1="337" x2="420.5" y2="389.8275" stroke="#999" stroke-width="0.5"/>
  <line x1="451" y1="337" x2="390" y2="337" stroke="#999" stroke-width="0.5"/>
  <line x1="451" y1="337" x2="420.5" y2="284.1725" stroke="#999" stroke-width="0.5"/>
  <line x1="451" y1="337" x2="481.5" y2="284.1725" stroke="#999" stroke-width="0.5"/>
  <line x1="451" y1="337" x2="556.6551" y2="398" stroke="#999" stroke-width="0.5"/>
  <line x1="451" y1="337" x2="451" y2="459" stroke="#999" stroke-width="0.5"/>
  <line x1="451" y1="337" x2="345.3449" y2="398" stroke="#999" stroke-width="0.5"/>
  <line x1="451" y1="337" x2="345.3449" y2="276" stroke="#999" stroke-width="0.5"/>
  <line x1="451" y1="337" x2="451" y2="215" stroke="#999" stroke-width="0.5"/>
  <line x1="451" y1="337" x2="556.6551" y2="276" stroke="#999" stroke-width="0.5"/>
  <line x1="512" y1="337" x2="481.5" y2="389.8275" stroke="#999" stroke-width="0.5"/>
  <line x1="512" y1="337" x2="420.5" y2="389.8275" stroke="#999" stroke-width="0.5"/>
  <line x1="512" y1="337" x2="390" y2="337" stroke="#999" stroke-width="0.5"/>
  <line x1="512" y1="337" x2="420.5" y2="284.1725" stroke="#999" stroke-width="0.5"/>
  <line x1="512" y1="337" x2="481.5" y2="284.1725" stroke="#999" stroke-width="0.5"/>
  <line x1="512" y1="337" x2="556.6551" y2="398" stroke="#999" stroke-width="0.5"/>
  <line x1="512" y1="337" x2="451" y2="459" stroke="#999" stroke-width="0.5"/>
  <line x1="512" y1="337" x2="345.3449" y2="398" stroke="#999" stroke-width="0.5"/>
  <line x1="512" y1="337" x2="345.3449" y2="276" stroke="#999" stroke-width="0.5"/>
  <line x1="512" y1="337" x2="451" y2="215" stroke="#999" stroke-width="0.5"/>
  <line x1="512" y1="337" x2="556.6551" y2="276" stroke="#999" stroke-width="0.5"/>
  <line x1="481.5" y1="389.8275" x2="420.5" y2="389.8275" stroke="#999" stroke-width="0.5"/>
  <line x1="481.5" y1="389.8275" x2="390" y2="337" stroke="#999" stroke-width="0.5"/>
  <line x1="481.5" y1="389.8275" x2="420.5" y2="284.1725" stroke="#999" stroke-width="0.5"/>
  <line x1="481.5" y1="389.8275" x2="481.5" y2="284.1725" stroke="#999" stroke-width="0.5"/>
  <line x1="481.5" y1="389.8275" x2="556.6551" y2="398" stroke="#999" stroke-width="0.5"/>
  <line x1="481.5" y1="389.8275" x2="451" y2="459" stroke="#999" stroke-width="0.5"/>
  <line x1="481.5" y1="389.8275" x2="345.3449" y2="398" stroke="#999" stroke-width="0.5"/>
  <line x1="481.5" y1="389.8275" x2="345.3449" y2="276" stroke="#999" stroke-width="0.5"/>
  <line x1="481.5" y1="389.8275" x2="451" y2="215" stroke="#999" stroke-width="0.5"/>
  <line x1="481.5" y1="389.8275" x2="556.6551" y2="276" stroke="#999" stroke-width="0.5"/>
  <line x1="420.5" y1="389.8275" x2="390" y2="337" stroke="#999" stroke-width="0.5"/>
  <line x1="420.5" y1="389.8275" x2="420.5" y2="284.1725" stroke="#999" stroke-width="0.5"/>
  <line x1="420.5" y1="389.8275" x2="481.5" y2="284.1725" stroke="#999" stroke-width="0.5"/>
  <line x1="420.5" y1="389.8275" x2="556.6551" y2="398" stroke="#999" stroke-width="0.5"/>
  <line x1="420.5" y1="389.8275" x2="451" y2="459" stroke="#999" stroke-width="0.5"/>
  <line x1="420.5" y1="389.8275" x2="345.3449" y2="398" stroke="#999" stroke-width="0.5"/>
  <line x1="420.5" y1="389.8275" x2="345.3449" y2="276" stroke="#999" stroke-width="0.5"/>
  <line x1="420.5" y1="389.8275" x2="451" y2="215" stroke="#999" stroke-width="0.5"/>
  <line x1="420.5" y1="389.8275" x2="556.6551" y2="276" stroke="#999" stroke-width="0.5"/>
  <line x1="390" y1="337" x2="420.5" y2="284.1725" stroke="#999" stroke-width="0.5"/>
  <line x1="390" y1="337" x2="481.5" y2="284.1725" stroke="#999" stroke-width="0.5"/>
  <line x1="390" y1="337" x2="556.6551" y2="398" stroke="#999" stroke-width="0.5"/>
  <line x1="390" y1="337" x2="451" y2="459" stroke="#999" stroke-width="0.5"/>
  <line x1="390" y1="337" x2="345.3449" y2="398" stroke="#999" stroke-width="0.5"/>
  <line x1="390" y1="337" x2="345.3449" y2="276" stroke="#999" stroke-width="0.5"/>
  <line x1="390" y1="337" x2="451" y2="215" stroke="#999" stroke-width="0.5"/>
  <line x1="390" y1="337" x2="556.6551" y2="276" stroke="#999" stroke-width="0.5"/>
  <line x1="420.5" y1="284.1725" x2="481.5" y2="284.1725" stroke="#999" stroke-width="0.5"/>
  <line x1="420.5" y1="284.1725" x2="556.6551" y2="398" stroke="#999" stroke-width="0.5"/>
  <line x1="420.5" y1="284.1725" x2="451" y2="459" stroke="#999" stroke-width="0.5"/>
  <line x1="420.5" y1="284.1725" x2="345.3449" y2="398" stroke="#999" stroke-width="0.5"/>
  <line x1="420.5" y1="284.1725" x2="345.3449" y2="276" stroke="#999" stroke-width="0.5"/>
  <line x1="420.5" y1="284.1725" x2="451" y2="215" stroke="#999" stroke-width="0.5"/>
  <line x1="420.5" y1="284.1725" x2="556.6551" y2="276" stroke="#999" stroke-width="0.5"/>
  <line x1="481.5" y1="284.1725" x2="556.6551" y2="398" stroke="#999" stroke-width="0.5"/>
  <line x1="481.5" y1="284.1725" x2="451" y2="459" stroke="#999" stroke-width="0.5"/>
  <line x1="481.5" y1="284.1725" x2="345.3449" y2="398" stroke="#999" stroke-width="0.5"/>
  <line x1="481.5" y1="284.1725" x2="345.3449" y2="276" stroke="#999" stroke-width="0.5"/>
  <line x1="481.5" y1="284.1725" x2="451" y2="215" stroke="#999" stroke-width="0.5"/>
  <line x1="481.5" y1="284.1725" x2="556.6551" y2="276" stroke="#999" stroke-width="0.5"/>
  <line x1="556.6551" y1="398" x2="451" y2="459" stroke="#999" stroke-width="0.5"/>
  <line x1="556.6551" y1="398" x2="345.3449" y2="398" stroke="#999" stroke-width="0.5"/>
  <line x1="556.6551" y1="398" x2="345.3449" y2="276" stroke="#999" stroke-width="0.5"/>
  <line x1="556.6551" y1="398" x2="451" y2="215" stroke="#999" stroke-width="0.5"/>
  <line x1="556.6551" y1="398" x2="556.6551" y2="276" stroke="#999" stroke-width="0.5"/>
  <line x1="451" y1="459" x2="345.3449" y2="398" stroke="#999" stroke-width="0.5"/>
  <line x1="451" y1="459" x2="345.3449" y2="276" stroke="#999" stroke-width="0.5"/>
  <line x1="451" y1="459" x2="451" y2="215" stroke="#999" stroke-width="0.5"/>
  <line x1="451" y1="459" x2="556.6551" y2="276" stroke="#999" stroke-width="0.5"/>
  <line x1="345.3449" y1="398" x2="345.3449" y2="276" stroke="#999" stroke-width="0.5"/>
  <line x1="345.3449" y1="398" x2="451" y2="215" stroke="#999" stroke-width="0.5"/>
  <line x1="345.3449" y1="398" x2="556.6551" y2="276" stroke="#999" stroke-width="0.5"/>
  <line x1="345.3449" y1="276" x2="451" y2="215" stroke="#999" stroke-width="0.5"/>
  <line x1="345.3449" y1="276" x2="556.6551" y2="276" stroke="#999" stroke-width="0.5"/>
  <line x1="451" y1="215" x2="556.6551" y2="276" stroke="#999" stroke-width="0.5"/>
  <circle cx="451" cy="337" r="9.15" fill="none" stroke="#333" stroke-width="1"/>
  <circle cx="512" cy="337" r="9.15" fill="none" stroke="#333" stroke-width="1"/>
  <circle cx="481.5" cy="389.8275" r="9.15" fill="none" stroke="#333" stroke-width="1"/>
  <circle cx="420.5" cy="389.8275" r="9.15" fill="none" stroke="#333" stroke-width="1"/>
  <circle cx="390" cy="337" r="9.15" fill="none" stroke="#333" stroke-width="1"/>
  <circle cx="420.5" cy="284.1725" r="9.15" fill="none" stroke="#333" stroke-width="1"/>
  <circle cx="481.5" cy="284.1725" r="9.15" fill="none" stroke="#333" stroke-width="1"/>
  <circle cx="556.6551" cy="398" r="9.15" fill="none" stroke="#333" stroke-width="1"/>
  <circle cx="451" cy="459" r="9.15" fill="none" stroke="#333" stroke-width="1"/>
  <circle cx="345.3449" cy="398" r="9.15" fill="none" stroke="#333" stroke-width="1"/>
  <circle cx="345.3449" cy="276" r="9.15" fill="none" stroke="#333" stroke-width="1"/>
  <circle cx="451" cy="215" r="9.15" fill="none" stroke="#333" stroke-width="1"/>
  <circle cx="556.6551" cy="276" r="9.15" fill="none" stroke="#333" stroke-width="1"/>
</g>
  <g>
  <line x1="378.8" y1="380" x2="576" y2="380" stroke="#8B4513" stroke-width="1.5"/>
  <circle cx="413.6" cy="380" r="2.5" fill="#8B4513" stroke="#fff" stroke-width="0.5"/>
  <circle cx="453.9825" cy="373.0805" r="3" fill="#8B4513" stroke="#fff" stroke-width="0.5"/>
  <circle cx="493.6109" cy="361.0997" r="3.5" fill="#8B4513" stroke="#fff" stroke-width="0.5"/>
  <circle cx="532.0098" cy="344.1352" r="4" fill="#8B4513" stroke="#fff" stroke-width="0.5"/>
  <circle cx="568.7113" cy="322.3039" r="4.5" fill="#8B4513" stroke="#fff" stroke-width="0.5"/>
  <line x1="374.1377" y1="362.6" x2="544.9179" y2="264" stroke="#DC143C" stroke-width="1.5"/>
  <circle cx="404.2754" cy="345.2" r="2.5" fill="#DC143C" stroke="#fff" stroke-width="0.5"/>
  <circle cx="435.7879" cy="319.0163" r="3" fill="#DC143C" stroke="#fff" stroke-width="0.5"/>
  <circle cx="464.1167" cy="288.8265" r="3.5" fill="#DC143C" stroke="#fff" stroke-width="0.5"/>
  <circle cx="488.8889" cy="254.9353" r="4" fill="#DC143C" stroke="#fff" stroke-width="0.5"/>
  <circle cx="509.7577" cy="217.6781" r="4.5" fill="#DC143C" stroke="#fff" stroke-width="0.5"/>
  <line x1="361.4" y1="349.8623" x2="460" y2="179.0821" stroke="#4169E1" stroke-width="1.5"/>
  <circle cx="378.8" cy="319.7246" r="2.5" fill="#4169E1" stroke="#fff" stroke-width="0.5"/>
  <circle cx="392.9988" cy="281.2926" r="3" fill="#4169E1" stroke="#fff" stroke-width="0.5"/>
  <circle cx="402.4374" cy="240.983" r="3.5" fill="#4169E1" stroke="#fff" stroke-width="0.5"/>
  <circle cx="406.9451" cy="199.2464" r="4" fill="#4169E1" stroke="#fff" stroke-width="0.5"/>
  <circle cx="406.3894" cy="156.5463" r="4.5" fill="#4169E1" stroke="#fff" stroke-width="0.5"/>
  <line x1="344" y1="345.2" x2="344" y2="148" stroke="#228B22" stroke-width="1.5"/>
  <circle cx="344" cy="310.4" r="2.5" fill="#228B22" stroke="#fff" stroke-width="0.5"/>
  <circle cx="337.0805" cy="270.0175" r="3" fill="#228B22" stroke="#fff" stroke-width="0.5"/>
  <circle cx="325.0997" cy="230.3891" r="3.5" fill="#228B22" stroke="#fff" stroke-width="0.5"/>
  <circle cx="308.1352" cy="191.9902" r="4" fill="#228B22" stroke="#fff" stroke-width="0.5"/>
  <circle cx="286.3039" cy="155.2887" r="4.5" fill="#228B22" stroke="#fff" stroke-width="0.5"/>
  <line x1="326.6" y1="349.8623" x2="228" y2="179.0821" stroke="#8B4513" stroke-width="1.5"/>
  <circle cx="309.2" cy="319.7246" r="2.5" fill="#8B4513" stroke="#fff" stroke-width="0.5"/>
  <circle cx="283.0163" cy="288.2121" r="3" fill="#8B4513" stroke="#fff" stroke-width="0.5"/>
  <circle cx="252.8265" cy="259.8833" r="3.5" fill="#8B4513" stroke="#fff" stroke-width="0.5"/>
  <circle cx="218.9353" cy="235.1111" r="4" fill="#8B4513" stroke="#fff" stroke-width="0.5"/>
  <circle cx="181.6781" cy="214.2423" r="4.5" fill="#8B4513" stroke="#fff" stroke-width="0.5"/>
  <line x1="313.8623" y1="362.6" x2="143.0821" y2="264" stroke="#DC143C" stroke-width="1.5"/>
  <circle cx="283.7246" cy="345.2" r="2.5" fill="#DC143C" stroke="#fff" stroke-width="0.5"/>
  <circle cx="245.2926" cy="331.0012" r="3" fill="#DC143C" stroke="#fff" stroke-width="0.5"/>
  <circle cx="204.983" cy="321.5626" r="3.5" fill="#DC143C" stroke="#fff" stroke-width="0.5"/>
  <circle cx="163.2464" cy="317.0549" r="4" fill="#DC143C" stroke="#fff" stroke-width="0.5"/>
  <circle cx="120.5463" cy="317.6106" r="4.5" fill="#DC143C" stroke="#fff" stroke-width="0.5"/>
  <line x1="309.2" y1="380" x2="112" y2="380" stroke="#4169E1" stroke-width="1.5"/>
  <circle cx="274.4" cy="380" r="2.5" fill="#4169E1" stroke="#fff" stroke-width="0.5"/>
  <circle cx="234.0175" cy="386.9195" r="3" fill="#4169E1" stroke="#fff" stroke-width="0.5"/>
  <circle cx="194.3891" cy="398.9003" r="3.5" fill="#4169E1" stroke="#fff" stroke-width="0.5"/>
  <circle cx="155.9902" cy="415.8648" r="4" fill="#4169E1" stroke="#fff" stroke-width="0.5"/>
  <circle cx="119.2887" cy="437.6961" r="4.5" fill="#4169E1" stroke="#fff" stroke-width="0.5"/>
  <line x1="313.8623" y1="397.4" x2="143.0821" y2="496" stroke="#228B22" stroke-width="1.5"/>
  <circle cx="283.7246" cy="414.8" r="2.5" fill="#228B22" stroke="#fff" stroke-width="0.5"/>
  <circle cx="252.2121" cy="440.9837" r="3" fill="#228B22" stroke="#fff" stroke-width="0.5"/>
  <circle cx="223.8833" cy="471.1735" r="3.5" fill="#228B22" stroke="#fff" stroke-width="0.5"/>
  <circle cx="199.1111" cy="505.0647" r="4" fill="#228B22" stroke="#fff" stroke-width="0.5"/>
  <circle cx="178.2423" cy="542.3219" r="4.5" fill="#228B22" stroke="#fff" stroke-width="0.5"/>
  <line x1="326.6" y1="410.1377" x2="228" y2="580.9179" stroke="#8B4513" stroke-width="1.5"/>
  <circle cx="309.2" cy="440.2754" r="2.5" fill="#8B4513" stroke="#fff" stroke-width="0.5"/>
  <circle cx="295.0012" cy="478.7074" r="3" fill="#8B4513" stroke="#fff" stroke-width="0.5"/>
  <circle cx="285.5626" cy="519.017" r="3.5" fill="#8B4513" stroke="#fff" stroke-width="0.5"/>
  <circle cx="281.0549" cy="560.7536" r="4" fill="#8B4513" stroke="#fff" stroke-width="0.5"/>
  <circle cx="281.6106" cy="603.4537" r="4.5" fill="#8B4513" stroke="#fff" stroke-width="0.5"/>
  <line x1="344" y1="414.8" x2="344" y2="612" stroke="#DC143C" stroke-width="1.5"/>
  <circle cx="344" cy="449.6" r="2.5" fill="#DC143C" stroke="#fff" stroke-width="0.5"/>
  <circle cx="350.9195" cy="489.9825" r="3" fill="#DC143C" stroke="#fff" stroke-width="0.5"/>
  <circle cx="362.9003" cy="529.6109" r="3.5" fill="#DC143C" stroke="#fff" stroke-width="0.5"/>
  <circle cx="379.8648" cy="568.0098" r="4" fill="#DC143C" stroke="#fff" stroke-width="0.5"/>
  <circle cx="401.6961" cy="604.7113" r="4.5" fill="#DC143C" stroke="#fff" stroke-width="0.5"/>
  <line x1="361.4" y1="410.1377" x2="460" y2="580.9179" stroke="#4169E1" stroke-width="1.5"/>
  <circle cx="378.8" cy="440.2754" r="2.5" fill="#4169E1" stroke="#fff" stroke-width="0.5"/>
  <circle cx="404.9837" cy="471.7879" r="3" fill="#4169E1" stroke="#fff" stroke-width="0.5"/>
  <circle cx="435.1735" cy="500.1167" r="3.5" fill="#4169E1" stroke="#fff" stroke-width="0.5"/>
  <circle cx="469.0647" cy="524.8889" r="4" fill="#4169E1" stroke="#fff" stroke-width="0.5"/>
  <circle cx="506.3219" cy="545.7577" r="4.5" fill="#4169E1" stroke="#fff" stroke-width="0.5"/>
  <line x1="374.1377" y1="397.4" x2="544.9179" y2="496" stroke="#228B22" stroke-width="1.5"/>
  <circle cx="404.2754" cy="414.8" r="2.5" fill="#228B22" stroke="#fff" stroke-width="0.5"/>
  <circle cx="442.7074" cy="428.9988" r="3" fill="#228B22" stroke="#fff" stroke-width="0.5"/>
  <circle cx="483.017" cy="438.4374" r="3.5" fill="#228B22" stroke="#fff" stroke-width="0.5"/>
  <circle cx="524.7536" cy="442.9451" r="4" fill="#228B22" stroke="#fff" stroke-width="0.5"/>
  <circle cx="567.4537" cy="442.3894" r="4.5" fill="#228B22" stroke="#fff" stroke-width="0.5"/>
  <text x="586" y="384" font-size="9" fill="#555">A1</text>
  <text x="552.9083" y="260.5" font-size="9" fill="#555">A2</text>
  <text x="462.5" y="170.0917" font-size="9" fill="#555">A3</text>
  <text x="339" y="137" font-size="9" fill="#555">A4</text>
  <text x="215.5" y="170.0917" font-size="9" fill="#555">A5</text>
  <text x="125.0917" y="260.5" font-size="9" fill="#555">A6</text>
  <text x="92" y="384" font-size="9" fill="#555">A7</text>
  <text x="125.0917" y="507.5" font-size="9" fill="#555">A8</text>
  <text x="215.5" y="597.9083" font-size="9" fill="#555">A9</text>
  <text x="339" y="631" font-size="9" fill="#555">A10</text>
  <text x="462.5" y="597.9083" font-size="9" fill="#555">A11</text>
  <text x="552.9083" y="507.5" font-size="9" fill="#555">A12</text>
</g>
  <g opacity="0.76">
  <g>
  <circle cx="509" cy="439" r="70" stroke="#333" stroke-width="2" fill="#333" fill-opacity="0.05"/>
  <circle cx="509" cy="383" r="5.6" fill="#333" stroke="#fff" stroke-width="1"/>
  <text x="506" y="387" font-size="9" fill="#fff" font-weight="bold">1</text>
  <circle cx="557.4974" cy="411" r="5.6" fill="#333" stroke="#fff" stroke-width="1"/>
  <text x="554.4974" y="415" font-size="9" fill="#fff" font-weight="bold">2</text>
  <circle cx="557.4974" cy="467" r="5.6" fill="#333" stroke="#fff" stroke-width="1"/>
  <text x="554.4974" y="471" font-size="9" fill="#fff" font-weight="bold">3</text>
  <circle cx="509" cy="495" r="5.6" fill="#333" stroke="#fff" stroke-width="1"/>
  <text x="506" y="499" font-size="9" fill="#fff" font-weight="bold">4</text>
  <circle cx="460.5026" cy="467" r="5.6" fill="#333" stroke="#fff" stroke-width="1"/>
  <text x="457.5026" y="471" font-size="9" fill="#fff" font-weight="bold">5</text>
  <circle cx="460.5026" cy="411" r="5.6" fill="#333" stroke="#fff" stroke-width="1"/>
  <text x="457.5026" y="415" font-size="9" fill="#fff" font-weight="bold">6</text>
  <path d="M 509,383 Q 538.4,388.0777 557.4974,411" stroke="#333" stroke-width="1" fill="none"/>
  <path d="M 557.4974,411 Q 567.8,439 557.4974,467" stroke="#333" stroke-width="1" fill="none"/>
  <path d="M 557.4974,467 Q 538.4,489.9223 509,495" stroke="#333" stroke-width="1" fill="none"/>
  <path d="M 509,495 Q 479.6,489.9223 460.5026,467" stroke="#333" stroke-width="1" fill="none"/>
  <path d="M 460.5026,467 Q 450.2,439 460.5026,411" stroke="#333" stroke-width="1" fill="none"/>
  <path d="M 460.5026,411 Q 538.4,489.9223 509,383" stroke="#333" stroke-width="1" fill="none"/>
  <text x="501" y="443" font-size="14" fill="#333" font-weight="bold">W6</text>
</g>
</g>
  <g opacity="0.78">
  <g>
  <polygon points="576.1326,746.6384 766.4076,678.5467 812.752,719.0525 651.1194,812.1781 504.8806,829.2272" stroke="#333" stroke-width="1.2" fill="#8B4513" fill-opacity="0.3"/>
  <polygon points="576.1326,746.6384 766.4076,678.5467 766.4076,474.804 576.1326,416.9758 458.5362,584.9787" stroke="#333" stroke-width="1.2" fill="#DC143C" fill-opacity="0.3"/>
  <polygon points="576.1326,746.6384 504.8806,829.2272 343.248,718.6101 314.6056,567.6562 458.5362,584.9787" stroke="#333" stroke-width="1.2" fill="#4169E1" fill-opacity="0.3"/>
  <polygon points="576.1326,416.9758 458.5362,584.9787 314.6056,567.6562 343.248,388.9475 504.8806,295.8219" stroke="#333" stroke-width="1.2" fill="#228B22" fill-opacity="0.3"/>
  <polygon points="576.1326,416.9758 766.4076,474.804 812.752,389.3899 651.1194,278.7728 504.8806,295.8219" stroke="#333" stroke-width="1.2" fill="#8B4513" fill-opacity="0.3"/>
  <polygon points="343.248,718.6101 504.8806,829.2272 651.1194,812.1781 579.8674,691.0242 389.5924,633.196" stroke="#333" stroke-width="1.2" fill="#DC143C" fill-opacity="0.3"/>
  <polygon points="343.248,718.6101 314.6056,567.6562 343.248,388.9475 389.5924,429.4533 389.5924,633.196" stroke="#333" stroke-width="1.2" fill="#4169E1" fill-opacity="0.3"/>
  <polygon points="343.248,388.9475 504.8806,295.8219 651.1194,278.7728 579.8674,361.3616 389.5924,429.4533" stroke="#333" stroke-width="1.2" fill="#228B22" fill-opacity="0.3"/>
  <polygon points="812.752,719.0525 766.4076,678.5467 766.4076,474.804 812.752,389.3899 841.3944,540.3438" stroke="#333" stroke-width="1.2" fill="#8B4513" fill-opacity="0.3"/>
  <polygon points="812.752,719.0525 651.1194,812.1781 579.8674,691.0242 697.4638,523.0213 841.3944,540.3438" stroke="#333" stroke-width="1.2" fill="#DC143C" fill-opacity="0.3"/>
  <polygon points="812.752,389.3899 841.3944,540.3438 697.4638,523.0213 579.8674,361.3616 651.1194,278.7728" stroke="#333" stroke-width="1.2" fill="#4169E1" fill-opacity="0.3"/>
  <polygon points="579.8674,691.0242 389.5924,633.196 389.5924,429.4533 579.8674,361.3616 697.4638,523.0213" stroke="#333" stroke-width="1.2" fill="#228B22" fill-opacity="0.3"/>
  <line x1="576.1326" y1="746.6384" x2="766.4076" y2="678.5467" stroke="#333" stroke-width="1.2" fill="none"/>
  <line x1="576.1326" y1="746.6384" x2="504.8806" y2="829.2272" stroke="#333" stroke-width="1.2" fill="none"/>
  <line x1="576.1326" y1="746.6384" x2="458.5362" y2="584.9787" stroke="#333" stroke-width="1.2" fill="none"/>
  <line x1="576.1326" y1="416.9758" x2="458.5362" y2="584.9787" stroke="#333" stroke-width="1.2" fill="none"/>
  <line x1="576.1326" y1="416.9758" x2="766.4076" y2="474.804" stroke="#333" stroke-width="1.2" fill="none"/>
  <line x1="576.1326" y1="416.9758" x2="504.8806" y2="295.8219" stroke="#333" stroke-width="1.2" fill="none"/>
  <line x1="343.248" y1="718.6101" x2="504.8806" y2="829.2272" stroke="#333" stroke-width="1.2" fill="none"/>
  <line x1="343.248" y1="718.6101" x2="314.6056" y2="567.6562" stroke="#333" stroke-width="1.2" fill="none"/>
  <line x1="343.248" y1="718.6101" x2="389.5924" y2="633.196" stroke="#333" stroke-width="1.2" fill="none"/>
  <line x1="343.248" y1="388.9475" x2="504.8806" y2="295.8219" stroke="#333" stroke-width="1.2" fill="none"/>
  <line x1="343.248" y1="388.9475" x2="314.6056" y2="567.6562" stroke="#333" stroke-width="1.2" fill="none"/>
  <line x1="343.248" y1="388.9475" x2="389.5924" y2="429.4533" stroke="#333" stroke-width="1.2" fill="none"/>
  <line x1="812.752" y1="719.0525" x2="766.4076" y2="678.5467" stroke="#333" stroke-width="1.2" fill="none"/>
  <line x1="812.752" y1="719.0525" x2="651.1194" y2="812.1781" stroke="#333" stroke-width="1.2" fill="none"/>
  <line x1="812.752" y1="719.0525" x2="841.3944" y2="540.3438" stroke="#333" stroke-width="1.2" fill="none"/>
  <line x1="812.752" y1="389.3899" x2="766.4076" y2="474.804" stroke="#333" stroke-width="1.2" fill="none"/>
  <line x1="812.752" y1="389.3899" x2="841.3944" y2="540.3438" stroke="#333" stroke-width="1.2" fill="none"/>
  <line x1="812.752" y1="389.3899" x2="651.1194" y2="278.7728" stroke="#333" stroke-width="1.2" fill="none"/>
  <line x1="579.8674" y1="691.0242" x2="389.5924" y2="633.196" stroke="#333" stroke-width="1.2" fill="none"/>
  <line x1="579.8674" y1="691.0242" x2="651.1194" y2="812.1781" stroke="#333" stroke-width="1.2" fill="none"/>
  <line x1="579.8674" y1="691.0242" x2="697.4638" y2="523.0213" stroke="#333" stroke-width="1.2" fill="none"/>
  <line x1="579.8674" y1="361.3616" x2="389.5924" y2="429.4533" stroke="#333" stroke-width="1.2" fill="none"/>
  <line x1="579.8674" y1="361.3616" x2="651.1194" y2="278.7728" stroke="#333" stroke-width="1.2" fill="none"/>
  <line x1="579.8674" y1="361.3616" x2="697.4638" y2="523.0213" stroke="#333" stroke-width="1.2" fill="none"/>
  <line x1="766.4076" y1="678.5467" x2="766.4076" y2="474.804" stroke="#333" stroke-width="1.2" fill="none"/>
  <line x1="504.8806" y1="829.2272" x2="651.1194" y2="812.1781" stroke="#333" stroke-width="1.2" fill="none"/>
  <line x1="458.5362" y1="584.9787" x2="314.6056" y2="567.6562" stroke="#333" stroke-width="1.2" fill="none"/>
  <line x1="504.8806" y1="295.8219" x2="651.1194" y2="278.7728" stroke="#333" stroke-width="1.2" fill="none"/>
  <line x1="389.5924" y1="633.196" x2="389.5924" y2="429.4533" stroke="#333" stroke-width="1.2" fill="none"/>
  <line x1="841.3944" y1="540.3438" x2="697.4638" y2="523.0213" stroke="#333" stroke-width="1.2" fill="none"/>
  <circle cx="576.1326" cy="746.6384" r="4.98" fill="#333" stroke="none"/>
  <circle cx="576.1326" cy="416.9758" r="4.98" fill="#333" stroke="none"/>
  <circle cx="343.248" cy="718.6101" r="4.98" fill="#333" stroke="none"/>
  <circle cx="343.248" cy="388.9475" r="4.98" fill="#333" stroke="none"/>
  <circle cx="812.752" cy="719.0525" r="4.98" fill="#333" stroke="none"/>
  <circle cx="812.752" cy="389.3899" r="4.98" fill="#333" stroke="none"/>
  <circle cx="579.8674" cy="691.0242" r="4.98" fill="#333" stroke="none"/>
  <circle cx="579.8674" cy="361.3616" r="4.98" fill="#333" stroke="none"/>
  <circle cx="766.4076" cy="678.5467" r="4.98" fill="#333" stroke="none"/>
  <circle cx="504.8806" cy="829.2272" r="4.98" fill="#333" stroke="none"/>
  <circle cx="458.5362" cy="584.9787" r="4.98" fill="#333" stroke="none"/>
  <circle cx="766.4076" cy="474.804" r="4.98" fill="#333" stroke="none"/>
  <circle cx="504.8806" cy="295.8219" r="4.98" fill="#333" stroke="none"/>
  <circle cx="314.6056" cy="567.6562" r="4.98" fill="#333" stroke="none"/>
  <circle cx="389.5924" cy="633.196" r="4.98" fill="#333" stroke="none"/>
  <circle cx="651.1194" cy="812.1781" r="4.98" fill="#333" stroke="none"/>
  <circle cx="841.3944" cy="540.3438" r="4.98" fill="#333" stroke="none"/>
  <circle cx="389.5924" cy="429.4533" r="4.98" fill="#333" stroke="none"/>
  <circle cx="651.1194" cy="278.7728" r="4.98" fill="#333" stroke="none"/>
  <circle cx="697.4638" cy="523.0213" r="4.98" fill="#333" stroke="none"/>
</g>
</g>
</svg>