<svg xmlns="http://www.w3.org/2000/svg" width="800" height="800" viewBox="0 0 800 800">
  <g transform="rotate(-102.9,400,400)">
  <g>
  <line x1="559" y1="520" x2="546.5765" y2="425.8158" stroke="#333" stroke-width="1.5"/>
  <g>
  <line x1="546.5765" y1="425.8158" x2="510.8226" y2="379.2444" stroke="#333" stroke-width="1.5"/>
  <g>
  <line x1="510.8226" y1="379.2444" x2="477.2945" y2="365.3664" stroke="#333" stroke-width="1.5"/>
  <g>
  <line x1="477.2945" y1="365.3664" x2="455.0607" y2="368.2992" stroke="#333" stroke-width="1.5"/>
</g>
  <g>
  <line x1="477.2945" y1="365.3664" x2="463.6377" y2="347.5777" stroke="#333" stroke-width="1.5"/>
</g>
</g>
  <g>
  <line x1="510.8226" y1="379.2444" x2="506.0773" y2="343.2692" stroke="#333" stroke-width="1.5"/>
  <g>
  <line x1="506.0773" y1="343.2692" x2="492.4205" y2="325.4805" stroke="#333" stroke-width="1.5"/>
</g>
  <g>
  <line x1="506.0773" y1="343.2692" x2="514.6543" y2="322.5478" stroke="#333" stroke-width="1.5"/>
</g>
</g>
</g>
  <g>
  <line x1="546.5765" y1="425.8158" x2="569.0316" y2="371.5663" stroke="#333" stroke-width="1.5"/>
  <g>
  <line x1="569.0316" y1="371.5663" x2="564.2863" y2="335.5911" stroke="#333" stroke-width="1.5"/>
  <g>
  <line x1="564.2863" y1="335.5911" x2="550.6295" y2="317.8024" stroke="#333" stroke-width="1.5"/>
</g>
  <g>
  <line x1="564.2863" y1="335.5911" x2="572.8633" y2="314.8696" stroke="#333" stroke-width="1.5"/>
</g>
</g>
  <g>
  <line x1="569.0316" y1="371.5663" x2="597.8143" y2="349.4691" stroke="#333" stroke-width="1.5"/>
  <g>
  <line x1="597.8143" y1="349.4691" x2="606.3914" y2="328.7476" stroke="#333" stroke-width="1.5"/>
</g>
  <g>
  <line x1="597.8143" y1="349.4691" x2="620.0482" y2="346.5363" stroke="#333" stroke-width="1.5"/>
</g>
</g>
</g>
</g>
</g>
  <g opacity="0.65">
  <polygon points="415,341 416.283,343.2222 415,345.4444 417.566,345.4444 418.849,347.6667 417.566,349.8889 415,349.8889 416.283,352.1111 415,354.3333 417.566,354.3333 418.849,356.5556 420.132,354.3333 422.698,354.3333 423.981,356.5556 422.698,358.7778 425.264,358.7778 426.547,361 425.264,363.2222 422.698,363.2222 423.981,365.4444 422.698,367.6667 420.132,367.6667 418.849,365.4444 417.566,367.6667 415,367.6667 416.283,369.8889 415,372.1111 417.566,372.1111 418.849,374.3333 417.566,376.5556 415,376.5556 416.283,378.7778 415,381 417.566,381 418.849,383.2222 420.132,381 422.698,381 423.981,383.2222 422.698,385.4444 425.264,385.4444 426.547,387.6667 427.83,385.4444 430.396,385.4444 429.113,383.2222 430.396,381 432.962,381 434.245,383.2222 435.528,381 438.094,381 439.377,383.2222 438.094,385.4444 440.66,385.4444 441.943,387.6667 440.66,389.8889 438.094,389.8889 439.377,392.1111 438.094,394.3333 440.66,394.3333 441.943,396.5556 443.226,394.3333 445.792,394.3333 447.075,396.5556 445.792,398.7778 448.358,398.7778 449.641,401 448.358,403.2222 445.792,403.2222 447.075,405.4444 445.792,407.6667 443.226,407.6667 441.943,405.4444 440.66,407.6667 438.094,407.6667 439.377,409.8889 438.094,412.1111 440.66,412.1111 441.943,414.3333 440.66,416.5556 438.094,416.5556 439.377,418.7778 438.094,421 435.528,421 434.245,418.7778 432.962,421 430.396,421 429.113,418.7778 430.396,416.5556 427.83,416.5556 426.547,414.3333 425.264,416.5556 422.698,416.5556 423.981,418.7778 422.698,421 420.132,421 418.849,418.7778 417.566,421 415,421 416.283,423.2222 415,425.4444 417.566,425.4444 418.849,427.6667 417.566,429.8889 415,429.8889 416.283,432.1111 415,434.3333 417.566,434.3333 418.849,436.5556 420.132,434.3333 422.698,434.3333 423.981,436.5556 422.698,438.7778 425.264,438.7778 426.547,441 425.264,443.2222 422.698,443.2222 423.981,445.4444 422.698,447.6667 420.132,447.6667 418.849,445.4444 417.566,447.6667 415,447.6667 416.283,449.8889 415,452.1111 417.566,452.1111 418.849,454.3333 417.566,456.5556 415,456.5556 416.283,458.7778 415,461 417.566,461 418.849,463.2222 420.132,461 422.698,461 423.981,463.2222 422.698,465.4444 425.264,465.4444 426.547,467.6667 427.83,465.4444 430.396,465.4444 429.113,463.2222 430.396,461 432.962,461 434.245,463.2222 435.528,461 438.094,461 439.377,463.2222 438.094,465.4444 440.66,465.4444 441.943,467.6667 440.66,469.8889 438.094,469.8889 439.377,472.1111 438.094,474.3333 440.66,474.3333 441.943,476.5556 443.226,474.3333 445.792,474.3333 447.075,476.5556 445.792,478.7778 448.358,478.7778 449.641,481 450.924,478.7778 453.49,478.7778 452.207,476.5556 453.49,474.3333 456.056,474.3333 457.339,476.5556 458.622,474.3333 461.188,474.3333 459.905,472.1111 461.188,469.8889 458.622,469.8889 457.339,467.6667 458.622,465.4444 461.188,465.4444 459.905,463.2222 461.188,461 463.754,461 465.037,463.2222 466.32,461 468.886,461 470.169,463.2222 468.886,465.4444 471.452,465.4444 472.735,467.6667 474.018,465.4444 476.584,465.4444 475.301,463.2222 476.584,461 479.15,461 480.433,463.2222 481.716,461 484.282,461 485.565,463.2222 484.282,465.4444 486.848,465.4444 488.131,467.6667 486.848,469.8889 484.282,469.8889 485.565,472.1111 484.282,474.3333 486.848,474.3333 488.131,476.5556 489.414,474.3333 491.98,474.3333 493.263,476.5556 491.98,478.7778 494.546,478.7778 495.829,481 494.546,483.2222 491.98,483.2222 493.263,485.4444 491.98,487.6667 489.414,487.6667 488.131,485.4444 486.848,487.6667 484.282,487.6667 485.565,489.8889 484.282,492.1111 486.848,492.1111 488.131,494.3333 486.848,496.5556 484.282,496.5556 485.565,498.7778 484.282,501 486.848,501 488.131,503.2222 489.414,501 491.98,501 493.263,503.2222 491.98,505.4444 494.546,505.4444 495.829,507.6667 497.112,505.4444 499.678,505.4444 498.395,503.2222 499.678,501 502.244,501 503.527,503.2222 504.81,501 507.376,501 508.659,503.2222 507.376,505.4444 509.942,505.4444 511.225,507.6667 509.942,509.8889 507.376,509.8889 508.659,512.1111 507.376,514.3333 509.942,514.3333 511.225,516.5556 512.508,514.3333 515.074,514.3333 516.357,516.5556 515.074,518.7778 517.64,518.7778 518.923,521 516.357,521 515.074,518.7778 513.791,521 511.225,521 509.942,518.7778 511.225,516.5556 508.659,516.5556 507.376,514.3333 506.093,516.5556 503.527,516.5556 504.81,518.7778 503.527,521 500.961,521 499.678,518.7778 498.395,521 495.829,521 494.546,518.7778 495.829,516.5556 493.263,516.5556 491.98,514.3333 493.263,512.1111 495.829,512.1111 494.546,509.8889 495.829,507.6667 493.263,507.6667 491.98,505.4444 490.697,507.6667 488.131,507.6667 486.848,505.4444 488.131,503.2222 485.565,503.2222 484.282,501 482.999,503.2222 480.433,503.2222 481.716,505.4444 480.433,507.6667 477.867,507.6667 476.584,505.4444 475.301,507.6667 472.735,507.6667 474.018,509.8889 472.735,512.1111 475.301,512.1111 476.584,514.3333 475.301,516.5556 472.735,516.5556 474.018,518.7778 472.735,521 470.169,521 468.886,518.7778 467.603,521 465.037,521 463.754,518.7778 465.037,516.5556 462.471,516.5556 461.188,514.3333 459.905,516.5556 457.339,516.5556 458.622,518.7778 457.339,521 454.773,521 453.49,518.7778 452.207,521 449.641,521 448.358,518.7778 449.641,516.5556 447.075,516.5556 445.792,514.3333 447.075,512.1111 449.641,512.1111 448.358,509.8889 449.641,507.6667 447.075,507.6667 445.792,505.4444 444.509,507.6667 441.943,507.6667 440.66,505.4444 441.943,503.2222 439.377,503.2222 438.094,501 439.377,498.7778 441.943,498.7778 440.66,496.5556 441.943,494.3333 444.509,494.3333 445.792,496.5556 447.075,494.3333 449.641,494.3333 448.358,492.1111 449.641,489.8889 447.075,489.8889 445.792,487.6667 447.075,485.4444 449.641,485.4444 448.358,483.2222 449.641,481 447.075,481 445.792,478.7778 444.509,481 441.943,481 440.66,478.7778 441.943,476.5556 439.377,476.5556 438.094,474.3333 436.811,476.5556 434.245,476.5556 435.528,478.7778 434.245,481 431.679,481 430.396,478.7778 429.113,481 426.547,481 425.264,478.7778 426.547,476.5556 423.981,476.5556 422.698,474.3333 423.981,472.1111 426.547,472.1111 425.264,469.8889 426.547,467.6667 423.981,467.6667 422.698,465.4444 421.415,467.6667 418.849,467.6667 417.566,465.4444 418.849,463.2222 416.283,463.2222 415,461 413.717,463.2222 411.151,463.2222 412.434,465.4444 411.151,467.6667 408.585,467.6667 407.302,465.4444 406.019,467.6667 403.453,467.6667 404.736,469.8889 403.453,472.1111 406.019,472.1111 407.302,474.3333 406.019,476.5556 403.453,476.5556 404.736,478.7778 403.453,481 400.887,481 399.604,478.7778 398.321,481 395.755,481 394.472,478.7778 395.755,476.5556 393.189,476.5556 391.906,474.3333 390.623,476.5556 388.057,476.5556 389.34,478.7778 388.057,481 385.491,481 384.208,478.7778 382.925,481 380.359,481 381.642,483.2222 380.359,485.4444 382.925,485.4444 384.208,487.6667 382.925,489.8889 380.359,489.8889 381.642,492.1111 380.359,494.3333 382.925,494.3333 384.208,496.5556 385.491,494.3333 388.057,494.3333 389.34,496.5556 388.057,498.7778 390.623,498.7778 391.906,501 390.623,503.2222 388.057,503.2222 389.34,505.4444 388.057,507.6667 385.491,507.6667 384.208,505.4444 382.925,507.6667 380.359,507.6667 381.642,509.8889 380.359,512.1111 382.925,512.1111 384.208,514.3333 382.925,516.5556 380.359,516.5556 381.642,518.7778 380.359,521 377.793,521 376.51,518.7778 375.227,521 372.661,521 371.378,518.7778 372.661,516.5556 370.095,516.5556 368.812,514.3333 367.529,516.5556 364.963,516.5556 366.246,518.7778 364.963,521 362.397,521 361.114,518.7778 359.831,521 357.265,521 355.982,518.7778 357.265,516.5556 354.699,516.5556 353.416,514.3333 354.699,512.1111 357.265,512.1111 355.982,509.8889 357.265,507.6667 354.699,507.6667 353.416,505.4444 352.133,507.6667 349.567,507.6667 348.284,505.4444 349.567,503.2222 347.001,503.2222 345.718,501 344.435,503.2222 341.869,503.2222 343.152,505.4444 341.869,507.6667 339.303,507.6667 338.02,505.4444 336.737,507.6667 334.171,507.6667 335.454,509.8889 334.171,512.1111 336.737,512.1111 338.02,514.3333 336.737,516.5556 334.171,516.5556 335.454,518.7778 334.171,521 331.605,521 330.322,518.7778 329.039,521 326.473,521 325.19,518.7778 326.473,516.5556 323.907,516.5556 322.624,514.3333 321.341,516.5556 318.775,516.5556 320.058,518.7778 318.775,521 316.209,521 314.926,518.7778 313.643,521 311.077,521 312.36,518.7778 314.926,518.7778 313.643,516.5556 314.926,514.3333 317.492,514.3333 318.775,516.5556 320.058,514.3333 322.624,514.3333 321.341,512.1111 322.624,509.8889 320.058,509.8889 318.775,507.6667 320.058,505.4444 322.624,505.4444 321.341,503.2222 322.624,501 325.19,501 326.473,503.2222 327.756,501 330.322,501 331.605,503.2222 330.322,505.4444 332.888,505.4444 334.171,507.6667 335.454,505.4444 338.02,505.4444 336.737,503.2222 338.02,501 340.586,501 341.869,503.2222 343.152,501 345.718,501 344.435,498.7778 345.718,496.5556 343.152,496.5556 341.869,494.3333 343.152,492.1111 345.718,492.1111 344.435,489.8889 345.718,487.6667 343.152,487.6667 341.869,485.4444 340.586,487.6667 338.02,487.6667 336.737,485.4444 338.02,483.2222 335.454,483.2222 334.171,481 335.454,478.7778 338.02,478.7778 336.737,476.5556 338.02,474.3333 340.586,474.3333 341.869,476.5556 343.152,474.3333 345.718,474.3333 344.435,472.1111 345.718,469.8889 343.152,469.8889 341.869,467.6667 343.152,465.4444 345.718,465.4444 344.435,463.2222 345.718,461 348.284,461 349.567,463.2222 350.85,461 353.416,461 354.699,463.2222 353.416,465.4444 355.982,465.4444 357.265,467.6667 358.548,465.4444 361.114,465.4444 359.831,463.2222 361.114,461 363.68,461 364.963,463.2222 366.246,461 368.812,461 370.095,463.2222 368.812,465.4444 371.378,465.4444 372.661,467.6667 371.378,469.8889 368.812,469.8889 370.095,472.1111 368.812,474.3333 371.378,474.3333 372.661,476.5556 373.944,474.3333 376.51,474.3333 377.793,476.5556 376.51,478.7778 379.076,478.7778 380.359,481 381.642,478.7778 384.208,478.7778 382.925,476.5556 384.208,474.3333 386.774,474.3333 388.057,476.5556 389.34,474.3333 391.906,474.3333 390.623,472.1111 391.906,469.8889 389.34,469.8889 388.057,467.6667 389.34,465.4444 391.906,465.4444 390.623,463.2222 391.906,461 394.472,461 395.755,463.2222 397.038,461 399.604,461 400.887,463.2222 399.604,465.4444 402.17,465.4444 403.453,467.6667 404.736,465.4444 407.302,465.4444 406.019,463.2222 407.302,461 409.868,461 411.151,463.2222 412.434,461 415,461 413.717,458.7778 415,456.5556 412.434,456.5556 411.151,454.3333 412.434,452.1111 415,452.1111 413.717,449.8889 415,447.6667 412.434,447.6667 411.151,445.4444 409.868,447.6667 407.302,447.6667 406.019,445.4444 407.302,443.2222 404.736,443.2222 403.453,441 404.736,438.7778 407.302,438.7778 406.019,436.5556 407.302,434.3333 409.868,434.3333 411.151,436.5556 412.434,434.3333 415,434.3333 413.717,432.1111 415,429.8889 412.434,429.8889 411.151,427.6667 412.434,425.4444 415,425.4444 413.717,423.2222 415,421 412.434,421 411.151,418.7778 409.868,421 407.302,421 406.019,418.7778 407.302,416.5556 404.736,416.5556 403.453,414.3333 402.17,416.5556 399.604,416.5556 400.887,418.7778 399.604,421 397.038,421 395.755,418.7778 394.472,421 391.906,421 390.623,418.7778 391.906,416.5556 389.34,416.5556 388.057,414.3333 389.34,412.1111 391.906,412.1111 390.623,409.8889 391.906,407.6667 389.34,407.6667 388.057,405.4444 386.774,407.6667 384.208,407.6667 382.925,405.4444 384.208,403.2222 381.642,403.2222 380.359,401 381.642,398.7778 384.208,398.7778 382.925,396.5556 384.208,394.3333 386.774,394.3333 388.057,396.5556 389.34,394.3333 391.906,394.3333 390.623,392.1111 391.906,389.8889 389.34,389.8889 388.057,387.6667 389.34,385.4444 391.906,385.4444 390.623,383.2222 391.906,381 394.472,381 395.755,383.2222 397.038,381 399.604,381 400.887,383.2222 399.604,385.4444 402.17,385.4444 403.453,387.6667 404.736,385.4444 407.302,385.4444 406.019,383.2222 407.302,381 409.868,381 411.151,383.2222 412.434,381 415,381 413.717,378.7778 415,376.5556 412.434,376.5556 411.151,374.3333 412.434,372.1111 415,372.1111 413.717,369.8889 415,367.6667 412.434,367.6667 411.151,365.4444 409.868,367.6667 407.302,367.6667 406.019,365.4444 407.302,363.2222 404.736,363.2222 403.453,361 404.736,358.7778 407.302,358.7778 406.019,356.5556 407.302,354.3333 409.868,354.3333 411.151,356.5556 412.434,354.3333 415,354.3333 413.717,352.1111 415,349.8889 412.434,349.8889 411.151,347.6667 412.434,345.4444 415,345.4444 413.717,343.2222" fill="none" stroke="#333" stroke-width="1"/>
</g>
  <g>
  <g>
  <circle cx="260" cy="452" r="22.8851" stroke="#e74c3c" stroke-width="2" fill="#e74c3c" fill-opacity="0.08"/>
  <circle cx="282.8851" cy="452" r="3" fill="#e74c3c" stroke="none"/>
  <circle cx="248.5574" cy="432.1809" r="3" fill="#e74c3c" stroke="none"/>
  <circle cx="248.5574" cy="471.8191" r="3" fill="#e74c3c" stroke="none"/>
  <text x="290.8851" y="456" font-size="10" fill="#e74c3c">3D c3 seed</text>
  <circle cx="260" cy="452" r="37.0289" stroke="#e67e22" stroke-width="2" fill="#e67e22" fill-opacity="0.08"/>
  <circle cx="297.0289" cy="452" r="3" fill="#e67e22" stroke="none"/>
  <circle cx="260" cy="414.9711" r="3" fill="#e67e22" stroke="none"/>
  <circle cx="222.9711" cy="452" r="3" fill="#e67e22" stroke="none"/>
  <circle cx="260" cy="489.0289" r="3" fill="#e67e22" stroke="none"/>
  <text x="305.0289" y="456" font-size="10" fill="#e67e22">4D E4 base</text>
  <circle cx="260" cy="452" r="59.9141" stroke="#f1c40f" stroke-width="2" fill="#f1c40f" fill-opacity="0.08"/>
  <circle cx="319.9141" cy="452" r="3" fill="#f1c40f" stroke="none"/>
  <circle cx="289.957" cy="400.1129" r="3" fill="#f1c40f" stroke="none"/>
  <circle cx="230.043" cy="400.1129" r="3" fill="#f1c40f" stroke="none"/>
  <circle cx="200.0859" cy="452" r="3" fill="#f1c40f" stroke="none"/>
  <circle cx="230.043" cy="503.8871" r="3" fill="#f1c40f" stroke="none"/>
  <circle cx="289.957" cy="503.8871" r="3" fill="#f1c40f" stroke="none"/>
  <text x="327.9141" y="456" font-size="10" fill="#f1c40f">6D W3 Mobius</text>
  <circle cx="260" cy="452" r="96.943" stroke="#2ecc71" stroke-width="2" fill="#2ecc71" fill-opacity="0.08"/>
  <circle cx="356.943" cy="452" r="3" fill="#2ecc71" stroke="none"/>
  <circle cx="328.549" cy="383.451" r="3" fill="#2ecc71" stroke="none"/>
  <circle cx="260" cy="355.057" r="3" fill="#2ecc71" stroke="none"/>
  <circle cx="191.451" cy="383.451" r="3" fill="#2ecc71" stroke="none"/>
  <circle cx="163.057" cy="452" r="3" fill="#2ecc71" stroke="none"/>
  <circle cx="191.451" cy="520.549" r="3" fill="#2ecc71" stroke="none"/>
  <circle cx="260" cy="548.943" r="3" fill="#2ecc71" stroke="none"/>
  <circle cx="328.549" cy="520.549" r="3" fill="#2ecc71" stroke="none"/>
  <text x="364.943" y="456" font-size="10" fill="#2ecc71">8D W5 penta</text>
  <circle cx="260" cy="452" r="156.857" stroke="#3498db" stroke-width="2" fill="#3498db" fill-opacity="0.08"/>
  <circle cx="416.857" cy="452" r="3" fill="#3498db" stroke="none"/>
  <circle cx="386.9" cy="359.8018" r="3" fill="#3498db" stroke="none"/>
  <circle cx="308.4715" cy="302.8201" r="3" fill="#3498db" stroke="none"/>
  <circle cx="211.5285" cy="302.8201" r="3" fill="#3498db" stroke="none"/>
  <circle cx="133.1" cy="359.8018" r="3" fill="#3498db" stroke="none"/>
  <circle cx="103.143" cy="452" r="3" fill="#3498db" stroke="none"/>
  <circle cx="133.1" cy="544.1982" r="3" fill="#3498db" stroke="none"/>
  <circle cx="211.5285" cy="601.1799" r="3" fill="#3498db" stroke="none"/>
  <circle cx="308.4715" cy="601.1799" r="3" fill="#3498db" stroke="none"/>
  <circle cx="386.9" cy="544.1982" r="3" fill="#3498db" stroke="none"/>
  <text x="424.857" y="456" font-size="10" fill="#3498db">10D W7 hepta</text>
  <circle cx="260" cy="452" r="253.8" stroke="#9b59b6" stroke-width="2" fill="#9b59b6" fill-opacity="0.08"/>
  <circle cx="513.8" cy="452" r="3" fill="#9b59b6" stroke="none"/>
  <circle cx="479.7972" cy="325.1" r="3" fill="#9b59b6" stroke="none"/>
  <circle cx="386.9" cy="232.2028" r="3" fill="#9b59b6" stroke="none"/>
  <circle cx="260" cy="198.2" r="3" fill="#9b59b6" stroke="none"/>
  <circle cx="133.1" cy="232.2028" r="3" fill="#9b59b6" stroke="none"/>
  <circle cx="40.2028" cy="325.1" r="3" fill="#9b59b6" stroke="none"/>
  <circle cx="6.2" cy="452" r="3" fill="#9b59b6" stroke="none"/>
  <circle cx="40.2028" cy="578.9" r="3" fill="#9b59b6" stroke="none"/>
  <circle cx="133.1" cy="671.7972" r="3" fill="#9b59b6" stroke="none"/>
  <circle cx="260" cy="705.8" r="3" fill="#9b59b6" stroke="none"/>
  <circle cx="386.9" cy="671.7972" r="3" fill="#9b59b6" stroke="none"/>
  <circle cx="479.7972" cy="578.9" r="3" fill="#9b59b6" stroke="none"/>
  <text x="521.8" y="456" font-size="10" fill="#9b59b6">12D W9 crown</text>
</g>
  <line x1="227.5227" y1="556.8361" x2="359.6362" y2="546.367" stroke="#8B4513" stroke-width="1.2"/>
  <line x1="227.5227" y1="556.8361" x2="227.5227" y2="376.8792" stroke="#DC143C" stroke-width="1.2"/>
  <line x1="227.5227" y1="556.8361" x2="227.5227" y2="527.1208" stroke="#4169E1" stroke-width="1.2"/>
  <line x1="227.5227" y1="556.8361" x2="167.9942" y2="539.1402" stroke="#228B22" stroke-width="1.2"/>
  <line x1="359.6362" y1="546.367" x2="359.6362" y2="384.3808" stroke="#DC143C" stroke-width="1.2"/>
  <line x1="359.6362" y1="546.367" x2="359.6362" y2="519.6192" stroke="#4169E1" stroke-width="1.2"/>
  <line x1="359.6362" y1="546.367" x2="284.7161" y2="531.7831" stroke="#228B22" stroke-width="1.2"/>
  <line x1="227.5227" y1="376.8792" x2="359.6362" y2="384.3808" stroke="#8B4513" stroke-width="1.2"/>
  <line x1="227.5227" y1="376.8792" x2="227.5227" y2="347.1639" stroke="#4169E1" stroke-width="1.2"/>
  <line x1="227.5227" y1="376.8792" x2="167.9942" y2="389.5592" stroke="#228B22" stroke-width="1.2"/>
  <line x1="359.6362" y1="384.3808" x2="359.6362" y2="357.633" stroke="#4169E1" stroke-width="1.2"/>
  <line x1="359.6362" y1="384.3808" x2="284.7161" y2="394.831" stroke="#228B22" stroke-width="1.2"/>
  <line x1="227.5227" y1="527.1208" x2="359.6362" y2="519.6192" stroke="#8B4513" stroke-width="1.2"/>
  <line x1="227.5227" y1="527.1208" x2="227.5227" y2="347.1639" stroke="#DC143C" stroke-width="1.2"/>
  <line x1="227.5227" y1="527.1208" x2="167.9942" y2="514.4408" stroke="#228B22" stroke-width="1.2"/>
  <line x1="359.6362" y1="519.6192" x2="359.6362" y2="357.633" stroke="#DC143C" stroke-width="1.2"/>
  <line x1="359.6362" y1="519.6192" x2="284.7161" y2="509.169" stroke="#228B22" stroke-width="1.2"/>
  <line x1="227.5227" y1="347.1639" x2="359.6362" y2="357.633" stroke="#8B4513" stroke-width="1.2"/>
  <line x1="227.5227" y1="347.1639" x2="167.9942" y2="364.8598" stroke="#228B22" stroke-width="1.2"/>
  <line x1="359.6362" y1="357.633" x2="284.7161" y2="372.2169" stroke="#228B22" stroke-width="1.2"/>
  <line x1="167.9942" y1="539.1402" x2="284.7161" y2="531.7831" stroke="#8B4513" stroke-width="1.2"/>
  <line x1="167.9942" y1="539.1402" x2="167.9942" y2="389.5592" stroke="#DC143C" stroke-width="1.2"/>
  <line x1="167.9942" y1="539.1402" x2="167.9942" y2="514.4408" stroke="#4169E1" stroke-width="1.2"/>
  <line x1="284.7161" y1="531.7831" x2="284.7161" y2="394.831" stroke="#DC143C" stroke-width="1.2"/>
  <line x1="284.7161" y1="531.7831" x2="284.7161" y2="509.169" stroke="#4169E1" stroke-width="1.2"/>
  <line x1="167.9942" y1="389.5592" x2="284.7161" y2="394.831" stroke="#8B4513" stroke-width="1.2"/>
  <line x1="167.9942" y1="389.5592" x2="167.9942" y2="364.8598" stroke="#4169E1" stroke-width="1.2"/>
  <line x1="284.7161" y1="394.831" x2="284.7161" y2="372.2169" stroke="#4169E1" stroke-width="1.2"/>
  <line x1="167.9942" y1="514.4408" x2="284.7161" y2="509.169" stroke="#8B4513" stroke-width="1.2"/>
  <line x1="167.9942" y1="514.4408" x2="167.9942" y2="364.8598" stroke="#DC143C" stroke-width="1.2"/>
  <line x1="284.7161" y1="509.169" x2="284.7161" y2="372.2169" stroke="#DC143C" stroke-width="1.2"/>
  <line x1="167.9942" y1="364.8598" x2="284.7161" y2="372.2169" stroke="#8B4513" stroke-width="1.2"/>
  <circle cx="227.5227" cy="556.8361" r="3" fill="#8B4513" stroke="#333" stroke-width="0.5"/>
  <circle cx="359.6362" cy="546.367" r="3" fill="#DC143C" stroke="#333" stroke-width="0.5"/>
  <circle cx="227.5227" cy="376.8792" r="3" fill="#DC143C" stroke="#333" stroke-width="0.5"/>
  <circle cx="359.6362" cy="384.3808" r="3" fill="#4169E1" stroke="#333" stroke-width="0.5"/>
  <circle cx="227.5227" cy="527.1208" r="3" fill="#DC143C" stroke="#333" stroke-width="0.5"/>
  <circle cx="359.6362" cy="519.6192" r="3" fill="#4169E1" stroke="#333" stroke-width="0.5"/>
  <circle cx="227.5227" cy="347.1639" r="3" fill="#4169E1" stroke="#333" stroke-width="0.5"/>
  <circle cx="359.6362" cy="357.633" r="3" fill="#228B22" stroke="#333" stroke-width="0.5"/>
  <circle cx="167.9942" cy="539.1402" r="3" fill="#DC143C" stroke="#333" stroke-width="0.5"/>
  <circle cx="284.7161" cy="531.7831" r="3" fill="#4169E1" stroke="#333" stroke-width="0.5"/>
  <circle cx="167.9942" cy="389.5592" r="3" fill="#4169E1" stroke="#333" stroke-width="0.5"/>
  <circle cx="284.7161" cy="394.831" r="3" fill="#228B22" stroke="#333" stroke-width="0.5"/>
  <circle cx="167.9942" cy="514.4408" r="3" fill="#4169E1" stroke="#333" stroke-width="0.5"/>
  <circle cx="284.7161" cy="509.169" r="3" fill="#228B22" stroke="#333" stroke-width="0.5"/>
  <circle cx="167.9942" cy="364.8598" r="3" fill="#228B22" stroke="#333" stroke-width="0.5"/>
  <circle cx="284.7161" cy="372.2169" r="3" fill="#8B4513" stroke="#333" stroke-width="0.5"/>
  <g>
  <polyline points="340.148,440.1138 336.255,436.0434 331.1074,432.2372 324.7782,428.7616 317.3567,425.679 308.947,423.0473 299.6679,420.9188 289.6516,419.3395 279.0427,418.3489 267.9968,417.9785 256.6791,418.2517 245.2625,419.1826 233.9259,420.7761 222.8515,423.0267 212.2227,425.9183 202.2213,429.4241 193.0245,433.5062 184.8018,438.1159 177.7121,443.1936 171.9001,448.6696 167.4935,454.4647 164.5997,460.491 163.303,466.6533 163.6623,472.8503 165.7083,478.9764 169.4424,484.9234 174.835,490.5825 181.8252,495.8462 190.3209,500.6108 200.1989,504.7786 211.3071,508.2595 223.4663,510.9739 236.4728,512.8539 250.1023,513.8455 264.1137,513.9103 278.2536,513.0259 292.2616,511.1878 305.8751,508.4092 318.8355,504.7212 330.8928,500.1732 341.8118,494.8312 351.3769,488.7775 359.3972,482.1089 365.7105,474.9349 370.1875,467.3756 372.7344,459.5593 373.2956,451.6199 371.8548,443.6941 368.4355,435.9186" stroke="#9b59b6" stroke-width="0.5" fill="none" stroke-opacity="0.6"/>
  <polyline points="344.8625,439.4146 340.7293,434.774 335.2481,430.4223 328.5029,426.4348 320.5961,422.8816 311.6481,419.827 301.7951,417.328 291.188,415.434 279.9904,414.1855 268.3766,413.6136 256.5296,413.7395 244.6381,414.5736 232.8946,416.1155 221.4924,418.3532 210.6223,421.2635 200.4704,424.8116 191.2143,428.9516 183.0207,433.6268 176.0417,438.7699 170.4124,444.3046 166.248,450.1456 163.641,456.2006 162.6594,462.3712 163.3441,468.5547 165.7083,474.6455 169.7356,480.5372 175.3801,486.1241 182.5661,491.3037 191.1889,495.9783 201.1158,500.0569 212.1882,503.4575 224.2239,506.1082 237.02,507.9497 250.3561,508.9357 263.999,509.0351 277.706,508.2321 291.2303,506.5272 304.3254,503.9374 316.7498,500.4962 328.2723,496.2533 338.6765,491.2733 347.7651,485.6355 355.3645,479.4317 361.328,472.7651 365.5393,465.7479 367.915,458.4996 368.4064,451.1442 367.0006,443.8082 363.7209,436.6178" stroke="#9b59b6" stroke-width="0.5" fill="none" stroke-opacity="0.6"/>
  <polyline points="349.5771,438.7154 345.2036,433.5046 339.3889,428.6074 332.2275,424.1079 323.8356,420.0842 314.3492,416.6067 303.9223,413.7373 292.7244,411.5285 280.9381,410.0221 268.7565,409.2487 256.38,409.2274 244.0137,409.9646 231.8634,411.4548 220.1333,413.6797 209.0219,416.6086 198.7195,420.1991 189.4042,424.3971 181.2396,429.1377 174.3713,434.3463 168.9248,439.9395 165.0025,445.8265 162.6824,451.9102 162.0157,458.0892 163.026,464.2592 165.7083,470.3147 170.0289,476.151 175.9253,481.6658 183.307,486.7613 192.0569,491.3458 202.0327,495.3353 213.0694,498.6554 224.9816,501.2426 237.5671,503.0455 250.6099,504.0259 263.8842,504.1599 277.1584,503.4382 290.1991,501.8665 302.7756,499.4656 314.6641,496.2712 325.6519,492.3333 335.5412,487.7154 344.1533,482.4934 351.3318,476.7545 356.9454,470.5953 360.8911,464.1203 363.0956,457.4399 363.5172,450.6685 362.1464,443.9223 359.0063,437.317" stroke="#9b59b6" stroke-width="0.5" fill="none" stroke-opacity="0.6"/>
  <polyline points="354.2917,438.0162 349.6779,432.2353 343.5296,426.7925 335.9521,421.7811 327.0751,417.2867 317.0504,413.3863 306.0495,410.1466 294.2608,407.623 281.8858,405.8587 269.1363,404.8839 256.2305,404.7152 243.3892,405.3556 230.8322,406.7941 218.7742,409.0061 207.4215,411.9538 196.9685,415.5866 187.5941,419.8425 179.4584,424.6486 172.7009,429.9227 167.4371,435.5745 163.7571,441.5074 161.7238,447.6198 161.372,453.8072 162.7078,459.9636 165.7083,465.9838 170.3221,471.7647 176.4704,477.2075 184.0479,482.2189 192.9249,486.7133 202.9496,490.6137 213.9505,493.8534 225.7392,496.377 238.1142,498.1413 250.8637,499.1161 263.7695,499.2848 276.6108,498.6444 289.1678,497.2059 301.2258,494.9939 312.5785,492.0462 323.0315,488.4134 332.4059,484.1575 340.5416,479.3514 347.2991,474.0773 352.5629,468.4255 356.2429,462.4926 358.2762,456.3802 358.628,450.1928 357.2922,444.0364 354.2917,438.0162" stroke="#9b59b6" stroke-width="0.5" fill="none" stroke-opacity="0.6"/>
  <polyline points="359.0063,437.317 354.1522,430.9659 347.6704,424.9777 339.6768,419.4543 330.3146,414.4893 319.7515,410.166 308.1767,406.5559 295.7971,403.7175 282.8334,401.6953 269.5161,400.519 256.081,400.2031 242.7648,400.7466 229.8009,402.1335 217.415,404.3326 205.8211,407.2989 195.2176,410.9741 185.7839,415.2879 177.6773,420.1595 171.0305,425.499 165.9494,431.2095 162.5116,437.1883 160.7651,443.3294 160.7283,449.5252 162.3896,455.6681 165.7083,461.6529 170.6154,467.3785 177.0155,472.7491 184.7887,477.6765 193.7929,482.0807 203.8665,485.8921 214.8316,489.0514 226.4969,491.5114 238.6614,493.2371 251.1175,494.2063 263.6547,494.4096 276.0632,493.8505 288.1366,492.5452 299.6761,490.5221 310.4928,487.8212 320.411,484.4935 329.2707,480.5996 336.9298,476.2094 343.2664,471.4001 348.1804,466.2557 351.5948,460.8649 353.4568,455.3205 353.7388,449.7171 352.438,444.1504 349.5771,438.7154" stroke="#9b59b6" stroke-width="0.5" fill="none" stroke-opacity="0.6"/>
  <polyline points="363.7209,436.6178 358.6265,429.6965 351.8111,423.1628 343.4014,417.1275 333.5541,411.6919 322.4527,406.9456 310.3039,402.9651 297.3335,399.8119 283.7811,397.5319 269.896,396.1541 255.9315,395.6909 242.1404,396.1376 228.7697,397.4728 216.0559,399.6591 204.2208,402.6441 193.4667,406.3616 183.9738,410.7333 175.8962,415.6704 169.3601,421.0754 164.4618,426.8445 161.2661,432.8692 159.8065,439.0391 160.0847,445.2431 162.0715,451.3725 165.7083,457.3221 170.9087,462.9923 177.5607,468.2908 185.5296,473.134 194.6609,477.4482 204.7834,481.1704 215.7127,484.2493 227.2546,486.6458 239.2085,488.333 251.3713,489.2965 263.54,489.5344 275.5155,489.0566 287.1054,487.8845 298.1263,486.0503 308.4071,483.5962 317.7906,480.5735 326.1354,477.0417 333.318,473.0673 339.2337,468.7229 343.7978,464.0859 346.9466,459.2373 348.6374,454.2608 348.8496,449.2414 347.5838,444.2645 344.8625,439.4146" stroke="#9b59b6" stroke-width="0.5" fill="none" stroke-opacity="0.6"/>
  <polyline points="340.148,440.1138 344.8625,439.4146 349.5771,438.7154 354.2917,438.0162 359.0063,437.317 363.7209,436.6178" stroke="#999" stroke-width="0.5" fill="none" stroke-opacity="0.6"/>
  <polyline points="317.3567,425.679 320.5961,422.8816 323.8356,420.0842 327.0751,417.2867 330.3146,414.4893 333.5541,411.6919" stroke="#999" stroke-width="0.5" fill="none" stroke-opacity="0.6"/>
  <polyline points="279.0427,418.3489 279.9904,414.1855 280.9381,410.0221 281.8858,405.8587 282.8334,401.6953 283.7811,397.5319" stroke="#999" stroke-width="0.5" fill="none" stroke-opacity="0.6"/>
  <polyline points="233.9259,420.7761 232.8946,416.1155 231.8634,411.4548 230.8322,406.7941 229.8009,402.1335 228.7697,397.4728" stroke="#999" stroke-width="0.5" fill="none" stroke-opacity="0.6"/>
  <polyline points="193.0245,433.5062 191.2143,428.9516 189.4042,424.3971 187.5941,419.8425 185.7839,415.2879 183.9738,410.7333" stroke="#999" stroke-width="0.5" fill="none" stroke-opacity="0.6"/>
  <polyline points="167.4935,454.4647 166.248,450.1456 165.0025,445.8265 163.7571,441.5074 162.5116,437.1883 161.2661,432.8692" stroke="#999" stroke-width="0.5" fill="none" stroke-opacity="0.6"/>
  <polyline points="165.7083,478.9764 165.7083,474.6455 165.7083,470.3147 165.7083,465.9838 165.7083,461.6529 165.7083,457.3221" stroke="#999" stroke-width="0.5" fill="none" stroke-opacity="0.6"/>
  <polyline points="190.3209,500.6108 191.1889,495.9783 192.0569,491.3458 192.9249,486.7133 193.7929,482.0807 194.6609,477.4482" stroke="#999" stroke-width="0.5" fill="none" stroke-opacity="0.6"/>
  <polyline points="236.4728,512.8539 237.02,507.9497 237.5671,503.0455 238.1142,498.1413 238.6614,493.2371 239.2085,488.333" stroke="#999" stroke-width="0.5" fill="none" stroke-opacity="0.6"/>
  <polyline points="292.2616,511.1878 291.2303,506.5272 290.1991,501.8665 289.1678,497.2059 288.1366,492.5452 287.1054,487.8845" stroke="#999" stroke-width="0.5" fill="none" stroke-opacity="0.6"/>
  <polyline points="341.8118,494.8312 338.6765,491.2733 335.5412,487.7154 332.4059,484.1575 329.2707,480.5996 326.1354,477.0417" stroke="#999" stroke-width="0.5" fill="none" stroke-opacity="0.6"/>
  <polyline points="370.1875,467.3756 365.5393,465.7479 360.8911,464.1203 356.2429,462.4926 351.5948,460.8649 346.9466,459.2373" stroke="#999" stroke-width="0.5" fill="none" stroke-opacity="0.6"/>
</g>
</g>
  <g transform="rotate(-102.9,400,400)">
  <g>
  <line x1="593" y1="525" x2="580.5765" y2="430.8158" stroke="#333" stroke-width="1.5"/>
  <g>
  <line x1="580.5765" y1="430.8158" x2="544.8226" y2="384.2444" stroke="#333" stroke-width="1.5"/>
  <g>
  <line x1="544.8226" y1="384.2444" x2="511.2945" y2="370.3664" stroke="#333" stroke-width="1.5"/>
  <g>
  <line x1="511.2945" y1="370.3664" x2="489.0607" y2="373.2992" stroke="#333" stroke-width="1.5"/>
</g>
  <g>
  <line x1="511.2945" y1="370.3664" x2="497.6377" y2="352.5777" stroke="#333" stroke-width="1.5"/>
</g>
</g>
  <g>
  <line x1="544.8226" y1="384.2444" x2="540.0773" y2="348.2692" stroke="#333" stroke-width="1.5"/>
  <g>
  <line x1="540.0773" y1="348.2692" x2="526.4205" y2="330.4805" stroke="#333" stroke-width="1.5"/>
</g>
  <g>
  <line x1="540.0773" y1="348.2692" x2="548.6543" y2="327.5478" stroke="#333" stroke-width="1.5"/>
</g>
</g>
</g>
  <g>
  <line x1="580.5765" y1="430.8158" x2="603.0316" y2="376.5663" stroke="#333" stroke-width="1.5"/>
  <g>
  <line x1="603.0316" y1="376.5663" x2="598.2863" y2="340.5911" stroke="#333" stroke-width="1.5"/>
  <g>
  <line x1="598.2863" y1="340.5911" x2="584.6295" y2="322.8024" stroke="#333" stroke-width="1.5"/>
</g>
  <g>
  <line x1="598.2863" y1="340.5911" x2="606.8633" y2="319.8696" stroke="#333" stroke-width="1.5"/>
</g>
</g>
  <g>
  <line x1="603.0316" y1="376.5663" x2="631.8143" y2="354.4691" stroke="#333" stroke-width="1.5"/>
  <g>
  <line x1="631.8143" y1="354.4691" x2="640.3914" y2="333.7476" stroke="#333" stroke-width="1.5"/>
</g>
  <g>
  <line x1="631.8143" y1="354.4691" x2="654.0482" y2="351.5363" stroke="#333" stroke-width="1.5"/>
</g>
</g>
</g>
</g>
</g>
  <g>
  <g>
  <circle cx="260" cy="452" r="22.8851" stroke="#e74c3c" stroke-width="2" fill="#e74c3c" fill-opacity="0.08"/>
  <circle cx="282.8851" cy="452" r="3" fill="#e74c3c" stroke="none"/>
  <circle cx="248.5574" cy="432.1809" r="3" fill="#e74c3c" stroke="none"/>
  <circle cx="248.5574" cy="471.8191" r="3" fill="#e74c3c" stroke="none"/>
  <text x="290.8851" y="456" font-size="10" fill="#e74c3c">3D c3 seed</text>
  <circle cx="260" cy="452" r="37.0289" stroke="#e67e22" stroke-width="2" fill="#e67e22" fill-opacity="0.08"/>
  <circle cx="297.0289" cy="452" r="3" fill="#e67e22" stroke="none"/>
  <circle cx="260" cy="414.9711" r="3" fill="#e67e22" stroke="none"/>
  <circle cx="222.9711" cy="452" r="3" fill="#e67e22" stroke="none"/>
  <circle cx="260" cy="489.0289" r="3" fill="#e67e22" stroke="none"/>
  <text x="305.0289" y="456" font-size="10" fill="#e67e22">4D E4 base</text>
  <circle cx="260" cy="452" r="59.9141" stroke="#f1c40f" stroke-width="2" fill="#f1c40f" fill-opacity="0.08"/>
  <circle cx="319.9141" cy="452" r="3" fill="#f1c40f" stroke="none"/>
  <circle cx="289.957" cy="400.1129" r="3" fill="#f1c40f" stroke="none"/>
  <circle cx="230.043" cy="400.1129" r="3" fill="#f1c40f" stroke="none"/>
  <circle cx="200.0859" cy="452" r="3" fill="#f1c40f" stroke="none"/>
  <circle cx="230.043" cy="503.8871" r="3" fill="#f1c40f" stroke="none"/>
  <circle cx="289.957" cy="503.8871" r="3" fill="#f1c40f" stroke="none"/>
  <text x="327.9141" y="456" font-size="10" fill="#f1c40f">6D W3 Mobius</text>
  <circle cx="260" cy="452" r="96.943" stroke="#2ecc71" stroke-width="2" fill="#2ecc71" fill-opacity="0.08"/>
  <circle cx="356.943" cy="452" r="3" fill="#2ecc71" stroke="none"/>
  <circle cx="328.549" cy="383.451" r="3" fill="#2ecc71" stroke="none"/>
  <circle cx="260" cy="355.057" r="3" fill="#2ecc71" stroke="none"/>
  <circle cx="191.451" cy="383.451" r="3" fill="#2ecc71" stroke="none"/>
  <circle cx="163.057" cy="452" r="3" fill="#2ecc71" stroke="none"/>
  <circle cx="191.451" cy="520.549" r="3" fill="#2ecc71" stroke="none"/>
  <circle cx="260" cy="548.943" r="3" fill="#2ecc71" stroke="none"/>
  <circle cx="328.549" cy="520.549" r="3" fill="#2ecc71" stroke="none"/>
  <text x="364.943" y="456" font-size="10" fill="#2ecc71">8D W5 penta</text>
  <circle cx="260" cy="452" r="156.857" stroke="#3498db" stroke-width="2" fill="#3498db" fill-opacity="0.08"/>
  <circle cx="416.857" cy="452" r="3" fill="#3498db" stroke="none"/>
  <circle cx="386.9" cy="359.8018" r="3" fill="#3498db" stroke="none"/>
  <circle cx="308.4715" cy="302.8201" r="3" fill="#3498db" stroke="none"/>
  <circle cx="211.5285" cy="302.8201" r="3" fill="#3498db" stroke="none"/>
  <circle cx="133.1" cy="359.8018" r="3" fill="#3498db" stroke="none"/>
  <circle cx="103.143" cy="452" r="3" fill="#3498db" stroke="none"/>
  <circle cx="133.1" cy="544.1982" r="3" fill="#3498db" stroke="none"/>
  <circle cx="211.5285" cy="601.1799" r="3" fill="#3498db" stroke="none"/>
  <circle cx="308.4715" cy="601.1799" r="3" fill="#3498db" stroke="none"/>
  <circle cx="386.9" cy="544.1982" r="3" fill="#3498db" stroke="none"/>
  <text x="424.857" y="456" font-size="10" fill="#3498db">10D W7 hepta</text>
  <circle cx="260" cy="452" r="253.8" stroke="#9b59b6" stroke-width="2" fill="#9b59b6" fill-opacity="0.08"/>
  <circle cx="513.8" cy="452" r="3" fill="#9b59b6" stroke="none"/>
  <circle cx="479.7972" cy="325.1" r="3" fill="#9b59b6" stroke="none"/>
  <circle cx="386.9" cy="232.2028" r="3" fill="#9b59b6" stroke="none"/>
  <circle cx="260" cy="198.2" r="3" fill="#9b59b6" stroke="none"/>
  <circle cx="133.1" cy="232.2028" r="3" fill="#9b59b6" stroke="none"/>
  <circle cx="40.2028" cy="325.1" r="3" fill="#9b59b6" stroke="none"/>
  <circle cx="6.2" cy="452" r="3" fill="#9b59b6" stroke="none"/>
  <circle cx="40.2028" cy="578.9" r="3" fill="#9b59b6" stroke="none"/>
  <circle cx="133.1" cy="671.7972" r="3" fill="#9b59b6" stroke="none"/>
  <circle cx="260" cy="705.8" r="3" fill="#9b59b6" stroke="none"/>
  <circle cx="386.9" cy="671.7972" r="3" fill="#9b59b6" stroke="none"/>
  <circle cx="479.7972" cy="578.9" r="3" fill="#9b59b6" stroke="none"/>
  <text x="521.8" y="456" font-size="10" fill="#9b59b6">12D W9 crown</text>
</g>
  <line x1="227.5227" y1="556.8361" x2="359.6362" y2="546.367" stroke="#8B4513" stroke-width="1.2"/>
  <line x1="227.5227" y1="556.8361" x2="227.5227" y2="376.8792" stroke="#DC143C" stroke-width="1.2"/>
  <line x1="227.5227" y1="556.8361" x2="227.5227" y2="527.1208" stroke="#4169E1" stroke-width="1.2"/>
  <line x1="227.5227" y1="556.8361" x2="167.9942" y2="539.1402" stroke="#228B22" stroke-width="1.2"/>
  <line x1="359.6362" y1="546.367" x2="359.6362" y2="384.3808" stroke="#DC143C" stroke-width="1.2"/>
  <line x1="359.6362" y1="546.367" x2="359.6362" y2="519.6192" stroke="#4169E1" stroke-width="1.2"/>
  <line x1="359.6362" y1="546.367" x2="284.7161" y2="531.7831" stroke="#228B22" stroke-width="1.2"/>
  <line x1="227.5227" y1="376.8792" x2="359.6362" y2="384.3808" stroke="#8B4513" stroke-width="1.2"/>
  <line x1="227.5227" y1="376.8792" x2="227.5227" y2="347.1639" stroke="#4169E1" stroke-width="1.2"/>
  <line x1="227.5227" y1="376.8792" x2="167.9942" y2="389.5592" stroke="#228B22" stroke-width="1.2"/>
  <line x1="359.6362" y1="384.3808" x2="359.6362" y2="357.633" stroke="#4169E1" stroke-width="1.2"/>
  <line x1="359.6362" y1="384.3808" x2="284.7161" y2="394.831" stroke="#228B22" stroke-width="1.2"/>
  <line x1="227.5227" y1="527.1208" x2="359.6362" y2="519.6192" stroke="#8B4513" stroke-width="1.2"/>
  <line x1="227.5227" y1="527.1208" x2="227.5227" y2="347.1639" stroke="#DC143C" stroke-width="1.2"/>
  <line x1="227.5227" y1="527.1208" x2="167.9942" y2="514.4408" stroke="#228B22" stroke-width="1.2"/>
  <line x1="359.6362" y1="519.6192" x2="359.6362" y2="357.633" stroke="#DC143C" stroke-width="1.2"/>
  <line x1="359.6362" y1="519.6192" x2="284.7161" y2="509.169" stroke="#228B22" stroke-width="1.2"/>
  <line x1="227.5227" y1="347.1639" x2="359.6362" y2="357.633" stroke="#8B4513" stroke-width="1.2"/>
  <line x1="227.5227" y1="347.1639" x2="167.9942" y2="364.8598" stroke="#228B22" stroke-width="1.2"/>
  <line x1="359.6362" y1="357.633" x2="284.7161" y2="372.2169" stroke="#228B22" stroke-width="1.2"/>
  <line x1="167.9942" y1="539.1402" x2="284.7161" y2="531.7831" stroke="#8B4513" stroke-width="1.2"/>
  <line x1="167.9942" y1="539.1402" x2="167.9942" y2="389.5592" stroke="#DC143C" stroke-width="1.2"/>
  <line x1="167.9942" y1="539.1402" x2="167.9942" y2="514.4408" stroke="#4169E1" stroke-width="1.2"/>
  <line x1="284.7161" y1="531.7831" x2="284.7161" y2="394.831" stroke="#DC143C" stroke-width="1.2"/>
  <line x1="284.7161" y1="531.7831" x2="284.7161" y2="509.169" stroke="#4169E1" stroke-width="1.2"/>
  <line x1="167.9942" y1="389.5592" x2="284.7161" y2="394.831" stroke="#8B4513" stroke-width="1.2"/>
  <line x1="167.9942" y1="389.5592" x2="167.9942" y2="364.8598" stroke="#4169E1" stroke-width="1.2"/>
  <line x1="284.7161" y1="394.831" x2="284.7161" y2="372.2169" stroke="#4169E1" stroke-width="1.2"/>
  <line x1="167.9942" y1="514.4408" x2="284.7161" y2="509.169" stroke="#8B4513" stroke-width="1.2"/>
  <line x1="167.9942" y1="514.4408" x2="167.9942" y2="364.8598" stroke="#DC143C" stroke-width="1.2"/>
  <line x1="284.7161" y1="509.169" x2="284.7161" y2="372.2169" stroke="#DC143C" stroke-width="1.2"/>
  <line x1="167.9942" y1="364.8598" x2="284.7161" y2="372.2169" stroke="#8B4513" stroke-width="1.2"/>
  <circle cx="227.5227" cy="556.8361" r="3" fill="#8B4513" stroke="#333" stroke-width="0.5"/>
  <circle cx="359.6362" cy="546.367" r="3" fill="#DC143C" stroke="#333" stroke-width="0.5"/>
  <circle cx="227.5227" cy="376.8792" r="3" fill="#DC143C" stroke="#333" stroke-width="0.5"/>
  <circle cx="359.6362" cy="384.3808" r="3" fill="#4169E1" stroke="#333" stroke-width="0.5"/>
  <circle cx="227.5227" cy="527.1208" r="3" fill="#DC143C" stroke="#333" stroke-width="0.5"/>
  <circle cx="359.6362" cy="519.6192" r="3" fill="#4169E1" stroke="#333" stroke-width="0.5"/>
  <circle cx="227.5227" cy="347.1639" r="3" fill="#4169E1" stroke="#333" stroke-width="0.5"/>
  <circle cx="359.6362" cy="357.633" r="3" fill="#228B22" stroke="#333" stroke-width="0.5"/>
  <circle cx="167.9942" cy="539.1402" r="3" fill="#DC143C" stroke="#333" stroke-width="0.5"/>
  <circle cx="284.7161" cy="531.7831" r="3" fill="#4169E1" stroke="#333" stroke-width="0.5"/>
  <circle cx="167.9942" cy="389.5592" r="3" fill="#4169E1" stroke="#333" stroke-width="0.5"/>
  <circle cx="284.7161" cy="394.831" r="3" fill="#228B22" stroke="#333" stroke-width="0.5"/>
  <circle cx="167.9942" cy="514.4408" r="3" fill="#4169E1" stroke="#333" stroke-width="0.5"/>
  <circle cx="284.7161" cy="509.169" r="3" fill="#228B22" stroke="#333" stroke-width="0.5"/>
  <circle cx="167.9942" cy="364.8598" r="3" fill="#228B22" stroke="#333" stroke-width="0.5"/>
  <circle cx="284.7161" cy="372.2169" r="3" fill="#8B4513" stroke="#333" stroke-width="0.5"/>
  <g>
  <polyline points="340.148,440.1138 336.255,436.0434 331.1074,432.2372 324.7782,428.7616 317.3567,425.679 308.947,423.0473 299.6679,420.9188 289.6516,419.3395 279.0427,418.3489 267.9968,417.9785 256.6791,418.2517 245.2625,419.1826 233.9259,420.7761 222.8515,423.0267 212.2227,425.9183 202.2213,429.4241 193.0245,433.5062 184.8018,438.1159 177.7121,443.1936 171.9001,448.6696 167.4935,454.4647 164.5997,460.491 163.303,466.6533 163.6623,472.8503 165.7083,478.9764 169.4424,484.9234 174.835,490.5825 181.8252,495.8462 190.3209,500.6108 200.1989,504.7786 211.3071,508.2595 223.4663,510.9739 236.4728,512.8539 250.1023,513.8455 264.1137,513.9103 278.2536,513.0259 292.2616,511.1878 305.8751,508.4092 318.8355,504.7212 330.8928,500.1732 341.8118,494.8312 351.3769,488.7775 359.3972,482.1089 365.7105,474.9349 370.1875,467.3756 372.7344,459.5593 373.2956,451.6199 371.8548,443.6941 368.4355,435.9186" stroke="#9b59b6" stroke-width="0.5" fill="none" stroke-opacity="0.6"/>
  <polyline points="344.8625,439.4146 340.7293,434.774 335.2481,430.4223 328.5029,426.4348 320.5961,422.8816 311.6481,419.827 301.7951,417.328 291.188,415.434 279.9904,414.1855 268.3766,413.6136 256.5296,413.7395 244.6381,414.5736 232.8946,416.1155 221.4924,418.3532 210.6223,421.2635 200.4704,424.8116 191.2143,428.9516 183.0207,433.6268 176.0417,438.7699 170.4124,444.3046 166.248,450.1456 163.641,456.2006 162.6594,462.3712 163.3441,468.5547 165.7083,474.6455 169.7356,480.5372 175.3801,486.1241 182.5661,491.3037 191.1889,495.9783 201.1158,500.0569 212.1882,503.4575 224.2239,506.1082 237.02,507.9497 250.3561,508.9357 263.999,509.0351 277.706,508.2321 291.2303,506.5272 304.3254,503.9374 316.7498,500.4962 328.2723,496.2533 338.6765,491.2733 347.7651,485.6355 355.3645,479.4317 361.328,472.7651 365.5393,465.7479 367.915,458.4996 368.4064,451.1442 367.0006,443.8082 363.7209,436.6178" stroke="#9b59b6" stroke-width="0.5" fill="none" stroke-opacity="0.6"/>
  <polyline points="349.5771,438.7154 345.2036,433.5046 339.3889,428.6074 332.2275,424.1079 323.8356,420.0842 314.3492,416.6067 303.9223,413.7373 292.7244,411.5285 280.9381,410.0221 268.7565,409.2487 256.38,409.2274 244.0137,409.9646 231.8634,411.4548 220.1333,413.6797 209.0219,416.6086 198.7195,420.1991 189.4042,424.3971 181.2396,429.1377 174.3713,434.3463 168.9248,439.9395 165.0025,445.8265 162.6824,451.9102 162.0157,458.0892 163.026,464.2592 165.7083,470.3147 170.0289,476.151 175.9253,481.6658 183.307,486.7613 192.0569,491.3458 202.0327,495.3353 213.0694,498.6554 224.9816,501.2426 237.5671,503.0455 250.6099,504.0259 263.8842,504.1599 277.1584,503.4382 290.1991,501.8665 302.7756,499.4656 314.6641,496.2712 325.6519,492.3333 335.5412,487.7154 344.1533,482.4934 351.3318,476.7545 356.9454,470.5953 360.8911,464.1203 363.0956,457.4399 363.5172,450.6685 362.1464,443.9223 359.0063,437.317" stroke="#9b59b6" stroke-width="0.5" fill="none" stroke-opacity="0.6"/>
  <polyline points="354.2917,438.0162 349.6779,432.2353 343.5296,426.7925 335.9521,421.7811 327.0751,417.2867 317.0504,413.3863 306.0495,410.1466 294.2608,407.623 281.8858,405.8587 269.1363,404.8839 256.2305,404.7152 243.3892,405.3556 230.8322,406.7941 218.7742,409.0061 207.4215,411.9538 196.9685,415.5866 187.5941,419.8425 179.4584,424.6486 172.7009,429.9227 167.4371,435.5745 163.7571,441.5074 161.7238,447.6198 161.372,453.8072 162.7078,459.9636 165.7083,465.9838 170.3221,471.7647 176.4704,477.2075 184.0479,482.2189 192.9249,486.7133 202.9496,490.6137 213.9505,493.8534 225.7392,496.377 238.1142,498.1413 250.8637,499.1161 263.7695,499.2848 276.6108,498.6444 289.1678,497.2059 301.2258,494.9939 312.5785,492.0462 323.0315,488.4134 332.4059,484.1575 340.5416,479.3514 347.2991,474.0773 352.5629,468.4255 356.2429,462.4926 358.2762,456.3802 358.628,450.1928 357.2922,444.0364 354.2917,438.0162" stroke="#9b59b6" stroke-width="0.5" fill="none" stroke-opacity="0.6"/>
  <polyline points="359.0063,437.317 354.1522,430.9659 347.6704,424.9777 339.6768,419.4543 330.3146,414.4893 319.7515,410.166 308.1767,406.5559 295.7971,403.7175 282.8334,401.6953 269.5161,400.519 256.081,400.2031 242.7648,400.7466 229.8009,402.1335 217.415,404.3326 205.8211,407.2989 195.2176,410.9741 185.7839,415.2879 177.6773,420.1595 171.0305,425.499 165.9494,431.2095 162.5116,437.1883 160.7651,443.3294 160.7283,449.5252 162.3896,455.6681 165.7083,461.6529 170.6154,467.3785 177.0155,472.7491 184.7887,477.6765 193.7929,482.0807 203.8665,485.8921 214.8316,489.0514 226.4969,491.5114 238.6614,493.2371 251.1175,494.2063 263.6547,494.4096 276.0632,493.8505 288.1366,492.5452 299.6761,490.5221 310.4928,487.8212 320.411,484.4935 329.2707,480.5996 336.9298,476.2094 343.2664,471.4001 348.1804,466.2557 351.5948,460.8649 353.4568,455.3205 353.7388,449.7171 352.438,444.1504 349.5771,438.7154" stroke="#9b59b6" stroke-width="0.5" fill="none" stroke-opacity="0.6"/>
  <polyline points="363.7209,436.6178 358.6265,429.6965 351.8111,423.1628 343.4014,417.1275 333.5541,411.6919 322.4527,406.9456 310.3039,402.9651 297.3335,399.8119 283.7811,397.5319 269.896,396.1541 255.9315,395.6909 242.1404,396.1376 228.7697,397.4728 216.0559,399.6591 204.2208,402.6441 193.4667,406.3616 183.9738,410.7333 175.8962,415.6704 169.3601,421.0754 164.4618,426.8445 161.2661,432.8692 159.8065,439.0391 160.0847,445.2431 162.0715,451.3725 165.7083,457.3221 170.9087,462.9923 177.5607,468.2908 185.5296,473.134 194.6609,477.4482 204.7834,481.1704 215.7127,484.2493 227.2546,486.6458 239.2085,488.333 251.3713,489.2965 263.54,489.5344 275.5155,489.0566 287.1054,487.8845 298.1263,486.0503 308.4071,483.5962 317.7906,480.5735 326.1354,477.0417 333.318,473.0673 339.2337,468.7229 343.7978,464.0859 346.9466,459.2373 348.6374,454.2608 348.8496,449.2414 347.5838,444.2645 344.8625,439.4146" stroke="#9b59b6" stroke-width="0.5" fill="none" stroke-opacity="0.6"/>
  <polyline points="340.148,440.1138 344.8625,439.4146 349.5771,438.7154 354.2917,438.0162 359.0063,437.317 363.7209,436.6178" stroke="#999" stroke-width="0.5" fill="none" stroke-opacity="0.6"/>
  <polyline points="317.3567,425.679 320.5961,422.8816 323.8356,420.0842 327.0751,417.2867 330.3146,414.4893 333.5541,411.6919" stroke="#999" stroke-width="0.5" fill="none" stroke-opacity="0.6"/>
  <polyline points="279.0427,418.3489 279.9904,414.1855 280.9381,410.0221 281.8858,405.8587 282.8334,401.6953 283.7811,397.5319" stroke="#999" stroke-width="0.5" fill="none" stroke-opacity="0.6"/>
  <polyline points="233.9259,420.7761 232.8946,416.1155 231.8634,411.4548 230.8322,406.7941 229.8009,402.1335 228.7697,397.4728" stroke="#999" stroke-width="0.5" fill="none" stroke-opacity="0.6"/>
  <polyline points="193.0245,433.5062 191.2143,428.9516 189.4042,424.3971 187.5941,419.8425 185.7839,415.2879 183.9738,410.7333" stroke="#999" stroke-width="0.5" fill="none" stroke-opacity="0.6"/>
  <polyline points="167.4935,454.4647 166.248,450.1456 165.0025,445.8265 163.7571,441.5074 162.5116,437.1883 161.2661,432.8692" stroke="#999" stroke-width="0.5" fill="none" stroke-opacity="0.6"/>
  <polyline points="165.7083,478.9764 165.7083,474.6455 165.7083,470.3147 165.7083,465.9838 165.7083,461.6529 165.7083,457.3221" stroke="#999" stroke-width="0.5" fill="none" stroke-opacity="0.6"/>
  <polyline points="190.3209,500.6108 191.1889,495.9783 192.0569,491.3458 192.9249,486.7133 193.7929,482.0807 194.6609,477.4482" stroke="#999" stroke-width="0.5" fill="none" stroke-opacity="0.6"/>
  <polyline points="236.4728,512.8539 237.02,507.9497 237.5671,503.0455 238.1142,498.1413 238.6614,493.2371 239.2085,488.333" stroke="#999" stroke-width="0.5" fill="none" stroke-opacity="0.6"/>
  <polyline points="292.2616,511.1878 291.2303,506.5272 290.1991,501.8665 289.1678,497.2059 288.1366,492.5452 287.1054,487.8845" stroke="#999" stroke-width="0.5" fill="none" stroke-opacity="0.6"/>
  <polyline points="341.8118,494.8312 338.6765,491.2733 335.5412,487.7154 332.4059,484.1575 329.2707,480.5996 326.1354,477.0417" stroke="#999" stroke-width="0.5" fill="none" stroke-opacity="0.6"/>
  <polyline points="370.1875,467.3756 365.5393,465.7479 360.8911,464.1203 356.2429,462.4926 351.5948,460.8649 346.9466,459.2373" stroke="#999" stroke-width="0.5" fill="none" stroke-opacity="0.6"/>
</g>
</g>
</svg>