<svg xmlns="http://www.w3.org/2000/svg" width="800" height="800" viewBox="0 0 800 800">
  <g opacity="0.51">
  <g>
  <line x1="345" y1="349" x2="536" y2="349" stroke="#999" stroke-width="0.5"/>
  <line x1="345" y1="349" x2="440.5" y2="514.4109" stroke="#999" stroke-width="0.5"/>
  <line x1="345" y1="349" x2="249.5" y2="514.4109" stroke="#999" stroke-width="0.5"/>
  <line x1="345" y1="349" x2="154" y2="349" stroke="#999" stroke-width="0.5"/>
  <line x1="345" y1="349" x2="249.5" y2="183.5891" stroke="#999" stroke-width="0.5"/>
  <line x1="345" y1="349" x2="440.5" y2="183.5891" stroke="#999" stroke-width="0.5"/>
  <line x1="345" y1="349" x2="675.8217" y2="540" stroke="#999" stroke-width="0.5"/>
  <line x1="345" y1="349" x2="345" y2="731" stroke="#999" stroke-width="0.5"/>
  <line x1="345" y1="349" x2="14.1783" y2="540" stroke="#999" stroke-width="0.5"/>
  <line x1="345" y1="349" x2="14.1783" y2="158" stroke="#999" stroke-width="0.5"/>
  <line x1="345" y1="349" x2="345" y2="-33" stroke="#999" stroke-width="0.5"/>
  <line x1="345" y1="349" x2="675.8217" y2="158" stroke="#999" stroke-width="0.5"/>
  <line x1="536" y1="349" x2="440.5" y2="514.4109" stroke="#999" stroke-width="0.5"/>
  <line x1="536" y1="349" x2="249.5" y2="514.4109" stroke="#999" stroke-width="0.5"/>
  <line x1="536" y1="349" x2="154" y2="349" stroke="#999" stroke-width="0.5"/>
  <line x1="536" y1="349" x2="249.5" y2="183.5891" stroke="#999" stroke-width="0.5"/>
  <line x1="536" y1="349" x2="440.5" y2="183.5891" stroke="#999" stroke-width="0.5"/>
  <line x1="536" y1="349" x2="675.8217" y2="540" stroke="#999" stroke-width="0.5"/>
  <line x1="536" y1="349" x2="345" y2="731" stroke="#999" stroke-width="0.5"/>
  <line x1="536" y1="349" x2="14.1783" y2="540" stroke="#999" stroke-width="0.5"/>
  <line x1="536" y1="349" x2="14.1783" y2="158" stroke="#999" stroke-width="0.5"/>
  <line x1="536" y1="349" x2="345" y2="-33" stroke="#999" stroke-width="0.5"/>
  <line x1="536" y1="349" x2="675.8217" y2="158" stroke="#999" stroke-width="0.5"/>
  <line x1="440.5" y1="514.4109" x2="249.5" y2="514.4109" stroke="#999" stroke-width="0.5"/>
  <line x1="440.5" y1="514.4109" x2="154" y2="349" stroke="#999" stroke-width="0.5"/>
  <line x1="440.5" y1="514.4109" x2="249.5" y2="183.5891" stroke="#999" stroke-width="0.5"/>
  <line x1="440.5" y1="514.4109" x2="440.5" y2="183.5891" stroke="#999" stroke-width="0.5"/>
  <line x1="440.5" y1="514.4109" x2="675.8217" y2="540" stroke="#999" stroke-width="0.5"/>
  <line x1="440.5" y1="514.4109" x2="345" y2="731" stroke="#999" stroke-width="0.5"/>
  <line x1="440.5" y1="514.4109" x2="14.1783" y2="540" stroke="#999" stroke-width="0.5"/>
  <line x1="440.5" y1="514.4109" x2="14.1783" y2="158" stroke="#999" stroke-width="0.5"/>
  <line x1="440.5" y1="514.4109" x2="345" y2="-33" stroke="#999" stroke-width="0.5"/>
  <line x1="440.5" y1="514.4109" x2="675.8217" y2="158" stroke="#999" stroke-width="0.5"/>
  <line x1="249.5" y1="514.4109" x2="154" y2="349" stroke="#999" stroke-width="0.5"/>
  <line x1="249.5" y1="514.4109" x2="249.5" y2="183.5891" stroke="#999" stroke-width="0.5"/>
  <line x1="249.5" y1="514.4109" x2="440.5" y2="183.5891" stroke="#999" stroke-width="0.5"/>
  <line x1="249.5" y1="514.4109" x2="675.8217" y2="540" stroke="#999" stroke-width="0.5"/>
  <line x1="249.5" y1="514.4109" x2="345" y2="731" stroke="#999" stroke-width="0.5"/>
  <line x1="249.5" y1="514.4109" x2="14.1783" y2="540" stroke="#999" stroke-width="0.5"/>
  <line x1="249.5" y1="514.4109" x2="14.1783" y2="158" stroke="#999" stroke-width="0.5"/>
  <line x1="249.5" y1="514.4109" x2="345" y2="-33" stroke="#999" stroke-width="0.5"/>
  <line x1="249.5" y1="514.4109" x2="675.8217" y2="158" stroke="#999" stroke-width="0.5"/>
  <line x1="154" y1="349" x2="249.5" y2="183.5891" stroke="#999" stroke-width="0.5"/>
  <line x1="154" y1="349" x2="440.5" y2="183.5891" stroke="#999" stroke-width="0.5"/>
  <line x1="154" y1="349" x2="675.8217" y2="540" stroke="#999" stroke-width="0.5"/>
  <line x1="154" y1="349" x2="345" y2="731" stroke="#999" stroke-width="0.5"/>
  <line x1="154" y1="349" x2="14.1783" y2="540" stroke="#999" stroke-width="0.5"/>
  <line x1="154" y1="349" x2="14.1783" y2="158" stroke="#999" stroke-width="0.5"/>
  <line x1="154" y1="349" x2="345" y2="-33" stroke="#999" stroke-width="0.5"/>
  <line x1="154" y1="349" x2="675.8217" y2="158" stroke="#999" stroke-width="0.5"/>
  <line x1="249.5" y1="183.5891" x2="440.5" y2="183.5891" stroke="#999" stroke-width="0.5"/>
  <line x1="249.5" y1="183.5891" x2="675.8217" y2="540" stroke="#999" stroke-width="0.5"/>
  <line x1="249.5" y1="183.5891" x2="345" y2="731" stroke="#999" stroke-width="0.5"/>
  <line x1="249.5" y1="183.5891" x2="14.1783" y2="540" stroke="#999" stroke-width="0.5"/>
  <line x1="249.5" y1="183.5891" x2="14.1783" y2="158" stroke="#999" stroke-width="0.5"/>
  <line x1="249.5" y1="183.5891" x2="345" y2="-33" stroke="#999" stroke-width="0.5"/>
  <line x1="249.5" y1="183.5891" x2="675.8217" y2="158" stroke="#999" stroke-width="0.5"/>
  <line x1="440.5" y1="183.5891" x2="675.8217" y2="540" stroke="#999" stroke-width="0.5"/>
  <line x1="440.5" y1="183.5891" x2="345" y2="731" stroke="#999" stroke-width="0.5"/>
  <line x1="440.5" y1="183.5891" x2="14.1783" y2="540" stroke="#999" stroke-width="0.5"/>
  <line x1="440.5" y1="183.5891" x2="14.1783" y2="158" stroke="#999" stroke-width="0.5"/>
  <line x1="440.5" y1="183.5891" x2="345" y2="-33" stroke="#999" stroke-width="0.5"/>
  <line x1="440.5" y1="183.5891" x2="675.8217" y2="158" stroke="#999" stroke-width="0.5"/>
  <line x1="675.8217" y1="540" x2="345" y2="731" stroke="#999" stroke-width="0.5"/>
  <line x1="675.8217" y1="540" x2="14.1783" y2="540" stroke="#999" stroke-width="0.5"/>
  <line x1="675.8217" y1="540" x2="14.1783" y2="158" stroke="#999" stroke-width="0.5"/>
  <line x1="675.8217" y1="540" x2="345" y2="-33" stroke="#999" stroke-width="0.5"/>
  <line x1="675.8217" y1="540" x2="675.8217" y2="158" stroke="#999" stroke-width="0.5"/>
  <line x1="345" y1="731" x2="14.1783" y2="540" stroke="#999" stroke-width="0.5"/>
  <line x1="345" y1="731" x2="14.1783" y2="158" stroke="#999" stroke-width="0.5"/>
  <line x1="345" y1="731" x2="345" y2="-33" stroke="#999" stroke-width="0.5"/>
  <line x1="345" y1="731" x2="675.8217" y2="158" stroke="#999" stroke-width="0.5"/>
  <line x1="14.1783" y1="540" x2="14.1783" y2="158" stroke="#999" stroke-width="0.5"/>
  <line x1="14.1783" y1="540" x2="345" y2="-33" stroke="#999" stroke-width="0.5"/>
  <line x1="14.1783" y1="540" x2="675.8217" y2="158" stroke="#999" stroke-width="0.5"/>
  <line x1="14.1783" y1="158" x2="345" y2="-33" stroke="#999" stroke-width="0.5"/>
  <line x1="14.1783" y1="158" x2="675.8217" y2="158" stroke="#999" stroke-width="0.5"/>
  <line x1="345" y1="-33" x2="675.8217" y2="158" stroke="#999" stroke-width="0.5"/>
  <circle cx="345" cy="349" r="28.65" fill="none" stroke="#333" stroke-width="1"/>
  <circle cx="536" cy="349" r="28.65" fill="none" stroke="#333" stroke-width="1"/>
  <circle cx="440.5" cy="514.4109" r="28.65" fill="none" stroke="#333" stroke-width="1"/>
  <circle cx="249.5" cy="514.4109" r="28.65" fill="none" stroke="#333" stroke-width="1"/>
  <circle cx="154" cy="349" r="28.65" fill="none" stroke="#333" stroke-width="1"/>
  <circle cx="249.5" cy="183.5891" r="28.65" fill="none" stroke="#333" stroke-width="1"/>
  <circle cx="440.5" cy="183.5891" r="28.65" fill="none" stroke="#333" stroke-width="1"/>
  <circle cx="675.8217" cy="540" r="28.65" fill="none" stroke="#333" stroke-width="1"/>
  <circle cx="345" cy="731" r="28.65" fill="none" stroke="#333" stroke-width="1"/>
  <circle cx="14.1783" cy="540" r="28.65" fill="none" stroke="#333" stroke-width="1"/>
  <circle cx="14.1783" cy="158" r="28.65" fill="none" stroke="#333" stroke-width="1"/>
  <circle cx="345" cy="-33" r="28.65" fill="none" stroke="#333" stroke-width="1"/>
  <circle cx="675.8217" cy="158" r="28.65" fill="none" stroke="#333" stroke-width="1"/>
</g>
</g>
  <g>
  <circle cx="357" cy="440" r="62" stroke="#333" stroke-width="2" fill="#333" fill-opacity="0.05"/>
  <circle cx="357" cy="390.4" r="4.96" fill="#333" stroke="#fff" stroke-width="1"/>
  <text x="354" y="394.4" font-size="9" fill="#fff" font-weight="bold">1</text>
  <circle cx="399.9549" cy="415.2" r="4.96" fill="#333" stroke="#fff" stroke-width="1"/>
  <text x="396.9549" y="419.2" font-size="9" fill="#fff" font-weight="bold">2</text>
  <circle cx="399.9549" cy="464.8" r="4.96" fill="#333" stroke="#fff" stroke-width="1"/>
  <text x="396.9549" y="468.8" font-size="9" fill="#fff" font-weight="bold">3</text>
  <circle cx="357" cy="489.6" r="4.96" fill="#333" stroke="#fff" stroke-width="1"/>
  <text x="354" y="493.6" font-size="9" fill="#fff" font-weight="bold">4</text>
  <circle cx="314.0451" cy="464.8" r="4.96" fill="#333" stroke="#fff" stroke-width="1"/>
  <text x="311.0451" y="468.8" font-size="9" fill="#fff" font-weight="bold">5</text>
  <circle cx="314.0451" cy="415.2" r="4.96" fill="#333" stroke="#fff" stroke-width="1"/>
  <text x="311.0451" y="419.2" font-size="9" fill="#fff" font-weight="bold">6</text>
  <path d="M 357,390.4 Q 383.04,394.8974 399.9549,415.2" stroke="#333" stroke-width="1" fill="none"/>
  <path d="M 399.9549,415.2 Q 409.08,440 399.9549,464.8" stroke="#333" stroke-width="1" fill="none"/>
  <path d="M 399.9549,464.8 Q 383.04,485.1026 357,489.6" stroke="#333" stroke-width="1" fill="none"/>
  <path d="M 357,489.6 Q 330.96,485.1026 314.0451,464.8" stroke="#333" stroke-width="1" fill="none"/>
  <path d="M 314.0451,464.8 Q 304.92,440 314.0451,415.2" stroke="#333" stroke-width="1" fill="none"/>
  <path d="M 314.0451,415.2 Q 383.04,485.1026 357,390.4" stroke="#333" stroke-width="1" fill="none"/>
  <text x="349" y="444" font-size="14" fill="#333" font-weight="bold">W6</text>
</g>
  <g>
  <polygon points="335,289 371,289 371,325" fill="none" stroke="#333" stroke-width="1"/>
  <polygon points="335,289 371,325 345.5442,350.4558" fill="none" stroke="#333" stroke-width="1"/>
  <polygon points="335,289 345.5442,350.4558 310.0626,356.5435" fill="none" stroke="#333" stroke-width="1"/>
  <polygon points="335,289 310.0626,356.5435 276.2909,344.0748" fill="none" stroke="#333" stroke-width="1"/>
  <polygon points="335,289 276.2909,344.0748 251.6606,317.8193" fill="none" stroke="#333" stroke-width="1"/>
  <polygon points="335,289 251.6606,317.8193 239.8952,283.7961" fill="none" stroke="#333" stroke-width="1"/>
  <polygon points="335,289 239.8952,283.7961 241.8621,247.8499" fill="none" stroke="#333" stroke-width="1"/>
  <polygon points="335,289 241.8621,247.8499 256.4108,214.9207" fill="none" stroke="#333" stroke-width="1"/>
  <polygon points="335,289 256.4108,214.9207 281.1039,188.7243" fill="none" stroke="#333" stroke-width="1"/>
  <polygon points="335,289 281.1039,188.7243 312.8139,171.6809" fill="none" stroke="#333" stroke-width="1"/>
  <polygon points="335,289 312.8139,171.6809 348.187,164.9915" fill="none" stroke="#333" stroke-width="1"/>
  <polygon points="335,289 348.187,164.9915 383.9851,168.7983" fill="none" stroke="#333" stroke-width="1"/>
  <polygon points="335,289 383.9851,168.7983 417.3231,182.3843" fill="none" stroke="#333" stroke-width="1"/>
  <polygon points="335,289 417.3231,182.3843 445.8173,204.3861" fill="none" stroke="#333" stroke-width="1"/>
  <polygon points="335,289 445.8173,204.3861 467.6646,232.999" fill="none" stroke="#333" stroke-width="1"/>
  <polygon points="335,289 467.6646,232.999 481.6648,266.1651" fill="none" stroke="#333" stroke-width="1"/>
  <polygon points="335,289 481.6648,266.1651 487.2031,301.7366" fill="none" stroke="#333" stroke-width="1"/>
  <polygon points="335,289 487.2031,301.7366 484.2011,337.6112" fill="none" stroke="#333" stroke-width="1"/>
  <polygon points="335,289 484.2011,337.6112 473.0489,371.8402" fill="none" stroke="#333" stroke-width="1"/>
  <polygon points="335,289 473.0489,371.8402 454.5252,402.7089" fill="none" stroke="#333" stroke-width="1"/>
</g>
  <g transform="rotate(46.9,400,400)">
  <polygon points="436,453 523,540 436,627 349,540" fill="none" stroke="#333" stroke-width="1.5"/>
</g>
</svg>