<svg xmlns="http://www.w3.org/2000/svg" width="800" height="800" viewBox="0 0 800 800">
  <g transform="rotate(-85.3,400,400)">
  <g>
  <line x1="533" y1="538" x2="523.3142" y2="346.2445" stroke="#333" stroke-width="1.5"/>
  <g>
  <line x1="523.3142" y1="346.2445" x2="458.8744" y2="246.6036" stroke="#333" stroke-width="1.5"/>
  <g>
  <line x1="458.8744" y1="246.6036" x2="393.5933" y2="213.1855" stroke="#333" stroke-width="1.5"/>
  <g>
  <line x1="393.5933" y1="213.1855" x2="348.326" y2="215.472" stroke="#333" stroke-width="1.5"/>
  <g>
  <line x1="348.326" y1="215.472" x2="324.804" y2="230.6842" stroke="#333" stroke-width="1.5"/>
  <g>
  <line x1="324.804" y1="230.6842" x2="316.915" y2="246.095" stroke="#333" stroke-width="1.5"/>
  <g>
  <line x1="316.915" y1="246.095" x2="317.4548" y2="256.7812" stroke="#333" stroke-width="1.5"/>
</g>
  <g>
  <line x1="316.915" y1="246.095" x2="307.9304" y2="251.9055" stroke="#333" stroke-width="1.5"/>
</g>
</g>
  <g>
  <line x1="324.804" y1="230.6842" x2="307.5134" y2="231.5576" stroke="#333" stroke-width="1.5"/>
  <g>
  <line x1="307.5134" y1="231.5576" x2="298.5288" y2="237.3681" stroke="#333" stroke-width="1.5"/>
</g>
  <g>
  <line x1="307.5134" y1="231.5576" x2="297.989" y2="226.682" stroke="#333" stroke-width="1.5"/>
</g>
</g>
</g>
  <g>
  <line x1="348.326" y1="215.472" x2="323.3908" y2="202.7075" stroke="#333" stroke-width="1.5"/>
  <g>
  <line x1="323.3908" y1="202.7075" x2="306.1002" y2="203.5808" stroke="#333" stroke-width="1.5"/>
  <g>
  <line x1="306.1002" y1="203.5808" x2="297.1156" y2="209.3914" stroke="#333" stroke-width="1.5"/>
</g>
  <g>
  <line x1="306.1002" y1="203.5808" x2="296.5759" y2="198.7052" stroke="#333" stroke-width="1.5"/>
</g>
</g>
  <g>
  <line x1="323.3908" y1="202.7075" x2="313.9892" y2="188.1701" stroke="#333" stroke-width="1.5"/>
  <g>
  <line x1="313.9892" y1="188.1701" x2="304.4648" y2="183.2944" stroke="#333" stroke-width="1.5"/>
</g>
  <g>
  <line x1="313.9892" y1="188.1701" x2="313.4494" y2="177.4839" stroke="#333" stroke-width="1.5"/>
</g>
</g>
</g>
</g>
  <g>
  <line x1="393.5933" y1="213.1855" x2="368.9795" y2="175.1261" stroke="#333" stroke-width="1.5"/>
  <g>
  <line x1="368.9795" y1="175.1261" x2="344.0443" y2="162.3616" stroke="#333" stroke-width="1.5"/>
  <g>
  <line x1="344.0443" y1="162.3616" x2="326.7537" y2="163.2349" stroke="#333" stroke-width="1.5"/>
  <g>
  <line x1="326.7537" y1="163.2349" x2="317.7691" y2="169.0455" stroke="#333" stroke-width="1.5"/>
</g>
  <g>
  <line x1="326.7537" y1="163.2349" x2="317.2294" y2="158.3593" stroke="#333" stroke-width="1.5"/>
</g>
</g>
  <g>
  <line x1="344.0443" y1="162.3616" x2="334.6427" y2="147.8241" stroke="#333" stroke-width="1.5"/>
  <g>
  <line x1="334.6427" y1="147.8241" x2="325.1183" y2="142.9485" stroke="#333" stroke-width="1.5"/>
</g>
  <g>
  <line x1="334.6427" y1="147.8241" x2="334.1029" y2="137.138" stroke="#333" stroke-width="1.5"/>
</g>
</g>
</g>
  <g>
  <line x1="368.9795" y1="175.1261" x2="367.5663" y2="147.1494" stroke="#333" stroke-width="1.5"/>
  <g>
  <line x1="367.5663" y1="147.1494" x2="358.1647" y2="132.612" stroke="#333" stroke-width="1.5"/>
  <g>
  <line x1="358.1647" y1="132.612" x2="348.6403" y2="127.7363" stroke="#333" stroke-width="1.5"/>
</g>
  <g>
  <line x1="358.1647" y1="132.612" x2="357.6249" y2="121.9258" stroke="#333" stroke-width="1.5"/>
</g>
</g>
  <g>
  <line x1="367.5663" y1="147.1494" x2="375.4553" y2="131.7386" stroke="#333" stroke-width="1.5"/>
  <g>
  <line x1="375.4553" y1="131.7386" x2="374.9155" y2="121.0524" stroke="#333" stroke-width="1.5"/>
</g>
  <g>
  <line x1="375.4553" y1="131.7386" x2="384.4399" y2="125.9281" stroke="#333" stroke-width="1.5"/>
</g>
</g>
</g>
</g>
</g>
  <g>
  <line x1="458.8744" y1="246.6036" x2="455.1747" y2="173.3595" stroke="#333" stroke-width="1.5"/>
  <g>
  <line x1="455.1747" y1="173.3595" x2="430.5609" y2="135.3001" stroke="#333" stroke-width="1.5"/>
  <g>
  <line x1="430.5609" y1="135.3001" x2="405.6258" y2="122.5355" stroke="#333" stroke-width="1.5"/>
  <g>
  <line x1="405.6258" y1="122.5355" x2="388.3352" y2="123.4089" stroke="#333" stroke-width="1.5"/>
  <g>
  <line x1="388.3352" y1="123.4089" x2="379.3506" y2="129.2194" stroke="#333" stroke-width="1.5"/>
</g>
  <g>
  <line x1="388.3352" y1="123.4089" x2="378.8108" y2="118.5333" stroke="#333" stroke-width="1.5"/>
</g>
</g>
  <g>
  <line x1="405.6258" y1="122.5355" x2="396.2241" y2="107.9981" stroke="#333" stroke-width="1.5"/>
  <g>
  <line x1="396.2241" y1="107.9981" x2="386.6997" y2="103.1225" stroke="#333" stroke-width="1.5"/>
</g>
  <g>
  <line x1="396.2241" y1="107.9981" x2="395.6843" y2="97.312" stroke="#333" stroke-width="1.5"/>
</g>
</g>
</g>
  <g>
  <line x1="430.5609" y1="135.3001" x2="429.1478" y2="107.3233" stroke="#333" stroke-width="1.5"/>
  <g>
  <line x1="429.1478" y1="107.3233" x2="419.7461" y2="92.7859" stroke="#333" stroke-width="1.5"/>
  <g>
  <line x1="419.7461" y1="92.7859" x2="410.2217" y2="87.9103" stroke="#333" stroke-width="1.5"/>
</g>
  <g>
  <line x1="419.7461" y1="92.7859" x2="419.2064" y2="82.0998" stroke="#333" stroke-width="1.5"/>
</g>
</g>
  <g>
  <line x1="429.1478" y1="107.3233" x2="437.0367" y2="91.9126" stroke="#333" stroke-width="1.5"/>
  <g>
  <line x1="437.0367" y1="91.9126" x2="436.4969" y2="81.2264" stroke="#333" stroke-width="1.5"/>
</g>
  <g>
  <line x1="437.0367" y1="91.9126" x2="446.0213" y2="86.102" stroke="#333" stroke-width="1.5"/>
</g>
</g>
</g>
</g>
  <g>
  <line x1="455.1747" y1="173.3595" x2="475.8282" y2="133.0136" stroke="#333" stroke-width="1.5"/>
  <g>
  <line x1="475.8282" y1="133.0136" x2="474.4151" y2="105.0368" stroke="#333" stroke-width="1.5"/>
  <g>
  <line x1="474.4151" y1="105.0368" x2="465.0135" y2="90.4994" stroke="#333" stroke-width="1.5"/>
  <g>
  <line x1="465.0135" y1="90.4994" x2="455.4891" y2="85.6238" stroke="#333" stroke-width="1.5"/>
</g>
  <g>
  <line x1="465.0135" y1="90.4994" x2="464.4737" y2="79.8133" stroke="#333" stroke-width="1.5"/>
</g>
</g>
  <g>
  <line x1="474.4151" y1="105.0368" x2="482.304" y2="89.6261" stroke="#333" stroke-width="1.5"/>
  <g>
  <line x1="482.304" y1="89.6261" x2="481.7643" y2="78.9399" stroke="#333" stroke-width="1.5"/>
</g>
  <g>
  <line x1="482.304" y1="89.6261" x2="491.2887" y2="83.8155" stroke="#333" stroke-width="1.5"/>
</g>
</g>
</g>
  <g>
  <line x1="475.8282" y1="133.0136" x2="499.3503" y2="117.8014" stroke="#333" stroke-width="1.5"/>
  <g>
  <line x1="499.3503" y1="117.8014" x2="507.2392" y2="102.3906" stroke="#333" stroke-width="1.5"/>
  <g>
  <line x1="507.2392" y1="102.3906" x2="506.6994" y2="91.7045" stroke="#333" stroke-width="1.5"/>
</g>
  <g>
  <line x1="507.2392" y1="102.3906" x2="516.2238" y2="96.5801" stroke="#333" stroke-width="1.5"/>
</g>
</g>
  <g>
  <line x1="499.3503" y1="117.8014" x2="516.6408" y2="116.928" stroke="#333" stroke-width="1.5"/>
  <g>
  <line x1="516.6408" y1="116.928" x2="525.6255" y2="111.1175" stroke="#333" stroke-width="1.5"/>
</g>
  <g>
  <line x1="516.6408" y1="116.928" x2="526.1652" y2="121.8037" stroke="#333" stroke-width="1.5"/>
</g>
</g>
</g>
</g>
</g>
</g>
  <g>
  <line x1="523.3142" y1="346.2445" x2="577.3858" y2="240.6175" stroke="#333" stroke-width="1.5"/>
  <g>
  <line x1="577.3858" y1="240.6175" x2="573.6862" y2="167.3734" stroke="#333" stroke-width="1.5"/>
  <g>
  <line x1="573.6862" y1="167.3734" x2="549.0723" y2="129.314" stroke="#333" stroke-width="1.5"/>
  <g>
  <line x1="549.0723" y1="129.314" x2="524.1372" y2="116.5494" stroke="#333" stroke-width="1.5"/>
  <g>
  <line x1="524.1372" y1="116.5494" x2="506.8466" y2="117.4228" stroke="#333" stroke-width="1.5"/>
  <g>
  <line x1="506.8466" y1="117.4228" x2="497.862" y2="123.2333" stroke="#333" stroke-width="1.5"/>
</g>
  <g>
  <line x1="506.8466" y1="117.4228" x2="497.3222" y2="112.5471" stroke="#333" stroke-width="1.5"/>
</g>
</g>
  <g>
  <line x1="524.1372" y1="116.5494" x2="514.7355" y2="102.012" stroke="#333" stroke-width="1.5"/>
  <g>
  <line x1="514.7355" y1="102.012" x2="505.2112" y2="97.1364" stroke="#333" stroke-width="1.5"/>
</g>
  <g>
  <line x1="514.7355" y1="102.012" x2="514.1958" y2="91.3258" stroke="#333" stroke-width="1.5"/>
</g>
</g>
</g>
  <g>
  <line x1="549.0723" y1="129.314" x2="547.6592" y2="101.3372" stroke="#333" stroke-width="1.5"/>
  <g>
  <line x1="547.6592" y1="101.3372" x2="538.2576" y2="86.7998" stroke="#333" stroke-width="1.5"/>
  <g>
  <line x1="538.2576" y1="86.7998" x2="528.7332" y2="81.9242" stroke="#333" stroke-width="1.5"/>
</g>
  <g>
  <line x1="538.2576" y1="86.7998" x2="537.7178" y2="76.1136" stroke="#333" stroke-width="1.5"/>
</g>
</g>
  <g>
  <line x1="547.6592" y1="101.3372" x2="555.5481" y2="85.9264" stroke="#333" stroke-width="1.5"/>
  <g>
  <line x1="555.5481" y1="85.9264" x2="555.0084" y2="75.2403" stroke="#333" stroke-width="1.5"/>
</g>
  <g>
  <line x1="555.5481" y1="85.9264" x2="564.5328" y2="80.1159" stroke="#333" stroke-width="1.5"/>
</g>
</g>
</g>
</g>
  <g>
  <line x1="573.6862" y1="167.3734" x2="594.3397" y2="127.0275" stroke="#333" stroke-width="1.5"/>
  <g>
  <line x1="594.3397" y1="127.0275" x2="592.9266" y2="99.0507" stroke="#333" stroke-width="1.5"/>
  <g>
  <line x1="592.9266" y1="99.0507" x2="583.5249" y2="84.5133" stroke="#333" stroke-width="1.5"/>
  <g>
  <line x1="583.5249" y1="84.5133" x2="574.0005" y2="79.6377" stroke="#333" stroke-width="1.5"/>
</g>
  <g>
  <line x1="583.5249" y1="84.5133" x2="582.9851" y2="73.8271" stroke="#333" stroke-width="1.5"/>
</g>
</g>
  <g>
  <line x1="592.9266" y1="99.0507" x2="600.8155" y2="83.6399" stroke="#333" stroke-width="1.5"/>
  <g>
  <line x1="600.8155" y1="83.6399" x2="600.2757" y2="72.9538" stroke="#333" stroke-width="1.5"/>
</g>
  <g>
  <line x1="600.8155" y1="83.6399" x2="609.8001" y2="77.8294" stroke="#333" stroke-width="1.5"/>
</g>
</g>
</g>
  <g>
  <line x1="594.3397" y1="127.0275" x2="617.8617" y2="111.8153" stroke="#333" stroke-width="1.5"/>
  <g>
  <line x1="617.8617" y1="111.8153" x2="625.7506" y2="96.4045" stroke="#333" stroke-width="1.5"/>
  <g>
  <line x1="625.7506" y1="96.4045" x2="625.2109" y2="85.7183" stroke="#333" stroke-width="1.5"/>
</g>
  <g>
  <line x1="625.7506" y1="96.4045" x2="634.7352" y2="90.594" stroke="#333" stroke-width="1.5"/>
</g>
</g>
  <g>
  <line x1="617.8617" y1="111.8153" x2="635.1523" y2="110.9419" stroke="#333" stroke-width="1.5"/>
  <g>
  <line x1="635.1523" y1="110.9419" x2="644.1369" y2="105.1314" stroke="#333" stroke-width="1.5"/>
</g>
  <g>
  <line x1="635.1523" y1="110.9419" x2="644.6767" y2="115.8175" stroke="#333" stroke-width="1.5"/>
</g>
</g>
</g>
</g>
</g>
  <g>
  <line x1="577.3858" y1="240.6175" x2="638.9672" y2="200.7915" stroke="#333" stroke-width="1.5"/>
  <g>
  <line x1="638.9672" y1="200.7915" x2="659.6208" y2="160.4455" stroke="#333" stroke-width="1.5"/>
  <g>
  <line x1="659.6208" y1="160.4455" x2="658.2076" y2="132.4688" stroke="#333" stroke-width="1.5"/>
  <g>
  <line x1="658.2076" y1="132.4688" x2="648.806" y2="117.9314" stroke="#333" stroke-width="1.5"/>
  <g>
  <line x1="648.806" y1="117.9314" x2="639.2816" y2="113.0557" stroke="#333" stroke-width="1.5"/>
</g>
  <g>
  <line x1="648.806" y1="117.9314" x2="648.2662" y2="107.2452" stroke="#333" stroke-width="1.5"/>
</g>
</g>
  <g>
  <line x1="658.2076" y1="132.4688" x2="666.0966" y2="117.058" stroke="#333" stroke-width="1.5"/>
  <g>
  <line x1="666.0966" y1="117.058" x2="665.5568" y2="106.3718" stroke="#333" stroke-width="1.5"/>
</g>
  <g>
  <line x1="666.0966" y1="117.058" x2="675.0812" y2="111.2475" stroke="#333" stroke-width="1.5"/>
</g>
</g>
</g>
  <g>
  <line x1="659.6208" y1="160.4455" x2="683.1428" y2="145.2333" stroke="#333" stroke-width="1.5"/>
  <g>
  <line x1="683.1428" y1="145.2333" x2="691.0317" y2="129.8226" stroke="#333" stroke-width="1.5"/>
  <g>
  <line x1="691.0317" y1="129.8226" x2="690.4919" y2="119.1364" stroke="#333" stroke-width="1.5"/>
</g>
  <g>
  <line x1="691.0317" y1="129.8226" x2="700.0163" y2="124.012" stroke="#333" stroke-width="1.5"/>
</g>
</g>
  <g>
  <line x1="683.1428" y1="145.2333" x2="700.4334" y2="144.36" stroke="#333" stroke-width="1.5"/>
  <g>
  <line x1="700.4334" y1="144.36" x2="709.418" y2="138.5494" stroke="#333" stroke-width="1.5"/>
</g>
  <g>
  <line x1="700.4334" y1="144.36" x2="709.9577" y2="149.2356" stroke="#333" stroke-width="1.5"/>
</g>
</g>
</g>
</g>
  <g>
  <line x1="638.9672" y1="200.7915" x2="684.2346" y2="198.505" stroke="#333" stroke-width="1.5"/>
  <g>
  <line x1="684.2346" y1="198.505" x2="707.7566" y2="183.2928" stroke="#333" stroke-width="1.5"/>
  <g>
  <line x1="707.7566" y1="183.2928" x2="715.6455" y2="167.882" stroke="#333" stroke-width="1.5"/>
  <g>
  <line x1="715.6455" y1="167.882" x2="715.1058" y2="157.1958" stroke="#333" stroke-width="1.5"/>
</g>
  <g>
  <line x1="715.6455" y1="167.882" x2="724.6301" y2="162.0715" stroke="#333" stroke-width="1.5"/>
</g>
</g>
  <g>
  <line x1="707.7566" y1="183.2928" x2="725.0472" y2="182.4194" stroke="#333" stroke-width="1.5"/>
  <g>
  <line x1="725.0472" y1="182.4194" x2="734.0318" y2="176.6089" stroke="#333" stroke-width="1.5"/>
</g>
  <g>
  <line x1="725.0472" y1="182.4194" x2="734.5716" y2="187.295" stroke="#333" stroke-width="1.5"/>
</g>
</g>
</g>
  <g>
  <line x1="684.2346" y1="198.505" x2="709.1697" y2="211.2695" stroke="#333" stroke-width="1.5"/>
  <g>
  <line x1="709.1697" y1="211.2695" x2="726.4603" y2="210.3962" stroke="#333" stroke-width="1.5"/>
  <g>
  <line x1="726.4603" y1="210.3962" x2="735.4449" y2="204.5856" stroke="#333" stroke-width="1.5"/>
</g>
  <g>
  <line x1="726.4603" y1="210.3962" x2="735.9847" y2="215.2718" stroke="#333" stroke-width="1.5"/>
</g>
</g>
  <g>
  <line x1="709.1697" y1="211.2695" x2="718.5714" y2="225.8069" stroke="#333" stroke-width="1.5"/>
  <g>
  <line x1="718.5714" y1="225.8069" x2="728.0958" y2="230.6826" stroke="#333" stroke-width="1.5"/>
</g>
  <g>
  <line x1="718.5714" y1="225.8069" x2="719.1112" y2="236.4931" stroke="#333" stroke-width="1.5"/>
</g>
</g>
</g>
</g>
</g>
</g>
</g>
</g>
  <polygon points="399,191 422.2865,231.3333 399,271.6667 445.5729,271.6667 468.8594,312 445.5729,352.3333 399,352.3333 422.2865,392.6667 399,433 445.5729,433 468.8594,473.3333 492.1458,433 538.7188,433 562.0052,473.3333 538.7188,513.6667 585.2917,513.6667 608.5781,554 562.0052,554 538.7188,513.6667 515.4323,554 468.8594,554 445.5729,513.6667 468.8594,473.3333 422.2865,473.3333 399,433 375.7135,473.3333 329.1406,473.3333 352.4271,513.6667 329.1406,554 282.5677,554 259.2812,513.6667 235.9948,554 189.4219,554 212.7083,513.6667 259.2812,513.6667 235.9948,473.3333 259.2812,433 305.8542,433 329.1406,473.3333 352.4271,433 399,433 375.7135,392.6667 399,352.3333 352.4271,352.3333 329.1406,312 352.4271,271.6667 399,271.6667 375.7135,231.3333" fill="none" stroke="#333" stroke-width="1"/>
  <g>
  <polygon points="583,372 610,372 610,399" fill="none" stroke="#333" stroke-width="1"/>
  <polygon points="583,372 610,399 590.9081,418.0919" fill="none" stroke="#333" stroke-width="1"/>
  <polygon points="583,372 590.9081,418.0919 564.297,422.6576" fill="none" stroke="#333" stroke-width="1"/>
  <polygon points="583,372 564.297,422.6576 538.9681,413.3061" fill="none" stroke="#333" stroke-width="1"/>
  <polygon points="583,372 538.9681,413.3061 520.4955,393.6145" fill="none" stroke="#333" stroke-width="1"/>
  <polygon points="583,372 520.4955,393.6145 511.6714,368.0971" fill="none" stroke="#333" stroke-width="1"/>
  <polygon points="583,372 511.6714,368.0971 513.1466,341.1374" fill="none" stroke="#333" stroke-width="1"/>
  <polygon points="583,372 513.1466,341.1374 524.0581,316.4405" fill="none" stroke="#333" stroke-width="1"/>
  <polygon points="583,372 524.0581,316.4405 542.578,296.7932" fill="none" stroke="#333" stroke-width="1"/>
  <polygon points="583,372 542.578,296.7932 566.3604,284.0107" fill="none" stroke="#333" stroke-width="1"/>
  <polygon points="583,372 566.3604,284.0107 592.8902,278.9936" fill="none" stroke="#333" stroke-width="1"/>
  <polygon points="583,372 592.8902,278.9936 619.7388,281.8487" fill="none" stroke="#333" stroke-width="1"/>
  <polygon points="583,372 619.7388,281.8487 644.7423,292.0382" fill="none" stroke="#333" stroke-width="1"/>
  <polygon points="583,372 644.7423,292.0382 666.113,308.5395" fill="none" stroke="#333" stroke-width="1"/>
  <polygon points="583,372 666.113,308.5395 682.4984,329.9992" fill="none" stroke="#333" stroke-width="1"/>
  <polygon points="583,372 682.4984,329.9992 692.9986,354.8738" fill="none" stroke="#333" stroke-width="1"/>
  <polygon points="583,372 692.9986,354.8738 697.1523,381.5524" fill="none" stroke="#333" stroke-width="1"/>
  <polygon points="583,372 697.1523,381.5524 694.9008,408.4584" fill="none" stroke="#333" stroke-width="1"/>
  <polygon points="583,372 694.9008,408.4584 686.5367,434.1302" fill="none" stroke="#333" stroke-width="1"/>
  <polygon points="583,372 686.5367,434.1302 672.6439,457.2817" fill="none" stroke="#333" stroke-width="1"/>
</g>
  <g>
  <line x1="441" y1="477" x2="531" y2="477" stroke="#333" stroke-width="1.5"/>
  <line x1="437.6949" y1="496.8067" x2="522.8184" y2="526.0296" stroke="#333" stroke-width="1.5"/>
  <line x1="428.1376" y1="514.467" x2="499.1602" y2="569.7461" stroke="#333" stroke-width="1.5"/>
  <line x1="413.3638" y1="528.0672" x2="462.5892" y2="603.4121" stroke="#333" stroke-width="1.5"/>
  <line x1="394.9746" y1="536.1334" x2="417.0683" y2="623.3794" stroke="#333" stroke-width="1.5"/>
  <line x1="374.9627" y1="537.7917" x2="367.5305" y2="627.4843" stroke="#333" stroke-width="1.5"/>
  <line x1="355.4966" y1="532.8622" x2="319.344" y2="615.2818" stroke="#333" stroke-width="1.5"/>
  <line x1="338.6858" y1="521.8792" x2="277.7305" y2="588.0943" stroke="#333" stroke-width="1.5"/>
  <line x1="326.3521" y1="506.0328" x2="247.1995" y2="548.8681" stroke="#333" stroke-width="1.5"/>
  <line x1="319.832" y1="487.0403" x2="231.0594" y2="501.8538" stroke="#333" stroke-width="1.5"/>
  <line x1="319.832" y1="466.9597" x2="231.0594" y2="452.1462" stroke="#333" stroke-width="1.5"/>
  <line x1="326.3521" y1="447.9672" x2="247.1995" y2="405.1319" stroke="#333" stroke-width="1.5"/>
  <line x1="338.6858" y1="432.1208" x2="277.7305" y2="365.9057" stroke="#333" stroke-width="1.5"/>
  <line x1="355.4966" y1="421.1378" x2="319.344" y2="338.7182" stroke="#333" stroke-width="1.5"/>
  <line x1="374.9627" y1="416.2083" x2="367.5305" y2="326.5157" stroke="#333" stroke-width="1.5"/>
  <line x1="394.9746" y1="417.8666" x2="417.0683" y2="330.6206" stroke="#333" stroke-width="1.5"/>
  <line x1="413.3638" y1="425.9328" x2="462.5892" y2="350.5879" stroke="#333" stroke-width="1.5"/>
  <line x1="428.1376" y1="439.533" x2="499.1602" y2="384.2539" stroke="#333" stroke-width="1.5"/>
  <line x1="437.6949" y1="457.1933" x2="522.8184" y2="427.9704" stroke="#333" stroke-width="1.5"/>
</g>
  <g opacity="0.30">
  <g transform="rotate(-145.0,400,400)">
  <g>
  <line x1="374" y1="430" x2="510" y2="430" stroke="#333" stroke-width="1.5"/>
  <line x1="371.8126" y1="445.2136" x2="502.3037" y2="483.5292" stroke="#333" stroke-width="1.5"/>
  <line x1="365.4277" y1="459.1946" x2="479.8382" y2="532.7218" stroke="#333" stroke-width="1.5"/>
  <line x1="355.3625" y1="470.8105" x2="444.4235" y2="573.5924" stroke="#333" stroke-width="1.5"/>
  <line x1="342.4324" y1="479.1201" x2="398.9289" y2="602.8301" stroke="#333" stroke-width="1.5"/>
  <line x1="327.685" y1="483.4504" x2="347.0398" y2="618.0661" stroke="#333" stroke-width="1.5"/>
  <line x1="312.315" y1="483.4504" x2="292.9602" y2="618.0661" stroke="#333" stroke-width="1.5"/>
  <line x1="297.5676" y1="479.1201" x2="241.0711" y2="602.8301" stroke="#333" stroke-width="1.5"/>
  <line x1="284.6375" y1="470.8105" x2="195.5765" y2="573.5924" stroke="#333" stroke-width="1.5"/>
  <line x1="274.5723" y1="459.1946" x2="160.1618" y2="532.7218" stroke="#333" stroke-width="1.5"/>
  <line x1="268.1874" y1="445.2136" x2="137.6963" y2="483.5292" stroke="#333" stroke-width="1.5"/>
  <line x1="266" y1="430" x2="130" y2="430" stroke="#333" stroke-width="1.5"/>
  <line x1="268.1874" y1="414.7864" x2="137.6963" y2="376.4708" stroke="#333" stroke-width="1.5"/>
  <line x1="274.5723" y1="400.8054" x2="160.1618" y2="327.2782" stroke="#333" stroke-width="1.5"/>
  <line x1="284.6375" y1="389.1895" x2="195.5765" y2="286.4076" stroke="#333" stroke-width="1.5"/>
  <line x1="297.5676" y1="380.8799" x2="241.0711" y2="257.1699" stroke="#333" stroke-width="1.5"/>
  <line x1="312.315" y1="376.5496" x2="292.9602" y2="241.9339" stroke="#333" stroke-width="1.5"/>
  <line x1="327.685" y1="376.5496" x2="347.0398" y2="241.9339" stroke="#333" stroke-width="1.5"/>
  <line x1="342.4324" y1="380.8799" x2="398.9289" y2="257.1699" stroke="#333" stroke-width="1.5"/>
  <line x1="355.3625" y1="389.1895" x2="444.4235" y2="286.4076" stroke="#333" stroke-width="1.5"/>
  <line x1="365.4277" y1="400.8054" x2="479.8382" y2="327.2782" stroke="#333" stroke-width="1.5"/>
  <line x1="371.8126" y1="414.7864" x2="502.3037" y2="376.4708" stroke="#333" stroke-width="1.5"/>
</g>
</g>
</g>
</svg>