<svg xmlns="http://www.w3.org/2000/svg" width="800" height="800" viewBox="0 0 800 800">
  <g>
  <line x1="369" y1="443" x2="487" y2="443" stroke="#999" stroke-width="0.5"/>
  <line x1="369" y1="443" x2="428" y2="545.191" stroke="#999" stroke-width="0.5"/>
  <line x1="369" y1="443" x2="310" y2="545.191" stroke="#999" stroke-width="0.5"/>
  <line x1="369" y1="443" x2="251" y2="443" stroke="#999" stroke-width="0.5"/>
  <line x1="369" y1="443" x2="310" y2="340.809" stroke="#999" stroke-width="0.5"/>
  <line x1="369" y1="443" x2="428" y2="340.809" stroke="#999" stroke-width="0.5"/>
  <line x1="369" y1="443" x2="573.382" y2="561" stroke="#999" stroke-width="0.5"/>
  <line x1="369" y1="443" x2="369" y2="679" stroke="#999" stroke-width="0.5"/>
  <line x1="369" y1="443" x2="164.618" y2="561" stroke="#999" stroke-width="0.5"/>
  <line x1="369" y1="443" x2="164.618" y2="325" stroke="#999" stroke-width="0.5"/>
  <line x1="369" y1="443" x2="369" y2="207" stroke="#999" stroke-width="0.5"/>
  <line x1="369" y1="443" x2="573.382" y2="325" stroke="#999" stroke-width="0.5"/>
  <line x1="487" y1="443" x2="428" y2="545.191" stroke="#999" stroke-width="0.5"/>
  <line x1="487" y1="443" x2="310" y2="545.191" stroke="#999" stroke-width="0.5"/>
  <line x1="487" y1="443" x2="251" y2="443" stroke="#999" stroke-width="0.5"/>
  <line x1="487" y1="443" x2="310" y2="340.809" stroke="#999" stroke-width="0.5"/>
  <line x1="487" y1="443" x2="428" y2="340.809" stroke="#999" stroke-width="0.5"/>
  <line x1="487" y1="443" x2="573.382" y2="561" stroke="#999" stroke-width="0.5"/>
  <line x1="487" y1="443" x2="369" y2="679" stroke="#999" stroke-width="0.5"/>
  <line x1="487" y1="443" x2="164.618" y2="561" stroke="#999" stroke-width="0.5"/>
  <line x1="487" y1="443" x2="164.618" y2="325" stroke="#999" stroke-width="0.5"/>
  <line x1="487" y1="443" x2="369" y2="207" stroke="#999" stroke-width="0.5"/>
  <line x1="487" y1="443" x2="573.382" y2="325" stroke="#999" stroke-width="0.5"/>
  <line x1="428" y1="545.191" x2="310" y2="545.191" stroke="#999" stroke-width="0.5"/>
  <line x1="428" y1="545.191" x2="251" y2="443" stroke="#999" stroke-width="0.5"/>
  <line x1="428" y1="545.191" x2="310" y2="340.809" stroke="#999" stroke-width="0.5"/>
  <line x1="428" y1="545.191" x2="428" y2="340.809" stroke="#999" stroke-width="0.5"/>
  <line x1="428" y1="545.191" x2="573.382" y2="561" stroke="#999" stroke-width="0.5"/>
  <line x1="428" y1="545.191" x2="369" y2="679" stroke="#999" stroke-width="0.5"/>
  <line x1="428" y1="545.191" x2="164.618" y2="561" stroke="#999" stroke-width="0.5"/>
  <line x1="428" y1="545.191" x2="164.618" y2="325" stroke="#999" stroke-width="0.5"/>
  <line x1="428" y1="545.191" x2="369" y2="207" stroke="#999" stroke-width="0.5"/>
  <line x1="428" y1="545.191" x2="573.382" y2="325" stroke="#999" stroke-width="0.5"/>
  <line x1="310" y1="545.191" x2="251" y2="443" stroke="#999" stroke-width="0.5"/>
  <line x1="310" y1="545.191" x2="310" y2="340.809" stroke="#999" stroke-width="0.5"/>
  <line x1="310" y1="545.191" x2="428" y2="340.809" stroke="#999" stroke-width="0.5"/>
  <line x1="310" y1="545.191" x2="573.382" y2="561" stroke="#999" stroke-width="0.5"/>
  <line x1="310" y1="545.191" x2="369" y2="679" stroke="#999" stroke-width="0.5"/>
  <line x1="310" y1="545.191" x2="164.618" y2="561" stroke="#999" stroke-width="0.5"/>
  <line x1="310" y1="545.191" x2="164.618" y2="325" stroke="#999" stroke-width="0.5"/>
  <line x1="310" y1="545.191" x2="369" y2="207" stroke="#999" stroke-width="0.5"/>
  <line x1="310" y1="545.191" x2="573.382" y2="325" stroke="#999" stroke-width="0.5"/>
  <line x1="251" y1="443" x2="310" y2="340.809" stroke="#999" stroke-width="0.5"/>
  <line x1="251" y1="443" x2="428" y2="340.809" stroke="#999" stroke-width="0.5"/>
  <line x1="251" y1="443" x2="573.382" y2="561" stroke="#999" stroke-width="0.5"/>
  <line x1="251" y1="443" x2="369" y2="679" stroke="#999" stroke-width="0.5"/>
  <line x1="251" y1="443" x2="164.618" y2="561" stroke="#999" stroke-width="0.5"/>
  <line x1="251" y1="443" x2="164.618" y2="325" stroke="#999" stroke-width="0.5"/>
  <line x1="251" y1="443" x2="369" y2="207" stroke="#999" stroke-width="0.5"/>
  <line x1="251" y1="443" x2="573.382" y2="325" stroke="#999" stroke-width="0.5"/>
  <line x1="310" y1="340.809" x2="428" y2="340.809" stroke="#999" stroke-width="0.5"/>
  <line x1="310" y1="340.809" x2="573.382" y2="561" stroke="#999" stroke-width="0.5"/>
  <line x1="310" y1="340.809" x2="369" y2="679" stroke="#999" stroke-width="0.5"/>
  <line x1="310" y1="340.809" x2="164.618" y2="561" stroke="#999" stroke-width="0.5"/>
  <line x1="310" y1="340.809" x2="164.618" y2="325" stroke="#999" stroke-width="0.5"/>
  <line x1="310" y1="340.809" x2="369" y2="207" stroke="#999" stroke-width="0.5"/>
  <line x1="310" y1="340.809" x2="573.382" y2="325" stroke="#999" stroke-width="0.5"/>
  <line x1="428" y1="340.809" x2="573.382" y2="561" stroke="#999" stroke-width="0.5"/>
  <line x1="428" y1="340.809" x2="369" y2="679" stroke="#999" stroke-width="0.5"/>
  <line x1="428" y1="340.809" x2="164.618" y2="561" stroke="#999" stroke-width="0.5"/>
  <line x1="428" y1="340.809" x2="164.618" y2="325" stroke="#999" stroke-width="0.5"/>
  <line x1="428" y1="340.809" x2="369" y2="207" stroke="#999" stroke-width="0.5"/>
  <line x1="428" y1="340.809" x2="573.382" y2="325" stroke="#999" stroke-width="0.5"/>
  <line x1="573.382" y1="561" x2="369" y2="679" stroke="#999" stroke-width="0.5"/>
  <line x1="573.382" y1="561" x2="164.618" y2="561" stroke="#999" stroke-width="0.5"/>
  <line x1="573.382" y1="561" x2="164.618" y2="325" stroke="#999" stroke-width="0.5"/>
  <line x1="573.382" y1="561" x2="369" y2="207" stroke="#999" stroke-width="0.5"/>
  <line x1="573.382" y1="561" x2="573.382" y2="325" stroke="#999" stroke-width="0.5"/>
  <line x1="369" y1="679" x2="164.618" y2="561" stroke="#999" stroke-width="0.5"/>
  <line x1="369" y1="679" x2="164.618" y2="325" stroke="#999" stroke-width="0.5"/>
  <line x1="369" y1="679" x2="369" y2="207" stroke="#999" stroke-width="0.5"/>
  <line x1="369" y1="679" x2="573.382" y2="325" stroke="#999" stroke-width="0.5"/>
  <line x1="164.618" y1="561" x2="164.618" y2="325" stroke="#999" stroke-width="0.5"/>
  <line x1="164.618" y1="561" x2="369" y2="207" stroke="#999" stroke-width="0.5"/>
  <line x1="164.618" y1="561" x2="573.382" y2="325" stroke="#999" stroke-width="0.5"/>
  <line x1="164.618" y1="325" x2="369" y2="207" stroke="#999" stroke-width="0.5"/>
  <line x1="164.618" y1="325" x2="573.382" y2="325" stroke="#999" stroke-width="0.5"/>
  <line x1="369" y1="207" x2="573.382" y2="325" stroke="#999" stroke-width="0.5"/>
  <circle cx="369" cy="443" r="17.7" fill="none" stroke="#333" stroke-width="1"/>
  <circle cx="487" cy="443" r="17.7" fill="none" stroke="#333" stroke-width="1"/>
  <circle cx="428" cy="545.191" r="17.7" fill="none" stroke="#333" stroke-width="1"/>
  <circle cx="310" cy="545.191" r="17.7" fill="none" stroke="#333" stroke-width="1"/>
  <circle cx="251" cy="443" r="17.7" fill="none" stroke="#333" stroke-width="1"/>
  <circle cx="310" cy="340.809" r="17.7" fill="none" stroke="#333" stroke-width="1"/>
  <circle cx="428" cy="340.809" r="17.7" fill="none" stroke="#333" stroke-width="1"/>
  <circle cx="573.382" cy="561" r="17.7" fill="none" stroke="#333" stroke-width="1"/>
  <circle cx="369" cy="679" r="17.7" fill="none" stroke="#333" stroke-width="1"/>
  <circle cx="164.618" cy="561" r="17.7" fill="none" stroke="#333" stroke-width="1"/>
  <circle cx="164.618" cy="325" r="17.7" fill="none" stroke="#333" stroke-width="1"/>
  <circle cx="369" cy="207" r="17.7" fill="none" stroke="#333" stroke-width="1"/>
  <circle cx="573.382" cy="325" r="17.7" fill="none" stroke="#333" stroke-width="1"/>
</g>
  <g>
  <line x1="225" y1="563" x2="233.6201" y2="368.1906" stroke="#333" stroke-width="1.5"/>
  <g>
  <line x1="233.6201" y1="368.1906" x2="178.0344" y2="261.2584" stroke="#333" stroke-width="1.5"/>
  <g>
  <line x1="178.0344" y1="261.2584" x2="115.2393" y2="221.2017" stroke="#333" stroke-width="1.5"/>
  <g>
  <line x1="115.2393" y1="221.2017" x2="69.251" y2="219.1668" stroke="#333" stroke-width="1.5"/>
  <g>
  <line x1="69.251" y1="219.1668" x2="44.0078" y2="232.2888" stroke="#333" stroke-width="1.5"/>
  <g>
  <line x1="44.0078" y1="232.2888" x2="34.5516" y2="247.1127" stroke="#333" stroke-width="1.5"/>
</g>
  <g>
  <line x1="44.0078" y1="232.2888" x2="26.4418" y2="231.5115" stroke="#333" stroke-width="1.5"/>
</g>
</g>
  <g>
  <line x1="69.251" y1="219.1668" x2="45.2654" y2="203.8665" stroke="#333" stroke-width="1.5"/>
  <g>
  <line x1="45.2654" y1="203.8665" x2="27.6995" y2="203.0892" stroke="#333" stroke-width="1.5"/>
</g>
  <g>
  <line x1="45.2654" y1="203.8665" x2="37.1556" y2="188.2653" stroke="#333" stroke-width="1.5"/>
</g>
</g>
</g>
  <g>
  <line x1="115.2393" y1="221.2017" x2="94.0074" y2="180.3572" stroke="#333" stroke-width="1.5"/>
  <g>
  <line x1="94.0074" y1="180.3572" x2="70.0218" y2="165.0569" stroke="#333" stroke-width="1.5"/>
  <g>
  <line x1="70.0218" y1="165.0569" x2="52.4559" y2="164.2797" stroke="#333" stroke-width="1.5"/>
</g>
  <g>
  <line x1="70.0218" y1="165.0569" x2="61.912" y2="149.4557" stroke="#333" stroke-width="1.5"/>
</g>
</g>
  <g>
  <line x1="94.0074" y1="180.3572" x2="95.2651" y2="151.9349" stroke="#333" stroke-width="1.5"/>
  <g>
  <line x1="95.2651" y1="151.9349" x2="87.1553" y2="136.3337" stroke="#333" stroke-width="1.5"/>
</g>
  <g>
  <line x1="95.2651" y1="151.9349" x2="104.7212" y2="137.111" stroke="#333" stroke-width="1.5"/>
</g>
</g>
</g>
</g>
  <g>
  <line x1="178.0344" y1="261.2584" x2="181.327" y2="186.8479" stroke="#333" stroke-width="1.5"/>
  <g>
  <line x1="181.327" y1="186.8479" x2="160.0952" y2="146.0034" stroke="#333" stroke-width="1.5"/>
  <g>
  <line x1="160.0952" y1="146.0034" x2="136.1096" y2="130.7031" stroke="#333" stroke-width="1.5"/>
  <g>
  <line x1="136.1096" y1="130.7031" x2="118.5436" y2="129.9258" stroke="#333" stroke-width="1.5"/>
</g>
  <g>
  <line x1="136.1096" y1="130.7031" x2="127.9997" y2="115.1019" stroke="#333" stroke-width="1.5"/>
</g>
</g>
  <g>
  <line x1="160.0952" y1="146.0034" x2="161.3528" y2="117.5811" stroke="#333" stroke-width="1.5"/>
  <g>
  <line x1="161.3528" y1="117.5811" x2="153.243" y2="101.9799" stroke="#333" stroke-width="1.5"/>
</g>
  <g>
  <line x1="161.3528" y1="117.5811" x2="170.8089" y2="102.7572" stroke="#333" stroke-width="1.5"/>
</g>
</g>
</g>
  <g>
  <line x1="181.327" y1="186.8479" x2="206.0834" y2="148.0383" stroke="#333" stroke-width="1.5"/>
  <g>
  <line x1="206.0834" y1="148.0383" x2="207.3411" y2="119.616" stroke="#333" stroke-width="1.5"/>
  <g>
  <line x1="207.3411" y1="119.616" x2="199.2312" y2="104.0148" stroke="#333" stroke-width="1.5"/>
</g>
  <g>
  <line x1="207.3411" y1="119.616" x2="216.7972" y2="104.7921" stroke="#333" stroke-width="1.5"/>
</g>
</g>
  <g>
  <line x1="206.0834" y1="148.0383" x2="231.3267" y2="134.9163" stroke="#333" stroke-width="1.5"/>
  <g>
  <line x1="231.3267" y1="134.9163" x2="240.7828" y2="120.0924" stroke="#333" stroke-width="1.5"/>
</g>
  <g>
  <line x1="231.3267" y1="134.9163" x2="248.8926" y2="135.6936" stroke="#333" stroke-width="1.5"/>
</g>
</g>
</g>
</g>
</g>
  <g>
  <line x1="233.6201" y1="368.1906" x2="298.4332" y2="266.5859" stroke="#333" stroke-width="1.5"/>
  <g>
  <line x1="298.4332" y1="266.5859" x2="301.7258" y2="192.1754" stroke="#333" stroke-width="1.5"/>
  <g>
  <line x1="301.7258" y1="192.1754" x2="280.494" y2="151.3309" stroke="#333" stroke-width="1.5"/>
  <g>
  <line x1="280.494" y1="151.3309" x2="256.5084" y2="136.0306" stroke="#333" stroke-width="1.5"/>
  <g>
  <line x1="256.5084" y1="136.0306" x2="238.9424" y2="135.2533" stroke="#333" stroke-width="1.5"/>
</g>
  <g>
  <line x1="256.5084" y1="136.0306" x2="248.3985" y2="120.4294" stroke="#333" stroke-width="1.5"/>
</g>
</g>
  <g>
  <line x1="280.494" y1="151.3309" x2="281.7516" y2="122.9086" stroke="#333" stroke-width="1.5"/>
  <g>
  <line x1="281.7516" y1="122.9086" x2="273.6418" y2="107.3074" stroke="#333" stroke-width="1.5"/>
</g>
  <g>
  <line x1="281.7516" y1="122.9086" x2="291.2077" y2="108.0847" stroke="#333" stroke-width="1.5"/>
</g>
</g>
</g>
  <g>
  <line x1="301.7258" y1="192.1754" x2="326.4822" y2="153.3658" stroke="#333" stroke-width="1.5"/>
  <g>
  <line x1="326.4822" y1="153.3658" x2="327.7399" y2="124.9435" stroke="#333" stroke-width="1.5"/>
  <g>
  <line x1="327.7399" y1="124.9435" x2="319.6301" y2="109.3423" stroke="#333" stroke-width="1.5"/>
</g>
  <g>
  <line x1="327.7399" y1="124.9435" x2="337.196" y2="110.1196" stroke="#333" stroke-width="1.5"/>
</g>
</g>
  <g>
  <line x1="326.4822" y1="153.3658" x2="351.7255" y2="140.2438" stroke="#333" stroke-width="1.5"/>
  <g>
  <line x1="351.7255" y1="140.2438" x2="361.1816" y2="125.4199" stroke="#333" stroke-width="1.5"/>
</g>
  <g>
  <line x1="351.7255" y1="140.2438" x2="369.2915" y2="141.0211" stroke="#333" stroke-width="1.5"/>
</g>
</g>
</g>
</g>
  <g>
  <line x1="298.4332" y1="266.5859" x2="364.521" y2="232.2321" stroke="#333" stroke-width="1.5"/>
  <g>
  <line x1="364.521" y1="232.2321" x2="389.2774" y2="193.4226" stroke="#333" stroke-width="1.5"/>
  <g>
  <line x1="389.2774" y1="193.4226" x2="390.535" y2="165.0003" stroke="#333" stroke-width="1.5"/>
  <g>
  <line x1="390.535" y1="165.0003" x2="382.4252" y2="149.3991" stroke="#333" stroke-width="1.5"/>
</g>
  <g>
  <line x1="390.535" y1="165.0003" x2="399.9912" y2="150.1763" stroke="#333" stroke-width="1.5"/>
</g>
</g>
  <g>
  <line x1="389.2774" y1="193.4226" x2="414.5207" y2="180.3006" stroke="#333" stroke-width="1.5"/>
  <g>
  <line x1="414.5207" y1="180.3006" x2="423.9768" y2="165.4767" stroke="#333" stroke-width="1.5"/>
</g>
  <g>
  <line x1="414.5207" y1="180.3006" x2="432.0866" y2="181.0779" stroke="#333" stroke-width="1.5"/>
</g>
</g>
</g>
  <g>
  <line x1="364.521" y1="232.2321" x2="410.5092" y2="234.267" stroke="#333" stroke-width="1.5"/>
  <g>
  <line x1="410.5092" y1="234.267" x2="435.7525" y2="221.145" stroke="#333" stroke-width="1.5"/>
  <g>
  <line x1="435.7525" y1="221.145" x2="445.2086" y2="206.3211" stroke="#333" stroke-width="1.5"/>
</g>
  <g>
  <line x1="435.7525" y1="221.145" x2="453.3184" y2="221.9223" stroke="#333" stroke-width="1.5"/>
</g>
</g>
  <g>
  <line x1="410.5092" y1="234.267" x2="434.4948" y2="249.5673" stroke="#333" stroke-width="1.5"/>
  <g>
  <line x1="434.4948" y1="249.5673" x2="452.0608" y2="250.3446" stroke="#333" stroke-width="1.5"/>
</g>
  <g>
  <line x1="434.4948" y1="249.5673" x2="442.6047" y2="265.1685" stroke="#333" stroke-width="1.5"/>
</g>
</g>
</g>
</g>
</g>
</g>
</svg>