<svg xmlns="http://www.w3.org/2000/svg" width="800" height="800" viewBox="0 0 800 800">
  <g transform="rotate(-149.8,400,400)">
  <g>
  <polygon points="343,339 336.9919,349.4062 349.0081,349.4062" fill="#333" stroke="none"/>
  <polygon points="336.9919,349.4062 330.9839,359.8125 343,359.8125" fill="#333" stroke="none"/>
  <polygon points="349.0081,349.4062 343,359.8125 355.0161,359.8125" fill="#333" stroke="none"/>
  <polygon points="330.9839,359.8125 324.9758,370.2188 336.9919,370.2188" fill="#333" stroke="none"/>
  <polygon points="324.9758,370.2188 318.9678,380.625 330.9839,380.625" fill="#333" stroke="none"/>
  <polygon points="336.9919,370.2188 330.9839,380.625 343,380.625" fill="#333" stroke="none"/>
  <polygon points="355.0161,359.8125 349.0081,370.2188 361.0242,370.2188" fill="#333" stroke="none"/>
  <polygon points="349.0081,370.2188 343,380.625 355.0161,380.625" fill="#333" stroke="none"/>
  <polygon points="361.0242,370.2188 355.0161,380.625 367.0322,380.625" fill="#333" stroke="none"/>
  <polygon points="318.9678,380.625 312.9597,391.0312 324.9758,391.0312" fill="#333" stroke="none"/>
  <polygon points="312.9597,391.0312 306.9517,401.4375 318.9678,401.4375" fill="#333" stroke="none"/>
  <polygon points="324.9758,391.0312 318.9678,401.4375 330.9839,401.4375" fill="#333" stroke="none"/>
  <polygon points="306.9517,401.4375 300.9436,411.8438 312.9597,411.8438" fill="#333" stroke="none"/>
  <polygon points="300.9436,411.8438 294.9356,422.25 306.9517,422.25" fill="#333" stroke="none"/>
  <polygon points="312.9597,411.8438 306.9517,422.25 318.9678,422.25" fill="#333" stroke="none"/>
  <polygon points="330.9839,401.4375 324.9758,411.8438 336.9919,411.8438" fill="#333" stroke="none"/>
  <polygon points="324.9758,411.8438 318.9678,422.25 330.9839,422.25" fill="#333" stroke="none"/>
  <polygon points="336.9919,411.8438 330.9839,422.25 343,422.25" fill="#333" stroke="none"/>
  <polygon points="367.0322,380.625 361.0242,391.0312 373.0403,391.0312" fill="#333" stroke="none"/>
  <polygon points="361.0242,391.0312 355.0161,401.4375 367.0322,401.4375" fill="#333" stroke="none"/>
  <polygon points="373.0403,391.0312 367.0322,401.4375 379.0483,401.4375" fill="#333" stroke="none"/>
  <polygon points="355.0161,401.4375 349.0081,411.8438 361.0242,411.8438" fill="#333" stroke="none"/>
  <polygon points="349.0081,411.8438 343,422.25 355.0161,422.25" fill="#333" stroke="none"/>
  <polygon points="361.0242,411.8438 355.0161,422.25 367.0322,422.25" fill="#333" stroke="none"/>
  <polygon points="379.0483,401.4375 373.0403,411.8438 385.0564,411.8438" fill="#333" stroke="none"/>
  <polygon points="373.0403,411.8438 367.0322,422.25 379.0483,422.25" fill="#333" stroke="none"/>
  <polygon points="385.0564,411.8438 379.0483,422.25 391.0644,422.25" fill="#333" stroke="none"/>
  <polygon points="294.9356,422.25 288.9275,432.6562 300.9436,432.6562" fill="#333" stroke="none"/>
  <polygon points="288.9275,432.6562 282.9195,443.0625 294.9356,443.0625" fill="#333" stroke="none"/>
  <polygon points="300.9436,432.6562 294.9356,443.0625 306.9517,443.0625" fill="#333" stroke="none"/>
  <polygon points="282.9195,443.0625 276.9114,453.4688 288.9275,453.4688" fill="#333" stroke="none"/>
  <polygon points="276.9114,453.4688 270.9034,463.875 282.9195,463.875" fill="#333" stroke="none"/>
  <polygon points="288.9275,453.4688 282.9195,463.875 294.9356,463.875" fill="#333" stroke="none"/>
  <polygon points="306.9517,443.0625 300.9436,453.4688 312.9597,453.4688" fill="#333" stroke="none"/>
  <polygon points="300.9436,453.4688 294.9356,463.875 306.9517,463.875" fill="#333" stroke="none"/>
  <polygon points="312.9597,453.4688 306.9517,463.875 318.9678,463.875" fill="#333" stroke="none"/>
  <polygon points="270.9034,463.875 264.8953,474.2812 276.9114,474.2812" fill="#333" stroke="none"/>
  <polygon points="264.8953,474.2812 258.8873,484.6875 270.9034,484.6875" fill="#333" stroke="none"/>
  <polygon points="276.9114,474.2812 270.9034,484.6875 282.9195,484.6875" fill="#333" stroke="none"/>
  <polygon points="258.8873,484.6875 252.8792,495.0938 264.8953,495.0938" fill="#333" stroke="none"/>
  <polygon points="252.8792,495.0938 246.8712,505.5 258.8873,505.5" fill="#333" stroke="none"/>
  <polygon points="264.8953,495.0938 258.8873,505.5 270.9034,505.5" fill="#333" stroke="none"/>
  <polygon points="282.9195,484.6875 276.9114,495.0938 288.9275,495.0938" fill="#333" stroke="none"/>
  <polygon points="276.9114,495.0938 270.9034,505.5 282.9195,505.5" fill="#333" stroke="none"/>
  <polygon points="288.9275,495.0938 282.9195,505.5 294.9356,505.5" fill="#333" stroke="none"/>
  <polygon points="318.9678,463.875 312.9597,474.2812 324.9758,474.2812" fill="#333" stroke="none"/>
  <polygon points="312.9597,474.2812 306.9517,484.6875 318.9678,484.6875" fill="#333" stroke="none"/>
  <polygon points="324.9758,474.2812 318.9678,484.6875 330.9839,484.6875" fill="#333" stroke="none"/>
  <polygon points="306.9517,484.6875 300.9436,495.0938 312.9597,495.0938" fill="#333" stroke="none"/>
  <polygon points="300.9436,495.0938 294.9356,505.5 306.9517,505.5" fill="#333" stroke="none"/>
  <polygon points="312.9597,495.0938 306.9517,505.5 318.9678,505.5" fill="#333" stroke="none"/>
  <polygon points="330.9839,484.6875 324.9758,495.0938 336.9919,495.0938" fill="#333" stroke="none"/>
  <polygon points="324.9758,495.0938 318.9678,505.5 330.9839,505.5" fill="#333" stroke="none"/>
  <polygon points="336.9919,495.0938 330.9839,505.5 343,505.5" fill="#333" stroke="none"/>
  <polygon points="391.0644,422.25 385.0564,432.6562 397.0725,432.6562" fill="#333" stroke="none"/>
  <polygon points="385.0564,432.6562 379.0483,443.0625 391.0644,443.0625" fill="#333" stroke="none"/>
  <polygon points="397.0725,432.6562 391.0644,443.0625 403.0805,443.0625" fill="#333" stroke="none"/>
  <polygon points="379.0483,443.0625 373.0403,453.4688 385.0564,453.4688" fill="#333" stroke="none"/>
  <polygon points="373.0403,453.4688 367.0322,463.875 379.0483,463.875" fill="#333" stroke="none"/>
  <polygon points="385.0564,453.4688 379.0483,463.875 391.0644,463.875" fill="#333" stroke="none"/>
  <polygon points="403.0805,443.0625 397.0725,453.4688 409.0886,453.4688" fill="#333" stroke="none"/>
  <polygon points="397.0725,453.4688 391.0644,463.875 403.0805,463.875" fill="#333" stroke="none"/>
  <polygon points="409.0886,453.4688 403.0805,463.875 415.0966,463.875" fill="#333" stroke="none"/>
  <polygon points="367.0322,463.875 361.0242,474.2812 373.0403,474.2812" fill="#333" stroke="none"/>
  <polygon points="361.0242,474.2812 355.0161,484.6875 367.0322,484.6875" fill="#333" stroke="none"/>
  <polygon points="373.0403,474.2812 367.0322,484.6875 379.0483,484.6875" fill="#333" stroke="none"/>
  <polygon points="355.0161,484.6875 349.0081,495.0938 361.0242,495.0938" fill="#333" stroke="none"/>
  <polygon points="349.0081,495.0938 343,505.5 355.0161,505.5" fill="#333" stroke="none"/>
  <polygon points="361.0242,495.0938 355.0161,505.5 367.0322,505.5" fill="#333" stroke="none"/>
  <polygon points="379.0483,484.6875 373.0403,495.0938 385.0564,495.0938" fill="#333" stroke="none"/>
  <polygon points="373.0403,495.0938 367.0322,505.5 379.0483,505.5" fill="#333" stroke="none"/>
  <polygon points="385.0564,495.0938 379.0483,505.5 391.0644,505.5" fill="#333" stroke="none"/>
  <polygon points="415.0966,463.875 409.0886,474.2812 421.1047,474.2812" fill="#333" stroke="none"/>
  <polygon points="409.0886,474.2812 403.0805,484.6875 415.0966,484.6875" fill="#333" stroke="none"/>
  <polygon points="421.1047,474.2812 415.0966,484.6875 427.1127,484.6875" fill="#333" stroke="none"/>
  <polygon points="403.0805,484.6875 397.0725,495.0938 409.0886,495.0938" fill="#333" stroke="none"/>
  <polygon points="397.0725,495.0938 391.0644,505.5 403.0805,505.5" fill="#333" stroke="none"/>
  <polygon points="409.0886,495.0938 403.0805,505.5 415.0966,505.5" fill="#333" stroke="none"/>
  <polygon points="427.1127,484.6875 421.1047,495.0938 433.1208,495.0938" fill="#333" stroke="none"/>
  <polygon points="421.1047,495.0938 415.0966,505.5 427.1127,505.5" fill="#333" stroke="none"/>
  <polygon points="433.1208,495.0938 427.1127,505.5 439.1288,505.5" fill="#333" stroke="none"/>
  <polygon points="246.8712,505.5 240.8631,515.9062 252.8792,515.9062" fill="#333" stroke="none"/>
  <polygon points="240.8631,515.9062 234.8551,526.3125 246.8712,526.3125" fill="#333" stroke="none"/>
  <polygon points="252.8792,515.9062 246.8712,526.3125 258.8873,526.3125" fill="#333" stroke="none"/>
  <polygon points="234.8551,526.3125 228.847,536.7188 240.8631,536.7188" fill="#333" stroke="none"/>
  <polygon points="228.847,536.7188 222.839,547.125 234.8551,547.125" fill="#333" stroke="none"/>
  <polygon points="240.8631,536.7188 234.8551,547.125 246.8712,547.125" fill="#333" stroke="none"/>
  <polygon points="258.8873,526.3125 252.8792,536.7188 264.8953,536.7188" fill="#333" stroke="none"/>
  <polygon points="252.8792,536.7188 246.8712,547.125 258.8873,547.125" fill="#333" stroke="none"/>
  <polygon points="264.8953,536.7188 258.8873,547.125 270.9034,547.125" fill="#333" stroke="none"/>
  <polygon points="222.839,547.125 216.8309,557.5312 228.847,557.5312" fill="#333" stroke="none"/>
  <polygon points="216.8309,557.5312 210.8229,567.9375 222.839,567.9375" fill="#333" stroke="none"/>
  <polygon points="228.847,557.5312 222.839,567.9375 234.8551,567.9375" fill="#333" stroke="none"/>
  <polygon points="210.8229,567.9375 204.8148,578.3438 216.8309,578.3438" fill="#333" stroke="none"/>
  <polygon points="204.8148,578.3438 198.8068,588.75 210.8229,588.75" fill="#333" stroke="none"/>
  <polygon points="216.8309,578.3438 210.8229,588.75 222.839,588.75" fill="#333" stroke="none"/>
  <polygon points="234.8551,567.9375 228.847,578.3438 240.8631,578.3438" fill="#333" stroke="none"/>
  <polygon points="228.847,578.3438 222.839,588.75 234.8551,588.75" fill="#333" stroke="none"/>
  <polygon points="240.8631,578.3438 234.8551,588.75 246.8712,588.75" fill="#333" stroke="none"/>
  <polygon points="270.9034,547.125 264.8953,557.5312 276.9114,557.5312" fill="#333" stroke="none"/>
  <polygon points="264.8953,557.5312 258.8873,567.9375 270.9034,567.9375" fill="#333" stroke="none"/>
  <polygon points="276.9114,557.5312 270.9034,567.9375 282.9195,567.9375" fill="#333" stroke="none"/>
  <polygon points="258.8873,567.9375 252.8792,578.3438 264.8953,578.3438" fill="#333" stroke="none"/>
  <polygon points="252.8792,578.3438 246.8712,588.75 258.8873,588.75" fill="#333" stroke="none"/>
  <polygon points="264.8953,578.3438 258.8873,588.75 270.9034,588.75" fill="#333" stroke="none"/>
  <polygon points="282.9195,567.9375 276.9114,578.3438 288.9275,578.3438" fill="#333" stroke="none"/>
  <polygon points="276.9114,578.3438 270.9034,588.75 282.9195,588.75" fill="#333" stroke="none"/>
  <polygon points="288.9275,578.3438 282.9195,588.75 294.9356,588.75" fill="#333" stroke="none"/>
  <polygon points="198.8068,588.75 192.7987,599.1562 204.8148,599.1562" fill="#333" stroke="none"/>
  <polygon points="192.7987,599.1562 186.7907,609.5625 198.8068,609.5625" fill="#333" stroke="none"/>
  <polygon points="204.8148,599.1562 198.8068,609.5625 210.8229,609.5625" fill="#333" stroke="none"/>
  <polygon points="186.7907,609.5625 180.7826,619.9688 192.7987,619.9688" fill="#333" stroke="none"/>
  <polygon points="180.7826,619.9688 174.7746,630.375 186.7907,630.375" fill="#333" stroke="none"/>
  <polygon points="192.7987,619.9688 186.7907,630.375 198.8068,630.375" fill="#333" stroke="none"/>
  <polygon points="210.8229,609.5625 204.8148,619.9688 216.8309,619.9688" fill="#333" stroke="none"/>
  <polygon points="204.8148,619.9688 198.8068,630.375 210.8229,630.375" fill="#333" stroke="none"/>
  <polygon points="216.8309,619.9688 210.8229,630.375 222.839,630.375" fill="#333" stroke="none"/>
  <polygon points="174.7746,630.375 168.7665,640.7812 180.7826,640.7812" fill="#333" stroke="none"/>
  <polygon points="168.7665,640.7812 162.7585,651.1875 174.7746,651.1875" fill="#333" stroke="none"/>
  <polygon points="180.7826,640.7812 174.7746,651.1875 186.7907,651.1875" fill="#333" stroke="none"/>
  <polygon points="162.7585,651.1875 156.7504,661.5938 168.7665,661.5938" fill="#333" stroke="none"/>
  <polygon points="156.7504,661.5938 150.7424,672 162.7585,672" fill="#333" stroke="none"/>
  <polygon points="168.7665,661.5938 162.7585,672 174.7746,672" fill="#333" stroke="none"/>
  <polygon points="186.7907,651.1875 180.7826,661.5938 192.7987,661.5938" fill="#333" stroke="none"/>
  <polygon points="180.7826,661.5938 174.7746,672 186.7907,672" fill="#333" stroke="none"/>
  <polygon points="192.7987,661.5938 186.7907,672 198.8068,672" fill="#333" stroke="none"/>
  <polygon points="222.839,630.375 216.8309,640.7812 228.847,640.7812" fill="#333" stroke="none"/>
  <polygon points="216.8309,640.7812 210.8229,651.1875 222.839,651.1875" fill="#333" stroke="none"/>
  <polygon points="228.847,640.7812 222.839,651.1875 234.8551,651.1875" fill="#333" stroke="none"/>
  <polygon points="210.8229,651.1875 204.8148,661.5938 216.8309,661.5938" fill="#333" stroke="none"/>
  <polygon points="204.8148,661.5938 198.8068,672 210.8229,672" fill="#333" stroke="none"/>
  <polygon points="216.8309,661.5938 210.8229,672 222.839,672" fill="#333" stroke="none"/>
  <polygon points="234.8551,651.1875 228.847,661.5938 240.8631,661.5938" fill="#333" stroke="none"/>
  <polygon points="228.847,661.5938 222.839,672 234.8551,672" fill="#333" stroke="none"/>
  <polygon points="240.8631,661.5938 234.8551,672 246.8712,672" fill="#333" stroke="none"/>
  <polygon points="294.9356,588.75 288.9275,599.1562 300.9436,599.1562" fill="#333" stroke="none"/>
  <polygon points="288.9275,599.1562 282.9195,609.5625 294.9356,609.5625" fill="#333" stroke="none"/>
  <polygon points="300.9436,599.1562 294.9356,609.5625 306.9517,609.5625" fill="#333" stroke="none"/>
  <polygon points="282.9195,609.5625 276.9114,619.9688 288.9275,619.9688" fill="#333" stroke="none"/>
  <polygon points="276.9114,619.9688 270.9034,630.375 282.9195,630.375" fill="#333" stroke="none"/>
  <polygon points="288.9275,619.9688 282.9195,630.375 294.9356,630.375" fill="#333" stroke="none"/>
  <polygon points="306.9517,609.5625 300.9436,619.9688 312.9597,619.9688" fill="#333" stroke="none"/>
  <polygon points="300.9436,619.9688 294.9356,630.375 306.9517,630.375" fill="#333" stroke="none"/>
  <polygon points="312.9597,619.9688 306.9517,630.375 318.9678,630.375" fill="#333" stroke="none"/>
  <polygon points="270.9034,630.375 264.8953,640.7812 276.9114,640.7812" fill="#333" stroke="none"/>
  <polygon points="264.8953,640.7812 258.8873,651.1875 270.9034,651.1875" fill="#333" stroke="none"/>
  <polygon points="276.9114,640.7812 270.9034,651.1875 282.9195,651.1875" fill="#333" stroke="none"/>
  <polygon points="258.8873,651.1875 252.8792,661.5938 264.8953,661.5938" fill="#333" stroke="none"/>
  <polygon points="252.8792,661.5938 246.8712,672 258.8873,672" fill="#333" stroke="none"/>
  <polygon points="264.8953,661.5938 258.8873,672 270.9034,672" fill="#333" stroke="none"/>
  <polygon points="282.9195,651.1875 276.9114,661.5938 288.9275,661.5938" fill="#333" stroke="none"/>
  <polygon points="276.9114,661.5938 270.9034,672 282.9195,672" fill="#333" stroke="none"/>
  <polygon points="288.9275,661.5938 282.9195,672 294.9356,672" fill="#333" stroke="none"/>
  <polygon points="318.9678,630.375 312.9597,640.7812 324.9758,640.7812" fill="#333" stroke="none"/>
  <polygon points="312.9597,640.7812 306.9517,651.1875 318.9678,651.1875" fill="#333" stroke="none"/>
  <polygon points="324.9758,640.7812 318.9678,651.1875 330.9839,651.1875" fill="#333" stroke="none"/>
  <polygon points="306.9517,651.1875 300.9436,661.5938 312.9597,661.5938" fill="#333" stroke="none"/>
  <polygon points="300.9436,661.5938 294.9356,672 306.9517,672" fill="#333" stroke="none"/>
  <polygon points="312.9597,661.5938 306.9517,672 318.9678,672" fill="#333" stroke="none"/>
  <polygon points="330.9839,651.1875 324.9758,661.5938 336.9919,661.5938" fill="#333" stroke="none"/>
  <polygon points="324.9758,661.5938 318.9678,672 330.9839,672" fill="#333" stroke="none"/>
  <polygon points="336.9919,661.5938 330.9839,672 343,672" fill="#333" stroke="none"/>
  <polygon points="439.1288,505.5 433.1208,515.9062 445.1369,515.9062" fill="#333" stroke="none"/>
  <polygon points="433.1208,515.9062 427.1127,526.3125 439.1288,526.3125" fill="#333" stroke="none"/>
  <polygon points="445.1369,515.9062 439.1288,526.3125 451.1449,526.3125" fill="#333" stroke="none"/>
  <polygon points="427.1127,526.3125 421.1047,536.7188 433.1208,536.7188" fill="#333" stroke="none"/>
  <polygon points="421.1047,536.7188 415.0966,547.125 427.1127,547.125" fill="#333" stroke="none"/>
  <polygon points="433.1208,536.7188 427.1127,547.125 439.1288,547.125" fill="#333" stroke="none"/>
  <polygon points="451.1449,526.3125 445.1369,536.7188 457.153,536.7188" fill="#333" stroke="none"/>
  <polygon points="445.1369,536.7188 439.1288,547.125 451.1449,547.125" fill="#333" stroke="none"/>
  <polygon points="457.153,536.7188 451.1449,547.125 463.161,547.125" fill="#333" stroke="none"/>
  <polygon points="415.0966,547.125 409.0886,557.5312 421.1047,557.5312" fill="#333" stroke="none"/>
  <polygon points="409.0886,557.5312 403.0805,567.9375 415.0966,567.9375" fill="#333" stroke="none"/>
  <polygon points="421.1047,557.5312 415.0966,567.9375 427.1127,567.9375" fill="#333" stroke="none"/>
  <polygon points="403.0805,567.9375 397.0725,578.3438 409.0886,578.3438" fill="#333" stroke="none"/>
  <polygon points="397.0725,578.3438 391.0644,588.75 403.0805,588.75" fill="#333" stroke="none"/>
  <polygon points="409.0886,578.3438 403.0805,588.75 415.0966,588.75" fill="#333" stroke="none"/>
  <polygon points="427.1127,567.9375 421.1047,578.3438 433.1208,578.3438" fill="#333" stroke="none"/>
  <polygon points="421.1047,578.3438 415.0966,588.75 427.1127,588.75" fill="#333" stroke="none"/>
  <polygon points="433.1208,578.3438 427.1127,588.75 439.1288,588.75" fill="#333" stroke="none"/>
  <polygon points="463.161,547.125 457.153,557.5312 469.1691,557.5312" fill="#333" stroke="none"/>
  <polygon points="457.153,557.5312 451.1449,567.9375 463.161,567.9375" fill="#333" stroke="none"/>
  <polygon points="469.1691,557.5312 463.161,567.9375 475.1771,567.9375" fill="#333" stroke="none"/>
  <polygon points="451.1449,567.9375 445.1369,578.3438 457.153,578.3438" fill="#333" stroke="none"/>
  <polygon points="445.1369,578.3438 439.1288,588.75 451.1449,588.75" fill="#333" stroke="none"/>
  <polygon points="457.153,578.3438 451.1449,588.75 463.161,588.75" fill="#333" stroke="none"/>
  <polygon points="475.1771,567.9375 469.1691,578.3438 481.1852,578.3438" fill="#333" stroke="none"/>
  <polygon points="469.1691,578.3438 463.161,588.75 475.1771,588.75" fill="#333" stroke="none"/>
  <polygon points="481.1852,578.3438 475.1771,588.75 487.1932,588.75" fill="#333" stroke="none"/>
  <polygon points="391.0644,588.75 385.0564,599.1562 397.0725,599.1562" fill="#333" stroke="none"/>
  <polygon points="385.0564,599.1562 379.0483,609.5625 391.0644,609.5625" fill="#333" stroke="none"/>
  <polygon points="397.0725,599.1562 391.0644,609.5625 403.0805,609.5625" fill="#333" stroke="none"/>
  <polygon points="379.0483,609.5625 373.0403,619.9688 385.0564,619.9688" fill="#333" stroke="none"/>
  <polygon points="373.0403,619.9688 367.0322,630.375 379.0483,630.375" fill="#333" stroke="none"/>
  <polygon points="385.0564,619.9688 379.0483,630.375 391.0644,630.375" fill="#333" stroke="none"/>
  <polygon points="403.0805,609.5625 397.0725,619.9688 409.0886,619.9688" fill="#333" stroke="none"/>
  <polygon points="397.0725,619.9688 391.0644,630.375 403.0805,630.375" fill="#333" stroke="none"/>
  <polygon points="409.0886,619.9688 403.0805,630.375 415.0966,630.375" fill="#333" stroke="none"/>
  <polygon points="367.0322,630.375 361.0242,640.7812 373.0403,640.7812" fill="#333" stroke="none"/>
  <polygon points="361.0242,640.7812 355.0161,651.1875 367.0322,651.1875" fill="#333" stroke="none"/>
  <polygon points="373.0403,640.7812 367.0322,651.1875 379.0483,651.1875" fill="#333" stroke="none"/>
  <polygon points="355.0161,651.1875 349.0081,661.5938 361.0242,661.5938" fill="#333" stroke="none"/>
  <polygon points="349.0081,661.5938 343,672 355.0161,672" fill="#333" stroke="none"/>
  <polygon points="361.0242,661.5938 355.0161,672 367.0322,672" fill="#333" stroke="none"/>
  <polygon points="379.0483,651.1875 373.0403,661.5938 385.0564,661.5938" fill="#333" stroke="none"/>
  <polygon points="373.0403,661.5938 367.0322,672 379.0483,672" fill="#333" stroke="none"/>
  <polygon points="385.0564,661.5938 379.0483,672 391.0644,672" fill="#333" stroke="none"/>
  <polygon points="415.0966,630.375 409.0886,640.7812 421.1047,640.7812" fill="#333" stroke="none"/>
  <polygon points="409.0886,640.7812 403.0805,651.1875 415.0966,651.1875" fill="#333" stroke="none"/>
  <polygon points="421.1047,640.7812 415.0966,651.1875 427.1127,651.1875" fill="#333" stroke="none"/>
  <polygon points="403.0805,651.1875 397.0725,661.5938 409.0886,661.5938" fill="#333" stroke="none"/>
  <polygon points="397.0725,661.5938 391.0644,672 403.0805,672" fill="#333" stroke="none"/>
  <polygon points="409.0886,661.5938 403.0805,672 415.0966,672" fill="#333" stroke="none"/>
  <polygon points="427.1127,651.1875 421.1047,661.5938 433.1208,661.5938" fill="#333" stroke="none"/>
  <polygon points="421.1047,661.5938 415.0966,672 427.1127,672" fill="#333" stroke="none"/>
  <polygon points="433.1208,661.5938 427.1127,672 439.1288,672" fill="#333" stroke="none"/>
  <polygon points="487.1932,588.75 481.1852,599.1562 493.2013,599.1562" fill="#333" stroke="none"/>
  <polygon points="481.1852,599.1562 475.1771,609.5625 487.1932,609.5625" fill="#333" stroke="none"/>
  <polygon points="493.2013,599.1562 487.1932,609.5625 499.2093,609.5625" fill="#333" stroke="none"/>
  <polygon points="475.1771,609.5625 469.1691,619.9688 481.1852,619.9688" fill="#333" stroke="none"/>
  <polygon points="469.1691,619.9688 463.161,630.375 475.1771,630.375" fill="#333" stroke="none"/>
  <polygon points="481.1852,619.9688 475.1771,630.375 487.1932,630.375" fill="#333" stroke="none"/>
  <polygon points="499.2093,609.5625 493.2013,619.9688 505.2174,619.9688" fill="#333" stroke="none"/>
  <polygon points="493.2013,619.9688 487.1932,630.375 499.2093,630.375" fill="#333" stroke="none"/>
  <polygon points="505.2174,619.9688 499.2093,630.375 511.2254,630.375" fill="#333" stroke="none"/>
  <polygon points="463.161,630.375 457.153,640.7812 469.1691,640.7812" fill="#333" stroke="none"/>
  <polygon points="457.153,640.7812 451.1449,651.1875 463.161,651.1875" fill="#333" stroke="none"/>
  <polygon points="469.1691,640.7812 463.161,651.1875 475.1771,651.1875" fill="#333" stroke="none"/>
  <polygon points="451.1449,651.1875 445.1369,661.5938 457.153,661.5938" fill="#333" stroke="none"/>
  <polygon points="445.1369,661.5938 439.1288,672 451.1449,672" fill="#333" stroke="none"/>
  <polygon points="457.153,661.5938 451.1449,672 463.161,672" fill="#333" stroke="none"/>
  <polygon points="475.1771,651.1875 469.1691,661.5938 481.1852,661.5938" fill="#333" stroke="none"/>
  <polygon points="469.1691,661.5938 463.161,672 475.1771,672" fill="#333" stroke="none"/>
  <polygon points="481.1852,661.5938 475.1771,672 487.1932,672" fill="#333" stroke="none"/>
  <polygon points="511.2254,630.375 505.2174,640.7812 517.2335,640.7812" fill="#333" stroke="none"/>
  <polygon points="505.2174,640.7812 499.2093,651.1875 511.2254,651.1875" fill="#333" stroke="none"/>
  <polygon points="517.2335,640.7812 511.2254,651.1875 523.2415,651.1875" fill="#333" stroke="none"/>
  <polygon points="499.2093,651.1875 493.2013,661.5938 505.2174,661.5938" fill="#333" stroke="none"/>
  <polygon points="493.2013,661.5938 487.1932,672 499.2093,672" fill="#333" stroke="none"/>
  <polygon points="505.2174,661.5938 499.2093,672 511.2254,672" fill="#333" stroke="none"/>
  <polygon points="523.2415,651.1875 517.2335,661.5938 529.2496,661.5938" fill="#333" stroke="none"/>
  <polygon points="517.2335,661.5938 511.2254,672 523.2415,672" fill="#333" stroke="none"/>
  <polygon points="529.2496,661.5938 523.2415,672 535.2576,672" fill="#333" stroke="none"/>
</g>
</g>
  <g transform="rotate(-149.8,400,400)">
  <g>
  <polygon points="364,295 351.2803,317.0312 376.7197,317.0312" fill="#333" stroke="none"/>
  <polygon points="351.2803,317.0312 338.5605,339.0625 364,339.0625" fill="#333" stroke="none"/>
  <polygon points="376.7197,317.0312 364,339.0625 389.4395,339.0625" fill="#333" stroke="none"/>
  <polygon points="338.5605,339.0625 325.8408,361.0938 351.2803,361.0938" fill="#333" stroke="none"/>
  <polygon points="325.8408,361.0938 313.121,383.125 338.5605,383.125" fill="#333" stroke="none"/>
  <polygon points="351.2803,361.0938 338.5605,383.125 364,383.125" fill="#333" stroke="none"/>
  <polygon points="389.4395,339.0625 376.7197,361.0938 402.1592,361.0938" fill="#333" stroke="none"/>
  <polygon points="376.7197,361.0938 364,383.125 389.4395,383.125" fill="#333" stroke="none"/>
  <polygon points="402.1592,361.0938 389.4395,383.125 414.879,383.125" fill="#333" stroke="none"/>
  <polygon points="313.121,383.125 300.4013,405.1562 325.8408,405.1562" fill="#333" stroke="none"/>
  <polygon points="300.4013,405.1562 287.6815,427.1875 313.121,427.1875" fill="#333" stroke="none"/>
  <polygon points="325.8408,405.1562 313.121,427.1875 338.5605,427.1875" fill="#333" stroke="none"/>
  <polygon points="287.6815,427.1875 274.9618,449.2188 300.4013,449.2188" fill="#333" stroke="none"/>
  <polygon points="274.9618,449.2188 262.242,471.25 287.6815,471.25" fill="#333" stroke="none"/>
  <polygon points="300.4013,449.2188 287.6815,471.25 313.121,471.25" fill="#333" stroke="none"/>
  <polygon points="338.5605,427.1875 325.8408,449.2188 351.2803,449.2188" fill="#333" stroke="none"/>
  <polygon points="325.8408,449.2188 313.121,471.25 338.5605,471.25" fill="#333" stroke="none"/>
  <polygon points="351.2803,449.2188 338.5605,471.25 364,471.25" fill="#333" stroke="none"/>
  <polygon points="414.879,383.125 402.1592,405.1562 427.5987,405.1562" fill="#333" stroke="none"/>
  <polygon points="402.1592,405.1562 389.4395,427.1875 414.879,427.1875" fill="#333" stroke="none"/>
  <polygon points="427.5987,405.1562 414.879,427.1875 440.3185,427.1875" fill="#333" stroke="none"/>
  <polygon points="389.4395,427.1875 376.7197,449.2188 402.1592,449.2188" fill="#333" stroke="none"/>
  <polygon points="376.7197,449.2188 364,471.25 389.4395,471.25" fill="#333" stroke="none"/>
  <polygon points="402.1592,449.2188 389.4395,471.25 414.879,471.25" fill="#333" stroke="none"/>
  <polygon points="440.3185,427.1875 427.5987,449.2188 453.0382,449.2188" fill="#333" stroke="none"/>
  <polygon points="427.5987,449.2188 414.879,471.25 440.3185,471.25" fill="#333" stroke="none"/>
  <polygon points="453.0382,449.2188 440.3185,471.25 465.758,471.25" fill="#333" stroke="none"/>
  <polygon points="262.242,471.25 249.5223,493.2812 274.9618,493.2812" fill="#333" stroke="none"/>
  <polygon points="249.5223,493.2812 236.8025,515.3125 262.242,515.3125" fill="#333" stroke="none"/>
  <polygon points="274.9618,493.2812 262.242,515.3125 287.6815,515.3125" fill="#333" stroke="none"/>
  <polygon points="236.8025,515.3125 224.0828,537.3438 249.5223,537.3438" fill="#333" stroke="none"/>
  <polygon points="224.0828,537.3438 211.363,559.375 236.8025,559.375" fill="#333" stroke="none"/>
  <polygon points="249.5223,537.3438 236.8025,559.375 262.242,559.375" fill="#333" stroke="none"/>
  <polygon points="287.6815,515.3125 274.9618,537.3438 300.4013,537.3438" fill="#333" stroke="none"/>
  <polygon points="274.9618,537.3438 262.242,559.375 287.6815,559.375" fill="#333" stroke="none"/>
  <polygon points="300.4013,537.3438 287.6815,559.375 313.121,559.375" fill="#333" stroke="none"/>
  <polygon points="211.363,559.375 198.6433,581.4062 224.0828,581.4062" fill="#333" stroke="none"/>
  <polygon points="198.6433,581.4062 185.9235,603.4375 211.363,603.4375" fill="#333" stroke="none"/>
  <polygon points="224.0828,581.4062 211.363,603.4375 236.8025,603.4375" fill="#333" stroke="none"/>
  <polygon points="185.9235,603.4375 173.2038,625.4688 198.6433,625.4688" fill="#333" stroke="none"/>
  <polygon points="173.2038,625.4688 160.484,647.5 185.9235,647.5" fill="#333" stroke="none"/>
  <polygon points="198.6433,625.4688 185.9235,647.5 211.363,647.5" fill="#333" stroke="none"/>
  <polygon points="236.8025,603.4375 224.0828,625.4688 249.5223,625.4688" fill="#333" stroke="none"/>
  <polygon points="224.0828,625.4688 211.363,647.5 236.8025,647.5" fill="#333" stroke="none"/>
  <polygon points="249.5223,625.4688 236.8025,647.5 262.242,647.5" fill="#333" stroke="none"/>
  <polygon points="313.121,559.375 300.4013,581.4062 325.8408,581.4062" fill="#333" stroke="none"/>
  <polygon points="300.4013,581.4062 287.6815,603.4375 313.121,603.4375" fill="#333" stroke="none"/>
  <polygon points="325.8408,581.4062 313.121,603.4375 338.5605,603.4375" fill="#333" stroke="none"/>
  <polygon points="287.6815,603.4375 274.9618,625.4688 300.4013,625.4688" fill="#333" stroke="none"/>
  <polygon points="274.9618,625.4688 262.242,647.5 287.6815,647.5" fill="#333" stroke="none"/>
  <polygon points="300.4013,625.4688 287.6815,647.5 313.121,647.5" fill="#333" stroke="none"/>
  <polygon points="338.5605,603.4375 325.8408,625.4688 351.2803,625.4688" fill="#333" stroke="none"/>
  <polygon points="325.8408,625.4688 313.121,647.5 338.5605,647.5" fill="#333" stroke="none"/>
  <polygon points="351.2803,625.4688 338.5605,647.5 364,647.5" fill="#333" stroke="none"/>
  <polygon points="465.758,471.25 453.0382,493.2812 478.4777,493.2812" fill="#333" stroke="none"/>
  <polygon points="453.0382,493.2812 440.3185,515.3125 465.758,515.3125" fill="#333" stroke="none"/>
  <polygon points="478.4777,493.2812 465.758,515.3125 491.1975,515.3125" fill="#333" stroke="none"/>
  <polygon points="440.3185,515.3125 427.5987,537.3438 453.0382,537.3438" fill="#333" stroke="none"/>
  <polygon points="427.5987,537.3438 414.879,559.375 440.3185,559.375" fill="#333" stroke="none"/>
  <polygon points="453.0382,537.3438 440.3185,559.375 465.758,559.375" fill="#333" stroke="none"/>
  <polygon points="491.1975,515.3125 478.4777,537.3438 503.9172,537.3438" fill="#333" stroke="none"/>
  <polygon points="478.4777,537.3438 465.758,559.375 491.1975,559.375" fill="#333" stroke="none"/>
  <polygon points="503.9172,537.3438 491.1975,559.375 516.637,559.375" fill="#333" stroke="none"/>
  <polygon points="414.879,559.375 402.1592,581.4062 427.5987,581.4062" fill="#333" stroke="none"/>
  <polygon points="402.1592,581.4062 389.4395,603.4375 414.879,603.4375" fill="#333" stroke="none"/>
  <polygon points="427.5987,581.4062 414.879,603.4375 440.3185,603.4375" fill="#333" stroke="none"/>
  <polygon points="389.4395,603.4375 376.7197,625.4688 402.1592,625.4688" fill="#333" stroke="none"/>
  <polygon points="376.7197,625.4688 364,647.5 389.4395,647.5" fill="#333" stroke="none"/>
  <polygon points="402.1592,625.4688 389.4395,647.5 414.879,647.5" fill="#333" stroke="none"/>
  <polygon points="440.3185,603.4375 427.5987,625.4688 453.0382,625.4688" fill="#333" stroke="none"/>
  <polygon points="427.5987,625.4688 414.879,647.5 440.3185,647.5" fill="#333" stroke="none"/>
  <polygon points="453.0382,625.4688 440.3185,647.5 465.758,647.5" fill="#333" stroke="none"/>
  <polygon points="516.637,559.375 503.9172,581.4062 529.3567,581.4062" fill="#333" stroke="none"/>
  <polygon points="503.9172,581.4062 491.1975,603.4375 516.637,603.4375" fill="#333" stroke="none"/>
  <polygon points="529.3567,581.4062 516.637,603.4375 542.0765,603.4375" fill="#333" stroke="none"/>
  <polygon points="491.1975,603.4375 478.4777,625.4688 503.9172,625.4688" fill="#333" stroke="none"/>
  <polygon points="478.4777,625.4688 465.758,647.5 491.1975,647.5" fill="#333" stroke="none"/>
  <polygon points="503.9172,625.4688 491.1975,647.5 516.637,647.5" fill="#333" stroke="none"/>
  <polygon points="542.0765,603.4375 529.3567,625.4688 554.7962,625.4688" fill="#333" stroke="none"/>
  <polygon points="529.3567,625.4688 516.637,647.5 542.0765,647.5" fill="#333" stroke="none"/>
  <polygon points="554.7962,625.4688 542.0765,647.5 567.516,647.5" fill="#333" stroke="none"/>
</g>
</g>
  <g>
  <circle cx="267" cy="467" r="177" fill="none" stroke="#333" stroke-width="1"/>
  <circle cx="267" cy="467" r="109.392" fill="none" stroke="#333" stroke-width="1"/>
  <circle cx="267" cy="467" r="67.608" fill="none" stroke="#333" stroke-width="1"/>
  <circle cx="267" cy="467" r="41.784" fill="none" stroke="#333" stroke-width="1"/>
</g>
  <g transform="rotate(-113.4,400,400)">
  <path d="M 541 578 A 0.0029 0.0029 0 0 1 540.9971 578.0029 A 0.0029 0.0029 0 0 1 540.9942 578 A 0.0058 0.0058 0 0 1 541 577.9942 A 0.0086 0.0086 0 0 1 541.0086 578.0029 A 0.0144 0.0144 0 0 1 540.9942 578.0173 A 0.0231 0.0231 0 0 1 540.9712 577.9942 A 0.0375 0.0375 0 0 1 541.0086 577.9568 A 0.0605 0.0605 0 0 1 541.0692 578.0173 A 0.098 0.098 0 0 1 540.9712 578.1153 A 0.1586 0.1586 0 0 1 540.8126 577.9568 A 0.2566 0.2566 0 0 1 541.0692 577.7001 A 0.4152 0.4152 0 0 1 541.4844 578.1153 A 0.6718 0.6718 0 0 1 540.8126 578.7871 A 1.087 1.087 0 0 1 539.7256 577.7001 A 1.7588 1.7588 0 0 1 541.4844 575.9414 A 2.8457 2.8457 0 0 1 544.3301 578.7871 A 4.6045 4.6045 0 0 1 539.7256 583.3916 A 7.4502 7.4502 0 0 1 532.2754 575.9414 A 12.0546 12.0546 0 0 1 544.3301 563.8867 A 19.5048 19.5048 0 0 1 563.8349 583.3916 A 31.5595 31.5595 0 0 1 532.2754 614.9511 A 51.0643 51.0643 0 0 1 481.2111 563.8867 A 82.6238 82.6238 0 0 1 563.8349 481.263 A 133.6881 133.6881 0 0 1 697.523 614.9511" fill="none" stroke="#333" stroke-width="2"/>
</g>
  <g>
  <circle cx="245" cy="467" r="170" fill="none" stroke="#333" stroke-width="1"/>
  <circle cx="245" cy="467" r="105.0658" fill="none" stroke="#333" stroke-width="1"/>
  <circle cx="245" cy="467" r="64.9342" fill="none" stroke="#333" stroke-width="1"/>
  <circle cx="245" cy="467" r="40.1316" fill="none" stroke="#333" stroke-width="1"/>
</g>
</svg>