<svg xmlns="http://www.w3.org/2000/svg" width="800" height="800" viewBox="0 0 800 800">
  <g>
  <line x1="368" y1="521" x2="460" y2="521" stroke="#999" stroke-width="0.5"/>
  <line x1="368" y1="521" x2="414" y2="600.6743" stroke="#999" stroke-width="0.5"/>
  <line x1="368" y1="521" x2="322" y2="600.6743" stroke="#999" stroke-width="0.5"/>
  <line x1="368" y1="521" x2="276" y2="521" stroke="#999" stroke-width="0.5"/>
  <line x1="368" y1="521" x2="322" y2="441.3257" stroke="#999" stroke-width="0.5"/>
  <line x1="368" y1="521" x2="414" y2="441.3257" stroke="#999" stroke-width="0.5"/>
  <line x1="368" y1="521" x2="527.3487" y2="613" stroke="#999" stroke-width="0.5"/>
  <line x1="368" y1="521" x2="368" y2="705" stroke="#999" stroke-width="0.5"/>
  <line x1="368" y1="521" x2="208.6513" y2="613" stroke="#999" stroke-width="0.5"/>
  <line x1="368" y1="521" x2="208.6513" y2="429" stroke="#999" stroke-width="0.5"/>
  <line x1="368" y1="521" x2="368" y2="337" stroke="#999" stroke-width="0.5"/>
  <line x1="368" y1="521" x2="527.3487" y2="429" stroke="#999" stroke-width="0.5"/>
  <line x1="460" y1="521" x2="414" y2="600.6743" stroke="#999" stroke-width="0.5"/>
  <line x1="460" y1="521" x2="322" y2="600.6743" stroke="#999" stroke-width="0.5"/>
  <line x1="460" y1="521" x2="276" y2="521" stroke="#999" stroke-width="0.5"/>
  <line x1="460" y1="521" x2="322" y2="441.3257" stroke="#999" stroke-width="0.5"/>
  <line x1="460" y1="521" x2="414" y2="441.3257" stroke="#999" stroke-width="0.5"/>
  <line x1="460" y1="521" x2="527.3487" y2="613" stroke="#999" stroke-width="0.5"/>
  <line x1="460" y1="521" x2="368" y2="705" stroke="#999" stroke-width="0.5"/>
  <line x1="460" y1="521" x2="208.6513" y2="613" stroke="#999" stroke-width="0.5"/>
  <line x1="460" y1="521" x2="208.6513" y2="429" stroke="#999" stroke-width="0.5"/>
  <line x1="460" y1="521" x2="368" y2="337" stroke="#999" stroke-width="0.5"/>
  <line x1="460" y1="521" x2="527.3487" y2="429" stroke="#999" stroke-width="0.5"/>
  <line x1="414" y1="600.6743" x2="322" y2="600.6743" stroke="#999" stroke-width="0.5"/>
  <line x1="414" y1="600.6743" x2="276" y2="521" stroke="#999" stroke-width="0.5"/>
  <line x1="414" y1="600.6743" x2="322" y2="441.3257" stroke="#999" stroke-width="0.5"/>
  <line x1="414" y1="600.6743" x2="414" y2="441.3257" stroke="#999" stroke-width="0.5"/>
  <line x1="414" y1="600.6743" x2="527.3487" y2="613" stroke="#999" stroke-width="0.5"/>
  <line x1="414" y1="600.6743" x2="368" y2="705" stroke="#999" stroke-width="0.5"/>
  <line x1="414" y1="600.6743" x2="208.6513" y2="613" stroke="#999" stroke-width="0.5"/>
  <line x1="414" y1="600.6743" x2="208.6513" y2="429" stroke="#999" stroke-width="0.5"/>
  <line x1="414" y1="600.6743" x2="368" y2="337" stroke="#999" stroke-width="0.5"/>
  <line x1="414" y1="600.6743" x2="527.3487" y2="429" stroke="#999" stroke-width="0.5"/>
  <line x1="322" y1="600.6743" x2="276" y2="521" stroke="#999" stroke-width="0.5"/>
  <line x1="322" y1="600.6743" x2="322" y2="441.3257" stroke="#999" stroke-width="0.5"/>
  <line x1="322" y1="600.6743" x2="414" y2="441.3257" stroke="#999" stroke-width="0.5"/>
  <line x1="322" y1="600.6743" x2="527.3487" y2="613" stroke="#999" stroke-width="0.5"/>
  <line x1="322" y1="600.6743" x2="368" y2="705" stroke="#999" stroke-width="0.5"/>
  <line x1="322" y1="600.6743" x2="208.6513" y2="613" stroke="#999" stroke-width="0.5"/>
  <line x1="322" y1="600.6743" x2="208.6513" y2="429" stroke="#999" stroke-width="0.5"/>
  <line x1="322" y1="600.6743" x2="368" y2="337" stroke="#999" stroke-width="0.5"/>
  <line x1="322" y1="600.6743" x2="527.3487" y2="429" stroke="#999" stroke-width="0.5"/>
  <line x1="276" y1="521" x2="322" y2="441.3257" stroke="#999" stroke-width="0.5"/>
  <line x1="276" y1="521" x2="414" y2="441.3257" stroke="#999" stroke-width="0.5"/>
  <line x1="276" y1="521" x2="527.3487" y2="613" stroke="#999" stroke-width="0.5"/>
  <line x1="276" y1="521" x2="368" y2="705" stroke="#999" stroke-width="0.5"/>
  <line x1="276" y1="521" x2="208.6513" y2="613" stroke="#999" stroke-width="0.5"/>
  <line x1="276" y1="521" x2="208.6513" y2="429" stroke="#999" stroke-width="0.5"/>
  <line x1="276" y1="521" x2="368" y2="337" stroke="#999" stroke-width="0.5"/>
  <line x1="276" y1="521" x2="527.3487" y2="429" stroke="#999" stroke-width="0.5"/>
  <line x1="322" y1="441.3257" x2="414" y2="441.3257" stroke="#999" stroke-width="0.5"/>
  <line x1="322" y1="441.3257" x2="527.3487" y2="613" stroke="#999" stroke-width="0.5"/>
  <line x1="322" y1="441.3257" x2="368" y2="705" stroke="#999" stroke-width="0.5"/>
  <line x1="322" y1="441.3257" x2="208.6513" y2="613" stroke="#999" stroke-width="0.5"/>
  <line x1="322" y1="441.3257" x2="208.6513" y2="429" stroke="#999" stroke-width="0.5"/>
  <line x1="322" y1="441.3257" x2="368" y2="337" stroke="#999" stroke-width="0.5"/>
  <line x1="322" y1="441.3257" x2="527.3487" y2="429" stroke="#999" stroke-width="0.5"/>
  <line x1="414" y1="441.3257" x2="527.3487" y2="613" stroke="#999" stroke-width="0.5"/>
  <line x1="414" y1="441.3257" x2="368" y2="705" stroke="#999" stroke-width="0.5"/>
  <line x1="414" y1="441.3257" x2="208.6513" y2="613" stroke="#999" stroke-width="0.5"/>
  <line x1="414" y1="441.3257" x2="208.6513" y2="429" stroke="#999" stroke-width="0.5"/>
  <line x1="414" y1="441.3257" x2="368" y2="337" stroke="#999" stroke-width="0.5"/>
  <line x1="414" y1="441.3257" x2="527.3487" y2="429" stroke="#999" stroke-width="0.5"/>
  <line x1="527.3487" y1="613" x2="368" y2="705" stroke="#999" stroke-width="0.5"/>
  <line x1="527.3487" y1="613" x2="208.6513" y2="613" stroke="#999" stroke-width="0.5"/>
  <line x1="527.3487" y1="613" x2="208.6513" y2="429" stroke="#999" stroke-width="0.5"/>
  <line x1="527.3487" y1="613" x2="368" y2="337" stroke="#999" stroke-width="0.5"/>
  <line x1="527.3487" y1="613" x2="527.3487" y2="429" stroke="#999" stroke-width="0.5"/>
  <line x1="368" y1="705" x2="208.6513" y2="613" stroke="#999" stroke-width="0.5"/>
  <line x1="368" y1="705" x2="208.6513" y2="429" stroke="#999" stroke-width="0.5"/>
  <line x1="368" y1="705" x2="368" y2="337" stroke="#999" stroke-width="0.5"/>
  <line x1="368" y1="705" x2="527.3487" y2="429" stroke="#999" stroke-width="0.5"/>
  <line x1="208.6513" y1="613" x2="208.6513" y2="429" stroke="#999" stroke-width="0.5"/>
  <line x1="208.6513" y1="613" x2="368" y2="337" stroke="#999" stroke-width="0.5"/>
  <line x1="208.6513" y1="613" x2="527.3487" y2="429" stroke="#999" stroke-width="0.5"/>
  <line x1="208.6513" y1="429" x2="368" y2="337" stroke="#999" stroke-width="0.5"/>
  <line x1="208.6513" y1="429" x2="527.3487" y2="429" stroke="#999" stroke-width="0.5"/>
  <line x1="368" y1="337" x2="527.3487" y2="429" stroke="#999" stroke-width="0.5"/>
  <circle cx="368" cy="521" r="13.8" fill="none" stroke="#333" stroke-width="1"/>
  <circle cx="460" cy="521" r="13.8" fill="none" stroke="#333" stroke-width="1"/>
  <circle cx="414" cy="600.6743" r="13.8" fill="none" stroke="#333" stroke-width="1"/>
  <circle cx="322" cy="600.6743" r="13.8" fill="none" stroke="#333" stroke-width="1"/>
  <circle cx="276" cy="521" r="13.8" fill="none" stroke="#333" stroke-width="1"/>
  <circle cx="322" cy="441.3257" r="13.8" fill="none" stroke="#333" stroke-width="1"/>
  <circle cx="414" cy="441.3257" r="13.8" fill="none" stroke="#333" stroke-width="1"/>
  <circle cx="527.3487" cy="613" r="13.8" fill="none" stroke="#333" stroke-width="1"/>
  <circle cx="368" cy="705" r="13.8" fill="none" stroke="#333" stroke-width="1"/>
  <circle cx="208.6513" cy="613" r="13.8" fill="none" stroke="#333" stroke-width="1"/>
  <circle cx="208.6513" cy="429" r="13.8" fill="none" stroke="#333" stroke-width="1"/>
  <circle cx="368" cy="337" r="13.8" fill="none" stroke="#333" stroke-width="1"/>
  <circle cx="527.3487" cy="429" r="13.8" fill="none" stroke="#333" stroke-width="1"/>
</g>
  <g opacity="0.64">
  <g>
  <circle cx="192" cy="366" r="102" fill="none" stroke="#333" stroke-width="1.5"/>
  <circle cx="294" cy="366" r="102" fill="none" stroke="#333" stroke-width="1.5"/>
</g>
</g>
</svg>