<svg xmlns="http://www.w3.org/2000/svg" width="800" height="800" viewBox="0 0 800 800">
  <g transform="rotate(-77.8,400,400)">
  <g>
  <polyline points="633.7133,306.9815 631.8585,306.6082 628.9124,306.2789 624.8916,306.0081 619.8175,305.8103 613.7169,305.6999 606.6221,305.6916 598.5717,305.8003 589.6114,306.0407 579.7944,306.4277 569.1819,306.9759 557.8442,307.6995 545.8607,308.6124 533.3205,309.7274 520.3224,311.0563 506.9755,312.6095 493.3982,314.3954 479.7184,316.4205 466.0723,318.6885 452.604,321.2005 439.4635,323.954 426.8061,326.9433 414.7899,330.1585 403.5739,333.586 393.3163,337.2076 384.1716,341.0011 376.2883,344.9397 369.8061,348.9924 364.8537,353.1241 361.5458,357.2957 359.9809,361.4646 360.2386,365.585 362.3776,369.6086 366.4338,373.485 372.4184,377.1622 380.3173,380.588 390.0893,383.7098 401.6662,386.4765 414.9528,388.8382 429.8273,390.7482 446.1421,392.1628 463.7253,393.0428 482.3829,393.354 501.9006,393.068 522.047,392.1628 542.5766,390.6233 563.2332,388.4418 583.7538,385.6184 603.8722,382.1611 623.3233,378.0861 641.8474,373.4175 659.1937,368.1872 675.125,362.4347 689.4211,356.2067 701.8827,349.5562 712.3345,342.5424 720.6281,335.2294 726.6446,327.6854 730.2968,319.982 731.5303,312.1933 730.3248,304.3942" stroke="#333" stroke-width="0.8" fill="none"/>
  <polyline points="645.7898,306.6581 643.713,305.3647 640.3842,304.1272 635.8281,302.9674 630.0777,301.9065 623.1743,300.9654 615.1676,300.1646 606.1162,299.5239 596.0872,299.0622 585.1567,298.7978 573.4099,298.7476 560.9409,298.9275 547.8526,299.3517 534.2569,300.0328 520.2738,300.9813 506.0315,302.2054 491.6652,303.7109 477.3165,305.5009 463.1325,307.5751 449.2645,309.9302 435.8663,312.5593 423.0932,315.4518 411.0996,318.5933 400.0376,321.9655 390.0547,325.546 381.292,329.3086 373.8816,333.2232 367.9448,337.2561 363.5899,341.3701 360.91,345.5246 359.9809,349.6765 360.8599,353.7802 363.5833,357.7884 368.1659,361.6524 374.5993,365.3229 382.8514,368.7504 392.8659,371.8865 404.5622,374.6837 417.836,377.097 432.5596,379.0841 448.5831,380.6064 465.7363,381.6292 483.8301,382.1231 502.6589,382.0638 522.0032,381.4331 541.6326,380.2192 561.3085,378.417 580.7877,376.0283 599.8259,373.0621 618.181,369.5347 635.6168,365.4693 651.9066,360.896 666.8365,355.8516 680.2087,350.379 691.8446,344.5269 701.5876,338.3491 709.3057,331.9036 714.8932,325.2522 718.273,318.4595 719.3972,311.5921 718.2484,304.7176" stroke="#333" stroke-width="0.8" fill="none"/>
  <polyline points="657.8662,306.3346 655.5674,304.1212 651.8559,301.9755 646.7646,299.9266 640.3378,298.0027 632.6316,296.231 623.7132,294.6376 613.6607,293.2475 602.5629,292.0837 590.519,291.1679 577.6379,290.5194 564.0375,290.1555 549.8445,290.091 535.1933,290.3382 520.2253,290.9062 505.0875,291.8013 489.9321,293.0265 474.9146,294.5813 460.1927,296.4616 445.925,298.6599 432.2691,301.1646 419.3803,303.9603 407.4093,307.0281 396.5013,310.3449 386.7931,313.8843 378.4124,317.6161 371.4749,321.5068 366.0836,325.5199 362.3262,329.616 360.2741,333.7535 359.9809,337.8884 361.4811,341.9755 364.7891,345.9683 369.8981,349.8199 376.7802,353.4836 385.3855,356.9129 395.6425,360.0631 407.4583,362.8909 420.7192,365.3557 435.2918,367.42 451.0241,369.0499 467.7473,370.2157 485.2773,370.8922 503.4172,371.0596 521.9595,370.7034 540.6886,369.8151 559.3837,368.3921 577.8216,366.4382 595.7796,363.9632 613.0387,360.9834 629.3863,357.5212 644.6196,353.6049 658.5481,349.2685 670.9962,344.5514 681.8064,339.4976 690.8407,334.1557 697.9832,328.5778 703.1418,322.819 706.2491,316.937 707.264,310.991 706.1719,305.041" stroke="#333" stroke-width="0.8" fill="none"/>
  <polyline points="669.9426,306.0112 667.4219,302.8776 663.3277,299.8238 657.7011,296.8858 650.598,294.0989 642.089,291.4965 632.2587,289.1107 621.2051,286.9711 609.0387,285.1053 595.8814,283.538 581.8659,282.2912 567.1341,281.3835 551.8364,280.8304 536.1298,280.6436 520.1767,280.8311 504.1435,281.3972 488.199,282.342 472.5126,283.6617 457.2529,285.3482 442.5855,287.3896 428.6719,289.7698 415.6674,292.4689 403.7191,295.4629 392.965,298.7244 383.5315,302.2226 375.5328,305.9235 369.0683,309.7903 364.2223,313.7836 361.0624,317.862 359.6382,321.9823 359.9809,326.1003 362.1024,330.1707 365.9948,334.1481 371.6303,337.9874 378.961,341.6442 387.9196,345.0754 398.4191,348.2397 410.3543,351.0981 423.6024,353.6145 438.0241,355.756 453.4652,357.4935 469.7583,358.8021 486.7245,359.6612 504.1755,360.0553 521.9157,359.9737 539.7446,359.411 557.4589,358.3673 574.8554,356.8481 591.7333,354.8642 607.8963,352.432 623.1558,349.573 637.3326,346.3137 650.2596,342.6854 661.7838,338.7238 671.7682,334.4684 680.0938,329.9624 686.6608,325.252 691.3903,320.3858 694.2252,315.4145 695.1308,310.3899 694.0955,305.3644" stroke="#333" stroke-width="0.8" fill="none"/>
  <polyline points="682.0191,305.6878 679.2763,301.6341 674.7995,297.6721 668.6376,293.8451 660.8581,290.1951 651.5463,286.7621 640.8043,283.5837 628.7496,280.6947 615.5144,278.1268 601.2437,275.9081 586.0938,274.0629 570.2308,272.6115 553.8283,271.5697 537.0662,270.9489 520.1281,270.756 503.1995,270.9931 486.4659,271.6575 470.1107,272.742 454.3131,274.2348 439.246,276.1193 425.0747,278.3751 411.9544,280.9774 400.0288,283.8976 389.4286,287.1039 380.2699,290.5609 372.6531,294.231 366.6616,298.0738 362.3611,302.0473 359.7986,306.108 359.0023,310.2112 359.9809,314.3122 362.7237,318.3659 367.2005,322.3279 373.3624,326.1549 381.1419,329.8049 390.4537,333.2379 401.1957,336.4163 413.2504,339.3053 426.4856,341.8732 440.7563,344.0919 455.9062,345.9371 471.7692,347.3885 488.1717,348.4303 504.9338,349.0511 521.8719,349.244 538.8005,349.0069 555.5341,348.3425 571.8893,347.258 587.6869,345.7652 602.754,343.8807 616.9253,341.6249 630.0456,339.0226 641.9712,336.1024 652.5714,332.8961 661.7301,329.4391 669.3469,325.769 675.3384,321.9262 679.6389,317.9527 682.2014,313.892 682.9977,309.7888 682.0191,305.6878" stroke="#333" stroke-width="0.8" fill="none"/>
  <polyline points="694.0955,305.3644 691.1308,300.3906 686.2712,295.5203 679.5741,290.8043 671.1183,286.2913 661.0037,282.0276 649.3498,278.0567 636.2941,274.4183 621.9902,271.1483 606.606,268.2782 590.3218,265.8347 573.3274,263.8395 555.8202,262.309 538.0026,261.2543 520.0795,260.681 502.2554,260.589 484.7328,260.973 467.7088,261.8224 451.3732,263.1213 435.9066,264.8491 421.4776,266.9804 408.2415,269.4859 396.3386,272.3324 385.8923,275.4833 377.0083,278.8993 369.7735,282.5385 364.255,286.3574 360.4999,290.3111 358.5349,294.3539 358.3665,298.4401 359.9809,302.5241 363.3449,306.5611 368.4063,310.5078 375.0946,314.3224 383.3228,317.9656 392.9878,321.4004 403.9723,324.5929 416.1464,327.5125 429.3688,330.1319 443.4885,332.4278 458.3472,334.3806 473.7802,335.9749 489.6189,337.1994 505.6921,338.0468 521.8282,338.5143 537.8565,338.6028 553.6093,338.3176 568.9232,337.6679 583.6406,336.6663 597.6116,335.3293 610.6947,333.6767 622.7585,331.7315 633.6827,329.5193 643.3589,327.0685 651.6919,324.4098 658.6,321.5756 664.0159,318.6004 667.8875,315.5195 670.1775,312.3695 670.8645,309.1876 669.9426,306.0112" stroke="#333" stroke-width="0.8" fill="none"/>
  <polyline points="706.1719,305.041 702.9852,299.1471 697.743,293.3686 690.5106,287.7635 681.3784,282.3875 670.461,277.2932 657.8954,272.5297 643.8385,268.1419 628.4659,264.1699 611.9683,260.6483 594.5498,257.6065 576.424,255.0675 557.8121,253.0483 538.9391,251.5597 520.0309,250.6059 501.3114,250.1849 482.9997,250.2886 465.3069,250.9028 448.4334,252.0079 432.5671,253.5788 417.8804,255.5857 404.5286,257.9944 392.6483,260.7672 382.356,263.8628 373.7467,267.2376 366.8939,270.846 361.8483,274.6409 358.6386,278.5748 357.2711,282.5999 357.7306,286.669 359.9809,290.736 363.9662,294.7563 369.612,298.6876 376.8268,302.4899 385.5036,306.1263 395.5218,309.5629 406.749,312.7696 419.0425,315.7197 432.252,318.3907 446.2208,320.7637 460.7882,322.8242 475.7912,324.5614 491.0661,325.9685 506.4504,327.0426 521.7844,327.7845 536.9125,328.1987 551.6845,328.2928 565.957,328.0777 579.5943,327.5673 592.4693,326.7779 604.4642,325.7286 615.4715,324.4403 625.3943,322.9362 634.1465,321.2409 641.6537,319.3805 647.8531,317.3823 652.6935,315.2746 656.136,313.0863 658.1536,310.847 658.7313,308.5865 657.8662,306.3346" stroke="#333" stroke-width="0.8" fill="none"/>
  <polyline points="718.2484,304.7176 714.8397,297.9035 709.2148,291.2169 701.447,284.7228 691.6385,278.4837 679.9184,272.5588 666.4409,267.0028 651.383,261.8655 634.9416,257.1914 617.3307,253.0184 598.7777,249.3782 579.5206,246.2955 559.804,243.7877 539.8755,241.8651 519.9823,240.5308 500.3674,239.7808 481.2666,239.6041 462.9049,239.9832 445.4936,240.8944 429.2276,242.3085 414.2832,244.1909 400.8157,246.503 388.9581,249.202 378.8197,252.2423 370.4851,255.5759 364.0143,259.1534 359.4417,262.9244 356.7774,266.8385 356.0074,270.8459 357.0947,274.8979 359.9809,278.9479 364.5875,282.9516 370.8177,286.8674 378.5589,290.6574 387.6845,294.2869 398.0559,297.7254 409.5256,300.9462 421.9385,303.9269 435.1351,306.6494 448.953,309.0997 463.2292,311.2678 477.8022,313.1478 492.5133,314.7375 507.2087,316.0383 521.7407,317.0548 535.9685,317.7946 549.7597,318.268 562.9909,318.4876 575.548,318.4683 587.3269,318.2266 598.2337,317.7804 608.1845,317.1492 617.1058,316.3531 624.9341,315.4132 631.6156,314.3512 637.1062,313.1889 641.3711,311.9488 644.3846,310.6532 646.1297,309.3246 646.5981,307.9854 645.7898,306.6581" stroke="#333" stroke-width="0.8" fill="none"/>
  <polyline points="633.7133,306.9815 645.7898,306.6581 657.8662,306.3346 669.9426,306.0112 682.0191,305.6878 694.0955,305.3644 706.1719,305.041 718.2484,304.7176" stroke="#999" stroke-width="0.5" fill="none"/>
  <polyline points="613.7169,305.6999 623.1743,300.9654 632.6316,296.231 642.089,291.4965 651.5463,286.7621 661.0037,282.0276 670.461,277.2932 679.9184,272.5588" stroke="#999" stroke-width="0.5" fill="none"/>
  <polyline points="569.1819,306.9759 573.4099,298.7476 577.6379,290.5194 581.8659,282.2912 586.0938,274.0629 590.3218,265.8347 594.5498,257.6065 598.7777,249.3782" stroke="#999" stroke-width="0.5" fill="none"/>
  <polyline points="506.9755,312.6095 506.0315,302.2054 505.0875,291.8013 504.1435,281.3972 503.1995,270.9931 502.2554,260.589 501.3114,250.1849 500.3674,239.7808" stroke="#999" stroke-width="0.5" fill="none"/>
  <polyline points="439.4635,323.954 435.8663,312.5593 432.2691,301.1646 428.6719,289.7698 425.0747,278.3751 421.4776,266.9804 417.8804,255.5857 414.2832,244.1909" stroke="#999" stroke-width="0.5" fill="none"/>
  <polyline points="384.1716,341.0011 381.292,329.3086 378.4124,317.6161 375.5328,305.9235 372.6531,294.231 369.7735,282.5385 366.8939,270.846 364.0143,259.1534" stroke="#999" stroke-width="0.5" fill="none"/>
  <polyline points="359.9809,361.4646 359.9809,349.6765 359.9809,337.8884 359.9809,326.1003 359.9809,314.3122 359.9809,302.5241 359.9809,290.736 359.9809,278.9479" stroke="#999" stroke-width="0.5" fill="none"/>
  <polyline points="380.3173,380.588 382.8514,368.7504 385.3855,356.9129 387.9196,345.0754 390.4537,333.2379 392.9878,321.4004 395.5218,309.5629 398.0559,297.7254" stroke="#999" stroke-width="0.5" fill="none"/>
  <polyline points="446.1421,392.1628 448.5831,380.6064 451.0241,369.0499 453.4652,357.4935 455.9062,345.9371 458.3472,334.3806 460.7882,322.8242 463.2292,311.2678" stroke="#999" stroke-width="0.5" fill="none"/>
  <polyline points="542.5766,390.6233 541.6326,380.2192 540.6886,369.8151 539.7446,359.411 538.8005,349.0069 537.8565,338.6028 536.9125,328.1987 535.9685,317.7946" stroke="#999" stroke-width="0.5" fill="none"/>
  <polyline points="641.8474,373.4175 635.6168,365.4693 629.3863,357.5212 623.1558,349.573 616.9253,341.6249 610.6947,333.6767 604.4642,325.7286 598.2337,317.7804" stroke="#999" stroke-width="0.5" fill="none"/>
  <polyline points="712.3345,342.5424 701.5876,338.3491 690.8407,334.1557 680.0938,329.9624 669.3469,325.769 658.6,321.5756 647.8531,317.3823 637.1062,313.1889" stroke="#999" stroke-width="0.5" fill="none"/>
</g>
</g>
  <g opacity="0.72">
  <g>
  <line x1="442.0759" y1="575.9537" x2="598.2866" y2="532.6817" stroke="#333" stroke-width="1.2" fill="none"/>
  <line x1="442.0759" y1="575.9537" x2="421.3112" y2="591.0859" stroke="#333" stroke-width="1.2" fill="none"/>
  <line x1="442.0759" y1="575.9537" x2="345.5323" y2="453.6343" stroke="#333" stroke-width="1.2" fill="none"/>
  <line x1="442.0759" y1="334.7647" x2="345.5323" y2="453.6343" stroke="#333" stroke-width="1.2" fill="none"/>
  <line x1="442.0759" y1="334.7647" x2="598.2866" y2="383.6187" stroke="#333" stroke-width="1.2" fill="none"/>
  <line x1="442.0759" y1="334.7647" x2="421.3112" y2="200.8339" stroke="#333" stroke-width="1.2" fill="none"/>
  <line x1="311.9345" y1="478.1187" x2="421.3112" y2="591.0859" stroke="#333" stroke-width="1.2" fill="none"/>
  <line x1="311.9345" y1="478.1187" x2="265.1005" y2="393.1689" stroke="#333" stroke-width="1.2" fill="none"/>
  <line x1="311.9345" y1="478.1187" x2="387.7134" y2="374.3813" stroke="#333" stroke-width="1.2" fill="none"/>
  <line x1="311.9345" y1="236.9297" x2="421.3112" y2="200.8339" stroke="#333" stroke-width="1.2" fill="none"/>
  <line x1="311.9345" y1="236.9297" x2="265.1005" y2="393.1689" stroke="#333" stroke-width="1.2" fill="none"/>
  <line x1="311.9345" y1="236.9297" x2="387.7134" y2="225.3183" stroke="#333" stroke-width="1.2" fill="none"/>
  <line x1="674.0655" y1="521.0703" x2="598.2866" y2="532.6817" stroke="#333" stroke-width="1.2" fill="none"/>
  <line x1="674.0655" y1="521.0703" x2="564.6888" y2="557.1661" stroke="#333" stroke-width="1.2" fill="none"/>
  <line x1="674.0655" y1="521.0703" x2="720.8995" y2="364.8311" stroke="#333" stroke-width="1.2" fill="none"/>
  <line x1="674.0655" y1="279.8813" x2="598.2866" y2="383.6187" stroke="#333" stroke-width="1.2" fill="none"/>
  <line x1="674.0655" y1="279.8813" x2="720.8995" y2="364.8311" stroke="#333" stroke-width="1.2" fill="none"/>
  <line x1="674.0655" y1="279.8813" x2="564.6888" y2="166.9141" stroke="#333" stroke-width="1.2" fill="none"/>
  <line x1="543.9241" y1="423.2353" x2="387.7134" y2="374.3813" stroke="#333" stroke-width="1.2" fill="none"/>
  <line x1="543.9241" y1="423.2353" x2="564.6888" y2="557.1661" stroke="#333" stroke-width="1.2" fill="none"/>
  <line x1="543.9241" y1="423.2353" x2="640.4677" y2="304.3657" stroke="#333" stroke-width="1.2" fill="none"/>
  <line x1="543.9241" y1="182.0463" x2="387.7134" y2="225.3183" stroke="#333" stroke-width="1.2" fill="none"/>
  <line x1="543.9241" y1="182.0463" x2="564.6888" y2="166.9141" stroke="#333" stroke-width="1.2" fill="none"/>
  <line x1="543.9241" y1="182.0463" x2="640.4677" y2="304.3657" stroke="#333" stroke-width="1.2" fill="none"/>
  <line x1="598.2866" y1="532.6817" x2="598.2866" y2="383.6187" stroke="#333" stroke-width="1.2" fill="none"/>
  <line x1="421.3112" y1="591.0859" x2="564.6888" y2="557.1661" stroke="#333" stroke-width="1.2" fill="none"/>
  <line x1="345.5323" y1="453.6343" x2="265.1005" y2="393.1689" stroke="#333" stroke-width="1.2" fill="none"/>
  <line x1="421.3112" y1="200.8339" x2="564.6888" y2="166.9141" stroke="#333" stroke-width="1.2" fill="none"/>
  <line x1="387.7134" y1="374.3813" x2="387.7134" y2="225.3183" stroke="#333" stroke-width="1.2" fill="none"/>
  <line x1="720.8995" y1="364.8311" x2="640.4677" y2="304.3657" stroke="#333" stroke-width="1.2" fill="none"/>
  <circle cx="442.0759" cy="575.9537" r="3.99" fill="#333" stroke="none"/>
  <circle cx="442.0759" cy="334.7647" r="3.99" fill="#333" stroke="none"/>
  <circle cx="311.9345" cy="478.1187" r="3.99" fill="#333" stroke="none"/>
  <circle cx="311.9345" cy="236.9297" r="3.99" fill="#333" stroke="none"/>
  <circle cx="674.0655" cy="521.0703" r="3.99" fill="#333" stroke="none"/>
  <circle cx="674.0655" cy="279.8813" r="3.99" fill="#333" stroke="none"/>
  <circle cx="543.9241" cy="423.2353" r="3.99" fill="#333" stroke="none"/>
  <circle cx="543.9241" cy="182.0463" r="3.99" fill="#333" stroke="none"/>
  <circle cx="598.2866" cy="532.6817" r="3.99" fill="#333" stroke="none"/>
  <circle cx="421.3112" cy="591.0859" r="3.99" fill="#333" stroke="none"/>
  <circle cx="345.5323" cy="453.6343" r="3.99" fill="#333" stroke="none"/>
  <circle cx="598.2866" cy="383.6187" r="3.99" fill="#333" stroke="none"/>
  <circle cx="421.3112" cy="200.8339" r="3.99" fill="#333" stroke="none"/>
  <circle cx="265.1005" cy="393.1689" r="3.99" fill="#333" stroke="none"/>
  <circle cx="387.7134" cy="374.3813" r="3.99" fill="#333" stroke="none"/>
  <circle cx="564.6888" cy="557.1661" r="3.99" fill="#333" stroke="none"/>
  <circle cx="720.8995" cy="364.8311" r="3.99" fill="#333" stroke="none"/>
  <circle cx="387.7134" cy="225.3183" r="3.99" fill="#333" stroke="none"/>
  <circle cx="564.6888" cy="166.9141" r="3.99" fill="#333" stroke="none"/>
  <circle cx="640.4677" cy="304.3657" r="3.99" fill="#333" stroke="none"/>
</g>
</g>
  <g opacity="0.52">
  <g transform="rotate(-36.3,400,400)">
  <g>
  <circle cx="439" cy="351" r="51" fill="none" stroke="#333" stroke-width="0.8"/>
  <circle cx="490" cy="351" r="51" fill="none" stroke="#333" stroke-width="0.8"/>
  <circle cx="464.5" cy="395.1673" r="51" fill="none" stroke="#333" stroke-width="0.8"/>
  <circle cx="413.5" cy="395.1673" r="51" fill="none" stroke="#333" stroke-width="0.8"/>
  <circle cx="388" cy="351" r="51" fill="none" stroke="#333" stroke-width="0.8"/>
  <circle cx="413.5" cy="306.8327" r="51" fill="none" stroke="#333" stroke-width="0.8"/>
  <circle cx="464.5" cy="306.8327" r="51" fill="none" stroke="#333" stroke-width="0.8"/>
</g>
</g>
</g>
</svg>