<svg xmlns="http://www.w3.org/2000/svg" width="800" height="800" viewBox="0 0 800 800">
  <g opacity="0.82">
  <g>
  <polygon points="480.148,582.1939 660.5147,478.8156 659.4363,431.0145 478.4031,504.85 367.5969,598.284" stroke="#333" stroke-width="1.2" fill="#8B4513" fill-opacity="0.3"/>
  <polygon points="480.148,582.1939 660.5147,478.8156 660.5147,296.5667 480.148,287.3089 368.6753,463.8362" stroke="#333" stroke-width="1.2" fill="#DC143C" fill-opacity="0.3"/>
  <polygon points="480.148,582.1939 367.5969,598.284 186.5637,489.8705 187.2303,406.7772 368.6753,463.8362" stroke="#333" stroke-width="1.2" fill="#4169E1" fill-opacity="0.3"/>
  <polygon points="480.148,287.3089 368.6753,463.8362 187.2303,406.7772 186.5637,194.9855 367.5969,121.15" stroke="#333" stroke-width="1.2" fill="#228B22" fill-opacity="0.3"/>
  <polygon points="480.148,287.3089 660.5147,296.5667 659.4363,136.1295 478.4031,27.716 367.5969,121.15" stroke="#333" stroke-width="1.2" fill="#8B4513" fill-opacity="0.3"/>
  <polygon points="186.5637,489.8705 367.5969,598.284 478.4031,504.85 365.852,338.6911 185.4853,329.4333" stroke="#333" stroke-width="1.2" fill="#DC143C" fill-opacity="0.3"/>
  <polygon points="186.5637,489.8705 187.2303,406.7772 186.5637,194.9855 185.4853,147.1844 185.4853,329.4333" stroke="#333" stroke-width="1.2" fill="#4169E1" fill-opacity="0.3"/>
  <polygon points="186.5637,194.9855 367.5969,121.15 478.4031,27.716 365.852,43.8061 185.4853,147.1844" stroke="#333" stroke-width="1.2" fill="#228B22" fill-opacity="0.3"/>
  <polygon points="659.4363,431.0145 660.5147,478.8156 660.5147,296.5667 659.4363,136.1295 658.7697,219.2228" stroke="#333" stroke-width="1.2" fill="#8B4513" fill-opacity="0.3"/>
  <polygon points="659.4363,431.0145 478.4031,504.85 365.852,338.6911 477.3247,162.1638 658.7697,219.2228" stroke="#333" stroke-width="1.2" fill="#DC143C" fill-opacity="0.3"/>
  <polygon points="659.4363,136.1295 658.7697,219.2228 477.3247,162.1638 365.852,43.8061 478.4031,27.716" stroke="#333" stroke-width="1.2" fill="#4169E1" fill-opacity="0.3"/>
  <polygon points="365.852,338.6911 185.4853,329.4333 185.4853,147.1844 365.852,43.8061 477.3247,162.1638" stroke="#333" stroke-width="1.2" fill="#228B22" fill-opacity="0.3"/>
  <line x1="480.148" y1="582.1939" x2="660.5147" y2="478.8156" stroke="#333" stroke-width="1.2" fill="none"/>
  <line x1="480.148" y1="582.1939" x2="367.5969" y2="598.284" stroke="#333" stroke-width="1.2" fill="none"/>
  <line x1="480.148" y1="582.1939" x2="368.6753" y2="463.8362" stroke="#333" stroke-width="1.2" fill="none"/>
  <line x1="480.148" y1="287.3089" x2="368.6753" y2="463.8362" stroke="#333" stroke-width="1.2" fill="none"/>
  <line x1="480.148" y1="287.3089" x2="660.5147" y2="296.5667" stroke="#333" stroke-width="1.2" fill="none"/>
  <line x1="480.148" y1="287.3089" x2="367.5969" y2="121.15" stroke="#333" stroke-width="1.2" fill="none"/>
  <line x1="186.5637" y1="489.8705" x2="367.5969" y2="598.284" stroke="#333" stroke-width="1.2" fill="none"/>
  <line x1="186.5637" y1="489.8705" x2="187.2303" y2="406.7772" stroke="#333" stroke-width="1.2" fill="none"/>
  <line x1="186.5637" y1="489.8705" x2="185.4853" y2="329.4333" stroke="#333" stroke-width="1.2" fill="none"/>
  <line x1="186.5637" y1="194.9855" x2="367.5969" y2="121.15" stroke="#333" stroke-width="1.2" fill="none"/>
  <line x1="186.5637" y1="194.9855" x2="187.2303" y2="406.7772" stroke="#333" stroke-width="1.2" fill="none"/>
  <line x1="186.5637" y1="194.9855" x2="185.4853" y2="147.1844" stroke="#333" stroke-width="1.2" fill="none"/>
  <line x1="659.4363" y1="431.0145" x2="660.5147" y2="478.8156" stroke="#333" stroke-width="1.2" fill="none"/>
  <line x1="659.4363" y1="431.0145" x2="478.4031" y2="504.85" stroke="#333" stroke-width="1.2" fill="none"/>
  <line x1="659.4363" y1="431.0145" x2="658.7697" y2="219.2228" stroke="#333" stroke-width="1.2" fill="none"/>
  <line x1="659.4363" y1="136.1295" x2="660.5147" y2="296.5667" stroke="#333" stroke-width="1.2" fill="none"/>
  <line x1="659.4363" y1="136.1295" x2="658.7697" y2="219.2228" stroke="#333" stroke-width="1.2" fill="none"/>
  <line x1="659.4363" y1="136.1295" x2="478.4031" y2="27.716" stroke="#333" stroke-width="1.2" fill="none"/>
  <line x1="365.852" y1="338.6911" x2="185.4853" y2="329.4333" stroke="#333" stroke-width="1.2" fill="none"/>
  <line x1="365.852" y1="338.6911" x2="478.4031" y2="504.85" stroke="#333" stroke-width="1.2" fill="none"/>
  <line x1="365.852" y1="338.6911" x2="477.3247" y2="162.1638" stroke="#333" stroke-width="1.2" fill="none"/>
  <line x1="365.852" y1="43.8061" x2="185.4853" y2="147.1844" stroke="#333" stroke-width="1.2" fill="none"/>
  <line x1="365.852" y1="43.8061" x2="478.4031" y2="27.716" stroke="#333" stroke-width="1.2" fill="none"/>
  <line x1="365.852" y1="43.8061" x2="477.3247" y2="162.1638" stroke="#333" stroke-width="1.2" fill="none"/>
  <line x1="660.5147" y1="478.8156" x2="660.5147" y2="296.5667" stroke="#333" stroke-width="1.2" fill="none"/>
  <line x1="367.5969" y1="598.284" x2="478.4031" y2="504.85" stroke="#333" stroke-width="1.2" fill="none"/>
  <line x1="368.6753" y1="463.8362" x2="187.2303" y2="406.7772" stroke="#333" stroke-width="1.2" fill="none"/>
  <line x1="367.5969" y1="121.15" x2="478.4031" y2="27.716" stroke="#333" stroke-width="1.2" fill="none"/>
  <line x1="185.4853" y1="329.4333" x2="185.4853" y2="147.1844" stroke="#333" stroke-width="1.2" fill="none"/>
  <line x1="658.7697" y1="219.2228" x2="477.3247" y2="162.1638" stroke="#333" stroke-width="1.2" fill="none"/>
  <circle cx="480.148" cy="582.1939" r="5.16" fill="#333" stroke="none"/>
  <circle cx="480.148" cy="287.3089" r="5.16" fill="#333" stroke="none"/>
  <circle cx="186.5637" cy="489.8705" r="5.16" fill="#333" stroke="none"/>
  <circle cx="186.5637" cy="194.9855" r="5.16" fill="#333" stroke="none"/>
  <circle cx="659.4363" cy="431.0145" r="5.16" fill="#333" stroke="none"/>
  <circle cx="659.4363" cy="136.1295" r="5.16" fill="#333" stroke="none"/>
  <circle cx="365.852" cy="338.6911" r="5.16" fill="#333" stroke="none"/>
  <circle cx="365.852" cy="43.8061" r="5.16" fill="#333" stroke="none"/>
  <circle cx="660.5147" cy="478.8156" r="5.16" fill="#333" stroke="none"/>
  <circle cx="367.5969" cy="598.284" r="5.16" fill="#333" stroke="none"/>
  <circle cx="368.6753" cy="463.8362" r="5.16" fill="#333" stroke="none"/>
  <circle cx="660.5147" cy="296.5667" r="5.16" fill="#333" stroke="none"/>
  <circle cx="367.5969" cy="121.15" r="5.16" fill="#333" stroke="none"/>
  <circle cx="187.2303" cy="406.7772" r="5.16" fill="#333" stroke="none"/>
  <circle cx="185.4853" cy="329.4333" r="5.16" fill="#333" stroke="none"/>
  <circle cx="478.4031" cy="504.85" r="5.16" fill="#333" stroke="none"/>
  <circle cx="658.7697" cy="219.2228" r="5.16" fill="#333" stroke="none"/>
  <circle cx="185.4853" cy="147.1844" r="5.16" fill="#333" stroke="none"/>
  <circle cx="478.4031" cy="27.716" r="5.16" fill="#333" stroke="none"/>
  <circle cx="477.3247" cy="162.1638" r="5.16" fill="#333" stroke="none"/>
</g>
</g>
  <g opacity="0.99">
  <polygon points="476,140 484.4037,154.5556 476,169.1111 492.8073,169.1111 501.211,183.6667 492.8073,198.2222 476,198.2222 484.4037,212.7778 476,227.3333 492.8073,227.3333 501.211,241.8889 509.6146,227.3333 526.4219,227.3333 534.8256,241.8889 526.4219,256.4444 543.2292,256.4444 551.6329,271 543.2292,285.5556 526.4219,285.5556 534.8256,300.1111 526.4219,314.6667 509.6146,314.6667 501.211,300.1111 492.8073,314.6667 476,314.6667 484.4037,329.2222 476,343.7778 492.8073,343.7778 501.211,358.3333 492.8073,372.8889 476,372.8889 484.4037,387.4444 476,402 492.8073,402 501.211,416.5556 509.6146,402 526.4219,402 534.8256,416.5556 526.4219,431.1111 543.2292,431.1111 551.6329,445.6667 560.0365,431.1111 576.8438,431.1111 568.4402,416.5556 576.8438,402 593.6512,402 602.0548,416.5556 610.4585,402 627.2658,402 635.6694,416.5556 627.2658,431.1111 644.0731,431.1111 652.4767,445.6667 644.0731,460.2222 627.2658,460.2222 635.6694,474.7778 627.2658,489.3333 644.0731,489.3333 652.4767,503.8889 660.8804,489.3333 677.6877,489.3333 686.0913,503.8889 677.6877,518.4444 694.495,518.4444 702.8987,533 686.0913,533 677.6877,518.4444 669.284,533 652.4767,533 644.0731,518.4444 652.4767,503.8889 635.6694,503.8889 627.2658,489.3333 618.8621,503.8889 602.0548,503.8889 610.4585,518.4444 602.0548,533 585.2475,533 576.8438,518.4444 568.4402,533 551.6329,533 543.2292,518.4444 551.6329,503.8889 534.8256,503.8889 526.4219,489.3333 534.8256,474.7778 551.6329,474.7778 543.2292,460.2222 551.6329,445.6667 534.8256,445.6667 526.4219,431.1111 518.0183,445.6667 501.211,445.6667 492.8073,431.1111 501.211,416.5556 484.4037,416.5556 476,402 467.5963,416.5556 450.789,416.5556 459.1927,431.1111 450.789,445.6667 433.9817,445.6667 425.5781,431.1111 417.1744,445.6667 400.3671,445.6667 408.7708,460.2222 400.3671,474.7778 417.1744,474.7778 425.5781,489.3333 417.1744,503.8889 400.3671,503.8889 408.7708,518.4444 400.3671,533 383.5598,533 375.1562,518.4444 366.7525,533 349.9452,533 341.5415,518.4444 349.9452,503.8889 333.1379,503.8889 324.7342,489.3333 316.3306,503.8889 299.5233,503.8889 307.9269,518.4444 299.5233,533 282.716,533 274.3123,518.4444 265.9087,533 249.1013,533 257.505,518.4444 274.3123,518.4444 265.9087,503.8889 274.3123,489.3333 291.1196,489.3333 299.5233,503.8889 307.9269,489.3333 324.7342,489.3333 316.3306,474.7778 324.7342,460.2222 307.9269,460.2222 299.5233,445.6667 307.9269,431.1111 324.7342,431.1111 316.3306,416.5556 324.7342,402 341.5415,402 349.9452,416.5556 358.3488,402 375.1562,402 383.5598,416.5556 375.1562,431.1111 391.9635,431.1111 400.3671,445.6667 408.7708,431.1111 425.5781,431.1111 417.1744,416.5556 425.5781,402 442.3854,402 450.789,416.5556 459.1927,402 476,402 467.5963,387.4444 476,372.8889 459.1927,372.8889 450.789,358.3333 459.1927,343.7778 476,343.7778 467.5963,329.2222 476,314.6667 459.1927,314.6667 450.789,300.1111 442.3854,314.6667 425.5781,314.6667 417.1744,300.1111 425.5781,285.5556 408.7708,285.5556 400.3671,271 408.7708,256.4444 425.5781,256.4444 417.1744,241.8889 425.5781,227.3333 442.3854,227.3333 450.789,241.8889 459.1927,227.3333 476,227.3333 467.5963,212.7778 476,198.2222 459.1927,198.2222 450.789,183.6667 459.1927,169.1111 476,169.1111 467.5963,154.5556" fill="none" stroke="#333" stroke-width="1"/>
</g>
</svg>