<svg xmlns="http://www.w3.org/2000/svg" width="800" height="800" viewBox="0 0 800 800">
  <g opacity="0.67">
  <g>
  <line x1="244" y1="407" x2="382" y2="407" stroke="#999" stroke-width="0.5"/>
  <line x1="244" y1="407" x2="313" y2="526.5115" stroke="#999" stroke-width="0.5"/>
  <line x1="244" y1="407" x2="175" y2="526.5115" stroke="#999" stroke-width="0.5"/>
  <line x1="244" y1="407" x2="106" y2="407" stroke="#999" stroke-width="0.5"/>
  <line x1="244" y1="407" x2="175" y2="287.4885" stroke="#999" stroke-width="0.5"/>
  <line x1="244" y1="407" x2="313" y2="287.4885" stroke="#999" stroke-width="0.5"/>
  <line x1="244" y1="407" x2="483.023" y2="545" stroke="#999" stroke-width="0.5"/>
  <line x1="244" y1="407" x2="244" y2="683" stroke="#999" stroke-width="0.5"/>
  <line x1="244" y1="407" x2="4.977" y2="545" stroke="#999" stroke-width="0.5"/>
  <line x1="244" y1="407" x2="4.977" y2="269" stroke="#999" stroke-width="0.5"/>
  <line x1="244" y1="407" x2="244" y2="131" stroke="#999" stroke-width="0.5"/>
  <line x1="244" y1="407" x2="483.023" y2="269" stroke="#999" stroke-width="0.5"/>
  <line x1="382" y1="407" x2="313" y2="526.5115" stroke="#999" stroke-width="0.5"/>
  <line x1="382" y1="407" x2="175" y2="526.5115" stroke="#999" stroke-width="0.5"/>
  <line x1="382" y1="407" x2="106" y2="407" stroke="#999" stroke-width="0.5"/>
  <line x1="382" y1="407" x2="175" y2="287.4885" stroke="#999" stroke-width="0.5"/>
  <line x1="382" y1="407" x2="313" y2="287.4885" stroke="#999" stroke-width="0.5"/>
  <line x1="382" y1="407" x2="483.023" y2="545" stroke="#999" stroke-width="0.5"/>
  <line x1="382" y1="407" x2="244" y2="683" stroke="#999" stroke-width="0.5"/>
  <line x1="382" y1="407" x2="4.977" y2="545" stroke="#999" stroke-width="0.5"/>
  <line x1="382" y1="407" x2="4.977" y2="269" stroke="#999" stroke-width="0.5"/>
  <line x1="382" y1="407" x2="244" y2="131" stroke="#999" stroke-width="0.5"/>
  <line x1="382" y1="407" x2="483.023" y2="269" stroke="#999" stroke-width="0.5"/>
  <line x1="313" y1="526.5115" x2="175" y2="526.5115" stroke="#999" stroke-width="0.5"/>
  <line x1="313" y1="526.5115" x2="106" y2="407" stroke="#999" stroke-width="0.5"/>
  <line x1="313" y1="526.5115" x2="175" y2="287.4885" stroke="#999" stroke-width="0.5"/>
  <line x1="313" y1="526.5115" x2="313" y2="287.4885" stroke="#999" stroke-width="0.5"/>
  <line x1="313" y1="526.5115" x2="483.023" y2="545" stroke="#999" stroke-width="0.5"/>
  <line x1="313" y1="526.5115" x2="244" y2="683" stroke="#999" stroke-width="0.5"/>
  <line x1="313" y1="526.5115" x2="4.977" y2="545" stroke="#999" stroke-width="0.5"/>
  <line x1="313" y1="526.5115" x2="4.977" y2="269" stroke="#999" stroke-width="0.5"/>
  <line x1="313" y1="526.5115" x2="244" y2="131" stroke="#999" stroke-width="0.5"/>
  <line x1="313" y1="526.5115" x2="483.023" y2="269" stroke="#999" stroke-width="0.5"/>
  <line x1="175" y1="526.5115" x2="106" y2="407" stroke="#999" stroke-width="0.5"/>
  <line x1="175" y1="526.5115" x2="175" y2="287.4885" stroke="#999" stroke-width="0.5"/>
  <line x1="175" y1="526.5115" x2="313" y2="287.4885" stroke="#999" stroke-width="0.5"/>
  <line x1="175" y1="526.5115" x2="483.023" y2="545" stroke="#999" stroke-width="0.5"/>
  <line x1="175" y1="526.5115" x2="244" y2="683" stroke="#999" stroke-width="0.5"/>
  <line x1="175" y1="526.5115" x2="4.977" y2="545" stroke="#999" stroke-width="0.5"/>
  <line x1="175" y1="526.5115" x2="4.977" y2="269" stroke="#999" stroke-width="0.5"/>
  <line x1="175" y1="526.5115" x2="244" y2="131" stroke="#999" stroke-width="0.5"/>
  <line x1="175" y1="526.5115" x2="483.023" y2="269" stroke="#999" stroke-width="0.5"/>
  <line x1="106" y1="407" x2="175" y2="287.4885" stroke="#999" stroke-width="0.5"/>
  <line x1="106" y1="407" x2="313" y2="287.4885" stroke="#999" stroke-width="0.5"/>
  <line x1="106" y1="407" x2="483.023" y2="545" stroke="#999" stroke-width="0.5"/>
  <line x1="106" y1="407" x2="244" y2="683" stroke="#999" stroke-width="0.5"/>
  <line x1="106" y1="407" x2="4.977" y2="545" stroke="#999" stroke-width="0.5"/>
  <line x1="106" y1="407" x2="4.977" y2="269" stroke="#999" stroke-width="0.5"/>
  <line x1="106" y1="407" x2="244" y2="131" stroke="#999" stroke-width="0.5"/>
  <line x1="106" y1="407" x2="483.023" y2="269" stroke="#999" stroke-width="0.5"/>
  <line x1="175" y1="287.4885" x2="313" y2="287.4885" stroke="#999" stroke-width="0.5"/>
  <line x1="175" y1="287.4885" x2="483.023" y2="545" stroke="#999" stroke-width="0.5"/>
  <line x1="175" y1="287.4885" x2="244" y2="683" stroke="#999" stroke-width="0.5"/>
  <line x1="175" y1="287.4885" x2="4.977" y2="545" stroke="#999" stroke-width="0.5"/>
  <line x1="175" y1="287.4885" x2="4.977" y2="269" stroke="#999" stroke-width="0.5"/>
  <line x1="175" y1="287.4885" x2="244" y2="131" stroke="#999" stroke-width="0.5"/>
  <line x1="175" y1="287.4885" x2="483.023" y2="269" stroke="#999" stroke-width="0.5"/>
  <line x1="313" y1="287.4885" x2="483.023" y2="545" stroke="#999" stroke-width="0.5"/>
  <line x1="313" y1="287.4885" x2="244" y2="683" stroke="#999" stroke-width="0.5"/>
  <line x1="313" y1="287.4885" x2="4.977" y2="545" stroke="#999" stroke-width="0.5"/>
  <line x1="313" y1="287.4885" x2="4.977" y2="269" stroke="#999" stroke-width="0.5"/>
  <line x1="313" y1="287.4885" x2="244" y2="131" stroke="#999" stroke-width="0.5"/>
  <line x1="313" y1="287.4885" x2="483.023" y2="269" stroke="#999" stroke-width="0.5"/>
  <line x1="483.023" y1="545" x2="244" y2="683" stroke="#999" stroke-width="0.5"/>
  <line x1="483.023" y1="545" x2="4.977" y2="545" stroke="#999" stroke-width="0.5"/>
  <line x1="483.023" y1="545" x2="4.977" y2="269" stroke="#999" stroke-width="0.5"/>
  <line x1="483.023" y1="545" x2="244" y2="131" stroke="#999" stroke-width="0.5"/>
  <line x1="483.023" y1="545" x2="483.023" y2="269" stroke="#999" stroke-width="0.5"/>
  <line x1="244" y1="683" x2="4.977" y2="545" stroke="#999" stroke-width="0.5"/>
  <line x1="244" y1="683" x2="4.977" y2="269" stroke="#999" stroke-width="0.5"/>
  <line x1="244" y1="683" x2="244" y2="131" stroke="#999" stroke-width="0.5"/>
  <line x1="244" y1="683" x2="483.023" y2="269" stroke="#999" stroke-width="0.5"/>
  <line x1="4.977" y1="545" x2="4.977" y2="269" stroke="#999" stroke-width="0.5"/>
  <line x1="4.977" y1="545" x2="244" y2="131" stroke="#999" stroke-width="0.5"/>
  <line x1="4.977" y1="545" x2="483.023" y2="269" stroke="#999" stroke-width="0.5"/>
  <line x1="4.977" y1="269" x2="244" y2="131" stroke="#999" stroke-width="0.5"/>
  <line x1="4.977" y1="269" x2="483.023" y2="269" stroke="#999" stroke-width="0.5"/>
  <line x1="244" y1="131" x2="483.023" y2="269" stroke="#999" stroke-width="0.5"/>
  <circle cx="244" cy="407" r="20.7" fill="none" stroke="#333" stroke-width="1"/>
  <circle cx="382" cy="407" r="20.7" fill="none" stroke="#333" stroke-width="1"/>
  <circle cx="313" cy="526.5115" r="20.7" fill="none" stroke="#333" stroke-width="1"/>
  <circle cx="175" cy="526.5115" r="20.7" fill="none" stroke="#333" stroke-width="1"/>
  <circle cx="106" cy="407" r="20.7" fill="none" stroke="#333" stroke-width="1"/>
  <circle cx="175" cy="287.4885" r="20.7" fill="none" stroke="#333" stroke-width="1"/>
  <circle cx="313" cy="287.4885" r="20.7" fill="none" stroke="#333" stroke-width="1"/>
  <circle cx="483.023" cy="545" r="20.7" fill="none" stroke="#333" stroke-width="1"/>
  <circle cx="244" cy="683" r="20.7" fill="none" stroke="#333" stroke-width="1"/>
  <circle cx="4.977" cy="545" r="20.7" fill="none" stroke="#333" stroke-width="1"/>
  <circle cx="4.977" cy="269" r="20.7" fill="none" stroke="#333" stroke-width="1"/>
  <circle cx="244" cy="131" r="20.7" fill="none" stroke="#333" stroke-width="1"/>
  <circle cx="483.023" cy="269" r="20.7" fill="none" stroke="#333" stroke-width="1"/>
</g>
</g>
  <g opacity="0.48">
  <g>
  <circle cx="204" cy="438" r="65" fill="none" stroke="#333" stroke-width="0.8"/>
  <circle cx="269" cy="438" r="65" fill="none" stroke="#333" stroke-width="0.8"/>
  <circle cx="236.5" cy="494.2917" r="65" fill="none" stroke="#333" stroke-width="0.8"/>
  <circle cx="171.5" cy="494.2917" r="65" fill="none" stroke="#333" stroke-width="0.8"/>
  <circle cx="139" cy="438" r="65" fill="none" stroke="#333" stroke-width="0.8"/>
  <circle cx="171.5" cy="381.7083" r="65" fill="none" stroke="#333" stroke-width="0.8"/>
  <circle cx="236.5" cy="381.7083" r="65" fill="none" stroke="#333" stroke-width="0.8"/>
</g>
</g>
  <g>
  <line x1="429" y1="642" x2="432.2415" y2="541.052" stroke="#333" stroke-width="1.5"/>
  <g>
  <line x1="432.2415" y1="541.052" x2="402.7818" y2="486.0197" stroke="#333" stroke-width="1.5"/>
  <g>
  <line x1="402.7818" y1="486.0197" x2="370.0081" y2="465.668" stroke="#333" stroke-width="1.5"/>
  <g>
  <line x1="370.0081" y1="465.668" x2="346.1775" y2="464.9028" stroke="#333" stroke-width="1.5"/>
  <g>
  <line x1="346.1775" y1="464.9028" x2="333.1861" y2="471.8573" stroke="#333" stroke-width="1.5"/>
  <g>
  <line x1="333.1861" y1="471.8573" x2="328.3818" y2="479.5941" stroke="#333" stroke-width="1.5"/>
</g>
  <g>
  <line x1="333.1861" y1="471.8573" x2="324.0837" y2="471.565" stroke="#333" stroke-width="1.5"/>
</g>
</g>
  <g>
  <line x1="346.1775" y1="464.9028" x2="333.6591" y2="457.1292" stroke="#333" stroke-width="1.5"/>
  <g>
  <line x1="333.6591" y1="457.1292" x2="324.5566" y2="456.8369" stroke="#333" stroke-width="1.5"/>
</g>
  <g>
  <line x1="333.6591" y1="457.1292" x2="329.3609" y2="449.1001" stroke="#333" stroke-width="1.5"/>
</g>
</g>
</g>
  <g>
  <line x1="370.0081" y1="465.668" x2="358.7555" y2="444.6475" stroke="#333" stroke-width="1.5"/>
  <g>
  <line x1="358.7555" y1="444.6475" x2="346.237" y2="436.8739" stroke="#333" stroke-width="1.5"/>
  <g>
  <line x1="346.237" y1="436.8739" x2="337.1346" y2="436.5816" stroke="#333" stroke-width="1.5"/>
</g>
  <g>
  <line x1="346.237" y1="436.8739" x2="341.9389" y2="428.8448" stroke="#333" stroke-width="1.5"/>
</g>
</g>
  <g>
  <line x1="358.7555" y1="444.6475" x2="359.2284" y2="429.9194" stroke="#333" stroke-width="1.5"/>
  <g>
  <line x1="359.2284" y1="429.9194" x2="354.9303" y2="421.8903" stroke="#333" stroke-width="1.5"/>
</g>
  <g>
  <line x1="359.2284" y1="429.9194" x2="364.0328" y2="422.1826" stroke="#333" stroke-width="1.5"/>
</g>
</g>
</g>
</g>
  <g>
  <line x1="402.7818" y1="486.0197" x2="404.02" y2="447.461" stroke="#333" stroke-width="1.5"/>
  <g>
  <line x1="404.02" y1="447.461" x2="392.7674" y2="426.4405" stroke="#333" stroke-width="1.5"/>
  <g>
  <line x1="392.7674" y1="426.4405" x2="380.2489" y2="418.6668" stroke="#333" stroke-width="1.5"/>
  <g>
  <line x1="380.2489" y1="418.6668" x2="371.1465" y2="418.3745" stroke="#333" stroke-width="1.5"/>
</g>
  <g>
  <line x1="380.2489" y1="418.6668" x2="375.9508" y2="410.6377" stroke="#333" stroke-width="1.5"/>
</g>
</g>
  <g>
  <line x1="392.7674" y1="426.4405" x2="393.2403" y2="411.7123" stroke="#333" stroke-width="1.5"/>
  <g>
  <line x1="393.2403" y1="411.7123" x2="388.9422" y2="403.6832" stroke="#333" stroke-width="1.5"/>
</g>
  <g>
  <line x1="393.2403" y1="411.7123" x2="398.0447" y2="403.9755" stroke="#333" stroke-width="1.5"/>
</g>
</g>
</g>
  <g>
  <line x1="404.02" y1="447.461" x2="416.598" y2="427.2057" stroke="#333" stroke-width="1.5"/>
  <g>
  <line x1="416.598" y1="427.2057" x2="417.0709" y2="412.4776" stroke="#333" stroke-width="1.5"/>
  <g>
  <line x1="417.0709" y1="412.4776" x2="412.7728" y2="404.4484" stroke="#333" stroke-width="1.5"/>
</g>
  <g>
  <line x1="417.0709" y1="412.4776" x2="421.8753" y2="404.7407" stroke="#333" stroke-width="1.5"/>
</g>
</g>
  <g>
  <line x1="416.598" y1="427.2057" x2="429.5893" y2="420.2512" stroke="#333" stroke-width="1.5"/>
  <g>
  <line x1="429.5893" y1="420.2512" x2="434.3937" y2="412.5144" stroke="#333" stroke-width="1.5"/>
</g>
  <g>
  <line x1="429.5893" y1="420.2512" x2="438.6918" y2="420.5435" stroke="#333" stroke-width="1.5"/>
</g>
</g>
</g>
</g>
</g>
  <g>
  <line x1="432.2415" y1="541.052" x2="465.1711" y2="488.023" stroke="#333" stroke-width="1.5"/>
  <g>
  <line x1="465.1711" y1="488.023" x2="466.4092" y2="449.4643" stroke="#333" stroke-width="1.5"/>
  <g>
  <line x1="466.4092" y1="449.4643" x2="455.1567" y2="428.4438" stroke="#333" stroke-width="1.5"/>
  <g>
  <line x1="455.1567" y1="428.4438" x2="442.6382" y2="420.6702" stroke="#333" stroke-width="1.5"/>
  <g>
  <line x1="442.6382" y1="420.6702" x2="433.5357" y2="420.3779" stroke="#333" stroke-width="1.5"/>
</g>
  <g>
  <line x1="442.6382" y1="420.6702" x2="438.3401" y2="412.6411" stroke="#333" stroke-width="1.5"/>
</g>
</g>
  <g>
  <line x1="455.1567" y1="428.4438" x2="455.6296" y2="413.7157" stroke="#333" stroke-width="1.5"/>
  <g>
  <line x1="455.6296" y1="413.7157" x2="451.3315" y2="405.6866" stroke="#333" stroke-width="1.5"/>
</g>
  <g>
  <line x1="455.6296" y1="413.7157" x2="460.4339" y2="405.9789" stroke="#333" stroke-width="1.5"/>
</g>
</g>
</g>
  <g>
  <line x1="466.4092" y1="449.4643" x2="478.9872" y2="429.209" stroke="#333" stroke-width="1.5"/>
  <g>
  <line x1="478.9872" y1="429.209" x2="479.4602" y2="414.4809" stroke="#333" stroke-width="1.5"/>
  <g>
  <line x1="479.4602" y1="414.4809" x2="475.1621" y2="406.4518" stroke="#333" stroke-width="1.5"/>
</g>
  <g>
  <line x1="479.4602" y1="414.4809" x2="484.2645" y2="406.7441" stroke="#333" stroke-width="1.5"/>
</g>
</g>
  <g>
  <line x1="478.9872" y1="429.209" x2="491.9786" y2="422.2545" stroke="#333" stroke-width="1.5"/>
  <g>
  <line x1="491.9786" y1="422.2545" x2="496.783" y2="414.5177" stroke="#333" stroke-width="1.5"/>
</g>
  <g>
  <line x1="491.9786" y1="422.2545" x2="501.0811" y2="422.5468" stroke="#333" stroke-width="1.5"/>
</g>
</g>
</g>
</g>
  <g>
  <line x1="465.1711" y1="488.023" x2="499.183" y2="469.8159" stroke="#333" stroke-width="1.5"/>
  <g>
  <line x1="499.183" y1="469.8159" x2="511.761" y2="449.5606" stroke="#333" stroke-width="1.5"/>
  <g>
  <line x1="511.761" y1="449.5606" x2="512.2339" y2="434.8325" stroke="#333" stroke-width="1.5"/>
  <g>
  <line x1="512.2339" y1="434.8325" x2="507.9358" y2="426.8034" stroke="#333" stroke-width="1.5"/>
</g>
  <g>
  <line x1="512.2339" y1="434.8325" x2="517.0383" y2="427.0957" stroke="#333" stroke-width="1.5"/>
</g>
</g>
  <g>
  <line x1="511.761" y1="449.5606" x2="524.7524" y2="442.6062" stroke="#333" stroke-width="1.5"/>
  <g>
  <line x1="524.7524" y1="442.6062" x2="529.5567" y2="434.8693" stroke="#333" stroke-width="1.5"/>
</g>
  <g>
  <line x1="524.7524" y1="442.6062" x2="533.8548" y2="442.8984" stroke="#333" stroke-width="1.5"/>
</g>
</g>
</g>
  <g>
  <line x1="499.183" y1="469.8159" x2="523.0136" y2="470.5811" stroke="#333" stroke-width="1.5"/>
  <g>
  <line x1="523.0136" y1="470.5811" x2="536.005" y2="463.6267" stroke="#333" stroke-width="1.5"/>
  <g>
  <line x1="536.005" y1="463.6267" x2="540.8093" y2="455.8898" stroke="#333" stroke-width="1.5"/>
</g>
  <g>
  <line x1="536.005" y1="463.6267" x2="545.1074" y2="463.9189" stroke="#333" stroke-width="1.5"/>
</g>
</g>
  <g>
  <line x1="523.0136" y1="470.5811" x2="535.532" y2="478.3548" stroke="#333" stroke-width="1.5"/>
  <g>
  <line x1="535.532" y1="478.3548" x2="544.6345" y2="478.6471" stroke="#333" stroke-width="1.5"/>
</g>
  <g>
  <line x1="535.532" y1="478.3548" x2="539.8301" y2="486.3839" stroke="#333" stroke-width="1.5"/>
</g>
</g>
</g>
</g>
</g>
</g>
  <g transform="rotate(132.9,400,400)">
  <polygon points="371,375 463.2525,442.0254 428.0152,550.4746 313.9848,550.4746 278.7475,442.0254" fill="none" stroke="#333" stroke-width="1.5"/>
</g>
</svg>