<svg xmlns="http://www.w3.org/2000/svg" width="800" height="800" viewBox="0 0 800 800">
  <g transform="rotate(-127.6,400,400)">
  <g>
  <polygon points="273,304 302,304 302,333" fill="none" stroke="#333" stroke-width="1"/>
  <polygon points="273,304 302,333 281.4939,353.5061" fill="none" stroke="#333" stroke-width="1"/>
  <polygon points="273,304 281.4939,353.5061 252.9115,358.4101" fill="none" stroke="#333" stroke-width="1"/>
  <polygon points="273,304 252.9115,358.4101 225.7065,348.3658" fill="none" stroke="#333" stroke-width="1"/>
  <polygon points="273,304 225.7065,348.3658 205.8655,327.2155" fill="none" stroke="#333" stroke-width="1"/>
  <polygon points="273,304 205.8655,327.2155 196.3878,299.808" fill="none" stroke="#333" stroke-width="1"/>
  <polygon points="273,304 196.3878,299.808 197.9722,270.8513" fill="none" stroke="#333" stroke-width="1"/>
  <polygon points="273,304 197.9722,270.8513 209.6921,244.325" fill="none" stroke="#333" stroke-width="1"/>
  <polygon points="273,304 209.6921,244.325 229.5837,223.2224" fill="none" stroke="#333" stroke-width="1"/>
  <polygon points="273,304 229.5837,223.2224 255.1279,209.4929" fill="none" stroke="#333" stroke-width="1"/>
  <polygon points="273,304 255.1279,209.4929 283.6228,204.1043" fill="none" stroke="#333" stroke-width="1"/>
  <polygon points="273,304 283.6228,204.1043 312.4602,207.1708" fill="none" stroke="#333" stroke-width="1"/>
  <polygon points="273,304 312.4602,207.1708 339.3158,218.1151" fill="none" stroke="#333" stroke-width="1"/>
  <polygon points="273,304 339.3158,218.1151 362.2695,235.8388" fill="none" stroke="#333" stroke-width="1"/>
  <polygon points="273,304 362.2695,235.8388 379.8687,258.8881" fill="none" stroke="#333" stroke-width="1"/>
  <polygon points="273,304 379.8687,258.8881 391.1467,285.6052" fill="none" stroke="#333" stroke-width="1"/>
  <polygon points="273,304 391.1467,285.6052 395.608,314.26" fill="none" stroke="#333" stroke-width="1"/>
  <polygon points="273,304 395.608,314.26 393.1897,343.159" fill="none" stroke="#333" stroke-width="1"/>
  <polygon points="273,304 393.1897,343.159 384.206,370.7324" fill="none" stroke="#333" stroke-width="1"/>
  <polygon points="273,304 384.206,370.7324 369.2842,395.5988" fill="none" stroke="#333" stroke-width="1"/>
</g>
</g>
  <g transform="rotate(-127.6,400,400)">
  <g>
  <polygon points="273,309 304,309 304,340" fill="none" stroke="#333" stroke-width="1"/>
  <polygon points="273,309 304,340 282.0797,361.9203" fill="none" stroke="#333" stroke-width="1"/>
  <polygon points="273,309 282.0797,361.9203 251.5261,367.1625" fill="none" stroke="#333" stroke-width="1"/>
  <polygon points="273,309 251.5261,367.1625 222.4449,356.4255" fill="none" stroke="#333" stroke-width="1"/>
  <polygon points="273,309 222.4449,356.4255 201.2356,333.8166" fill="none" stroke="#333" stroke-width="1"/>
  <polygon points="273,309 201.2356,333.8166 191.1042,304.5189" fill="none" stroke="#333" stroke-width="1"/>
  <polygon points="273,309 191.1042,304.5189 192.7979,273.5652" fill="none" stroke="#333" stroke-width="1"/>
  <polygon points="273,309 192.7979,273.5652 205.326,245.2095" fill="none" stroke="#333" stroke-width="1"/>
  <polygon points="273,309 205.326,245.2095 226.5895,222.6515" fill="none" stroke="#333" stroke-width="1"/>
  <polygon points="273,309 226.5895,222.6515 253.8953,207.9752" fill="none" stroke="#333" stroke-width="1"/>
  <polygon points="273,309 253.8953,207.9752 284.3554,202.2149" fill="none" stroke="#333" stroke-width="1"/>
  <polygon points="273,309 284.3554,202.2149 315.1816,205.4929" fill="none" stroke="#333" stroke-width="1"/>
  <polygon points="273,309 315.1816,205.4929 343.8893,217.192" fill="none" stroke="#333" stroke-width="1"/>
  <polygon points="273,309 343.8893,217.192 368.426,236.138" fill="none" stroke="#333" stroke-width="1"/>
  <polygon points="273,309 368.426,236.138 387.2389,260.7769" fill="none" stroke="#333" stroke-width="1"/>
  <polygon points="273,309 387.2389,260.7769 399.2947,289.3366" fill="none" stroke="#333" stroke-width="1"/>
  <polygon points="273,309 399.2947,289.3366 404.0638,319.9676" fill="none" stroke="#333" stroke-width="1"/>
  <polygon points="273,309 404.0638,319.9676 401.4787,350.8596" fill="none" stroke="#333" stroke-width="1"/>
  <polygon points="273,309 401.4787,350.8596 391.8754,380.3346" fill="none" stroke="#333" stroke-width="1"/>
  <polygon points="273,309 391.8754,380.3346 375.9245,406.916" fill="none" stroke="#333" stroke-width="1"/>
</g>
</g>
  <g>
  <g>
  <circle cx="269" cy="250" r="20.7752" stroke="#e74c3c" stroke-width="2" fill="#e74c3c" fill-opacity="0.08"/>
  <circle cx="289.7752" cy="250" r="3" fill="#e74c3c" stroke="none"/>
  <circle cx="258.6124" cy="232.0082" r="3" fill="#e74c3c" stroke="none"/>
  <circle cx="258.6124" cy="267.9918" r="3" fill="#e74c3c" stroke="none"/>
  <text x="297.7752" y="254" font-size="10" fill="#e74c3c">3D c3 seed</text>
  <circle cx="269" cy="250" r="33.6149" stroke="#e67e22" stroke-width="2" fill="#e67e22" fill-opacity="0.08"/>
  <circle cx="302.6149" cy="250" r="3" fill="#e67e22" stroke="none"/>
  <circle cx="269" cy="216.3851" r="3" fill="#e67e22" stroke="none"/>
  <circle cx="235.3851" cy="250" r="3" fill="#e67e22" stroke="none"/>
  <circle cx="269" cy="283.6149" r="3" fill="#e67e22" stroke="none"/>
  <text x="310.6149" y="254" font-size="10" fill="#e67e22">4D E4 base</text>
  <circle cx="269" cy="250" r="54.3901" stroke="#f1c40f" stroke-width="2" fill="#f1c40f" fill-opacity="0.08"/>
  <circle cx="323.3901" cy="250" r="3" fill="#f1c40f" stroke="none"/>
  <circle cx="296.195" cy="202.8968" r="3" fill="#f1c40f" stroke="none"/>
  <circle cx="241.805" cy="202.8968" r="3" fill="#f1c40f" stroke="none"/>
  <circle cx="214.6099" cy="250" r="3" fill="#f1c40f" stroke="none"/>
  <circle cx="241.805" cy="297.1032" r="3" fill="#f1c40f" stroke="none"/>
  <circle cx="296.195" cy="297.1032" r="3" fill="#f1c40f" stroke="none"/>
  <text x="331.3901" y="254" font-size="10" fill="#f1c40f">6D W3 Mobius</text>
  <circle cx="269" cy="250" r="88.005" stroke="#2ecc71" stroke-width="2" fill="#2ecc71" fill-opacity="0.08"/>
  <circle cx="357.005" cy="250" r="3" fill="#2ecc71" stroke="none"/>
  <circle cx="331.2289" cy="187.7711" r="3" fill="#2ecc71" stroke="none"/>
  <circle cx="269" cy="161.995" r="3" fill="#2ecc71" stroke="none"/>
  <circle cx="206.7711" cy="187.7711" r="3" fill="#2ecc71" stroke="none"/>
  <circle cx="180.995" cy="250" r="3" fill="#2ecc71" stroke="none"/>
  <circle cx="206.7711" cy="312.2289" r="3" fill="#2ecc71" stroke="none"/>
  <circle cx="269" cy="338.005" r="3" fill="#2ecc71" stroke="none"/>
  <circle cx="331.2289" cy="312.2289" r="3" fill="#2ecc71" stroke="none"/>
  <text x="365.005" y="254" font-size="10" fill="#2ecc71">8D W5 penta</text>
  <circle cx="269" cy="250" r="142.395" stroke="#3498db" stroke-width="2" fill="#3498db" fill-opacity="0.08"/>
  <circle cx="411.395" cy="250" r="3" fill="#3498db" stroke="none"/>
  <circle cx="384.2" cy="166.3023" r="3" fill="#3498db" stroke="none"/>
  <circle cx="313.0025" cy="114.5743" r="3" fill="#3498db" stroke="none"/>
  <circle cx="224.9975" cy="114.5743" r="3" fill="#3498db" stroke="none"/>
  <circle cx="153.8" cy="166.3023" r="3" fill="#3498db" stroke="none"/>
  <circle cx="126.605" cy="250" r="3" fill="#3498db" stroke="none"/>
  <circle cx="153.8" cy="333.6977" r="3" fill="#3498db" stroke="none"/>
  <circle cx="224.9975" cy="385.4257" r="3" fill="#3498db" stroke="none"/>
  <circle cx="313.0025" cy="385.4257" r="3" fill="#3498db" stroke="none"/>
  <circle cx="384.2" cy="333.6977" r="3" fill="#3498db" stroke="none"/>
  <text x="419.395" y="254" font-size="10" fill="#3498db">10D W7 hepta</text>
  <circle cx="269" cy="250" r="230.4" stroke="#9b59b6" stroke-width="2" fill="#9b59b6" fill-opacity="0.08"/>
  <circle cx="499.4" cy="250" r="3" fill="#9b59b6" stroke="none"/>
  <circle cx="468.5323" cy="134.8" r="3" fill="#9b59b6" stroke="none"/>
  <circle cx="384.2" cy="50.4677" r="3" fill="#9b59b6" stroke="none"/>
  <circle cx="269" cy="19.6" r="3" fill="#9b59b6" stroke="none"/>
  <circle cx="153.8" cy="50.4677" r="3" fill="#9b59b6" stroke="none"/>
  <circle cx="69.4677" cy="134.8" r="3" fill="#9b59b6" stroke="none"/>
  <circle cx="38.6" cy="250" r="3" fill="#9b59b6" stroke="none"/>
  <circle cx="69.4677" cy="365.2" r="3" fill="#9b59b6" stroke="none"/>
  <circle cx="153.8" cy="449.5323" r="3" fill="#9b59b6" stroke="none"/>
  <circle cx="269" cy="480.4" r="3" fill="#9b59b6" stroke="none"/>
  <circle cx="384.2" cy="449.5323" r="3" fill="#9b59b6" stroke="none"/>
  <circle cx="468.5323" cy="365.2" r="3" fill="#9b59b6" stroke="none"/>
  <text x="507.4" y="254" font-size="10" fill="#9b59b6">12D W9 crown</text>
</g>
  <line x1="239.5171" y1="345.1703" x2="359.4498" y2="335.6665" stroke="#8B4513" stroke-width="1.2"/>
  <line x1="239.5171" y1="345.1703" x2="239.5171" y2="181.8052" stroke="#DC143C" stroke-width="1.2"/>
  <line x1="239.5171" y1="345.1703" x2="239.5171" y2="318.1948" stroke="#4169E1" stroke-width="1.2"/>
  <line x1="239.5171" y1="345.1703" x2="185.477" y2="329.106" stroke="#228B22" stroke-width="1.2"/>
  <line x1="359.4498" y1="335.6665" x2="359.4498" y2="188.6152" stroke="#DC143C" stroke-width="1.2"/>
  <line x1="359.4498" y1="335.6665" x2="359.4498" y2="311.3848" stroke="#4169E1" stroke-width="1.2"/>
  <line x1="359.4498" y1="335.6665" x2="291.4373" y2="322.4272" stroke="#228B22" stroke-width="1.2"/>
  <line x1="239.5171" y1="181.8052" x2="359.4498" y2="188.6152" stroke="#8B4513" stroke-width="1.2"/>
  <line x1="239.5171" y1="181.8052" x2="239.5171" y2="154.8297" stroke="#4169E1" stroke-width="1.2"/>
  <line x1="239.5171" y1="181.8052" x2="185.477" y2="193.3162" stroke="#228B22" stroke-width="1.2"/>
  <line x1="359.4498" y1="188.6152" x2="359.4498" y2="164.3335" stroke="#4169E1" stroke-width="1.2"/>
  <line x1="359.4498" y1="188.6152" x2="291.4373" y2="198.1019" stroke="#228B22" stroke-width="1.2"/>
  <line x1="239.5171" y1="318.1948" x2="359.4498" y2="311.3848" stroke="#8B4513" stroke-width="1.2"/>
  <line x1="239.5171" y1="318.1948" x2="239.5171" y2="154.8297" stroke="#DC143C" stroke-width="1.2"/>
  <line x1="239.5171" y1="318.1948" x2="185.477" y2="306.6838" stroke="#228B22" stroke-width="1.2"/>
  <line x1="359.4498" y1="311.3848" x2="359.4498" y2="164.3335" stroke="#DC143C" stroke-width="1.2"/>
  <line x1="359.4498" y1="311.3848" x2="291.4373" y2="301.8981" stroke="#228B22" stroke-width="1.2"/>
  <line x1="239.5171" y1="154.8297" x2="359.4498" y2="164.3335" stroke="#8B4513" stroke-width="1.2"/>
  <line x1="239.5171" y1="154.8297" x2="185.477" y2="170.894" stroke="#228B22" stroke-width="1.2"/>
  <line x1="359.4498" y1="164.3335" x2="291.4373" y2="177.5728" stroke="#228B22" stroke-width="1.2"/>
  <line x1="185.477" y1="329.106" x2="291.4373" y2="322.4272" stroke="#8B4513" stroke-width="1.2"/>
  <line x1="185.477" y1="329.106" x2="185.477" y2="193.3162" stroke="#DC143C" stroke-width="1.2"/>
  <line x1="185.477" y1="329.106" x2="185.477" y2="306.6838" stroke="#4169E1" stroke-width="1.2"/>
  <line x1="291.4373" y1="322.4272" x2="291.4373" y2="198.1019" stroke="#DC143C" stroke-width="1.2"/>
  <line x1="291.4373" y1="322.4272" x2="291.4373" y2="301.8981" stroke="#4169E1" stroke-width="1.2"/>
  <line x1="185.477" y1="193.3162" x2="291.4373" y2="198.1019" stroke="#8B4513" stroke-width="1.2"/>
  <line x1="185.477" y1="193.3162" x2="185.477" y2="170.894" stroke="#4169E1" stroke-width="1.2"/>
  <line x1="291.4373" y1="198.1019" x2="291.4373" y2="177.5728" stroke="#4169E1" stroke-width="1.2"/>
  <line x1="185.477" y1="306.6838" x2="291.4373" y2="301.8981" stroke="#8B4513" stroke-width="1.2"/>
  <line x1="185.477" y1="306.6838" x2="185.477" y2="170.894" stroke="#DC143C" stroke-width="1.2"/>
  <line x1="291.4373" y1="301.8981" x2="291.4373" y2="177.5728" stroke="#DC143C" stroke-width="1.2"/>
  <line x1="185.477" y1="170.894" x2="291.4373" y2="177.5728" stroke="#8B4513" stroke-width="1.2"/>
  <circle cx="239.5171" cy="345.1703" r="3" fill="#8B4513" stroke="#333" stroke-width="0.5"/>
  <circle cx="359.4498" cy="335.6665" r="3" fill="#DC143C" stroke="#333" stroke-width="0.5"/>
  <circle cx="239.5171" cy="181.8052" r="3" fill="#DC143C" stroke="#333" stroke-width="0.5"/>
  <circle cx="359.4498" cy="188.6152" r="3" fill="#4169E1" stroke="#333" stroke-width="0.5"/>
  <circle cx="239.5171" cy="318.1948" r="3" fill="#DC143C" stroke="#333" stroke-width="0.5"/>
  <circle cx="359.4498" cy="311.3848" r="3" fill="#4169E1" stroke="#333" stroke-width="0.5"/>
  <circle cx="239.5171" cy="154.8297" r="3" fill="#4169E1" stroke="#333" stroke-width="0.5"/>
  <circle cx="359.4498" cy="164.3335" r="3" fill="#228B22" stroke="#333" stroke-width="0.5"/>
  <circle cx="185.477" cy="329.106" r="3" fill="#DC143C" stroke="#333" stroke-width="0.5"/>
  <circle cx="291.4373" cy="322.4272" r="3" fill="#4169E1" stroke="#333" stroke-width="0.5"/>
  <circle cx="185.477" cy="193.3162" r="3" fill="#4169E1" stroke="#333" stroke-width="0.5"/>
  <circle cx="291.4373" cy="198.1019" r="3" fill="#228B22" stroke="#333" stroke-width="0.5"/>
  <circle cx="185.477" cy="306.6838" r="3" fill="#4169E1" stroke="#333" stroke-width="0.5"/>
  <circle cx="291.4373" cy="301.8981" r="3" fill="#228B22" stroke="#333" stroke-width="0.5"/>
  <circle cx="185.477" cy="170.894" r="3" fill="#228B22" stroke="#333" stroke-width="0.5"/>
  <circle cx="291.4373" cy="177.5728" r="3" fill="#8B4513" stroke="#333" stroke-width="0.5"/>
  <g>
  <polyline points="341.7584,239.2097 338.2244,235.5146 333.5514,232.0593 327.8058,228.9041 321.0685,226.1058 313.4341,223.7167 305.0106,221.7844 295.9178,220.3508 286.287,219.4515 276.2595,219.1152 265.9853,219.3632 255.6213,220.2083 245.3299,221.6549 235.2765,223.698 225.6277,226.323 216.5484,229.5056 208.1995,233.2113 200.735,237.396 194.2989,242.0055 189.0228,246.9766 185.0225,252.2374 182.3955,257.7081 181.2184,263.3023 181.5445,268.9279 183.4019,274.4892 186.7916,279.8879 191.6871,285.0252 198.0328,289.8036 205.7452,294.129 214.7125,297.9125 224.7965,301.0725 235.8346,303.5365 247.642,305.2432 260.0149,306.1435 272.7344,306.2022 285.5707,305.3994 298.2871,303.7308 310.6455,301.2083 322.4109,297.8604 333.3565,293.7317 343.2688,288.8822 351.9521,283.3867 359.2329,277.3329 364.9641,270.8203 369.0283,263.958 371.3405,256.8624 371.8499,249.655 370.5419,242.4599 367.4379,235.4013" stroke="#9b59b6" stroke-width="0.5" fill="none" stroke-opacity="0.6"/>
  <polyline points="346.0383,238.5749 342.2862,234.3622 337.3103,230.4117 331.187,226.7918 324.0093,223.5663 315.8862,220.7933 306.9417,218.5247 297.3125,216.8054 287.1473,215.6719 276.6043,215.1528 265.8495,215.2671 255.0544,216.0243 244.3937,217.424 234.0427,219.4554 224.1749,222.0973 214.9589,225.3183 206.5563,229.0767 199.1181,233.3208 192.7825,237.9897 187.6723,243.0141 183.8918,248.3165 181.5252,253.8133 180.634,259.415 181.2557,265.0284 183.4019,270.5577 187.0579,275.9061 192.1819,280.9779 198.7054,285.68 206.5332,289.9236 215.5448,293.6262 225.5964,296.7132 236.5224,299.1195 248.1387,300.7912 260.2453,301.6863 272.6303,301.7766 285.0735,301.0476 297.3509,299.4998 309.2386,297.1488 320.5175,294.025 330.9777,290.1732 340.4226,285.6524 348.6733,280.5343 355.572,274.9025 360.9857,268.8506 364.8087,262.4804 366.9654,255.9003 367.4115,249.2231 366.1353,242.5635 363.158,236.036" stroke="#9b59b6" stroke-width="0.5" fill="none" stroke-opacity="0.6"/>
  <polyline points="350.3182,237.9402 346.3479,233.2099 341.0693,228.7642 334.5682,224.6795 326.9501,221.0268 318.3383,217.8699 308.8727,215.2651 298.7072,213.2599 288.0076,211.8924 276.9491,211.1904 265.7138,211.1709 254.4876,211.8402 243.4575,213.193 232.8089,215.2127 222.722,217.8716 213.3694,221.1311 204.913,224.942 197.5012,229.2456 191.2662,233.974 186.3218,239.0515 182.7612,244.3957 180.6549,249.9185 180.0497,255.5278 180.9668,261.1289 183.4019,266.6261 187.3241,271.9243 192.6768,276.9306 199.378,281.5564 207.3211,285.7182 216.3772,289.3399 226.3963,292.3539 237.2102,294.7025 248.6354,296.3392 260.4757,297.2292 272.5261,297.3509 284.5764,296.6957 296.4148,295.2689 307.8318,293.0894 318.6242,290.1895 328.5989,286.6147 337.5764,282.4225 345.3945,277.682 351.9111,272.4722 357.0072,266.8808 360.5891,261.0028 362.5904,254.9383 362.9731,248.7913 361.7286,242.667 358.8781,236.6708" stroke="#9b59b6" stroke-width="0.5" fill="none" stroke-opacity="0.6"/>
  <polyline points="354.5981,237.3055 350.4097,232.0576 344.8283,227.1166 337.9495,222.5673 329.8909,218.4873 320.7904,214.9464 310.8038,212.0054 300.102,209.7145 288.8679,208.1128 277.2939,207.2279 265.5781,207.0748 253.9207,207.6562 242.5214,208.9621 231.5751,210.9701 221.2692,213.646 211.78,216.9439 203.2698,220.8074 195.8843,225.1703 189.7498,229.9582 184.9713,235.0889 181.6305,240.4748 179.7847,246.0237 179.4654,251.6406 180.678,257.2294 183.4019,262.6945 187.5903,267.9424 193.1717,272.8834 200.0505,277.4327 208.1091,281.5127 217.2096,285.0536 227.1962,287.9946 237.898,290.2855 249.1321,291.8872 260.7061,292.7721 272.4219,292.9252 284.0793,292.3438 295.4786,291.0379 306.4249,289.0299 316.7308,286.354 326.22,283.0561 334.7302,279.1926 342.1157,274.8297 348.2502,270.0418 353.0287,264.9111 356.3695,259.5252 358.2153,253.9763 358.5346,248.3594 357.322,242.7706 354.5981,237.3055" stroke="#9b59b6" stroke-width="0.5" fill="none" stroke-opacity="0.6"/>
  <polyline points="358.8781,236.6708 354.4715,230.9052 348.5873,225.4691 341.3307,220.455 332.8317,215.9477 323.2425,212.023 312.7349,208.7457 301.4967,206.169 289.7282,204.3333 277.6388,203.2655 265.4423,202.9787 253.3539,203.4721 241.5852,204.7311 230.3413,206.7275 219.8164,209.4203 210.1905,212.7566 201.6265,216.6727 194.2673,221.0951 188.2334,225.9424 183.6208,231.1264 180.4999,236.5539 178.9144,242.1289 178.881,247.7533 180.3892,253.3299 183.4019,258.763 187.8565,263.9606 193.6666,268.8361 200.7231,273.3091 208.8971,277.3073 218.042,280.7673 227.9961,283.6353 238.5858,285.8685 249.6288,287.4351 260.9364,288.315 272.3178,288.4995 283.5822,287.9919 294.5425,286.807 305.018,284.9704 314.8374,282.5186 323.8412,279.4976 331.884,275.9628 338.837,271.9773 344.5894,267.6115 349.0503,262.9413 352.1499,258.0476 353.8403,253.0143 354.0962,247.9276 352.9154,242.8742 350.3182,237.9402" stroke="#9b59b6" stroke-width="0.5" fill="none" stroke-opacity="0.6"/>
  <polyline points="363.158,236.036 358.5332,229.7529 352.3463,223.8215 344.7119,218.3427 335.7725,213.4082 325.6946,209.0996 314.666,205.4861 302.8914,202.6236 290.5885,200.5537 277.9836,199.303 265.3066,198.8826 252.787,199.2881 240.6491,200.5002 229.1075,202.4849 218.3635,205.1946 208.601,208.5694 199.9833,212.5381 192.6504,217.0199 186.717,221.9266 182.2703,227.1638 179.3692,232.6331 178.0442,238.234 178.2967,243.8661 180.1003,249.4304 183.4019,254.8314 188.1228,259.9788 194.1615,264.7888 201.3957,269.1855 209.6851,273.1019 218.8743,276.481 228.7959,279.276 239.2736,281.4515 250.1255,282.9831 261.1668,283.8578 272.2136,284.0738 283.085,283.6401 293.6063,282.576 303.6111,280.9109 312.9441,278.6831 321.4624,275.9391 329.0378,272.7329 335.5582,269.125 340.9285,265.1811 345.0718,260.9716 347.9302,256.57 349.4652,252.0523 349.6578,247.4957 348.5087,242.9777 346.0383,238.5749" stroke="#9b59b6" stroke-width="0.5" fill="none" stroke-opacity="0.6"/>
  <polyline points="341.7584,239.2097 346.0383,238.5749 350.3182,237.9402 354.5981,237.3055 358.8781,236.6708 363.158,236.036" stroke="#999" stroke-width="0.5" fill="none" stroke-opacity="0.6"/>
  <polyline points="321.0685,226.1058 324.0093,223.5663 326.9501,221.0268 329.8909,218.4873 332.8317,215.9477 335.7725,213.4082" stroke="#999" stroke-width="0.5" fill="none" stroke-opacity="0.6"/>
  <polyline points="286.287,219.4515 287.1473,215.6719 288.0076,211.8924 288.8679,208.1128 289.7282,204.3333 290.5885,200.5537" stroke="#999" stroke-width="0.5" fill="none" stroke-opacity="0.6"/>
  <polyline points="245.3299,221.6549 244.3937,217.424 243.4575,213.193 242.5214,208.9621 241.5852,204.7311 240.6491,200.5002" stroke="#999" stroke-width="0.5" fill="none" stroke-opacity="0.6"/>
  <polyline points="208.1995,233.2113 206.5563,229.0767 204.913,224.942 203.2698,220.8074 201.6265,216.6727 199.9833,212.5381" stroke="#999" stroke-width="0.5" fill="none" stroke-opacity="0.6"/>
  <polyline points="185.0225,252.2374 183.8918,248.3165 182.7612,244.3957 181.6305,240.4748 180.4999,236.5539 179.3692,232.6331" stroke="#999" stroke-width="0.5" fill="none" stroke-opacity="0.6"/>
  <polyline points="183.4019,274.4892 183.4019,270.5577 183.4019,266.6261 183.4019,262.6945 183.4019,258.763 183.4019,254.8314" stroke="#999" stroke-width="0.5" fill="none" stroke-opacity="0.6"/>
  <polyline points="205.7452,294.129 206.5332,289.9236 207.3211,285.7182 208.1091,281.5127 208.8971,277.3073 209.6851,273.1019" stroke="#999" stroke-width="0.5" fill="none" stroke-opacity="0.6"/>
  <polyline points="247.642,305.2432 248.1387,300.7912 248.6354,296.3392 249.1321,291.8872 249.6288,287.4351 250.1255,282.9831" stroke="#999" stroke-width="0.5" fill="none" stroke-opacity="0.6"/>
  <polyline points="298.2871,303.7308 297.3509,299.4998 296.4148,295.2689 295.4786,291.0379 294.5425,286.807 293.6063,282.576" stroke="#999" stroke-width="0.5" fill="none" stroke-opacity="0.6"/>
  <polyline points="343.2688,288.8822 340.4226,285.6524 337.5764,282.4225 334.7302,279.1926 331.884,275.9628 329.0378,272.7329" stroke="#999" stroke-width="0.5" fill="none" stroke-opacity="0.6"/>
  <polyline points="369.0283,263.958 364.8087,262.4804 360.5891,261.0028 356.3695,259.5252 352.1499,258.0476 347.9302,256.57" stroke="#999" stroke-width="0.5" fill="none" stroke-opacity="0.6"/>
</g>
</g>
  <g>
  <g>
  <circle cx="253" cy="250" r="20.6128" stroke="#e74c3c" stroke-width="2" fill="#e74c3c" fill-opacity="0.08"/>
  <circle cx="273.6128" cy="250" r="3" fill="#e74c3c" stroke="none"/>
  <circle cx="242.6936" cy="232.1487" r="3" fill="#e74c3c" stroke="none"/>
  <circle cx="242.6936" cy="267.8513" r="3" fill="#e74c3c" stroke="none"/>
  <text x="281.6128" y="254" font-size="10" fill="#e74c3c">3D c3 seed</text>
  <circle cx="253" cy="250" r="33.3523" stroke="#e67e22" stroke-width="2" fill="#e67e22" fill-opacity="0.08"/>
  <circle cx="286.3523" cy="250" r="3" fill="#e67e22" stroke="none"/>
  <circle cx="253" cy="216.6477" r="3" fill="#e67e22" stroke="none"/>
  <circle cx="219.6477" cy="250" r="3" fill="#e67e22" stroke="none"/>
  <circle cx="253" cy="283.3523" r="3" fill="#e67e22" stroke="none"/>
  <text x="294.3523" y="254" font-size="10" fill="#e67e22">4D E4 base</text>
  <circle cx="253" cy="250" r="53.9651" stroke="#f1c40f" stroke-width="2" fill="#f1c40f" fill-opacity="0.08"/>
  <circle cx="306.9651" cy="250" r="3" fill="#f1c40f" stroke="none"/>
  <circle cx="279.9826" cy="203.2648" r="3" fill="#f1c40f" stroke="none"/>
  <circle cx="226.0174" cy="203.2648" r="3" fill="#f1c40f" stroke="none"/>
  <circle cx="199.0349" cy="250" r="3" fill="#f1c40f" stroke="none"/>
  <circle cx="226.0174" cy="296.7352" r="3" fill="#f1c40f" stroke="none"/>
  <circle cx="279.9826" cy="296.7352" r="3" fill="#f1c40f" stroke="none"/>
  <text x="314.9651" y="254" font-size="10" fill="#f1c40f">6D W3 Mobius</text>
  <circle cx="253" cy="250" r="87.3174" stroke="#2ecc71" stroke-width="2" fill="#2ecc71" fill-opacity="0.08"/>
  <circle cx="340.3174" cy="250" r="3" fill="#2ecc71" stroke="none"/>
  <circle cx="314.7427" cy="188.2573" r="3" fill="#2ecc71" stroke="none"/>
  <circle cx="253" cy="162.6826" r="3" fill="#2ecc71" stroke="none"/>
  <circle cx="191.2573" cy="188.2573" r="3" fill="#2ecc71" stroke="none"/>
  <circle cx="165.6826" cy="250" r="3" fill="#2ecc71" stroke="none"/>
  <circle cx="191.2573" cy="311.7427" r="3" fill="#2ecc71" stroke="none"/>
  <circle cx="253" cy="337.3174" r="3" fill="#2ecc71" stroke="none"/>
  <circle cx="314.7427" cy="311.7427" r="3" fill="#2ecc71" stroke="none"/>
  <text x="348.3174" y="254" font-size="10" fill="#2ecc71">8D W5 penta</text>
  <circle cx="253" cy="250" r="141.2826" stroke="#3498db" stroke-width="2" fill="#3498db" fill-opacity="0.08"/>
  <circle cx="394.2826" cy="250" r="3" fill="#3498db" stroke="none"/>
  <circle cx="367.3" cy="166.9562" r="3" fill="#3498db" stroke="none"/>
  <circle cx="296.6587" cy="115.6323" r="3" fill="#3498db" stroke="none"/>
  <circle cx="209.3413" cy="115.6323" r="3" fill="#3498db" stroke="none"/>
  <circle cx="138.7" cy="166.9562" r="3" fill="#3498db" stroke="none"/>
  <circle cx="111.7174" cy="250" r="3" fill="#3498db" stroke="none"/>
  <circle cx="138.7" cy="333.0438" r="3" fill="#3498db" stroke="none"/>
  <circle cx="209.3413" cy="384.3677" r="3" fill="#3498db" stroke="none"/>
  <circle cx="296.6587" cy="384.3677" r="3" fill="#3498db" stroke="none"/>
  <circle cx="367.3" cy="333.0438" r="3" fill="#3498db" stroke="none"/>
  <text x="402.2826" y="254" font-size="10" fill="#3498db">10D W7 hepta</text>
  <circle cx="253" cy="250" r="228.6" stroke="#9b59b6" stroke-width="2" fill="#9b59b6" fill-opacity="0.08"/>
  <circle cx="481.6" cy="250" r="3" fill="#9b59b6" stroke="none"/>
  <circle cx="450.9734" cy="135.7" r="3" fill="#9b59b6" stroke="none"/>
  <circle cx="367.3" cy="52.0266" r="3" fill="#9b59b6" stroke="none"/>
  <circle cx="253" cy="21.4" r="3" fill="#9b59b6" stroke="none"/>
  <circle cx="138.7" cy="52.0266" r="3" fill="#9b59b6" stroke="none"/>
  <circle cx="55.0266" cy="135.7" r="3" fill="#9b59b6" stroke="none"/>
  <circle cx="24.4" cy="250" r="3" fill="#9b59b6" stroke="none"/>
  <circle cx="55.0266" cy="364.3" r="3" fill="#9b59b6" stroke="none"/>
  <circle cx="138.7" cy="447.9734" r="3" fill="#9b59b6" stroke="none"/>
  <circle cx="253" cy="478.6" r="3" fill="#9b59b6" stroke="none"/>
  <circle cx="367.3" cy="447.9734" r="3" fill="#9b59b6" stroke="none"/>
  <circle cx="450.9734" cy="364.3" r="3" fill="#9b59b6" stroke="none"/>
  <text x="489.6" y="254" font-size="10" fill="#9b59b6">12D W9 crown</text>
</g>
  <line x1="223.7474" y1="344.4268" x2="342.7432" y2="334.9973" stroke="#8B4513" stroke-width="1.2"/>
  <line x1="223.7474" y1="344.4268" x2="223.7474" y2="182.338" stroke="#DC143C" stroke-width="1.2"/>
  <line x1="223.7474" y1="344.4268" x2="223.7474" y2="317.662" stroke="#4169E1" stroke-width="1.2"/>
  <line x1="223.7474" y1="344.4268" x2="170.1295" y2="328.488" stroke="#228B22" stroke-width="1.2"/>
  <line x1="342.7432" y1="334.9973" x2="342.7432" y2="189.0948" stroke="#DC143C" stroke-width="1.2"/>
  <line x1="342.7432" y1="334.9973" x2="342.7432" y2="310.9052" stroke="#4169E1" stroke-width="1.2"/>
  <line x1="342.7432" y1="334.9973" x2="275.262" y2="321.8614" stroke="#228B22" stroke-width="1.2"/>
  <line x1="223.7474" y1="182.338" x2="342.7432" y2="189.0948" stroke="#8B4513" stroke-width="1.2"/>
  <line x1="223.7474" y1="182.338" x2="223.7474" y2="155.5732" stroke="#4169E1" stroke-width="1.2"/>
  <line x1="223.7474" y1="182.338" x2="170.1295" y2="193.759" stroke="#228B22" stroke-width="1.2"/>
  <line x1="342.7432" y1="189.0948" x2="342.7432" y2="165.0027" stroke="#4169E1" stroke-width="1.2"/>
  <line x1="342.7432" y1="189.0948" x2="275.262" y2="198.5074" stroke="#228B22" stroke-width="1.2"/>
  <line x1="223.7474" y1="317.662" x2="342.7432" y2="310.9052" stroke="#8B4513" stroke-width="1.2"/>
  <line x1="223.7474" y1="317.662" x2="223.7474" y2="155.5732" stroke="#DC143C" stroke-width="1.2"/>
  <line x1="223.7474" y1="317.662" x2="170.1295" y2="306.241" stroke="#228B22" stroke-width="1.2"/>
  <line x1="342.7432" y1="310.9052" x2="342.7432" y2="165.0027" stroke="#DC143C" stroke-width="1.2"/>
  <line x1="342.7432" y1="310.9052" x2="275.262" y2="301.4926" stroke="#228B22" stroke-width="1.2"/>
  <line x1="223.7474" y1="155.5732" x2="342.7432" y2="165.0027" stroke="#8B4513" stroke-width="1.2"/>
  <line x1="223.7474" y1="155.5732" x2="170.1295" y2="171.512" stroke="#228B22" stroke-width="1.2"/>
  <line x1="342.7432" y1="165.0027" x2="275.262" y2="178.1386" stroke="#228B22" stroke-width="1.2"/>
  <line x1="170.1295" y1="328.488" x2="275.262" y2="321.8614" stroke="#8B4513" stroke-width="1.2"/>
  <line x1="170.1295" y1="328.488" x2="170.1295" y2="193.759" stroke="#DC143C" stroke-width="1.2"/>
  <line x1="170.1295" y1="328.488" x2="170.1295" y2="306.241" stroke="#4169E1" stroke-width="1.2"/>
  <line x1="275.262" y1="321.8614" x2="275.262" y2="198.5074" stroke="#DC143C" stroke-width="1.2"/>
  <line x1="275.262" y1="321.8614" x2="275.262" y2="301.4926" stroke="#4169E1" stroke-width="1.2"/>
  <line x1="170.1295" y1="193.759" x2="275.262" y2="198.5074" stroke="#8B4513" stroke-width="1.2"/>
  <line x1="170.1295" y1="193.759" x2="170.1295" y2="171.512" stroke="#4169E1" stroke-width="1.2"/>
  <line x1="275.262" y1="198.5074" x2="275.262" y2="178.1386" stroke="#4169E1" stroke-width="1.2"/>
  <line x1="170.1295" y1="306.241" x2="275.262" y2="301.4926" stroke="#8B4513" stroke-width="1.2"/>
  <line x1="170.1295" y1="306.241" x2="170.1295" y2="171.512" stroke="#DC143C" stroke-width="1.2"/>
  <line x1="275.262" y1="301.4926" x2="275.262" y2="178.1386" stroke="#DC143C" stroke-width="1.2"/>
  <line x1="170.1295" y1="171.512" x2="275.262" y2="178.1386" stroke="#8B4513" stroke-width="1.2"/>
  <circle cx="223.7474" cy="344.4268" r="3" fill="#8B4513" stroke="#333" stroke-width="0.5"/>
  <circle cx="342.7432" cy="334.9973" r="3" fill="#DC143C" stroke="#333" stroke-width="0.5"/>
  <circle cx="223.7474" cy="182.338" r="3" fill="#DC143C" stroke="#333" stroke-width="0.5"/>
  <circle cx="342.7432" cy="189.0948" r="3" fill="#4169E1" stroke="#333" stroke-width="0.5"/>
  <circle cx="223.7474" cy="317.662" r="3" fill="#DC143C" stroke="#333" stroke-width="0.5"/>
  <circle cx="342.7432" cy="310.9052" r="3" fill="#4169E1" stroke="#333" stroke-width="0.5"/>
  <circle cx="223.7474" cy="155.5732" r="3" fill="#4169E1" stroke="#333" stroke-width="0.5"/>
  <circle cx="342.7432" cy="165.0027" r="3" fill="#228B22" stroke="#333" stroke-width="0.5"/>
  <circle cx="170.1295" cy="328.488" r="3" fill="#DC143C" stroke="#333" stroke-width="0.5"/>
  <circle cx="275.262" cy="321.8614" r="3" fill="#4169E1" stroke="#333" stroke-width="0.5"/>
  <circle cx="170.1295" cy="193.759" r="3" fill="#4169E1" stroke="#333" stroke-width="0.5"/>
  <circle cx="275.262" cy="198.5074" r="3" fill="#228B22" stroke="#333" stroke-width="0.5"/>
  <circle cx="170.1295" cy="306.241" r="3" fill="#4169E1" stroke="#333" stroke-width="0.5"/>
  <circle cx="275.262" cy="301.4926" r="3" fill="#228B22" stroke="#333" stroke-width="0.5"/>
  <circle cx="170.1295" cy="171.512" r="3" fill="#228B22" stroke="#333" stroke-width="0.5"/>
  <circle cx="275.262" cy="178.1386" r="3" fill="#8B4513" stroke="#333" stroke-width="0.5"/>
  <g>
  <polyline points="325.19,239.294 321.6836,235.6277 317.0471,232.1995 311.3463,229.0689 304.6617,226.2925 297.087,223.9221 288.7292,222.0048 279.7075,220.5824 270.152,219.6902 260.2028,219.3565 250.0088,219.6026 239.7258,220.4411 229.5148,221.8764 219.54,223.9035 209.9665,226.508 200.9582,229.6657 192.6745,233.3425 185.2683,237.4945 178.8825,242.068 173.6476,247.0003 169.6785,252.2199 167.0721,257.6479 165.9042,263.1983 166.2277,268.7801 168.0706,274.2979 171.4339,279.6544 176.2911,284.7516 182.5873,289.4926 190.2394,293.7842 199.1366,297.5381 209.1419,300.6735 220.0937,303.1183 231.8088,304.8116 244.0851,305.7049 256.7052,305.7632 269.4412,304.9666 282.0583,303.311 294.3202,300.8082 305.9936,297.4865 316.8538,293.39 326.6886,288.5785 335.304,283.1258 342.5279,277.1194 348.2144,270.6577 352.2469,263.8489 354.5409,256.8087 355.0464,249.6577 353.7486,242.5188 350.6688,235.5154" stroke="#9b59b6" stroke-width="0.5" fill="none" stroke-opacity="0.6"/>
  <polyline points="329.4365,238.6642 325.7136,234.4844 320.7767,230.5648 314.7012,226.9732 307.5795,223.7728 299.5199,221.0215 290.6452,218.7706 281.0913,217.0647 271.0055,215.9401 260.5449,215.425 249.8742,215.5384 239.1634,216.2897 228.5859,217.6785 218.3158,219.694 208.5251,222.3153 199.3811,225.5112 191.0441,229.2401 183.664,233.4511 177.378,238.0836 172.3077,243.0686 168.5567,248.3297 166.2086,253.7835 165.3244,259.3415 165.9412,264.911 168.0706,270.3971 171.698,275.7037 176.7821,280.7359 183.2546,285.4012 191.0212,289.6117 199.9624,293.2853 209.9355,296.3482 220.7762,298.7358 232.3017,300.3944 244.3137,301.2825 256.6019,301.3721 268.948,300.6488 281.1294,299.1131 292.9243,296.7805 304.1151,293.681 314.4935,289.8593 323.8646,285.3738 332.0509,280.2958 338.8957,274.708 344.267,268.7033 348.0602,262.3829 350.2001,255.8542 350.6427,249.2292 349.3764,242.6216 346.4224,236.1451" stroke="#9b59b6" stroke-width="0.5" fill="none" stroke-opacity="0.6"/>
  <polyline points="333.6829,238.0344 329.7436,233.3411 324.5063,228.9301 318.056,224.8774 310.4973,221.2531 301.9529,218.1209 292.5612,215.5364 282.4751,213.5469 271.8591,212.1901 260.887,211.4936 249.7395,211.4743 238.601,212.1384 227.6571,213.4806 217.0917,215.4845 207.0836,218.1227 197.8041,221.3566 189.4137,225.1378 182.0598,229.4077 175.8734,234.0992 170.9677,239.137 167.4349,244.4395 165.3451,249.9191 164.7446,255.4846 165.6546,261.042 168.0706,266.4962 171.9622,271.753 177.2731,276.7202 183.9219,281.3098 191.803,285.4391 200.7883,289.0325 210.7291,292.023 221.4586,294.3533 232.7945,295.9772 244.5423,296.8602 256.4986,296.9809 268.4547,296.3309 280.2006,294.9152 291.5284,292.7527 302.2365,289.8755 312.1333,286.3286 321.0407,282.1692 328.7977,277.4657 335.2634,272.2966 340.3196,266.7489 343.8736,260.9168 345.8592,254.8998 346.2389,248.8007 345.0042,242.7243 342.1759,236.7749" stroke="#9b59b6" stroke-width="0.5" fill="none" stroke-opacity="0.6"/>
  <polyline points="337.9294,237.4047 333.7737,232.1977 328.2359,227.2954 321.4108,222.7816 313.4152,218.7334 304.3858,215.2203 294.4772,212.3022 283.859,210.0292 272.7127,208.4401 261.2292,207.5621 249.6048,207.4102 238.0385,207.987 226.7283,209.2827 215.8675,211.275 205.6421,213.93 196.227,217.2021 187.7833,221.0354 180.4555,225.3643 174.3689,230.1148 169.6277,235.2054 166.3131,240.5492 164.4817,246.0547 164.1649,251.6277 165.368,257.1729 168.0706,262.5953 172.2263,267.8023 177.7641,272.7046 184.5892,277.2184 192.5848,281.2666 201.6142,284.7797 211.5228,287.6978 222.141,289.9708 233.2873,291.5599 244.7708,292.4379 256.3952,292.5898 267.9615,292.013 279.2717,290.7173 290.1325,288.725 300.3579,286.07 309.773,282.7979 318.2167,278.9646 325.5445,274.6357 331.6311,269.8852 336.3723,264.7946 339.6869,259.4508 341.5183,253.9453 341.8351,248.3723 340.632,242.8271 337.9294,237.4047" stroke="#9b59b6" stroke-width="0.5" fill="none" stroke-opacity="0.6"/>
  <polyline points="342.1759,236.7749 337.8037,231.0544 331.9655,225.6607 324.7656,220.6858 316.333,216.2138 306.8187,212.3197 296.3932,209.068 285.2428,206.5115 273.5663,204.6901 261.5713,203.6306 249.4701,203.346 237.4761,203.8356 225.7994,205.0848 214.6433,207.0656 204.2006,209.7373 194.6499,213.0476 186.1529,216.9331 178.8512,221.321 172.8644,226.1303 168.2878,231.2738 165.1913,236.659 163.6182,242.1904 163.5851,247.7709 165.0814,253.3039 168.0706,258.6945 172.4905,263.8516 178.2551,268.6889 185.2565,273.127 193.3667,277.094 202.4401,280.5269 212.3164,283.3725 222.8235,285.5883 233.7801,287.1427 244.9994,288.0156 256.2919,288.1987 267.4682,287.6951 278.3429,286.5194 288.7366,284.6972 298.4793,282.2645 307.4128,279.2672 315.3927,275.7599 322.2914,271.8056 327.9988,267.4739 332.4249,262.8402 335.5002,257.9847 337.1774,252.9908 337.4314,247.9438 336.2598,242.9298 333.6829,238.0344" stroke="#9b59b6" stroke-width="0.5" fill="none" stroke-opacity="0.6"/>
  <polyline points="346.4224,236.1451 341.8338,229.9111 335.6951,224.026 328.1204,218.59 319.2508,213.6941 309.2517,209.4191 298.3092,205.8338 286.6266,202.9937 274.4199,200.94 261.9134,199.6991 249.3354,199.2819 236.9137,199.6843 224.8706,200.8869 213.4192,202.8561 202.7591,205.5447 193.0729,208.8931 184.5225,212.8307 177.2469,217.2776 171.3598,222.1459 166.9478,227.3422 164.0695,232.7687 162.7548,238.326 163.0053,243.914 164.7949,249.4348 168.0706,254.7936 172.7546,259.9008 178.7461,264.6733 185.9238,269.0356 194.1485,272.9214 203.2659,276.2741 213.11,279.0473 223.5059,281.2058 234.2729,282.7254 245.228,283.5933 256.1885,283.8076 266.975,283.3773 277.4141,282.3215 287.3407,280.6694 296.6008,278.459 305.0525,275.7364 312.5688,272.5553 319.0382,268.9756 324.3665,265.0625 328.4775,260.8859 331.3136,256.5187 332.8366,252.0363 333.0276,247.5153 331.8875,243.0326 329.4365,238.6642" stroke="#9b59b6" stroke-width="0.5" fill="none" stroke-opacity="0.6"/>
  <polyline points="325.19,239.294 329.4365,238.6642 333.6829,238.0344 337.9294,237.4047 342.1759,236.7749 346.4224,236.1451" stroke="#999" stroke-width="0.5" fill="none" stroke-opacity="0.6"/>
  <polyline points="304.6617,226.2925 307.5795,223.7728 310.4973,221.2531 313.4152,218.7334 316.333,216.2138 319.2508,213.6941" stroke="#999" stroke-width="0.5" fill="none" stroke-opacity="0.6"/>
  <polyline points="270.152,219.6902 271.0055,215.9401 271.8591,212.1901 272.7127,208.4401 273.5663,204.6901 274.4199,200.94" stroke="#999" stroke-width="0.5" fill="none" stroke-opacity="0.6"/>
  <polyline points="229.5148,221.8764 228.5859,217.6785 227.6571,213.4806 226.7283,209.2827 225.7994,205.0848 224.8706,200.8869" stroke="#999" stroke-width="0.5" fill="none" stroke-opacity="0.6"/>
  <polyline points="192.6745,233.3425 191.0441,229.2401 189.4137,225.1378 187.7833,221.0354 186.1529,216.9331 184.5225,212.8307" stroke="#999" stroke-width="0.5" fill="none" stroke-opacity="0.6"/>
  <polyline points="169.6785,252.2199 168.5567,248.3297 167.4349,244.4395 166.3131,240.5492 165.1913,236.659 164.0695,232.7687" stroke="#999" stroke-width="0.5" fill="none" stroke-opacity="0.6"/>
  <polyline points="168.0706,274.2979 168.0706,270.3971 168.0706,266.4962 168.0706,262.5953 168.0706,258.6945 168.0706,254.7936" stroke="#999" stroke-width="0.5" fill="none" stroke-opacity="0.6"/>
  <polyline points="190.2394,293.7842 191.0212,289.6117 191.803,285.4391 192.5848,281.2666 193.3667,277.094 194.1485,272.9214" stroke="#999" stroke-width="0.5" fill="none" stroke-opacity="0.6"/>
  <polyline points="231.8088,304.8116 232.3017,300.3944 232.7945,295.9772 233.2873,291.5599 233.7801,287.1427 234.2729,282.7254" stroke="#999" stroke-width="0.5" fill="none" stroke-opacity="0.6"/>
  <polyline points="282.0583,303.311 281.1294,299.1131 280.2006,294.9152 279.2717,290.7173 278.3429,286.5194 277.4141,282.3215" stroke="#999" stroke-width="0.5" fill="none" stroke-opacity="0.6"/>
  <polyline points="326.6886,288.5785 323.8646,285.3738 321.0407,282.1692 318.2167,278.9646 315.3927,275.7599 312.5688,272.5553" stroke="#999" stroke-width="0.5" fill="none" stroke-opacity="0.6"/>
  <polyline points="352.2469,263.8489 348.0602,262.3829 343.8736,260.9168 339.6869,259.4508 335.5002,257.9847 331.3136,256.5187" stroke="#999" stroke-width="0.5" fill="none" stroke-opacity="0.6"/>
</g>
</g>
  <g>
  <g>
  <circle cx="269" cy="250" r="21.9113" stroke="#e74c3c" stroke-width="2" fill="#e74c3c" fill-opacity="0.08"/>
  <circle cx="290.9113" cy="250" r="3" fill="#e74c3c" stroke="none"/>
  <circle cx="258.0444" cy="231.0243" r="3" fill="#e74c3c" stroke="none"/>
  <circle cx="258.0444" cy="268.9757" r="3" fill="#e74c3c" stroke="none"/>
  <text x="298.9113" y="254" font-size="10" fill="#e74c3c">3D c3 seed</text>
  <circle cx="269" cy="250" r="35.4532" stroke="#e67e22" stroke-width="2" fill="#e67e22" fill-opacity="0.08"/>
  <circle cx="304.4532" cy="250" r="3" fill="#e67e22" stroke="none"/>
  <circle cx="269" cy="214.5468" r="3" fill="#e67e22" stroke="none"/>
  <circle cx="233.5468" cy="250" r="3" fill="#e67e22" stroke="none"/>
  <circle cx="269" cy="285.4532" r="3" fill="#e67e22" stroke="none"/>
  <text x="312.4532" y="254" font-size="10" fill="#e67e22">4D E4 base</text>
  <circle cx="269" cy="250" r="57.3645" stroke="#f1c40f" stroke-width="2" fill="#f1c40f" fill-opacity="0.08"/>
  <circle cx="326.3645" cy="250" r="3" fill="#f1c40f" stroke="none"/>
  <circle cx="297.6823" cy="200.3209" r="3" fill="#f1c40f" stroke="none"/>
  <circle cx="240.3177" cy="200.3209" r="3" fill="#f1c40f" stroke="none"/>
  <circle cx="211.6355" cy="250" r="3" fill="#f1c40f" stroke="none"/>
  <circle cx="240.3177" cy="299.6791" r="3" fill="#f1c40f" stroke="none"/>
  <circle cx="297.6823" cy="299.6791" r="3" fill="#f1c40f" stroke="none"/>
  <text x="334.3645" y="254" font-size="10" fill="#f1c40f">6D W3 Mobius</text>
  <circle cx="269" cy="250" r="92.8177" stroke="#2ecc71" stroke-width="2" fill="#2ecc71" fill-opacity="0.08"/>
  <circle cx="361.8177" cy="250" r="3" fill="#2ecc71" stroke="none"/>
  <circle cx="334.6321" cy="184.3679" r="3" fill="#2ecc71" stroke="none"/>
  <circle cx="269" cy="157.1823" r="3" fill="#2ecc71" stroke="none"/>
  <circle cx="203.3679" cy="184.3679" r="3" fill="#2ecc71" stroke="none"/>
  <circle cx="176.1823" cy="250" r="3" fill="#2ecc71" stroke="none"/>
  <circle cx="203.3679" cy="315.6321" r="3" fill="#2ecc71" stroke="none"/>
  <circle cx="269" cy="342.8177" r="3" fill="#2ecc71" stroke="none"/>
  <circle cx="334.6321" cy="315.6321" r="3" fill="#2ecc71" stroke="none"/>
  <text x="369.8177" y="254" font-size="10" fill="#2ecc71">8D W5 penta</text>
  <circle cx="269" cy="250" r="150.1823" stroke="#3498db" stroke-width="2" fill="#3498db" fill-opacity="0.08"/>
  <circle cx="419.1823" cy="250" r="3" fill="#3498db" stroke="none"/>
  <circle cx="390.5" cy="161.7251" r="3" fill="#3498db" stroke="none"/>
  <circle cx="315.4089" cy="107.1682" r="3" fill="#3498db" stroke="none"/>
  <circle cx="222.5911" cy="107.1682" r="3" fill="#3498db" stroke="none"/>
  <circle cx="147.5" cy="161.7251" r="3" fill="#3498db" stroke="none"/>
  <circle cx="118.8177" cy="250" r="3" fill="#3498db" stroke="none"/>
  <circle cx="147.5" cy="338.2749" r="3" fill="#3498db" stroke="none"/>
  <circle cx="222.5911" cy="392.8318" r="3" fill="#3498db" stroke="none"/>
  <circle cx="315.4089" cy="392.8318" r="3" fill="#3498db" stroke="none"/>
  <circle cx="390.5" cy="338.2749" r="3" fill="#3498db" stroke="none"/>
  <text x="427.1823" y="254" font-size="10" fill="#3498db">10D W7 hepta</text>
  <circle cx="269" cy="250" r="243" stroke="#9b59b6" stroke-width="2" fill="#9b59b6" fill-opacity="0.08"/>
  <circle cx="512" cy="250" r="3" fill="#9b59b6" stroke="none"/>
  <circle cx="479.4442" cy="128.5" r="3" fill="#9b59b6" stroke="none"/>
  <circle cx="390.5" cy="39.5558" r="3" fill="#9b59b6" stroke="none"/>
  <circle cx="269" cy="7" r="3" fill="#9b59b6" stroke="none"/>
  <circle cx="147.5" cy="39.5558" r="3" fill="#9b59b6" stroke="none"/>
  <circle cx="58.5558" cy="128.5" r="3" fill="#9b59b6" stroke="none"/>
  <circle cx="26" cy="250" r="3" fill="#9b59b6" stroke="none"/>
  <circle cx="58.5558" cy="371.5" r="3" fill="#9b59b6" stroke="none"/>
  <circle cx="147.5" cy="460.4442" r="3" fill="#9b59b6" stroke="none"/>
  <circle cx="269" cy="493" r="3" fill="#9b59b6" stroke="none"/>
  <circle cx="390.5" cy="460.4442" r="3" fill="#9b59b6" stroke="none"/>
  <circle cx="479.4442" cy="371.5" r="3" fill="#9b59b6" stroke="none"/>
  <text x="520" y="254" font-size="10" fill="#9b59b6">12D W9 crown</text>
</g>
  <line x1="237.9048" y1="350.375" x2="364.3963" y2="340.3514" stroke="#8B4513" stroke-width="1.2"/>
  <line x1="237.9048" y1="350.375" x2="237.9048" y2="178.0758" stroke="#DC143C" stroke-width="1.2"/>
  <line x1="237.9048" y1="350.375" x2="237.9048" y2="321.9242" stroke="#4169E1" stroke-width="1.2"/>
  <line x1="237.9048" y1="350.375" x2="180.9093" y2="333.4321" stroke="#228B22" stroke-width="1.2"/>
  <line x1="364.3963" y1="340.3514" x2="364.3963" y2="185.2582" stroke="#DC143C" stroke-width="1.2"/>
  <line x1="364.3963" y1="340.3514" x2="364.3963" y2="314.7418" stroke="#4169E1" stroke-width="1.2"/>
  <line x1="364.3963" y1="340.3514" x2="292.6643" y2="326.3881" stroke="#228B22" stroke-width="1.2"/>
  <line x1="237.9048" y1="178.0758" x2="364.3963" y2="185.2582" stroke="#8B4513" stroke-width="1.2"/>
  <line x1="237.9048" y1="178.0758" x2="237.9048" y2="149.625" stroke="#4169E1" stroke-width="1.2"/>
  <line x1="237.9048" y1="178.0758" x2="180.9093" y2="190.2163" stroke="#228B22" stroke-width="1.2"/>
  <line x1="364.3963" y1="185.2582" x2="364.3963" y2="159.6486" stroke="#4169E1" stroke-width="1.2"/>
  <line x1="364.3963" y1="185.2582" x2="292.6643" y2="195.2637" stroke="#228B22" stroke-width="1.2"/>
  <line x1="237.9048" y1="321.9242" x2="364.3963" y2="314.7418" stroke="#8B4513" stroke-width="1.2"/>
  <line x1="237.9048" y1="321.9242" x2="237.9048" y2="149.625" stroke="#DC143C" stroke-width="1.2"/>
  <line x1="237.9048" y1="321.9242" x2="180.9093" y2="309.7837" stroke="#228B22" stroke-width="1.2"/>
  <line x1="364.3963" y1="314.7418" x2="364.3963" y2="159.6486" stroke="#DC143C" stroke-width="1.2"/>
  <line x1="364.3963" y1="314.7418" x2="292.6643" y2="304.7363" stroke="#228B22" stroke-width="1.2"/>
  <line x1="237.9048" y1="149.625" x2="364.3963" y2="159.6486" stroke="#8B4513" stroke-width="1.2"/>
  <line x1="237.9048" y1="149.625" x2="180.9093" y2="166.5679" stroke="#228B22" stroke-width="1.2"/>
  <line x1="364.3963" y1="159.6486" x2="292.6643" y2="173.6119" stroke="#228B22" stroke-width="1.2"/>
  <line x1="180.9093" y1="333.4321" x2="292.6643" y2="326.3881" stroke="#8B4513" stroke-width="1.2"/>
  <line x1="180.9093" y1="333.4321" x2="180.9093" y2="190.2163" stroke="#DC143C" stroke-width="1.2"/>
  <line x1="180.9093" y1="333.4321" x2="180.9093" y2="309.7837" stroke="#4169E1" stroke-width="1.2"/>
  <line x1="292.6643" y1="326.3881" x2="292.6643" y2="195.2637" stroke="#DC143C" stroke-width="1.2"/>
  <line x1="292.6643" y1="326.3881" x2="292.6643" y2="304.7363" stroke="#4169E1" stroke-width="1.2"/>
  <line x1="180.9093" y1="190.2163" x2="292.6643" y2="195.2637" stroke="#8B4513" stroke-width="1.2"/>
  <line x1="180.9093" y1="190.2163" x2="180.9093" y2="166.5679" stroke="#4169E1" stroke-width="1.2"/>
  <line x1="292.6643" y1="195.2637" x2="292.6643" y2="173.6119" stroke="#4169E1" stroke-width="1.2"/>
  <line x1="180.9093" y1="309.7837" x2="292.6643" y2="304.7363" stroke="#8B4513" stroke-width="1.2"/>
  <line x1="180.9093" y1="309.7837" x2="180.9093" y2="166.5679" stroke="#DC143C" stroke-width="1.2"/>
  <line x1="292.6643" y1="304.7363" x2="292.6643" y2="173.6119" stroke="#DC143C" stroke-width="1.2"/>
  <line x1="180.9093" y1="166.5679" x2="292.6643" y2="173.6119" stroke="#8B4513" stroke-width="1.2"/>
  <circle cx="237.9048" cy="350.375" r="3" fill="#8B4513" stroke="#333" stroke-width="0.5"/>
  <circle cx="364.3963" cy="340.3514" r="3" fill="#DC143C" stroke="#333" stroke-width="0.5"/>
  <circle cx="237.9048" cy="178.0758" r="3" fill="#DC143C" stroke="#333" stroke-width="0.5"/>
  <circle cx="364.3963" cy="185.2582" r="3" fill="#4169E1" stroke="#333" stroke-width="0.5"/>
  <circle cx="237.9048" cy="321.9242" r="3" fill="#DC143C" stroke="#333" stroke-width="0.5"/>
  <circle cx="364.3963" cy="314.7418" r="3" fill="#4169E1" stroke="#333" stroke-width="0.5"/>
  <circle cx="237.9048" cy="149.625" r="3" fill="#4169E1" stroke="#333" stroke-width="0.5"/>
  <circle cx="364.3963" cy="159.6486" r="3" fill="#228B22" stroke="#333" stroke-width="0.5"/>
  <circle cx="180.9093" cy="333.4321" r="3" fill="#DC143C" stroke="#333" stroke-width="0.5"/>
  <circle cx="292.6643" cy="326.3881" r="3" fill="#4169E1" stroke="#333" stroke-width="0.5"/>
  <circle cx="180.9093" cy="190.2163" r="3" fill="#4169E1" stroke="#333" stroke-width="0.5"/>
  <circle cx="292.6643" cy="195.2637" r="3" fill="#228B22" stroke="#333" stroke-width="0.5"/>
  <circle cx="180.9093" cy="309.7837" r="3" fill="#4169E1" stroke="#333" stroke-width="0.5"/>
  <circle cx="292.6643" cy="304.7363" r="3" fill="#228B22" stroke="#333" stroke-width="0.5"/>
  <circle cx="180.9093" cy="166.5679" r="3" fill="#228B22" stroke="#333" stroke-width="0.5"/>
  <circle cx="292.6643" cy="173.6119" r="3" fill="#8B4513" stroke="#333" stroke-width="0.5"/>
  <g>
  <polyline points="345.7374,238.6196 342.0101,234.7224 337.0815,231.0782 331.0217,227.7505 323.916,224.7991 315.8641,222.2794 306.9799,220.2414 297.3898,218.7294 287.2324,217.7809 276.6565,217.4262 265.8204,217.6878 254.8897,218.5791 244.0354,220.1048 233.4323,222.2596 223.2558,225.0282 213.68,228.3848 204.8745,232.2932 197.0018,236.7067 190.2137,241.5683 184.649,246.8113 180.4299,252.3598 177.6593,258.1296 176.4178,264.0297 176.7618,269.963 178.7207,275.8285 182.2959,281.5224 187.459,286.9406 194.1518,291.9804 202.2859,296.5423 211.7436,300.5327 222.3792,303.8655 234.0209,306.4643 246.474,308.2643 259.5235,309.2138 272.9386,309.2758 286.4769,308.4291 299.8887,306.6692 312.923,304.0088 325.3318,300.4778 336.876,296.1233 347.3304,291.0086 356.4885,285.2125 364.1675,278.8277 370.2122,271.9589 374.4986,264.7213 376.9372,257.2376 377.4745,249.6361 376.095,242.0476 372.8212,234.6029" stroke="#9b59b6" stroke-width="0.5" fill="none" stroke-opacity="0.6"/>
  <polyline points="350.2514,237.9501 346.294,233.507 341.0461,229.3405 334.5878,225.5226 327.0176,222.1207 318.4503,219.1961 309.0166,216.8034 298.8608,214.99 288.1397,213.7946 277.0202,213.2471 265.6772,213.3676 254.2918,214.1662 243.0481,215.6425 232.131,217.7849 221.7235,220.5714 212.0036,223.9686 203.1414,227.9324 195.2964,232.4086 188.6144,237.3329 183.2247,242.632 179.2375,248.2245 176.7414,254.0218 175.8015,259.9299 176.4571,265.8503 178.7207,271.6819 182.5767,277.3228 187.981,282.672 194.8612,287.6312 203.117,292.1069 212.6215,296.012 223.2228,299.2678 234.7463,301.8058 246.9978,303.5688 259.7665,304.5129 272.8288,304.6081 285.9525,303.8392 298.9014,302.2069 311.4392,299.7273 323.3349,296.4326 334.3671,292.3701 344.3286,287.6021 353.0304,282.2042 360.3064,276.2644 366.0161,269.8815 370.0483,263.1629 372.3229,256.223 372.7934,249.1806 371.4474,242.1568 368.3072,235.2724" stroke="#9b59b6" stroke-width="0.5" fill="none" stroke-opacity="0.6"/>
  <polyline points="354.7653,237.2807 350.5779,232.2917 345.0106,227.6029 338.154,223.2948 330.1192,219.4423 321.0365,216.1128 311.0533,213.3655 300.3318,211.2507 289.0471,209.8084 277.3839,209.068 265.5341,209.0475 253.6939,209.7534 242.0607,211.1801 230.8297,213.3103 220.1912,216.1146 210.3272,219.5523 201.4083,223.5717 193.5911,228.1106 187.0151,233.0975 181.8003,238.4528 178.045,244.0892 175.8236,249.914 175.1852,255.8301 176.1525,261.7375 178.7207,267.5353 182.8574,273.1233 188.5029,278.4034 195.5705,283.2821 203.9481,287.6715 213.4994,291.4913 224.0664,294.6701 235.4717,297.1472 247.5217,298.8734 260.0095,299.8121 272.7189,299.9404 285.4282,299.2494 297.914,297.7445 309.9554,295.4458 321.338,292.3874 331.8582,288.617 341.3267,284.1956 349.5723,279.1959 356.4453,273.7011 361.8201,267.804 365.5979,261.6045 367.7086,255.2084 368.1122,248.7252 366.7997,242.266 363.7933,235.9418" stroke="#9b59b6" stroke-width="0.5" fill="none" stroke-opacity="0.6"/>
  <polyline points="359.2793,236.6112 354.8618,231.0763 348.9752,225.8652 341.7201,221.067 333.2208,216.7639 323.6227,213.0295 313.09,209.9276 301.8028,207.5114 289.9545,205.8221 277.7475,204.8888 265.3909,204.7273 253.0961,205.3405 241.0733,206.7178 229.5284,208.8357 218.6589,211.6579 208.6507,215.1361 199.6752,219.2109 191.8857,223.8125 185.4158,228.8621 180.3759,234.2735 176.8525,239.9539 174.9057,245.8062 174.5689,251.7303 175.8479,257.6248 178.7207,263.3888 183.1382,268.9237 189.0248,274.1348 196.2799,278.933 204.7792,283.2361 214.3773,286.9705 224.91,290.0724 236.1972,292.4886 248.0455,294.1779 260.2525,295.1112 272.6091,295.2727 284.9039,294.6595 296.9267,293.2822 308.4716,291.1643 319.3411,288.3421 329.3493,284.8639 338.3248,280.7891 346.1143,276.1875 352.5842,271.1379 357.6241,265.7265 361.1475,260.0461 363.0943,254.1938 363.4311,248.2697 362.1521,242.3752 359.2793,236.6112" stroke="#9b59b6" stroke-width="0.5" fill="none" stroke-opacity="0.6"/>
  <polyline points="363.7933,235.9418 359.1457,229.861 352.9397,224.1275 345.2863,218.8392 336.3225,214.0855 326.2089,209.9462 315.1267,206.4897 303.2738,203.772 290.8618,201.8359 278.1112,200.7097 265.2478,200.4072 252.4982,200.9276 240.086,202.2555 228.2272,204.361 217.1266,207.2011 206.9743,210.7199 197.942,214.8501 190.1804,219.5144 183.8165,224.6267 178.9516,230.0942 175.66,235.8186 173.9879,241.6984 173.9527,247.6305 175.5433,253.512 178.7207,259.2422 183.419,264.7241 189.5468,269.8662 196.9892,274.5838 205.6102,278.8007 215.2552,282.4498 225.7537,285.4747 236.9226,287.8301 248.5694,289.4824 260.4955,290.4103 272.4992,290.6049 284.3796,290.0696 295.9393,288.8199 306.9877,286.8829 317.3442,284.2969 326.8403,281.1108 335.323,277.3826 342.6562,273.1792 348.7231,268.5746 353.428,263.6491 356.6971,258.4877 358.48,253.1792 358.7499,247.8143 357.5045,242.4845 354.7653,237.2807" stroke="#9b59b6" stroke-width="0.5" fill="none" stroke-opacity="0.6"/>
  <polyline points="368.3072,235.2724 363.4296,228.6456 356.9042,222.3899 348.8524,216.6114 339.4241,211.4071 328.7951,206.8629 317.1634,203.0517 304.7448,200.0327 291.7692,197.8496 278.4749,196.5305 265.1046,196.0871 251.9003,196.5148 239.0986,197.7931 226.9259,199.8864 215.5943,202.7443 205.2979,206.3037 196.2089,210.4894 188.4751,215.2163 182.2171,220.3914 177.5272,225.9149 174.4676,231.6833 173.07,237.5906 173.3364,243.5307 175.2386,249.3992 178.7207,255.0956 183.6998,260.5245 190.0687,265.5976 197.6986,270.2347 206.4413,274.3653 216.1331,277.9291 226.5973,280.877 237.648,283.1715 249.0933,284.7869 260.7385,285.7094 272.3894,285.9372 283.8553,285.4798 294.9519,284.3575 305.5039,282.6014 315.3473,280.2517 324.3314,277.3576 332.3211,273.9761 339.1981,270.1709 344.8621,266.0113 349.232,261.5716 352.2467,256.9293 353.8656,252.1646 354.0687,247.3588 352.8568,242.5937 350.2514,237.9501" stroke="#9b59b6" stroke-width="0.5" fill="none" stroke-opacity="0.6"/>
  <polyline points="345.7374,238.6196 350.2514,237.9501 354.7653,237.2807 359.2793,236.6112 363.7933,235.9418 368.3072,235.2724" stroke="#999" stroke-width="0.5" fill="none" stroke-opacity="0.6"/>
  <polyline points="323.916,224.7991 327.0176,222.1207 330.1192,219.4423 333.2208,216.7639 336.3225,214.0855 339.4241,211.4071" stroke="#999" stroke-width="0.5" fill="none" stroke-opacity="0.6"/>
  <polyline points="287.2324,217.7809 288.1397,213.7946 289.0471,209.8084 289.9545,205.8221 290.8618,201.8359 291.7692,197.8496" stroke="#999" stroke-width="0.5" fill="none" stroke-opacity="0.6"/>
  <polyline points="244.0354,220.1048 243.0481,215.6425 242.0607,211.1801 241.0733,206.7178 240.086,202.2555 239.0986,197.7931" stroke="#999" stroke-width="0.5" fill="none" stroke-opacity="0.6"/>
  <polyline points="204.8745,232.2932 203.1414,227.9324 201.4083,223.5717 199.6752,219.2109 197.942,214.8501 196.2089,210.4894" stroke="#999" stroke-width="0.5" fill="none" stroke-opacity="0.6"/>
  <polyline points="180.4299,252.3598 179.2375,248.2245 178.045,244.0892 176.8525,239.9539 175.66,235.8186 174.4676,231.6833" stroke="#999" stroke-width="0.5" fill="none" stroke-opacity="0.6"/>
  <polyline points="178.7207,275.8285 178.7207,271.6819 178.7207,267.5353 178.7207,263.3888 178.7207,259.2422 178.7207,255.0956" stroke="#999" stroke-width="0.5" fill="none" stroke-opacity="0.6"/>
  <polyline points="202.2859,296.5423 203.117,292.1069 203.9481,287.6715 204.7792,283.2361 205.6102,278.8007 206.4413,274.3653" stroke="#999" stroke-width="0.5" fill="none" stroke-opacity="0.6"/>
  <polyline points="246.474,308.2643 246.9978,303.5688 247.5217,298.8734 248.0455,294.1779 248.5694,289.4824 249.0933,284.7869" stroke="#999" stroke-width="0.5" fill="none" stroke-opacity="0.6"/>
  <polyline points="299.8887,306.6692 298.9014,302.2069 297.914,297.7445 296.9267,293.2822 295.9393,288.8199 294.9519,284.3575" stroke="#999" stroke-width="0.5" fill="none" stroke-opacity="0.6"/>
  <polyline points="347.3304,291.0086 344.3286,287.6021 341.3267,284.1956 338.3248,280.7891 335.323,277.3826 332.3211,273.9761" stroke="#999" stroke-width="0.5" fill="none" stroke-opacity="0.6"/>
  <polyline points="374.4986,264.7213 370.0483,263.1629 365.5979,261.6045 361.1475,260.0461 356.6971,258.4877 352.2467,256.9293" stroke="#999" stroke-width="0.5" fill="none" stroke-opacity="0.6"/>
</g>
</g>
</svg>