<svg xmlns="http://www.w3.org/2000/svg" width="800" height="800" viewBox="0 0 800 800">
  <g>
  <circle cx="268" cy="498" r="103" fill="none" stroke="#333" stroke-width="0.8"/>
  <circle cx="371" cy="498" r="103" fill="none" stroke="#333" stroke-width="0.8"/>
  <circle cx="319.5" cy="587.2006" r="103" fill="none" stroke="#333" stroke-width="0.8"/>
  <circle cx="216.5" cy="587.2006" r="103" fill="none" stroke="#333" stroke-width="0.8"/>
  <circle cx="165" cy="498" r="103" fill="none" stroke="#333" stroke-width="0.8"/>
  <circle cx="216.5" cy="408.7994" r="103" fill="none" stroke="#333" stroke-width="0.8"/>
  <circle cx="319.5" cy="408.7994" r="103" fill="none" stroke="#333" stroke-width="0.8"/>
  <circle cx="474" cy="498" r="103" fill="none" stroke="#333" stroke-width="0.8"/>
  <circle cx="446.4012" cy="601" r="103" fill="none" stroke="#333" stroke-width="0.8"/>
  <circle cx="371" cy="676.4012" r="103" fill="none" stroke="#333" stroke-width="0.8"/>
  <circle cx="268" cy="704" r="103" fill="none" stroke="#333" stroke-width="0.8"/>
  <circle cx="165" cy="676.4012" r="103" fill="none" stroke="#333" stroke-width="0.8"/>
  <circle cx="89.5988" cy="601" r="103" fill="none" stroke="#333" stroke-width="0.8"/>
  <circle cx="62" cy="498" r="103" fill="none" stroke="#333" stroke-width="0.8"/>
  <circle cx="89.5988" cy="395" r="103" fill="none" stroke="#333" stroke-width="0.8"/>
  <circle cx="165" cy="319.5988" r="103" fill="none" stroke="#333" stroke-width="0.8"/>
  <circle cx="268" cy="292" r="103" fill="none" stroke="#333" stroke-width="0.8"/>
  <circle cx="371" cy="319.5988" r="103" fill="none" stroke="#333" stroke-width="0.8"/>
  <circle cx="446.4012" cy="395" r="103" fill="none" stroke="#333" stroke-width="0.8"/>
</g>
  <g opacity="0.30">
  <g>
  <circle cx="450" cy="437" r="185" fill="none" stroke="#333" stroke-width="1"/>
  <circle cx="450" cy="437" r="114.3363" fill="none" stroke="#333" stroke-width="1"/>
  <circle cx="450" cy="437" r="70.6637" fill="none" stroke="#333" stroke-width="1"/>
  <circle cx="450" cy="437" r="43.6726" fill="none" stroke="#333" stroke-width="1"/>
  <circle cx="450" cy="437" r="26.9911" fill="none" stroke="#333" stroke-width="1"/>
  <circle cx="450" cy="437" r="16.6814" fill="none" stroke="#333" stroke-width="1"/>
  <circle cx="450" cy="437" r="10.3097" fill="none" stroke="#333" stroke-width="1"/>
  <circle cx="450" cy="437" r="6.3717" fill="none" stroke="#333" stroke-width="1"/>
</g>
</g>
  <g>
  <polygon points="201.1746,787.3691 454.0492,765.8004 628.9652,706.964 484.1946,692.1699 219.8054,741.863" stroke="#333" stroke-width="1.2" fill="#8B4513" fill-opacity="0.3"/>
  <polygon points="201.1746,787.3691 454.0492,765.8004 454.0492,553.4147 201.1746,443.7219 44.8895,588.3136" stroke="#333" stroke-width="1.2" fill="#DC143C" fill-opacity="0.3"/>
  <polygon points="201.1746,787.3691 219.8054,741.863 75.0348,514.6832 -33.0692,419.7845 44.8895,588.3136" stroke="#333" stroke-width="1.2" fill="#4169E1" fill-opacity="0.3"/>
  <polygon points="201.1746,443.7219 44.8895,588.3136 -33.0692,419.7845 75.0348,171.036 219.8054,185.8301" stroke="#333" stroke-width="1.2" fill="#228B22" fill-opacity="0.3"/>
  <polygon points="201.1746,443.7219 454.0492,553.4147 628.9652,363.3168 484.1946,136.137 219.8054,185.8301" stroke="#333" stroke-width="1.2" fill="#8B4513" fill-opacity="0.3"/>
  <polygon points="75.0348,514.6832 219.8054,741.863 484.1946,692.1699 502.8254,434.2781 249.9508,324.5853" stroke="#333" stroke-width="1.2" fill="#DC143C" fill-opacity="0.3"/>
  <polygon points="75.0348,514.6832 -33.0692,419.7845 75.0348,171.036 249.9508,112.1996 249.9508,324.5853" stroke="#333" stroke-width="1.2" fill="#4169E1" fill-opacity="0.3"/>
  <polygon points="75.0348,171.036 219.8054,185.8301 484.1946,136.137 502.8254,90.6309 249.9508,112.1996" stroke="#333" stroke-width="1.2" fill="#228B22" fill-opacity="0.3"/>
  <polygon points="628.9652,706.964 454.0492,765.8004 454.0492,553.4147 628.9652,363.3168 737.0692,458.2155" stroke="#333" stroke-width="1.2" fill="#8B4513" fill-opacity="0.3"/>
  <polygon points="628.9652,706.964 484.1946,692.1699 502.8254,434.2781 659.1105,289.6864 737.0692,458.2155" stroke="#333" stroke-width="1.2" fill="#DC143C" fill-opacity="0.3"/>
  <polygon points="628.9652,363.3168 737.0692,458.2155 659.1105,289.6864 502.8254,90.6309 484.1946,136.137" stroke="#333" stroke-width="1.2" fill="#4169E1" fill-opacity="0.3"/>
  <polygon points="502.8254,434.2781 249.9508,324.5853 249.9508,112.1996 502.8254,90.6309 659.1105,289.6864" stroke="#333" stroke-width="1.2" fill="#228B22" fill-opacity="0.3"/>
  <line x1="201.1746" y1="787.3691" x2="454.0492" y2="765.8004" stroke="#333" stroke-width="1.2" fill="none"/>
  <line x1="201.1746" y1="787.3691" x2="219.8054" y2="741.863" stroke="#333" stroke-width="1.2" fill="none"/>
  <line x1="201.1746" y1="787.3691" x2="44.8895" y2="588.3136" stroke="#333" stroke-width="1.2" fill="none"/>
  <line x1="201.1746" y1="443.7219" x2="44.8895" y2="588.3136" stroke="#333" stroke-width="1.2" fill="none"/>
  <line x1="201.1746" y1="443.7219" x2="454.0492" y2="553.4147" stroke="#333" stroke-width="1.2" fill="none"/>
  <line x1="201.1746" y1="443.7219" x2="219.8054" y2="185.8301" stroke="#333" stroke-width="1.2" fill="none"/>
  <line x1="75.0348" y1="514.6832" x2="219.8054" y2="741.863" stroke="#333" stroke-width="1.2" fill="none"/>
  <line x1="75.0348" y1="514.6832" x2="-33.0692" y2="419.7845" stroke="#333" stroke-width="1.2" fill="none"/>
  <line x1="75.0348" y1="514.6832" x2="249.9508" y2="324.5853" stroke="#333" stroke-width="1.2" fill="none"/>
  <line x1="75.0348" y1="171.036" x2="219.8054" y2="185.8301" stroke="#333" stroke-width="1.2" fill="none"/>
  <line x1="75.0348" y1="171.036" x2="-33.0692" y2="419.7845" stroke="#333" stroke-width="1.2" fill="none"/>
  <line x1="75.0348" y1="171.036" x2="249.9508" y2="112.1996" stroke="#333" stroke-width="1.2" fill="none"/>
  <line x1="628.9652" y1="706.964" x2="454.0492" y2="765.8004" stroke="#333" stroke-width="1.2" fill="none"/>
  <line x1="628.9652" y1="706.964" x2="484.1946" y2="692.1699" stroke="#333" stroke-width="1.2" fill="none"/>
  <line x1="628.9652" y1="706.964" x2="737.0692" y2="458.2155" stroke="#333" stroke-width="1.2" fill="none"/>
  <line x1="628.9652" y1="363.3168" x2="454.0492" y2="553.4147" stroke="#333" stroke-width="1.2" fill="none"/>
  <line x1="628.9652" y1="363.3168" x2="737.0692" y2="458.2155" stroke="#333" stroke-width="1.2" fill="none"/>
  <line x1="628.9652" y1="363.3168" x2="484.1946" y2="136.137" stroke="#333" stroke-width="1.2" fill="none"/>
  <line x1="502.8254" y1="434.2781" x2="249.9508" y2="324.5853" stroke="#333" stroke-width="1.2" fill="none"/>
  <line x1="502.8254" y1="434.2781" x2="484.1946" y2="692.1699" stroke="#333" stroke-width="1.2" fill="none"/>
  <line x1="502.8254" y1="434.2781" x2="659.1105" y2="289.6864" stroke="#333" stroke-width="1.2" fill="none"/>
  <line x1="502.8254" y1="90.6309" x2="249.9508" y2="112.1996" stroke="#333" stroke-width="1.2" fill="none"/>
  <line x1="502.8254" y1="90.6309" x2="484.1946" y2="136.137" stroke="#333" stroke-width="1.2" fill="none"/>
  <line x1="502.8254" y1="90.6309" x2="659.1105" y2="289.6864" stroke="#333" stroke-width="1.2" fill="none"/>
  <line x1="454.0492" y1="765.8004" x2="454.0492" y2="553.4147" stroke="#333" stroke-width="1.2" fill="none"/>
  <line x1="219.8054" y1="741.863" x2="484.1946" y2="692.1699" stroke="#333" stroke-width="1.2" fill="none"/>
  <line x1="44.8895" y1="588.3136" x2="-33.0692" y2="419.7845" stroke="#333" stroke-width="1.2" fill="none"/>
  <line x1="219.8054" y1="185.8301" x2="484.1946" y2="136.137" stroke="#333" stroke-width="1.2" fill="none"/>
  <line x1="249.9508" y1="324.5853" x2="249.9508" y2="112.1996" stroke="#333" stroke-width="1.2" fill="none"/>
  <line x1="737.0692" y1="458.2155" x2="659.1105" y2="289.6864" stroke="#333" stroke-width="1.2" fill="none"/>
  <circle cx="201.1746" cy="787.3691" r="6.69" fill="#333" stroke="none"/>
  <circle cx="201.1746" cy="443.7219" r="6.69" fill="#333" stroke="none"/>
  <circle cx="75.0348" cy="514.6832" r="6.69" fill="#333" stroke="none"/>
  <circle cx="75.0348" cy="171.036" r="6.69" fill="#333" stroke="none"/>
  <circle cx="628.9652" cy="706.964" r="6.69" fill="#333" stroke="none"/>
  <circle cx="628.9652" cy="363.3168" r="6.69" fill="#333" stroke="none"/>
  <circle cx="502.8254" cy="434.2781" r="6.69" fill="#333" stroke="none"/>
  <circle cx="502.8254" cy="90.6309" r="6.69" fill="#333" stroke="none"/>
  <circle cx="454.0492" cy="765.8004" r="6.69" fill="#333" stroke="none"/>
  <circle cx="219.8054" cy="741.863" r="6.69" fill="#333" stroke="none"/>
  <circle cx="44.8895" cy="588.3136" r="6.69" fill="#333" stroke="none"/>
  <circle cx="454.0492" cy="553.4147" r="6.69" fill="#333" stroke="none"/>
  <circle cx="219.8054" cy="185.8301" r="6.69" fill="#333" stroke="none"/>
  <circle cx="-33.0692" cy="419.7845" r="6.69" fill="#333" stroke="none"/>
  <circle cx="249.9508" cy="324.5853" r="6.69" fill="#333" stroke="none"/>
  <circle cx="484.1946" cy="692.1699" r="6.69" fill="#333" stroke="none"/>
  <circle cx="737.0692" cy="458.2155" r="6.69" fill="#333" stroke="none"/>
  <circle cx="249.9508" cy="112.1996" r="6.69" fill="#333" stroke="none"/>
  <circle cx="484.1946" cy="136.137" r="6.69" fill="#333" stroke="none"/>
  <circle cx="659.1105" cy="289.6864" r="6.69" fill="#333" stroke="none"/>
</g>
  <g>
  <line x1="275" y1="500" x2="274.6497" y2="315.0003" stroke="#333" stroke-width="1.5"/>
  <g>
  <line x1="274.6497" y1="315.0003" x2="217.2941" y2="216.0906" stroke="#333" stroke-width="1.5"/>
  <g>
  <line x1="217.2941" y1="216.0906" x2="156.0308" y2="180.8747" stroke="#333" stroke-width="1.5"/>
  <g>
  <line x1="156.0308" y1="180.8747" x2="112.3583" y2="180.9574" stroke="#333" stroke-width="1.5"/>
  <g>
  <line x1="112.3583" y1="180.9574" x2="89.0089" y2="194.4972" stroke="#333" stroke-width="1.5"/>
  <g>
  <line x1="89.0089" y1="194.4972" x2="80.6955" y2="208.9596" stroke="#333" stroke-width="1.5"/>
  <g>
  <line x1="80.6955" y1="208.9596" x2="80.715" y2="219.2692" stroke="#333" stroke-width="1.5"/>
</g>
  <g>
  <line x1="80.6955" y1="208.9596" x2="71.7768" y2="214.1313" stroke="#333" stroke-width="1.5"/>
</g>
</g>
  <g>
  <line x1="89.0089" y1="194.4972" x2="72.3274" y2="194.5288" stroke="#333" stroke-width="1.5"/>
  <g>
  <line x1="72.3274" y1="194.5288" x2="63.4088" y2="199.7006" stroke="#333" stroke-width="1.5"/>
</g>
  <g>
  <line x1="72.3274" y1="194.5288" x2="63.3892" y2="189.3909" stroke="#333" stroke-width="1.5"/>
</g>
</g>
</g>
  <g>
  <line x1="112.3583" y1="180.9574" x2="88.9577" y2="167.5061" stroke="#333" stroke-width="1.5"/>
  <g>
  <line x1="88.9577" y1="167.5061" x2="72.2763" y2="167.5377" stroke="#333" stroke-width="1.5"/>
  <g>
  <line x1="72.2763" y1="167.5377" x2="63.3577" y2="172.7095" stroke="#333" stroke-width="1.5"/>
</g>
  <g>
  <line x1="72.2763" y1="167.5377" x2="63.3381" y2="162.3998" stroke="#333" stroke-width="1.5"/>
</g>
</g>
  <g>
  <line x1="88.9577" y1="167.5061" x2="80.5897" y2="153.0754" stroke="#333" stroke-width="1.5"/>
  <g>
  <line x1="80.5897" y1="153.0754" x2="71.6515" y2="147.9375" stroke="#333" stroke-width="1.5"/>
</g>
  <g>
  <line x1="80.5897" y1="153.0754" x2="80.5702" y2="142.7657" stroke="#333" stroke-width="1.5"/>
</g>
</g>
</g>
</g>
  <g>
  <line x1="156.0308" y1="180.8747" x2="134.1229" y2="143.0946" stroke="#333" stroke-width="1.5"/>
  <g>
  <line x1="134.1229" y1="143.0946" x2="110.7224" y2="129.6433" stroke="#333" stroke-width="1.5"/>
  <g>
  <line x1="110.7224" y1="129.6433" x2="94.041" y2="129.6749" stroke="#333" stroke-width="1.5"/>
  <g>
  <line x1="94.041" y1="129.6749" x2="85.1223" y2="134.8466" stroke="#333" stroke-width="1.5"/>
</g>
  <g>
  <line x1="94.041" y1="129.6749" x2="85.1028" y2="124.537" stroke="#333" stroke-width="1.5"/>
</g>
</g>
  <g>
  <line x1="110.7224" y1="129.6433" x2="102.3543" y2="115.2126" stroke="#333" stroke-width="1.5"/>
  <g>
  <line x1="102.3543" y1="115.2126" x2="93.4161" y2="110.0746" stroke="#333" stroke-width="1.5"/>
</g>
  <g>
  <line x1="102.3543" y1="115.2126" x2="102.3348" y2="104.9029" stroke="#333" stroke-width="1.5"/>
</g>
</g>
</g>
  <g>
  <line x1="134.1229" y1="143.0946" x2="134.0718" y2="116.1035" stroke="#333" stroke-width="1.5"/>
  <g>
  <line x1="134.0718" y1="116.1035" x2="125.7037" y2="101.6728" stroke="#333" stroke-width="1.5"/>
  <g>
  <line x1="125.7037" y1="101.6728" x2="116.7655" y2="96.5348" stroke="#333" stroke-width="1.5"/>
</g>
  <g>
  <line x1="125.7037" y1="101.6728" x2="125.6842" y2="91.3631" stroke="#333" stroke-width="1.5"/>
</g>
</g>
  <g>
  <line x1="134.0718" y1="116.1035" x2="142.3851" y2="101.6412" stroke="#333" stroke-width="1.5"/>
  <g>
  <line x1="142.3851" y1="101.6412" x2="142.3656" y2="91.3315" stroke="#333" stroke-width="1.5"/>
</g>
  <g>
  <line x1="142.3851" y1="101.6412" x2="151.3038" y2="96.4694" stroke="#333" stroke-width="1.5"/>
</g>
</g>
</g>
</g>
</g>
  <g>
  <line x1="217.2941" y1="216.0906" x2="217.1603" y2="145.427" stroke="#333" stroke-width="1.5"/>
  <g>
  <line x1="217.1603" y1="145.427" x2="195.2525" y2="107.6469" stroke="#333" stroke-width="1.5"/>
  <g>
  <line x1="195.2525" y1="107.6469" x2="171.8519" y2="94.1956" stroke="#333" stroke-width="1.5"/>
  <g>
  <line x1="171.8519" y1="94.1956" x2="155.1705" y2="94.2272" stroke="#333" stroke-width="1.5"/>
  <g>
  <line x1="155.1705" y1="94.2272" x2="146.2518" y2="99.399" stroke="#333" stroke-width="1.5"/>
</g>
  <g>
  <line x1="155.1705" y1="94.2272" x2="146.2323" y2="89.0893" stroke="#333" stroke-width="1.5"/>
</g>
</g>
  <g>
  <line x1="171.8519" y1="94.1956" x2="163.4839" y2="79.7649" stroke="#333" stroke-width="1.5"/>
  <g>
  <line x1="163.4839" y1="79.7649" x2="154.5457" y2="74.627" stroke="#333" stroke-width="1.5"/>
</g>
  <g>
  <line x1="163.4839" y1="79.7649" x2="163.4643" y2="69.4552" stroke="#333" stroke-width="1.5"/>
</g>
</g>
</g>
  <g>
  <line x1="195.2525" y1="107.6469" x2="195.2013" y2="80.6558" stroke="#333" stroke-width="1.5"/>
  <g>
  <line x1="195.2013" y1="80.6558" x2="186.8333" y2="66.2251" stroke="#333" stroke-width="1.5"/>
  <g>
  <line x1="186.8333" y1="66.2251" x2="177.8951" y2="61.0872" stroke="#333" stroke-width="1.5"/>
</g>
  <g>
  <line x1="186.8333" y1="66.2251" x2="186.8138" y2="55.9154" stroke="#333" stroke-width="1.5"/>
</g>
</g>
  <g>
  <line x1="195.2013" y1="80.6558" x2="203.5147" y2="66.1935" stroke="#333" stroke-width="1.5"/>
  <g>
  <line x1="203.5147" y1="66.1935" x2="203.4952" y2="55.8838" stroke="#333" stroke-width="1.5"/>
</g>
  <g>
  <line x1="203.5147" y1="66.1935" x2="212.4334" y2="61.0218" stroke="#333" stroke-width="1.5"/>
</g>
</g>
</g>
</g>
  <g>
  <line x1="217.1603" y1="145.427" x2="238.9249" y2="107.5642" stroke="#333" stroke-width="1.5"/>
  <g>
  <line x1="238.9249" y1="107.5642" x2="238.8738" y2="80.5731" stroke="#333" stroke-width="1.5"/>
  <g>
  <line x1="238.8738" y1="80.5731" x2="230.5058" y2="66.1424" stroke="#333" stroke-width="1.5"/>
  <g>
  <line x1="230.5058" y1="66.1424" x2="221.5676" y2="61.0045" stroke="#333" stroke-width="1.5"/>
</g>
  <g>
  <line x1="230.5058" y1="66.1424" x2="230.4863" y2="55.8327" stroke="#333" stroke-width="1.5"/>
</g>
</g>
  <g>
  <line x1="238.8738" y1="80.5731" x2="247.1872" y2="66.1108" stroke="#333" stroke-width="1.5"/>
  <g>
  <line x1="247.1872" y1="66.1108" x2="247.1677" y2="55.8011" stroke="#333" stroke-width="1.5"/>
</g>
  <g>
  <line x1="247.1872" y1="66.1108" x2="256.1059" y2="60.9391" stroke="#333" stroke-width="1.5"/>
</g>
</g>
</g>
  <g>
  <line x1="238.9249" y1="107.5642" x2="262.2744" y2="94.0244" stroke="#333" stroke-width="1.5"/>
  <g>
  <line x1="262.2744" y1="94.0244" x2="270.5877" y2="79.5621" stroke="#333" stroke-width="1.5"/>
  <g>
  <line x1="270.5877" y1="79.5621" x2="270.5682" y2="69.2524" stroke="#333" stroke-width="1.5"/>
</g>
  <g>
  <line x1="270.5877" y1="79.5621" x2="279.5064" y2="74.3903" stroke="#333" stroke-width="1.5"/>
</g>
</g>
  <g>
  <line x1="262.2744" y1="94.0244" x2="278.9558" y2="93.9928" stroke="#333" stroke-width="1.5"/>
  <g>
  <line x1="278.9558" y1="93.9928" x2="287.8745" y2="88.8211" stroke="#333" stroke-width="1.5"/>
</g>
  <g>
  <line x1="278.9558" y1="93.9928" x2="287.894" y2="99.1307" stroke="#333" stroke-width="1.5"/>
</g>
</g>
</g>
</g>
</g>
</g>
  <g>
  <line x1="274.6497" y1="315.0003" x2="331.6302" y2="215.8741" stroke="#333" stroke-width="1.5"/>
  <g>
  <line x1="331.6302" y1="215.8741" x2="331.4964" y2="145.2105" stroke="#333" stroke-width="1.5"/>
  <g>
  <line x1="331.4964" y1="145.2105" x2="309.5885" y2="107.4304" stroke="#333" stroke-width="1.5"/>
  <g>
  <line x1="309.5885" y1="107.4304" x2="286.188" y2="93.9791" stroke="#333" stroke-width="1.5"/>
  <g>
  <line x1="286.188" y1="93.9791" x2="269.5066" y2="94.0107" stroke="#333" stroke-width="1.5"/>
  <g>
  <line x1="269.5066" y1="94.0107" x2="260.5879" y2="99.1825" stroke="#333" stroke-width="1.5"/>
</g>
  <g>
  <line x1="269.5066" y1="94.0107" x2="260.5684" y2="88.8728" stroke="#333" stroke-width="1.5"/>
</g>
</g>
  <g>
  <line x1="286.188" y1="93.9791" x2="277.8199" y2="79.5484" stroke="#333" stroke-width="1.5"/>
  <g>
  <line x1="277.8199" y1="79.5484" x2="268.8817" y2="74.4105" stroke="#333" stroke-width="1.5"/>
</g>
  <g>
  <line x1="277.8199" y1="79.5484" x2="277.8004" y2="69.2387" stroke="#333" stroke-width="1.5"/>
</g>
</g>
</g>
  <g>
  <line x1="309.5885" y1="107.4304" x2="309.5374" y2="80.4393" stroke="#333" stroke-width="1.5"/>
  <g>
  <line x1="309.5374" y1="80.4393" x2="301.1694" y2="66.0086" stroke="#333" stroke-width="1.5"/>
  <g>
  <line x1="301.1694" y1="66.0086" x2="292.2312" y2="60.8706" stroke="#333" stroke-width="1.5"/>
</g>
  <g>
  <line x1="301.1694" y1="66.0086" x2="301.1498" y2="55.6989" stroke="#333" stroke-width="1.5"/>
</g>
</g>
  <g>
  <line x1="309.5374" y1="80.4393" x2="317.8508" y2="65.977" stroke="#333" stroke-width="1.5"/>
  <g>
  <line x1="317.8508" y1="65.977" x2="317.8312" y2="55.6673" stroke="#333" stroke-width="1.5"/>
</g>
  <g>
  <line x1="317.8508" y1="65.977" x2="326.7695" y2="60.8052" stroke="#333" stroke-width="1.5"/>
</g>
</g>
</g>
</g>
  <g>
  <line x1="331.4964" y1="145.2105" x2="353.261" y2="107.3477" stroke="#333" stroke-width="1.5"/>
  <g>
  <line x1="353.261" y1="107.3477" x2="353.2099" y2="80.3566" stroke="#333" stroke-width="1.5"/>
  <g>
  <line x1="353.2099" y1="80.3566" x2="344.8419" y2="65.9259" stroke="#333" stroke-width="1.5"/>
  <g>
  <line x1="344.8419" y1="65.9259" x2="335.9037" y2="60.7879" stroke="#333" stroke-width="1.5"/>
</g>
  <g>
  <line x1="344.8419" y1="65.9259" x2="344.8223" y2="55.6162" stroke="#333" stroke-width="1.5"/>
</g>
</g>
  <g>
  <line x1="353.2099" y1="80.3566" x2="361.5233" y2="65.8943" stroke="#333" stroke-width="1.5"/>
  <g>
  <line x1="361.5233" y1="65.8943" x2="361.5037" y2="55.5846" stroke="#333" stroke-width="1.5"/>
</g>
  <g>
  <line x1="361.5233" y1="65.8943" x2="370.442" y2="60.7225" stroke="#333" stroke-width="1.5"/>
</g>
</g>
</g>
  <g>
  <line x1="353.261" y1="107.3477" x2="376.6104" y2="93.8079" stroke="#333" stroke-width="1.5"/>
  <g>
  <line x1="376.6104" y1="93.8079" x2="384.9238" y2="79.3456" stroke="#333" stroke-width="1.5"/>
  <g>
  <line x1="384.9238" y1="79.3456" x2="384.9043" y2="69.0359" stroke="#333" stroke-width="1.5"/>
</g>
  <g>
  <line x1="384.9238" y1="79.3456" x2="393.8425" y2="74.1738" stroke="#333" stroke-width="1.5"/>
</g>
</g>
  <g>
  <line x1="376.6104" y1="93.8079" x2="393.2919" y2="93.7763" stroke="#333" stroke-width="1.5"/>
  <g>
  <line x1="393.2919" y1="93.7763" x2="402.2105" y2="88.6046" stroke="#333" stroke-width="1.5"/>
</g>
  <g>
  <line x1="393.2919" y1="93.7763" x2="402.2301" y2="98.9142" stroke="#333" stroke-width="1.5"/>
</g>
</g>
</g>
</g>
</g>
  <g>
  <line x1="331.6302" y1="215.8741" x2="392.7598" y2="180.4264" stroke="#333" stroke-width="1.5"/>
  <g>
  <line x1="392.7598" y1="180.4264" x2="414.5244" y2="142.5636" stroke="#333" stroke-width="1.5"/>
  <g>
  <line x1="414.5244" y1="142.5636" x2="414.4733" y2="115.5725" stroke="#333" stroke-width="1.5"/>
  <g>
  <line x1="414.4733" y1="115.5725" x2="406.1052" y2="101.1418" stroke="#333" stroke-width="1.5"/>
  <g>
  <line x1="406.1052" y1="101.1418" x2="397.167" y2="96.0039" stroke="#333" stroke-width="1.5"/>
</g>
  <g>
  <line x1="406.1052" y1="101.1418" x2="406.0857" y2="90.8321" stroke="#333" stroke-width="1.5"/>
</g>
</g>
  <g>
  <line x1="414.4733" y1="115.5725" x2="422.7866" y2="101.1102" stroke="#333" stroke-width="1.5"/>
  <g>
  <line x1="422.7866" y1="101.1102" x2="422.7671" y2="90.8005" stroke="#333" stroke-width="1.5"/>
</g>
  <g>
  <line x1="422.7866" y1="101.1102" x2="431.7053" y2="95.9385" stroke="#333" stroke-width="1.5"/>
</g>
</g>
</g>
  <g>
  <line x1="414.5244" y1="142.5636" x2="437.8738" y2="129.0238" stroke="#333" stroke-width="1.5"/>
  <g>
  <line x1="437.8738" y1="129.0238" x2="446.1872" y2="114.5615" stroke="#333" stroke-width="1.5"/>
  <g>
  <line x1="446.1872" y1="114.5615" x2="446.1676" y2="104.2518" stroke="#333" stroke-width="1.5"/>
</g>
  <g>
  <line x1="446.1872" y1="114.5615" x2="455.1058" y2="109.3897" stroke="#333" stroke-width="1.5"/>
</g>
</g>
  <g>
  <line x1="437.8738" y1="129.0238" x2="454.5552" y2="128.9922" stroke="#333" stroke-width="1.5"/>
  <g>
  <line x1="454.5552" y1="128.9922" x2="463.4739" y2="123.8205" stroke="#333" stroke-width="1.5"/>
</g>
  <g>
  <line x1="454.5552" y1="128.9922" x2="463.4934" y2="134.1301" stroke="#333" stroke-width="1.5"/>
</g>
</g>
</g>
</g>
  <g>
  <line x1="392.7598" y1="180.4264" x2="436.4323" y2="180.3437" stroke="#333" stroke-width="1.5"/>
  <g>
  <line x1="436.4323" y1="180.3437" x2="459.7817" y2="166.8039" stroke="#333" stroke-width="1.5"/>
  <g>
  <line x1="459.7817" y1="166.8039" x2="468.095" y2="152.3416" stroke="#333" stroke-width="1.5"/>
  <g>
  <line x1="468.095" y1="152.3416" x2="468.0755" y2="142.0319" stroke="#333" stroke-width="1.5"/>
</g>
  <g>
  <line x1="468.095" y1="152.3416" x2="477.0137" y2="147.1699" stroke="#333" stroke-width="1.5"/>
</g>
</g>
  <g>
  <line x1="459.7817" y1="166.8039" x2="476.4631" y2="166.7724" stroke="#333" stroke-width="1.5"/>
  <g>
  <line x1="476.4631" y1="166.7724" x2="485.3818" y2="161.6006" stroke="#333" stroke-width="1.5"/>
</g>
  <g>
  <line x1="476.4631" y1="166.7724" x2="485.4013" y2="171.9103" stroke="#333" stroke-width="1.5"/>
</g>
</g>
</g>
  <g>
  <line x1="436.4323" y1="180.3437" x2="459.8328" y2="193.795" stroke="#333" stroke-width="1.5"/>
  <g>
  <line x1="459.8328" y1="193.795" x2="476.5142" y2="193.7634" stroke="#333" stroke-width="1.5"/>
  <g>
  <line x1="476.5142" y1="193.7634" x2="485.4329" y2="188.5917" stroke="#333" stroke-width="1.5"/>
</g>
  <g>
  <line x1="476.5142" y1="193.7634" x2="485.4524" y2="198.9014" stroke="#333" stroke-width="1.5"/>
</g>
</g>
  <g>
  <line x1="459.8328" y1="193.795" x2="468.2009" y2="208.2258" stroke="#333" stroke-width="1.5"/>
  <g>
  <line x1="468.2009" y1="208.2258" x2="477.1391" y2="213.3637" stroke="#333" stroke-width="1.5"/>
</g>
  <g>
  <line x1="468.2009" y1="208.2258" x2="468.2204" y2="218.5354" stroke="#333" stroke-width="1.5"/>
</g>
</g>
</g>
</g>
</g>
</g>
</g>
  <g opacity="0.59">
  <g>
  <circle cx="314" cy="225" r="165" stroke="#e74c3c" stroke-width="2" fill="#e74c3c" fill-opacity="0.05"/>
  <circle cx="314" cy="93" r="13.2" fill="#e74c3c" stroke="#fff" stroke-width="1"/>
  <text x="311" y="97" font-size="9" fill="#fff" font-weight="bold">1</text>
  <circle cx="428.3154" cy="291" r="13.2" fill="#e74c3c" stroke="#fff" stroke-width="1"/>
  <text x="425.3154" y="295" font-size="9" fill="#fff" font-weight="bold">2</text>
  <circle cx="199.6846" cy="291" r="13.2" fill="#e74c3c" stroke="#fff" stroke-width="1"/>
  <text x="196.6846" y="295" font-size="9" fill="#fff" font-weight="bold">3</text>
  <path d="M 314,93 Q 434.0311,155.7 428.3154,291" stroke="#e74c3c" stroke-width="1" fill="none"/>
  <path d="M 428.3154,291 Q 314,363.6 199.6846,291" stroke="#e74c3c" stroke-width="1" fill="none"/>
  <path d="M 199.6846,291 Q 434.0311,294.3 314,93" stroke="#e74c3c" stroke-width="1" fill="none"/>
  <text x="306" y="229" font-size="14" fill="#e74c3c" font-weight="bold">W3</text>
</g>
</g>
</svg>