<svg xmlns="http://www.w3.org/2000/svg" width="800" height="800" viewBox="0 0 800 800">
  <g>
  <polygon points="346,204 338.2058,217.5 353.7942,217.5" fill="#333" stroke="none"/>
  <polygon points="338.2058,217.5 330.4115,231 346,231" fill="#333" stroke="none"/>
  <polygon points="353.7942,217.5 346,231 361.5885,231" fill="#333" stroke="none"/>
  <polygon points="330.4115,231 322.6173,244.5 338.2058,244.5" fill="#333" stroke="none"/>
  <polygon points="322.6173,244.5 314.8231,258 330.4115,258" fill="#333" stroke="none"/>
  <polygon points="338.2058,244.5 330.4115,258 346,258" fill="#333" stroke="none"/>
  <polygon points="361.5885,231 353.7942,244.5 369.3827,244.5" fill="#333" stroke="none"/>
  <polygon points="353.7942,244.5 346,258 361.5885,258" fill="#333" stroke="none"/>
  <polygon points="369.3827,244.5 361.5885,258 377.1769,258" fill="#333" stroke="none"/>
  <polygon points="314.8231,258 307.0289,271.5 322.6173,271.5" fill="#333" stroke="none"/>
  <polygon points="307.0289,271.5 299.2346,285 314.8231,285" fill="#333" stroke="none"/>
  <polygon points="322.6173,271.5 314.8231,285 330.4115,285" fill="#333" stroke="none"/>
  <polygon points="299.2346,285 291.4404,298.5 307.0289,298.5" fill="#333" stroke="none"/>
  <polygon points="291.4404,298.5 283.6462,312 299.2346,312" fill="#333" stroke="none"/>
  <polygon points="307.0289,298.5 299.2346,312 314.8231,312" fill="#333" stroke="none"/>
  <polygon points="330.4115,285 322.6173,298.5 338.2058,298.5" fill="#333" stroke="none"/>
  <polygon points="322.6173,298.5 314.8231,312 330.4115,312" fill="#333" stroke="none"/>
  <polygon points="338.2058,298.5 330.4115,312 346,312" fill="#333" stroke="none"/>
  <polygon points="377.1769,258 369.3827,271.5 384.9711,271.5" fill="#333" stroke="none"/>
  <polygon points="369.3827,271.5 361.5885,285 377.1769,285" fill="#333" stroke="none"/>
  <polygon points="384.9711,271.5 377.1769,285 392.7654,285" fill="#333" stroke="none"/>
  <polygon points="361.5885,285 353.7942,298.5 369.3827,298.5" fill="#333" stroke="none"/>
  <polygon points="353.7942,298.5 346,312 361.5885,312" fill="#333" stroke="none"/>
  <polygon points="369.3827,298.5 361.5885,312 377.1769,312" fill="#333" stroke="none"/>
  <polygon points="392.7654,285 384.9711,298.5 400.5596,298.5" fill="#333" stroke="none"/>
  <polygon points="384.9711,298.5 377.1769,312 392.7654,312" fill="#333" stroke="none"/>
  <polygon points="400.5596,298.5 392.7654,312 408.3538,312" fill="#333" stroke="none"/>
  <polygon points="283.6462,312 275.8519,325.5 291.4404,325.5" fill="#333" stroke="none"/>
  <polygon points="275.8519,325.5 268.0577,339 283.6462,339" fill="#333" stroke="none"/>
  <polygon points="291.4404,325.5 283.6462,339 299.2346,339" fill="#333" stroke="none"/>
  <polygon points="268.0577,339 260.2635,352.5 275.8519,352.5" fill="#333" stroke="none"/>
  <polygon points="260.2635,352.5 252.4693,366 268.0577,366" fill="#333" stroke="none"/>
  <polygon points="275.8519,352.5 268.0577,366 283.6462,366" fill="#333" stroke="none"/>
  <polygon points="299.2346,339 291.4404,352.5 307.0289,352.5" fill="#333" stroke="none"/>
  <polygon points="291.4404,352.5 283.6462,366 299.2346,366" fill="#333" stroke="none"/>
  <polygon points="307.0289,352.5 299.2346,366 314.8231,366" fill="#333" stroke="none"/>
  <polygon points="252.4693,366 244.675,379.5 260.2635,379.5" fill="#333" stroke="none"/>
  <polygon points="244.675,379.5 236.8808,393 252.4693,393" fill="#333" stroke="none"/>
  <polygon points="260.2635,379.5 252.4693,393 268.0577,393" fill="#333" stroke="none"/>
  <polygon points="236.8808,393 229.0866,406.5 244.675,406.5" fill="#333" stroke="none"/>
  <polygon points="229.0866,406.5 221.2923,420 236.8808,420" fill="#333" stroke="none"/>
  <polygon points="244.675,406.5 236.8808,420 252.4693,420" fill="#333" stroke="none"/>
  <polygon points="268.0577,393 260.2635,406.5 275.8519,406.5" fill="#333" stroke="none"/>
  <polygon points="260.2635,406.5 252.4693,420 268.0577,420" fill="#333" stroke="none"/>
  <polygon points="275.8519,406.5 268.0577,420 283.6462,420" fill="#333" stroke="none"/>
  <polygon points="314.8231,366 307.0289,379.5 322.6173,379.5" fill="#333" stroke="none"/>
  <polygon points="307.0289,379.5 299.2346,393 314.8231,393" fill="#333" stroke="none"/>
  <polygon points="322.6173,379.5 314.8231,393 330.4115,393" fill="#333" stroke="none"/>
  <polygon points="299.2346,393 291.4404,406.5 307.0289,406.5" fill="#333" stroke="none"/>
  <polygon points="291.4404,406.5 283.6462,420 299.2346,420" fill="#333" stroke="none"/>
  <polygon points="307.0289,406.5 299.2346,420 314.8231,420" fill="#333" stroke="none"/>
  <polygon points="330.4115,393 322.6173,406.5 338.2058,406.5" fill="#333" stroke="none"/>
  <polygon points="322.6173,406.5 314.8231,420 330.4115,420" fill="#333" stroke="none"/>
  <polygon points="338.2058,406.5 330.4115,420 346,420" fill="#333" stroke="none"/>
  <polygon points="408.3538,312 400.5596,325.5 416.1481,325.5" fill="#333" stroke="none"/>
  <polygon points="400.5596,325.5 392.7654,339 408.3538,339" fill="#333" stroke="none"/>
  <polygon points="416.1481,325.5 408.3538,339 423.9423,339" fill="#333" stroke="none"/>
  <polygon points="392.7654,339 384.9711,352.5 400.5596,352.5" fill="#333" stroke="none"/>
  <polygon points="384.9711,352.5 377.1769,366 392.7654,366" fill="#333" stroke="none"/>
  <polygon points="400.5596,352.5 392.7654,366 408.3538,366" fill="#333" stroke="none"/>
  <polygon points="423.9423,339 416.1481,352.5 431.7365,352.5" fill="#333" stroke="none"/>
  <polygon points="416.1481,352.5 408.3538,366 423.9423,366" fill="#333" stroke="none"/>
  <polygon points="431.7365,352.5 423.9423,366 439.5307,366" fill="#333" stroke="none"/>
  <polygon points="377.1769,366 369.3827,379.5 384.9711,379.5" fill="#333" stroke="none"/>
  <polygon points="369.3827,379.5 361.5885,393 377.1769,393" fill="#333" stroke="none"/>
  <polygon points="384.9711,379.5 377.1769,393 392.7654,393" fill="#333" stroke="none"/>
  <polygon points="361.5885,393 353.7942,406.5 369.3827,406.5" fill="#333" stroke="none"/>
  <polygon points="353.7942,406.5 346,420 361.5885,420" fill="#333" stroke="none"/>
  <polygon points="369.3827,406.5 361.5885,420 377.1769,420" fill="#333" stroke="none"/>
  <polygon points="392.7654,393 384.9711,406.5 400.5596,406.5" fill="#333" stroke="none"/>
  <polygon points="384.9711,406.5 377.1769,420 392.7654,420" fill="#333" stroke="none"/>
  <polygon points="400.5596,406.5 392.7654,420 408.3538,420" fill="#333" stroke="none"/>
  <polygon points="439.5307,366 431.7365,379.5 447.325,379.5" fill="#333" stroke="none"/>
  <polygon points="431.7365,379.5 423.9423,393 439.5307,393" fill="#333" stroke="none"/>
  <polygon points="447.325,379.5 439.5307,393 455.1192,393" fill="#333" stroke="none"/>
  <polygon points="423.9423,393 416.1481,406.5 431.7365,406.5" fill="#333" stroke="none"/>
  <polygon points="416.1481,406.5 408.3538,420 423.9423,420" fill="#333" stroke="none"/>
  <polygon points="431.7365,406.5 423.9423,420 439.5307,420" fill="#333" stroke="none"/>
  <polygon points="455.1192,393 447.325,406.5 462.9134,406.5" fill="#333" stroke="none"/>
  <polygon points="447.325,406.5 439.5307,420 455.1192,420" fill="#333" stroke="none"/>
  <polygon points="462.9134,406.5 455.1192,420 470.7077,420" fill="#333" stroke="none"/>
  <polygon points="221.2923,420 213.4981,433.5 229.0866,433.5" fill="#333" stroke="none"/>
  <polygon points="213.4981,433.5 205.7039,447 221.2923,447" fill="#333" stroke="none"/>
  <polygon points="229.0866,433.5 221.2923,447 236.8808,447" fill="#333" stroke="none"/>
  <polygon points="205.7039,447 197.9097,460.5 213.4981,460.5" fill="#333" stroke="none"/>
  <polygon points="197.9097,460.5 190.1154,474 205.7039,474" fill="#333" stroke="none"/>
  <polygon points="213.4981,460.5 205.7039,474 221.2923,474" fill="#333" stroke="none"/>
  <polygon points="236.8808,447 229.0866,460.5 244.675,460.5" fill="#333" stroke="none"/>
  <polygon points="229.0866,460.5 221.2923,474 236.8808,474" fill="#333" stroke="none"/>
  <polygon points="244.675,460.5 236.8808,474 252.4693,474" fill="#333" stroke="none"/>
  <polygon points="190.1154,474 182.3212,487.5 197.9097,487.5" fill="#333" stroke="none"/>
  <polygon points="182.3212,487.5 174.527,501 190.1154,501" fill="#333" stroke="none"/>
  <polygon points="197.9097,487.5 190.1154,501 205.7039,501" fill="#333" stroke="none"/>
  <polygon points="174.527,501 166.7327,514.5 182.3212,514.5" fill="#333" stroke="none"/>
  <polygon points="166.7327,514.5 158.9385,528 174.527,528" fill="#333" stroke="none"/>
  <polygon points="182.3212,514.5 174.527,528 190.1154,528" fill="#333" stroke="none"/>
  <polygon points="205.7039,501 197.9097,514.5 213.4981,514.5" fill="#333" stroke="none"/>
  <polygon points="197.9097,514.5 190.1154,528 205.7039,528" fill="#333" stroke="none"/>
  <polygon points="213.4981,514.5 205.7039,528 221.2923,528" fill="#333" stroke="none"/>
  <polygon points="252.4693,474 244.675,487.5 260.2635,487.5" fill="#333" stroke="none"/>
  <polygon points="244.675,487.5 236.8808,501 252.4693,501" fill="#333" stroke="none"/>
  <polygon points="260.2635,487.5 252.4693,501 268.0577,501" fill="#333" stroke="none"/>
  <polygon points="236.8808,501 229.0866,514.5 244.675,514.5" fill="#333" stroke="none"/>
  <polygon points="229.0866,514.5 221.2923,528 236.8808,528" fill="#333" stroke="none"/>
  <polygon points="244.675,514.5 236.8808,528 252.4693,528" fill="#333" stroke="none"/>
  <polygon points="268.0577,501 260.2635,514.5 275.8519,514.5" fill="#333" stroke="none"/>
  <polygon points="260.2635,514.5 252.4693,528 268.0577,528" fill="#333" stroke="none"/>
  <polygon points="275.8519,514.5 268.0577,528 283.6462,528" fill="#333" stroke="none"/>
  <polygon points="158.9385,528 151.1443,541.5 166.7327,541.5" fill="#333" stroke="none"/>
  <polygon points="151.1443,541.5 143.3501,555 158.9385,555" fill="#333" stroke="none"/>
  <polygon points="166.7327,541.5 158.9385,555 174.527,555" fill="#333" stroke="none"/>
  <polygon points="143.3501,555 135.5558,568.5 151.1443,568.5" fill="#333" stroke="none"/>
  <polygon points="135.5558,568.5 127.7616,582 143.3501,582" fill="#333" stroke="none"/>
  <polygon points="151.1443,568.5 143.3501,582 158.9385,582" fill="#333" stroke="none"/>
  <polygon points="174.527,555 166.7327,568.5 182.3212,568.5" fill="#333" stroke="none"/>
  <polygon points="166.7327,568.5 158.9385,582 174.527,582" fill="#333" stroke="none"/>
  <polygon points="182.3212,568.5 174.527,582 190.1154,582" fill="#333" stroke="none"/>
  <polygon points="127.7616,582 119.9674,595.5 135.5558,595.5" fill="#333" stroke="none"/>
  <polygon points="119.9674,595.5 112.1731,609 127.7616,609" fill="#333" stroke="none"/>
  <polygon points="135.5558,595.5 127.7616,609 143.3501,609" fill="#333" stroke="none"/>
  <polygon points="112.1731,609 104.3789,622.5 119.9674,622.5" fill="#333" stroke="none"/>
  <polygon points="104.3789,622.5 96.5847,636 112.1731,636" fill="#333" stroke="none"/>
  <polygon points="119.9674,622.5 112.1731,636 127.7616,636" fill="#333" stroke="none"/>
  <polygon points="143.3501,609 135.5558,622.5 151.1443,622.5" fill="#333" stroke="none"/>
  <polygon points="135.5558,622.5 127.7616,636 143.3501,636" fill="#333" stroke="none"/>
  <polygon points="151.1443,622.5 143.3501,636 158.9385,636" fill="#333" stroke="none"/>
  <polygon points="190.1154,582 182.3212,595.5 197.9097,595.5" fill="#333" stroke="none"/>
  <polygon points="182.3212,595.5 174.527,609 190.1154,609" fill="#333" stroke="none"/>
  <polygon points="197.9097,595.5 190.1154,609 205.7039,609" fill="#333" stroke="none"/>
  <polygon points="174.527,609 166.7327,622.5 182.3212,622.5" fill="#333" stroke="none"/>
  <polygon points="166.7327,622.5 158.9385,636 174.527,636" fill="#333" stroke="none"/>
  <polygon points="182.3212,622.5 174.527,636 190.1154,636" fill="#333" stroke="none"/>
  <polygon points="205.7039,609 197.9097,622.5 213.4981,622.5" fill="#333" stroke="none"/>
  <polygon points="197.9097,622.5 190.1154,636 205.7039,636" fill="#333" stroke="none"/>
  <polygon points="213.4981,622.5 205.7039,636 221.2923,636" fill="#333" stroke="none"/>
  <polygon points="283.6462,528 275.8519,541.5 291.4404,541.5" fill="#333" stroke="none"/>
  <polygon points="275.8519,541.5 268.0577,555 283.6462,555" fill="#333" stroke="none"/>
  <polygon points="291.4404,541.5 283.6462,555 299.2346,555" fill="#333" stroke="none"/>
  <polygon points="268.0577,555 260.2635,568.5 275.8519,568.5" fill="#333" stroke="none"/>
  <polygon points="260.2635,568.5 252.4693,582 268.0577,582" fill="#333" stroke="none"/>
  <polygon points="275.8519,568.5 268.0577,582 283.6462,582" fill="#333" stroke="none"/>
  <polygon points="299.2346,555 291.4404,568.5 307.0289,568.5" fill="#333" stroke="none"/>
  <polygon points="291.4404,568.5 283.6462,582 299.2346,582" fill="#333" stroke="none"/>
  <polygon points="307.0289,568.5 299.2346,582 314.8231,582" fill="#333" stroke="none"/>
  <polygon points="252.4693,582 244.675,595.5 260.2635,595.5" fill="#333" stroke="none"/>
  <polygon points="244.675,595.5 236.8808,609 252.4693,609" fill="#333" stroke="none"/>
  <polygon points="260.2635,595.5 252.4693,609 268.0577,609" fill="#333" stroke="none"/>
  <polygon points="236.8808,609 229.0866,622.5 244.675,622.5" fill="#333" stroke="none"/>
  <polygon points="229.0866,622.5 221.2923,636 236.8808,636" fill="#333" stroke="none"/>
  <polygon points="244.675,622.5 236.8808,636 252.4693,636" fill="#333" stroke="none"/>
  <polygon points="268.0577,609 260.2635,622.5 275.8519,622.5" fill="#333" stroke="none"/>
  <polygon points="260.2635,622.5 252.4693,636 268.0577,636" fill="#333" stroke="none"/>
  <polygon points="275.8519,622.5 268.0577,636 283.6462,636" fill="#333" stroke="none"/>
  <polygon points="314.8231,582 307.0289,595.5 322.6173,595.5" fill="#333" stroke="none"/>
  <polygon points="307.0289,595.5 299.2346,609 314.8231,609" fill="#333" stroke="none"/>
  <polygon points="322.6173,595.5 314.8231,609 330.4115,609" fill="#333" stroke="none"/>
  <polygon points="299.2346,609 291.4404,622.5 307.0289,622.5" fill="#333" stroke="none"/>
  <polygon points="291.4404,622.5 283.6462,636 299.2346,636" fill="#333" stroke="none"/>
  <polygon points="307.0289,622.5 299.2346,636 314.8231,636" fill="#333" stroke="none"/>
  <polygon points="330.4115,609 322.6173,622.5 338.2058,622.5" fill="#333" stroke="none"/>
  <polygon points="322.6173,622.5 314.8231,636 330.4115,636" fill="#333" stroke="none"/>
  <polygon points="338.2058,622.5 330.4115,636 346,636" fill="#333" stroke="none"/>
  <polygon points="470.7077,420 462.9134,433.5 478.5019,433.5" fill="#333" stroke="none"/>
  <polygon points="462.9134,433.5 455.1192,447 470.7077,447" fill="#333" stroke="none"/>
  <polygon points="478.5019,433.5 470.7077,447 486.2961,447" fill="#333" stroke="none"/>
  <polygon points="455.1192,447 447.325,460.5 462.9134,460.5" fill="#333" stroke="none"/>
  <polygon points="447.325,460.5 439.5307,474 455.1192,474" fill="#333" stroke="none"/>
  <polygon points="462.9134,460.5 455.1192,474 470.7077,474" fill="#333" stroke="none"/>
  <polygon points="486.2961,447 478.5019,460.5 494.0903,460.5" fill="#333" stroke="none"/>
  <polygon points="478.5019,460.5 470.7077,474 486.2961,474" fill="#333" stroke="none"/>
  <polygon points="494.0903,460.5 486.2961,474 501.8846,474" fill="#333" stroke="none"/>
  <polygon points="439.5307,474 431.7365,487.5 447.325,487.5" fill="#333" stroke="none"/>
  <polygon points="431.7365,487.5 423.9423,501 439.5307,501" fill="#333" stroke="none"/>
  <polygon points="447.325,487.5 439.5307,501 455.1192,501" fill="#333" stroke="none"/>
  <polygon points="423.9423,501 416.1481,514.5 431.7365,514.5" fill="#333" stroke="none"/>
  <polygon points="416.1481,514.5 408.3538,528 423.9423,528" fill="#333" stroke="none"/>
  <polygon points="431.7365,514.5 423.9423,528 439.5307,528" fill="#333" stroke="none"/>
  <polygon points="455.1192,501 447.325,514.5 462.9134,514.5" fill="#333" stroke="none"/>
  <polygon points="447.325,514.5 439.5307,528 455.1192,528" fill="#333" stroke="none"/>
  <polygon points="462.9134,514.5 455.1192,528 470.7077,528" fill="#333" stroke="none"/>
  <polygon points="501.8846,474 494.0903,487.5 509.6788,487.5" fill="#333" stroke="none"/>
  <polygon points="494.0903,487.5 486.2961,501 501.8846,501" fill="#333" stroke="none"/>
  <polygon points="509.6788,487.5 501.8846,501 517.473,501" fill="#333" stroke="none"/>
  <polygon points="486.2961,501 478.5019,514.5 494.0903,514.5" fill="#333" stroke="none"/>
  <polygon points="478.5019,514.5 470.7077,528 486.2961,528" fill="#333" stroke="none"/>
  <polygon points="494.0903,514.5 486.2961,528 501.8846,528" fill="#333" stroke="none"/>
  <polygon points="517.473,501 509.6788,514.5 525.2673,514.5" fill="#333" stroke="none"/>
  <polygon points="509.6788,514.5 501.8846,528 517.473,528" fill="#333" stroke="none"/>
  <polygon points="525.2673,514.5 517.473,528 533.0615,528" fill="#333" stroke="none"/>
  <polygon points="408.3538,528 400.5596,541.5 416.1481,541.5" fill="#333" stroke="none"/>
  <polygon points="400.5596,541.5 392.7654,555 408.3538,555" fill="#333" stroke="none"/>
  <polygon points="416.1481,541.5 408.3538,555 423.9423,555" fill="#333" stroke="none"/>
  <polygon points="392.7654,555 384.9711,568.5 400.5596,568.5" fill="#333" stroke="none"/>
  <polygon points="384.9711,568.5 377.1769,582 392.7654,582" fill="#333" stroke="none"/>
  <polygon points="400.5596,568.5 392.7654,582 408.3538,582" fill="#333" stroke="none"/>
  <polygon points="423.9423,555 416.1481,568.5 431.7365,568.5" fill="#333" stroke="none"/>
  <polygon points="416.1481,568.5 408.3538,582 423.9423,582" fill="#333" stroke="none"/>
  <polygon points="431.7365,568.5 423.9423,582 439.5307,582" fill="#333" stroke="none"/>
  <polygon points="377.1769,582 369.3827,595.5 384.9711,595.5" fill="#333" stroke="none"/>
  <polygon points="369.3827,595.5 361.5885,609 377.1769,609" fill="#333" stroke="none"/>
  <polygon points="384.9711,595.5 377.1769,609 392.7654,609" fill="#333" stroke="none"/>
  <polygon points="361.5885,609 353.7942,622.5 369.3827,622.5" fill="#333" stroke="none"/>
  <polygon points="353.7942,622.5 346,636 361.5885,636" fill="#333" stroke="none"/>
  <polygon points="369.3827,622.5 361.5885,636 377.1769,636" fill="#333" stroke="none"/>
  <polygon points="392.7654,609 384.9711,622.5 400.5596,622.5" fill="#333" stroke="none"/>
  <polygon points="384.9711,622.5 377.1769,636 392.7654,636" fill="#333" stroke="none"/>
  <polygon points="400.5596,622.5 392.7654,636 408.3538,636" fill="#333" stroke="none"/>
  <polygon points="439.5307,582 431.7365,595.5 447.325,595.5" fill="#333" stroke="none"/>
  <polygon points="431.7365,595.5 423.9423,609 439.5307,609" fill="#333" stroke="none"/>
  <polygon points="447.325,595.5 439.5307,609 455.1192,609" fill="#333" stroke="none"/>
  <polygon points="423.9423,609 416.1481,622.5 431.7365,622.5" fill="#333" stroke="none"/>
  <polygon points="416.1481,622.5 408.3538,636 423.9423,636" fill="#333" stroke="none"/>
  <polygon points="431.7365,622.5 423.9423,636 439.5307,636" fill="#333" stroke="none"/>
  <polygon points="455.1192,609 447.325,622.5 462.9134,622.5" fill="#333" stroke="none"/>
  <polygon points="447.325,622.5 439.5307,636 455.1192,636" fill="#333" stroke="none"/>
  <polygon points="462.9134,622.5 455.1192,636 470.7077,636" fill="#333" stroke="none"/>
  <polygon points="533.0615,528 525.2673,541.5 540.8557,541.5" fill="#333" stroke="none"/>
  <polygon points="525.2673,541.5 517.473,555 533.0615,555" fill="#333" stroke="none"/>
  <polygon points="540.8557,541.5 533.0615,555 548.6499,555" fill="#333" stroke="none"/>
  <polygon points="517.473,555 509.6788,568.5 525.2673,568.5" fill="#333" stroke="none"/>
  <polygon points="509.6788,568.5 501.8846,582 517.473,582" fill="#333" stroke="none"/>
  <polygon points="525.2673,568.5 517.473,582 533.0615,582" fill="#333" stroke="none"/>
  <polygon points="548.6499,555 540.8557,568.5 556.4442,568.5" fill="#333" stroke="none"/>
  <polygon points="540.8557,568.5 533.0615,582 548.6499,582" fill="#333" stroke="none"/>
  <polygon points="556.4442,568.5 548.6499,582 564.2384,582" fill="#333" stroke="none"/>
  <polygon points="501.8846,582 494.0903,595.5 509.6788,595.5" fill="#333" stroke="none"/>
  <polygon points="494.0903,595.5 486.2961,609 501.8846,609" fill="#333" stroke="none"/>
  <polygon points="509.6788,595.5 501.8846,609 517.473,609" fill="#333" stroke="none"/>
  <polygon points="486.2961,609 478.5019,622.5 494.0903,622.5" fill="#333" stroke="none"/>
  <polygon points="478.5019,622.5 470.7077,636 486.2961,636" fill="#333" stroke="none"/>
  <polygon points="494.0903,622.5 486.2961,636 501.8846,636" fill="#333" stroke="none"/>
  <polygon points="517.473,609 509.6788,622.5 525.2673,622.5" fill="#333" stroke="none"/>
  <polygon points="509.6788,622.5 501.8846,636 517.473,636" fill="#333" stroke="none"/>
  <polygon points="525.2673,622.5 517.473,636 533.0615,636" fill="#333" stroke="none"/>
  <polygon points="564.2384,582 556.4442,595.5 572.0326,595.5" fill="#333" stroke="none"/>
  <polygon points="556.4442,595.5 548.6499,609 564.2384,609" fill="#333" stroke="none"/>
  <polygon points="572.0326,595.5 564.2384,609 579.8269,609" fill="#333" stroke="none"/>
  <polygon points="548.6499,609 540.8557,622.5 556.4442,622.5" fill="#333" stroke="none"/>
  <polygon points="540.8557,622.5 533.0615,636 548.6499,636" fill="#333" stroke="none"/>
  <polygon points="556.4442,622.5 548.6499,636 564.2384,636" fill="#333" stroke="none"/>
  <polygon points="579.8269,609 572.0326,622.5 587.6211,622.5" fill="#333" stroke="none"/>
  <polygon points="572.0326,622.5 564.2384,636 579.8269,636" fill="#333" stroke="none"/>
  <polygon points="587.6211,622.5 579.8269,636 595.4153,636" fill="#333" stroke="none"/>
</g>
  <g transform="rotate(-136.5,400,400)">
  <g>
  <polyline points="482.7042,486.0991 476.9739,484.3091 470.3677,482.7475 462.9306,481.4377 454.7119,480.4021 445.7656,479.6626 436.1507,479.2403 425.9316,479.1556 415.1788,479.4278 403.9689,480.075 392.3855,481.1139 380.5188,482.5591 368.4664,484.423 356.3324,486.7153 344.2278,489.4424 332.2699,492.607 320.5812,496.2076 309.2888,500.2378 298.5234,504.6862 288.4175,509.5358 279.104,514.7635 270.7145,520.3403 263.3772,526.2305 257.2148,532.3923 252.3425,538.7774 248.8656,545.3314 246.8774,551.994 246.4569,558.6998 247.667,565.3782 250.5521,571.9551 255.1369,578.353 261.4246,584.4922 269.3961,590.2921 279.0087,595.6719 290.1959,600.5522 302.8675,604.8564 316.9095,608.5115 332.1856,611.4496 348.5376,613.6094 365.7877,614.9371 383.7402,615.3875 402.1841,614.9252 420.8957,613.5255 439.642,611.1747 458.1838,607.8714 476.2791,603.626 493.6872,598.4615 510.1722,592.4135 525.5067,585.5295 539.4756,577.8688 551.8797,569.5017 562.5389,560.5088 571.2953,550.9798 578.016,541.0126 582.5955,530.7114 584.9574,520.1858 585.0564,509.549 582.8783,498.916 578.4413,488.4021 571.7954,478.1212 563.0221,468.1841" stroke="#333" stroke-width="0.8" fill="none"/>
  <polyline points="492.7439,483.8598 486.3813,481.1075 479.0176,478.6239 470.7131,476.4407 461.5347,474.5879 451.5559,473.0937 440.8566,471.9843 429.5235,471.2836 417.6496,471.0132 405.3341,471.1917 392.6825,471.835 379.806,472.9556 366.8212,474.5624 353.8494,476.6604 341.0165,479.2502 328.4513,482.3279 316.2852,485.8846 304.6509,489.9062 293.681,494.3732 283.5065,499.2603 274.2557,504.5368 266.052,510.1658 259.0125,516.1048 253.2461,522.3057 248.8517,528.7151 245.9164,535.2744 244.5138,541.9203 244.7022,548.5857 246.5231,555.1999 250,561.6895 255.1369,567.9794 261.9177,573.9935 270.3053,579.6558 280.2413,584.8915 291.6462,589.6279 304.419,593.7955 318.4386,597.3295 333.5644,600.1703 349.6377,602.2647 366.4833,603.5674 383.9117,604.0411 401.7211,603.6577 419.7004,602.399 437.6314,600.2571 455.2922,597.2351 472.4605,593.3468 488.9161,588.6172 504.4449,583.0823 518.8416,576.7886 531.9134,569.7931 543.4821,562.1621 553.3881,553.971 561.4919,545.303 567.677,536.2479 571.8518,526.9015 573.9509,517.3635 573.9365,507.7369 571.7992,498.1261 567.5581,488.6354 561.2607,479.3678 552.9823,470.4235" stroke="#333" stroke-width="0.8" fill="none"/>
  <polyline points="502.7837,481.6204 495.7886,477.906 487.6675,474.5003 478.4957,471.4437 468.3575,468.7737 457.3461,466.5249 445.5625,464.7283 433.1154,463.4117 420.1204,462.5985 406.6994,462.3083 392.9796,462.556 379.0932,463.3521 365.176,464.7018 351.3665,466.6055 337.8051,469.058 324.6326,472.0488 311.9892,475.5616 300.013,479.5746 288.8385,484.0602 278.5955,488.9849 269.4073,494.31 261.3894,499.9912 254.6477,505.979 249.2773,512.2192 245.3609,518.6529 242.9672,525.2174 242.1502,531.8466 242.9475,538.4717 245.3792,545.0215 249.4479,551.4238 255.1369,557.6057 262.4107,563.4947 271.2144,569.0195 281.474,574.1111 293.0964,578.7035 305.9704,582.7346 319.9676,586.1475 334.9432,588.8909 350.7378,590.9201 367.1789,592.1978 384.0832,592.6946 401.2582,592.3901 418.5051,591.2724 435.6207,589.3396 452.4007,586.5989 468.6418,583.0677 484.1449,578.7729 498.7175,573.751 512.1766,568.0477 524.3511,561.7173 535.0846,554.8225 544.2373,547.4333 551.6885,539.6261 557.3381,531.4833 561.1081,523.0915 562.9443,514.5412 562.8167,505.9249 560.7202,497.3362 556.6749,488.8686 550.7259,480.6144 542.9426,472.6629" stroke="#333" stroke-width="0.8" fill="none"/>
  <polyline points="512.8234,479.381 505.1959,474.7044 496.3174,470.3767 486.2782,466.4466 475.1803,462.9595 463.1363,459.956 450.2684,457.4724 436.7073,455.5398 422.5913,454.1839 408.0646,453.4249 393.2767,453.2771 378.3804,453.7486 363.5307,454.8412 348.8835,456.5506 334.5937,458.8658 320.814,461.7697 307.6933,465.2386 295.3751,469.243 283.996,473.7471 273.6845,478.7095 264.559,484.0833 256.7268,489.8167 250.283,495.8533 245.3086,502.1326 241.87,508.5906 240.018,515.1604 239.7866,521.773 241.1927,528.3577 244.2354,534.8432 248.8958,541.1582 255.1369,547.232 262.9037,552.9959 272.1236,558.3832 282.7066,563.3307 294.5466,567.7791 307.5219,571.6737 321.4967,574.9656 336.322,577.6115 351.8378,579.5754 367.8745,580.8281 384.2547,581.3482 400.7953,581.1225 417.3098,580.1459 433.6101,578.422 449.5092,575.9627 464.8232,572.7886 479.3738,568.9286 492.9902,564.4198 505.5115,559.3068 516.7888,553.6416 526.687,547.483 535.0865,540.8955 541.8851,533.9493 546.9991,526.7186 550.3645,519.2816 551.9377,511.7189 551.6968,504.1128 549.6411,496.5463 545.7917,489.1019 540.1911,481.8609 532.9029,474.9022" stroke="#333" stroke-width="0.8" fill="none"/>
  <polyline points="522.8631,477.1416 514.6033,471.5029 504.9673,466.253 494.0608,461.4496 482.0031,457.1453 468.9266,453.3871 454.9743,450.2164 440.2992,447.6678 425.0621,445.7693 409.4298,444.5416 393.5738,443.9982 377.6676,444.1451 361.8855,444.9806 346.4006,446.4956 331.3824,448.6736 316.9954,451.4905 303.3973,454.9157 290.7372,458.9115 279.1536,463.4341 268.7735,468.4341 259.7106,473.8566 252.0643,479.6422 245.9182,485.7276 241.3398,492.046 238.3792,498.5283 237.0688,505.1034 237.423,511.6993 239.438,518.2436 243.0915,524.6648 248.3437,530.8925 255.1369,536.8584 263.3967,542.4971 273.0327,547.747 283.9392,552.5504 295.9969,556.8547 309.0734,560.6129 323.0257,563.7836 337.7008,566.3322 352.9379,568.2307 368.5702,569.4584 384.4262,570.0018 400.3324,569.8549 416.1145,569.0194 431.5994,567.5044 446.6176,565.3264 461.0046,562.5095 474.6027,559.0843 487.2628,555.0885 498.8464,550.5659 509.2265,545.5659 518.2894,540.1434 525.9357,534.3578 532.0818,528.2724 536.6602,521.954 539.6208,515.4717 540.9312,508.8966 540.577,502.3007 538.562,495.7564 534.9085,489.3352 529.6563,483.1075 522.8631,477.1416" stroke="#333" stroke-width="0.8" fill="none"/>
  <polyline points="532.9029,474.9022 524.0106,468.3013 513.6172,462.1294 501.8433,456.4526 488.826,451.3311 474.7168,446.8183 459.6802,442.9604 443.8911,439.7959 427.5329,437.3546 410.7951,435.6582 393.8708,434.7193 376.9548,434.5416 360.2403,435.12 343.9176,436.4407 328.171,438.4814 313.1768,441.2114 299.1014,444.5927 286.0993,448.5799 274.3111,453.1211 263.8625,458.1587 254.8623,463.6298 247.4017,469.4677 241.5535,475.6019 237.3711,481.9594 234.8884,488.466 234.1196,495.0464 235.0594,501.6256 237.6832,508.1296 241.9476,514.4865 247.7916,520.6268 255.1369,526.4847 263.8897,531.9984 273.9418,537.1107 285.1719,541.77 297.4471,545.9303 310.6249,549.552 324.5547,552.6016 339.0796,555.0528 354.038,556.8861 369.2658,558.0888 384.5978,558.6554 399.8695,558.5873 414.9191,557.8929 429.5888,556.5868 443.7261,554.6902 457.186,552.2303 469.8315,549.24 481.5355,545.7573 492.1814,541.825 501.6642,537.4902 509.8918,532.8039 516.7849,527.82 522.2784,522.5956 526.3212,517.1893 528.8771,511.6618 529.9246,506.0743 529.4571,500.4887 527.483,494.9665 524.0253,489.5684 519.1216,484.3541 512.8234,479.381" stroke="#333" stroke-width="0.8" fill="none"/>
  <polyline points="542.9426,472.6629 533.418,465.0998 522.2671,458.0058 509.6259,451.4556 495.6488,445.5169 480.507,440.2494 464.3861,435.7045 447.483,431.9239 430.0037,428.94 412.1603,426.7749 394.1679,425.4404 376.2419,424.9381 358.5951,425.2594 341.4347,426.3858 324.9596,428.2892 309.3582,430.9323 294.8054,434.2697 281.4613,438.2483 269.4687,442.8081 258.9515,447.8832 250.0139,453.4031 242.7392,459.2932 237.1887,465.4761 233.4023,471.8729 231.3976,478.4037 231.1704,484.9894 232.6958,491.5519 235.9285,498.0156 240.8038,504.3081 247.2394,510.3612 255.1369,516.1111 264.3827,521.4996 274.851,526.4744 286.4045,530.9896 298.8973,535.006 312.1764,538.4911 326.0838,541.4196 340.4584,543.7735 355.1381,545.5414 369.9614,546.7191 384.7693,547.309 399.4066,547.3198 413.7238,546.7663 427.5781,545.6692 440.8346,544.054 453.3674,541.9512 465.0604,539.3957 475.8081,536.4261 485.5163,533.0841 494.1019,529.4145 501.4942,525.4643 507.6341,521.2823 512.475,516.9187 515.9823,512.4247 518.1335,507.8519 518.918,503.252 518.3373,498.6766 516.4039,494.1765 513.1421,489.8017 508.5868,485.6006 502.7837,481.6204" stroke="#333" stroke-width="0.8" fill="none"/>
  <polyline points="552.9823,470.4235 542.8253,461.8982 530.917,453.8822 517.4084,446.4586 502.4716,439.7027 486.2973,433.6806 469.092,428.4485 451.0749,424.052 432.4746,420.5254 413.5255,417.8915 394.465,416.1614 375.5291,415.3346 356.9499,415.3988 338.9517,416.3309 321.7483,418.0969 305.5395,420.6532 290.5095,423.9467 276.8234,427.9167 264.6262,432.495 254.0405,437.6078 245.1656,443.1764 238.0766,449.1187 232.824,455.3504 229.4336,461.7863 227.9067,468.3414 228.2212,474.9324 230.3322,481.4782 234.1737,487.9016 239.6599,494.1298 246.6873,500.0955 255.1369,505.7374 264.8758,511.0008 275.7601,515.8381 287.6371,520.2093 300.3476,524.0816 313.7279,527.4302 327.6128,530.2377 341.8372,532.4941 356.2382,534.1967 370.657,535.3494 384.9408,535.9625 398.9437,536.0522 412.5285,535.6398 425.5675,534.7516 437.9431,533.4177 449.5487,531.6721 460.2892,529.5514 470.0808,527.0948 478.8512,524.3432 486.5397,521.3388 493.0966,518.1247 498.4833,514.7446 502.6716,511.2419 505.6433,507.66 507.3898,504.042 507.9115,500.4297 507.2174,496.8646 505.3249,493.3866 502.2589,490.0349 498.052,486.8472 492.7439,483.8598" stroke="#333" stroke-width="0.8" fill="none"/>
  <polyline points="482.7042,486.0991 492.7439,483.8598 502.7837,481.6204 512.8234,479.381 522.8631,477.1416 532.9029,474.9022 542.9426,472.6629 552.9823,470.4235" stroke="#999" stroke-width="0.5" fill="none"/>
  <polyline points="445.7656,479.6626 451.5559,473.0937 457.3461,466.5249 463.1363,459.956 468.9266,453.3871 474.7168,446.8183 480.507,440.2494 486.2973,433.6806" stroke="#999" stroke-width="0.5" fill="none"/>
  <polyline points="392.3855,481.1139 392.6825,471.835 392.9796,462.556 393.2767,453.2771 393.5738,443.9982 393.8708,434.7193 394.1679,425.4404 394.465,416.1614" stroke="#999" stroke-width="0.5" fill="none"/>
  <polyline points="332.2699,492.607 328.4513,482.3279 324.6326,472.0488 320.814,461.7697 316.9954,451.4905 313.1768,441.2114 309.3582,430.9323 305.5395,420.6532" stroke="#999" stroke-width="0.5" fill="none"/>
  <polyline points="279.104,514.7635 274.2557,504.5368 269.4073,494.31 264.559,484.0833 259.7106,473.8566 254.8623,463.6298 250.0139,453.4031 245.1656,443.1764" stroke="#999" stroke-width="0.5" fill="none"/>
  <polyline points="248.8656,545.3314 245.9164,535.2744 242.9672,525.2174 240.018,515.1604 237.0688,505.1034 234.1196,495.0464 231.1704,484.9894 228.2212,474.9324" stroke="#999" stroke-width="0.5" fill="none"/>
  <polyline points="255.1369,578.353 255.1369,567.9794 255.1369,557.6057 255.1369,547.232 255.1369,536.8584 255.1369,526.4847 255.1369,516.1111 255.1369,505.7374" stroke="#999" stroke-width="0.5" fill="none"/>
  <polyline points="302.8675,604.8564 304.419,593.7955 305.9704,582.7346 307.5219,571.6737 309.0734,560.6129 310.6249,549.552 312.1764,538.4911 313.7279,527.4302" stroke="#999" stroke-width="0.5" fill="none"/>
  <polyline points="383.7402,615.3875 383.9117,604.0411 384.0832,592.6946 384.2547,581.3482 384.4262,570.0018 384.5978,558.6554 384.7693,547.309 384.9408,535.9625" stroke="#999" stroke-width="0.5" fill="none"/>
  <polyline points="476.2791,603.626 472.4605,593.3468 468.6418,583.0677 464.8232,572.7886 461.0046,562.5095 457.186,552.2303 453.3674,541.9512 449.5487,531.6721" stroke="#999" stroke-width="0.5" fill="none"/>
  <polyline points="551.8797,569.5017 543.4821,562.1621 535.0846,554.8225 526.687,547.483 518.2894,540.1434 509.8918,532.8039 501.4942,525.4643 493.0966,518.1247" stroke="#999" stroke-width="0.5" fill="none"/>
  <polyline points="584.9574,520.1858 573.9509,517.3635 562.9443,514.5412 551.9377,511.7189 540.9312,508.8966 529.9246,506.0743 518.918,503.252 507.9115,500.4297" stroke="#999" stroke-width="0.5" fill="none"/>
</g>
</g>
  <g opacity="0.88">
  <g>
  <polyline points="500.1429,186.0522 496.6591,183.1271 492.5135,180.4063 487.7339,177.9177 482.3511,175.6887 476.3996,173.7463 469.9171,172.1167 462.9458,170.8256 455.5321,169.8978 447.7272,169.3571 439.5873,169.2259 431.174,169.5249 422.554,170.2725 413.7997,171.4847 404.9885,173.1741 396.2031,175.3497 387.5306,178.0165 379.0622,181.1743 370.8923,184.8179 363.1176,188.9363 355.8361,193.5121 349.1458,198.5216 343.1432,203.9343 337.9221,209.7127 333.5719,215.8123 330.1757,222.182 327.8093,228.764 326.5389,235.4943 326.4201,242.3034 327.4959,249.1168 329.7958,255.8557 333.3344,262.4385 338.1103,268.7812 344.1056,274.799 351.2851,280.4073 359.5963,285.5232 368.9693,290.0667 379.3173,293.9621 390.5371,297.1395 402.5104,299.5357 415.1046,301.0958 428.175,301.7741 441.5661,301.5354 455.1141,300.3556 468.6487,298.2223 481.9964,295.1357 494.9821,291.1088 507.4326,286.1673 519.1789,280.3498 530.0589,273.7071 539.9203,266.3022 548.6228,258.2092 556.0407,249.5123 562.0648,240.305 566.6046,230.6885 569.5897,220.7705 570.9708,210.6634 570.7214,200.4828 568.8374,190.346 565.3381,180.3696 560.2654,170.6683" stroke="#333" stroke-width="0.8" fill="none"/>
  <polyline points="507.6582,184.1292 503.7871,180.4054 499.159,176.9218 493.8114,173.7151 487.7867,170.8206 481.1324,168.2719 473.901,166.1007 466.15,164.3366 457.9419,163.007 449.344,162.1365 440.4286,161.7473 431.2727,161.8578 421.9574,162.4832 412.5684,163.6348 403.1945,165.3193 393.9282,167.5391 384.864,170.2912 376.0984,173.5674 367.7287,177.3538 359.852,181.6306 352.5641,186.3718 345.9587,191.5453 340.1254,197.1125 335.1492,203.0289 331.1087,209.2439 328.0749,215.701 326.1098,222.3386 325.2653,229.09 325.5818,235.8843 327.0871,242.6473 329.7958,249.3017 333.708,255.7688 338.8088,261.9689 345.0682,267.8224 352.4405,273.2514 360.8644,278.1802 370.2637,282.5368 380.5473,286.2542 391.61,289.271 403.3342,291.533 415.5903,292.994 428.2391,293.6165 441.1327,293.3727 454.117,292.2454 467.0334,290.2279 479.7215,287.325 492.0206,283.5528 503.7727,278.9389 514.8247,273.522 525.0304,267.3519 534.2532,260.4889 542.3678,253.0028 549.2626,244.9724 554.841,236.4843 559.0237,227.6317 561.7492,218.5133 562.9753,209.2319 562.6799,199.8929 560.8614,190.6027 557.5384,181.4675 552.7501,172.5913" stroke="#333" stroke-width="0.8" fill="none"/>
  <polyline points="515.1736,182.2062 510.9152,177.6837 505.8046,173.4372 499.889,169.5125 493.2223,165.9525 485.8653,162.7976 477.885,160.0847 469.3543,157.8477 460.3517,156.1161 450.9608,154.916 441.2699,154.2686 431.3713,154.1906 421.3608,154.6939 411.337,155.7848 401.4005,157.4645 391.6532,159.7284 382.1974,162.5658 373.1347,165.9605 364.5652,169.8897 356.5864,174.325 349.2922,179.2316 342.7716,184.5689 337.1075,190.2907 332.3762,196.3452 328.6455,202.6755 325.974,209.2201 324.4103,215.9132 323.9916,222.6856 324.7434,229.4652 326.6784,236.1778 329.7958,242.7477 334.0815,249.0992 339.5073,255.1566 346.0308,260.8459 353.5958,266.0955 362.1326,270.8372 371.5582,275.0069 381.7773,278.5462 392.6829,281.4025 404.158,283.5304 416.0761,284.8922 428.3032,285.4588 440.6992,285.2101 453.1198,284.1353 465.4181,282.2336 477.4465,279.5144 489.059,275.9968 500.1128,271.7104 510.4704,266.6941 520.0018,260.9967 528.586,254.6756 536.1127,247.7965 542.4844,240.4326 547.6173,232.6636 551.4428,224.5749 553.9087,216.2561 554.9798,207.8005 554.6385,199.303 552.8853,190.8595 549.7386,182.5654 545.2348,174.5143" stroke="#333" stroke-width="0.8" fill="none"/>
  <polyline points="522.6889,180.2832 518.0433,174.9619 512.4502,169.9527 505.9665,165.3098 498.6579,161.0844 490.5982,157.3232 481.8689,154.0688 472.5585,151.3587 462.7615,149.2253 452.5776,147.6954 442.1112,146.7899 431.47,146.5235 420.7643,146.9046 410.1057,147.9349 399.6065,149.6098 389.3783,151.9177 379.5308,154.8405 370.1709,158.3535 361.4016,162.4256 353.3208,167.0193 346.0203,172.0913 339.5845,177.5926 334.0897,183.4689 329.6033,189.6615 326.1823,196.1071 323.8732,202.7391 322.7108,209.4878 322.718,216.2812 323.9051,223.0461 326.2696,229.7083 329.7958,236.1937 334.4551,242.4295 340.2058,248.3442 346.9934,253.8693 354.7512,258.9396 363.4008,263.4942 372.8527,267.4771 383.0072,270.8382 393.7558,273.534 404.9818,275.5277 416.5618,276.7905 428.3672,277.3012 440.2658,277.0474 452.1227,276.0251 463.8028,274.2393 475.1716,271.7037 486.0974,268.4408 496.4528,264.4819 506.1162,259.8663 514.9733,254.6415 522.9188,248.8623 529.8577,242.5901 535.7063,235.8927 540.3935,228.8429 543.8618,221.518 546.0682,213.999 546.9842,206.3691 546.5971,198.7131 544.9092,191.1163 541.9389,183.6633 537.7195,176.4373" stroke="#333" stroke-width="0.8" fill="none"/>
  <polyline points="530.2042,178.3603 525.1713,172.2402 519.0958,166.4681 512.044,161.1072 504.0934,156.2163 495.331,151.8488 485.8529,148.0528 475.7628,144.8697 465.1713,142.3345 454.1944,140.4749 442.9525,139.3113 431.5687,138.8564 420.1677,139.1153 408.8744,140.085 397.8125,141.755 387.1034,144.107 376.8642,147.1152 367.2071,150.7466 358.2381,154.9615 350.0553,159.7136 342.7483,164.951 336.3973,170.6162 331.0719,176.6472 326.8303,182.9778 323.7191,189.5388 321.7723,196.2582 321.0113,203.0624 321.4444,209.8769 323.0668,216.627 325.8608,223.2388 329.7958,229.6397 334.8287,235.7598 340.9042,241.5319 347.956,246.8928 355.9066,251.7837 364.669,256.1512 374.1471,259.9472 384.2372,263.1303 394.8287,265.6655 405.8056,267.5251 417.0475,268.6887 428.4313,269.1436 439.8323,268.8847 451.1256,267.915 462.1875,266.245 472.8966,263.893 483.1358,260.8848 492.7929,257.2534 501.7619,253.0385 509.9447,248.2864 517.2517,243.049 523.6027,237.3838 528.9281,231.3528 533.1697,225.0222 536.2809,218.4612 538.2277,211.7418 538.9887,204.9376 538.5556,198.1231 536.9332,191.373 534.1392,184.7612 530.2042,178.3603" stroke="#333" stroke-width="0.8" fill="none"/>
  <polyline points="537.7195,176.4373 532.2994,169.5185 525.7413,162.9836 518.1216,156.9046 509.529,151.3481 500.0639,146.3745 489.8368,142.0368 478.967,138.3808 467.5811,135.4437 455.8112,133.2543 443.7938,131.8326 431.6673,131.1893 419.5711,131.326 407.643,132.2351 396.0185,133.9003 384.8284,136.2963 374.1975,139.3899 364.2434,143.1397 355.0745,147.4974 346.7897,152.408 339.4764,157.8107 333.2102,163.6399 328.0541,169.8254 324.0574,176.2941 321.2559,182.9704 319.6715,189.7772 319.3118,196.637 320.1707,203.4725 322.2285,210.2079 325.4521,216.7692 329.7958,223.0857 335.2022,229.0901 341.6027,234.7196 348.9185,239.9162 357.0619,244.6278 365.9371,248.8081 375.4416,252.4173 385.4672,255.4223 395.9016,257.797 406.6294,259.5225 417.5332,260.587 428.4954,260.986 439.3989,260.7221 450.1285,259.8048 460.5721,258.2506 470.6217,256.0823 480.1743,253.3288 489.1329,250.0249 497.4077,246.2107 504.9162,241.9312 511.5845,237.2357 517.3476,232.1774 522.15,226.813 525.9459,221.2015 528.7,215.4044 530.3872,209.4847 530.9932,203.5062 530.5142,197.5332 528.9571,191.6298 526.3394,185.8592 522.6889,180.2832" stroke="#333" stroke-width="0.8" fill="none"/>
  <polyline points="545.2348,174.5143 539.4275,166.7967 532.3869,159.499 524.1991,152.702 514.9646,146.48 504.7968,140.9001 493.8208,136.0209 482.1712,131.8918 469.9908,128.5529 457.428,126.0338 444.6351,124.354 431.766,123.5222 418.9745,123.5366 406.4117,124.3852 394.2245,126.0455 382.5535,128.4856 371.5309,131.6645 361.2796,135.5328 351.911,140.0333 343.5241,145.1023 336.2045,150.6705 330.0231,156.6635 325.0362,163.0036 321.2844,169.6104 318.7927,176.402 317.5706,183.2962 317.6123,190.2116 318.8971,197.0682 321.3902,203.7888 325.0433,210.2997 329.7958,216.5317 335.5758,222.4204 342.3012,227.9072 349.8811,232.9397 358.2173,237.472 367.2053,241.4651 376.7361,244.8874 386.6972,247.7143 396.9746,249.9285 407.4532,251.5198 418.0189,252.4852 428.5595,252.8283 438.9654,252.5594 449.1314,251.6947 458.9568,250.2563 468.3468,248.2716 477.2127,245.7728 485.473,242.7964 493.0534,239.3829 499.8877,235.576 505.9173,231.4224 511.0926,226.9711 515.3718,222.2731 518.7221,217.3808 521.119,212.3476 522.5467,207.2275 522.9977,202.0747 522.4728,196.9433 520.9811,191.8865 518.5397,186.9571 515.1736,182.2062" stroke="#333" stroke-width="0.8" fill="none"/>
  <polyline points="552.7501,172.5913 546.5555,164.075 539.0325,156.0145 530.2767,148.4993 520.4002,141.6119 509.5297,135.4258 497.8047,130.0049 485.3755,125.4029 472.4006,121.662 459.0448,118.8132 445.4764,116.8753 431.8647,115.8551 418.3779,115.7473 405.1804,116.5353 392.4306,118.1907 380.2785,120.675 368.8643,123.9392 358.3158,127.9258 348.7474,132.5692 340.2585,137.7967 332.9325,143.5302 326.836,149.6872 322.0184,156.1818 318.5115,162.9267 316.3295,169.8336 315.4697,176.8153 315.9128,183.7862 317.6235,190.6638 320.5519,197.3697 324.6345,203.8302 329.7958,209.9777 335.9494,215.7507 342.9997,221.0949 350.8437,225.9631 359.3727,230.3161 368.4735,234.1221 378.0305,237.3576 387.9272,240.0064 398.0475,242.06 408.277,243.5172 418.5046,244.3834 428.6236,244.6707 438.532,244.3967 448.1343,243.5846 457.3415,242.262 466.0718,240.4609 474.2511,238.2168 481.813,235.5679 488.6992,232.555 494.8591,229.2208 500.2502,225.6091 504.8375,221.7648 508.5937,217.7333 511.4983,213.5601 513.5381,209.2908 514.7062,204.9704 515.0021,200.6433 514.4313,196.3533 513.005,192.1433 510.74,188.055 507.6582,184.1292" stroke="#333" stroke-width="0.8" fill="none"/>
  <polyline points="500.1429,186.0522 507.6582,184.1292 515.1736,182.2062 522.6889,180.2832 530.2042,178.3603 537.7195,176.4373 545.2348,174.5143 552.7501,172.5913" stroke="#999" stroke-width="0.5" fill="none"/>
  <polyline points="476.3996,173.7463 481.1324,168.2719 485.8653,162.7976 490.5982,157.3232 495.331,151.8488 500.0639,146.3745 504.7968,140.9001 509.5297,135.4258" stroke="#999" stroke-width="0.5" fill="none"/>
  <polyline points="439.5873,169.2259 440.4286,161.7473 441.2699,154.2686 442.1112,146.7899 442.9525,139.3113 443.7938,131.8326 444.6351,124.354 445.4764,116.8753" stroke="#999" stroke-width="0.5" fill="none"/>
  <polyline points="396.2031,175.3497 393.9282,167.5391 391.6532,159.7284 389.3783,151.9177 387.1034,144.107 384.8284,136.2963 382.5535,128.4856 380.2785,120.675" stroke="#999" stroke-width="0.5" fill="none"/>
  <polyline points="355.8361,193.5121 352.5641,186.3718 349.2922,179.2316 346.0203,172.0913 342.7483,164.951 339.4764,157.8107 336.2045,150.6705 332.9325,143.5302" stroke="#999" stroke-width="0.5" fill="none"/>
  <polyline points="330.1757,222.182 328.0749,215.701 325.974,209.2201 323.8732,202.7391 321.7723,196.2582 319.6715,189.7772 317.5706,183.2962 315.4697,176.8153" stroke="#999" stroke-width="0.5" fill="none"/>
  <polyline points="329.7958,255.8557 329.7958,249.3017 329.7958,242.7477 329.7958,236.1937 329.7958,229.6397 329.7958,223.0857 329.7958,216.5317 329.7958,209.9777" stroke="#999" stroke-width="0.5" fill="none"/>
  <polyline points="359.5963,285.5232 360.8644,278.1802 362.1326,270.8372 363.4008,263.4942 364.669,256.1512 365.9371,248.8081 367.2053,241.4651 368.4735,234.1221" stroke="#999" stroke-width="0.5" fill="none"/>
  <polyline points="415.1046,301.0958 415.5903,292.994 416.0761,284.8922 416.5618,276.7905 417.0475,268.6887 417.5332,260.587 418.0189,252.4852 418.5046,244.3834" stroke="#999" stroke-width="0.5" fill="none"/>
  <polyline points="481.9964,295.1357 479.7215,287.325 477.4465,279.5144 475.1716,271.7037 472.8966,263.893 470.6217,256.0823 468.3468,248.2716 466.0718,240.4609" stroke="#999" stroke-width="0.5" fill="none"/>
  <polyline points="539.9203,266.3022 534.2532,260.4889 528.586,254.6756 522.9188,248.8623 517.2517,243.049 511.5845,237.2357 505.9173,231.4224 500.2502,225.6091" stroke="#999" stroke-width="0.5" fill="none"/>
  <polyline points="569.5897,220.7705 561.7492,218.5133 553.9087,216.2561 546.0682,213.999 538.2277,211.7418 530.3872,209.4847 522.5467,207.2275 514.7062,204.9704" stroke="#999" stroke-width="0.5" fill="none"/>
</g>
</g>
  <g transform="rotate(-177.3,400,400)">
  <g>
  <circle cx="288.5" cy="311" r="181" fill="none" stroke="#333" stroke-width="1.5"/>
  <circle cx="469.5" cy="311" r="181" fill="none" stroke="#333" stroke-width="1.5"/>
</g>
</g>
  <g opacity="0.91">
  <g>
  <line x1="420" y1="729" x2="382.6828" y2="525.3915" stroke="#333" stroke-width="1.5"/>
  <g>
  <line x1="382.6828" y1="525.3915" x2="299.7909" y2="427.9451" stroke="#333" stroke-width="1.5"/>
  <g>
  <line x1="299.7909" y1="427.9451" x2="225.3118" y2="401.4036" stroke="#333" stroke-width="1.5"/>
  <g>
  <line x1="225.3118" y1="401.4036" x2="177.2464" y2="410.213" stroke="#333" stroke-width="1.5"/>
</g>
  <g>
  <line x1="225.3118" y1="401.4036" x2="193.6499" y2="364.1824" stroke="#333" stroke-width="1.5"/>
</g>
</g>
  <g>
  <line x1="299.7909" y1="427.9451" x2="285.537" y2="350.1736" stroke="#333" stroke-width="1.5"/>
  <g>
  <line x1="285.537" y1="350.1736" x2="253.8751" y2="312.9524" stroke="#333" stroke-width="1.5"/>
</g>
  <g>
  <line x1="285.537" y1="350.1736" x2="301.9406" y2="304.143" stroke="#333" stroke-width="1.5"/>
</g>
</g>
</g>
  <g>
  <line x1="382.6828" y1="525.3915" x2="425.6279" y2="404.8818" stroke="#333" stroke-width="1.5"/>
  <g>
  <line x1="425.6279" y1="404.8818" x2="411.374" y2="327.1103" stroke="#333" stroke-width="1.5"/>
  <g>
  <line x1="411.374" y1="327.1103" x2="379.7121" y2="289.8891" stroke="#333" stroke-width="1.5"/>
</g>
  <g>
  <line x1="411.374" y1="327.1103" x2="427.7775" y2="281.0797" stroke="#333" stroke-width="1.5"/>
</g>
</g>
  <g>
  <line x1="425.6279" y1="404.8818" x2="485.8531" y2="353.6518" stroke="#333" stroke-width="1.5"/>
  <g>
  <line x1="485.8531" y1="353.6518" x2="502.2566" y2="307.6212" stroke="#333" stroke-width="1.5"/>
</g>
  <g>
  <line x1="485.8531" y1="353.6518" x2="533.9185" y2="344.8424" stroke="#333" stroke-width="1.5"/>
</g>
</g>
</g>
</g>
</g>
</svg>