<svg xmlns="http://www.w3.org/2000/svg" width="800" height="800" viewBox="0 0 800 800">
  <g opacity="0.89">
  <g transform="rotate(-67.5,400,400)">
  <g>
  <circle cx="160" cy="151" r="3" fill="#333"/>
  <circle cx="208" cy="151" r="3" fill="#333"/>
  <circle cx="256" cy="151" r="3" fill="#333"/>
  <circle cx="184" cy="192.5692" r="3" fill="#333"/>
  <circle cx="232" cy="192.5692" r="3" fill="#333"/>
  <circle cx="280" cy="192.5692" r="3" fill="#333"/>
  <circle cx="160" cy="234.1384" r="3" fill="#333"/>
  <circle cx="208" cy="234.1384" r="3" fill="#333"/>
  <circle cx="256" cy="234.1384" r="3" fill="#333"/>
  <circle cx="184" cy="275.7077" r="3" fill="#333"/>
  <circle cx="232" cy="275.7077" r="3" fill="#333"/>
  <circle cx="280" cy="275.7077" r="3" fill="#333"/>
  <circle cx="160" cy="317.2769" r="3" fill="#333"/>
  <circle cx="208" cy="317.2769" r="3" fill="#333"/>
  <circle cx="256" cy="317.2769" r="3" fill="#333"/>
  <circle cx="184" cy="358.8461" r="3" fill="#333"/>
  <circle cx="232" cy="358.8461" r="3" fill="#333"/>
  <circle cx="280" cy="358.8461" r="3" fill="#333"/>
</g>
</g>
</g>
  <g>
  <circle cx="453" cy="241" r="99" stroke="#333" stroke-width="2" fill="#333" fill-opacity="0.05"/>
  <circle cx="453" cy="161.8" r="7.92" fill="#333" stroke="#fff" stroke-width="1"/>
  <text x="450" y="165.8" font-size="9" fill="#fff" font-weight="bold">1</text>
  <circle cx="521.5892" cy="201.4" r="7.92" fill="#333" stroke="#fff" stroke-width="1"/>
  <text x="518.5892" y="205.4" font-size="9" fill="#fff" font-weight="bold">2</text>
  <circle cx="521.5892" cy="280.6" r="7.92" fill="#333" stroke="#fff" stroke-width="1"/>
  <text x="518.5892" y="284.6" font-size="9" fill="#fff" font-weight="bold">3</text>
  <circle cx="453" cy="320.2" r="7.92" fill="#333" stroke="#fff" stroke-width="1"/>
  <text x="450" y="324.2" font-size="9" fill="#fff" font-weight="bold">4</text>
  <circle cx="384.4108" cy="280.6" r="7.92" fill="#333" stroke="#fff" stroke-width="1"/>
  <text x="381.4108" y="284.6" font-size="9" fill="#fff" font-weight="bold">5</text>
  <circle cx="384.4108" cy="201.4" r="7.92" fill="#333" stroke="#fff" stroke-width="1"/>
  <text x="381.4108" y="205.4" font-size="9" fill="#fff" font-weight="bold">6</text>
  <path d="M 453,161.8 Q 494.58,168.9813 521.5892,201.4" stroke="#333" stroke-width="1" fill="none"/>
  <path d="M 521.5892,201.4 Q 536.16,241 521.5892,280.6" stroke="#333" stroke-width="1" fill="none"/>
  <path d="M 521.5892,280.6 Q 494.58,313.0187 453,320.2" stroke="#333" stroke-width="1" fill="none"/>
  <path d="M 453,320.2 Q 411.42,313.0187 384.4108,280.6" stroke="#333" stroke-width="1" fill="none"/>
  <path d="M 384.4108,280.6 Q 369.84,241 384.4108,201.4" stroke="#333" stroke-width="1" fill="none"/>
  <path d="M 384.4108,201.4 Q 494.58,313.0187 453,161.8" stroke="#333" stroke-width="1" fill="none"/>
  <text x="445" y="245" font-size="14" fill="#333" font-weight="bold">W6</text>
</g>
  <g>
  <circle cx="319" cy="326" r="12.8041" stroke="#e74c3c" stroke-width="2" fill="#e74c3c" fill-opacity="0.08"/>
  <circle cx="331.8041" cy="326" r="3" fill="#e74c3c" stroke="none"/>
  <circle cx="312.5979" cy="314.9113" r="3" fill="#e74c3c" stroke="none"/>
  <circle cx="312.5979" cy="337.0887" r="3" fill="#e74c3c" stroke="none"/>
  <text x="339.8041" y="330" font-size="10" fill="#e74c3c">3D c3 seed</text>
  <circle cx="319" cy="326" r="20.7175" stroke="#e67e22" stroke-width="2" fill="#e67e22" fill-opacity="0.08"/>
  <circle cx="339.7175" cy="326" r="3" fill="#e67e22" stroke="none"/>
  <circle cx="319" cy="305.2825" r="3" fill="#e67e22" stroke="none"/>
  <circle cx="298.2825" cy="326" r="3" fill="#e67e22" stroke="none"/>
  <circle cx="319" cy="346.7175" r="3" fill="#e67e22" stroke="none"/>
  <text x="347.7175" y="330" font-size="10" fill="#e67e22">4D E4 base</text>
  <circle cx="319" cy="326" r="33.5217" stroke="#f1c40f" stroke-width="2" fill="#f1c40f" fill-opacity="0.08"/>
  <circle cx="352.5217" cy="326" r="3" fill="#f1c40f" stroke="none"/>
  <circle cx="335.7608" cy="296.9694" r="3" fill="#f1c40f" stroke="none"/>
  <circle cx="302.2392" cy="296.9694" r="3" fill="#f1c40f" stroke="none"/>
  <circle cx="285.4783" cy="326" r="3" fill="#f1c40f" stroke="none"/>
  <circle cx="302.2392" cy="355.0306" r="3" fill="#f1c40f" stroke="none"/>
  <circle cx="335.7608" cy="355.0306" r="3" fill="#f1c40f" stroke="none"/>
  <text x="360.5217" y="330" font-size="10" fill="#f1c40f">6D W3 Mobius</text>
  <circle cx="319" cy="326" r="54.2392" stroke="#2ecc71" stroke-width="2" fill="#2ecc71" fill-opacity="0.08"/>
  <circle cx="373.2392" cy="326" r="3" fill="#2ecc71" stroke="none"/>
  <circle cx="357.3529" cy="287.6471" r="3" fill="#2ecc71" stroke="none"/>
  <circle cx="319" cy="271.7608" r="3" fill="#2ecc71" stroke="none"/>
  <circle cx="280.6471" cy="287.6471" r="3" fill="#2ecc71" stroke="none"/>
  <circle cx="264.7608" cy="326" r="3" fill="#2ecc71" stroke="none"/>
  <circle cx="280.6471" cy="364.3529" r="3" fill="#2ecc71" stroke="none"/>
  <circle cx="319" cy="380.2392" r="3" fill="#2ecc71" stroke="none"/>
  <circle cx="357.3529" cy="364.3529" r="3" fill="#2ecc71" stroke="none"/>
  <text x="381.2392" y="330" font-size="10" fill="#2ecc71">8D W5 penta</text>
  <circle cx="319" cy="326" r="87.7608" stroke="#3498db" stroke-width="2" fill="#3498db" fill-opacity="0.08"/>
  <circle cx="406.7608" cy="326" r="3" fill="#3498db" stroke="none"/>
  <circle cx="390" cy="274.4155" r="3" fill="#3498db" stroke="none"/>
  <circle cx="346.1196" cy="242.5345" r="3" fill="#3498db" stroke="none"/>
  <circle cx="291.8804" cy="242.5345" r="3" fill="#3498db" stroke="none"/>
  <circle cx="248" cy="274.4155" r="3" fill="#3498db" stroke="none"/>
  <circle cx="231.2392" cy="326" r="3" fill="#3498db" stroke="none"/>
  <circle cx="248" cy="377.5845" r="3" fill="#3498db" stroke="none"/>
  <circle cx="291.8804" cy="409.4655" r="3" fill="#3498db" stroke="none"/>
  <circle cx="346.1196" cy="409.4655" r="3" fill="#3498db" stroke="none"/>
  <circle cx="390" cy="377.5845" r="3" fill="#3498db" stroke="none"/>
  <text x="414.7608" y="330" font-size="10" fill="#3498db">10D W7 hepta</text>
  <circle cx="319" cy="326" r="142" stroke="#9b59b6" stroke-width="2" fill="#9b59b6" fill-opacity="0.08"/>
  <circle cx="461" cy="326" r="3" fill="#9b59b6" stroke="none"/>
  <circle cx="441.9756" cy="255" r="3" fill="#9b59b6" stroke="none"/>
  <circle cx="390" cy="203.0244" r="3" fill="#9b59b6" stroke="none"/>
  <circle cx="319" cy="184" r="3" fill="#9b59b6" stroke="none"/>
  <circle cx="248" cy="203.0244" r="3" fill="#9b59b6" stroke="none"/>
  <circle cx="196.0244" cy="255" r="3" fill="#9b59b6" stroke="none"/>
  <circle cx="177" cy="326" r="3" fill="#9b59b6" stroke="none"/>
  <circle cx="196.0244" cy="397" r="3" fill="#9b59b6" stroke="none"/>
  <circle cx="248" cy="448.9756" r="3" fill="#9b59b6" stroke="none"/>
  <circle cx="319" cy="468" r="3" fill="#9b59b6" stroke="none"/>
  <circle cx="390" cy="448.9756" r="3" fill="#9b59b6" stroke="none"/>
  <circle cx="441.9756" cy="397" r="3" fill="#9b59b6" stroke="none"/>
  <text x="469" y="330" font-size="10" fill="#9b59b6">12D W9 crown</text>
</g>
  <g>
  <polyline points="482.6038,200.4495 478.313,200.4876 473.4796,200.6262 468.1371,200.872 462.3217,201.2315 456.0725,201.7106 449.4318,202.3152 442.4453,203.0506 435.1626,203.9217 427.6371,204.9329 419.9266,206.0881 412.093,207.39 404.2024,208.8407 396.3252,210.4411 388.5356,212.1906 380.9115,214.0874 373.5334,216.1277 366.4846,218.3061 359.8496,220.615 353.7134,223.0448 348.1606,225.5835 343.2738,228.2168 339.1327,230.928 335.8125,233.6982 333.3824,236.506 331.9043,239.3278 331.4316,242.1381 332.0075,244.9095 333.6635,247.6131 336.4192,250.2186 340.2802,252.695 345.238,255.011 351.269,257.1348 358.3344,259.0355 366.3797,260.6829 375.3352,262.0483 385.1164,263.1051 395.6244,263.8288 406.7469,264.1981 418.3599,264.1949 430.3286,263.805 442.5095,263.0182 454.7524,261.8287 466.902,260.2356 478.801,258.2427 490.2916,255.8586 501.2186,253.0972 511.4315,249.9769 520.787,246.521 529.1517,242.7575 536.4036,238.7184 542.435,234.4394 547.1536,229.9598 550.485,225.3216 552.3732,220.5691 552.7823,215.7484 551.6969,210.9064 549.1226,206.0904 545.086,201.3475 539.6346,196.7237 532.8357,192.2633" stroke="#333" stroke-width="0.8" fill="none"/>
  <polyline points="488.8828,199.4262 484.1209,198.9277 478.7396,198.5477 472.7833,198.2965 466.3006,198.1838 459.344,198.2183 451.97,198.4078 444.2393,198.7593 436.2161,199.2787 427.9689,199.9706 419.5692,200.8387 411.0923,201.8852 402.6162,203.1107 394.2217,204.5143 385.9919,206.0936 378.0111,207.8441 370.3647,209.7595 363.1381,211.8314 356.4161,214.0494 350.2816,216.4009 344.8147,218.8712 340.0917,221.4432 336.184,224.0981 333.1567,226.8147 331.0676,229.5699 329.9661,232.3391 329.8922,235.0959 330.875,237.8126 332.9324,240.4606 336.07,243.0104 340.2802,245.4322 345.5424,247.6962 351.8219,249.773 359.0703,251.6341 367.2254,253.2519 376.2118,254.6009 385.9411,255.6574 396.313,256.4002 407.216,256.8112 418.5289,256.8753 430.1222,256.5811 441.8596,255.921 453.5999,254.8914 465.1987,253.4932 476.5106,251.7314 487.3912,249.6154 497.6993,247.1592 507.2989,244.3808 516.0613,241.3026 523.8672,237.9508 530.6084,234.3552 536.1898,230.5489 540.5308,226.5677 543.5664,222.4502 545.2491,218.2364 545.5489,213.9681 544.4542,209.6875 541.9725,205.4374 538.1297,201.2599 532.9704,197.1964 526.5567,193.2866" stroke="#333" stroke-width="0.8" fill="none"/>
  <polyline points="495.1618,198.403 489.9287,197.3678 483.9996,196.4692 477.4296,195.7211 470.2795,195.1362 462.6155,194.726 454.5082,194.5005 446.0332,194.4681 437.2697,194.6356 428.3006,195.0083 419.2118,195.5894 410.0915,196.3803 401.0299,197.3806 392.1183,198.5876 383.4481,199.9966 375.1107,201.6009 367.1959,203.3913 359.7917,205.3567 352.9827,207.4838 346.8498,209.7571 341.4689,212.1589 336.9097,214.6697 333.2353,217.2682 330.5009,219.9311 328.7528,222.6338 328.0279,225.3503 328.3527,228.0536 329.7425,230.7157 332.2013,233.3081 335.7207,235.8021 340.2802,238.1693 345.8468,240.3815 352.3747,242.4113 359.8062,244.2327 368.0712,245.8209 377.0884,247.1534 386.7659,248.2096 397.0016,248.9716 407.685,249.4242 418.6979,249.5556 429.9158,249.3571 441.2097,248.8237 452.4474,247.9541 463.4953,246.7508 474.2202,245.22 484.4908,243.3721 494.1801,241.2211 503.1664,238.7847 511.3356,236.0842 518.5827,233.1441 524.8132,229.992 529.9447,226.6584 533.9079,223.1757 536.6479,219.5788 538.125,215.9038 538.3154,212.1878 537.2116,208.4686 534.8225,204.7843 531.1735,201.1722 526.3062,197.669 520.2777,194.3099" stroke="#333" stroke-width="0.8" fill="none"/>
  <polyline points="501.4408,197.3797 495.7366,195.8079 489.2596,194.3907 482.0758,193.1456 474.2584,192.0886 465.8869,191.2338 457.0465,190.5932 447.8272,190.1769 438.3233,189.9926 428.6323,190.046 418.8543,190.3401 409.0908,190.8755 399.4437,191.6505 390.0148,192.6608 380.9044,193.8996 372.2103,195.3576 364.0272,197.0231 356.4452,198.8821 349.5493,200.9183 343.418,203.1132 338.123,205.4466 333.7276,207.8962 330.2866,210.4382 327.8451,213.0475 326.4381,215.6977 326.0897,218.3616 326.8132,221.0113 328.6101,223.6187 331.4702,226.1556 335.3715,228.5939 340.2802,230.9064 346.1512,233.0667 352.9276,235.0495 360.542,236.8312 368.9169,238.39 377.965,239.706 387.5906,240.7619 397.6903,241.543 408.1541,242.0373 418.8669,242.236 429.7095,242.1332 440.5599,241.7265 451.295,241.0168 461.792,240.0083 471.9298,238.7087 481.5904,237.1289 490.6608,235.2831 499.0338,233.1887 506.6099,230.8658 513.2982,228.3374 519.0181,225.6289 523.6996,222.7679 527.285,219.7837 529.7293,216.7074 531.0008,213.5711 531.0819,210.4074 529.9689,207.2498 527.6724,204.1313 524.2172,201.0846 519.642,198.1417 513.9987,195.3332" stroke="#333" stroke-width="0.8" fill="none"/>
  <polyline points="507.7198,196.3564 501.5445,194.248 494.5196,192.3122 486.7221,190.5702 478.2374,189.041 469.1584,187.7415 459.5847,186.6858 449.6211,185.8856 439.3768,185.3496 428.964,185.0837 418.4969,185.0907 408.09,185.3707 397.8575,185.9205 387.9114,186.7341 378.3606,187.8026 369.3099,189.1144 360.8584,190.6549 353.0987,192.4074 346.1158,194.3527 339.9863,196.4694 334.7771,198.7343 330.5456,201.1227 327.3379,203.6083 325.1893,206.1639 324.1233,208.7616 324.1515,211.3729 325.2737,213.9691 327.4776,216.5218 330.739,219.0031 335.0222,221.3857 340.2802,223.6436 346.4555,225.752 353.4804,227.6878 361.2779,229.4298 369.7626,230.959 378.8416,232.2585 388.4153,233.3142 398.3789,234.1144 408.6232,234.6504 419.036,234.9163 429.5031,234.9093 439.91,234.6293 450.1425,234.0795 460.0886,233.2659 469.6394,232.1974 478.6901,230.8856 487.1416,229.3451 494.9013,227.5926 501.8842,225.6473 508.0137,223.5306 513.2229,221.2657 517.4544,218.8773 520.6621,216.3917 522.8107,213.8361 523.8767,211.2384 523.8485,208.6271 522.7263,206.0309 520.5224,203.4782 517.261,200.9969 512.9778,198.6143 507.7198,196.3564" stroke="#333" stroke-width="0.8" fill="none"/>
  <polyline points="513.9987,195.3332 507.3523,192.6881 499.7796,190.2337 491.3683,187.9947 482.2163,185.9934 472.4299,184.2492 462.1229,182.7785 451.4151,181.5944 440.4304,180.7066 429.2958,180.1213 418.1395,179.8414 407.0893,179.8658 396.2713,180.1904 385.8079,180.8074 375.8169,181.7056 366.4096,182.8711 357.6897,184.2867 349.7523,185.9328 342.6824,187.7871 336.5545,189.8255 331.4313,192.022 327.3635,194.3491 324.3892,196.7783 322.5335,199.2804 321.8085,201.8255 322.2133,204.3841 323.7343,206.9268 326.3452,209.4249 330.0079,211.8506 334.6729,214.1775 340.2802,216.3807 346.7599,218.4372 354.0333,220.3261 362.0138,222.0284 370.6084,223.528 379.7182,224.811 389.24,225.8664 399.0675,226.6858 409.0923,227.2635 419.205,227.5967 429.2967,227.6854 439.2601,227.5321 448.99,227.1422 458.3853,226.5235 467.349,225.686 475.7897,224.6424 483.6223,223.4071 490.7687,221.9965 497.1584,220.4289 502.7293,218.7239 507.4277,216.9025 511.2093,214.9868 514.0392,212.9997 515.8921,210.9647 516.7526,208.9057 516.615,206.8468 515.4836,204.8121 513.3723,202.8252 510.3047,200.9093 506.3136,199.087 501.4408,197.3797" stroke="#333" stroke-width="0.8" fill="none"/>
  <polyline points="520.2777,194.3099 513.1602,191.1282 505.0396,188.1552 496.0145,185.4193 486.1952,182.9458 475.7014,180.7569 464.6612,178.8712 453.209,177.3032 441.4839,176.0636 429.6275,175.159 417.782,174.592 406.0886,174.361 394.685,174.4604 383.7044,174.8806 373.2731,175.6086 363.5092,176.6279 354.5209,177.9185 346.4058,179.4581 339.249,181.2215 333.1227,183.1817 328.0854,185.3097 324.1815,187.5756 321.4405,189.9484 319.8777,192.3968 319.4937,194.8894 320.2751,197.3954 322.1948,199.8845 325.2127,202.3279 329.2768,204.6981 334.3237,206.9692 340.2802,209.1178 347.0643,211.1225 354.5861,212.9643 362.7497,214.627 371.4541,216.097 380.5948,217.3636 390.0647,218.4187 399.7562,219.2572 409.5613,219.8765 419.374,220.277 429.0904,220.4614 438.6102,220.4349 447.8376,220.2049 456.6819,219.781 465.0586,219.1747 472.8893,218.3991 480.1031,217.469 486.6362,216.4004 492.4327,215.2105 497.4448,213.9172 501.6325,212.5394 504.9641,211.0963 507.4163,209.6077 508.9735,208.0933 509.6285,206.573 509.3815,205.0665 508.2409,203.5932 506.2223,202.1721 503.3485,200.8216 499.6494,199.5596 495.1618,198.403" stroke="#333" stroke-width="0.8" fill="none"/>
  <polyline points="526.5567,193.2866 518.9681,189.5684 510.2996,186.0767 500.6608,182.8438 490.1741,179.8982 478.9728,177.2647 467.1994,174.9639 455.003,173.0119 442.5375,171.4206 429.9592,170.1967 417.4246,169.3427 405.0878,168.8562 393.0988,168.7303 381.601,168.9539 370.7294,169.5116 360.6088,170.3846 351.3522,171.5503 343.0593,172.9834 335.8155,174.6559 329.6909,176.5378 324.7396,178.5974 320.9994,180.8021 318.4918,183.1185 317.2219,185.5132 317.179,187.9533 318.3369,190.4066 320.6553,192.8423 324.0803,195.231 328.5456,197.5456 333.9744,199.761 340.2802,201.855 347.3687,203.8078 355.139,205.6026 363.4856,207.2256 372.2999,208.6661 381.4714,209.9161 390.8895,210.971 400.4448,211.8286 410.0304,212.4896 419.543,212.9574 428.884,213.2375 437.9603,213.3377 446.6851,213.2676 454.9786,213.0386 462.7682,212.6634 469.9889,212.1559 476.5838,211.531 482.5036,210.8044 487.707,209.992 492.1603,209.1105 495.8373,208.1762 498.719,207.2058 500.7934,206.2157 502.055,205.2219 502.5043,204.2403 502.1481,203.2862 500.9983,202.3743 499.0722,201.5191 496.3922,200.734 492.9852,200.0323 488.8828,199.4262" stroke="#333" stroke-width="0.8" fill="none"/>
  <polyline points="482.6038,200.4495 488.8828,199.4262 495.1618,198.403 501.4408,197.3797 507.7198,196.3564 513.9987,195.3332 520.2777,194.3099 526.5567,193.2866" stroke="#999" stroke-width="0.5" fill="none"/>
  <polyline points="456.0725,201.7106 459.344,198.2183 462.6155,194.726 465.8869,191.2338 469.1584,187.7415 472.4299,184.2492 475.7014,180.7569 478.9728,177.2647" stroke="#999" stroke-width="0.5" fill="none"/>
  <polyline points="419.9266,206.0881 419.5692,200.8387 419.2118,195.5894 418.8543,190.3401 418.4969,185.0907 418.1395,179.8414 417.782,174.592 417.4246,169.3427" stroke="#999" stroke-width="0.5" fill="none"/>
  <polyline points="380.9115,214.0874 378.0111,207.8441 375.1107,201.6009 372.2103,195.3576 369.3099,189.1144 366.4096,182.8711 363.5092,176.6279 360.6088,170.3846" stroke="#999" stroke-width="0.5" fill="none"/>
  <polyline points="348.1606,225.5835 344.8147,218.8712 341.4689,212.1589 338.123,205.4466 334.7771,198.7343 331.4313,192.022 328.0854,185.3097 324.7396,178.5974" stroke="#999" stroke-width="0.5" fill="none"/>
  <polyline points="331.9043,239.3278 329.9661,232.3391 328.0279,225.3503 326.0897,218.3616 324.1515,211.3729 322.2133,204.3841 320.2751,197.3954 318.3369,190.4066" stroke="#999" stroke-width="0.5" fill="none"/>
  <polyline points="340.2802,252.695 340.2802,245.4322 340.2802,238.1693 340.2802,230.9064 340.2802,223.6436 340.2802,216.3807 340.2802,209.1178 340.2802,201.855" stroke="#999" stroke-width="0.5" fill="none"/>
  <polyline points="375.3352,262.0483 376.2118,254.6009 377.0884,247.1534 377.965,239.706 378.8416,232.2585 379.7182,224.811 380.5948,217.3636 381.4714,209.9161" stroke="#999" stroke-width="0.5" fill="none"/>
  <polyline points="430.3286,263.805 430.1222,256.5811 429.9158,249.3571 429.7095,242.1332 429.5031,234.9093 429.2967,227.6854 429.0904,220.4614 428.884,213.2375" stroke="#999" stroke-width="0.5" fill="none"/>
  <polyline points="490.2916,255.8586 487.3912,249.6154 484.4908,243.3721 481.5904,237.1289 478.6901,230.8856 475.7897,224.6424 472.8893,218.3991 469.9889,212.1559" stroke="#999" stroke-width="0.5" fill="none"/>
  <polyline points="536.4036,238.7184 530.6084,234.3552 524.8132,229.992 519.0181,225.6289 513.2229,221.2657 507.4277,216.9025 501.6325,212.5394 495.8373,208.1762" stroke="#999" stroke-width="0.5" fill="none"/>
  <polyline points="552.7823,215.7484 545.5489,213.9681 538.3154,212.1878 531.0819,210.4074 523.8485,208.6271 516.615,206.8468 509.3815,205.0665 502.1481,203.2862" stroke="#999" stroke-width="0.5" fill="none"/>
</g>
  <g transform="rotate(60.9,400,400)">
  <g>
  <line x1="511" y1="499" x2="689" y2="499" stroke="#999" stroke-width="0.5"/>
  <line x1="511" y1="499" x2="600" y2="653.1525" stroke="#999" stroke-width="0.5"/>
  <line x1="511" y1="499" x2="422" y2="653.1525" stroke="#999" stroke-width="0.5"/>
  <line x1="511" y1="499" x2="333" y2="499" stroke="#999" stroke-width="0.5"/>
  <line x1="511" y1="499" x2="422" y2="344.8475" stroke="#999" stroke-width="0.5"/>
  <line x1="511" y1="499" x2="600" y2="344.8475" stroke="#999" stroke-width="0.5"/>
  <line x1="511" y1="499" x2="819.305" y2="677" stroke="#999" stroke-width="0.5"/>
  <line x1="511" y1="499" x2="511" y2="855" stroke="#999" stroke-width="0.5"/>
  <line x1="511" y1="499" x2="202.695" y2="677" stroke="#999" stroke-width="0.5"/>
  <line x1="511" y1="499" x2="202.695" y2="321" stroke="#999" stroke-width="0.5"/>
  <line x1="511" y1="499" x2="511" y2="143" stroke="#999" stroke-width="0.5"/>
  <line x1="511" y1="499" x2="819.305" y2="321" stroke="#999" stroke-width="0.5"/>
  <line x1="689" y1="499" x2="600" y2="653.1525" stroke="#999" stroke-width="0.5"/>
  <line x1="689" y1="499" x2="422" y2="653.1525" stroke="#999" stroke-width="0.5"/>
  <line x1="689" y1="499" x2="333" y2="499" stroke="#999" stroke-width="0.5"/>
  <line x1="689" y1="499" x2="422" y2="344.8475" stroke="#999" stroke-width="0.5"/>
  <line x1="689" y1="499" x2="600" y2="344.8475" stroke="#999" stroke-width="0.5"/>
  <line x1="689" y1="499" x2="819.305" y2="677" stroke="#999" stroke-width="0.5"/>
  <line x1="689" y1="499" x2="511" y2="855" stroke="#999" stroke-width="0.5"/>
  <line x1="689" y1="499" x2="202.695" y2="677" stroke="#999" stroke-width="0.5"/>
  <line x1="689" y1="499" x2="202.695" y2="321" stroke="#999" stroke-width="0.5"/>
  <line x1="689" y1="499" x2="511" y2="143" stroke="#999" stroke-width="0.5"/>
  <line x1="689" y1="499" x2="819.305" y2="321" stroke="#999" stroke-width="0.5"/>
  <line x1="600" y1="653.1525" x2="422" y2="653.1525" stroke="#999" stroke-width="0.5"/>
  <line x1="600" y1="653.1525" x2="333" y2="499" stroke="#999" stroke-width="0.5"/>
  <line x1="600" y1="653.1525" x2="422" y2="344.8475" stroke="#999" stroke-width="0.5"/>
  <line x1="600" y1="653.1525" x2="600" y2="344.8475" stroke="#999" stroke-width="0.5"/>
  <line x1="600" y1="653.1525" x2="819.305" y2="677" stroke="#999" stroke-width="0.5"/>
  <line x1="600" y1="653.1525" x2="511" y2="855" stroke="#999" stroke-width="0.5"/>
  <line x1="600" y1="653.1525" x2="202.695" y2="677" stroke="#999" stroke-width="0.5"/>
  <line x1="600" y1="653.1525" x2="202.695" y2="321" stroke="#999" stroke-width="0.5"/>
  <line x1="600" y1="653.1525" x2="511" y2="143" stroke="#999" stroke-width="0.5"/>
  <line x1="600" y1="653.1525" x2="819.305" y2="321" stroke="#999" stroke-width="0.5"/>
  <line x1="422" y1="653.1525" x2="333" y2="499" stroke="#999" stroke-width="0.5"/>
  <line x1="422" y1="653.1525" x2="422" y2="344.8475" stroke="#999" stroke-width="0.5"/>
  <line x1="422" y1="653.1525" x2="600" y2="344.8475" stroke="#999" stroke-width="0.5"/>
  <line x1="422" y1="653.1525" x2="819.305" y2="677" stroke="#999" stroke-width="0.5"/>
  <line x1="422" y1="653.1525" x2="511" y2="855" stroke="#999" stroke-width="0.5"/>
  <line x1="422" y1="653.1525" x2="202.695" y2="677" stroke="#999" stroke-width="0.5"/>
  <line x1="422" y1="653.1525" x2="202.695" y2="321" stroke="#999" stroke-width="0.5"/>
  <line x1="422" y1="653.1525" x2="511" y2="143" stroke="#999" stroke-width="0.5"/>
  <line x1="422" y1="653.1525" x2="819.305" y2="321" stroke="#999" stroke-width="0.5"/>
  <line x1="333" y1="499" x2="422" y2="344.8475" stroke="#999" stroke-width="0.5"/>
  <line x1="333" y1="499" x2="600" y2="344.8475" stroke="#999" stroke-width="0.5"/>
  <line x1="333" y1="499" x2="819.305" y2="677" stroke="#999" stroke-width="0.5"/>
  <line x1="333" y1="499" x2="511" y2="855" stroke="#999" stroke-width="0.5"/>
  <line x1="333" y1="499" x2="202.695" y2="677" stroke="#999" stroke-width="0.5"/>
  <line x1="333" y1="499" x2="202.695" y2="321" stroke="#999" stroke-width="0.5"/>
  <line x1="333" y1="499" x2="511" y2="143" stroke="#999" stroke-width="0.5"/>
  <line x1="333" y1="499" x2="819.305" y2="321" stroke="#999" stroke-width="0.5"/>
  <line x1="422" y1="344.8475" x2="600" y2="344.8475" stroke="#999" stroke-width="0.5"/>
  <line x1="422" y1="344.8475" x2="819.305" y2="677" stroke="#999" stroke-width="0.5"/>
  <line x1="422" y1="344.8475" x2="511" y2="855" stroke="#999" stroke-width="0.5"/>
  <line x1="422" y1="344.8475" x2="202.695" y2="677" stroke="#999" stroke-width="0.5"/>
  <line x1="422" y1="344.8475" x2="202.695" y2="321" stroke="#999" stroke-width="0.5"/>
  <line x1="422" y1="344.8475" x2="511" y2="143" stroke="#999" stroke-width="0.5"/>
  <line x1="422" y1="344.8475" x2="819.305" y2="321" stroke="#999" stroke-width="0.5"/>
  <line x1="600" y1="344.8475" x2="819.305" y2="677" stroke="#999" stroke-width="0.5"/>
  <line x1="600" y1="344.8475" x2="511" y2="855" stroke="#999" stroke-width="0.5"/>
  <line x1="600" y1="344.8475" x2="202.695" y2="677" stroke="#999" stroke-width="0.5"/>
  <line x1="600" y1="344.8475" x2="202.695" y2="321" stroke="#999" stroke-width="0.5"/>
  <line x1="600" y1="344.8475" x2="511" y2="143" stroke="#999" stroke-width="0.5"/>
  <line x1="600" y1="344.8475" x2="819.305" y2="321" stroke="#999" stroke-width="0.5"/>
  <line x1="819.305" y1="677" x2="511" y2="855" stroke="#999" stroke-width="0.5"/>
  <line x1="819.305" y1="677" x2="202.695" y2="677" stroke="#999" stroke-width="0.5"/>
  <line x1="819.305" y1="677" x2="202.695" y2="321" stroke="#999" stroke-width="0.5"/>
  <line x1="819.305" y1="677" x2="511" y2="143" stroke="#999" stroke-width="0.5"/>
  <line x1="819.305" y1="677" x2="819.305" y2="321" stroke="#999" stroke-width="0.5"/>
  <line x1="511" y1="855" x2="202.695" y2="677" stroke="#999" stroke-width="0.5"/>
  <line x1="511" y1="855" x2="202.695" y2="321" stroke="#999" stroke-width="0.5"/>
  <line x1="511" y1="855" x2="511" y2="143" stroke="#999" stroke-width="0.5"/>
  <line x1="511" y1="855" x2="819.305" y2="321" stroke="#999" stroke-width="0.5"/>
  <line x1="202.695" y1="677" x2="202.695" y2="321" stroke="#999" stroke-width="0.5"/>
  <line x1="202.695" y1="677" x2="511" y2="143" stroke="#999" stroke-width="0.5"/>
  <line x1="202.695" y1="677" x2="819.305" y2="321" stroke="#999" stroke-width="0.5"/>
  <line x1="202.695" y1="321" x2="511" y2="143" stroke="#999" stroke-width="0.5"/>
  <line x1="202.695" y1="321" x2="819.305" y2="321" stroke="#999" stroke-width="0.5"/>
  <line x1="511" y1="143" x2="819.305" y2="321" stroke="#999" stroke-width="0.5"/>
  <circle cx="511" cy="499" r="26.7" fill="none" stroke="#333" stroke-width="1"/>
  <circle cx="689" cy="499" r="26.7" fill="none" stroke="#333" stroke-width="1"/>
  <circle cx="600" cy="653.1525" r="26.7" fill="none" stroke="#333" stroke-width="1"/>
  <circle cx="422" cy="653.1525" r="26.7" fill="none" stroke="#333" stroke-width="1"/>
  <circle cx="333" cy="499" r="26.7" fill="none" stroke="#333" stroke-width="1"/>
  <circle cx="422" cy="344.8475" r="26.7" fill="none" stroke="#333" stroke-width="1"/>
  <circle cx="600" cy="344.8475" r="26.7" fill="none" stroke="#333" stroke-width="1"/>
  <circle cx="819.305" cy="677" r="26.7" fill="none" stroke="#333" stroke-width="1"/>
  <circle cx="511" cy="855" r="26.7" fill="none" stroke="#333" stroke-width="1"/>
  <circle cx="202.695" cy="677" r="26.7" fill="none" stroke="#333" stroke-width="1"/>
  <circle cx="202.695" cy="321" r="26.7" fill="none" stroke="#333" stroke-width="1"/>
  <circle cx="511" cy="143" r="26.7" fill="none" stroke="#333" stroke-width="1"/>
  <circle cx="819.305" cy="321" r="26.7" fill="none" stroke="#333" stroke-width="1"/>
</g>
</g>
</svg>