<svg xmlns="http://www.w3.org/2000/svg" width="800" height="800" viewBox="0 0 800 800">
  <g>
  <line x1="505" y1="496" x2="574" y2="496" stroke="#999" stroke-width="0.5"/>
  <line x1="505" y1="496" x2="539.5" y2="555.7558" stroke="#999" stroke-width="0.5"/>
  <line x1="505" y1="496" x2="470.5" y2="555.7558" stroke="#999" stroke-width="0.5"/>
  <line x1="505" y1="496" x2="436" y2="496" stroke="#999" stroke-width="0.5"/>
  <line x1="505" y1="496" x2="470.5" y2="436.2442" stroke="#999" stroke-width="0.5"/>
  <line x1="505" y1="496" x2="539.5" y2="436.2442" stroke="#999" stroke-width="0.5"/>
  <line x1="505" y1="496" x2="624.5115" y2="565" stroke="#999" stroke-width="0.5"/>
  <line x1="505" y1="496" x2="505" y2="634" stroke="#999" stroke-width="0.5"/>
  <line x1="505" y1="496" x2="385.4885" y2="565" stroke="#999" stroke-width="0.5"/>
  <line x1="505" y1="496" x2="385.4885" y2="427" stroke="#999" stroke-width="0.5"/>
  <line x1="505" y1="496" x2="505" y2="358" stroke="#999" stroke-width="0.5"/>
  <line x1="505" y1="496" x2="624.5115" y2="427" stroke="#999" stroke-width="0.5"/>
  <line x1="574" y1="496" x2="539.5" y2="555.7558" stroke="#999" stroke-width="0.5"/>
  <line x1="574" y1="496" x2="470.5" y2="555.7558" stroke="#999" stroke-width="0.5"/>
  <line x1="574" y1="496" x2="436" y2="496" stroke="#999" stroke-width="0.5"/>
  <line x1="574" y1="496" x2="470.5" y2="436.2442" stroke="#999" stroke-width="0.5"/>
  <line x1="574" y1="496" x2="539.5" y2="436.2442" stroke="#999" stroke-width="0.5"/>
  <line x1="574" y1="496" x2="624.5115" y2="565" stroke="#999" stroke-width="0.5"/>
  <line x1="574" y1="496" x2="505" y2="634" stroke="#999" stroke-width="0.5"/>
  <line x1="574" y1="496" x2="385.4885" y2="565" stroke="#999" stroke-width="0.5"/>
  <line x1="574" y1="496" x2="385.4885" y2="427" stroke="#999" stroke-width="0.5"/>
  <line x1="574" y1="496" x2="505" y2="358" stroke="#999" stroke-width="0.5"/>
  <line x1="574" y1="496" x2="624.5115" y2="427" stroke="#999" stroke-width="0.5"/>
  <line x1="539.5" y1="555.7558" x2="470.5" y2="555.7558" stroke="#999" stroke-width="0.5"/>
  <line x1="539.5" y1="555.7558" x2="436" y2="496" stroke="#999" stroke-width="0.5"/>
  <line x1="539.5" y1="555.7558" x2="470.5" y2="436.2442" stroke="#999" stroke-width="0.5"/>
  <line x1="539.5" y1="555.7558" x2="539.5" y2="436.2442" stroke="#999" stroke-width="0.5"/>
  <line x1="539.5" y1="555.7558" x2="624.5115" y2="565" stroke="#999" stroke-width="0.5"/>
  <line x1="539.5" y1="555.7558" x2="505" y2="634" stroke="#999" stroke-width="0.5"/>
  <line x1="539.5" y1="555.7558" x2="385.4885" y2="565" stroke="#999" stroke-width="0.5"/>
  <line x1="539.5" y1="555.7558" x2="385.4885" y2="427" stroke="#999" stroke-width="0.5"/>
  <line x1="539.5" y1="555.7558" x2="505" y2="358" stroke="#999" stroke-width="0.5"/>
  <line x1="539.5" y1="555.7558" x2="624.5115" y2="427" stroke="#999" stroke-width="0.5"/>
  <line x1="470.5" y1="555.7558" x2="436" y2="496" stroke="#999" stroke-width="0.5"/>
  <line x1="470.5" y1="555.7558" x2="470.5" y2="436.2442" stroke="#999" stroke-width="0.5"/>
  <line x1="470.5" y1="555.7558" x2="539.5" y2="436.2442" stroke="#999" stroke-width="0.5"/>
  <line x1="470.5" y1="555.7558" x2="624.5115" y2="565" stroke="#999" stroke-width="0.5"/>
  <line x1="470.5" y1="555.7558" x2="505" y2="634" stroke="#999" stroke-width="0.5"/>
  <line x1="470.5" y1="555.7558" x2="385.4885" y2="565" stroke="#999" stroke-width="0.5"/>
  <line x1="470.5" y1="555.7558" x2="385.4885" y2="427" stroke="#999" stroke-width="0.5"/>
  <line x1="470.5" y1="555.7558" x2="505" y2="358" stroke="#999" stroke-width="0.5"/>
  <line x1="470.5" y1="555.7558" x2="624.5115" y2="427" stroke="#999" stroke-width="0.5"/>
  <line x1="436" y1="496" x2="470.5" y2="436.2442" stroke="#999" stroke-width="0.5"/>
  <line x1="436" y1="496" x2="539.5" y2="436.2442" stroke="#999" stroke-width="0.5"/>
  <line x1="436" y1="496" x2="624.5115" y2="565" stroke="#999" stroke-width="0.5"/>
  <line x1="436" y1="496" x2="505" y2="634" stroke="#999" stroke-width="0.5"/>
  <line x1="436" y1="496" x2="385.4885" y2="565" stroke="#999" stroke-width="0.5"/>
  <line x1="436" y1="496" x2="385.4885" y2="427" stroke="#999" stroke-width="0.5"/>
  <line x1="436" y1="496" x2="505" y2="358" stroke="#999" stroke-width="0.5"/>
  <line x1="436" y1="496" x2="624.5115" y2="427" stroke="#999" stroke-width="0.5"/>
  <line x1="470.5" y1="436.2442" x2="539.5" y2="436.2442" stroke="#999" stroke-width="0.5"/>
  <line x1="470.5" y1="436.2442" x2="624.5115" y2="565" stroke="#999" stroke-width="0.5"/>
  <line x1="470.5" y1="436.2442" x2="505" y2="634" stroke="#999" stroke-width="0.5"/>
  <line x1="470.5" y1="436.2442" x2="385.4885" y2="565" stroke="#999" stroke-width="0.5"/>
  <line x1="470.5" y1="436.2442" x2="385.4885" y2="427" stroke="#999" stroke-width="0.5"/>
  <line x1="470.5" y1="436.2442" x2="505" y2="358" stroke="#999" stroke-width="0.5"/>
  <line x1="470.5" y1="436.2442" x2="624.5115" y2="427" stroke="#999" stroke-width="0.5"/>
  <line x1="539.5" y1="436.2442" x2="624.5115" y2="565" stroke="#999" stroke-width="0.5"/>
  <line x1="539.5" y1="436.2442" x2="505" y2="634" stroke="#999" stroke-width="0.5"/>
  <line x1="539.5" y1="436.2442" x2="385.4885" y2="565" stroke="#999" stroke-width="0.5"/>
  <line x1="539.5" y1="436.2442" x2="385.4885" y2="427" stroke="#999" stroke-width="0.5"/>
  <line x1="539.5" y1="436.2442" x2="505" y2="358" stroke="#999" stroke-width="0.5"/>
  <line x1="539.5" y1="436.2442" x2="624.5115" y2="427" stroke="#999" stroke-width="0.5"/>
  <line x1="624.5115" y1="565" x2="505" y2="634" stroke="#999" stroke-width="0.5"/>
  <line x1="624.5115" y1="565" x2="385.4885" y2="565" stroke="#999" stroke-width="0.5"/>
  <line x1="624.5115" y1="565" x2="385.4885" y2="427" stroke="#999" stroke-width="0.5"/>
  <line x1="624.5115" y1="565" x2="505" y2="358" stroke="#999" stroke-width="0.5"/>
  <line x1="624.5115" y1="565" x2="624.5115" y2="427" stroke="#999" stroke-width="0.5"/>
  <line x1="505" y1="634" x2="385.4885" y2="565" stroke="#999" stroke-width="0.5"/>
  <line x1="505" y1="634" x2="385.4885" y2="427" stroke="#999" stroke-width="0.5"/>
  <line x1="505" y1="634" x2="505" y2="358" stroke="#999" stroke-width="0.5"/>
  <line x1="505" y1="634" x2="624.5115" y2="427" stroke="#999" stroke-width="0.5"/>
  <line x1="385.4885" y1="565" x2="385.4885" y2="427" stroke="#999" stroke-width="0.5"/>
  <line x1="385.4885" y1="565" x2="505" y2="358" stroke="#999" stroke-width="0.5"/>
  <line x1="385.4885" y1="565" x2="624.5115" y2="427" stroke="#999" stroke-width="0.5"/>
  <line x1="385.4885" y1="427" x2="505" y2="358" stroke="#999" stroke-width="0.5"/>
  <line x1="385.4885" y1="427" x2="624.5115" y2="427" stroke="#999" stroke-width="0.5"/>
  <line x1="505" y1="358" x2="624.5115" y2="427" stroke="#999" stroke-width="0.5"/>
  <circle cx="505" cy="496" r="10.35" fill="none" stroke="#333" stroke-width="1"/>
  <circle cx="574" cy="496" r="10.35" fill="none" stroke="#333" stroke-width="1"/>
  <circle cx="539.5" cy="555.7558" r="10.35" fill="none" stroke="#333" stroke-width="1"/>
  <circle cx="470.5" cy="555.7558" r="10.35" fill="none" stroke="#333" stroke-width="1"/>
  <circle cx="436" cy="496" r="10.35" fill="none" stroke="#333" stroke-width="1"/>
  <circle cx="470.5" cy="436.2442" r="10.35" fill="none" stroke="#333" stroke-width="1"/>
  <circle cx="539.5" cy="436.2442" r="10.35" fill="none" stroke="#333" stroke-width="1"/>
  <circle cx="624.5115" cy="565" r="10.35" fill="none" stroke="#333" stroke-width="1"/>
  <circle cx="505" cy="634" r="10.35" fill="none" stroke="#333" stroke-width="1"/>
  <circle cx="385.4885" cy="565" r="10.35" fill="none" stroke="#333" stroke-width="1"/>
  <circle cx="385.4885" cy="427" r="10.35" fill="none" stroke="#333" stroke-width="1"/>
  <circle cx="505" cy="358" r="10.35" fill="none" stroke="#333" stroke-width="1"/>
  <circle cx="624.5115" cy="427" r="10.35" fill="none" stroke="#333" stroke-width="1"/>
</g>
  <g>
  <line x1="489" y1="496" x2="570" y2="496" stroke="#999" stroke-width="0.5"/>
  <line x1="489" y1="496" x2="529.5" y2="566.1481" stroke="#999" stroke-width="0.5"/>
  <line x1="489" y1="496" x2="448.5" y2="566.1481" stroke="#999" stroke-width="0.5"/>
  <line x1="489" y1="496" x2="408" y2="496" stroke="#999" stroke-width="0.5"/>
  <line x1="489" y1="496" x2="448.5" y2="425.8519" stroke="#999" stroke-width="0.5"/>
  <line x1="489" y1="496" x2="529.5" y2="425.8519" stroke="#999" stroke-width="0.5"/>
  <line x1="489" y1="496" x2="629.2961" y2="577" stroke="#999" stroke-width="0.5"/>
  <line x1="489" y1="496" x2="489" y2="658" stroke="#999" stroke-width="0.5"/>
  <line x1="489" y1="496" x2="348.7039" y2="577" stroke="#999" stroke-width="0.5"/>
  <line x1="489" y1="496" x2="348.7039" y2="415" stroke="#999" stroke-width="0.5"/>
  <line x1="489" y1="496" x2="489" y2="334" stroke="#999" stroke-width="0.5"/>
  <line x1="489" y1="496" x2="629.2961" y2="415" stroke="#999" stroke-width="0.5"/>
  <line x1="570" y1="496" x2="529.5" y2="566.1481" stroke="#999" stroke-width="0.5"/>
  <line x1="570" y1="496" x2="448.5" y2="566.1481" stroke="#999" stroke-width="0.5"/>
  <line x1="570" y1="496" x2="408" y2="496" stroke="#999" stroke-width="0.5"/>
  <line x1="570" y1="496" x2="448.5" y2="425.8519" stroke="#999" stroke-width="0.5"/>
  <line x1="570" y1="496" x2="529.5" y2="425.8519" stroke="#999" stroke-width="0.5"/>
  <line x1="570" y1="496" x2="629.2961" y2="577" stroke="#999" stroke-width="0.5"/>
  <line x1="570" y1="496" x2="489" y2="658" stroke="#999" stroke-width="0.5"/>
  <line x1="570" y1="496" x2="348.7039" y2="577" stroke="#999" stroke-width="0.5"/>
  <line x1="570" y1="496" x2="348.7039" y2="415" stroke="#999" stroke-width="0.5"/>
  <line x1="570" y1="496" x2="489" y2="334" stroke="#999" stroke-width="0.5"/>
  <line x1="570" y1="496" x2="629.2961" y2="415" stroke="#999" stroke-width="0.5"/>
  <line x1="529.5" y1="566.1481" x2="448.5" y2="566.1481" stroke="#999" stroke-width="0.5"/>
  <line x1="529.5" y1="566.1481" x2="408" y2="496" stroke="#999" stroke-width="0.5"/>
  <line x1="529.5" y1="566.1481" x2="448.5" y2="425.8519" stroke="#999" stroke-width="0.5"/>
  <line x1="529.5" y1="566.1481" x2="529.5" y2="425.8519" stroke="#999" stroke-width="0.5"/>
  <line x1="529.5" y1="566.1481" x2="629.2961" y2="577" stroke="#999" stroke-width="0.5"/>
  <line x1="529.5" y1="566.1481" x2="489" y2="658" stroke="#999" stroke-width="0.5"/>
  <line x1="529.5" y1="566.1481" x2="348.7039" y2="577" stroke="#999" stroke-width="0.5"/>
  <line x1="529.5" y1="566.1481" x2="348.7039" y2="415" stroke="#999" stroke-width="0.5"/>
  <line x1="529.5" y1="566.1481" x2="489" y2="334" stroke="#999" stroke-width="0.5"/>
  <line x1="529.5" y1="566.1481" x2="629.2961" y2="415" stroke="#999" stroke-width="0.5"/>
  <line x1="448.5" y1="566.1481" x2="408" y2="496" stroke="#999" stroke-width="0.5"/>
  <line x1="448.5" y1="566.1481" x2="448.5" y2="425.8519" stroke="#999" stroke-width="0.5"/>
  <line x1="448.5" y1="566.1481" x2="529.5" y2="425.8519" stroke="#999" stroke-width="0.5"/>
  <line x1="448.5" y1="566.1481" x2="629.2961" y2="577" stroke="#999" stroke-width="0.5"/>
  <line x1="448.5" y1="566.1481" x2="489" y2="658" stroke="#999" stroke-width="0.5"/>
  <line x1="448.5" y1="566.1481" x2="348.7039" y2="577" stroke="#999" stroke-width="0.5"/>
  <line x1="448.5" y1="566.1481" x2="348.7039" y2="415" stroke="#999" stroke-width="0.5"/>
  <line x1="448.5" y1="566.1481" x2="489" y2="334" stroke="#999" stroke-width="0.5"/>
  <line x1="448.5" y1="566.1481" x2="629.2961" y2="415" stroke="#999" stroke-width="0.5"/>
  <line x1="408" y1="496" x2="448.5" y2="425.8519" stroke="#999" stroke-width="0.5"/>
  <line x1="408" y1="496" x2="529.5" y2="425.8519" stroke="#999" stroke-width="0.5"/>
  <line x1="408" y1="496" x2="629.2961" y2="577" stroke="#999" stroke-width="0.5"/>
  <line x1="408" y1="496" x2="489" y2="658" stroke="#999" stroke-width="0.5"/>
  <line x1="408" y1="496" x2="348.7039" y2="577" stroke="#999" stroke-width="0.5"/>
  <line x1="408" y1="496" x2="348.7039" y2="415" stroke="#999" stroke-width="0.5"/>
  <line x1="408" y1="496" x2="489" y2="334" stroke="#999" stroke-width="0.5"/>
  <line x1="408" y1="496" x2="629.2961" y2="415" stroke="#999" stroke-width="0.5"/>
  <line x1="448.5" y1="425.8519" x2="529.5" y2="425.8519" stroke="#999" stroke-width="0.5"/>
  <line x1="448.5" y1="425.8519" x2="629.2961" y2="577" stroke="#999" stroke-width="0.5"/>
  <line x1="448.5" y1="425.8519" x2="489" y2="658" stroke="#999" stroke-width="0.5"/>
  <line x1="448.5" y1="425.8519" x2="348.7039" y2="577" stroke="#999" stroke-width="0.5"/>
  <line x1="448.5" y1="425.8519" x2="348.7039" y2="415" stroke="#999" stroke-width="0.5"/>
  <line x1="448.5" y1="425.8519" x2="489" y2="334" stroke="#999" stroke-width="0.5"/>
  <line x1="448.5" y1="425.8519" x2="629.2961" y2="415" stroke="#999" stroke-width="0.5"/>
  <line x1="529.5" y1="425.8519" x2="629.2961" y2="577" stroke="#999" stroke-width="0.5"/>
  <line x1="529.5" y1="425.8519" x2="489" y2="658" stroke="#999" stroke-width="0.5"/>
  <line x1="529.5" y1="425.8519" x2="348.7039" y2="577" stroke="#999" stroke-width="0.5"/>
  <line x1="529.5" y1="425.8519" x2="348.7039" y2="415" stroke="#999" stroke-width="0.5"/>
  <line x1="529.5" y1="425.8519" x2="489" y2="334" stroke="#999" stroke-width="0.5"/>
  <line x1="529.5" y1="425.8519" x2="629.2961" y2="415" stroke="#999" stroke-width="0.5"/>
  <line x1="629.2961" y1="577" x2="489" y2="658" stroke="#999" stroke-width="0.5"/>
  <line x1="629.2961" y1="577" x2="348.7039" y2="577" stroke="#999" stroke-width="0.5"/>
  <line x1="629.2961" y1="577" x2="348.7039" y2="415" stroke="#999" stroke-width="0.5"/>
  <line x1="629.2961" y1="577" x2="489" y2="334" stroke="#999" stroke-width="0.5"/>
  <line x1="629.2961" y1="577" x2="629.2961" y2="415" stroke="#999" stroke-width="0.5"/>
  <line x1="489" y1="658" x2="348.7039" y2="577" stroke="#999" stroke-width="0.5"/>
  <line x1="489" y1="658" x2="348.7039" y2="415" stroke="#999" stroke-width="0.5"/>
  <line x1="489" y1="658" x2="489" y2="334" stroke="#999" stroke-width="0.5"/>
  <line x1="489" y1="658" x2="629.2961" y2="415" stroke="#999" stroke-width="0.5"/>
  <line x1="348.7039" y1="577" x2="348.7039" y2="415" stroke="#999" stroke-width="0.5"/>
  <line x1="348.7039" y1="577" x2="489" y2="334" stroke="#999" stroke-width="0.5"/>
  <line x1="348.7039" y1="577" x2="629.2961" y2="415" stroke="#999" stroke-width="0.5"/>
  <line x1="348.7039" y1="415" x2="489" y2="334" stroke="#999" stroke-width="0.5"/>
  <line x1="348.7039" y1="415" x2="629.2961" y2="415" stroke="#999" stroke-width="0.5"/>
  <line x1="489" y1="334" x2="629.2961" y2="415" stroke="#999" stroke-width="0.5"/>
  <circle cx="489" cy="496" r="12.15" fill="none" stroke="#333" stroke-width="1"/>
  <circle cx="570" cy="496" r="12.15" fill="none" stroke="#333" stroke-width="1"/>
  <circle cx="529.5" cy="566.1481" r="12.15" fill="none" stroke="#333" stroke-width="1"/>
  <circle cx="448.5" cy="566.1481" r="12.15" fill="none" stroke="#333" stroke-width="1"/>
  <circle cx="408" cy="496" r="12.15" fill="none" stroke="#333" stroke-width="1"/>
  <circle cx="448.5" cy="425.8519" r="12.15" fill="none" stroke="#333" stroke-width="1"/>
  <circle cx="529.5" cy="425.8519" r="12.15" fill="none" stroke="#333" stroke-width="1"/>
  <circle cx="629.2961" cy="577" r="12.15" fill="none" stroke="#333" stroke-width="1"/>
  <circle cx="489" cy="658" r="12.15" fill="none" stroke="#333" stroke-width="1"/>
  <circle cx="348.7039" cy="577" r="12.15" fill="none" stroke="#333" stroke-width="1"/>
  <circle cx="348.7039" cy="415" r="12.15" fill="none" stroke="#333" stroke-width="1"/>
  <circle cx="489" cy="334" r="12.15" fill="none" stroke="#333" stroke-width="1"/>
  <circle cx="629.2961" cy="415" r="12.15" fill="none" stroke="#333" stroke-width="1"/>
</g>
  <g>
  <line x1="515" y1="453" x2="642" y2="453" stroke="#333" stroke-width="1.5"/>
  <line x1="513.3313" y1="465.1409" x2="635.6218" y2="499.405" stroke="#333" stroke-width="1.5"/>
  <line x1="508.4489" y1="476.3813" x2="616.9601" y2="542.3684" stroke="#333" stroke-width="1.5"/>
  <line x1="500.7149" y1="485.8876" x2="587.3991" y2="578.7038" stroke="#333" stroke-width="1.5"/>
  <line x1="490.7029" y1="492.9548" x2="549.1312" y2="605.7163" stroke="#333" stroke-width="1.5"/>
  <line x1="479.1555" y1="497.0588" x2="504.9944" y2="621.4025" stroke="#333" stroke-width="1.5"/>
  <line x1="466.9291" y1="497.8951" x2="458.2623" y2="624.599" stroke="#333" stroke-width="1.5"/>
  <line x1="454.9304" y1="495.4017" x2="412.4007" y2="615.0689" stroke="#333" stroke-width="1.5"/>
  <line x1="444.0494" y1="489.7636" x2="370.811" y2="593.5188" stroke="#333" stroke-width="1.5"/>
  <line x1="435.093" y1="481.399" x2="336.5777" y2="561.5471" stroke="#333" stroke-width="1.5"/>
  <line x1="428.7255" y1="470.928" x2="312.2397" y2="521.525" stroke="#333" stroke-width="1.5"/>
  <line x1="425.4191" y1="459.1275" x2="299.602" y2="476.4207" stroke="#333" stroke-width="1.5"/>
  <line x1="425.4191" y1="446.8725" x2="299.602" y2="429.5793" stroke="#333" stroke-width="1.5"/>
  <line x1="428.7255" y1="435.072" x2="312.2397" y2="384.475" stroke="#333" stroke-width="1.5"/>
  <line x1="435.093" y1="424.601" x2="336.5777" y2="344.4529" stroke="#333" stroke-width="1.5"/>
  <line x1="444.0494" y1="416.2364" x2="370.811" y2="312.4812" stroke="#333" stroke-width="1.5"/>
  <line x1="454.9304" y1="410.5983" x2="412.4007" y2="290.9311" stroke="#333" stroke-width="1.5"/>
  <line x1="466.9291" y1="408.1049" x2="458.2623" y2="281.401" stroke="#333" stroke-width="1.5"/>
  <line x1="479.1555" y1="408.9412" x2="504.9944" y2="284.5975" stroke="#333" stroke-width="1.5"/>
  <line x1="490.7029" y1="413.0452" x2="549.1312" y2="300.2837" stroke="#333" stroke-width="1.5"/>
  <line x1="500.7149" y1="420.1124" x2="587.3991" y2="327.2962" stroke="#333" stroke-width="1.5"/>
  <line x1="508.4489" y1="429.6187" x2="616.9601" y2="363.6316" stroke="#333" stroke-width="1.5"/>
  <line x1="513.3313" y1="440.8591" x2="635.6218" y2="406.595" stroke="#333" stroke-width="1.5"/>
</g>
  <g>
  <polygon points="400,-27 341.3268,74.625 458.6732,74.625" fill="#333" stroke="none"/>
  <polygon points="341.3268,74.625 282.6536,176.25 400,176.25" fill="#333" stroke="none"/>
  <polygon points="458.6732,74.625 400,176.25 517.3464,176.25" fill="#333" stroke="none"/>
  <polygon points="282.6536,176.25 223.9803,277.875 341.3268,277.875" fill="#333" stroke="none"/>
  <polygon points="223.9803,277.875 165.3071,379.5 282.6536,379.5" fill="#333" stroke="none"/>
  <polygon points="341.3268,277.875 282.6536,379.5 400,379.5" fill="#333" stroke="none"/>
  <polygon points="517.3464,176.25 458.6732,277.875 576.0197,277.875" fill="#333" stroke="none"/>
  <polygon points="458.6732,277.875 400,379.5 517.3464,379.5" fill="#333" stroke="none"/>
  <polygon points="576.0197,277.875 517.3464,379.5 634.6929,379.5" fill="#333" stroke="none"/>
</g>
  <g>
  <polygon points="393,-43 333.6773,59.75 452.3227,59.75" fill="#333" stroke="none"/>
  <polygon points="333.6773,59.75 274.3545,162.5 393,162.5" fill="#333" stroke="none"/>
  <polygon points="452.3227,59.75 393,162.5 511.6455,162.5" fill="#333" stroke="none"/>
  <polygon points="274.3545,162.5 215.0318,265.25 333.6773,265.25" fill="#333" stroke="none"/>
  <polygon points="215.0318,265.25 155.709,368 274.3545,368" fill="#333" stroke="none"/>
  <polygon points="333.6773,265.25 274.3545,368 393,368" fill="#333" stroke="none"/>
  <polygon points="511.6455,162.5 452.3227,265.25 570.9682,265.25" fill="#333" stroke="none"/>
  <polygon points="452.3227,265.25 393,368 511.6455,368" fill="#333" stroke="none"/>
  <polygon points="570.9682,265.25 511.6455,368 630.291,368" fill="#333" stroke="none"/>
</g>
</svg>