<svg xmlns="http://www.w3.org/2000/svg" width="800" height="800" viewBox="0 0 800 800">
  <g>
  <line x1="505" y1="478" x2="639" y2="478" stroke="#999" stroke-width="0.5"/>
  <line x1="505" y1="478" x2="572" y2="594.0474" stroke="#999" stroke-width="0.5"/>
  <line x1="505" y1="478" x2="438" y2="594.0474" stroke="#999" stroke-width="0.5"/>
  <line x1="505" y1="478" x2="371" y2="478" stroke="#999" stroke-width="0.5"/>
  <line x1="505" y1="478" x2="438" y2="361.9526" stroke="#999" stroke-width="0.5"/>
  <line x1="505" y1="478" x2="572" y2="361.9526" stroke="#999" stroke-width="0.5"/>
  <line x1="505" y1="478" x2="737.0948" y2="612" stroke="#999" stroke-width="0.5"/>
  <line x1="505" y1="478" x2="505" y2="746" stroke="#999" stroke-width="0.5"/>
  <line x1="505" y1="478" x2="272.9052" y2="612" stroke="#999" stroke-width="0.5"/>
  <line x1="505" y1="478" x2="272.9052" y2="344" stroke="#999" stroke-width="0.5"/>
  <line x1="505" y1="478" x2="505" y2="210" stroke="#999" stroke-width="0.5"/>
  <line x1="505" y1="478" x2="737.0948" y2="344" stroke="#999" stroke-width="0.5"/>
  <line x1="639" y1="478" x2="572" y2="594.0474" stroke="#999" stroke-width="0.5"/>
  <line x1="639" y1="478" x2="438" y2="594.0474" stroke="#999" stroke-width="0.5"/>
  <line x1="639" y1="478" x2="371" y2="478" stroke="#999" stroke-width="0.5"/>
  <line x1="639" y1="478" x2="438" y2="361.9526" stroke="#999" stroke-width="0.5"/>
  <line x1="639" y1="478" x2="572" y2="361.9526" stroke="#999" stroke-width="0.5"/>
  <line x1="639" y1="478" x2="737.0948" y2="612" stroke="#999" stroke-width="0.5"/>
  <line x1="639" y1="478" x2="505" y2="746" stroke="#999" stroke-width="0.5"/>
  <line x1="639" y1="478" x2="272.9052" y2="612" stroke="#999" stroke-width="0.5"/>
  <line x1="639" y1="478" x2="272.9052" y2="344" stroke="#999" stroke-width="0.5"/>
  <line x1="639" y1="478" x2="505" y2="210" stroke="#999" stroke-width="0.5"/>
  <line x1="639" y1="478" x2="737.0948" y2="344" stroke="#999" stroke-width="0.5"/>
  <line x1="572" y1="594.0474" x2="438" y2="594.0474" stroke="#999" stroke-width="0.5"/>
  <line x1="572" y1="594.0474" x2="371" y2="478" stroke="#999" stroke-width="0.5"/>
  <line x1="572" y1="594.0474" x2="438" y2="361.9526" stroke="#999" stroke-width="0.5"/>
  <line x1="572" y1="594.0474" x2="572" y2="361.9526" stroke="#999" stroke-width="0.5"/>
  <line x1="572" y1="594.0474" x2="737.0948" y2="612" stroke="#999" stroke-width="0.5"/>
  <line x1="572" y1="594.0474" x2="505" y2="746" stroke="#999" stroke-width="0.5"/>
  <line x1="572" y1="594.0474" x2="272.9052" y2="612" stroke="#999" stroke-width="0.5"/>
  <line x1="572" y1="594.0474" x2="272.9052" y2="344" stroke="#999" stroke-width="0.5"/>
  <line x1="572" y1="594.0474" x2="505" y2="210" stroke="#999" stroke-width="0.5"/>
  <line x1="572" y1="594.0474" x2="737.0948" y2="344" stroke="#999" stroke-width="0.5"/>
  <line x1="438" y1="594.0474" x2="371" y2="478" stroke="#999" stroke-width="0.5"/>
  <line x1="438" y1="594.0474" x2="438" y2="361.9526" stroke="#999" stroke-width="0.5"/>
  <line x1="438" y1="594.0474" x2="572" y2="361.9526" stroke="#999" stroke-width="0.5"/>
  <line x1="438" y1="594.0474" x2="737.0948" y2="612" stroke="#999" stroke-width="0.5"/>
  <line x1="438" y1="594.0474" x2="505" y2="746" stroke="#999" stroke-width="0.5"/>
  <line x1="438" y1="594.0474" x2="272.9052" y2="612" stroke="#999" stroke-width="0.5"/>
  <line x1="438" y1="594.0474" x2="272.9052" y2="344" stroke="#999" stroke-width="0.5"/>
  <line x1="438" y1="594.0474" x2="505" y2="210" stroke="#999" stroke-width="0.5"/>
  <line x1="438" y1="594.0474" x2="737.0948" y2="344" stroke="#999" stroke-width="0.5"/>
  <line x1="371" y1="478" x2="438" y2="361.9526" stroke="#999" stroke-width="0.5"/>
  <line x1="371" y1="478" x2="572" y2="361.9526" stroke="#999" stroke-width="0.5"/>
  <line x1="371" y1="478" x2="737.0948" y2="612" stroke="#999" stroke-width="0.5"/>
  <line x1="371" y1="478" x2="505" y2="746" stroke="#999" stroke-width="0.5"/>
  <line x1="371" y1="478" x2="272.9052" y2="612" stroke="#999" stroke-width="0.5"/>
  <line x1="371" y1="478" x2="272.9052" y2="344" stroke="#999" stroke-width="0.5"/>
  <line x1="371" y1="478" x2="505" y2="210" stroke="#999" stroke-width="0.5"/>
  <line x1="371" y1="478" x2="737.0948" y2="344" stroke="#999" stroke-width="0.5"/>
  <line x1="438" y1="361.9526" x2="572" y2="361.9526" stroke="#999" stroke-width="0.5"/>
  <line x1="438" y1="361.9526" x2="737.0948" y2="612" stroke="#999" stroke-width="0.5"/>
  <line x1="438" y1="361.9526" x2="505" y2="746" stroke="#999" stroke-width="0.5"/>
  <line x1="438" y1="361.9526" x2="272.9052" y2="612" stroke="#999" stroke-width="0.5"/>
  <line x1="438" y1="361.9526" x2="272.9052" y2="344" stroke="#999" stroke-width="0.5"/>
  <line x1="438" y1="361.9526" x2="505" y2="210" stroke="#999" stroke-width="0.5"/>
  <line x1="438" y1="361.9526" x2="737.0948" y2="344" stroke="#999" stroke-width="0.5"/>
  <line x1="572" y1="361.9526" x2="737.0948" y2="612" stroke="#999" stroke-width="0.5"/>
  <line x1="572" y1="361.9526" x2="505" y2="746" stroke="#999" stroke-width="0.5"/>
  <line x1="572" y1="361.9526" x2="272.9052" y2="612" stroke="#999" stroke-width="0.5"/>
  <line x1="572" y1="361.9526" x2="272.9052" y2="344" stroke="#999" stroke-width="0.5"/>
  <line x1="572" y1="361.9526" x2="505" y2="210" stroke="#999" stroke-width="0.5"/>
  <line x1="572" y1="361.9526" x2="737.0948" y2="344" stroke="#999" stroke-width="0.5"/>
  <line x1="737.0948" y1="612" x2="505" y2="746" stroke="#999" stroke-width="0.5"/>
  <line x1="737.0948" y1="612" x2="272.9052" y2="612" stroke="#999" stroke-width="0.5"/>
  <line x1="737.0948" y1="612" x2="272.9052" y2="344" stroke="#999" stroke-width="0.5"/>
  <line x1="737.0948" y1="612" x2="505" y2="210" stroke="#999" stroke-width="0.5"/>
  <line x1="737.0948" y1="612" x2="737.0948" y2="344" stroke="#999" stroke-width="0.5"/>
  <line x1="505" y1="746" x2="272.9052" y2="612" stroke="#999" stroke-width="0.5"/>
  <line x1="505" y1="746" x2="272.9052" y2="344" stroke="#999" stroke-width="0.5"/>
  <line x1="505" y1="746" x2="505" y2="210" stroke="#999" stroke-width="0.5"/>
  <line x1="505" y1="746" x2="737.0948" y2="344" stroke="#999" stroke-width="0.5"/>
  <line x1="272.9052" y1="612" x2="272.9052" y2="344" stroke="#999" stroke-width="0.5"/>
  <line x1="272.9052" y1="612" x2="505" y2="210" stroke="#999" stroke-width="0.5"/>
  <line x1="272.9052" y1="612" x2="737.0948" y2="344" stroke="#999" stroke-width="0.5"/>
  <line x1="272.9052" y1="344" x2="505" y2="210" stroke="#999" stroke-width="0.5"/>
  <line x1="272.9052" y1="344" x2="737.0948" y2="344" stroke="#999" stroke-width="0.5"/>
  <line x1="505" y1="210" x2="737.0948" y2="344" stroke="#999" stroke-width="0.5"/>
  <circle cx="505" cy="478" r="20.1" fill="none" stroke="#333" stroke-width="1"/>
  <circle cx="639" cy="478" r="20.1" fill="none" stroke="#333" stroke-width="1"/>
  <circle cx="572" cy="594.0474" r="20.1" fill="none" stroke="#333" stroke-width="1"/>
  <circle cx="438" cy="594.0474" r="20.1" fill="none" stroke="#333" stroke-width="1"/>
  <circle cx="371" cy="478" r="20.1" fill="none" stroke="#333" stroke-width="1"/>
  <circle cx="438" cy="361.9526" r="20.1" fill="none" stroke="#333" stroke-width="1"/>
  <circle cx="572" cy="361.9526" r="20.1" fill="none" stroke="#333" stroke-width="1"/>
  <circle cx="737.0948" cy="612" r="20.1" fill="none" stroke="#333" stroke-width="1"/>
  <circle cx="505" cy="746" r="20.1" fill="none" stroke="#333" stroke-width="1"/>
  <circle cx="272.9052" cy="612" r="20.1" fill="none" stroke="#333" stroke-width="1"/>
  <circle cx="272.9052" cy="344" r="20.1" fill="none" stroke="#333" stroke-width="1"/>
  <circle cx="505" cy="210" r="20.1" fill="none" stroke="#333" stroke-width="1"/>
  <circle cx="737.0948" cy="344" r="20.1" fill="none" stroke="#333" stroke-width="1"/>
</g>
  <g>
  <circle cx="504.5" cy="529" r="145" fill="none" stroke="#333" stroke-width="1.5"/>
  <circle cx="649.5" cy="529" r="145" fill="none" stroke="#333" stroke-width="1.5"/>
</g>
  <polygon points="239,306 258.3412,339.5 239,373 277.6825,373 297.0237,406.5 277.6825,440 239,440 258.3412,473.5 239,507 277.6825,507 297.0237,540.5 316.3649,507 355.0474,507 374.3886,540.5 355.0474,574 393.7299,574 413.0711,607.5 374.3886,607.5 355.0474,574 335.7062,607.5 297.0237,607.5 277.6825,574 297.0237,540.5 258.3412,540.5 239,507 219.6588,540.5 180.9763,540.5 200.3175,574 180.9763,607.5 142.2938,607.5 122.9526,574 103.6114,607.5 64.9289,607.5 84.2701,574 122.9526,574 103.6114,540.5 122.9526,507 161.6351,507 180.9763,540.5 200.3175,507 239,507 219.6588,473.5 239,440 200.3175,440 180.9763,406.5 200.3175,373 239,373 219.6588,339.5" fill="none" stroke="#333" stroke-width="1"/>
  <g>
  <line x1="505" y1="478" x2="651" y2="478" stroke="#999" stroke-width="0.5"/>
  <line x1="505" y1="478" x2="578" y2="604.4397" stroke="#999" stroke-width="0.5"/>
  <line x1="505" y1="478" x2="432" y2="604.4397" stroke="#999" stroke-width="0.5"/>
  <line x1="505" y1="478" x2="359" y2="478" stroke="#999" stroke-width="0.5"/>
  <line x1="505" y1="478" x2="432" y2="351.5603" stroke="#999" stroke-width="0.5"/>
  <line x1="505" y1="478" x2="578" y2="351.5603" stroke="#999" stroke-width="0.5"/>
  <line x1="505" y1="478" x2="757.8794" y2="624" stroke="#999" stroke-width="0.5"/>
  <line x1="505" y1="478" x2="505" y2="770" stroke="#999" stroke-width="0.5"/>
  <line x1="505" y1="478" x2="252.1206" y2="624" stroke="#999" stroke-width="0.5"/>
  <line x1="505" y1="478" x2="252.1206" y2="332" stroke="#999" stroke-width="0.5"/>
  <line x1="505" y1="478" x2="505" y2="186" stroke="#999" stroke-width="0.5"/>
  <line x1="505" y1="478" x2="757.8794" y2="332" stroke="#999" stroke-width="0.5"/>
  <line x1="651" y1="478" x2="578" y2="604.4397" stroke="#999" stroke-width="0.5"/>
  <line x1="651" y1="478" x2="432" y2="604.4397" stroke="#999" stroke-width="0.5"/>
  <line x1="651" y1="478" x2="359" y2="478" stroke="#999" stroke-width="0.5"/>
  <line x1="651" y1="478" x2="432" y2="351.5603" stroke="#999" stroke-width="0.5"/>
  <line x1="651" y1="478" x2="578" y2="351.5603" stroke="#999" stroke-width="0.5"/>
  <line x1="651" y1="478" x2="757.8794" y2="624" stroke="#999" stroke-width="0.5"/>
  <line x1="651" y1="478" x2="505" y2="770" stroke="#999" stroke-width="0.5"/>
  <line x1="651" y1="478" x2="252.1206" y2="624" stroke="#999" stroke-width="0.5"/>
  <line x1="651" y1="478" x2="252.1206" y2="332" stroke="#999" stroke-width="0.5"/>
  <line x1="651" y1="478" x2="505" y2="186" stroke="#999" stroke-width="0.5"/>
  <line x1="651" y1="478" x2="757.8794" y2="332" stroke="#999" stroke-width="0.5"/>
  <line x1="578" y1="604.4397" x2="432" y2="604.4397" stroke="#999" stroke-width="0.5"/>
  <line x1="578" y1="604.4397" x2="359" y2="478" stroke="#999" stroke-width="0.5"/>
  <line x1="578" y1="604.4397" x2="432" y2="351.5603" stroke="#999" stroke-width="0.5"/>
  <line x1="578" y1="604.4397" x2="578" y2="351.5603" stroke="#999" stroke-width="0.5"/>
  <line x1="578" y1="604.4397" x2="757.8794" y2="624" stroke="#999" stroke-width="0.5"/>
  <line x1="578" y1="604.4397" x2="505" y2="770" stroke="#999" stroke-width="0.5"/>
  <line x1="578" y1="604.4397" x2="252.1206" y2="624" stroke="#999" stroke-width="0.5"/>
  <line x1="578" y1="604.4397" x2="252.1206" y2="332" stroke="#999" stroke-width="0.5"/>
  <line x1="578" y1="604.4397" x2="505" y2="186" stroke="#999" stroke-width="0.5"/>
  <line x1="578" y1="604.4397" x2="757.8794" y2="332" stroke="#999" stroke-width="0.5"/>
  <line x1="432" y1="604.4397" x2="359" y2="478" stroke="#999" stroke-width="0.5"/>
  <line x1="432" y1="604.4397" x2="432" y2="351.5603" stroke="#999" stroke-width="0.5"/>
  <line x1="432" y1="604.4397" x2="578" y2="351.5603" stroke="#999" stroke-width="0.5"/>
  <line x1="432" y1="604.4397" x2="757.8794" y2="624" stroke="#999" stroke-width="0.5"/>
  <line x1="432" y1="604.4397" x2="505" y2="770" stroke="#999" stroke-width="0.5"/>
  <line x1="432" y1="604.4397" x2="252.1206" y2="624" stroke="#999" stroke-width="0.5"/>
  <line x1="432" y1="604.4397" x2="252.1206" y2="332" stroke="#999" stroke-width="0.5"/>
  <line x1="432" y1="604.4397" x2="505" y2="186" stroke="#999" stroke-width="0.5"/>
  <line x1="432" y1="604.4397" x2="757.8794" y2="332" stroke="#999" stroke-width="0.5"/>
  <line x1="359" y1="478" x2="432" y2="351.5603" stroke="#999" stroke-width="0.5"/>
  <line x1="359" y1="478" x2="578" y2="351.5603" stroke="#999" stroke-width="0.5"/>
  <line x1="359" y1="478" x2="757.8794" y2="624" stroke="#999" stroke-width="0.5"/>
  <line x1="359" y1="478" x2="505" y2="770" stroke="#999" stroke-width="0.5"/>
  <line x1="359" y1="478" x2="252.1206" y2="624" stroke="#999" stroke-width="0.5"/>
  <line x1="359" y1="478" x2="252.1206" y2="332" stroke="#999" stroke-width="0.5"/>
  <line x1="359" y1="478" x2="505" y2="186" stroke="#999" stroke-width="0.5"/>
  <line x1="359" y1="478" x2="757.8794" y2="332" stroke="#999" stroke-width="0.5"/>
  <line x1="432" y1="351.5603" x2="578" y2="351.5603" stroke="#999" stroke-width="0.5"/>
  <line x1="432" y1="351.5603" x2="757.8794" y2="624" stroke="#999" stroke-width="0.5"/>
  <line x1="432" y1="351.5603" x2="505" y2="770" stroke="#999" stroke-width="0.5"/>
  <line x1="432" y1="351.5603" x2="252.1206" y2="624" stroke="#999" stroke-width="0.5"/>
  <line x1="432" y1="351.5603" x2="252.1206" y2="332" stroke="#999" stroke-width="0.5"/>
  <line x1="432" y1="351.5603" x2="505" y2="186" stroke="#999" stroke-width="0.5"/>
  <line x1="432" y1="351.5603" x2="757.8794" y2="332" stroke="#999" stroke-width="0.5"/>
  <line x1="578" y1="351.5603" x2="757.8794" y2="624" stroke="#999" stroke-width="0.5"/>
  <line x1="578" y1="351.5603" x2="505" y2="770" stroke="#999" stroke-width="0.5"/>
  <line x1="578" y1="351.5603" x2="252.1206" y2="624" stroke="#999" stroke-width="0.5"/>
  <line x1="578" y1="351.5603" x2="252.1206" y2="332" stroke="#999" stroke-width="0.5"/>
  <line x1="578" y1="351.5603" x2="505" y2="186" stroke="#999" stroke-width="0.5"/>
  <line x1="578" y1="351.5603" x2="757.8794" y2="332" stroke="#999" stroke-width="0.5"/>
  <line x1="757.8794" y1="624" x2="505" y2="770" stroke="#999" stroke-width="0.5"/>
  <line x1="757.8794" y1="624" x2="252.1206" y2="624" stroke="#999" stroke-width="0.5"/>
  <line x1="757.8794" y1="624" x2="252.1206" y2="332" stroke="#999" stroke-width="0.5"/>
  <line x1="757.8794" y1="624" x2="505" y2="186" stroke="#999" stroke-width="0.5"/>
  <line x1="757.8794" y1="624" x2="757.8794" y2="332" stroke="#999" stroke-width="0.5"/>
  <line x1="505" y1="770" x2="252.1206" y2="624" stroke="#999" stroke-width="0.5"/>
  <line x1="505" y1="770" x2="252.1206" y2="332" stroke="#999" stroke-width="0.5"/>
  <line x1="505" y1="770" x2="505" y2="186" stroke="#999" stroke-width="0.5"/>
  <line x1="505" y1="770" x2="757.8794" y2="332" stroke="#999" stroke-width="0.5"/>
  <line x1="252.1206" y1="624" x2="252.1206" y2="332" stroke="#999" stroke-width="0.5"/>
  <line x1="252.1206" y1="624" x2="505" y2="186" stroke="#999" stroke-width="0.5"/>
  <line x1="252.1206" y1="624" x2="757.8794" y2="332" stroke="#999" stroke-width="0.5"/>
  <line x1="252.1206" y1="332" x2="505" y2="186" stroke="#999" stroke-width="0.5"/>
  <line x1="252.1206" y1="332" x2="757.8794" y2="332" stroke="#999" stroke-width="0.5"/>
  <line x1="505" y1="186" x2="757.8794" y2="332" stroke="#999" stroke-width="0.5"/>
  <circle cx="505" cy="478" r="21.9" fill="none" stroke="#333" stroke-width="1"/>
  <circle cx="651" cy="478" r="21.9" fill="none" stroke="#333" stroke-width="1"/>
  <circle cx="578" cy="604.4397" r="21.9" fill="none" stroke="#333" stroke-width="1"/>
  <circle cx="432" cy="604.4397" r="21.9" fill="none" stroke="#333" stroke-width="1"/>
  <circle cx="359" cy="478" r="21.9" fill="none" stroke="#333" stroke-width="1"/>
  <circle cx="432" cy="351.5603" r="21.9" fill="none" stroke="#333" stroke-width="1"/>
  <circle cx="578" cy="351.5603" r="21.9" fill="none" stroke="#333" stroke-width="1"/>
  <circle cx="757.8794" cy="624" r="21.9" fill="none" stroke="#333" stroke-width="1"/>
  <circle cx="505" cy="770" r="21.9" fill="none" stroke="#333" stroke-width="1"/>
  <circle cx="252.1206" cy="624" r="21.9" fill="none" stroke="#333" stroke-width="1"/>
  <circle cx="252.1206" cy="332" r="21.9" fill="none" stroke="#333" stroke-width="1"/>
  <circle cx="505" cy="186" r="21.9" fill="none" stroke="#333" stroke-width="1"/>
  <circle cx="757.8794" cy="332" r="21.9" fill="none" stroke="#333" stroke-width="1"/>
</g>
  <g>
  <circle cx="482.5" cy="553" r="137" fill="none" stroke="#333" stroke-width="1.5"/>
  <circle cx="619.5" cy="553" r="137" fill="none" stroke="#333" stroke-width="1.5"/>
</g>
</svg>