<svg xmlns="http://www.w3.org/2000/svg" width="800" height="800" viewBox="0 0 800 800">
  <g>
  <line x1="489" y1="557" x2="516.4501" y2="423.7991" stroke="#333" stroke-width="1.5"/>
  <g>
  <line x1="516.4501" y1="423.7991" x2="489.981" y2="344.0229" stroke="#333" stroke-width="1.5"/>
  <g>
  <line x1="489.981" y1="344.0229" x2="451.1616" y2="309.5035" stroke="#333" stroke-width="1.5"/>
  <g>
  <line x1="451.1616" y1="309.5035" x2="419.7172" y2="303.0235" stroke="#333" stroke-width="1.5"/>
  <g>
  <line x1="419.7172" y1="303.0235" x2="400.8846" y2="309.272" stroke="#333" stroke-width="1.5"/>
  <g>
  <line x1="400.8846" y1="309.272" x2="392.7356" y2="318.436" stroke="#333" stroke-width="1.5"/>
  <g>
  <line x1="392.7356" y1="318.436" x2="391.2059" y2="325.859" stroke="#333" stroke-width="1.5"/>
</g>
  <g>
  <line x1="392.7356" y1="318.436" x2="385.5422" y2="320.8227" stroke="#333" stroke-width="1.5"/>
</g>
</g>
  <g>
  <line x1="400.8846" y1="309.272" x2="388.8738" y2="306.7968" stroke="#333" stroke-width="1.5"/>
  <g>
  <line x1="388.8738" y1="306.7968" x2="381.6804" y2="309.1835" stroke="#333" stroke-width="1.5"/>
</g>
  <g>
  <line x1="388.8738" y1="306.7968" x2="383.2102" y2="301.7605" stroke="#333" stroke-width="1.5"/>
</g>
</g>
</g>
  <g>
  <line x1="419.7172" y1="303.0235" x2="404.8895" y2="289.8382" stroke="#333" stroke-width="1.5"/>
  <g>
  <line x1="404.8895" y1="289.8382" x2="392.8788" y2="287.363" stroke="#333" stroke-width="1.5"/>
  <g>
  <line x1="392.8788" y1="287.363" x2="385.6854" y2="289.7498" stroke="#333" stroke-width="1.5"/>
</g>
  <g>
  <line x1="392.8788" y1="287.363" x2="387.2151" y2="282.3267" stroke="#333" stroke-width="1.5"/>
</g>
</g>
  <g>
  <line x1="404.8895" y1="289.8382" x2="401.0277" y2="278.199" stroke="#333" stroke-width="1.5"/>
  <g>
  <line x1="401.0277" y1="278.199" x2="395.364" y2="273.1627" stroke="#333" stroke-width="1.5"/>
</g>
  <g>
  <line x1="401.0277" y1="278.199" x2="402.5574" y2="270.776" stroke="#333" stroke-width="1.5"/>
</g>
</g>
</g>
</g>
  <g>
  <line x1="451.1616" y1="309.5035" x2="441.0513" y2="279.0318" stroke="#333" stroke-width="1.5"/>
  <g>
  <line x1="441.0513" y1="279.0318" x2="426.2236" y2="265.8465" stroke="#333" stroke-width="1.5"/>
  <g>
  <line x1="426.2236" y1="265.8465" x2="414.2129" y2="263.3714" stroke="#333" stroke-width="1.5"/>
  <g>
  <line x1="414.2129" y1="263.3714" x2="407.0195" y2="265.7581" stroke="#333" stroke-width="1.5"/>
</g>
  <g>
  <line x1="414.2129" y1="263.3714" x2="408.5493" y2="258.3351" stroke="#333" stroke-width="1.5"/>
</g>
</g>
  <g>
  <line x1="426.2236" y1="265.8465" x2="422.3619" y2="254.2074" stroke="#333" stroke-width="1.5"/>
  <g>
  <line x1="422.3619" y1="254.2074" x2="416.6982" y2="249.1711" stroke="#333" stroke-width="1.5"/>
</g>
  <g>
  <line x1="422.3619" y1="254.2074" x2="423.8916" y2="246.7843" stroke="#333" stroke-width="1.5"/>
</g>
</g>
</g>
  <g>
  <line x1="441.0513" y1="279.0318" x2="445.0562" y2="259.598" stroke="#333" stroke-width="1.5"/>
  <g>
  <line x1="445.0562" y1="259.598" x2="441.1944" y2="247.9588" stroke="#333" stroke-width="1.5"/>
  <g>
  <line x1="441.1944" y1="247.9588" x2="435.5308" y2="242.9225" stroke="#333" stroke-width="1.5"/>
</g>
  <g>
  <line x1="441.1944" y1="247.9588" x2="442.7242" y2="240.5358" stroke="#333" stroke-width="1.5"/>
</g>
</g>
  <g>
  <line x1="445.0562" y1="259.598" x2="453.2052" y2="250.434" stroke="#333" stroke-width="1.5"/>
  <g>
  <line x1="453.2052" y1="250.434" x2="454.7349" y2="243.011" stroke="#333" stroke-width="1.5"/>
</g>
  <g>
  <line x1="453.2052" y1="250.434" x2="460.3986" y2="248.0473" stroke="#333" stroke-width="1.5"/>
</g>
</g>
</g>
</g>
</g>
  <g>
  <line x1="489.981" y1="344.0229" x2="500.466" y2="293.1447" stroke="#333" stroke-width="1.5"/>
  <g>
  <line x1="500.466" y1="293.1447" x2="490.3557" y2="262.673" stroke="#333" stroke-width="1.5"/>
  <g>
  <line x1="490.3557" y1="262.673" x2="475.528" y2="249.4877" stroke="#333" stroke-width="1.5"/>
  <g>
  <line x1="475.528" y1="249.4877" x2="463.5173" y2="247.0125" stroke="#333" stroke-width="1.5"/>
  <g>
  <line x1="463.5173" y1="247.0125" x2="456.3239" y2="249.3993" stroke="#333" stroke-width="1.5"/>
</g>
  <g>
  <line x1="463.5173" y1="247.0125" x2="457.8536" y2="241.9762" stroke="#333" stroke-width="1.5"/>
</g>
</g>
  <g>
  <line x1="475.528" y1="249.4877" x2="471.6662" y2="237.8485" stroke="#333" stroke-width="1.5"/>
  <g>
  <line x1="471.6662" y1="237.8485" x2="466.0025" y2="232.8122" stroke="#333" stroke-width="1.5"/>
</g>
  <g>
  <line x1="471.6662" y1="237.8485" x2="473.1959" y2="230.4255" stroke="#333" stroke-width="1.5"/>
</g>
</g>
</g>
  <g>
  <line x1="490.3557" y1="262.673" x2="494.3606" y2="243.2392" stroke="#333" stroke-width="1.5"/>
  <g>
  <line x1="494.3606" y1="243.2392" x2="490.4988" y2="231.6" stroke="#333" stroke-width="1.5"/>
  <g>
  <line x1="490.4988" y1="231.6" x2="484.8351" y2="226.5637" stroke="#333" stroke-width="1.5"/>
</g>
  <g>
  <line x1="490.4988" y1="231.6" x2="492.0285" y2="224.177" stroke="#333" stroke-width="1.5"/>
</g>
</g>
  <g>
  <line x1="494.3606" y1="243.2392" x2="502.5095" y2="234.0752" stroke="#333" stroke-width="1.5"/>
  <g>
  <line x1="502.5095" y1="234.0752" x2="504.0392" y2="226.6522" stroke="#333" stroke-width="1.5"/>
</g>
  <g>
  <line x1="502.5095" y1="234.0752" x2="509.7029" y2="231.6885" stroke="#333" stroke-width="1.5"/>
</g>
</g>
</g>
</g>
  <g>
  <line x1="500.466" y1="293.1447" x2="521.8001" y2="269.153" stroke="#333" stroke-width="1.5"/>
  <g>
  <line x1="521.8001" y1="269.153" x2="525.8051" y2="249.7193" stroke="#333" stroke-width="1.5"/>
  <g>
  <line x1="525.8051" y1="249.7193" x2="521.9433" y2="238.0801" stroke="#333" stroke-width="1.5"/>
  <g>
  <line x1="521.9433" y1="238.0801" x2="516.2796" y2="233.0438" stroke="#333" stroke-width="1.5"/>
</g>
  <g>
  <line x1="521.9433" y1="238.0801" x2="523.473" y2="230.6571" stroke="#333" stroke-width="1.5"/>
</g>
</g>
  <g>
  <line x1="525.8051" y1="249.7193" x2="533.954" y2="240.5553" stroke="#333" stroke-width="1.5"/>
  <g>
  <line x1="533.954" y1="240.5553" x2="535.4837" y2="233.1323" stroke="#333" stroke-width="1.5"/>
</g>
  <g>
  <line x1="533.954" y1="240.5553" x2="541.1474" y2="238.1686" stroke="#333" stroke-width="1.5"/>
</g>
</g>
</g>
  <g>
  <line x1="521.8001" y1="269.153" x2="540.6327" y2="262.9045" stroke="#333" stroke-width="1.5"/>
  <g>
  <line x1="540.6327" y1="262.9045" x2="548.7817" y2="253.7405" stroke="#333" stroke-width="1.5"/>
  <g>
  <line x1="548.7817" y1="253.7405" x2="550.3114" y2="246.3175" stroke="#333" stroke-width="1.5"/>
</g>
  <g>
  <line x1="548.7817" y1="253.7405" x2="555.9751" y2="251.3538" stroke="#333" stroke-width="1.5"/>
</g>
</g>
  <g>
  <line x1="540.6327" y1="262.9045" x2="552.6434" y2="265.3797" stroke="#333" stroke-width="1.5"/>
  <g>
  <line x1="552.6434" y1="265.3797" x2="559.8369" y2="262.993" stroke="#333" stroke-width="1.5"/>
</g>
  <g>
  <line x1="552.6434" y1="265.3797" x2="558.3071" y2="270.416" stroke="#333" stroke-width="1.5"/>
</g>
</g>
</g>
</g>
</g>
</g>
  <g>
  <line x1="516.4501" y1="423.7991" x2="572.3037" y2="360.988" stroke="#333" stroke-width="1.5"/>
  <g>
  <line x1="572.3037" y1="360.988" x2="582.7887" y2="310.1098" stroke="#333" stroke-width="1.5"/>
  <g>
  <line x1="582.7887" y1="310.1098" x2="572.6784" y2="279.6381" stroke="#333" stroke-width="1.5"/>
  <g>
  <line x1="572.6784" y1="279.6381" x2="557.8507" y2="266.4528" stroke="#333" stroke-width="1.5"/>
  <g>
  <line x1="557.8507" y1="266.4528" x2="545.84" y2="263.9776" stroke="#333" stroke-width="1.5"/>
  <g>
  <line x1="545.84" y1="263.9776" x2="538.6466" y2="266.3644" stroke="#333" stroke-width="1.5"/>
</g>
  <g>
  <line x1="545.84" y1="263.9776" x2="540.1763" y2="258.9413" stroke="#333" stroke-width="1.5"/>
</g>
</g>
  <g>
  <line x1="557.8507" y1="266.4528" x2="553.9889" y2="254.8136" stroke="#333" stroke-width="1.5"/>
  <g>
  <line x1="553.9889" y1="254.8136" x2="548.3252" y2="249.7773" stroke="#333" stroke-width="1.5"/>
</g>
  <g>
  <line x1="553.9889" y1="254.8136" x2="555.5187" y2="247.3906" stroke="#333" stroke-width="1.5"/>
</g>
</g>
</g>
  <g>
  <line x1="572.6784" y1="279.6381" x2="576.6833" y2="260.2043" stroke="#333" stroke-width="1.5"/>
  <g>
  <line x1="576.6833" y1="260.2043" x2="572.8215" y2="248.5651" stroke="#333" stroke-width="1.5"/>
  <g>
  <line x1="572.8215" y1="248.5651" x2="567.1578" y2="243.5288" stroke="#333" stroke-width="1.5"/>
</g>
  <g>
  <line x1="572.8215" y1="248.5651" x2="574.3512" y2="241.1421" stroke="#333" stroke-width="1.5"/>
</g>
</g>
  <g>
  <line x1="576.6833" y1="260.2043" x2="584.8322" y2="251.0403" stroke="#333" stroke-width="1.5"/>
  <g>
  <line x1="584.8322" y1="251.0403" x2="586.362" y2="243.6173" stroke="#333" stroke-width="1.5"/>
</g>
  <g>
  <line x1="584.8322" y1="251.0403" x2="592.0256" y2="248.6536" stroke="#333" stroke-width="1.5"/>
</g>
</g>
</g>
</g>
  <g>
  <line x1="582.7887" y1="310.1098" x2="604.1229" y2="286.1181" stroke="#333" stroke-width="1.5"/>
  <g>
  <line x1="604.1229" y1="286.1181" x2="608.1278" y2="266.6844" stroke="#333" stroke-width="1.5"/>
  <g>
  <line x1="608.1278" y1="266.6844" x2="604.266" y2="255.0452" stroke="#333" stroke-width="1.5"/>
  <g>
  <line x1="604.266" y1="255.0452" x2="598.6023" y2="250.0089" stroke="#333" stroke-width="1.5"/>
</g>
  <g>
  <line x1="604.266" y1="255.0452" x2="605.7957" y2="247.6222" stroke="#333" stroke-width="1.5"/>
</g>
</g>
  <g>
  <line x1="608.1278" y1="266.6844" x2="616.2767" y2="257.5204" stroke="#333" stroke-width="1.5"/>
  <g>
  <line x1="616.2767" y1="257.5204" x2="617.8064" y2="250.0974" stroke="#333" stroke-width="1.5"/>
</g>
  <g>
  <line x1="616.2767" y1="257.5204" x2="623.4701" y2="255.1337" stroke="#333" stroke-width="1.5"/>
</g>
</g>
</g>
  <g>
  <line x1="604.1229" y1="286.1181" x2="622.9554" y2="279.8696" stroke="#333" stroke-width="1.5"/>
  <g>
  <line x1="622.9554" y1="279.8696" x2="631.1044" y2="270.7056" stroke="#333" stroke-width="1.5"/>
  <g>
  <line x1="631.1044" y1="270.7056" x2="632.6341" y2="263.2826" stroke="#333" stroke-width="1.5"/>
</g>
  <g>
  <line x1="631.1044" y1="270.7056" x2="638.2978" y2="268.3189" stroke="#333" stroke-width="1.5"/>
</g>
</g>
  <g>
  <line x1="622.9554" y1="279.8696" x2="634.9662" y2="282.3448" stroke="#333" stroke-width="1.5"/>
  <g>
  <line x1="634.9662" y1="282.3448" x2="642.1596" y2="279.9581" stroke="#333" stroke-width="1.5"/>
</g>
  <g>
  <line x1="634.9662" y1="282.3448" x2="640.6298" y2="287.3811" stroke="#333" stroke-width="1.5"/>
</g>
</g>
</g>
</g>
</g>
  <g>
  <line x1="572.3037" y1="360.988" x2="621.608" y2="344.6292" stroke="#333" stroke-width="1.5"/>
  <g>
  <line x1="621.608" y1="344.6292" x2="642.9422" y2="320.6375" stroke="#333" stroke-width="1.5"/>
  <g>
  <line x1="642.9422" y1="320.6375" x2="646.9471" y2="301.2038" stroke="#333" stroke-width="1.5"/>
  <g>
  <line x1="646.9471" y1="301.2038" x2="643.0853" y2="289.5646" stroke="#333" stroke-width="1.5"/>
  <g>
  <line x1="643.0853" y1="289.5646" x2="637.4216" y2="284.5283" stroke="#333" stroke-width="1.5"/>
</g>
  <g>
  <line x1="643.0853" y1="289.5646" x2="644.6151" y2="282.1416" stroke="#333" stroke-width="1.5"/>
</g>
</g>
  <g>
  <line x1="646.9471" y1="301.2038" x2="655.096" y2="292.0398" stroke="#333" stroke-width="1.5"/>
  <g>
  <line x1="655.096" y1="292.0398" x2="656.6258" y2="284.6168" stroke="#333" stroke-width="1.5"/>
</g>
  <g>
  <line x1="655.096" y1="292.0398" x2="662.2894" y2="289.6531" stroke="#333" stroke-width="1.5"/>
</g>
</g>
</g>
  <g>
  <line x1="642.9422" y1="320.6375" x2="661.7748" y2="314.389" stroke="#333" stroke-width="1.5"/>
  <g>
  <line x1="661.7748" y1="314.389" x2="669.9237" y2="305.225" stroke="#333" stroke-width="1.5"/>
  <g>
  <line x1="669.9237" y1="305.225" x2="671.4534" y2="297.802" stroke="#333" stroke-width="1.5"/>
</g>
  <g>
  <line x1="669.9237" y1="305.225" x2="677.1171" y2="302.8383" stroke="#333" stroke-width="1.5"/>
</g>
</g>
  <g>
  <line x1="661.7748" y1="314.389" x2="673.7855" y2="316.8642" stroke="#333" stroke-width="1.5"/>
  <g>
  <line x1="673.7855" y1="316.8642" x2="680.9789" y2="314.4775" stroke="#333" stroke-width="1.5"/>
</g>
  <g>
  <line x1="673.7855" y1="316.8642" x2="679.4492" y2="321.9005" stroke="#333" stroke-width="1.5"/>
</g>
</g>
</g>
</g>
  <g>
  <line x1="621.608" y1="344.6292" x2="653.0525" y2="351.1093" stroke="#333" stroke-width="1.5"/>
  <g>
  <line x1="653.0525" y1="351.1093" x2="671.8851" y2="344.8608" stroke="#333" stroke-width="1.5"/>
  <g>
  <line x1="671.8851" y1="344.8608" x2="680.034" y2="335.6968" stroke="#333" stroke-width="1.5"/>
  <g>
  <line x1="680.034" y1="335.6968" x2="681.5638" y2="328.2738" stroke="#333" stroke-width="1.5"/>
</g>
  <g>
  <line x1="680.034" y1="335.6968" x2="687.2274" y2="333.3101" stroke="#333" stroke-width="1.5"/>
</g>
</g>
  <g>
  <line x1="671.8851" y1="344.8608" x2="683.8958" y2="347.336" stroke="#333" stroke-width="1.5"/>
  <g>
  <line x1="683.8958" y1="347.336" x2="691.0892" y2="344.9492" stroke="#333" stroke-width="1.5"/>
</g>
  <g>
  <line x1="683.8958" y1="347.336" x2="689.5595" y2="352.3723" stroke="#333" stroke-width="1.5"/>
</g>
</g>
</g>
  <g>
  <line x1="653.0525" y1="351.1093" x2="667.8802" y2="364.2945" stroke="#333" stroke-width="1.5"/>
  <g>
  <line x1="667.8802" y1="364.2945" x2="679.8909" y2="366.7697" stroke="#333" stroke-width="1.5"/>
  <g>
  <line x1="679.8909" y1="366.7697" x2="687.0843" y2="364.383" stroke="#333" stroke-width="1.5"/>
</g>
  <g>
  <line x1="679.8909" y1="366.7697" x2="685.5546" y2="371.806" stroke="#333" stroke-width="1.5"/>
</g>
</g>
  <g>
  <line x1="667.8802" y1="364.2945" x2="671.742" y2="375.9337" stroke="#333" stroke-width="1.5"/>
  <g>
  <line x1="671.742" y1="375.9337" x2="677.4056" y2="380.97" stroke="#333" stroke-width="1.5"/>
</g>
  <g>
  <line x1="671.742" y1="375.9337" x2="670.2122" y2="383.3568" stroke="#333" stroke-width="1.5"/>
</g>
</g>
</g>
</g>
</g>
</g>
</g>
  <g transform="rotate(-84.9,400,400)">
  <g>
  <circle cx="367" cy="249" r="118" stroke="#333" stroke-width="2" fill="#333" fill-opacity="0.05"/>
  <circle cx="367" cy="154.6" r="9.44" fill="#333" stroke="#fff" stroke-width="1"/>
  <text x="364" y="158.6" font-size="9" fill="#fff" font-weight="bold">1</text>
  <circle cx="448.7528" cy="201.8" r="9.44" fill="#333" stroke="#fff" stroke-width="1"/>
  <text x="445.7528" y="205.8" font-size="9" fill="#fff" font-weight="bold">2</text>
  <circle cx="448.7528" cy="296.2" r="9.44" fill="#333" stroke="#fff" stroke-width="1"/>
  <text x="445.7528" y="300.2" font-size="9" fill="#fff" font-weight="bold">3</text>
  <circle cx="367" cy="343.4" r="9.44" fill="#333" stroke="#fff" stroke-width="1"/>
  <text x="364" y="347.4" font-size="9" fill="#fff" font-weight="bold">4</text>
  <circle cx="285.2472" cy="296.2" r="9.44" fill="#333" stroke="#fff" stroke-width="1"/>
  <text x="282.2472" y="300.2" font-size="9" fill="#fff" font-weight="bold">5</text>
  <circle cx="285.2472" cy="201.8" r="9.44" fill="#333" stroke="#fff" stroke-width="1"/>
  <text x="282.2472" y="205.8" font-size="9" fill="#fff" font-weight="bold">6</text>
  <path d="M 367,154.6 Q 416.56,163.1596 448.7528,201.8" stroke="#333" stroke-width="1" fill="none"/>
  <path d="M 448.7528,201.8 Q 466.12,249 448.7528,296.2" stroke="#333" stroke-width="1" fill="none"/>
  <path d="M 448.7528,296.2 Q 416.56,334.8404 367,343.4" stroke="#333" stroke-width="1" fill="none"/>
  <path d="M 367,343.4 Q 317.44,334.8404 285.2472,296.2" stroke="#333" stroke-width="1" fill="none"/>
  <path d="M 285.2472,296.2 Q 267.88,249 285.2472,201.8" stroke="#333" stroke-width="1" fill="none"/>
  <path d="M 285.2472,201.8 Q 416.56,334.8404 367,154.6" stroke="#333" stroke-width="1" fill="none"/>
  <text x="359" y="253" font-size="14" fill="#333" font-weight="bold">W6</text>
</g>
</g>
  <g opacity="0.75">
  <g transform="rotate(168.0,400,400)">
  <g>
  <g>
  <circle cx="350" cy="484" r="19.3144" stroke="#e74c3c" stroke-width="2" fill="#e74c3c" fill-opacity="0.08"/>
  <circle cx="369.3144" cy="484" r="3" fill="#e74c3c" stroke="none"/>
  <circle cx="340.3428" cy="467.2732" r="3" fill="#e74c3c" stroke="none"/>
  <circle cx="340.3428" cy="500.7268" r="3" fill="#e74c3c" stroke="none"/>
  <text x="377.3144" y="488" font-size="10" fill="#e74c3c">3D c3 seed</text>
  <circle cx="350" cy="484" r="31.2514" stroke="#e67e22" stroke-width="2" fill="#e67e22" fill-opacity="0.08"/>
  <circle cx="381.2514" cy="484" r="3" fill="#e67e22" stroke="none"/>
  <circle cx="350" cy="452.7486" r="3" fill="#e67e22" stroke="none"/>
  <circle cx="318.7486" cy="484" r="3" fill="#e67e22" stroke="none"/>
  <circle cx="350" cy="515.2514" r="3" fill="#e67e22" stroke="none"/>
  <text x="389.2514" y="488" font-size="10" fill="#e67e22">4D E4 base</text>
  <circle cx="350" cy="484" r="50.5658" stroke="#f1c40f" stroke-width="2" fill="#f1c40f" fill-opacity="0.08"/>
  <circle cx="400.5658" cy="484" r="3" fill="#f1c40f" stroke="none"/>
  <circle cx="375.2829" cy="440.2088" r="3" fill="#f1c40f" stroke="none"/>
  <circle cx="324.7171" cy="440.2088" r="3" fill="#f1c40f" stroke="none"/>
  <circle cx="299.4342" cy="484" r="3" fill="#f1c40f" stroke="none"/>
  <circle cx="324.7171" cy="527.7912" r="3" fill="#f1c40f" stroke="none"/>
  <circle cx="375.2829" cy="527.7912" r="3" fill="#f1c40f" stroke="none"/>
  <text x="408.5658" y="488" font-size="10" fill="#f1c40f">6D W3 Mobius</text>
  <circle cx="350" cy="484" r="81.8171" stroke="#2ecc71" stroke-width="2" fill="#2ecc71" fill-opacity="0.08"/>
  <circle cx="431.8171" cy="484" r="3" fill="#2ecc71" stroke="none"/>
  <circle cx="407.8534" cy="426.1466" r="3" fill="#2ecc71" stroke="none"/>
  <circle cx="350" cy="402.1829" r="3" fill="#2ecc71" stroke="none"/>
  <circle cx="292.1466" cy="426.1466" r="3" fill="#2ecc71" stroke="none"/>
  <circle cx="268.1829" cy="484" r="3" fill="#2ecc71" stroke="none"/>
  <circle cx="292.1466" cy="541.8534" r="3" fill="#2ecc71" stroke="none"/>
  <circle cx="350" cy="565.8171" r="3" fill="#2ecc71" stroke="none"/>
  <circle cx="407.8534" cy="541.8534" r="3" fill="#2ecc71" stroke="none"/>
  <text x="439.8171" y="488" font-size="10" fill="#2ecc71">8D W5 penta</text>
  <circle cx="350" cy="484" r="132.3829" stroke="#3498db" stroke-width="2" fill="#3498db" fill-opacity="0.08"/>
  <circle cx="482.3829" cy="484" r="3" fill="#3498db" stroke="none"/>
  <circle cx="457.1" cy="406.1873" r="3" fill="#3498db" stroke="none"/>
  <circle cx="390.9086" cy="358.0964" r="3" fill="#3498db" stroke="none"/>
  <circle cx="309.0914" cy="358.0964" r="3" fill="#3498db" stroke="none"/>
  <circle cx="242.9" cy="406.1873" r="3" fill="#3498db" stroke="none"/>
  <circle cx="217.6171" cy="484" r="3" fill="#3498db" stroke="none"/>
  <circle cx="242.9" cy="561.8127" r="3" fill="#3498db" stroke="none"/>
  <circle cx="309.0914" cy="609.9036" r="3" fill="#3498db" stroke="none"/>
  <circle cx="390.9086" cy="609.9036" r="3" fill="#3498db" stroke="none"/>
  <circle cx="457.1" cy="561.8127" r="3" fill="#3498db" stroke="none"/>
  <text x="490.3829" y="488" font-size="10" fill="#3498db">10D W7 hepta</text>
  <circle cx="350" cy="484" r="214.2" stroke="#9b59b6" stroke-width="2" fill="#9b59b6" fill-opacity="0.08"/>
  <circle cx="564.2" cy="484" r="3" fill="#9b59b6" stroke="none"/>
  <circle cx="535.5026" cy="376.9" r="3" fill="#9b59b6" stroke="none"/>
  <circle cx="457.1" cy="298.4974" r="3" fill="#9b59b6" stroke="none"/>
  <circle cx="350" cy="269.8" r="3" fill="#9b59b6" stroke="none"/>
  <circle cx="242.9" cy="298.4974" r="3" fill="#9b59b6" stroke="none"/>
  <circle cx="164.4974" cy="376.9" r="3" fill="#9b59b6" stroke="none"/>
  <circle cx="135.8" cy="484" r="3" fill="#9b59b6" stroke="none"/>
  <circle cx="164.4974" cy="591.1" r="3" fill="#9b59b6" stroke="none"/>
  <circle cx="242.9" cy="669.5026" r="3" fill="#9b59b6" stroke="none"/>
  <circle cx="350" cy="698.2" r="3" fill="#9b59b6" stroke="none"/>
  <circle cx="457.1" cy="669.5026" r="3" fill="#9b59b6" stroke="none"/>
  <circle cx="535.5026" cy="591.1" r="3" fill="#9b59b6" stroke="none"/>
  <text x="572.2" y="488" font-size="10" fill="#9b59b6">12D W9 crown</text>
</g>
  <line x1="322.5901" y1="572.4787" x2="434.0901" y2="563.6431" stroke="#8B4513" stroke-width="1.2"/>
  <line x1="322.5901" y1="572.4787" x2="322.5901" y2="420.6002" stroke="#DC143C" stroke-width="1.2"/>
  <line x1="322.5901" y1="572.4787" x2="322.5901" y2="547.3998" stroke="#4169E1" stroke-width="1.2"/>
  <line x1="322.5901" y1="572.4787" x2="272.3497" y2="557.5439" stroke="#228B22" stroke-width="1.2"/>
  <line x1="434.0901" y1="563.6431" x2="434.0901" y2="426.9313" stroke="#DC143C" stroke-width="1.2"/>
  <line x1="434.0901" y1="563.6431" x2="434.0901" y2="541.0687" stroke="#4169E1" stroke-width="1.2"/>
  <line x1="434.0901" y1="563.6431" x2="370.8597" y2="551.3347" stroke="#228B22" stroke-width="1.2"/>
  <line x1="322.5901" y1="420.6002" x2="434.0901" y2="426.9313" stroke="#8B4513" stroke-width="1.2"/>
  <line x1="322.5901" y1="420.6002" x2="322.5901" y2="395.5213" stroke="#4169E1" stroke-width="1.2"/>
  <line x1="322.5901" y1="420.6002" x2="272.3497" y2="431.3018" stroke="#228B22" stroke-width="1.2"/>
  <line x1="434.0901" y1="426.9313" x2="434.0901" y2="404.3569" stroke="#4169E1" stroke-width="1.2"/>
  <line x1="434.0901" y1="426.9313" x2="370.8597" y2="435.751" stroke="#228B22" stroke-width="1.2"/>
  <line x1="322.5901" y1="547.3998" x2="434.0901" y2="541.0687" stroke="#8B4513" stroke-width="1.2"/>
  <line x1="322.5901" y1="547.3998" x2="322.5901" y2="395.5213" stroke="#DC143C" stroke-width="1.2"/>
  <line x1="322.5901" y1="547.3998" x2="272.3497" y2="536.6982" stroke="#228B22" stroke-width="1.2"/>
  <line x1="434.0901" y1="541.0687" x2="434.0901" y2="404.3569" stroke="#DC143C" stroke-width="1.2"/>
  <line x1="434.0901" y1="541.0687" x2="370.8597" y2="532.249" stroke="#228B22" stroke-width="1.2"/>
  <line x1="322.5901" y1="395.5213" x2="434.0901" y2="404.3569" stroke="#8B4513" stroke-width="1.2"/>
  <line x1="322.5901" y1="395.5213" x2="272.3497" y2="410.4561" stroke="#228B22" stroke-width="1.2"/>
  <line x1="434.0901" y1="404.3569" x2="370.8597" y2="416.6653" stroke="#228B22" stroke-width="1.2"/>
  <line x1="272.3497" y1="557.5439" x2="370.8597" y2="551.3347" stroke="#8B4513" stroke-width="1.2"/>
  <line x1="272.3497" y1="557.5439" x2="272.3497" y2="431.3018" stroke="#DC143C" stroke-width="1.2"/>
  <line x1="272.3497" y1="557.5439" x2="272.3497" y2="536.6982" stroke="#4169E1" stroke-width="1.2"/>
  <line x1="370.8597" y1="551.3347" x2="370.8597" y2="435.751" stroke="#DC143C" stroke-width="1.2"/>
  <line x1="370.8597" y1="551.3347" x2="370.8597" y2="532.249" stroke="#4169E1" stroke-width="1.2"/>
  <line x1="272.3497" y1="431.3018" x2="370.8597" y2="435.751" stroke="#8B4513" stroke-width="1.2"/>
  <line x1="272.3497" y1="431.3018" x2="272.3497" y2="410.4561" stroke="#4169E1" stroke-width="1.2"/>
  <line x1="370.8597" y1="435.751" x2="370.8597" y2="416.6653" stroke="#4169E1" stroke-width="1.2"/>
  <line x1="272.3497" y1="536.6982" x2="370.8597" y2="532.249" stroke="#8B4513" stroke-width="1.2"/>
  <line x1="272.3497" y1="536.6982" x2="272.3497" y2="410.4561" stroke="#DC143C" stroke-width="1.2"/>
  <line x1="370.8597" y1="532.249" x2="370.8597" y2="416.6653" stroke="#DC143C" stroke-width="1.2"/>
  <line x1="272.3497" y1="410.4561" x2="370.8597" y2="416.6653" stroke="#8B4513" stroke-width="1.2"/>
  <circle cx="322.5901" cy="572.4787" r="3" fill="#8B4513" stroke="#333" stroke-width="0.5"/>
  <circle cx="434.0901" cy="563.6431" r="3" fill="#DC143C" stroke="#333" stroke-width="0.5"/>
  <circle cx="322.5901" cy="420.6002" r="3" fill="#DC143C" stroke="#333" stroke-width="0.5"/>
  <circle cx="434.0901" cy="426.9313" r="3" fill="#4169E1" stroke="#333" stroke-width="0.5"/>
  <circle cx="322.5901" cy="547.3998" r="3" fill="#DC143C" stroke="#333" stroke-width="0.5"/>
  <circle cx="434.0901" cy="541.0687" r="3" fill="#4169E1" stroke="#333" stroke-width="0.5"/>
  <circle cx="322.5901" cy="395.5213" r="3" fill="#4169E1" stroke="#333" stroke-width="0.5"/>
  <circle cx="434.0901" cy="404.3569" r="3" fill="#228B22" stroke="#333" stroke-width="0.5"/>
  <circle cx="272.3497" cy="557.5439" r="3" fill="#DC143C" stroke="#333" stroke-width="0.5"/>
  <circle cx="370.8597" cy="551.3347" r="3" fill="#4169E1" stroke="#333" stroke-width="0.5"/>
  <circle cx="272.3497" cy="431.3018" r="3" fill="#4169E1" stroke="#333" stroke-width="0.5"/>
  <circle cx="370.8597" cy="435.751" r="3" fill="#228B22" stroke="#333" stroke-width="0.5"/>
  <circle cx="272.3497" cy="536.6982" r="3" fill="#4169E1" stroke="#333" stroke-width="0.5"/>
  <circle cx="370.8597" cy="532.249" r="3" fill="#228B22" stroke="#333" stroke-width="0.5"/>
  <circle cx="272.3497" cy="410.4561" r="3" fill="#228B22" stroke="#333" stroke-width="0.5"/>
  <circle cx="370.8597" cy="416.6653" r="3" fill="#8B4513" stroke="#333" stroke-width="0.5"/>
  <g>
  <polyline points="417.6426,473.9684 414.357,470.5331 410.0126,467.3207 404.671,464.3874 398.4074,461.7859 391.3099,459.5648 383.4786,457.7683 375.0251,456.4355 366.0715,455.5994 356.7491,455.2868 347.1973,455.5174 337.562,456.3031 327.9942,457.6479 318.6477,459.5473 309.6773,461.9878 301.2364,464.9466 293.4746,468.3918 286.5349,472.2822 280.5513,476.5676 275.6462,481.1892 271.9271,486.0801 269.4848,491.1661 268.3905,496.3669 268.6937,501.5971 270.4205,506.7673 273.5719,511.7864 278.1231,516.5625 284.0227,521.0049 291.1928,525.0262 299.5295,528.5436 308.9046,531.4814 319.1666,533.7723 330.1437,535.3589 341.6466,536.1959 353.4718,536.2505 365.4055,535.5042 377.2278,533.9528 388.7173,531.6077 399.6555,528.4952 409.8315,524.6568 419.0468,520.1483 427.1195,515.0392 433.8884,509.4111 439.2167,503.3564 442.9951,496.9766 445.1446,490.3798 445.6183,483.6792 444.4023,476.9901 441.5165,470.4278" stroke="#9b59b6" stroke-width="0.5" fill="none" stroke-opacity="0.6"/>
  <polyline points="421.6216,473.3783 418.1332,469.4618 413.5073,465.789 407.8145,462.4237 401.1414,459.4249 393.5895,456.8469 385.2739,454.7379 376.3218,453.1394 366.8713,452.0856 357.0697,451.603 347.0711,451.7092 337.035,452.4132 327.1238,453.7145 317.5006,455.603 308.3266,458.0592 299.7587,461.0538 291.9469,464.5478 285.0317,468.4935 279.1416,472.8342 274.3906,477.5053 270.876,482.4349 268.6758,487.5452 267.8473,492.753 268.4252,497.9717 270.4205,503.1122 273.8194,508.0846 278.5832,512.7998 284.648,517.1712 291.9254,521.1164 300.3034,524.5587 309.6482,527.4287 319.806,529.6658 330.6055,531.2199 341.8608,532.0522 353.375,532.136 364.9434,531.4583 376.3575,530.0194 387.4094,527.8337 397.8952,524.9295 407.6199,521.3485 416.4007,517.1456 424.0713,512.3874 430.4849,507.1516 435.5179,501.5251 439.0722,495.6029 441.0772,489.4855 441.4919,483.2777 440.3055,477.0864 437.5375,471.0179" stroke="#9b59b6" stroke-width="0.5" fill="none" stroke-opacity="0.6"/>
  <polyline points="425.6006,472.7882 421.9094,468.3904 417.0019,464.2573 410.958,460.4599 403.8754,457.0639 395.8692,454.129 387.0692,451.7074 377.6184,449.8432 367.6711,448.5718 357.3902,447.9192 346.9449,447.9011 336.508,448.5233 326.2535,449.781 316.3536,451.6587 306.9759,454.1307 298.281,457.1609 290.4191,460.7039 283.5284,464.7049 277.7318,469.1008 273.1351,473.8213 269.8248,478.7897 267.8667,483.9242 267.304,489.1391 268.1567,494.3464 270.4205,499.4571 274.0669,504.3827 279.0433,509.0371 285.2733,513.3376 292.6579,517.2067 301.0772,520.5738 310.3919,523.3759 320.4455,525.5594 331.0673,527.081 342.075,527.9084 353.2782,528.0215 364.4812,527.4124 375.4872,526.0859 386.1014,524.0596 396.135,521.3637 405.4083,518.0402 413.7546,514.1428 421.023,509.7356 427.0814,504.8921 431.8192,499.6939 435.1492,494.2292 437.0098,488.5911 437.3656,482.8763 436.2087,477.1826 433.5585,471.608" stroke="#9b59b6" stroke-width="0.5" fill="none" stroke-opacity="0.6"/>
  <polyline points="429.5795,472.1981 425.6856,467.3191 420.4966,462.7256 414.1014,458.4961 406.6095,454.703 398.1489,451.4111 388.8645,448.6769 378.9151,446.5471 368.471,445.058 357.7108,444.2353 346.8187,444.093 335.981,444.6335 325.3832,445.8475 315.2066,447.7144 305.6253,450.2021 296.8032,453.2681 288.8914,456.86 282.0252,460.9162 276.322,465.3674 271.8795,470.1374 268.7737,475.1445 267.0576,480.3033 266.7608,485.5252 267.8881,490.7211 270.4205,495.8019 274.3144,500.6809 279.5034,505.2744 285.8986,509.5039 293.3905,513.297 301.8511,516.5889 311.1355,519.3231 321.0849,521.4529 331.529,522.942 342.2892,523.7647 353.1813,523.907 364.019,523.3665 374.6168,522.1525 384.7934,520.2856 394.3747,517.7979 403.1968,514.7319 411.1086,511.14 417.9748,507.0838 423.678,502.6326 428.1205,497.8626 431.2263,492.8555 432.9424,487.6967 433.2392,482.4748 432.1119,477.2789 429.5795,472.1981" stroke="#9b59b6" stroke-width="0.5" fill="none" stroke-opacity="0.6"/>
  <polyline points="433.5585,471.608 429.4618,466.2478 423.9913,461.1939 417.2449,456.5323 409.3435,452.342 400.4286,448.6933 390.6598,445.6464 380.2118,443.2509 369.2708,441.5442 358.0313,440.5515 346.6925,440.2849 335.454,440.7436 324.5128,441.9141 314.0595,443.7701 304.2746,446.2736 295.3255,449.3753 287.3637,453.016 280.522,457.1275 274.9123,461.6339 270.624,466.4534 267.7225,471.4994 266.2486,476.6823 266.2175,481.9113 267.6196,487.0957 270.4205,492.1468 274.5619,496.979 279.9635,501.5117 286.5238,505.6702 294.1231,509.3873 302.6249,512.6039 311.8791,515.2703 321.7243,517.3465 331.9908,518.803 342.5034,519.6209 353.0845,519.7925 363.5569,519.3206 373.7465,518.219 383.4855,516.5116 392.6145,514.2321 400.9852,511.4236 408.4625,508.1373 414.9266,504.432 420.2745,500.3732 424.4217,496.0314 427.3034,491.4817 428.8749,486.8024 429.1129,482.0733 428.0151,477.3752 425.6006,472.7882" stroke="#9b59b6" stroke-width="0.5" fill="none" stroke-opacity="0.6"/>
  <polyline points="437.5375,471.0179 433.2379,465.1765 427.486,459.6622 420.3884,454.5686 412.0775,449.9811 402.7083,445.9754 392.4551,442.616 381.5084,439.9548 370.0706,438.0304 358.3519,436.8676 346.5663,436.4767 334.927,436.8538 323.6425,437.9806 312.9125,439.8258 302.9239,442.345 293.8478,445.4825 285.836,449.1721 279.0188,453.3388 273.5025,457.9005 269.3684,462.7695 266.6714,467.8542 265.4395,473.0613 265.6743,478.2974 267.3511,483.4704 270.4205,488.4917 274.8094,493.2772 280.4235,497.749 287.1491,501.8365 294.8557,505.4776 303.3988,508.619 312.6228,511.2175 322.3638,513.2401 332.4526,514.664 342.7176,515.4772 352.9877,515.678 363.0947,515.2748 372.8762,514.2855 382.1775,512.7375 390.8542,510.6663 398.7736,508.1152 405.8164,505.1345 411.8783,501.7802 416.871,498.1137 420.723,494.2001 423.3805,490.108 424.8075,485.908 424.9865,481.6718 423.9183,477.4715 421.6216,473.3783" stroke="#9b59b6" stroke-width="0.5" fill="none" stroke-opacity="0.6"/>
  <polyline points="417.6426,473.9684 421.6216,473.3783 425.6006,472.7882 429.5795,472.1981 433.5585,471.608 437.5375,471.0179" stroke="#999" stroke-width="0.5" fill="none" stroke-opacity="0.6"/>
  <polyline points="398.4074,461.7859 401.1414,459.4249 403.8754,457.0639 406.6095,454.703 409.3435,452.342 412.0775,449.9811" stroke="#999" stroke-width="0.5" fill="none" stroke-opacity="0.6"/>
  <polyline points="366.0715,455.5994 366.8713,452.0856 367.6711,448.5718 368.471,445.058 369.2708,441.5442 370.0706,438.0304" stroke="#999" stroke-width="0.5" fill="none" stroke-opacity="0.6"/>
  <polyline points="327.9942,457.6479 327.1238,453.7145 326.2535,449.781 325.3832,445.8475 324.5128,441.9141 323.6425,437.9806" stroke="#999" stroke-width="0.5" fill="none" stroke-opacity="0.6"/>
  <polyline points="293.4746,468.3918 291.9469,464.5478 290.4191,460.7039 288.8914,456.86 287.3637,453.016 285.836,449.1721" stroke="#999" stroke-width="0.5" fill="none" stroke-opacity="0.6"/>
  <polyline points="271.9271,486.0801 270.876,482.4349 269.8248,478.7897 268.7737,475.1445 267.7225,471.4994 266.6714,467.8542" stroke="#999" stroke-width="0.5" fill="none" stroke-opacity="0.6"/>
  <polyline points="270.4205,506.7673 270.4205,503.1122 270.4205,499.4571 270.4205,495.8019 270.4205,492.1468 270.4205,488.4917" stroke="#999" stroke-width="0.5" fill="none" stroke-opacity="0.6"/>
  <polyline points="291.1928,525.0262 291.9254,521.1164 292.6579,517.2067 293.3905,513.297 294.1231,509.3873 294.8557,505.4776" stroke="#999" stroke-width="0.5" fill="none" stroke-opacity="0.6"/>
  <polyline points="330.1437,535.3589 330.6055,531.2199 331.0673,527.081 331.529,522.942 331.9908,518.803 332.4526,514.664" stroke="#999" stroke-width="0.5" fill="none" stroke-opacity="0.6"/>
  <polyline points="377.2278,533.9528 376.3575,530.0194 375.4872,526.0859 374.6168,522.1525 373.7465,518.219 372.8762,514.2855" stroke="#999" stroke-width="0.5" fill="none" stroke-opacity="0.6"/>
  <polyline points="419.0468,520.1483 416.4007,517.1456 413.7546,514.1428 411.1086,511.14 408.4625,508.1373 405.8164,505.1345" stroke="#999" stroke-width="0.5" fill="none" stroke-opacity="0.6"/>
  <polyline points="442.9951,496.9766 439.0722,495.6029 435.1492,494.2292 431.2263,492.8555 427.3034,491.4817 423.3805,490.108" stroke="#999" stroke-width="0.5" fill="none" stroke-opacity="0.6"/>
</g>
</g>
</g>
</g>
  <g>
  <line x1="413" y1="708" x2="429.7078" y2="629.7641" stroke="#333" stroke-width="1.5"/>
  <g>
  <line x1="429.7078" y1="629.7641" x2="414.4742" y2="582.7267" stroke="#333" stroke-width="1.5"/>
  <g>
  <line x1="414.4742" y1="582.7267" x2="391.7853" y2="562.2582" stroke="#333" stroke-width="1.5"/>
  <g>
  <line x1="391.7853" y1="562.2582" x2="373.3163" y2="558.314" stroke="#333" stroke-width="1.5"/>
</g>
  <g>
  <line x1="391.7853" y1="562.2582" x2="385.9665" y2="544.2915" stroke="#333" stroke-width="1.5"/>
</g>
</g>
  <g>
  <line x1="414.4742" y1="582.7267" x2="420.856" y2="552.8433" stroke="#333" stroke-width="1.5"/>
  <g>
  <line x1="420.856" y1="552.8433" x2="415.0373" y2="534.8766" stroke="#333" stroke-width="1.5"/>
</g>
  <g>
  <line x1="420.856" y1="552.8433" x2="433.5062" y2="538.8208" stroke="#333" stroke-width="1.5"/>
</g>
</g>
</g>
  <g>
  <line x1="429.7078" y1="629.7641" x2="462.8266" y2="593.0527" stroke="#333" stroke-width="1.5"/>
  <g>
  <line x1="462.8266" y1="593.0527" x2="469.2084" y2="563.1693" stroke="#333" stroke-width="1.5"/>
  <g>
  <line x1="469.2084" y1="563.1693" x2="463.3897" y2="545.2026" stroke="#333" stroke-width="1.5"/>
</g>
  <g>
  <line x1="469.2084" y1="563.1693" x2="481.8587" y2="549.1468" stroke="#333" stroke-width="1.5"/>
</g>
</g>
  <g>
  <line x1="462.8266" y1="593.0527" x2="491.8973" y2="583.6378" stroke="#333" stroke-width="1.5"/>
  <g>
  <line x1="491.8973" y1="583.6378" x2="504.5476" y2="569.6153" stroke="#333" stroke-width="1.5"/>
</g>
  <g>
  <line x1="491.8973" y1="583.6378" x2="510.3663" y2="587.582" stroke="#333" stroke-width="1.5"/>
</g>
</g>
</g>
</g>
  <g opacity="0.48">
  <g>
  <circle cx="266.5" cy="525" r="177" fill="none" stroke="#333" stroke-width="1.5"/>
  <circle cx="443.5" cy="525" r="177" fill="none" stroke="#333" stroke-width="1.5"/>
</g>
</g>
</svg>