<svg xmlns="http://www.w3.org/2000/svg" width="800" height="800" viewBox="0 0 800 800">
  <g transform="rotate(6.2,400,400)">
  <g>
  <line x1="424" y1="333" x2="497" y2="333" stroke="#999" stroke-width="0.5"/>
  <line x1="424" y1="333" x2="460.5" y2="396.2199" stroke="#999" stroke-width="0.5"/>
  <line x1="424" y1="333" x2="387.5" y2="396.2199" stroke="#999" stroke-width="0.5"/>
  <line x1="424" y1="333" x2="351" y2="333" stroke="#999" stroke-width="0.5"/>
  <line x1="424" y1="333" x2="387.5" y2="269.7801" stroke="#999" stroke-width="0.5"/>
  <line x1="424" y1="333" x2="460.5" y2="269.7801" stroke="#999" stroke-width="0.5"/>
  <line x1="424" y1="333" x2="550.4397" y2="406" stroke="#999" stroke-width="0.5"/>
  <line x1="424" y1="333" x2="424" y2="479" stroke="#999" stroke-width="0.5"/>
  <line x1="424" y1="333" x2="297.5603" y2="406" stroke="#999" stroke-width="0.5"/>
  <line x1="424" y1="333" x2="297.5603" y2="260" stroke="#999" stroke-width="0.5"/>
  <line x1="424" y1="333" x2="424" y2="187" stroke="#999" stroke-width="0.5"/>
  <line x1="424" y1="333" x2="550.4397" y2="260" stroke="#999" stroke-width="0.5"/>
  <line x1="497" y1="333" x2="460.5" y2="396.2199" stroke="#999" stroke-width="0.5"/>
  <line x1="497" y1="333" x2="387.5" y2="396.2199" stroke="#999" stroke-width="0.5"/>
  <line x1="497" y1="333" x2="351" y2="333" stroke="#999" stroke-width="0.5"/>
  <line x1="497" y1="333" x2="387.5" y2="269.7801" stroke="#999" stroke-width="0.5"/>
  <line x1="497" y1="333" x2="460.5" y2="269.7801" stroke="#999" stroke-width="0.5"/>
  <line x1="497" y1="333" x2="550.4397" y2="406" stroke="#999" stroke-width="0.5"/>
  <line x1="497" y1="333" x2="424" y2="479" stroke="#999" stroke-width="0.5"/>
  <line x1="497" y1="333" x2="297.5603" y2="406" stroke="#999" stroke-width="0.5"/>
  <line x1="497" y1="333" x2="297.5603" y2="260" stroke="#999" stroke-width="0.5"/>
  <line x1="497" y1="333" x2="424" y2="187" stroke="#999" stroke-width="0.5"/>
  <line x1="497" y1="333" x2="550.4397" y2="260" stroke="#999" stroke-width="0.5"/>
  <line x1="460.5" y1="396.2199" x2="387.5" y2="396.2199" stroke="#999" stroke-width="0.5"/>
  <line x1="460.5" y1="396.2199" x2="351" y2="333" stroke="#999" stroke-width="0.5"/>
  <line x1="460.5" y1="396.2199" x2="387.5" y2="269.7801" stroke="#999" stroke-width="0.5"/>
  <line x1="460.5" y1="396.2199" x2="460.5" y2="269.7801" stroke="#999" stroke-width="0.5"/>
  <line x1="460.5" y1="396.2199" x2="550.4397" y2="406" stroke="#999" stroke-width="0.5"/>
  <line x1="460.5" y1="396.2199" x2="424" y2="479" stroke="#999" stroke-width="0.5"/>
  <line x1="460.5" y1="396.2199" x2="297.5603" y2="406" stroke="#999" stroke-width="0.5"/>
  <line x1="460.5" y1="396.2199" x2="297.5603" y2="260" stroke="#999" stroke-width="0.5"/>
  <line x1="460.5" y1="396.2199" x2="424" y2="187" stroke="#999" stroke-width="0.5"/>
  <line x1="460.5" y1="396.2199" x2="550.4397" y2="260" stroke="#999" stroke-width="0.5"/>
  <line x1="387.5" y1="396.2199" x2="351" y2="333" stroke="#999" stroke-width="0.5"/>
  <line x1="387.5" y1="396.2199" x2="387.5" y2="269.7801" stroke="#999" stroke-width="0.5"/>
  <line x1="387.5" y1="396.2199" x2="460.5" y2="269.7801" stroke="#999" stroke-width="0.5"/>
  <line x1="387.5" y1="396.2199" x2="550.4397" y2="406" stroke="#999" stroke-width="0.5"/>
  <line x1="387.5" y1="396.2199" x2="424" y2="479" stroke="#999" stroke-width="0.5"/>
  <line x1="387.5" y1="396.2199" x2="297.5603" y2="406" stroke="#999" stroke-width="0.5"/>
  <line x1="387.5" y1="396.2199" x2="297.5603" y2="260" stroke="#999" stroke-width="0.5"/>
  <line x1="387.5" y1="396.2199" x2="424" y2="187" stroke="#999" stroke-width="0.5"/>
  <line x1="387.5" y1="396.2199" x2="550.4397" y2="260" stroke="#999" stroke-width="0.5"/>
  <line x1="351" y1="333" x2="387.5" y2="269.7801" stroke="#999" stroke-width="0.5"/>
  <line x1="351" y1="333" x2="460.5" y2="269.7801" stroke="#999" stroke-width="0.5"/>
  <line x1="351" y1="333" x2="550.4397" y2="406" stroke="#999" stroke-width="0.5"/>
  <line x1="351" y1="333" x2="424" y2="479" stroke="#999" stroke-width="0.5"/>
  <line x1="351" y1="333" x2="297.5603" y2="406" stroke="#999" stroke-width="0.5"/>
  <line x1="351" y1="333" x2="297.5603" y2="260" stroke="#999" stroke-width="0.5"/>
  <line x1="351" y1="333" x2="424" y2="187" stroke="#999" stroke-width="0.5"/>
  <line x1="351" y1="333" x2="550.4397" y2="260" stroke="#999" stroke-width="0.5"/>
  <line x1="387.5" y1="269.7801" x2="460.5" y2="269.7801" stroke="#999" stroke-width="0.5"/>
  <line x1="387.5" y1="269.7801" x2="550.4397" y2="406" stroke="#999" stroke-width="0.5"/>
  <line x1="387.5" y1="269.7801" x2="424" y2="479" stroke="#999" stroke-width="0.5"/>
  <line x1="387.5" y1="269.7801" x2="297.5603" y2="406" stroke="#999" stroke-width="0.5"/>
  <line x1="387.5" y1="269.7801" x2="297.5603" y2="260" stroke="#999" stroke-width="0.5"/>
  <line x1="387.5" y1="269.7801" x2="424" y2="187" stroke="#999" stroke-width="0.5"/>
  <line x1="387.5" y1="269.7801" x2="550.4397" y2="260" stroke="#999" stroke-width="0.5"/>
  <line x1="460.5" y1="269.7801" x2="550.4397" y2="406" stroke="#999" stroke-width="0.5"/>
  <line x1="460.5" y1="269.7801" x2="424" y2="479" stroke="#999" stroke-width="0.5"/>
  <line x1="460.5" y1="269.7801" x2="297.5603" y2="406" stroke="#999" stroke-width="0.5"/>
  <line x1="460.5" y1="269.7801" x2="297.5603" y2="260" stroke="#999" stroke-width="0.5"/>
  <line x1="460.5" y1="269.7801" x2="424" y2="187" stroke="#999" stroke-width="0.5"/>
  <line x1="460.5" y1="269.7801" x2="550.4397" y2="260" stroke="#999" stroke-width="0.5"/>
  <line x1="550.4397" y1="406" x2="424" y2="479" stroke="#999" stroke-width="0.5"/>
  <line x1="550.4397" y1="406" x2="297.5603" y2="406" stroke="#999" stroke-width="0.5"/>
  <line x1="550.4397" y1="406" x2="297.5603" y2="260" stroke="#999" stroke-width="0.5"/>
  <line x1="550.4397" y1="406" x2="424" y2="187" stroke="#999" stroke-width="0.5"/>
  <line x1="550.4397" y1="406" x2="550.4397" y2="260" stroke="#999" stroke-width="0.5"/>
  <line x1="424" y1="479" x2="297.5603" y2="406" stroke="#999" stroke-width="0.5"/>
  <line x1="424" y1="479" x2="297.5603" y2="260" stroke="#999" stroke-width="0.5"/>
  <line x1="424" y1="479" x2="424" y2="187" stroke="#999" stroke-width="0.5"/>
  <line x1="424" y1="479" x2="550.4397" y2="260" stroke="#999" stroke-width="0.5"/>
  <line x1="297.5603" y1="406" x2="297.5603" y2="260" stroke="#999" stroke-width="0.5"/>
  <line x1="297.5603" y1="406" x2="424" y2="187" stroke="#999" stroke-width="0.5"/>
  <line x1="297.5603" y1="406" x2="550.4397" y2="260" stroke="#999" stroke-width="0.5"/>
  <line x1="297.5603" y1="260" x2="424" y2="187" stroke="#999" stroke-width="0.5"/>
  <line x1="297.5603" y1="260" x2="550.4397" y2="260" stroke="#999" stroke-width="0.5"/>
  <line x1="424" y1="187" x2="550.4397" y2="260" stroke="#999" stroke-width="0.5"/>
  <circle cx="424" cy="333" r="10.95" fill="none" stroke="#333" stroke-width="1"/>
  <circle cx="497" cy="333" r="10.95" fill="none" stroke="#333" stroke-width="1"/>
  <circle cx="460.5" cy="396.2199" r="10.95" fill="none" stroke="#333" stroke-width="1"/>
  <circle cx="387.5" cy="396.2199" r="10.95" fill="none" stroke="#333" stroke-width="1"/>
  <circle cx="351" cy="333" r="10.95" fill="none" stroke="#333" stroke-width="1"/>
  <circle cx="387.5" cy="269.7801" r="10.95" fill="none" stroke="#333" stroke-width="1"/>
  <circle cx="460.5" cy="269.7801" r="10.95" fill="none" stroke="#333" stroke-width="1"/>
  <circle cx="550.4397" cy="406" r="10.95" fill="none" stroke="#333" stroke-width="1"/>
  <circle cx="424" cy="479" r="10.95" fill="none" stroke="#333" stroke-width="1"/>
  <circle cx="297.5603" cy="406" r="10.95" fill="none" stroke="#333" stroke-width="1"/>
  <circle cx="297.5603" cy="260" r="10.95" fill="none" stroke="#333" stroke-width="1"/>
  <circle cx="424" cy="187" r="10.95" fill="none" stroke="#333" stroke-width="1"/>
  <circle cx="550.4397" cy="260" r="10.95" fill="none" stroke="#333" stroke-width="1"/>
</g>
</g>
  <polygon points="378,442 392.6262,467.3333 378,492.6667 407.2524,492.6667 421.8786,518 407.2524,543.3333 378,543.3333 392.6262,568.6667 378,594 407.2524,594 421.8786,619.3333 436.5048,594 465.7572,594 480.3834,619.3333 465.7572,644.6667 495.0097,644.6667 509.6359,670 480.3834,670 465.7572,644.6667 451.131,670 421.8786,670 407.2524,644.6667 421.8786,619.3333 392.6262,619.3333 378,594 363.3738,619.3333 334.1214,619.3333 348.7476,644.6667 334.1214,670 304.869,670 290.2428,644.6667 275.6166,670 246.3641,670 260.9903,644.6667 290.2428,644.6667 275.6166,619.3333 290.2428,594 319.4952,594 334.1214,619.3333 348.7476,594 378,594 363.3738,568.6667 378,543.3333 348.7476,543.3333 334.1214,518 348.7476,492.6667 378,492.6667 363.3738,467.3333" fill="none" stroke="#333" stroke-width="1"/>
  <g opacity="0.81">
  <g transform="rotate(136.0,400,400)">
  <g>
  <line x1="466" y1="750" x2="455.5737" y2="533.2506" stroke="#333" stroke-width="1.5"/>
  <g>
  <line x1="455.5737" y1="533.2506" x2="383.0139" y2="420.4611" stroke="#333" stroke-width="1.5"/>
  <g>
  <line x1="383.0139" y1="420.4611" x2="309.3236" y2="382.5146" stroke="#333" stroke-width="1.5"/>
  <g>
  <line x1="309.3236" y1="382.5146" x2="258.1561" y2="384.9759" stroke="#333" stroke-width="1.5"/>
  <g>
  <line x1="258.1561" y1="384.9759" x2="231.5301" y2="402.1049" stroke="#333" stroke-width="1.5"/>
</g>
  <g>
  <line x1="258.1561" y1="384.9759" x2="230.0089" y2="370.4816" stroke="#333" stroke-width="1.5"/>
</g>
</g>
  <g>
  <line x1="309.3236" y1="382.5146" x2="281.6083" y2="339.4328" stroke="#333" stroke-width="1.5"/>
  <g>
  <line x1="281.6083" y1="339.4328" x2="253.4611" y2="324.9385" stroke="#333" stroke-width="1.5"/>
</g>
  <g>
  <line x1="281.6083" y1="339.4328" x2="280.0871" y2="307.8095" stroke="#333" stroke-width="1.5"/>
</g>
</g>
</g>
  <g>
  <line x1="383.0139" y1="420.4611" x2="379.0314" y2="337.6702" stroke="#333" stroke-width="1.5"/>
  <g>
  <line x1="379.0314" y1="337.6702" x2="351.3161" y2="294.5884" stroke="#333" stroke-width="1.5"/>
  <g>
  <line x1="351.3161" y1="294.5884" x2="323.1689" y2="280.0942" stroke="#333" stroke-width="1.5"/>
</g>
  <g>
  <line x1="351.3161" y1="294.5884" x2="349.7949" y2="262.9651" stroke="#333" stroke-width="1.5"/>
</g>
</g>
  <g>
  <line x1="379.0314" y1="337.6702" x2="402.4836" y2="292.1271" stroke="#333" stroke-width="1.5"/>
  <g>
  <line x1="402.4836" y1="292.1271" x2="400.9625" y2="260.5038" stroke="#333" stroke-width="1.5"/>
</g>
  <g>
  <line x1="402.4836" y1="292.1271" x2="429.1096" y2="274.9981" stroke="#333" stroke-width="1.5"/>
</g>
</g>
</g>
</g>
  <g>
  <line x1="455.5737" y1="533.2506" x2="516.9724" y2="414.0173" stroke="#333" stroke-width="1.5"/>
  <g>
  <line x1="516.9724" y1="414.0173" x2="512.9899" y2="331.2264" stroke="#333" stroke-width="1.5"/>
  <g>
  <line x1="512.9899" y1="331.2264" x2="485.2745" y2="288.1446" stroke="#333" stroke-width="1.5"/>
  <g>
  <line x1="485.2745" y1="288.1446" x2="457.1274" y2="273.6503" stroke="#333" stroke-width="1.5"/>
</g>
  <g>
  <line x1="485.2745" y1="288.1446" x2="483.7534" y2="256.5213" stroke="#333" stroke-width="1.5"/>
</g>
</g>
  <g>
  <line x1="512.9899" y1="331.2264" x2="536.4421" y2="285.6833" stroke="#333" stroke-width="1.5"/>
  <g>
  <line x1="536.4421" y1="285.6833" x2="534.9209" y2="254.06" stroke="#333" stroke-width="1.5"/>
</g>
  <g>
  <line x1="536.4421" y1="285.6833" x2="563.0681" y2="268.5542" stroke="#333" stroke-width="1.5"/>
</g>
</g>
</g>
  <g>
  <line x1="516.9724" y1="414.0173" x2="586.6802" y2="369.1729" stroke="#333" stroke-width="1.5"/>
  <g>
  <line x1="586.6802" y1="369.1729" x2="610.1324" y2="323.6298" stroke="#333" stroke-width="1.5"/>
  <g>
  <line x1="610.1324" y1="323.6298" x2="608.6112" y2="292.0065" stroke="#333" stroke-width="1.5"/>
</g>
  <g>
  <line x1="610.1324" y1="323.6298" x2="636.7584" y2="306.5007" stroke="#333" stroke-width="1.5"/>
</g>
</g>
  <g>
  <line x1="586.6802" y1="369.1729" x2="637.8478" y2="366.7115" stroke="#333" stroke-width="1.5"/>
  <g>
  <line x1="637.8478" y1="366.7115" x2="664.4737" y2="349.5825" stroke="#333" stroke-width="1.5"/>
</g>
  <g>
  <line x1="637.8478" y1="366.7115" x2="665.9949" y2="381.2058" stroke="#333" stroke-width="1.5"/>
</g>
</g>
</g>
</g>
</g>
</g>
</g>
  <g transform="rotate(-151.5,400,400)">
  <polygon points="403,144 440.2802,141.5735 467.2788,167.3956 497.3968,189.5 501.4808,226.6352 510.344,262.9277 489.6025,294 473.0638,327.4988 437.202,337.9693 403,353 368.798,337.9693 332.9362,327.4988 316.3975,294 295.656,262.9277 304.5192,226.6352 308.6032,189.5 338.7212,167.3956 365.7198,141.5735" fill="none" stroke="#333" stroke-width="1.5"/>
</g>
  <polygon points="361,467 371.9697,486 361,505 382.9393,505 393.909,524 382.9393,543 361,543 371.9697,562 361,581 382.9393,581 393.909,600 404.8786,581 426.8179,581 437.7876,600 426.8179,619 448.7572,619 459.7269,638 437.7876,638 426.8179,619 415.8483,638 393.909,638 382.9393,619 393.909,600 371.9697,600 361,581 350.0303,600 328.091,600 339.0607,619 328.091,638 306.1517,638 295.1821,619 284.2124,638 262.2731,638 273.2428,619 295.1821,619 284.2124,600 295.1821,581 317.1214,581 328.091,600 339.0607,581 361,581 350.0303,562 361,543 339.0607,543 328.091,524 339.0607,505 361,505 350.0303,486" fill="none" stroke="#333" stroke-width="1"/>
</svg>