<svg xmlns="http://www.w3.org/2000/svg" width="800" height="800" viewBox="0 0 800 800">
  <g>
  <polygon points="405,149 399.2085,159.0312 410.7915,159.0312" fill="#333" stroke="none"/>
  <polygon points="399.2085,159.0312 393.4169,169.0625 405,169.0625" fill="#333" stroke="none"/>
  <polygon points="410.7915,159.0312 405,169.0625 416.5831,169.0625" fill="#333" stroke="none"/>
  <polygon points="393.4169,169.0625 387.6254,179.0938 399.2085,179.0938" fill="#333" stroke="none"/>
  <polygon points="387.6254,179.0938 381.8338,189.125 393.4169,189.125" fill="#333" stroke="none"/>
  <polygon points="399.2085,179.0938 393.4169,189.125 405,189.125" fill="#333" stroke="none"/>
  <polygon points="416.5831,169.0625 410.7915,179.0938 422.3746,179.0938" fill="#333" stroke="none"/>
  <polygon points="410.7915,179.0938 405,189.125 416.5831,189.125" fill="#333" stroke="none"/>
  <polygon points="422.3746,179.0938 416.5831,189.125 428.1662,189.125" fill="#333" stroke="none"/>
  <polygon points="381.8338,189.125 376.0423,199.1562 387.6254,199.1562" fill="#333" stroke="none"/>
  <polygon points="376.0423,199.1562 370.2507,209.1875 381.8338,209.1875" fill="#333" stroke="none"/>
  <polygon points="387.6254,199.1562 381.8338,209.1875 393.4169,209.1875" fill="#333" stroke="none"/>
  <polygon points="370.2507,209.1875 364.4592,219.2188 376.0423,219.2188" fill="#333" stroke="none"/>
  <polygon points="364.4592,219.2188 358.6676,229.25 370.2507,229.25" fill="#333" stroke="none"/>
  <polygon points="376.0423,219.2188 370.2507,229.25 381.8338,229.25" fill="#333" stroke="none"/>
  <polygon points="393.4169,209.1875 387.6254,219.2188 399.2085,219.2188" fill="#333" stroke="none"/>
  <polygon points="387.6254,219.2188 381.8338,229.25 393.4169,229.25" fill="#333" stroke="none"/>
  <polygon points="399.2085,219.2188 393.4169,229.25 405,229.25" fill="#333" stroke="none"/>
  <polygon points="428.1662,189.125 422.3746,199.1562 433.9577,199.1562" fill="#333" stroke="none"/>
  <polygon points="422.3746,199.1562 416.5831,209.1875 428.1662,209.1875" fill="#333" stroke="none"/>
  <polygon points="433.9577,199.1562 428.1662,209.1875 439.7493,209.1875" fill="#333" stroke="none"/>
  <polygon points="416.5831,209.1875 410.7915,219.2188 422.3746,219.2188" fill="#333" stroke="none"/>
  <polygon points="410.7915,219.2188 405,229.25 416.5831,229.25" fill="#333" stroke="none"/>
  <polygon points="422.3746,219.2188 416.5831,229.25 428.1662,229.25" fill="#333" stroke="none"/>
  <polygon points="439.7493,209.1875 433.9577,219.2188 445.5408,219.2188" fill="#333" stroke="none"/>
  <polygon points="433.9577,219.2188 428.1662,229.25 439.7493,229.25" fill="#333" stroke="none"/>
  <polygon points="445.5408,219.2188 439.7493,229.25 451.3324,229.25" fill="#333" stroke="none"/>
  <polygon points="358.6676,229.25 352.8761,239.2812 364.4592,239.2812" fill="#333" stroke="none"/>
  <polygon points="352.8761,239.2812 347.0846,249.3125 358.6676,249.3125" fill="#333" stroke="none"/>
  <polygon points="364.4592,239.2812 358.6676,249.3125 370.2507,249.3125" fill="#333" stroke="none"/>
  <polygon points="347.0846,249.3125 341.293,259.3438 352.8761,259.3438" fill="#333" stroke="none"/>
  <polygon points="341.293,259.3438 335.5015,269.375 347.0846,269.375" fill="#333" stroke="none"/>
  <polygon points="352.8761,259.3438 347.0846,269.375 358.6676,269.375" fill="#333" stroke="none"/>
  <polygon points="370.2507,249.3125 364.4592,259.3438 376.0423,259.3438" fill="#333" stroke="none"/>
  <polygon points="364.4592,259.3438 358.6676,269.375 370.2507,269.375" fill="#333" stroke="none"/>
  <polygon points="376.0423,259.3438 370.2507,269.375 381.8338,269.375" fill="#333" stroke="none"/>
  <polygon points="335.5015,269.375 329.7099,279.4062 341.293,279.4062" fill="#333" stroke="none"/>
  <polygon points="329.7099,279.4062 323.9184,289.4375 335.5015,289.4375" fill="#333" stroke="none"/>
  <polygon points="341.293,279.4062 335.5015,289.4375 347.0846,289.4375" fill="#333" stroke="none"/>
  <polygon points="323.9184,289.4375 318.1268,299.4688 329.7099,299.4688" fill="#333" stroke="none"/>
  <polygon points="318.1268,299.4688 312.3353,309.5 323.9184,309.5" fill="#333" stroke="none"/>
  <polygon points="329.7099,299.4688 323.9184,309.5 335.5015,309.5" fill="#333" stroke="none"/>
  <polygon points="347.0846,289.4375 341.293,299.4688 352.8761,299.4688" fill="#333" stroke="none"/>
  <polygon points="341.293,299.4688 335.5015,309.5 347.0846,309.5" fill="#333" stroke="none"/>
  <polygon points="352.8761,299.4688 347.0846,309.5 358.6676,309.5" fill="#333" stroke="none"/>
  <polygon points="381.8338,269.375 376.0423,279.4062 387.6254,279.4062" fill="#333" stroke="none"/>
  <polygon points="376.0423,279.4062 370.2507,289.4375 381.8338,289.4375" fill="#333" stroke="none"/>
  <polygon points="387.6254,279.4062 381.8338,289.4375 393.4169,289.4375" fill="#333" stroke="none"/>
  <polygon points="370.2507,289.4375 364.4592,299.4688 376.0423,299.4688" fill="#333" stroke="none"/>
  <polygon points="364.4592,299.4688 358.6676,309.5 370.2507,309.5" fill="#333" stroke="none"/>
  <polygon points="376.0423,299.4688 370.2507,309.5 381.8338,309.5" fill="#333" stroke="none"/>
  <polygon points="393.4169,289.4375 387.6254,299.4688 399.2085,299.4688" fill="#333" stroke="none"/>
  <polygon points="387.6254,299.4688 381.8338,309.5 393.4169,309.5" fill="#333" stroke="none"/>
  <polygon points="399.2085,299.4688 393.4169,309.5 405,309.5" fill="#333" stroke="none"/>
  <polygon points="451.3324,229.25 445.5408,239.2812 457.1239,239.2812" fill="#333" stroke="none"/>
  <polygon points="445.5408,239.2812 439.7493,249.3125 451.3324,249.3125" fill="#333" stroke="none"/>
  <polygon points="457.1239,239.2812 451.3324,249.3125 462.9154,249.3125" fill="#333" stroke="none"/>
  <polygon points="439.7493,249.3125 433.9577,259.3438 445.5408,259.3438" fill="#333" stroke="none"/>
  <polygon points="433.9577,259.3438 428.1662,269.375 439.7493,269.375" fill="#333" stroke="none"/>
  <polygon points="445.5408,259.3438 439.7493,269.375 451.3324,269.375" fill="#333" stroke="none"/>
  <polygon points="462.9154,249.3125 457.1239,259.3438 468.707,259.3438" fill="#333" stroke="none"/>
  <polygon points="457.1239,259.3438 451.3324,269.375 462.9154,269.375" fill="#333" stroke="none"/>
  <polygon points="468.707,259.3438 462.9154,269.375 474.4985,269.375" fill="#333" stroke="none"/>
  <polygon points="428.1662,269.375 422.3746,279.4062 433.9577,279.4062" fill="#333" stroke="none"/>
  <polygon points="422.3746,279.4062 416.5831,289.4375 428.1662,289.4375" fill="#333" stroke="none"/>
  <polygon points="433.9577,279.4062 428.1662,289.4375 439.7493,289.4375" fill="#333" stroke="none"/>
  <polygon points="416.5831,289.4375 410.7915,299.4688 422.3746,299.4688" fill="#333" stroke="none"/>
  <polygon points="410.7915,299.4688 405,309.5 416.5831,309.5" fill="#333" stroke="none"/>
  <polygon points="422.3746,299.4688 416.5831,309.5 428.1662,309.5" fill="#333" stroke="none"/>
  <polygon points="439.7493,289.4375 433.9577,299.4688 445.5408,299.4688" fill="#333" stroke="none"/>
  <polygon points="433.9577,299.4688 428.1662,309.5 439.7493,309.5" fill="#333" stroke="none"/>
  <polygon points="445.5408,299.4688 439.7493,309.5 451.3324,309.5" fill="#333" stroke="none"/>
  <polygon points="474.4985,269.375 468.707,279.4062 480.2901,279.4062" fill="#333" stroke="none"/>
  <polygon points="468.707,279.4062 462.9154,289.4375 474.4985,289.4375" fill="#333" stroke="none"/>
  <polygon points="480.2901,279.4062 474.4985,289.4375 486.0816,289.4375" fill="#333" stroke="none"/>
  <polygon points="462.9154,289.4375 457.1239,299.4688 468.707,299.4688" fill="#333" stroke="none"/>
  <polygon points="457.1239,299.4688 451.3324,309.5 462.9154,309.5" fill="#333" stroke="none"/>
  <polygon points="468.707,299.4688 462.9154,309.5 474.4985,309.5" fill="#333" stroke="none"/>
  <polygon points="486.0816,289.4375 480.2901,299.4688 491.8732,299.4688" fill="#333" stroke="none"/>
  <polygon points="480.2901,299.4688 474.4985,309.5 486.0816,309.5" fill="#333" stroke="none"/>
  <polygon points="491.8732,299.4688 486.0816,309.5 497.6647,309.5" fill="#333" stroke="none"/>
  <polygon points="312.3353,309.5 306.5437,319.5312 318.1268,319.5312" fill="#333" stroke="none"/>
  <polygon points="306.5437,319.5312 300.7522,329.5625 312.3353,329.5625" fill="#333" stroke="none"/>
  <polygon points="318.1268,319.5312 312.3353,329.5625 323.9184,329.5625" fill="#333" stroke="none"/>
  <polygon points="300.7522,329.5625 294.9606,339.5938 306.5437,339.5938" fill="#333" stroke="none"/>
  <polygon points="294.9606,339.5938 289.1691,349.625 300.7522,349.625" fill="#333" stroke="none"/>
  <polygon points="306.5437,339.5938 300.7522,349.625 312.3353,349.625" fill="#333" stroke="none"/>
  <polygon points="323.9184,329.5625 318.1268,339.5938 329.7099,339.5938" fill="#333" stroke="none"/>
  <polygon points="318.1268,339.5938 312.3353,349.625 323.9184,349.625" fill="#333" stroke="none"/>
  <polygon points="329.7099,339.5938 323.9184,349.625 335.5015,349.625" fill="#333" stroke="none"/>
  <polygon points="289.1691,349.625 283.3776,359.6562 294.9606,359.6562" fill="#333" stroke="none"/>
  <polygon points="283.3776,359.6562 277.586,369.6875 289.1691,369.6875" fill="#333" stroke="none"/>
  <polygon points="294.9606,359.6562 289.1691,369.6875 300.7522,369.6875" fill="#333" stroke="none"/>
  <polygon points="277.586,369.6875 271.7945,379.7188 283.3776,379.7188" fill="#333" stroke="none"/>
  <polygon points="271.7945,379.7188 266.0029,389.75 277.586,389.75" fill="#333" stroke="none"/>
  <polygon points="283.3776,379.7188 277.586,389.75 289.1691,389.75" fill="#333" stroke="none"/>
  <polygon points="300.7522,369.6875 294.9606,379.7188 306.5437,379.7188" fill="#333" stroke="none"/>
  <polygon points="294.9606,379.7188 289.1691,389.75 300.7522,389.75" fill="#333" stroke="none"/>
  <polygon points="306.5437,379.7188 300.7522,389.75 312.3353,389.75" fill="#333" stroke="none"/>
  <polygon points="335.5015,349.625 329.7099,359.6562 341.293,359.6562" fill="#333" stroke="none"/>
  <polygon points="329.7099,359.6562 323.9184,369.6875 335.5015,369.6875" fill="#333" stroke="none"/>
  <polygon points="341.293,359.6562 335.5015,369.6875 347.0846,369.6875" fill="#333" stroke="none"/>
  <polygon points="323.9184,369.6875 318.1268,379.7188 329.7099,379.7188" fill="#333" stroke="none"/>
  <polygon points="318.1268,379.7188 312.3353,389.75 323.9184,389.75" fill="#333" stroke="none"/>
  <polygon points="329.7099,379.7188 323.9184,389.75 335.5015,389.75" fill="#333" stroke="none"/>
  <polygon points="347.0846,369.6875 341.293,379.7188 352.8761,379.7188" fill="#333" stroke="none"/>
  <polygon points="341.293,379.7188 335.5015,389.75 347.0846,389.75" fill="#333" stroke="none"/>
  <polygon points="352.8761,379.7188 347.0846,389.75 358.6676,389.75" fill="#333" stroke="none"/>
  <polygon points="266.0029,389.75 260.2114,399.7812 271.7945,399.7812" fill="#333" stroke="none"/>
  <polygon points="260.2114,399.7812 254.4198,409.8125 266.0029,409.8125" fill="#333" stroke="none"/>
  <polygon points="271.7945,399.7812 266.0029,409.8125 277.586,409.8125" fill="#333" stroke="none"/>
  <polygon points="254.4198,409.8125 248.6283,419.8438 260.2114,419.8438" fill="#333" stroke="none"/>
  <polygon points="248.6283,419.8438 242.8367,429.875 254.4198,429.875" fill="#333" stroke="none"/>
  <polygon points="260.2114,419.8438 254.4198,429.875 266.0029,429.875" fill="#333" stroke="none"/>
  <polygon points="277.586,409.8125 271.7945,419.8438 283.3776,419.8438" fill="#333" stroke="none"/>
  <polygon points="271.7945,419.8438 266.0029,429.875 277.586,429.875" fill="#333" stroke="none"/>
  <polygon points="283.3776,419.8438 277.586,429.875 289.1691,429.875" fill="#333" stroke="none"/>
  <polygon points="242.8367,429.875 237.0452,439.9062 248.6283,439.9062" fill="#333" stroke="none"/>
  <polygon points="237.0452,439.9062 231.2537,449.9375 242.8367,449.9375" fill="#333" stroke="none"/>
  <polygon points="248.6283,439.9062 242.8367,449.9375 254.4198,449.9375" fill="#333" stroke="none"/>
  <polygon points="231.2537,449.9375 225.4621,459.9688 237.0452,459.9688" fill="#333" stroke="none"/>
  <polygon points="225.4621,459.9688 219.6706,470 231.2537,470" fill="#333" stroke="none"/>
  <polygon points="237.0452,459.9688 231.2537,470 242.8367,470" fill="#333" stroke="none"/>
  <polygon points="254.4198,449.9375 248.6283,459.9688 260.2114,459.9688" fill="#333" stroke="none"/>
  <polygon points="248.6283,459.9688 242.8367,470 254.4198,470" fill="#333" stroke="none"/>
  <polygon points="260.2114,459.9688 254.4198,470 266.0029,470" fill="#333" stroke="none"/>
  <polygon points="289.1691,429.875 283.3776,439.9062 294.9606,439.9062" fill="#333" stroke="none"/>
  <polygon points="283.3776,439.9062 277.586,449.9375 289.1691,449.9375" fill="#333" stroke="none"/>
  <polygon points="294.9606,439.9062 289.1691,449.9375 300.7522,449.9375" fill="#333" stroke="none"/>
  <polygon points="277.586,449.9375 271.7945,459.9688 283.3776,459.9688" fill="#333" stroke="none"/>
  <polygon points="271.7945,459.9688 266.0029,470 277.586,470" fill="#333" stroke="none"/>
  <polygon points="283.3776,459.9688 277.586,470 289.1691,470" fill="#333" stroke="none"/>
  <polygon points="300.7522,449.9375 294.9606,459.9688 306.5437,459.9688" fill="#333" stroke="none"/>
  <polygon points="294.9606,459.9688 289.1691,470 300.7522,470" fill="#333" stroke="none"/>
  <polygon points="306.5437,459.9688 300.7522,470 312.3353,470" fill="#333" stroke="none"/>
  <polygon points="358.6676,389.75 352.8761,399.7812 364.4592,399.7812" fill="#333" stroke="none"/>
  <polygon points="352.8761,399.7812 347.0846,409.8125 358.6676,409.8125" fill="#333" stroke="none"/>
  <polygon points="364.4592,399.7812 358.6676,409.8125 370.2507,409.8125" fill="#333" stroke="none"/>
  <polygon points="347.0846,409.8125 341.293,419.8438 352.8761,419.8438" fill="#333" stroke="none"/>
  <polygon points="341.293,419.8438 335.5015,429.875 347.0846,429.875" fill="#333" stroke="none"/>
  <polygon points="352.8761,419.8438 347.0846,429.875 358.6676,429.875" fill="#333" stroke="none"/>
  <polygon points="370.2507,409.8125 364.4592,419.8438 376.0423,419.8438" fill="#333" stroke="none"/>
  <polygon points="364.4592,419.8438 358.6676,429.875 370.2507,429.875" fill="#333" stroke="none"/>
  <polygon points="376.0423,419.8438 370.2507,429.875 381.8338,429.875" fill="#333" stroke="none"/>
  <polygon points="335.5015,429.875 329.7099,439.9062 341.293,439.9062" fill="#333" stroke="none"/>
  <polygon points="329.7099,439.9062 323.9184,449.9375 335.5015,449.9375" fill="#333" stroke="none"/>
  <polygon points="341.293,439.9062 335.5015,449.9375 347.0846,449.9375" fill="#333" stroke="none"/>
  <polygon points="323.9184,449.9375 318.1268,459.9688 329.7099,459.9688" fill="#333" stroke="none"/>
  <polygon points="318.1268,459.9688 312.3353,470 323.9184,470" fill="#333" stroke="none"/>
  <polygon points="329.7099,459.9688 323.9184,470 335.5015,470" fill="#333" stroke="none"/>
  <polygon points="347.0846,449.9375 341.293,459.9688 352.8761,459.9688" fill="#333" stroke="none"/>
  <polygon points="341.293,459.9688 335.5015,470 347.0846,470" fill="#333" stroke="none"/>
  <polygon points="352.8761,459.9688 347.0846,470 358.6676,470" fill="#333" stroke="none"/>
  <polygon points="381.8338,429.875 376.0423,439.9062 387.6254,439.9062" fill="#333" stroke="none"/>
  <polygon points="376.0423,439.9062 370.2507,449.9375 381.8338,449.9375" fill="#333" stroke="none"/>
  <polygon points="387.6254,439.9062 381.8338,449.9375 393.4169,449.9375" fill="#333" stroke="none"/>
  <polygon points="370.2507,449.9375 364.4592,459.9688 376.0423,459.9688" fill="#333" stroke="none"/>
  <polygon points="364.4592,459.9688 358.6676,470 370.2507,470" fill="#333" stroke="none"/>
  <polygon points="376.0423,459.9688 370.2507,470 381.8338,470" fill="#333" stroke="none"/>
  <polygon points="393.4169,449.9375 387.6254,459.9688 399.2085,459.9688" fill="#333" stroke="none"/>
  <polygon points="387.6254,459.9688 381.8338,470 393.4169,470" fill="#333" stroke="none"/>
  <polygon points="399.2085,459.9688 393.4169,470 405,470" fill="#333" stroke="none"/>
  <polygon points="497.6647,309.5 491.8732,319.5312 503.4563,319.5312" fill="#333" stroke="none"/>
  <polygon points="491.8732,319.5312 486.0816,329.5625 497.6647,329.5625" fill="#333" stroke="none"/>
  <polygon points="503.4563,319.5312 497.6647,329.5625 509.2478,329.5625" fill="#333" stroke="none"/>
  <polygon points="486.0816,329.5625 480.2901,339.5938 491.8732,339.5938" fill="#333" stroke="none"/>
  <polygon points="480.2901,339.5938 474.4985,349.625 486.0816,349.625" fill="#333" stroke="none"/>
  <polygon points="491.8732,339.5938 486.0816,349.625 497.6647,349.625" fill="#333" stroke="none"/>
  <polygon points="509.2478,329.5625 503.4563,339.5938 515.0394,339.5938" fill="#333" stroke="none"/>
  <polygon points="503.4563,339.5938 497.6647,349.625 509.2478,349.625" fill="#333" stroke="none"/>
  <polygon points="515.0394,339.5938 509.2478,349.625 520.8309,349.625" fill="#333" stroke="none"/>
  <polygon points="474.4985,349.625 468.707,359.6562 480.2901,359.6562" fill="#333" stroke="none"/>
  <polygon points="468.707,359.6562 462.9154,369.6875 474.4985,369.6875" fill="#333" stroke="none"/>
  <polygon points="480.2901,359.6562 474.4985,369.6875 486.0816,369.6875" fill="#333" stroke="none"/>
  <polygon points="462.9154,369.6875 457.1239,379.7188 468.707,379.7188" fill="#333" stroke="none"/>
  <polygon points="457.1239,379.7188 451.3324,389.75 462.9154,389.75" fill="#333" stroke="none"/>
  <polygon points="468.707,379.7188 462.9154,389.75 474.4985,389.75" fill="#333" stroke="none"/>
  <polygon points="486.0816,369.6875 480.2901,379.7188 491.8732,379.7188" fill="#333" stroke="none"/>
  <polygon points="480.2901,379.7188 474.4985,389.75 486.0816,389.75" fill="#333" stroke="none"/>
  <polygon points="491.8732,379.7188 486.0816,389.75 497.6647,389.75" fill="#333" stroke="none"/>
  <polygon points="520.8309,349.625 515.0394,359.6562 526.6224,359.6562" fill="#333" stroke="none"/>
  <polygon points="515.0394,359.6562 509.2478,369.6875 520.8309,369.6875" fill="#333" stroke="none"/>
  <polygon points="526.6224,359.6562 520.8309,369.6875 532.414,369.6875" fill="#333" stroke="none"/>
  <polygon points="509.2478,369.6875 503.4563,379.7188 515.0394,379.7188" fill="#333" stroke="none"/>
  <polygon points="503.4563,379.7188 497.6647,389.75 509.2478,389.75" fill="#333" stroke="none"/>
  <polygon points="515.0394,379.7188 509.2478,389.75 520.8309,389.75" fill="#333" stroke="none"/>
  <polygon points="532.414,369.6875 526.6224,379.7188 538.2055,379.7188" fill="#333" stroke="none"/>
  <polygon points="526.6224,379.7188 520.8309,389.75 532.414,389.75" fill="#333" stroke="none"/>
  <polygon points="538.2055,379.7188 532.414,389.75 543.9971,389.75" fill="#333" stroke="none"/>
  <polygon points="451.3324,389.75 445.5408,399.7812 457.1239,399.7812" fill="#333" stroke="none"/>
  <polygon points="445.5408,399.7812 439.7493,409.8125 451.3324,409.8125" fill="#333" stroke="none"/>
  <polygon points="457.1239,399.7812 451.3324,409.8125 462.9154,409.8125" fill="#333" stroke="none"/>
  <polygon points="439.7493,409.8125 433.9577,419.8438 445.5408,419.8438" fill="#333" stroke="none"/>
  <polygon points="433.9577,419.8438 428.1662,429.875 439.7493,429.875" fill="#333" stroke="none"/>
  <polygon points="445.5408,419.8438 439.7493,429.875 451.3324,429.875" fill="#333" stroke="none"/>
  <polygon points="462.9154,409.8125 457.1239,419.8438 468.707,419.8438" fill="#333" stroke="none"/>
  <polygon points="457.1239,419.8438 451.3324,429.875 462.9154,429.875" fill="#333" stroke="none"/>
  <polygon points="468.707,419.8438 462.9154,429.875 474.4985,429.875" fill="#333" stroke="none"/>
  <polygon points="428.1662,429.875 422.3746,439.9062 433.9577,439.9062" fill="#333" stroke="none"/>
  <polygon points="422.3746,439.9062 416.5831,449.9375 428.1662,449.9375" fill="#333" stroke="none"/>
  <polygon points="433.9577,439.9062 428.1662,449.9375 439.7493,449.9375" fill="#333" stroke="none"/>
  <polygon points="416.5831,449.9375 410.7915,459.9688 422.3746,459.9688" fill="#333" stroke="none"/>
  <polygon points="410.7915,459.9688 405,470 416.5831,470" fill="#333" stroke="none"/>
  <polygon points="422.3746,459.9688 416.5831,470 428.1662,470" fill="#333" stroke="none"/>
  <polygon points="439.7493,449.9375 433.9577,459.9688 445.5408,459.9688" fill="#333" stroke="none"/>
  <polygon points="433.9577,459.9688 428.1662,470 439.7493,470" fill="#333" stroke="none"/>
  <polygon points="445.5408,459.9688 439.7493,470 451.3324,470" fill="#333" stroke="none"/>
  <polygon points="474.4985,429.875 468.707,439.9062 480.2901,439.9062" fill="#333" stroke="none"/>
  <polygon points="468.707,439.9062 462.9154,449.9375 474.4985,449.9375" fill="#333" stroke="none"/>
  <polygon points="480.2901,439.9062 474.4985,449.9375 486.0816,449.9375" fill="#333" stroke="none"/>
  <polygon points="462.9154,449.9375 457.1239,459.9688 468.707,459.9688" fill="#333" stroke="none"/>
  <polygon points="457.1239,459.9688 451.3324,470 462.9154,470" fill="#333" stroke="none"/>
  <polygon points="468.707,459.9688 462.9154,470 474.4985,470" fill="#333" stroke="none"/>
  <polygon points="486.0816,449.9375 480.2901,459.9688 491.8732,459.9688" fill="#333" stroke="none"/>
  <polygon points="480.2901,459.9688 474.4985,470 486.0816,470" fill="#333" stroke="none"/>
  <polygon points="491.8732,459.9688 486.0816,470 497.6647,470" fill="#333" stroke="none"/>
  <polygon points="543.9971,389.75 538.2055,399.7812 549.7886,399.7812" fill="#333" stroke="none"/>
  <polygon points="538.2055,399.7812 532.414,409.8125 543.9971,409.8125" fill="#333" stroke="none"/>
  <polygon points="549.7886,399.7812 543.9971,409.8125 555.5802,409.8125" fill="#333" stroke="none"/>
  <polygon points="532.414,409.8125 526.6224,419.8438 538.2055,419.8438" fill="#333" stroke="none"/>
  <polygon points="526.6224,419.8438 520.8309,429.875 532.414,429.875" fill="#333" stroke="none"/>
  <polygon points="538.2055,419.8438 532.414,429.875 543.9971,429.875" fill="#333" stroke="none"/>
  <polygon points="555.5802,409.8125 549.7886,419.8438 561.3717,419.8438" fill="#333" stroke="none"/>
  <polygon points="549.7886,419.8438 543.9971,429.875 555.5802,429.875" fill="#333" stroke="none"/>
  <polygon points="561.3717,419.8438 555.5802,429.875 567.1633,429.875" fill="#333" stroke="none"/>
  <polygon points="520.8309,429.875 515.0394,439.9062 526.6224,439.9062" fill="#333" stroke="none"/>
  <polygon points="515.0394,439.9062 509.2478,449.9375 520.8309,449.9375" fill="#333" stroke="none"/>
  <polygon points="526.6224,439.9062 520.8309,449.9375 532.414,449.9375" fill="#333" stroke="none"/>
  <polygon points="509.2478,449.9375 503.4563,459.9688 515.0394,459.9688" fill="#333" stroke="none"/>
  <polygon points="503.4563,459.9688 497.6647,470 509.2478,470" fill="#333" stroke="none"/>
  <polygon points="515.0394,459.9688 509.2478,470 520.8309,470" fill="#333" stroke="none"/>
  <polygon points="532.414,449.9375 526.6224,459.9688 538.2055,459.9688" fill="#333" stroke="none"/>
  <polygon points="526.6224,459.9688 520.8309,470 532.414,470" fill="#333" stroke="none"/>
  <polygon points="538.2055,459.9688 532.414,470 543.9971,470" fill="#333" stroke="none"/>
  <polygon points="567.1633,429.875 561.3717,439.9062 572.9548,439.9062" fill="#333" stroke="none"/>
  <polygon points="561.3717,439.9062 555.5802,449.9375 567.1633,449.9375" fill="#333" stroke="none"/>
  <polygon points="572.9548,439.9062 567.1633,449.9375 578.7463,449.9375" fill="#333" stroke="none"/>
  <polygon points="555.5802,449.9375 549.7886,459.9688 561.3717,459.9688" fill="#333" stroke="none"/>
  <polygon points="549.7886,459.9688 543.9971,470 555.5802,470" fill="#333" stroke="none"/>
  <polygon points="561.3717,459.9688 555.5802,470 567.1633,470" fill="#333" stroke="none"/>
  <polygon points="578.7463,449.9375 572.9548,459.9688 584.5379,459.9688" fill="#333" stroke="none"/>
  <polygon points="572.9548,459.9688 567.1633,470 578.7463,470" fill="#333" stroke="none"/>
  <polygon points="584.5379,459.9688 578.7463,470 590.3294,470" fill="#333" stroke="none"/>
</g>
  <g opacity="0.75">
  <polygon points="450,95 611.0807,188 611.0807,374 450,467 288.9193,374 288.9193,188" fill="none" stroke="#333" stroke-width="1.5"/>
</g>
  <g transform="rotate(165.4,400,400)">
  <circle cx="132" cy="594" r="63" fill="none" stroke="#333" stroke-width="1.5"/>
</g>
  <g opacity="0.75">
  <polygon points="442,127 622.7007,258.2868 553.6792,470.7132 330.3208,470.7132 261.2993,258.2868" fill="none" stroke="#333" stroke-width="1.5"/>
</g>
  <g transform="rotate(165.4,400,400)">
  <circle cx="100" cy="573" r="67" fill="none" stroke="#333" stroke-width="1.5"/>
</g>
</svg>