<svg xmlns="http://www.w3.org/2000/svg" width="800" height="800" viewBox="0 0 800 800">
  <g opacity="0.61">
  <g>
  <polygon points="304,206 292.3087,226.25 315.6913,226.25" fill="#333" stroke="none"/>
  <polygon points="292.3087,226.25 280.6173,246.5 304,246.5" fill="#333" stroke="none"/>
  <polygon points="315.6913,226.25 304,246.5 327.3827,246.5" fill="#333" stroke="none"/>
  <polygon points="280.6173,246.5 268.926,266.75 292.3087,266.75" fill="#333" stroke="none"/>
  <polygon points="268.926,266.75 257.2346,287 280.6173,287" fill="#333" stroke="none"/>
  <polygon points="292.3087,266.75 280.6173,287 304,287" fill="#333" stroke="none"/>
  <polygon points="327.3827,246.5 315.6913,266.75 339.074,266.75" fill="#333" stroke="none"/>
  <polygon points="315.6913,266.75 304,287 327.3827,287" fill="#333" stroke="none"/>
  <polygon points="339.074,266.75 327.3827,287 350.7654,287" fill="#333" stroke="none"/>
  <polygon points="257.2346,287 245.5433,307.25 268.926,307.25" fill="#333" stroke="none"/>
  <polygon points="245.5433,307.25 233.8519,327.5 257.2346,327.5" fill="#333" stroke="none"/>
  <polygon points="268.926,307.25 257.2346,327.5 280.6173,327.5" fill="#333" stroke="none"/>
  <polygon points="233.8519,327.5 222.1606,347.75 245.5433,347.75" fill="#333" stroke="none"/>
  <polygon points="222.1606,347.75 210.4693,368 233.8519,368" fill="#333" stroke="none"/>
  <polygon points="245.5433,347.75 233.8519,368 257.2346,368" fill="#333" stroke="none"/>
  <polygon points="280.6173,327.5 268.926,347.75 292.3087,347.75" fill="#333" stroke="none"/>
  <polygon points="268.926,347.75 257.2346,368 280.6173,368" fill="#333" stroke="none"/>
  <polygon points="292.3087,347.75 280.6173,368 304,368" fill="#333" stroke="none"/>
  <polygon points="350.7654,287 339.074,307.25 362.4567,307.25" fill="#333" stroke="none"/>
  <polygon points="339.074,307.25 327.3827,327.5 350.7654,327.5" fill="#333" stroke="none"/>
  <polygon points="362.4567,307.25 350.7654,327.5 374.1481,327.5" fill="#333" stroke="none"/>
  <polygon points="327.3827,327.5 315.6913,347.75 339.074,347.75" fill="#333" stroke="none"/>
  <polygon points="315.6913,347.75 304,368 327.3827,368" fill="#333" stroke="none"/>
  <polygon points="339.074,347.75 327.3827,368 350.7654,368" fill="#333" stroke="none"/>
  <polygon points="374.1481,327.5 362.4567,347.75 385.8394,347.75" fill="#333" stroke="none"/>
  <polygon points="362.4567,347.75 350.7654,368 374.1481,368" fill="#333" stroke="none"/>
  <polygon points="385.8394,347.75 374.1481,368 397.5307,368" fill="#333" stroke="none"/>
  <polygon points="210.4693,368 198.7779,388.25 222.1606,388.25" fill="#333" stroke="none"/>
  <polygon points="198.7779,388.25 187.0866,408.5 210.4693,408.5" fill="#333" stroke="none"/>
  <polygon points="222.1606,388.25 210.4693,408.5 233.8519,408.5" fill="#333" stroke="none"/>
  <polygon points="187.0866,408.5 175.3952,428.75 198.7779,428.75" fill="#333" stroke="none"/>
  <polygon points="175.3952,428.75 163.7039,449 187.0866,449" fill="#333" stroke="none"/>
  <polygon points="198.7779,428.75 187.0866,449 210.4693,449" fill="#333" stroke="none"/>
  <polygon points="233.8519,408.5 222.1606,428.75 245.5433,428.75" fill="#333" stroke="none"/>
  <polygon points="222.1606,428.75 210.4693,449 233.8519,449" fill="#333" stroke="none"/>
  <polygon points="245.5433,428.75 233.8519,449 257.2346,449" fill="#333" stroke="none"/>
  <polygon points="163.7039,449 152.0125,469.25 175.3952,469.25" fill="#333" stroke="none"/>
  <polygon points="152.0125,469.25 140.3212,489.5 163.7039,489.5" fill="#333" stroke="none"/>
  <polygon points="175.3952,469.25 163.7039,489.5 187.0866,489.5" fill="#333" stroke="none"/>
  <polygon points="140.3212,489.5 128.6299,509.75 152.0125,509.75" fill="#333" stroke="none"/>
  <polygon points="128.6299,509.75 116.9385,530 140.3212,530" fill="#333" stroke="none"/>
  <polygon points="152.0125,509.75 140.3212,530 163.7039,530" fill="#333" stroke="none"/>
  <polygon points="187.0866,489.5 175.3952,509.75 198.7779,509.75" fill="#333" stroke="none"/>
  <polygon points="175.3952,509.75 163.7039,530 187.0866,530" fill="#333" stroke="none"/>
  <polygon points="198.7779,509.75 187.0866,530 210.4693,530" fill="#333" stroke="none"/>
  <polygon points="257.2346,449 245.5433,469.25 268.926,469.25" fill="#333" stroke="none"/>
  <polygon points="245.5433,469.25 233.8519,489.5 257.2346,489.5" fill="#333" stroke="none"/>
  <polygon points="268.926,469.25 257.2346,489.5 280.6173,489.5" fill="#333" stroke="none"/>
  <polygon points="233.8519,489.5 222.1606,509.75 245.5433,509.75" fill="#333" stroke="none"/>
  <polygon points="222.1606,509.75 210.4693,530 233.8519,530" fill="#333" stroke="none"/>
  <polygon points="245.5433,509.75 233.8519,530 257.2346,530" fill="#333" stroke="none"/>
  <polygon points="280.6173,489.5 268.926,509.75 292.3087,509.75" fill="#333" stroke="none"/>
  <polygon points="268.926,509.75 257.2346,530 280.6173,530" fill="#333" stroke="none"/>
  <polygon points="292.3087,509.75 280.6173,530 304,530" fill="#333" stroke="none"/>
  <polygon points="397.5307,368 385.8394,388.25 409.2221,388.25" fill="#333" stroke="none"/>
  <polygon points="385.8394,388.25 374.1481,408.5 397.5307,408.5" fill="#333" stroke="none"/>
  <polygon points="409.2221,388.25 397.5307,408.5 420.9134,408.5" fill="#333" stroke="none"/>
  <polygon points="374.1481,408.5 362.4567,428.75 385.8394,428.75" fill="#333" stroke="none"/>
  <polygon points="362.4567,428.75 350.7654,449 374.1481,449" fill="#333" stroke="none"/>
  <polygon points="385.8394,428.75 374.1481,449 397.5307,449" fill="#333" stroke="none"/>
  <polygon points="420.9134,408.5 409.2221,428.75 432.6048,428.75" fill="#333" stroke="none"/>
  <polygon points="409.2221,428.75 397.5307,449 420.9134,449" fill="#333" stroke="none"/>
  <polygon points="432.6048,428.75 420.9134,449 444.2961,449" fill="#333" stroke="none"/>
  <polygon points="350.7654,449 339.074,469.25 362.4567,469.25" fill="#333" stroke="none"/>
  <polygon points="339.074,469.25 327.3827,489.5 350.7654,489.5" fill="#333" stroke="none"/>
  <polygon points="362.4567,469.25 350.7654,489.5 374.1481,489.5" fill="#333" stroke="none"/>
  <polygon points="327.3827,489.5 315.6913,509.75 339.074,509.75" fill="#333" stroke="none"/>
  <polygon points="315.6913,509.75 304,530 327.3827,530" fill="#333" stroke="none"/>
  <polygon points="339.074,509.75 327.3827,530 350.7654,530" fill="#333" stroke="none"/>
  <polygon points="374.1481,489.5 362.4567,509.75 385.8394,509.75" fill="#333" stroke="none"/>
  <polygon points="362.4567,509.75 350.7654,530 374.1481,530" fill="#333" stroke="none"/>
  <polygon points="385.8394,509.75 374.1481,530 397.5307,530" fill="#333" stroke="none"/>
  <polygon points="444.2961,449 432.6048,469.25 455.9875,469.25" fill="#333" stroke="none"/>
  <polygon points="432.6048,469.25 420.9134,489.5 444.2961,489.5" fill="#333" stroke="none"/>
  <polygon points="455.9875,469.25 444.2961,489.5 467.6788,489.5" fill="#333" stroke="none"/>
  <polygon points="420.9134,489.5 409.2221,509.75 432.6048,509.75" fill="#333" stroke="none"/>
  <polygon points="409.2221,509.75 397.5307,530 420.9134,530" fill="#333" stroke="none"/>
  <polygon points="432.6048,509.75 420.9134,530 444.2961,530" fill="#333" stroke="none"/>
  <polygon points="467.6788,489.5 455.9875,509.75 479.3701,509.75" fill="#333" stroke="none"/>
  <polygon points="455.9875,509.75 444.2961,530 467.6788,530" fill="#333" stroke="none"/>
  <polygon points="479.3701,509.75 467.6788,530 491.0615,530" fill="#333" stroke="none"/>
</g>
</g>
  <circle cx="334" cy="683" r="268" fill="none" stroke="#333" stroke-width="1.5"/>
  <g opacity="0.30">
  <g>
  <line x1="317.0514" y1="0" x2="317.0514" y2="486" stroke="#c0a040" stroke-width="1" stroke-opacity="0.6"/>
  <line x1="438.1543" y1="0" x2="438.1543" y2="486" stroke="#c0a040" stroke-width="1" stroke-opacity="0.6"/>
  <line x1="484.4115" y1="0" x2="484.4115" y2="486" stroke="#c0a040" stroke-width="1" stroke-opacity="0.6"/>
  <line x1="502.0802" y1="0" x2="502.0802" y2="486" stroke="#c0a040" stroke-width="1" stroke-opacity="0.6"/>
  <line x1="0" y1="300.3645" x2="513" y2="300.3645" stroke="#c0a040" stroke-width="1" stroke-opacity="0.6"/>
  <line x1="0" y1="415.0936" x2="513" y2="415.0936" stroke="#c0a040" stroke-width="1" stroke-opacity="0.6"/>
  <line x1="0" y1="458.9161" x2="513" y2="458.9161" stroke="#c0a040" stroke-width="1" stroke-opacity="0.6"/>
  <line x1="0" y1="475.6549" x2="513" y2="475.6549" stroke="#c0a040" stroke-width="1" stroke-opacity="0.6"/>
</g>
</g>
</svg>