<svg xmlns="http://www.w3.org/2000/svg" width="800" height="800" viewBox="0 0 800 800">
  <g transform="rotate(-15.2,400,400)">
  <g>
  <line x1="462" y1="365" x2="603" y2="365" stroke="#999" stroke-width="0.5"/>
  <line x1="462" y1="365" x2="532.5" y2="487.1096" stroke="#999" stroke-width="0.5"/>
  <line x1="462" y1="365" x2="391.5" y2="487.1096" stroke="#999" stroke-width="0.5"/>
  <line x1="462" y1="365" x2="321" y2="365" stroke="#999" stroke-width="0.5"/>
  <line x1="462" y1="365" x2="391.5" y2="242.8904" stroke="#999" stroke-width="0.5"/>
  <line x1="462" y1="365" x2="532.5" y2="242.8904" stroke="#999" stroke-width="0.5"/>
  <line x1="462" y1="365" x2="706.2192" y2="506" stroke="#999" stroke-width="0.5"/>
  <line x1="462" y1="365" x2="462" y2="647" stroke="#999" stroke-width="0.5"/>
  <line x1="462" y1="365" x2="217.7808" y2="506" stroke="#999" stroke-width="0.5"/>
  <line x1="462" y1="365" x2="217.7808" y2="224" stroke="#999" stroke-width="0.5"/>
  <line x1="462" y1="365" x2="462" y2="83" stroke="#999" stroke-width="0.5"/>
  <line x1="462" y1="365" x2="706.2192" y2="224" stroke="#999" stroke-width="0.5"/>
  <line x1="603" y1="365" x2="532.5" y2="487.1096" stroke="#999" stroke-width="0.5"/>
  <line x1="603" y1="365" x2="391.5" y2="487.1096" stroke="#999" stroke-width="0.5"/>
  <line x1="603" y1="365" x2="321" y2="365" stroke="#999" stroke-width="0.5"/>
  <line x1="603" y1="365" x2="391.5" y2="242.8904" stroke="#999" stroke-width="0.5"/>
  <line x1="603" y1="365" x2="532.5" y2="242.8904" stroke="#999" stroke-width="0.5"/>
  <line x1="603" y1="365" x2="706.2192" y2="506" stroke="#999" stroke-width="0.5"/>
  <line x1="603" y1="365" x2="462" y2="647" stroke="#999" stroke-width="0.5"/>
  <line x1="603" y1="365" x2="217.7808" y2="506" stroke="#999" stroke-width="0.5"/>
  <line x1="603" y1="365" x2="217.7808" y2="224" stroke="#999" stroke-width="0.5"/>
  <line x1="603" y1="365" x2="462" y2="83" stroke="#999" stroke-width="0.5"/>
  <line x1="603" y1="365" x2="706.2192" y2="224" stroke="#999" stroke-width="0.5"/>
  <line x1="532.5" y1="487.1096" x2="391.5" y2="487.1096" stroke="#999" stroke-width="0.5"/>
  <line x1="532.5" y1="487.1096" x2="321" y2="365" stroke="#999" stroke-width="0.5"/>
  <line x1="532.5" y1="487.1096" x2="391.5" y2="242.8904" stroke="#999" stroke-width="0.5"/>
  <line x1="532.5" y1="487.1096" x2="532.5" y2="242.8904" stroke="#999" stroke-width="0.5"/>
  <line x1="532.5" y1="487.1096" x2="706.2192" y2="506" stroke="#999" stroke-width="0.5"/>
  <line x1="532.5" y1="487.1096" x2="462" y2="647" stroke="#999" stroke-width="0.5"/>
  <line x1="532.5" y1="487.1096" x2="217.7808" y2="506" stroke="#999" stroke-width="0.5"/>
  <line x1="532.5" y1="487.1096" x2="217.7808" y2="224" stroke="#999" stroke-width="0.5"/>
  <line x1="532.5" y1="487.1096" x2="462" y2="83" stroke="#999" stroke-width="0.5"/>
  <line x1="532.5" y1="487.1096" x2="706.2192" y2="224" stroke="#999" stroke-width="0.5"/>
  <line x1="391.5" y1="487.1096" x2="321" y2="365" stroke="#999" stroke-width="0.5"/>
  <line x1="391.5" y1="487.1096" x2="391.5" y2="242.8904" stroke="#999" stroke-width="0.5"/>
  <line x1="391.5" y1="487.1096" x2="532.5" y2="242.8904" stroke="#999" stroke-width="0.5"/>
  <line x1="391.5" y1="487.1096" x2="706.2192" y2="506" stroke="#999" stroke-width="0.5"/>
  <line x1="391.5" y1="487.1096" x2="462" y2="647" stroke="#999" stroke-width="0.5"/>
  <line x1="391.5" y1="487.1096" x2="217.7808" y2="506" stroke="#999" stroke-width="0.5"/>
  <line x1="391.5" y1="487.1096" x2="217.7808" y2="224" stroke="#999" stroke-width="0.5"/>
  <line x1="391.5" y1="487.1096" x2="462" y2="83" stroke="#999" stroke-width="0.5"/>
  <line x1="391.5" y1="487.1096" x2="706.2192" y2="224" stroke="#999" stroke-width="0.5"/>
  <line x1="321" y1="365" x2="391.5" y2="242.8904" stroke="#999" stroke-width="0.5"/>
  <line x1="321" y1="365" x2="532.5" y2="242.8904" stroke="#999" stroke-width="0.5"/>
  <line x1="321" y1="365" x2="706.2192" y2="506" stroke="#999" stroke-width="0.5"/>
  <line x1="321" y1="365" x2="462" y2="647" stroke="#999" stroke-width="0.5"/>
  <line x1="321" y1="365" x2="217.7808" y2="506" stroke="#999" stroke-width="0.5"/>
  <line x1="321" y1="365" x2="217.7808" y2="224" stroke="#999" stroke-width="0.5"/>
  <line x1="321" y1="365" x2="462" y2="83" stroke="#999" stroke-width="0.5"/>
  <line x1="321" y1="365" x2="706.2192" y2="224" stroke="#999" stroke-width="0.5"/>
  <line x1="391.5" y1="242.8904" x2="532.5" y2="242.8904" stroke="#999" stroke-width="0.5"/>
  <line x1="391.5" y1="242.8904" x2="706.2192" y2="506" stroke="#999" stroke-width="0.5"/>
  <line x1="391.5" y1="242.8904" x2="462" y2="647" stroke="#999" stroke-width="0.5"/>
  <line x1="391.5" y1="242.8904" x2="217.7808" y2="506" stroke="#999" stroke-width="0.5"/>
  <line x1="391.5" y1="242.8904" x2="217.7808" y2="224" stroke="#999" stroke-width="0.5"/>
  <line x1="391.5" y1="242.8904" x2="462" y2="83" stroke="#999" stroke-width="0.5"/>
  <line x1="391.5" y1="242.8904" x2="706.2192" y2="224" stroke="#999" stroke-width="0.5"/>
  <line x1="532.5" y1="242.8904" x2="706.2192" y2="506" stroke="#999" stroke-width="0.5"/>
  <line x1="532.5" y1="242.8904" x2="462" y2="647" stroke="#999" stroke-width="0.5"/>
  <line x1="532.5" y1="242.8904" x2="217.7808" y2="506" stroke="#999" stroke-width="0.5"/>
  <line x1="532.5" y1="242.8904" x2="217.7808" y2="224" stroke="#999" stroke-width="0.5"/>
  <line x1="532.5" y1="242.8904" x2="462" y2="83" stroke="#999" stroke-width="0.5"/>
  <line x1="532.5" y1="242.8904" x2="706.2192" y2="224" stroke="#999" stroke-width="0.5"/>
  <line x1="706.2192" y1="506" x2="462" y2="647" stroke="#999" stroke-width="0.5"/>
  <line x1="706.2192" y1="506" x2="217.7808" y2="506" stroke="#999" stroke-width="0.5"/>
  <line x1="706.2192" y1="506" x2="217.7808" y2="224" stroke="#999" stroke-width="0.5"/>
  <line x1="706.2192" y1="506" x2="462" y2="83" stroke="#999" stroke-width="0.5"/>
  <line x1="706.2192" y1="506" x2="706.2192" y2="224" stroke="#999" stroke-width="0.5"/>
  <line x1="462" y1="647" x2="217.7808" y2="506" stroke="#999" stroke-width="0.5"/>
  <line x1="462" y1="647" x2="217.7808" y2="224" stroke="#999" stroke-width="0.5"/>
  <line x1="462" y1="647" x2="462" y2="83" stroke="#999" stroke-width="0.5"/>
  <line x1="462" y1="647" x2="706.2192" y2="224" stroke="#999" stroke-width="0.5"/>
  <line x1="217.7808" y1="506" x2="217.7808" y2="224" stroke="#999" stroke-width="0.5"/>
  <line x1="217.7808" y1="506" x2="462" y2="83" stroke="#999" stroke-width="0.5"/>
  <line x1="217.7808" y1="506" x2="706.2192" y2="224" stroke="#999" stroke-width="0.5"/>
  <line x1="217.7808" y1="224" x2="462" y2="83" stroke="#999" stroke-width="0.5"/>
  <line x1="217.7808" y1="224" x2="706.2192" y2="224" stroke="#999" stroke-width="0.5"/>
  <line x1="462" y1="83" x2="706.2192" y2="224" stroke="#999" stroke-width="0.5"/>
  <circle cx="462" cy="365" r="21.15" fill="none" stroke="#333" stroke-width="1"/>
  <circle cx="603" cy="365" r="21.15" fill="none" stroke="#333" stroke-width="1"/>
  <circle cx="532.5" cy="487.1096" r="21.15" fill="none" stroke="#333" stroke-width="1"/>
  <circle cx="391.5" cy="487.1096" r="21.15" fill="none" stroke="#333" stroke-width="1"/>
  <circle cx="321" cy="365" r="21.15" fill="none" stroke="#333" stroke-width="1"/>
  <circle cx="391.5" cy="242.8904" r="21.15" fill="none" stroke="#333" stroke-width="1"/>
  <circle cx="532.5" cy="242.8904" r="21.15" fill="none" stroke="#333" stroke-width="1"/>
  <circle cx="706.2192" cy="506" r="21.15" fill="none" stroke="#333" stroke-width="1"/>
  <circle cx="462" cy="647" r="21.15" fill="none" stroke="#333" stroke-width="1"/>
  <circle cx="217.7808" cy="506" r="21.15" fill="none" stroke="#333" stroke-width="1"/>
  <circle cx="217.7808" cy="224" r="21.15" fill="none" stroke="#333" stroke-width="1"/>
  <circle cx="462" cy="83" r="21.15" fill="none" stroke="#333" stroke-width="1"/>
  <circle cx="706.2192" cy="224" r="21.15" fill="none" stroke="#333" stroke-width="1"/>
</g>
</g>
  <g opacity="0.72">
  <g>
  <circle cx="402" cy="525" r="18.2143" stroke="#e74c3c" stroke-width="2" fill="#e74c3c" fill-opacity="0.08"/>
  <circle cx="420.2143" cy="525" r="3" fill="#e74c3c" stroke="none"/>
  <circle cx="392.8928" cy="509.2259" r="3" fill="#e74c3c" stroke="none"/>
  <circle cx="392.8928" cy="540.7741" r="3" fill="#e74c3c" stroke="none"/>
  <text x="428.2143" y="529" font-size="10" fill="#e74c3c">3D c3 seed</text>
  <circle cx="402" cy="525" r="29.4714" stroke="#e67e22" stroke-width="2" fill="#e67e22" fill-opacity="0.08"/>
  <circle cx="431.4714" cy="525" r="3" fill="#e67e22" stroke="none"/>
  <circle cx="402" cy="495.5286" r="3" fill="#e67e22" stroke="none"/>
  <circle cx="372.5286" cy="525" r="3" fill="#e67e22" stroke="none"/>
  <circle cx="402" cy="554.4714" r="3" fill="#e67e22" stroke="none"/>
  <text x="439.4714" y="529" font-size="10" fill="#e67e22">4D E4 base</text>
  <circle cx="402" cy="525" r="47.6857" stroke="#f1c40f" stroke-width="2" fill="#f1c40f" fill-opacity="0.08"/>
  <circle cx="449.6857" cy="525" r="3" fill="#f1c40f" stroke="none"/>
  <circle cx="425.8429" cy="483.7029" r="3" fill="#f1c40f" stroke="none"/>
  <circle cx="378.1571" cy="483.7029" r="3" fill="#f1c40f" stroke="none"/>
  <circle cx="354.3143" cy="525" r="3" fill="#f1c40f" stroke="none"/>
  <circle cx="378.1571" cy="566.2971" r="3" fill="#f1c40f" stroke="none"/>
  <circle cx="425.8429" cy="566.2971" r="3" fill="#f1c40f" stroke="none"/>
  <text x="457.6857" y="529" font-size="10" fill="#f1c40f">6D W3 Mobius</text>
  <circle cx="402" cy="525" r="77.1571" stroke="#2ecc71" stroke-width="2" fill="#2ecc71" fill-opacity="0.08"/>
  <circle cx="479.1571" cy="525" r="3" fill="#2ecc71" stroke="none"/>
  <circle cx="456.5583" cy="470.4417" r="3" fill="#2ecc71" stroke="none"/>
  <circle cx="402" cy="447.8429" r="3" fill="#2ecc71" stroke="none"/>
  <circle cx="347.4417" cy="470.4417" r="3" fill="#2ecc71" stroke="none"/>
  <circle cx="324.8429" cy="525" r="3" fill="#2ecc71" stroke="none"/>
  <circle cx="347.4417" cy="579.5583" r="3" fill="#2ecc71" stroke="none"/>
  <circle cx="402" cy="602.1571" r="3" fill="#2ecc71" stroke="none"/>
  <circle cx="456.5583" cy="579.5583" r="3" fill="#2ecc71" stroke="none"/>
  <text x="487.1571" y="529" font-size="10" fill="#2ecc71">8D W5 penta</text>
  <circle cx="402" cy="525" r="124.8429" stroke="#3498db" stroke-width="2" fill="#3498db" fill-opacity="0.08"/>
  <circle cx="526.8429" cy="525" r="3" fill="#3498db" stroke="none"/>
  <circle cx="503" cy="451.6192" r="3" fill="#3498db" stroke="none"/>
  <circle cx="440.5786" cy="406.2674" r="3" fill="#3498db" stroke="none"/>
  <circle cx="363.4214" cy="406.2674" r="3" fill="#3498db" stroke="none"/>
  <circle cx="301" cy="451.6192" r="3" fill="#3498db" stroke="none"/>
  <circle cx="277.1571" cy="525" r="3" fill="#3498db" stroke="none"/>
  <circle cx="301" cy="598.3808" r="3" fill="#3498db" stroke="none"/>
  <circle cx="363.4214" cy="643.7326" r="3" fill="#3498db" stroke="none"/>
  <circle cx="440.5786" cy="643.7326" r="3" fill="#3498db" stroke="none"/>
  <circle cx="503" cy="598.3808" r="3" fill="#3498db" stroke="none"/>
  <text x="534.8429" y="529" font-size="10" fill="#3498db">10D W7 hepta</text>
  <circle cx="402" cy="525" r="202" stroke="#9b59b6" stroke-width="2" fill="#9b59b6" fill-opacity="0.08"/>
  <circle cx="604" cy="525" r="3" fill="#9b59b6" stroke="none"/>
  <circle cx="576.9371" cy="424" r="3" fill="#9b59b6" stroke="none"/>
  <circle cx="503" cy="350.0629" r="3" fill="#9b59b6" stroke="none"/>
  <circle cx="402" cy="323" r="3" fill="#9b59b6" stroke="none"/>
  <circle cx="301" cy="350.0629" r="3" fill="#9b59b6" stroke="none"/>
  <circle cx="227.0629" cy="424" r="3" fill="#9b59b6" stroke="none"/>
  <circle cx="200" cy="525" r="3" fill="#9b59b6" stroke="none"/>
  <circle cx="227.0629" cy="626" r="3" fill="#9b59b6" stroke="none"/>
  <circle cx="301" cy="699.9371" r="3" fill="#9b59b6" stroke="none"/>
  <circle cx="402" cy="727" r="3" fill="#9b59b6" stroke="none"/>
  <circle cx="503" cy="699.9371" r="3" fill="#9b59b6" stroke="none"/>
  <circle cx="576.9371" cy="626" r="3" fill="#9b59b6" stroke="none"/>
  <text x="612" y="529" font-size="10" fill="#9b59b6">12D W9 crown</text>
</g>
</g>
  <g transform="rotate(-75.4,400,400)">
  <g>
  <polyline points="417.6503,370.1773 416.5785,367.5256 414.8318,364.9373 412.42,362.4385 409.3556,360.0551 405.6546,357.8133 401.3364,355.7392 396.4244,353.8593 390.9462,352.1998 384.934,350.7869 378.4251,349.6465 371.4625,348.8038 364.0945,348.2833 356.3757,348.108 348.3668,348.2994 340.1344,348.8765 331.7516,349.856 323.2968,351.2512 314.8541,353.0717 306.512,355.3227 298.3634,358.0049 290.5039,361.1137 283.0314,364.6388 276.0445,368.5641 269.6409,372.8673 263.9167,377.5195 258.9642,382.4859 254.8703,387.7249 251.7153,393.1891 249.5712,398.8253 248.4996,404.5748 248.5509,410.3743 249.7626,416.1563 252.1582,421.8504 255.7461,427.3835 260.5186,432.6814 266.452,437.6697 273.5055,442.2749 281.6216,446.4255 290.7264,450.0535 300.73,453.0952 311.5274,455.4924 322.9998,457.194 335.0158,458.1561 347.4333,458.3438 360.1011,457.7314 372.8616,456.3034 385.5523,454.0547 398.009,450.9913 410.0678,447.13 421.5678,442.4988 432.3536,437.1363 442.278,431.0918 451.2039,424.4242 459.0072,417.2015 465.5782,409.4998 470.8238,401.4025 474.6693,392.9987 477.0589,384.3821 477.9574,375.6499 477.3505,366.9008" stroke="#333" stroke-width="0.8" fill="none"/>
  <polyline points="425.1128,369.7678 423.9118,366.3641 421.9365,363.0386 419.2014,359.8257 415.7261,356.7597 411.5355,353.8742 406.6597,351.202 401.1341,348.7751 394.9996,346.6244 388.3025,344.7795 381.095,343.2683 373.4344,342.1171 365.384,341.3497 357.0123,340.9876 348.3931,341.0495 339.605,341.5505 330.7314,342.5024 321.8595,343.9127 313.08,345.7847 304.4863,348.1168 296.1735,350.9024 288.2376,354.1296 280.7741,357.7808 273.8775,361.8329 267.6393,366.257 262.1472,371.0185 257.4834,376.0772 253.7238,381.3873 250.9361,386.8982 249.1787,392.5544 248.4996,398.2963 248.9352,404.0608 250.5094,409.7817 253.2323,415.391 257.1002,420.8192 262.0944,425.9968 268.1816,430.8547 275.3133,435.3255 283.4263,439.3445 292.4427,442.8508 302.2714,445.7879 312.808,448.1051 323.9367,449.7582 335.5313,450.7104 347.457,450.9329 359.5717,450.4054 371.7285,449.1172 383.7773,447.0667 395.5673,444.2625 406.9485,440.7227 417.7748,436.4753 427.9056,431.558 437.2079,426.0172 445.5588,419.9083 452.8468,413.2945 458.974,406.246 463.8576,398.8391 467.4309,391.1553 469.6446,383.2802 470.4678,375.3019 469.888,367.3103" stroke="#333" stroke-width="0.8" fill="none"/>
  <polyline points="432.5754,369.3582 431.2452,365.2027 429.0411,361.1398 425.9827,357.2129 422.0966,353.4643 417.4164,349.9351 411.9829,346.6648 405.8437,343.691 399.0529,341.0491 391.6711,338.7721 383.7648,336.8902 375.4064,335.4303 366.6735,334.4161 357.6489,333.8673 348.4194,333.7996 339.0756,334.2245 329.7112,335.1488 320.4222,336.5743 311.306,338.4978 302.4607,340.911 293.9837,343.7999 285.9712,347.1454 278.5168,350.9227 271.7105,355.1017 265.6377,359.6468 260.3776,364.5176 256.0027,369.6685 252.5774,375.0498 250.1568,380.6073 248.7861,386.2836 248.4996,392.0179 249.3196,397.7473 251.2561,403.407 254.3064,408.9315 258.4543,414.255 263.6702,419.3122 269.9113,424.0397 277.1212,428.3761 285.2309,432.2635 294.1591,435.648 303.8128,438.4806 314.0886,440.7178 324.8736,442.3225 336.0469,443.2648 347.4807,443.5219 359.0422,443.0794 370.5954,441.9309 382.0024,440.0787 393.1255,437.5337 403.8292,434.3154 413.9819,430.4519 423.4576,425.9796 432.1379,420.9426 439.9136,415.3925 446.6864,409.3876 452.3699,402.9921 456.8913,396.2756 460.1924,389.312 462.2303,382.1783 462.9782,374.954 462.4255,367.7199" stroke="#333" stroke-width="0.8" fill="none"/>
  <polyline points="440.0379,368.9486 438.5785,364.0412 436.1458,359.241 432.7641,354.6001 428.4671,350.1689 423.2973,345.996 417.3062,342.1276 410.5534,338.6068 403.1063,335.4738 395.0396,332.7648 386.4346,330.5121 377.3783,328.7436 367.9631,327.4825 358.2855,326.7469 348.4457,326.5498 338.5461,326.8985 328.6909,327.7952 318.9848,329.2358 309.532,331.2109 300.435,333.7051 291.7938,336.6974 283.7048,340.1613 276.2595,344.0647 269.5436,348.3704 263.636,353.0366 258.608,358.0166 254.522,363.2599 251.4309,368.7122 249.3775,374.3164 248.3936,380.0127 248.4996,385.7394 249.7039,391.4338 252.0028,397.0324 255.3804,402.4721 259.8083,407.6907 265.246,412.6276 271.6409,417.2247 278.9291,421.4267 287.0356,425.1826 295.8755,428.4453 305.3542,431.1733 315.3692,433.3304 325.8105,434.8868 336.5624,435.8191 347.5043,436.111 358.5128,435.7534 369.4623,434.7447 380.2274,433.0907 390.6838,430.8049 400.71,427.9081 410.189,424.4285 419.0096,420.4012 427.0679,415.868 434.2685,410.8766 440.526,405.4806 445.7657,399.7382 449.925,393.7122 452.954,387.4687 454.816,381.0764 455.4885,374.6061 454.9629,368.1295" stroke="#333" stroke-width="0.8" fill="none"/>
  <polyline points="447.5004,368.539 445.9118,362.8797 443.2504,357.3423 439.5455,351.9873 434.8376,346.8735 429.1782,342.0569 422.6295,337.5903 415.2631,333.5226 407.1597,329.8984 398.4082,326.7574 389.1044,324.134 379.3502,322.0569 369.2526,320.5489 358.9221,319.6265 348.472,319.2999 338.0167,319.5726 327.6707,320.4415 317.5475,321.8973 307.758,323.924 298.4093,326.4992 289.604,329.5949 281.4384,333.1771 274.0022,337.2066 267.3766,341.6392 261.6344,346.4264 256.8384,351.5156 253.0413,356.8512 250.2845,362.3747 248.5983,368.0255 248.0011,373.7418 248.4996,379.461 250.0882,385.1203 252.7496,390.6577 256.4545,396.0127 261.1624,401.1265 266.8218,405.9431 273.3705,410.4097 280.7369,414.4774 288.8403,418.1016 297.5918,421.2426 306.8956,423.866 316.6498,425.9431 326.7474,427.4511 337.0779,428.3735 347.528,428.7001 357.9833,428.4274 368.3293,427.5585 378.4525,426.1027 388.242,424.076 397.5907,421.5008 406.396,418.4051 414.5616,414.8229 421.9978,410.7934 428.6234,406.3608 434.3656,401.5736 439.1616,396.4844 442.9587,391.1488 445.7155,385.6253 447.4017,379.9745 447.9989,374.2582 447.5004,368.539" stroke="#333" stroke-width="0.8" fill="none"/>
  <polyline points="454.9629,368.1295 453.2451,361.7183 450.3551,355.4435 446.3269,349.3745 441.2081,343.5781 435.0591,338.1179 427.9527,333.0531 419.9727,328.4385 411.2131,324.3231 401.7767,320.75 391.7742,317.7558 381.3222,315.3702 370.5421,313.6153 359.5587,312.5062 348.4983,312.05 337.4872,312.2466 326.6505,313.0879 316.1102,314.5588 305.9839,316.637 296.3836,319.2934 287.4141,322.4924 279.1721,326.193 271.7448,330.3486 265.2097,334.908 259.6328,339.8161 255.0689,345.0146 251.5605,350.4425 249.138,356.0371 247.819,361.7346 247.6086,367.471 248.4996,373.1825 250.4725,378.8068 253.4963,384.2831 257.5286,389.5533 262.5165,394.5622 268.3976,399.2585 275.1002,403.5946 282.5448,407.528 290.645,411.0206 299.3082,414.0399 308.437,416.5587 317.9304,418.5558 327.6843,420.0154 337.5934,420.9278 347.5517,421.2892 357.4539,421.1015 367.1962,420.3722 376.6775,419.1147 385.8003,417.3472 394.4714,415.0935 402.6031,412.3816 410.1136,409.2445 416.9278,405.7188 422.9782,401.8449 428.2052,397.6667 432.5574,393.2305 435.9925,388.5854 438.4771,383.782 439.9875,378.8726 440.5092,373.9102 440.0379,368.9486" stroke="#333" stroke-width="0.8" fill="none"/>
  <polyline points="462.4255,367.7199 460.5784,360.5568 457.4597,353.5447 453.1083,346.7617 447.5786,340.2827 440.94,334.1788 433.276,328.5159 424.6824,323.3543 415.2665,318.7478 405.1453,314.7427 394.444,311.3777 383.2941,308.6834 371.8317,306.6817 360.1953,305.3858 348.5246,304.8002 336.9578,304.9206 325.6303,305.7343 314.6729,307.2204 304.2099,309.3501 294.3579,312.0875 285.2243,315.3899 276.9057,319.2089 269.4875,323.4905 263.0427,328.1768 257.6311,333.2059 253.2993,338.5136 250.0798,344.0339 247.9915,349.6996 247.0397,355.4437 247.2161,361.2001 248.4996,366.904 250.8568,372.4933 254.243,377.9084 258.6026,383.0938 263.8706,387.998 269.9734,392.5739 276.8298,396.7796 284.3527,400.5786 292.4497,403.9396 301.0245,406.8371 309.9784,409.2515 319.211,411.1685 328.6212,412.5797 338.1089,413.4822 347.5754,413.8783 356.9244,413.7755 366.0631,413.186 374.9026,412.1266 383.3586,410.6184 391.3522,408.6862 398.8102,406.3582 405.6656,403.6661 411.8578,400.6442 417.3331,397.3291 422.0448,393.7597 425.9533,389.9767 429.0262,386.022 431.2387,381.9387 432.5732,377.7707 433.0196,373.5623 432.5754,369.3582" stroke="#333" stroke-width="0.8" fill="none"/>
  <polyline points="469.888,367.3103 467.9118,359.3953 464.5644,351.646 459.8896,344.1489 453.9491,336.9874 446.8209,330.2397 438.5993,323.9787 429.392,318.2702 419.3198,313.1724 408.5138,308.7353 397.1138,304.9996 385.266,301.9967 373.1212,299.7481 360.8319,298.2654 348.5509,297.5503 336.4283,297.5946 324.6101,298.3807 313.2355,299.8819 302.4359,302.0632 292.3323,304.8816 283.0344,308.2874 274.6393,312.2247 267.2302,316.6325 260.8757,321.4455 255.6295,326.5957 251.5297,332.0127 248.5991,337.6252 246.8451,343.362 246.2604,349.1528 246.8236,354.9292 248.4996,360.6256 251.2412,366.1797 254.9897,371.5338 259.6767,376.6344 265.2247,381.4337 271.5491,385.8893 278.5594,389.9646 286.1605,393.6292 294.2543,396.8586 302.7409,399.6344 311.5199,401.9442 320.4915,403.7811 329.5581,405.144 338.6244,406.0365 347.5991,406.4674 356.395,406.4495 364.9301,405.9997 373.1276,405.1386 380.9168,403.8896 388.2329,402.2789 395.0172,400.3348 401.2175,398.0878 406.7878,395.5695 411.688,392.8132 415.8844,389.8528 419.3491,386.7228 422.0599,383.4585 424.0002,380.0953 425.1589,376.6688 425.53,373.2144 425.1128,369.7678" stroke="#333" stroke-width="0.8" fill="none"/>
  <polyline points="417.6503,370.1773 425.1128,369.7678 432.5754,369.3582 440.0379,368.9486 447.5004,368.539 454.9629,368.1295 462.4255,367.7199 469.888,367.3103" stroke="#999" stroke-width="0.5" fill="none"/>
  <polyline points="405.6546,357.8133 411.5355,353.8742 417.4164,349.9351 423.2973,345.996 429.1782,342.0569 435.0591,338.1179 440.94,334.1788 446.8209,330.2397" stroke="#999" stroke-width="0.5" fill="none"/>
  <polyline points="378.4251,349.6465 381.095,343.2683 383.7648,336.8902 386.4346,330.5121 389.1044,324.134 391.7742,317.7558 394.444,311.3777 397.1138,304.9996" stroke="#999" stroke-width="0.5" fill="none"/>
  <polyline points="340.1344,348.8765 339.605,341.5505 339.0756,334.2245 338.5461,326.8985 338.0167,319.5726 337.4872,312.2466 336.9578,304.9206 336.4283,297.5946" stroke="#999" stroke-width="0.5" fill="none"/>
  <polyline points="298.3634,358.0049 296.1735,350.9024 293.9837,343.7999 291.7938,336.6974 289.604,329.5949 287.4141,322.4924 285.2243,315.3899 283.0344,308.2874" stroke="#999" stroke-width="0.5" fill="none"/>
  <polyline points="263.9167,377.5195 262.1472,371.0185 260.3776,364.5176 258.608,358.0166 256.8384,351.5156 255.0689,345.0146 253.2993,338.5136 251.5297,332.0127" stroke="#999" stroke-width="0.5" fill="none"/>
  <polyline points="248.4996,404.5748 248.4996,398.2963 248.4996,392.0179 248.4996,385.7394 248.4996,379.461 248.4996,373.1825 248.4996,366.904 248.4996,360.6256" stroke="#999" stroke-width="0.5" fill="none"/>
  <polyline points="260.5186,432.6814 262.0944,425.9968 263.6702,419.3122 265.246,412.6276 266.8218,405.9431 268.3976,399.2585 269.9734,392.5739 271.5491,385.8893" stroke="#999" stroke-width="0.5" fill="none"/>
  <polyline points="300.73,453.0952 302.2714,445.7879 303.8128,438.4806 305.3542,431.1733 306.8956,423.866 308.437,416.5587 309.9784,409.2515 311.5199,401.9442" stroke="#999" stroke-width="0.5" fill="none"/>
  <polyline points="360.1011,457.7314 359.5717,450.4054 359.0422,443.0794 358.5128,435.7534 357.9833,428.4274 357.4539,421.1015 356.9244,413.7755 356.395,406.4495" stroke="#999" stroke-width="0.5" fill="none"/>
  <polyline points="421.5678,442.4988 417.7748,436.4753 413.9819,430.4519 410.189,424.4285 406.396,418.4051 402.6031,412.3816 398.8102,406.3582 395.0172,400.3348" stroke="#999" stroke-width="0.5" fill="none"/>
  <polyline points="465.5782,409.4998 458.974,406.246 452.3699,402.9921 445.7657,399.7382 439.1616,396.4844 432.5574,393.2305 425.9533,389.9767 419.3491,386.7228" stroke="#999" stroke-width="0.5" fill="none"/>
</g>
</g>
  <g opacity="0.72">
  <g transform="rotate(-87.0,400,400)">
  <g>
  <circle cx="385" cy="446" r="19.5669" stroke="#e74c3c" stroke-width="2" fill="#e74c3c" fill-opacity="0.08"/>
  <circle cx="404.5669" cy="446" r="3" fill="#e74c3c" stroke="none"/>
  <circle cx="375.2166" cy="429.0546" r="3" fill="#e74c3c" stroke="none"/>
  <circle cx="375.2166" cy="462.9454" r="3" fill="#e74c3c" stroke="none"/>
  <text x="412.5669" y="450" font-size="10" fill="#e74c3c">3D c3 seed</text>
  <circle cx="385" cy="446" r="31.6599" stroke="#e67e22" stroke-width="2" fill="#e67e22" fill-opacity="0.08"/>
  <circle cx="416.6599" cy="446" r="3" fill="#e67e22" stroke="none"/>
  <circle cx="385" cy="414.3401" r="3" fill="#e67e22" stroke="none"/>
  <circle cx="353.3401" cy="446" r="3" fill="#e67e22" stroke="none"/>
  <circle cx="385" cy="477.6599" r="3" fill="#e67e22" stroke="none"/>
  <text x="424.6599" y="450" font-size="10" fill="#e67e22">4D E4 base</text>
  <circle cx="385" cy="446" r="51.2268" stroke="#f1c40f" stroke-width="2" fill="#f1c40f" fill-opacity="0.08"/>
  <circle cx="436.2268" cy="446" r="3" fill="#f1c40f" stroke="none"/>
  <circle cx="410.6134" cy="401.6363" r="3" fill="#f1c40f" stroke="none"/>
  <circle cx="359.3866" cy="401.6363" r="3" fill="#f1c40f" stroke="none"/>
  <circle cx="333.7732" cy="446" r="3" fill="#f1c40f" stroke="none"/>
  <circle cx="359.3866" cy="490.3637" r="3" fill="#f1c40f" stroke="none"/>
  <circle cx="410.6134" cy="490.3637" r="3" fill="#f1c40f" stroke="none"/>
  <text x="444.2268" y="450" font-size="10" fill="#f1c40f">6D W3 Mobius</text>
  <circle cx="385" cy="446" r="82.8866" stroke="#2ecc71" stroke-width="2" fill="#2ecc71" fill-opacity="0.08"/>
  <circle cx="467.8866" cy="446" r="3" fill="#2ecc71" stroke="none"/>
  <circle cx="443.6097" cy="387.3903" r="3" fill="#2ecc71" stroke="none"/>
  <circle cx="385" cy="363.1134" r="3" fill="#2ecc71" stroke="none"/>
  <circle cx="326.3903" cy="387.3903" r="3" fill="#2ecc71" stroke="none"/>
  <circle cx="302.1134" cy="446" r="3" fill="#2ecc71" stroke="none"/>
  <circle cx="326.3903" cy="504.6097" r="3" fill="#2ecc71" stroke="none"/>
  <circle cx="385" cy="528.8866" r="3" fill="#2ecc71" stroke="none"/>
  <circle cx="443.6097" cy="504.6097" r="3" fill="#2ecc71" stroke="none"/>
  <text x="475.8866" y="450" font-size="10" fill="#2ecc71">8D W5 penta</text>
  <circle cx="385" cy="446" r="134.1134" stroke="#3498db" stroke-width="2" fill="#3498db" fill-opacity="0.08"/>
  <circle cx="519.1134" cy="446" r="3" fill="#3498db" stroke="none"/>
  <circle cx="493.5" cy="367.1701" r="3" fill="#3498db" stroke="none"/>
  <circle cx="426.4433" cy="318.4506" r="3" fill="#3498db" stroke="none"/>
  <circle cx="343.5567" cy="318.4506" r="3" fill="#3498db" stroke="none"/>
  <circle cx="276.5" cy="367.1701" r="3" fill="#3498db" stroke="none"/>
  <circle cx="250.8866" cy="446" r="3" fill="#3498db" stroke="none"/>
  <circle cx="276.5" cy="524.8299" r="3" fill="#3498db" stroke="none"/>
  <circle cx="343.5567" cy="573.5494" r="3" fill="#3498db" stroke="none"/>
  <circle cx="426.4433" cy="573.5494" r="3" fill="#3498db" stroke="none"/>
  <circle cx="493.5" cy="524.8299" r="3" fill="#3498db" stroke="none"/>
  <text x="527.1134" y="450" font-size="10" fill="#3498db">10D W7 hepta</text>
  <circle cx="385" cy="446" r="217" stroke="#9b59b6" stroke-width="2" fill="#9b59b6" fill-opacity="0.08"/>
  <circle cx="602" cy="446" r="3" fill="#9b59b6" stroke="none"/>
  <circle cx="572.9275" cy="337.5" r="3" fill="#9b59b6" stroke="none"/>
  <circle cx="493.5" cy="258.0725" r="3" fill="#9b59b6" stroke="none"/>
  <circle cx="385" cy="229" r="3" fill="#9b59b6" stroke="none"/>
  <circle cx="276.5" cy="258.0725" r="3" fill="#9b59b6" stroke="none"/>
  <circle cx="197.0725" cy="337.5" r="3" fill="#9b59b6" stroke="none"/>
  <circle cx="168" cy="446" r="3" fill="#9b59b6" stroke="none"/>
  <circle cx="197.0725" cy="554.5" r="3" fill="#9b59b6" stroke="none"/>
  <circle cx="276.5" cy="633.9275" r="3" fill="#9b59b6" stroke="none"/>
  <circle cx="385" cy="663" r="3" fill="#9b59b6" stroke="none"/>
  <circle cx="493.5" cy="633.9275" r="3" fill="#9b59b6" stroke="none"/>
  <circle cx="572.9275" cy="554.5" r="3" fill="#9b59b6" stroke="none"/>
  <text x="610" y="450" font-size="10" fill="#9b59b6">12D W9 crown</text>
</g>
</g>
</g>
  <g>
  <line x1="320" y1="623" x2="296.3425" y2="511.4817" stroke="#333" stroke-width="1.5"/>
  <g>
  <line x1="296.3425" y1="511.4817" x2="249.2192" y2="459.104" stroke="#333" stroke-width="1.5"/>
  <g>
  <line x1="249.2192" y1="459.104" x2="207.8117" y2="445.6316" stroke="#333" stroke-width="1.5"/>
  <g>
  <line x1="207.8117" y1="445.6316" x2="181.4858" y2="451.2164" stroke="#333" stroke-width="1.5"/>
  <g>
  <line x1="181.4858" y1="451.2164" x2="169.1211" y2="462.3407" stroke="#333" stroke-width="1.5"/>
  <g>
  <line x1="169.1211" y1="462.3407" x2="165.9407" y2="472.1157" stroke="#333" stroke-width="1.5"/>
  <g>
  <line x1="165.9407" y1="472.1157" x2="167.2591" y2="478.3304" stroke="#333" stroke-width="1.5"/>
</g>
  <g>
  <line x1="165.9407" y1="472.1157" x2="161.2178" y2="476.3648" stroke="#333" stroke-width="1.5"/>
</g>
</g>
  <g>
  <line x1="169.1211" y1="462.3407" x2="159.0655" y2="464.4739" stroke="#333" stroke-width="1.5"/>
  <g>
  <line x1="159.0655" y1="464.4739" x2="154.3426" y2="468.723" stroke="#333" stroke-width="1.5"/>
</g>
  <g>
  <line x1="159.0655" y1="464.4739" x2="153.0242" y2="462.5083" stroke="#333" stroke-width="1.5"/>
</g>
</g>
</g>
  <g>
  <line x1="181.4858" y1="451.2164" x2="165.6695" y2="446.0704" stroke="#333" stroke-width="1.5"/>
  <g>
  <line x1="165.6695" y1="446.0704" x2="155.6139" y2="448.2036" stroke="#333" stroke-width="1.5"/>
  <g>
  <line x1="155.6139" y1="448.2036" x2="150.891" y2="452.4527" stroke="#333" stroke-width="1.5"/>
</g>
  <g>
  <line x1="155.6139" y1="448.2036" x2="149.5726" y2="446.238" stroke="#333" stroke-width="1.5"/>
</g>
</g>
  <g>
  <line x1="165.6695" y1="446.0704" x2="158.7943" y2="438.4286" stroke="#333" stroke-width="1.5"/>
  <g>
  <line x1="158.7943" y1="438.4286" x2="152.753" y2="436.463" stroke="#333" stroke-width="1.5"/>
</g>
  <g>
  <line x1="158.7943" y1="438.4286" x2="157.4759" y2="432.2139" stroke="#333" stroke-width="1.5"/>
</g>
</g>
</g>
</g>
  <g>
  <line x1="207.8117" y1="445.6316" x2="189.8122" y2="425.6251" stroke="#333" stroke-width="1.5"/>
  <g>
  <line x1="189.8122" y1="425.6251" x2="173.9959" y2="420.4791" stroke="#333" stroke-width="1.5"/>
  <g>
  <line x1="173.9959" y1="420.4791" x2="163.9403" y2="422.6123" stroke="#333" stroke-width="1.5"/>
  <g>
  <line x1="163.9403" y1="422.6123" x2="159.2174" y2="426.8614" stroke="#333" stroke-width="1.5"/>
</g>
  <g>
  <line x1="163.9403" y1="422.6123" x2="157.899" y2="420.6467" stroke="#333" stroke-width="1.5"/>
</g>
</g>
  <g>
  <line x1="173.9959" y1="420.4791" x2="167.1207" y2="412.8373" stroke="#333" stroke-width="1.5"/>
  <g>
  <line x1="167.1207" y1="412.8373" x2="161.0794" y2="410.8717" stroke="#333" stroke-width="1.5"/>
</g>
  <g>
  <line x1="167.1207" y1="412.8373" x2="165.8023" y2="406.6226" stroke="#333" stroke-width="1.5"/>
</g>
</g>
</g>
  <g>
  <line x1="189.8122" y1="425.6251" x2="186.3606" y2="409.3548" stroke="#333" stroke-width="1.5"/>
  <g>
  <line x1="186.3606" y1="409.3548" x2="179.4854" y2="401.713" stroke="#333" stroke-width="1.5"/>
  <g>
  <line x1="179.4854" y1="401.713" x2="173.4441" y2="399.7474" stroke="#333" stroke-width="1.5"/>
</g>
  <g>
  <line x1="179.4854" y1="401.713" x2="178.167" y2="395.4983" stroke="#333" stroke-width="1.5"/>
</g>
</g>
  <g>
  <line x1="186.3606" y1="409.3548" x2="189.541" y2="399.5798" stroke="#333" stroke-width="1.5"/>
  <g>
  <line x1="189.541" y1="399.5798" x2="188.2226" y2="393.3651" stroke="#333" stroke-width="1.5"/>
</g>
  <g>
  <line x1="189.541" y1="399.5798" x2="194.2639" y2="395.3307" stroke="#333" stroke-width="1.5"/>
</g>
</g>
</g>
</g>
</g>
  <g>
  <line x1="249.2192" y1="459.104" x2="240.1829" y2="416.5078" stroke="#333" stroke-width="1.5"/>
  <g>
  <line x1="240.1829" y1="416.5078" x2="222.1834" y2="396.5013" stroke="#333" stroke-width="1.5"/>
  <g>
  <line x1="222.1834" y1="396.5013" x2="206.3671" y2="391.3553" stroke="#333" stroke-width="1.5"/>
  <g>
  <line x1="206.3671" y1="391.3553" x2="196.3115" y2="393.4885" stroke="#333" stroke-width="1.5"/>
  <g>
  <line x1="196.3115" y1="393.4885" x2="191.5886" y2="397.7376" stroke="#333" stroke-width="1.5"/>
</g>
  <g>
  <line x1="196.3115" y1="393.4885" x2="190.2702" y2="391.5229" stroke="#333" stroke-width="1.5"/>
</g>
</g>
  <g>
  <line x1="206.3671" y1="391.3553" x2="199.4919" y2="383.7135" stroke="#333" stroke-width="1.5"/>
  <g>
  <line x1="199.4919" y1="383.7135" x2="193.4506" y2="381.7479" stroke="#333" stroke-width="1.5"/>
</g>
  <g>
  <line x1="199.4919" y1="383.7135" x2="198.1735" y2="377.4988" stroke="#333" stroke-width="1.5"/>
</g>
</g>
</g>
  <g>
  <line x1="222.1834" y1="396.5013" x2="218.7318" y2="380.231" stroke="#333" stroke-width="1.5"/>
  <g>
  <line x1="218.7318" y1="380.231" x2="211.8566" y2="372.5892" stroke="#333" stroke-width="1.5"/>
  <g>
  <line x1="211.8566" y1="372.5892" x2="205.8153" y2="370.6236" stroke="#333" stroke-width="1.5"/>
</g>
  <g>
  <line x1="211.8566" y1="372.5892" x2="210.5382" y2="366.3745" stroke="#333" stroke-width="1.5"/>
</g>
</g>
  <g>
  <line x1="218.7318" y1="380.231" x2="221.9122" y2="370.456" stroke="#333" stroke-width="1.5"/>
  <g>
  <line x1="221.9122" y1="370.456" x2="220.5938" y2="364.2413" stroke="#333" stroke-width="1.5"/>
</g>
  <g>
  <line x1="221.9122" y1="370.456" x2="226.6351" y2="366.2069" stroke="#333" stroke-width="1.5"/>
</g>
</g>
</g>
</g>
  <g>
  <line x1="240.1829" y1="416.5078" x2="248.5093" y2="390.9166" stroke="#333" stroke-width="1.5"/>
  <g>
  <line x1="248.5093" y1="390.9166" x2="245.0577" y2="374.6463" stroke="#333" stroke-width="1.5"/>
  <g>
  <line x1="245.0577" y1="374.6463" x2="238.1825" y2="367.0045" stroke="#333" stroke-width="1.5"/>
  <g>
  <line x1="238.1825" y1="367.0045" x2="232.1412" y2="365.0389" stroke="#333" stroke-width="1.5"/>
</g>
  <g>
  <line x1="238.1825" y1="367.0045" x2="236.8641" y2="360.7898" stroke="#333" stroke-width="1.5"/>
</g>
</g>
  <g>
  <line x1="245.0577" y1="374.6463" x2="248.2381" y2="364.8713" stroke="#333" stroke-width="1.5"/>
  <g>
  <line x1="248.2381" y1="364.8713" x2="246.9197" y2="358.6566" stroke="#333" stroke-width="1.5"/>
</g>
  <g>
  <line x1="248.2381" y1="364.8713" x2="252.961" y2="360.6222" stroke="#333" stroke-width="1.5"/>
</g>
</g>
</g>
  <g>
  <line x1="248.5093" y1="390.9166" x2="260.874" y2="379.7923" stroke="#333" stroke-width="1.5"/>
  <g>
  <line x1="260.874" y1="379.7923" x2="264.0544" y2="370.0173" stroke="#333" stroke-width="1.5"/>
  <g>
  <line x1="264.0544" y1="370.0173" x2="262.736" y2="363.8026" stroke="#333" stroke-width="1.5"/>
</g>
  <g>
  <line x1="264.0544" y1="370.0173" x2="268.7773" y2="365.7682" stroke="#333" stroke-width="1.5"/>
</g>
</g>
  <g>
  <line x1="260.874" y1="379.7923" x2="270.9296" y2="377.6591" stroke="#333" stroke-width="1.5"/>
  <g>
  <line x1="270.9296" y1="377.6591" x2="275.6525" y2="373.41" stroke="#333" stroke-width="1.5"/>
</g>
  <g>
  <line x1="270.9296" y1="377.6591" x2="276.9708" y2="379.6247" stroke="#333" stroke-width="1.5"/>
</g>
</g>
</g>
</g>
</g>
</g>
  <g>
  <line x1="296.3425" y1="511.4817" x2="318.1413" y2="444.4829" stroke="#333" stroke-width="1.5"/>
  <g>
  <line x1="318.1413" y1="444.4829" x2="309.105" y2="401.8867" stroke="#333" stroke-width="1.5"/>
  <g>
  <line x1="309.105" y1="401.8867" x2="291.1055" y2="381.8802" stroke="#333" stroke-width="1.5"/>
  <g>
  <line x1="291.1055" y1="381.8802" x2="275.2892" y2="376.7342" stroke="#333" stroke-width="1.5"/>
  <g>
  <line x1="275.2892" y1="376.7342" x2="265.2336" y2="378.8674" stroke="#333" stroke-width="1.5"/>
  <g>
  <line x1="265.2336" y1="378.8674" x2="260.5107" y2="383.1165" stroke="#333" stroke-width="1.5"/>
</g>
  <g>
  <line x1="265.2336" y1="378.8674" x2="259.1923" y2="376.9018" stroke="#333" stroke-width="1.5"/>
</g>
</g>
  <g>
  <line x1="275.2892" y1="376.7342" x2="268.414" y2="369.0924" stroke="#333" stroke-width="1.5"/>
  <g>
  <line x1="268.414" y1="369.0924" x2="262.3727" y2="367.1268" stroke="#333" stroke-width="1.5"/>
</g>
  <g>
  <line x1="268.414" y1="369.0924" x2="267.0956" y2="362.8777" stroke="#333" stroke-width="1.5"/>
</g>
</g>
</g>
  <g>
  <line x1="291.1055" y1="381.8802" x2="287.6539" y2="365.6099" stroke="#333" stroke-width="1.5"/>
  <g>
  <line x1="287.6539" y1="365.6099" x2="280.7787" y2="357.9681" stroke="#333" stroke-width="1.5"/>
  <g>
  <line x1="280.7787" y1="357.9681" x2="274.7374" y2="356.0025" stroke="#333" stroke-width="1.5"/>
</g>
  <g>
  <line x1="280.7787" y1="357.9681" x2="279.4603" y2="351.7534" stroke="#333" stroke-width="1.5"/>
</g>
</g>
  <g>
  <line x1="287.6539" y1="365.6099" x2="290.8343" y2="355.8349" stroke="#333" stroke-width="1.5"/>
  <g>
  <line x1="290.8343" y1="355.8349" x2="289.5159" y2="349.6202" stroke="#333" stroke-width="1.5"/>
</g>
  <g>
  <line x1="290.8343" y1="355.8349" x2="295.5572" y2="351.5858" stroke="#333" stroke-width="1.5"/>
</g>
</g>
</g>
</g>
  <g>
  <line x1="309.105" y1="401.8867" x2="317.4313" y2="376.2954" stroke="#333" stroke-width="1.5"/>
  <g>
  <line x1="317.4313" y1="376.2954" x2="313.9798" y2="360.0251" stroke="#333" stroke-width="1.5"/>
  <g>
  <line x1="313.9798" y1="360.0251" x2="307.1046" y2="352.3833" stroke="#333" stroke-width="1.5"/>
  <g>
  <line x1="307.1046" y1="352.3833" x2="301.0633" y2="350.4177" stroke="#333" stroke-width="1.5"/>
</g>
  <g>
  <line x1="307.1046" y1="352.3833" x2="305.7862" y2="346.1686" stroke="#333" stroke-width="1.5"/>
</g>
</g>
  <g>
  <line x1="313.9798" y1="360.0251" x2="317.1602" y2="350.2501" stroke="#333" stroke-width="1.5"/>
  <g>
  <line x1="317.1602" y1="350.2501" x2="315.8418" y2="344.0354" stroke="#333" stroke-width="1.5"/>
</g>
  <g>
  <line x1="317.1602" y1="350.2501" x2="321.8831" y2="346.001" stroke="#333" stroke-width="1.5"/>
</g>
</g>
</g>
  <g>
  <line x1="317.4313" y1="376.2954" x2="329.796" y2="365.1711" stroke="#333" stroke-width="1.5"/>
  <g>
  <line x1="329.796" y1="365.1711" x2="332.9764" y2="355.3961" stroke="#333" stroke-width="1.5"/>
  <g>
  <line x1="332.9764" y1="355.3961" x2="331.6581" y2="349.1814" stroke="#333" stroke-width="1.5"/>
</g>
  <g>
  <line x1="332.9764" y1="355.3961" x2="337.6993" y2="351.147" stroke="#333" stroke-width="1.5"/>
</g>
</g>
  <g>
  <line x1="329.796" y1="365.1711" x2="339.8516" y2="363.0379" stroke="#333" stroke-width="1.5"/>
  <g>
  <line x1="339.8516" y1="363.0379" x2="344.5745" y2="358.7888" stroke="#333" stroke-width="1.5"/>
</g>
  <g>
  <line x1="339.8516" y1="363.0379" x2="345.8929" y2="365.0035" stroke="#333" stroke-width="1.5"/>
</g>
</g>
</g>
</g>
</g>
  <g>
  <line x1="318.1413" y1="444.4829" x2="350.5125" y2="415.3591" stroke="#333" stroke-width="1.5"/>
  <g>
  <line x1="350.5125" y1="415.3591" x2="358.8389" y2="389.7678" stroke="#333" stroke-width="1.5"/>
  <g>
  <line x1="358.8389" y1="389.7678" x2="355.3873" y2="373.4975" stroke="#333" stroke-width="1.5"/>
  <g>
  <line x1="355.3873" y1="373.4975" x2="348.5121" y2="365.8557" stroke="#333" stroke-width="1.5"/>
  <g>
  <line x1="348.5121" y1="365.8557" x2="342.4708" y2="363.8901" stroke="#333" stroke-width="1.5"/>
</g>
  <g>
  <line x1="348.5121" y1="365.8557" x2="347.1937" y2="359.641" stroke="#333" stroke-width="1.5"/>
</g>
</g>
  <g>
  <line x1="355.3873" y1="373.4975" x2="358.5677" y2="363.7225" stroke="#333" stroke-width="1.5"/>
  <g>
  <line x1="358.5677" y1="363.7225" x2="357.2493" y2="357.5078" stroke="#333" stroke-width="1.5"/>
</g>
  <g>
  <line x1="358.5677" y1="363.7225" x2="363.2906" y2="359.4734" stroke="#333" stroke-width="1.5"/>
</g>
</g>
</g>
  <g>
  <line x1="358.8389" y1="389.7678" x2="371.2036" y2="378.6435" stroke="#333" stroke-width="1.5"/>
  <g>
  <line x1="371.2036" y1="378.6435" x2="374.384" y2="368.8685" stroke="#333" stroke-width="1.5"/>
  <g>
  <line x1="374.384" y1="368.8685" x2="373.0656" y2="362.6538" stroke="#333" stroke-width="1.5"/>
</g>
  <g>
  <line x1="374.384" y1="368.8685" x2="379.1069" y2="364.6194" stroke="#333" stroke-width="1.5"/>
</g>
</g>
  <g>
  <line x1="371.2036" y1="378.6435" x2="381.2592" y2="376.5103" stroke="#333" stroke-width="1.5"/>
  <g>
  <line x1="381.2592" y1="376.5103" x2="385.9821" y2="372.2612" stroke="#333" stroke-width="1.5"/>
</g>
  <g>
  <line x1="381.2592" y1="376.5103" x2="387.3005" y2="378.4759" stroke="#333" stroke-width="1.5"/>
</g>
</g>
</g>
</g>
  <g>
  <line x1="350.5125" y1="415.3591" x2="376.8384" y2="409.7743" stroke="#333" stroke-width="1.5"/>
  <g>
  <line x1="376.8384" y1="409.7743" x2="389.2031" y2="398.65" stroke="#333" stroke-width="1.5"/>
  <g>
  <line x1="389.2031" y1="398.65" x2="392.3835" y2="388.875" stroke="#333" stroke-width="1.5"/>
  <g>
  <line x1="392.3835" y1="388.875" x2="391.0651" y2="382.6603" stroke="#333" stroke-width="1.5"/>
</g>
  <g>
  <line x1="392.3835" y1="388.875" x2="397.1064" y2="384.6259" stroke="#333" stroke-width="1.5"/>
</g>
</g>
  <g>
  <line x1="389.2031" y1="398.65" x2="399.2587" y2="396.5168" stroke="#333" stroke-width="1.5"/>
  <g>
  <line x1="399.2587" y1="396.5168" x2="403.9816" y2="392.2677" stroke="#333" stroke-width="1.5"/>
</g>
  <g>
  <line x1="399.2587" y1="396.5168" x2="405.3" y2="398.4824" stroke="#333" stroke-width="1.5"/>
</g>
</g>
</g>
  <g>
  <line x1="376.8384" y1="409.7743" x2="392.6547" y2="414.9203" stroke="#333" stroke-width="1.5"/>
  <g>
  <line x1="392.6547" y1="414.9203" x2="402.7103" y2="412.7871" stroke="#333" stroke-width="1.5"/>
  <g>
  <line x1="402.7103" y1="412.7871" x2="407.4332" y2="408.538" stroke="#333" stroke-width="1.5"/>
</g>
  <g>
  <line x1="402.7103" y1="412.7871" x2="408.7516" y2="414.7527" stroke="#333" stroke-width="1.5"/>
</g>
</g>
  <g>
  <line x1="392.6547" y1="414.9203" x2="399.5299" y2="422.5621" stroke="#333" stroke-width="1.5"/>
  <g>
  <line x1="399.5299" y1="422.5621" x2="405.5712" y2="424.5277" stroke="#333" stroke-width="1.5"/>
</g>
  <g>
  <line x1="399.5299" y1="422.5621" x2="400.8483" y2="428.7768" stroke="#333" stroke-width="1.5"/>
</g>
</g>
</g>
</g>
</g>
</g>
</g>
</svg>