<svg xmlns="http://www.w3.org/2000/svg" width="800" height="800" viewBox="0 0 800 800">
  <g transform="rotate(96.6,400,400)">
  <g>
  <polygon points="361,266 353.4764,279.0312 368.5236,279.0312" fill="#333" stroke="none"/>
  <polygon points="353.4764,279.0312 345.9528,292.0625 361,292.0625" fill="#333" stroke="none"/>
  <polygon points="368.5236,279.0312 361,292.0625 376.0472,292.0625" fill="#333" stroke="none"/>
  <polygon points="345.9528,292.0625 338.4292,305.0938 353.4764,305.0938" fill="#333" stroke="none"/>
  <polygon points="338.4292,305.0938 330.9056,318.125 345.9528,318.125" fill="#333" stroke="none"/>
  <polygon points="353.4764,305.0938 345.9528,318.125 361,318.125" fill="#333" stroke="none"/>
  <polygon points="376.0472,292.0625 368.5236,305.0938 383.5708,305.0938" fill="#333" stroke="none"/>
  <polygon points="368.5236,305.0938 361,318.125 376.0472,318.125" fill="#333" stroke="none"/>
  <polygon points="383.5708,305.0938 376.0472,318.125 391.0944,318.125" fill="#333" stroke="none"/>
  <polygon points="330.9056,318.125 323.382,331.1562 338.4292,331.1562" fill="#333" stroke="none"/>
  <polygon points="323.382,331.1562 315.8584,344.1875 330.9056,344.1875" fill="#333" stroke="none"/>
  <polygon points="338.4292,331.1562 330.9056,344.1875 345.9528,344.1875" fill="#333" stroke="none"/>
  <polygon points="315.8584,344.1875 308.3348,357.2188 323.382,357.2188" fill="#333" stroke="none"/>
  <polygon points="308.3348,357.2188 300.8112,370.25 315.8584,370.25" fill="#333" stroke="none"/>
  <polygon points="323.382,357.2188 315.8584,370.25 330.9056,370.25" fill="#333" stroke="none"/>
  <polygon points="345.9528,344.1875 338.4292,357.2188 353.4764,357.2188" fill="#333" stroke="none"/>
  <polygon points="338.4292,357.2188 330.9056,370.25 345.9528,370.25" fill="#333" stroke="none"/>
  <polygon points="353.4764,357.2188 345.9528,370.25 361,370.25" fill="#333" stroke="none"/>
  <polygon points="391.0944,318.125 383.5708,331.1562 398.618,331.1562" fill="#333" stroke="none"/>
  <polygon points="383.5708,331.1562 376.0472,344.1875 391.0944,344.1875" fill="#333" stroke="none"/>
  <polygon points="398.618,331.1562 391.0944,344.1875 406.1416,344.1875" fill="#333" stroke="none"/>
  <polygon points="376.0472,344.1875 368.5236,357.2188 383.5708,357.2188" fill="#333" stroke="none"/>
  <polygon points="368.5236,357.2188 361,370.25 376.0472,370.25" fill="#333" stroke="none"/>
  <polygon points="383.5708,357.2188 376.0472,370.25 391.0944,370.25" fill="#333" stroke="none"/>
  <polygon points="406.1416,344.1875 398.618,357.2188 413.6652,357.2188" fill="#333" stroke="none"/>
  <polygon points="398.618,357.2188 391.0944,370.25 406.1416,370.25" fill="#333" stroke="none"/>
  <polygon points="413.6652,357.2188 406.1416,370.25 421.1888,370.25" fill="#333" stroke="none"/>
  <polygon points="300.8112,370.25 293.2876,383.2812 308.3348,383.2812" fill="#333" stroke="none"/>
  <polygon points="293.2876,383.2812 285.764,396.3125 300.8112,396.3125" fill="#333" stroke="none"/>
  <polygon points="308.3348,383.2812 300.8112,396.3125 315.8584,396.3125" fill="#333" stroke="none"/>
  <polygon points="285.764,396.3125 278.2404,409.3438 293.2876,409.3438" fill="#333" stroke="none"/>
  <polygon points="278.2404,409.3438 270.7169,422.375 285.764,422.375" fill="#333" stroke="none"/>
  <polygon points="293.2876,409.3438 285.764,422.375 300.8112,422.375" fill="#333" stroke="none"/>
  <polygon points="315.8584,396.3125 308.3348,409.3438 323.382,409.3438" fill="#333" stroke="none"/>
  <polygon points="308.3348,409.3438 300.8112,422.375 315.8584,422.375" fill="#333" stroke="none"/>
  <polygon points="323.382,409.3438 315.8584,422.375 330.9056,422.375" fill="#333" stroke="none"/>
  <polygon points="270.7169,422.375 263.1933,435.4062 278.2404,435.4062" fill="#333" stroke="none"/>
  <polygon points="263.1933,435.4062 255.6697,448.4375 270.7169,448.4375" fill="#333" stroke="none"/>
  <polygon points="278.2404,435.4062 270.7169,448.4375 285.764,448.4375" fill="#333" stroke="none"/>
  <polygon points="255.6697,448.4375 248.1461,461.4688 263.1933,461.4688" fill="#333" stroke="none"/>
  <polygon points="248.1461,461.4688 240.6225,474.5 255.6697,474.5" fill="#333" stroke="none"/>
  <polygon points="263.1933,461.4688 255.6697,474.5 270.7169,474.5" fill="#333" stroke="none"/>
  <polygon points="285.764,448.4375 278.2404,461.4688 293.2876,461.4688" fill="#333" stroke="none"/>
  <polygon points="278.2404,461.4688 270.7169,474.5 285.764,474.5" fill="#333" stroke="none"/>
  <polygon points="293.2876,461.4688 285.764,474.5 300.8112,474.5" fill="#333" stroke="none"/>
  <polygon points="330.9056,422.375 323.382,435.4062 338.4292,435.4062" fill="#333" stroke="none"/>
  <polygon points="323.382,435.4062 315.8584,448.4375 330.9056,448.4375" fill="#333" stroke="none"/>
  <polygon points="338.4292,435.4062 330.9056,448.4375 345.9528,448.4375" fill="#333" stroke="none"/>
  <polygon points="315.8584,448.4375 308.3348,461.4688 323.382,461.4688" fill="#333" stroke="none"/>
  <polygon points="308.3348,461.4688 300.8112,474.5 315.8584,474.5" fill="#333" stroke="none"/>
  <polygon points="323.382,461.4688 315.8584,474.5 330.9056,474.5" fill="#333" stroke="none"/>
  <polygon points="345.9528,448.4375 338.4292,461.4688 353.4764,461.4688" fill="#333" stroke="none"/>
  <polygon points="338.4292,461.4688 330.9056,474.5 345.9528,474.5" fill="#333" stroke="none"/>
  <polygon points="353.4764,461.4688 345.9528,474.5 361,474.5" fill="#333" stroke="none"/>
  <polygon points="421.1888,370.25 413.6652,383.2812 428.7124,383.2812" fill="#333" stroke="none"/>
  <polygon points="413.6652,383.2812 406.1416,396.3125 421.1888,396.3125" fill="#333" stroke="none"/>
  <polygon points="428.7124,383.2812 421.1888,396.3125 436.236,396.3125" fill="#333" stroke="none"/>
  <polygon points="406.1416,396.3125 398.618,409.3438 413.6652,409.3438" fill="#333" stroke="none"/>
  <polygon points="398.618,409.3438 391.0944,422.375 406.1416,422.375" fill="#333" stroke="none"/>
  <polygon points="413.6652,409.3438 406.1416,422.375 421.1888,422.375" fill="#333" stroke="none"/>
  <polygon points="436.236,396.3125 428.7124,409.3438 443.7596,409.3438" fill="#333" stroke="none"/>
  <polygon points="428.7124,409.3438 421.1888,422.375 436.236,422.375" fill="#333" stroke="none"/>
  <polygon points="443.7596,409.3438 436.236,422.375 451.2831,422.375" fill="#333" stroke="none"/>
  <polygon points="391.0944,422.375 383.5708,435.4062 398.618,435.4062" fill="#333" stroke="none"/>
  <polygon points="383.5708,435.4062 376.0472,448.4375 391.0944,448.4375" fill="#333" stroke="none"/>
  <polygon points="398.618,435.4062 391.0944,448.4375 406.1416,448.4375" fill="#333" stroke="none"/>
  <polygon points="376.0472,448.4375 368.5236,461.4688 383.5708,461.4688" fill="#333" stroke="none"/>
  <polygon points="368.5236,461.4688 361,474.5 376.0472,474.5" fill="#333" stroke="none"/>
  <polygon points="383.5708,461.4688 376.0472,474.5 391.0944,474.5" fill="#333" stroke="none"/>
  <polygon points="406.1416,448.4375 398.618,461.4688 413.6652,461.4688" fill="#333" stroke="none"/>
  <polygon points="398.618,461.4688 391.0944,474.5 406.1416,474.5" fill="#333" stroke="none"/>
  <polygon points="413.6652,461.4688 406.1416,474.5 421.1888,474.5" fill="#333" stroke="none"/>
  <polygon points="451.2831,422.375 443.7596,435.4062 458.8067,435.4062" fill="#333" stroke="none"/>
  <polygon points="443.7596,435.4062 436.236,448.4375 451.2831,448.4375" fill="#333" stroke="none"/>
  <polygon points="458.8067,435.4062 451.2831,448.4375 466.3303,448.4375" fill="#333" stroke="none"/>
  <polygon points="436.236,448.4375 428.7124,461.4688 443.7596,461.4688" fill="#333" stroke="none"/>
  <polygon points="428.7124,461.4688 421.1888,474.5 436.236,474.5" fill="#333" stroke="none"/>
  <polygon points="443.7596,461.4688 436.236,474.5 451.2831,474.5" fill="#333" stroke="none"/>
  <polygon points="466.3303,448.4375 458.8067,461.4688 473.8539,461.4688" fill="#333" stroke="none"/>
  <polygon points="458.8067,461.4688 451.2831,474.5 466.3303,474.5" fill="#333" stroke="none"/>
  <polygon points="473.8539,461.4688 466.3303,474.5 481.3775,474.5" fill="#333" stroke="none"/>
</g>
</g>
  <g transform="rotate(96.6,400,400)">
  <g>
  <polygon points="356,206 351.9946,212.9375 360.0054,212.9375" fill="#333" stroke="none"/>
  <polygon points="351.9946,212.9375 347.9893,219.875 356,219.875" fill="#333" stroke="none"/>
  <polygon points="360.0054,212.9375 356,219.875 364.0107,219.875" fill="#333" stroke="none"/>
  <polygon points="347.9893,219.875 343.9839,226.8125 351.9946,226.8125" fill="#333" stroke="none"/>
  <polygon points="343.9839,226.8125 339.9785,233.75 347.9893,233.75" fill="#333" stroke="none"/>
  <polygon points="351.9946,226.8125 347.9893,233.75 356,233.75" fill="#333" stroke="none"/>
  <polygon points="364.0107,219.875 360.0054,226.8125 368.0161,226.8125" fill="#333" stroke="none"/>
  <polygon points="360.0054,226.8125 356,233.75 364.0107,233.75" fill="#333" stroke="none"/>
  <polygon points="368.0161,226.8125 364.0107,233.75 372.0215,233.75" fill="#333" stroke="none"/>
  <polygon points="339.9785,233.75 335.9732,240.6875 343.9839,240.6875" fill="#333" stroke="none"/>
  <polygon points="335.9732,240.6875 331.9678,247.625 339.9785,247.625" fill="#333" stroke="none"/>
  <polygon points="343.9839,240.6875 339.9785,247.625 347.9893,247.625" fill="#333" stroke="none"/>
  <polygon points="331.9678,247.625 327.9624,254.5625 335.9732,254.5625" fill="#333" stroke="none"/>
  <polygon points="327.9624,254.5625 323.9571,261.5 331.9678,261.5" fill="#333" stroke="none"/>
  <polygon points="335.9732,254.5625 331.9678,261.5 339.9785,261.5" fill="#333" stroke="none"/>
  <polygon points="347.9893,247.625 343.9839,254.5625 351.9946,254.5625" fill="#333" stroke="none"/>
  <polygon points="343.9839,254.5625 339.9785,261.5 347.9893,261.5" fill="#333" stroke="none"/>
  <polygon points="351.9946,254.5625 347.9893,261.5 356,261.5" fill="#333" stroke="none"/>
  <polygon points="372.0215,233.75 368.0161,240.6875 376.0268,240.6875" fill="#333" stroke="none"/>
  <polygon points="368.0161,240.6875 364.0107,247.625 372.0215,247.625" fill="#333" stroke="none"/>
  <polygon points="376.0268,240.6875 372.0215,247.625 380.0322,247.625" fill="#333" stroke="none"/>
  <polygon points="364.0107,247.625 360.0054,254.5625 368.0161,254.5625" fill="#333" stroke="none"/>
  <polygon points="360.0054,254.5625 356,261.5 364.0107,261.5" fill="#333" stroke="none"/>
  <polygon points="368.0161,254.5625 364.0107,261.5 372.0215,261.5" fill="#333" stroke="none"/>
  <polygon points="380.0322,247.625 376.0268,254.5625 384.0376,254.5625" fill="#333" stroke="none"/>
  <polygon points="376.0268,254.5625 372.0215,261.5 380.0322,261.5" fill="#333" stroke="none"/>
  <polygon points="384.0376,254.5625 380.0322,261.5 388.0429,261.5" fill="#333" stroke="none"/>
  <polygon points="323.9571,261.5 319.9517,268.4375 327.9624,268.4375" fill="#333" stroke="none"/>
  <polygon points="319.9517,268.4375 315.9463,275.375 323.9571,275.375" fill="#333" stroke="none"/>
  <polygon points="327.9624,268.4375 323.9571,275.375 331.9678,275.375" fill="#333" stroke="none"/>
  <polygon points="315.9463,275.375 311.941,282.3125 319.9517,282.3125" fill="#333" stroke="none"/>
  <polygon points="311.941,282.3125 307.9356,289.25 315.9463,289.25" fill="#333" stroke="none"/>
  <polygon points="319.9517,282.3125 315.9463,289.25 323.9571,289.25" fill="#333" stroke="none"/>
  <polygon points="331.9678,275.375 327.9624,282.3125 335.9732,282.3125" fill="#333" stroke="none"/>
  <polygon points="327.9624,282.3125 323.9571,289.25 331.9678,289.25" fill="#333" stroke="none"/>
  <polygon points="335.9732,282.3125 331.9678,289.25 339.9785,289.25" fill="#333" stroke="none"/>
  <polygon points="307.9356,289.25 303.9302,296.1875 311.941,296.1875" fill="#333" stroke="none"/>
  <polygon points="303.9302,296.1875 299.9249,303.125 307.9356,303.125" fill="#333" stroke="none"/>
  <polygon points="311.941,296.1875 307.9356,303.125 315.9463,303.125" fill="#333" stroke="none"/>
  <polygon points="299.9249,303.125 295.9195,310.0625 303.9302,310.0625" fill="#333" stroke="none"/>
  <polygon points="295.9195,310.0625 291.9141,317 299.9249,317" fill="#333" stroke="none"/>
  <polygon points="303.9302,310.0625 299.9249,317 307.9356,317" fill="#333" stroke="none"/>
  <polygon points="315.9463,303.125 311.941,310.0625 319.9517,310.0625" fill="#333" stroke="none"/>
  <polygon points="311.941,310.0625 307.9356,317 315.9463,317" fill="#333" stroke="none"/>
  <polygon points="319.9517,310.0625 315.9463,317 323.9571,317" fill="#333" stroke="none"/>
  <polygon points="339.9785,289.25 335.9732,296.1875 343.9839,296.1875" fill="#333" stroke="none"/>
  <polygon points="335.9732,296.1875 331.9678,303.125 339.9785,303.125" fill="#333" stroke="none"/>
  <polygon points="343.9839,296.1875 339.9785,303.125 347.9893,303.125" fill="#333" stroke="none"/>
  <polygon points="331.9678,303.125 327.9624,310.0625 335.9732,310.0625" fill="#333" stroke="none"/>
  <polygon points="327.9624,310.0625 323.9571,317 331.9678,317" fill="#333" stroke="none"/>
  <polygon points="335.9732,310.0625 331.9678,317 339.9785,317" fill="#333" stroke="none"/>
  <polygon points="347.9893,303.125 343.9839,310.0625 351.9946,310.0625" fill="#333" stroke="none"/>
  <polygon points="343.9839,310.0625 339.9785,317 347.9893,317" fill="#333" stroke="none"/>
  <polygon points="351.9946,310.0625 347.9893,317 356,317" fill="#333" stroke="none"/>
  <polygon points="388.0429,261.5 384.0376,268.4375 392.0483,268.4375" fill="#333" stroke="none"/>
  <polygon points="384.0376,268.4375 380.0322,275.375 388.0429,275.375" fill="#333" stroke="none"/>
  <polygon points="392.0483,268.4375 388.0429,275.375 396.0537,275.375" fill="#333" stroke="none"/>
  <polygon points="380.0322,275.375 376.0268,282.3125 384.0376,282.3125" fill="#333" stroke="none"/>
  <polygon points="376.0268,282.3125 372.0215,289.25 380.0322,289.25" fill="#333" stroke="none"/>
  <polygon points="384.0376,282.3125 380.0322,289.25 388.0429,289.25" fill="#333" stroke="none"/>
  <polygon points="396.0537,275.375 392.0483,282.3125 400.059,282.3125" fill="#333" stroke="none"/>
  <polygon points="392.0483,282.3125 388.0429,289.25 396.0537,289.25" fill="#333" stroke="none"/>
  <polygon points="400.059,282.3125 396.0537,289.25 404.0644,289.25" fill="#333" stroke="none"/>
  <polygon points="372.0215,289.25 368.0161,296.1875 376.0268,296.1875" fill="#333" stroke="none"/>
  <polygon points="368.0161,296.1875 364.0107,303.125 372.0215,303.125" fill="#333" stroke="none"/>
  <polygon points="376.0268,296.1875 372.0215,303.125 380.0322,303.125" fill="#333" stroke="none"/>
  <polygon points="364.0107,303.125 360.0054,310.0625 368.0161,310.0625" fill="#333" stroke="none"/>
  <polygon points="360.0054,310.0625 356,317 364.0107,317" fill="#333" stroke="none"/>
  <polygon points="368.0161,310.0625 364.0107,317 372.0215,317" fill="#333" stroke="none"/>
  <polygon points="380.0322,303.125 376.0268,310.0625 384.0376,310.0625" fill="#333" stroke="none"/>
  <polygon points="376.0268,310.0625 372.0215,317 380.0322,317" fill="#333" stroke="none"/>
  <polygon points="384.0376,310.0625 380.0322,317 388.0429,317" fill="#333" stroke="none"/>
  <polygon points="404.0644,289.25 400.059,296.1875 408.0698,296.1875" fill="#333" stroke="none"/>
  <polygon points="400.059,296.1875 396.0537,303.125 404.0644,303.125" fill="#333" stroke="none"/>
  <polygon points="408.0698,296.1875 404.0644,303.125 412.0751,303.125" fill="#333" stroke="none"/>
  <polygon points="396.0537,303.125 392.0483,310.0625 400.059,310.0625" fill="#333" stroke="none"/>
  <polygon points="392.0483,310.0625 388.0429,317 396.0537,317" fill="#333" stroke="none"/>
  <polygon points="400.059,310.0625 396.0537,317 404.0644,317" fill="#333" stroke="none"/>
  <polygon points="412.0751,303.125 408.0698,310.0625 416.0805,310.0625" fill="#333" stroke="none"/>
  <polygon points="408.0698,310.0625 404.0644,317 412.0751,317" fill="#333" stroke="none"/>
  <polygon points="416.0805,310.0625 412.0751,317 420.0859,317" fill="#333" stroke="none"/>
  <polygon points="291.9141,317 287.9088,323.9375 295.9195,323.9375" fill="#333" stroke="none"/>
  <polygon points="287.9088,323.9375 283.9034,330.875 291.9141,330.875" fill="#333" stroke="none"/>
  <polygon points="295.9195,323.9375 291.9141,330.875 299.9249,330.875" fill="#333" stroke="none"/>
  <polygon points="283.9034,330.875 279.898,337.8125 287.9088,337.8125" fill="#333" stroke="none"/>
  <polygon points="279.898,337.8125 275.8927,344.75 283.9034,344.75" fill="#333" stroke="none"/>
  <polygon points="287.9088,337.8125 283.9034,344.75 291.9141,344.75" fill="#333" stroke="none"/>
  <polygon points="299.9249,330.875 295.9195,337.8125 303.9302,337.8125" fill="#333" stroke="none"/>
  <polygon points="295.9195,337.8125 291.9141,344.75 299.9249,344.75" fill="#333" stroke="none"/>
  <polygon points="303.9302,337.8125 299.9249,344.75 307.9356,344.75" fill="#333" stroke="none"/>
  <polygon points="275.8927,344.75 271.8873,351.6875 279.898,351.6875" fill="#333" stroke="none"/>
  <polygon points="271.8873,351.6875 267.8819,358.625 275.8927,358.625" fill="#333" stroke="none"/>
  <polygon points="279.898,351.6875 275.8927,358.625 283.9034,358.625" fill="#333" stroke="none"/>
  <polygon points="267.8819,358.625 263.8765,365.5625 271.8873,365.5625" fill="#333" stroke="none"/>
  <polygon points="263.8765,365.5625 259.8712,372.5 267.8819,372.5" fill="#333" stroke="none"/>
  <polygon points="271.8873,365.5625 267.8819,372.5 275.8927,372.5" fill="#333" stroke="none"/>
  <polygon points="283.9034,358.625 279.898,365.5625 287.9088,365.5625" fill="#333" stroke="none"/>
  <polygon points="279.898,365.5625 275.8927,372.5 283.9034,372.5" fill="#333" stroke="none"/>
  <polygon points="287.9088,365.5625 283.9034,372.5 291.9141,372.5" fill="#333" stroke="none"/>
  <polygon points="307.9356,344.75 303.9302,351.6875 311.941,351.6875" fill="#333" stroke="none"/>
  <polygon points="303.9302,351.6875 299.9249,358.625 307.9356,358.625" fill="#333" stroke="none"/>
  <polygon points="311.941,351.6875 307.9356,358.625 315.9463,358.625" fill="#333" stroke="none"/>
  <polygon points="299.9249,358.625 295.9195,365.5625 303.9302,365.5625" fill="#333" stroke="none"/>
  <polygon points="295.9195,365.5625 291.9141,372.5 299.9249,372.5" fill="#333" stroke="none"/>
  <polygon points="303.9302,365.5625 299.9249,372.5 307.9356,372.5" fill="#333" stroke="none"/>
  <polygon points="315.9463,358.625 311.941,365.5625 319.9517,365.5625" fill="#333" stroke="none"/>
  <polygon points="311.941,365.5625 307.9356,372.5 315.9463,372.5" fill="#333" stroke="none"/>
  <polygon points="319.9517,365.5625 315.9463,372.5 323.9571,372.5" fill="#333" stroke="none"/>
  <polygon points="259.8712,372.5 255.8658,379.4375 263.8765,379.4375" fill="#333" stroke="none"/>
  <polygon points="255.8658,379.4375 251.8604,386.375 259.8712,386.375" fill="#333" stroke="none"/>
  <polygon points="263.8765,379.4375 259.8712,386.375 267.8819,386.375" fill="#333" stroke="none"/>
  <polygon points="251.8604,386.375 247.8551,393.3125 255.8658,393.3125" fill="#333" stroke="none"/>
  <polygon points="247.8551,393.3125 243.8497,400.25 251.8604,400.25" fill="#333" stroke="none"/>
  <polygon points="255.8658,393.3125 251.8604,400.25 259.8712,400.25" fill="#333" stroke="none"/>
  <polygon points="267.8819,386.375 263.8765,393.3125 271.8873,393.3125" fill="#333" stroke="none"/>
  <polygon points="263.8765,393.3125 259.8712,400.25 267.8819,400.25" fill="#333" stroke="none"/>
  <polygon points="271.8873,393.3125 267.8819,400.25 275.8927,400.25" fill="#333" stroke="none"/>
  <polygon points="243.8497,400.25 239.8443,407.1875 247.8551,407.1875" fill="#333" stroke="none"/>
  <polygon points="239.8443,407.1875 235.839,414.125 243.8497,414.125" fill="#333" stroke="none"/>
  <polygon points="247.8551,407.1875 243.8497,414.125 251.8604,414.125" fill="#333" stroke="none"/>
  <polygon points="235.839,414.125 231.8336,421.0625 239.8443,421.0625" fill="#333" stroke="none"/>
  <polygon points="231.8336,421.0625 227.8282,428 235.839,428" fill="#333" stroke="none"/>
  <polygon points="239.8443,421.0625 235.839,428 243.8497,428" fill="#333" stroke="none"/>
  <polygon points="251.8604,414.125 247.8551,421.0625 255.8658,421.0625" fill="#333" stroke="none"/>
  <polygon points="247.8551,421.0625 243.8497,428 251.8604,428" fill="#333" stroke="none"/>
  <polygon points="255.8658,421.0625 251.8604,428 259.8712,428" fill="#333" stroke="none"/>
  <polygon points="275.8927,400.25 271.8873,407.1875 279.898,407.1875" fill="#333" stroke="none"/>
  <polygon points="271.8873,407.1875 267.8819,414.125 275.8927,414.125" fill="#333" stroke="none"/>
  <polygon points="279.898,407.1875 275.8927,414.125 283.9034,414.125" fill="#333" stroke="none"/>
  <polygon points="267.8819,414.125 263.8765,421.0625 271.8873,421.0625" fill="#333" stroke="none"/>
  <polygon points="263.8765,421.0625 259.8712,428 267.8819,428" fill="#333" stroke="none"/>
  <polygon points="271.8873,421.0625 267.8819,428 275.8927,428" fill="#333" stroke="none"/>
  <polygon points="283.9034,414.125 279.898,421.0625 287.9088,421.0625" fill="#333" stroke="none"/>
  <polygon points="279.898,421.0625 275.8927,428 283.9034,428" fill="#333" stroke="none"/>
  <polygon points="287.9088,421.0625 283.9034,428 291.9141,428" fill="#333" stroke="none"/>
  <polygon points="323.9571,372.5 319.9517,379.4375 327.9624,379.4375" fill="#333" stroke="none"/>
  <polygon points="319.9517,379.4375 315.9463,386.375 323.9571,386.375" fill="#333" stroke="none"/>
  <polygon points="327.9624,379.4375 323.9571,386.375 331.9678,386.375" fill="#333" stroke="none"/>
  <polygon points="315.9463,386.375 311.941,393.3125 319.9517,393.3125" fill="#333" stroke="none"/>
  <polygon points="311.941,393.3125 307.9356,400.25 315.9463,400.25" fill="#333" stroke="none"/>
  <polygon points="319.9517,393.3125 315.9463,400.25 323.9571,400.25" fill="#333" stroke="none"/>
  <polygon points="331.9678,386.375 327.9624,393.3125 335.9732,393.3125" fill="#333" stroke="none"/>
  <polygon points="327.9624,393.3125 323.9571,400.25 331.9678,400.25" fill="#333" stroke="none"/>
  <polygon points="335.9732,393.3125 331.9678,400.25 339.9785,400.25" fill="#333" stroke="none"/>
  <polygon points="307.9356,400.25 303.9302,407.1875 311.941,407.1875" fill="#333" stroke="none"/>
  <polygon points="303.9302,407.1875 299.9249,414.125 307.9356,414.125" fill="#333" stroke="none"/>
  <polygon points="311.941,407.1875 307.9356,414.125 315.9463,414.125" fill="#333" stroke="none"/>
  <polygon points="299.9249,414.125 295.9195,421.0625 303.9302,421.0625" fill="#333" stroke="none"/>
  <polygon points="295.9195,421.0625 291.9141,428 299.9249,428" fill="#333" stroke="none"/>
  <polygon points="303.9302,421.0625 299.9249,428 307.9356,428" fill="#333" stroke="none"/>
  <polygon points="315.9463,414.125 311.941,421.0625 319.9517,421.0625" fill="#333" stroke="none"/>
  <polygon points="311.941,421.0625 307.9356,428 315.9463,428" fill="#333" stroke="none"/>
  <polygon points="319.9517,421.0625 315.9463,428 323.9571,428" fill="#333" stroke="none"/>
  <polygon points="339.9785,400.25 335.9732,407.1875 343.9839,407.1875" fill="#333" stroke="none"/>
  <polygon points="335.9732,407.1875 331.9678,414.125 339.9785,414.125" fill="#333" stroke="none"/>
  <polygon points="343.9839,407.1875 339.9785,414.125 347.9893,414.125" fill="#333" stroke="none"/>
  <polygon points="331.9678,414.125 327.9624,421.0625 335.9732,421.0625" fill="#333" stroke="none"/>
  <polygon points="327.9624,421.0625 323.9571,428 331.9678,428" fill="#333" stroke="none"/>
  <polygon points="335.9732,421.0625 331.9678,428 339.9785,428" fill="#333" stroke="none"/>
  <polygon points="347.9893,414.125 343.9839,421.0625 351.9946,421.0625" fill="#333" stroke="none"/>
  <polygon points="343.9839,421.0625 339.9785,428 347.9893,428" fill="#333" stroke="none"/>
  <polygon points="351.9946,421.0625 347.9893,428 356,428" fill="#333" stroke="none"/>
  <polygon points="420.0859,317 416.0805,323.9375 424.0912,323.9375" fill="#333" stroke="none"/>
  <polygon points="416.0805,323.9375 412.0751,330.875 420.0859,330.875" fill="#333" stroke="none"/>
  <polygon points="424.0912,323.9375 420.0859,330.875 428.0966,330.875" fill="#333" stroke="none"/>
  <polygon points="412.0751,330.875 408.0698,337.8125 416.0805,337.8125" fill="#333" stroke="none"/>
  <polygon points="408.0698,337.8125 404.0644,344.75 412.0751,344.75" fill="#333" stroke="none"/>
  <polygon points="416.0805,337.8125 412.0751,344.75 420.0859,344.75" fill="#333" stroke="none"/>
  <polygon points="428.0966,330.875 424.0912,337.8125 432.102,337.8125" fill="#333" stroke="none"/>
  <polygon points="424.0912,337.8125 420.0859,344.75 428.0966,344.75" fill="#333" stroke="none"/>
  <polygon points="432.102,337.8125 428.0966,344.75 436.1073,344.75" fill="#333" stroke="none"/>
  <polygon points="404.0644,344.75 400.059,351.6875 408.0698,351.6875" fill="#333" stroke="none"/>
  <polygon points="400.059,351.6875 396.0537,358.625 404.0644,358.625" fill="#333" stroke="none"/>
  <polygon points="408.0698,351.6875 404.0644,358.625 412.0751,358.625" fill="#333" stroke="none"/>
  <polygon points="396.0537,358.625 392.0483,365.5625 400.059,365.5625" fill="#333" stroke="none"/>
  <polygon points="392.0483,365.5625 388.0429,372.5 396.0537,372.5" fill="#333" stroke="none"/>
  <polygon points="400.059,365.5625 396.0537,372.5 404.0644,372.5" fill="#333" stroke="none"/>
  <polygon points="412.0751,358.625 408.0698,365.5625 416.0805,365.5625" fill="#333" stroke="none"/>
  <polygon points="408.0698,365.5625 404.0644,372.5 412.0751,372.5" fill="#333" stroke="none"/>
  <polygon points="416.0805,365.5625 412.0751,372.5 420.0859,372.5" fill="#333" stroke="none"/>
  <polygon points="436.1073,344.75 432.102,351.6875 440.1127,351.6875" fill="#333" stroke="none"/>
  <polygon points="432.102,351.6875 428.0966,358.625 436.1073,358.625" fill="#333" stroke="none"/>
  <polygon points="440.1127,351.6875 436.1073,358.625 444.1181,358.625" fill="#333" stroke="none"/>
  <polygon points="428.0966,358.625 424.0912,365.5625 432.102,365.5625" fill="#333" stroke="none"/>
  <polygon points="424.0912,365.5625 420.0859,372.5 428.0966,372.5" fill="#333" stroke="none"/>
  <polygon points="432.102,365.5625 428.0966,372.5 436.1073,372.5" fill="#333" stroke="none"/>
  <polygon points="444.1181,358.625 440.1127,365.5625 448.1235,365.5625" fill="#333" stroke="none"/>
  <polygon points="440.1127,365.5625 436.1073,372.5 444.1181,372.5" fill="#333" stroke="none"/>
  <polygon points="448.1235,365.5625 444.1181,372.5 452.1288,372.5" fill="#333" stroke="none"/>
  <polygon points="388.0429,372.5 384.0376,379.4375 392.0483,379.4375" fill="#333" stroke="none"/>
  <polygon points="384.0376,379.4375 380.0322,386.375 388.0429,386.375" fill="#333" stroke="none"/>
  <polygon points="392.0483,379.4375 388.0429,386.375 396.0537,386.375" fill="#333" stroke="none"/>
  <polygon points="380.0322,386.375 376.0268,393.3125 384.0376,393.3125" fill="#333" stroke="none"/>
  <polygon points="376.0268,393.3125 372.0215,400.25 380.0322,400.25" fill="#333" stroke="none"/>
  <polygon points="384.0376,393.3125 380.0322,400.25 388.0429,400.25" fill="#333" stroke="none"/>
  <polygon points="396.0537,386.375 392.0483,393.3125 400.059,393.3125" fill="#333" stroke="none"/>
  <polygon points="392.0483,393.3125 388.0429,400.25 396.0537,400.25" fill="#333" stroke="none"/>
  <polygon points="400.059,393.3125 396.0537,400.25 404.0644,400.25" fill="#333" stroke="none"/>
  <polygon points="372.0215,400.25 368.0161,407.1875 376.0268,407.1875" fill="#333" stroke="none"/>
  <polygon points="368.0161,407.1875 364.0107,414.125 372.0215,414.125" fill="#333" stroke="none"/>
  <polygon points="376.0268,407.1875 372.0215,414.125 380.0322,414.125" fill="#333" stroke="none"/>
  <polygon points="364.0107,414.125 360.0054,421.0625 368.0161,421.0625" fill="#333" stroke="none"/>
  <polygon points="360.0054,421.0625 356,428 364.0107,428" fill="#333" stroke="none"/>
  <polygon points="368.0161,421.0625 364.0107,428 372.0215,428" fill="#333" stroke="none"/>
  <polygon points="380.0322,414.125 376.0268,421.0625 384.0376,421.0625" fill="#333" stroke="none"/>
  <polygon points="376.0268,421.0625 372.0215,428 380.0322,428" fill="#333" stroke="none"/>
  <polygon points="384.0376,421.0625 380.0322,428 388.0429,428" fill="#333" stroke="none"/>
  <polygon points="404.0644,400.25 400.059,407.1875 408.0698,407.1875" fill="#333" stroke="none"/>
  <polygon points="400.059,407.1875 396.0537,414.125 404.0644,414.125" fill="#333" stroke="none"/>
  <polygon points="408.0698,407.1875 404.0644,414.125 412.0751,414.125" fill="#333" stroke="none"/>
  <polygon points="396.0537,414.125 392.0483,421.0625 400.059,421.0625" fill="#333" stroke="none"/>
  <polygon points="392.0483,421.0625 388.0429,428 396.0537,428" fill="#333" stroke="none"/>
  <polygon points="400.059,421.0625 396.0537,428 404.0644,428" fill="#333" stroke="none"/>
  <polygon points="412.0751,414.125 408.0698,421.0625 416.0805,421.0625" fill="#333" stroke="none"/>
  <polygon points="408.0698,421.0625 404.0644,428 412.0751,428" fill="#333" stroke="none"/>
  <polygon points="416.0805,421.0625 412.0751,428 420.0859,428" fill="#333" stroke="none"/>
  <polygon points="452.1288,372.5 448.1235,379.4375 456.1342,379.4375" fill="#333" stroke="none"/>
  <polygon points="448.1235,379.4375 444.1181,386.375 452.1288,386.375" fill="#333" stroke="none"/>
  <polygon points="456.1342,379.4375 452.1288,386.375 460.1396,386.375" fill="#333" stroke="none"/>
  <polygon points="444.1181,386.375 440.1127,393.3125 448.1235,393.3125" fill="#333" stroke="none"/>
  <polygon points="440.1127,393.3125 436.1073,400.25 444.1181,400.25" fill="#333" stroke="none"/>
  <polygon points="448.1235,393.3125 444.1181,400.25 452.1288,400.25" fill="#333" stroke="none"/>
  <polygon points="460.1396,386.375 456.1342,393.3125 464.1449,393.3125" fill="#333" stroke="none"/>
  <polygon points="456.1342,393.3125 452.1288,400.25 460.1396,400.25" fill="#333" stroke="none"/>
  <polygon points="464.1449,393.3125 460.1396,400.25 468.1503,400.25" fill="#333" stroke="none"/>
  <polygon points="436.1073,400.25 432.102,407.1875 440.1127,407.1875" fill="#333" stroke="none"/>
  <polygon points="432.102,407.1875 428.0966,414.125 436.1073,414.125" fill="#333" stroke="none"/>
  <polygon points="440.1127,407.1875 436.1073,414.125 444.1181,414.125" fill="#333" stroke="none"/>
  <polygon points="428.0966,414.125 424.0912,421.0625 432.102,421.0625" fill="#333" stroke="none"/>
  <polygon points="424.0912,421.0625 420.0859,428 428.0966,428" fill="#333" stroke="none"/>
  <polygon points="432.102,421.0625 428.0966,428 436.1073,428" fill="#333" stroke="none"/>
  <polygon points="444.1181,414.125 440.1127,421.0625 448.1235,421.0625" fill="#333" stroke="none"/>
  <polygon points="440.1127,421.0625 436.1073,428 444.1181,428" fill="#333" stroke="none"/>
  <polygon points="448.1235,421.0625 444.1181,428 452.1288,428" fill="#333" stroke="none"/>
  <polygon points="468.1503,400.25 464.1449,407.1875 472.1557,407.1875" fill="#333" stroke="none"/>
  <polygon points="464.1449,407.1875 460.1396,414.125 468.1503,414.125" fill="#333" stroke="none"/>
  <polygon points="472.1557,407.1875 468.1503,414.125 476.161,414.125" fill="#333" stroke="none"/>
  <polygon points="460.1396,414.125 456.1342,421.0625 464.1449,421.0625" fill="#333" stroke="none"/>
  <polygon points="456.1342,421.0625 452.1288,428 460.1396,428" fill="#333" stroke="none"/>
  <polygon points="464.1449,421.0625 460.1396,428 468.1503,428" fill="#333" stroke="none"/>
  <polygon points="476.161,414.125 472.1557,421.0625 480.1664,421.0625" fill="#333" stroke="none"/>
  <polygon points="472.1557,421.0625 468.1503,428 476.161,428" fill="#333" stroke="none"/>
  <polygon points="480.1664,421.0625 476.161,428 484.1718,428" fill="#333" stroke="none"/>
</g>
</g>
  <g transform="rotate(96.6,400,400)">
  <g>
  <polygon points="361,239 356.9946,245.9375 365.0054,245.9375" fill="#333" stroke="none"/>
  <polygon points="356.9946,245.9375 352.9893,252.875 361,252.875" fill="#333" stroke="none"/>
  <polygon points="365.0054,245.9375 361,252.875 369.0107,252.875" fill="#333" stroke="none"/>
  <polygon points="352.9893,252.875 348.9839,259.8125 356.9946,259.8125" fill="#333" stroke="none"/>
  <polygon points="348.9839,259.8125 344.9785,266.75 352.9893,266.75" fill="#333" stroke="none"/>
  <polygon points="356.9946,259.8125 352.9893,266.75 361,266.75" fill="#333" stroke="none"/>
  <polygon points="369.0107,252.875 365.0054,259.8125 373.0161,259.8125" fill="#333" stroke="none"/>
  <polygon points="365.0054,259.8125 361,266.75 369.0107,266.75" fill="#333" stroke="none"/>
  <polygon points="373.0161,259.8125 369.0107,266.75 377.0215,266.75" fill="#333" stroke="none"/>
  <polygon points="344.9785,266.75 340.9732,273.6875 348.9839,273.6875" fill="#333" stroke="none"/>
  <polygon points="340.9732,273.6875 336.9678,280.625 344.9785,280.625" fill="#333" stroke="none"/>
  <polygon points="348.9839,273.6875 344.9785,280.625 352.9893,280.625" fill="#333" stroke="none"/>
  <polygon points="336.9678,280.625 332.9624,287.5625 340.9732,287.5625" fill="#333" stroke="none"/>
  <polygon points="332.9624,287.5625 328.9571,294.5 336.9678,294.5" fill="#333" stroke="none"/>
  <polygon points="340.9732,287.5625 336.9678,294.5 344.9785,294.5" fill="#333" stroke="none"/>
  <polygon points="352.9893,280.625 348.9839,287.5625 356.9946,287.5625" fill="#333" stroke="none"/>
  <polygon points="348.9839,287.5625 344.9785,294.5 352.9893,294.5" fill="#333" stroke="none"/>
  <polygon points="356.9946,287.5625 352.9893,294.5 361,294.5" fill="#333" stroke="none"/>
  <polygon points="377.0215,266.75 373.0161,273.6875 381.0268,273.6875" fill="#333" stroke="none"/>
  <polygon points="373.0161,273.6875 369.0107,280.625 377.0215,280.625" fill="#333" stroke="none"/>
  <polygon points="381.0268,273.6875 377.0215,280.625 385.0322,280.625" fill="#333" stroke="none"/>
  <polygon points="369.0107,280.625 365.0054,287.5625 373.0161,287.5625" fill="#333" stroke="none"/>
  <polygon points="365.0054,287.5625 361,294.5 369.0107,294.5" fill="#333" stroke="none"/>
  <polygon points="373.0161,287.5625 369.0107,294.5 377.0215,294.5" fill="#333" stroke="none"/>
  <polygon points="385.0322,280.625 381.0268,287.5625 389.0376,287.5625" fill="#333" stroke="none"/>
  <polygon points="381.0268,287.5625 377.0215,294.5 385.0322,294.5" fill="#333" stroke="none"/>
  <polygon points="389.0376,287.5625 385.0322,294.5 393.0429,294.5" fill="#333" stroke="none"/>
  <polygon points="328.9571,294.5 324.9517,301.4375 332.9624,301.4375" fill="#333" stroke="none"/>
  <polygon points="324.9517,301.4375 320.9463,308.375 328.9571,308.375" fill="#333" stroke="none"/>
  <polygon points="332.9624,301.4375 328.9571,308.375 336.9678,308.375" fill="#333" stroke="none"/>
  <polygon points="320.9463,308.375 316.941,315.3125 324.9517,315.3125" fill="#333" stroke="none"/>
  <polygon points="316.941,315.3125 312.9356,322.25 320.9463,322.25" fill="#333" stroke="none"/>
  <polygon points="324.9517,315.3125 320.9463,322.25 328.9571,322.25" fill="#333" stroke="none"/>
  <polygon points="336.9678,308.375 332.9624,315.3125 340.9732,315.3125" fill="#333" stroke="none"/>
  <polygon points="332.9624,315.3125 328.9571,322.25 336.9678,322.25" fill="#333" stroke="none"/>
  <polygon points="340.9732,315.3125 336.9678,322.25 344.9785,322.25" fill="#333" stroke="none"/>
  <polygon points="312.9356,322.25 308.9302,329.1875 316.941,329.1875" fill="#333" stroke="none"/>
  <polygon points="308.9302,329.1875 304.9249,336.125 312.9356,336.125" fill="#333" stroke="none"/>
  <polygon points="316.941,329.1875 312.9356,336.125 320.9463,336.125" fill="#333" stroke="none"/>
  <polygon points="304.9249,336.125 300.9195,343.0625 308.9302,343.0625" fill="#333" stroke="none"/>
  <polygon points="300.9195,343.0625 296.9141,350 304.9249,350" fill="#333" stroke="none"/>
  <polygon points="308.9302,343.0625 304.9249,350 312.9356,350" fill="#333" stroke="none"/>
  <polygon points="320.9463,336.125 316.941,343.0625 324.9517,343.0625" fill="#333" stroke="none"/>
  <polygon points="316.941,343.0625 312.9356,350 320.9463,350" fill="#333" stroke="none"/>
  <polygon points="324.9517,343.0625 320.9463,350 328.9571,350" fill="#333" stroke="none"/>
  <polygon points="344.9785,322.25 340.9732,329.1875 348.9839,329.1875" fill="#333" stroke="none"/>
  <polygon points="340.9732,329.1875 336.9678,336.125 344.9785,336.125" fill="#333" stroke="none"/>
  <polygon points="348.9839,329.1875 344.9785,336.125 352.9893,336.125" fill="#333" stroke="none"/>
  <polygon points="336.9678,336.125 332.9624,343.0625 340.9732,343.0625" fill="#333" stroke="none"/>
  <polygon points="332.9624,343.0625 328.9571,350 336.9678,350" fill="#333" stroke="none"/>
  <polygon points="340.9732,343.0625 336.9678,350 344.9785,350" fill="#333" stroke="none"/>
  <polygon points="352.9893,336.125 348.9839,343.0625 356.9946,343.0625" fill="#333" stroke="none"/>
  <polygon points="348.9839,343.0625 344.9785,350 352.9893,350" fill="#333" stroke="none"/>
  <polygon points="356.9946,343.0625 352.9893,350 361,350" fill="#333" stroke="none"/>
  <polygon points="393.0429,294.5 389.0376,301.4375 397.0483,301.4375" fill="#333" stroke="none"/>
  <polygon points="389.0376,301.4375 385.0322,308.375 393.0429,308.375" fill="#333" stroke="none"/>
  <polygon points="397.0483,301.4375 393.0429,308.375 401.0537,308.375" fill="#333" stroke="none"/>
  <polygon points="385.0322,308.375 381.0268,315.3125 389.0376,315.3125" fill="#333" stroke="none"/>
  <polygon points="381.0268,315.3125 377.0215,322.25 385.0322,322.25" fill="#333" stroke="none"/>
  <polygon points="389.0376,315.3125 385.0322,322.25 393.0429,322.25" fill="#333" stroke="none"/>
  <polygon points="401.0537,308.375 397.0483,315.3125 405.059,315.3125" fill="#333" stroke="none"/>
  <polygon points="397.0483,315.3125 393.0429,322.25 401.0537,322.25" fill="#333" stroke="none"/>
  <polygon points="405.059,315.3125 401.0537,322.25 409.0644,322.25" fill="#333" stroke="none"/>
  <polygon points="377.0215,322.25 373.0161,329.1875 381.0268,329.1875" fill="#333" stroke="none"/>
  <polygon points="373.0161,329.1875 369.0107,336.125 377.0215,336.125" fill="#333" stroke="none"/>
  <polygon points="381.0268,329.1875 377.0215,336.125 385.0322,336.125" fill="#333" stroke="none"/>
  <polygon points="369.0107,336.125 365.0054,343.0625 373.0161,343.0625" fill="#333" stroke="none"/>
  <polygon points="365.0054,343.0625 361,350 369.0107,350" fill="#333" stroke="none"/>
  <polygon points="373.0161,343.0625 369.0107,350 377.0215,350" fill="#333" stroke="none"/>
  <polygon points="385.0322,336.125 381.0268,343.0625 389.0376,343.0625" fill="#333" stroke="none"/>
  <polygon points="381.0268,343.0625 377.0215,350 385.0322,350" fill="#333" stroke="none"/>
  <polygon points="389.0376,343.0625 385.0322,350 393.0429,350" fill="#333" stroke="none"/>
  <polygon points="409.0644,322.25 405.059,329.1875 413.0698,329.1875" fill="#333" stroke="none"/>
  <polygon points="405.059,329.1875 401.0537,336.125 409.0644,336.125" fill="#333" stroke="none"/>
  <polygon points="413.0698,329.1875 409.0644,336.125 417.0751,336.125" fill="#333" stroke="none"/>
  <polygon points="401.0537,336.125 397.0483,343.0625 405.059,343.0625" fill="#333" stroke="none"/>
  <polygon points="397.0483,343.0625 393.0429,350 401.0537,350" fill="#333" stroke="none"/>
  <polygon points="405.059,343.0625 401.0537,350 409.0644,350" fill="#333" stroke="none"/>
  <polygon points="417.0751,336.125 413.0698,343.0625 421.0805,343.0625" fill="#333" stroke="none"/>
  <polygon points="413.0698,343.0625 409.0644,350 417.0751,350" fill="#333" stroke="none"/>
  <polygon points="421.0805,343.0625 417.0751,350 425.0859,350" fill="#333" stroke="none"/>
  <polygon points="296.9141,350 292.9088,356.9375 300.9195,356.9375" fill="#333" stroke="none"/>
  <polygon points="292.9088,356.9375 288.9034,363.875 296.9141,363.875" fill="#333" stroke="none"/>
  <polygon points="300.9195,356.9375 296.9141,363.875 304.9249,363.875" fill="#333" stroke="none"/>
  <polygon points="288.9034,363.875 284.898,370.8125 292.9088,370.8125" fill="#333" stroke="none"/>
  <polygon points="284.898,370.8125 280.8927,377.75 288.9034,377.75" fill="#333" stroke="none"/>
  <polygon points="292.9088,370.8125 288.9034,377.75 296.9141,377.75" fill="#333" stroke="none"/>
  <polygon points="304.9249,363.875 300.9195,370.8125 308.9302,370.8125" fill="#333" stroke="none"/>
  <polygon points="300.9195,370.8125 296.9141,377.75 304.9249,377.75" fill="#333" stroke="none"/>
  <polygon points="308.9302,370.8125 304.9249,377.75 312.9356,377.75" fill="#333" stroke="none"/>
  <polygon points="280.8927,377.75 276.8873,384.6875 284.898,384.6875" fill="#333" stroke="none"/>
  <polygon points="276.8873,384.6875 272.8819,391.625 280.8927,391.625" fill="#333" stroke="none"/>
  <polygon points="284.898,384.6875 280.8927,391.625 288.9034,391.625" fill="#333" stroke="none"/>
  <polygon points="272.8819,391.625 268.8765,398.5625 276.8873,398.5625" fill="#333" stroke="none"/>
  <polygon points="268.8765,398.5625 264.8712,405.5 272.8819,405.5" fill="#333" stroke="none"/>
  <polygon points="276.8873,398.5625 272.8819,405.5 280.8927,405.5" fill="#333" stroke="none"/>
  <polygon points="288.9034,391.625 284.898,398.5625 292.9088,398.5625" fill="#333" stroke="none"/>
  <polygon points="284.898,398.5625 280.8927,405.5 288.9034,405.5" fill="#333" stroke="none"/>
  <polygon points="292.9088,398.5625 288.9034,405.5 296.9141,405.5" fill="#333" stroke="none"/>
  <polygon points="312.9356,377.75 308.9302,384.6875 316.941,384.6875" fill="#333" stroke="none"/>
  <polygon points="308.9302,384.6875 304.9249,391.625 312.9356,391.625" fill="#333" stroke="none"/>
  <polygon points="316.941,384.6875 312.9356,391.625 320.9463,391.625" fill="#333" stroke="none"/>
  <polygon points="304.9249,391.625 300.9195,398.5625 308.9302,398.5625" fill="#333" stroke="none"/>
  <polygon points="300.9195,398.5625 296.9141,405.5 304.9249,405.5" fill="#333" stroke="none"/>
  <polygon points="308.9302,398.5625 304.9249,405.5 312.9356,405.5" fill="#333" stroke="none"/>
  <polygon points="320.9463,391.625 316.941,398.5625 324.9517,398.5625" fill="#333" stroke="none"/>
  <polygon points="316.941,398.5625 312.9356,405.5 320.9463,405.5" fill="#333" stroke="none"/>
  <polygon points="324.9517,398.5625 320.9463,405.5 328.9571,405.5" fill="#333" stroke="none"/>
  <polygon points="264.8712,405.5 260.8658,412.4375 268.8765,412.4375" fill="#333" stroke="none"/>
  <polygon points="260.8658,412.4375 256.8604,419.375 264.8712,419.375" fill="#333" stroke="none"/>
  <polygon points="268.8765,412.4375 264.8712,419.375 272.8819,419.375" fill="#333" stroke="none"/>
  <polygon points="256.8604,419.375 252.8551,426.3125 260.8658,426.3125" fill="#333" stroke="none"/>
  <polygon points="252.8551,426.3125 248.8497,433.25 256.8604,433.25" fill="#333" stroke="none"/>
  <polygon points="260.8658,426.3125 256.8604,433.25 264.8712,433.25" fill="#333" stroke="none"/>
  <polygon points="272.8819,419.375 268.8765,426.3125 276.8873,426.3125" fill="#333" stroke="none"/>
  <polygon points="268.8765,426.3125 264.8712,433.25 272.8819,433.25" fill="#333" stroke="none"/>
  <polygon points="276.8873,426.3125 272.8819,433.25 280.8927,433.25" fill="#333" stroke="none"/>
  <polygon points="248.8497,433.25 244.8443,440.1875 252.8551,440.1875" fill="#333" stroke="none"/>
  <polygon points="244.8443,440.1875 240.839,447.125 248.8497,447.125" fill="#333" stroke="none"/>
  <polygon points="252.8551,440.1875 248.8497,447.125 256.8604,447.125" fill="#333" stroke="none"/>
  <polygon points="240.839,447.125 236.8336,454.0625 244.8443,454.0625" fill="#333" stroke="none"/>
  <polygon points="236.8336,454.0625 232.8282,461 240.839,461" fill="#333" stroke="none"/>
  <polygon points="244.8443,454.0625 240.839,461 248.8497,461" fill="#333" stroke="none"/>
  <polygon points="256.8604,447.125 252.8551,454.0625 260.8658,454.0625" fill="#333" stroke="none"/>
  <polygon points="252.8551,454.0625 248.8497,461 256.8604,461" fill="#333" stroke="none"/>
  <polygon points="260.8658,454.0625 256.8604,461 264.8712,461" fill="#333" stroke="none"/>
  <polygon points="280.8927,433.25 276.8873,440.1875 284.898,440.1875" fill="#333" stroke="none"/>
  <polygon points="276.8873,440.1875 272.8819,447.125 280.8927,447.125" fill="#333" stroke="none"/>
  <polygon points="284.898,440.1875 280.8927,447.125 288.9034,447.125" fill="#333" stroke="none"/>
  <polygon points="272.8819,447.125 268.8765,454.0625 276.8873,454.0625" fill="#333" stroke="none"/>
  <polygon points="268.8765,454.0625 264.8712,461 272.8819,461" fill="#333" stroke="none"/>
  <polygon points="276.8873,454.0625 272.8819,461 280.8927,461" fill="#333" stroke="none"/>
  <polygon points="288.9034,447.125 284.898,454.0625 292.9088,454.0625" fill="#333" stroke="none"/>
  <polygon points="284.898,454.0625 280.8927,461 288.9034,461" fill="#333" stroke="none"/>
  <polygon points="292.9088,454.0625 288.9034,461 296.9141,461" fill="#333" stroke="none"/>
  <polygon points="328.9571,405.5 324.9517,412.4375 332.9624,412.4375" fill="#333" stroke="none"/>
  <polygon points="324.9517,412.4375 320.9463,419.375 328.9571,419.375" fill="#333" stroke="none"/>
  <polygon points="332.9624,412.4375 328.9571,419.375 336.9678,419.375" fill="#333" stroke="none"/>
  <polygon points="320.9463,419.375 316.941,426.3125 324.9517,426.3125" fill="#333" stroke="none"/>
  <polygon points="316.941,426.3125 312.9356,433.25 320.9463,433.25" fill="#333" stroke="none"/>
  <polygon points="324.9517,426.3125 320.9463,433.25 328.9571,433.25" fill="#333" stroke="none"/>
  <polygon points="336.9678,419.375 332.9624,426.3125 340.9732,426.3125" fill="#333" stroke="none"/>
  <polygon points="332.9624,426.3125 328.9571,433.25 336.9678,433.25" fill="#333" stroke="none"/>
  <polygon points="340.9732,426.3125 336.9678,433.25 344.9785,433.25" fill="#333" stroke="none"/>
  <polygon points="312.9356,433.25 308.9302,440.1875 316.941,440.1875" fill="#333" stroke="none"/>
  <polygon points="308.9302,440.1875 304.9249,447.125 312.9356,447.125" fill="#333" stroke="none"/>
  <polygon points="316.941,440.1875 312.9356,447.125 320.9463,447.125" fill="#333" stroke="none"/>
  <polygon points="304.9249,447.125 300.9195,454.0625 308.9302,454.0625" fill="#333" stroke="none"/>
  <polygon points="300.9195,454.0625 296.9141,461 304.9249,461" fill="#333" stroke="none"/>
  <polygon points="308.9302,454.0625 304.9249,461 312.9356,461" fill="#333" stroke="none"/>
  <polygon points="320.9463,447.125 316.941,454.0625 324.9517,454.0625" fill="#333" stroke="none"/>
  <polygon points="316.941,454.0625 312.9356,461 320.9463,461" fill="#333" stroke="none"/>
  <polygon points="324.9517,454.0625 320.9463,461 328.9571,461" fill="#333" stroke="none"/>
  <polygon points="344.9785,433.25 340.9732,440.1875 348.9839,440.1875" fill="#333" stroke="none"/>
  <polygon points="340.9732,440.1875 336.9678,447.125 344.9785,447.125" fill="#333" stroke="none"/>
  <polygon points="348.9839,440.1875 344.9785,447.125 352.9893,447.125" fill="#333" stroke="none"/>
  <polygon points="336.9678,447.125 332.9624,454.0625 340.9732,454.0625" fill="#333" stroke="none"/>
  <polygon points="332.9624,454.0625 328.9571,461 336.9678,461" fill="#333" stroke="none"/>
  <polygon points="340.9732,454.0625 336.9678,461 344.9785,461" fill="#333" stroke="none"/>
  <polygon points="352.9893,447.125 348.9839,454.0625 356.9946,454.0625" fill="#333" stroke="none"/>
  <polygon points="348.9839,454.0625 344.9785,461 352.9893,461" fill="#333" stroke="none"/>
  <polygon points="356.9946,454.0625 352.9893,461 361,461" fill="#333" stroke="none"/>
  <polygon points="425.0859,350 421.0805,356.9375 429.0912,356.9375" fill="#333" stroke="none"/>
  <polygon points="421.0805,356.9375 417.0751,363.875 425.0859,363.875" fill="#333" stroke="none"/>
  <polygon points="429.0912,356.9375 425.0859,363.875 433.0966,363.875" fill="#333" stroke="none"/>
  <polygon points="417.0751,363.875 413.0698,370.8125 421.0805,370.8125" fill="#333" stroke="none"/>
  <polygon points="413.0698,370.8125 409.0644,377.75 417.0751,377.75" fill="#333" stroke="none"/>
  <polygon points="421.0805,370.8125 417.0751,377.75 425.0859,377.75" fill="#333" stroke="none"/>
  <polygon points="433.0966,363.875 429.0912,370.8125 437.102,370.8125" fill="#333" stroke="none"/>
  <polygon points="429.0912,370.8125 425.0859,377.75 433.0966,377.75" fill="#333" stroke="none"/>
  <polygon points="437.102,370.8125 433.0966,377.75 441.1073,377.75" fill="#333" stroke="none"/>
  <polygon points="409.0644,377.75 405.059,384.6875 413.0698,384.6875" fill="#333" stroke="none"/>
  <polygon points="405.059,384.6875 401.0537,391.625 409.0644,391.625" fill="#333" stroke="none"/>
  <polygon points="413.0698,384.6875 409.0644,391.625 417.0751,391.625" fill="#333" stroke="none"/>
  <polygon points="401.0537,391.625 397.0483,398.5625 405.059,398.5625" fill="#333" stroke="none"/>
  <polygon points="397.0483,398.5625 393.0429,405.5 401.0537,405.5" fill="#333" stroke="none"/>
  <polygon points="405.059,398.5625 401.0537,405.5 409.0644,405.5" fill="#333" stroke="none"/>
  <polygon points="417.0751,391.625 413.0698,398.5625 421.0805,398.5625" fill="#333" stroke="none"/>
  <polygon points="413.0698,398.5625 409.0644,405.5 417.0751,405.5" fill="#333" stroke="none"/>
  <polygon points="421.0805,398.5625 417.0751,405.5 425.0859,405.5" fill="#333" stroke="none"/>
  <polygon points="441.1073,377.75 437.102,384.6875 445.1127,384.6875" fill="#333" stroke="none"/>
  <polygon points="437.102,384.6875 433.0966,391.625 441.1073,391.625" fill="#333" stroke="none"/>
  <polygon points="445.1127,384.6875 441.1073,391.625 449.1181,391.625" fill="#333" stroke="none"/>
  <polygon points="433.0966,391.625 429.0912,398.5625 437.102,398.5625" fill="#333" stroke="none"/>
  <polygon points="429.0912,398.5625 425.0859,405.5 433.0966,405.5" fill="#333" stroke="none"/>
  <polygon points="437.102,398.5625 433.0966,405.5 441.1073,405.5" fill="#333" stroke="none"/>
  <polygon points="449.1181,391.625 445.1127,398.5625 453.1235,398.5625" fill="#333" stroke="none"/>
  <polygon points="445.1127,398.5625 441.1073,405.5 449.1181,405.5" fill="#333" stroke="none"/>
  <polygon points="453.1235,398.5625 449.1181,405.5 457.1288,405.5" fill="#333" stroke="none"/>
  <polygon points="393.0429,405.5 389.0376,412.4375 397.0483,412.4375" fill="#333" stroke="none"/>
  <polygon points="389.0376,412.4375 385.0322,419.375 393.0429,419.375" fill="#333" stroke="none"/>
  <polygon points="397.0483,412.4375 393.0429,419.375 401.0537,419.375" fill="#333" stroke="none"/>
  <polygon points="385.0322,419.375 381.0268,426.3125 389.0376,426.3125" fill="#333" stroke="none"/>
  <polygon points="381.0268,426.3125 377.0215,433.25 385.0322,433.25" fill="#333" stroke="none"/>
  <polygon points="389.0376,426.3125 385.0322,433.25 393.0429,433.25" fill="#333" stroke="none"/>
  <polygon points="401.0537,419.375 397.0483,426.3125 405.059,426.3125" fill="#333" stroke="none"/>
  <polygon points="397.0483,426.3125 393.0429,433.25 401.0537,433.25" fill="#333" stroke="none"/>
  <polygon points="405.059,426.3125 401.0537,433.25 409.0644,433.25" fill="#333" stroke="none"/>
  <polygon points="377.0215,433.25 373.0161,440.1875 381.0268,440.1875" fill="#333" stroke="none"/>
  <polygon points="373.0161,440.1875 369.0107,447.125 377.0215,447.125" fill="#333" stroke="none"/>
  <polygon points="381.0268,440.1875 377.0215,447.125 385.0322,447.125" fill="#333" stroke="none"/>
  <polygon points="369.0107,447.125 365.0054,454.0625 373.0161,454.0625" fill="#333" stroke="none"/>
  <polygon points="365.0054,454.0625 361,461 369.0107,461" fill="#333" stroke="none"/>
  <polygon points="373.0161,454.0625 369.0107,461 377.0215,461" fill="#333" stroke="none"/>
  <polygon points="385.0322,447.125 381.0268,454.0625 389.0376,454.0625" fill="#333" stroke="none"/>
  <polygon points="381.0268,454.0625 377.0215,461 385.0322,461" fill="#333" stroke="none"/>
  <polygon points="389.0376,454.0625 385.0322,461 393.0429,461" fill="#333" stroke="none"/>
  <polygon points="409.0644,433.25 405.059,440.1875 413.0698,440.1875" fill="#333" stroke="none"/>
  <polygon points="405.059,440.1875 401.0537,447.125 409.0644,447.125" fill="#333" stroke="none"/>
  <polygon points="413.0698,440.1875 409.0644,447.125 417.0751,447.125" fill="#333" stroke="none"/>
  <polygon points="401.0537,447.125 397.0483,454.0625 405.059,454.0625" fill="#333" stroke="none"/>
  <polygon points="397.0483,454.0625 393.0429,461 401.0537,461" fill="#333" stroke="none"/>
  <polygon points="405.059,454.0625 401.0537,461 409.0644,461" fill="#333" stroke="none"/>
  <polygon points="417.0751,447.125 413.0698,454.0625 421.0805,454.0625" fill="#333" stroke="none"/>
  <polygon points="413.0698,454.0625 409.0644,461 417.0751,461" fill="#333" stroke="none"/>
  <polygon points="421.0805,454.0625 417.0751,461 425.0859,461" fill="#333" stroke="none"/>
  <polygon points="457.1288,405.5 453.1235,412.4375 461.1342,412.4375" fill="#333" stroke="none"/>
  <polygon points="453.1235,412.4375 449.1181,419.375 457.1288,419.375" fill="#333" stroke="none"/>
  <polygon points="461.1342,412.4375 457.1288,419.375 465.1396,419.375" fill="#333" stroke="none"/>
  <polygon points="449.1181,419.375 445.1127,426.3125 453.1235,426.3125" fill="#333" stroke="none"/>
  <polygon points="445.1127,426.3125 441.1073,433.25 449.1181,433.25" fill="#333" stroke="none"/>
  <polygon points="453.1235,426.3125 449.1181,433.25 457.1288,433.25" fill="#333" stroke="none"/>
  <polygon points="465.1396,419.375 461.1342,426.3125 469.1449,426.3125" fill="#333" stroke="none"/>
  <polygon points="461.1342,426.3125 457.1288,433.25 465.1396,433.25" fill="#333" stroke="none"/>
  <polygon points="469.1449,426.3125 465.1396,433.25 473.1503,433.25" fill="#333" stroke="none"/>
  <polygon points="441.1073,433.25 437.102,440.1875 445.1127,440.1875" fill="#333" stroke="none"/>
  <polygon points="437.102,440.1875 433.0966,447.125 441.1073,447.125" fill="#333" stroke="none"/>
  <polygon points="445.1127,440.1875 441.1073,447.125 449.1181,447.125" fill="#333" stroke="none"/>
  <polygon points="433.0966,447.125 429.0912,454.0625 437.102,454.0625" fill="#333" stroke="none"/>
  <polygon points="429.0912,454.0625 425.0859,461 433.0966,461" fill="#333" stroke="none"/>
  <polygon points="437.102,454.0625 433.0966,461 441.1073,461" fill="#333" stroke="none"/>
  <polygon points="449.1181,447.125 445.1127,454.0625 453.1235,454.0625" fill="#333" stroke="none"/>
  <polygon points="445.1127,454.0625 441.1073,461 449.1181,461" fill="#333" stroke="none"/>
  <polygon points="453.1235,454.0625 449.1181,461 457.1288,461" fill="#333" stroke="none"/>
  <polygon points="473.1503,433.25 469.1449,440.1875 477.1557,440.1875" fill="#333" stroke="none"/>
  <polygon points="469.1449,440.1875 465.1396,447.125 473.1503,447.125" fill="#333" stroke="none"/>
  <polygon points="477.1557,440.1875 473.1503,447.125 481.161,447.125" fill="#333" stroke="none"/>
  <polygon points="465.1396,447.125 461.1342,454.0625 469.1449,454.0625" fill="#333" stroke="none"/>
  <polygon points="461.1342,454.0625 457.1288,461 465.1396,461" fill="#333" stroke="none"/>
  <polygon points="469.1449,454.0625 465.1396,461 473.1503,461" fill="#333" stroke="none"/>
  <polygon points="481.161,447.125 477.1557,454.0625 485.1664,454.0625" fill="#333" stroke="none"/>
  <polygon points="477.1557,454.0625 473.1503,461 481.161,461" fill="#333" stroke="none"/>
  <polygon points="485.1664,454.0625 481.161,461 489.1718,461" fill="#333" stroke="none"/>
</g>
</g>
  <g opacity="0.86">
  <polygon points="363,158 417.5596,390.5 591.6307,554 363,485 134.3693,554 308.4404,390.5" fill="none" stroke="#333" stroke-width="1.5"/>
</g>
  <g opacity="0.52">
  <g>
  <circle cx="156" cy="133" r="3" fill="#333"/>
  <circle cx="188" cy="133" r="3" fill="#333"/>
  <circle cx="220" cy="133" r="3" fill="#333"/>
  <circle cx="172" cy="160.7128" r="3" fill="#333"/>
  <circle cx="204" cy="160.7128" r="3" fill="#333"/>
  <circle cx="236" cy="160.7128" r="3" fill="#333"/>
  <circle cx="156" cy="188.4256" r="3" fill="#333"/>
  <circle cx="188" cy="188.4256" r="3" fill="#333"/>
  <circle cx="220" cy="188.4256" r="3" fill="#333"/>
</g>
</g>
</svg>