<svg xmlns="http://www.w3.org/2000/svg" width="800" height="800" viewBox="0 0 800 800">
  <path d="M 391 511 A 0.5172 0.5172 0 0 1 390.4828 511.5172 A 0.5172 0.5172 0 0 1 389.9655 511 A 1.0345 1.0345 0 0 1 391 509.9655 A 1.5517 1.5517 0 0 1 392.5517 511.5172 A 2.5862 2.5862 0 0 1 389.9655 514.1034 A 4.1379 4.1379 0 0 1 385.8276 509.9655 A 6.7241 6.7241 0 0 1 392.5517 503.2414 A 10.8621 10.8621 0 0 1 403.4138 514.1034 A 17.5862 17.5862 0 0 1 385.8276 531.6897 A 28.4483 28.4483 0 0 1 357.3793 503.2414 A 46.0345 46.0345 0 0 1 403.4138 457.2069 A 74.4828 74.4828 0 0 1 477.8966 531.6897" fill="none" stroke="#333" stroke-width="2"/>
  <g opacity="0.47">
  <g transform="rotate(-125.0,400,400)">
  <g>
  <polygon points="511,347 499.3087,367.25 522.6913,367.25" fill="#333" stroke="none"/>
  <polygon points="499.3087,367.25 487.6173,387.5 511,387.5" fill="#333" stroke="none"/>
  <polygon points="522.6913,367.25 511,387.5 534.3827,387.5" fill="#333" stroke="none"/>
  <polygon points="487.6173,387.5 475.926,407.75 499.3087,407.75" fill="#333" stroke="none"/>
  <polygon points="475.926,407.75 464.2346,428 487.6173,428" fill="#333" stroke="none"/>
  <polygon points="499.3087,407.75 487.6173,428 511,428" fill="#333" stroke="none"/>
  <polygon points="534.3827,387.5 522.6913,407.75 546.074,407.75" fill="#333" stroke="none"/>
  <polygon points="522.6913,407.75 511,428 534.3827,428" fill="#333" stroke="none"/>
  <polygon points="546.074,407.75 534.3827,428 557.7654,428" fill="#333" stroke="none"/>
  <polygon points="464.2346,428 452.5433,448.25 475.926,448.25" fill="#333" stroke="none"/>
  <polygon points="452.5433,448.25 440.8519,468.5 464.2346,468.5" fill="#333" stroke="none"/>
  <polygon points="475.926,448.25 464.2346,468.5 487.6173,468.5" fill="#333" stroke="none"/>
  <polygon points="440.8519,468.5 429.1606,488.75 452.5433,488.75" fill="#333" stroke="none"/>
  <polygon points="429.1606,488.75 417.4693,509 440.8519,509" fill="#333" stroke="none"/>
  <polygon points="452.5433,488.75 440.8519,509 464.2346,509" fill="#333" stroke="none"/>
  <polygon points="487.6173,468.5 475.926,488.75 499.3087,488.75" fill="#333" stroke="none"/>
  <polygon points="475.926,488.75 464.2346,509 487.6173,509" fill="#333" stroke="none"/>
  <polygon points="499.3087,488.75 487.6173,509 511,509" fill="#333" stroke="none"/>
  <polygon points="557.7654,428 546.074,448.25 569.4567,448.25" fill="#333" stroke="none"/>
  <polygon points="546.074,448.25 534.3827,468.5 557.7654,468.5" fill="#333" stroke="none"/>
  <polygon points="569.4567,448.25 557.7654,468.5 581.1481,468.5" fill="#333" stroke="none"/>
  <polygon points="534.3827,468.5 522.6913,488.75 546.074,488.75" fill="#333" stroke="none"/>
  <polygon points="522.6913,488.75 511,509 534.3827,509" fill="#333" stroke="none"/>
  <polygon points="546.074,488.75 534.3827,509 557.7654,509" fill="#333" stroke="none"/>
  <polygon points="581.1481,468.5 569.4567,488.75 592.8394,488.75" fill="#333" stroke="none"/>
  <polygon points="569.4567,488.75 557.7654,509 581.1481,509" fill="#333" stroke="none"/>
  <polygon points="592.8394,488.75 581.1481,509 604.5307,509" fill="#333" stroke="none"/>
</g>
</g>
</g>
</svg>