<svg xmlns="http://www.w3.org/2000/svg" width="800" height="800" viewBox="0 0 800 800">
  <polygon points="358,347 367.6225,363.6667 358,380.3333 377.245,380.3333 386.8675,397 377.245,413.6667 358,413.6667 367.6225,430.3333 358,447 377.245,447 386.8675,463.6667 396.49,447 415.735,447 425.3575,463.6667 415.735,480.3333 434.98,480.3333 444.6025,497 425.3575,497 415.735,480.3333 406.1125,497 386.8675,497 377.245,480.3333 386.8675,463.6667 367.6225,463.6667 358,447 348.3775,463.6667 329.1325,463.6667 338.755,480.3333 329.1325,497 309.8875,497 300.265,480.3333 290.6425,497 271.3975,497 281.02,480.3333 300.265,480.3333 290.6425,463.6667 300.265,447 319.51,447 329.1325,463.6667 338.755,447 358,447 348.3775,430.3333 358,413.6667 338.755,413.6667 329.1325,397 338.755,380.3333 358,380.3333 348.3775,363.6667" fill="none" stroke="#333" stroke-width="1"/>
  <g transform="rotate(-49.8,400,400)">
  <polygon points="239,462 336.5807,502.4193 377,600 336.5807,697.5807 239,738 141.4193,697.5807 101,600 141.4193,502.4193" fill="none" stroke="#333" stroke-width="1.5"/>
</g>
  <g>
  <polygon points="434,122 426.747,134.5625 441.253,134.5625" fill="#333" stroke="none"/>
  <polygon points="426.747,134.5625 419.4941,147.125 434,147.125" fill="#333" stroke="none"/>
  <polygon points="441.253,134.5625 434,147.125 448.5059,147.125" fill="#333" stroke="none"/>
  <polygon points="419.4941,147.125 412.2411,159.6875 426.747,159.6875" fill="#333" stroke="none"/>
  <polygon points="412.2411,159.6875 404.9881,172.25 419.4941,172.25" fill="#333" stroke="none"/>
  <polygon points="426.747,159.6875 419.4941,172.25 434,172.25" fill="#333" stroke="none"/>
  <polygon points="448.5059,147.125 441.253,159.6875 455.7589,159.6875" fill="#333" stroke="none"/>
  <polygon points="441.253,159.6875 434,172.25 448.5059,172.25" fill="#333" stroke="none"/>
  <polygon points="455.7589,159.6875 448.5059,172.25 463.0119,172.25" fill="#333" stroke="none"/>
  <polygon points="404.9881,172.25 397.7352,184.8125 412.2411,184.8125" fill="#333" stroke="none"/>
  <polygon points="397.7352,184.8125 390.4822,197.375 404.9881,197.375" fill="#333" stroke="none"/>
  <polygon points="412.2411,184.8125 404.9881,197.375 419.4941,197.375" fill="#333" stroke="none"/>
  <polygon points="390.4822,197.375 383.2293,209.9375 397.7352,209.9375" fill="#333" stroke="none"/>
  <polygon points="383.2293,209.9375 375.9763,222.5 390.4822,222.5" fill="#333" stroke="none"/>
  <polygon points="397.7352,209.9375 390.4822,222.5 404.9881,222.5" fill="#333" stroke="none"/>
  <polygon points="419.4941,197.375 412.2411,209.9375 426.747,209.9375" fill="#333" stroke="none"/>
  <polygon points="412.2411,209.9375 404.9881,222.5 419.4941,222.5" fill="#333" stroke="none"/>
  <polygon points="426.747,209.9375 419.4941,222.5 434,222.5" fill="#333" stroke="none"/>
  <polygon points="463.0119,172.25 455.7589,184.8125 470.2648,184.8125" fill="#333" stroke="none"/>
  <polygon points="455.7589,184.8125 448.5059,197.375 463.0119,197.375" fill="#333" stroke="none"/>
  <polygon points="470.2648,184.8125 463.0119,197.375 477.5178,197.375" fill="#333" stroke="none"/>
  <polygon points="448.5059,197.375 441.253,209.9375 455.7589,209.9375" fill="#333" stroke="none"/>
  <polygon points="441.253,209.9375 434,222.5 448.5059,222.5" fill="#333" stroke="none"/>
  <polygon points="455.7589,209.9375 448.5059,222.5 463.0119,222.5" fill="#333" stroke="none"/>
  <polygon points="477.5178,197.375 470.2648,209.9375 484.7707,209.9375" fill="#333" stroke="none"/>
  <polygon points="470.2648,209.9375 463.0119,222.5 477.5178,222.5" fill="#333" stroke="none"/>
  <polygon points="484.7707,209.9375 477.5178,222.5 492.0237,222.5" fill="#333" stroke="none"/>
  <polygon points="375.9763,222.5 368.7233,235.0625 383.2293,235.0625" fill="#333" stroke="none"/>
  <polygon points="368.7233,235.0625 361.4704,247.625 375.9763,247.625" fill="#333" stroke="none"/>
  <polygon points="383.2293,235.0625 375.9763,247.625 390.4822,247.625" fill="#333" stroke="none"/>
  <polygon points="361.4704,247.625 354.2174,260.1875 368.7233,260.1875" fill="#333" stroke="none"/>
  <polygon points="354.2174,260.1875 346.9644,272.75 361.4704,272.75" fill="#333" stroke="none"/>
  <polygon points="368.7233,260.1875 361.4704,272.75 375.9763,272.75" fill="#333" stroke="none"/>
  <polygon points="390.4822,247.625 383.2293,260.1875 397.7352,260.1875" fill="#333" stroke="none"/>
  <polygon points="383.2293,260.1875 375.9763,272.75 390.4822,272.75" fill="#333" stroke="none"/>
  <polygon points="397.7352,260.1875 390.4822,272.75 404.9881,272.75" fill="#333" stroke="none"/>
  <polygon points="346.9644,272.75 339.7115,285.3125 354.2174,285.3125" fill="#333" stroke="none"/>
  <polygon points="339.7115,285.3125 332.4585,297.875 346.9644,297.875" fill="#333" stroke="none"/>
  <polygon points="354.2174,285.3125 346.9644,297.875 361.4704,297.875" fill="#333" stroke="none"/>
  <polygon points="332.4585,297.875 325.2056,310.4375 339.7115,310.4375" fill="#333" stroke="none"/>
  <polygon points="325.2056,310.4375 317.9526,323 332.4585,323" fill="#333" stroke="none"/>
  <polygon points="339.7115,310.4375 332.4585,323 346.9644,323" fill="#333" stroke="none"/>
  <polygon points="361.4704,297.875 354.2174,310.4375 368.7233,310.4375" fill="#333" stroke="none"/>
  <polygon points="354.2174,310.4375 346.9644,323 361.4704,323" fill="#333" stroke="none"/>
  <polygon points="368.7233,310.4375 361.4704,323 375.9763,323" fill="#333" stroke="none"/>
  <polygon points="404.9881,272.75 397.7352,285.3125 412.2411,285.3125" fill="#333" stroke="none"/>
  <polygon points="397.7352,285.3125 390.4822,297.875 404.9881,297.875" fill="#333" stroke="none"/>
  <polygon points="412.2411,285.3125 404.9881,297.875 419.4941,297.875" fill="#333" stroke="none"/>
  <polygon points="390.4822,297.875 383.2293,310.4375 397.7352,310.4375" fill="#333" stroke="none"/>
  <polygon points="383.2293,310.4375 375.9763,323 390.4822,323" fill="#333" stroke="none"/>
  <polygon points="397.7352,310.4375 390.4822,323 404.9881,323" fill="#333" stroke="none"/>
  <polygon points="419.4941,297.875 412.2411,310.4375 426.747,310.4375" fill="#333" stroke="none"/>
  <polygon points="412.2411,310.4375 404.9881,323 419.4941,323" fill="#333" stroke="none"/>
  <polygon points="426.747,310.4375 419.4941,323 434,323" fill="#333" stroke="none"/>
  <polygon points="492.0237,222.5 484.7707,235.0625 499.2767,235.0625" fill="#333" stroke="none"/>
  <polygon points="484.7707,235.0625 477.5178,247.625 492.0237,247.625" fill="#333" stroke="none"/>
  <polygon points="499.2767,235.0625 492.0237,247.625 506.5296,247.625" fill="#333" stroke="none"/>
  <polygon points="477.5178,247.625 470.2648,260.1875 484.7707,260.1875" fill="#333" stroke="none"/>
  <polygon points="470.2648,260.1875 463.0119,272.75 477.5178,272.75" fill="#333" stroke="none"/>
  <polygon points="484.7707,260.1875 477.5178,272.75 492.0237,272.75" fill="#333" stroke="none"/>
  <polygon points="506.5296,247.625 499.2767,260.1875 513.7826,260.1875" fill="#333" stroke="none"/>
  <polygon points="499.2767,260.1875 492.0237,272.75 506.5296,272.75" fill="#333" stroke="none"/>
  <polygon points="513.7826,260.1875 506.5296,272.75 521.0356,272.75" fill="#333" stroke="none"/>
  <polygon points="463.0119,272.75 455.7589,285.3125 470.2648,285.3125" fill="#333" stroke="none"/>
  <polygon points="455.7589,285.3125 448.5059,297.875 463.0119,297.875" fill="#333" stroke="none"/>
  <polygon points="470.2648,285.3125 463.0119,297.875 477.5178,297.875" fill="#333" stroke="none"/>
  <polygon points="448.5059,297.875 441.253,310.4375 455.7589,310.4375" fill="#333" stroke="none"/>
  <polygon points="441.253,310.4375 434,323 448.5059,323" fill="#333" stroke="none"/>
  <polygon points="455.7589,310.4375 448.5059,323 463.0119,323" fill="#333" stroke="none"/>
  <polygon points="477.5178,297.875 470.2648,310.4375 484.7707,310.4375" fill="#333" stroke="none"/>
  <polygon points="470.2648,310.4375 463.0119,323 477.5178,323" fill="#333" stroke="none"/>
  <polygon points="484.7707,310.4375 477.5178,323 492.0237,323" fill="#333" stroke="none"/>
  <polygon points="521.0356,272.75 513.7826,285.3125 528.2885,285.3125" fill="#333" stroke="none"/>
  <polygon points="513.7826,285.3125 506.5296,297.875 521.0356,297.875" fill="#333" stroke="none"/>
  <polygon points="528.2885,285.3125 521.0356,297.875 535.5415,297.875" fill="#333" stroke="none"/>
  <polygon points="506.5296,297.875 499.2767,310.4375 513.7826,310.4375" fill="#333" stroke="none"/>
  <polygon points="499.2767,310.4375 492.0237,323 506.5296,323" fill="#333" stroke="none"/>
  <polygon points="513.7826,310.4375 506.5296,323 521.0356,323" fill="#333" stroke="none"/>
  <polygon points="535.5415,297.875 528.2885,310.4375 542.7944,310.4375" fill="#333" stroke="none"/>
  <polygon points="528.2885,310.4375 521.0356,323 535.5415,323" fill="#333" stroke="none"/>
  <polygon points="542.7944,310.4375 535.5415,323 550.0474,323" fill="#333" stroke="none"/>
</g>
  <g opacity="0.44">
  <g transform="rotate(30.6,400,400)">
  <g>
  <line x1="530" y1="556" x2="523.9182" y2="456.1851" stroke="#333" stroke-width="1.5"/>
  <g>
  <line x1="523.9182" y1="456.1851" x2="489.8185" y2="404.6403" stroke="#333" stroke-width="1.5"/>
  <g>
  <line x1="489.8185" y1="404.6403" x2="455.639" y2="387.5891" stroke="#333" stroke-width="1.5"/>
  <g>
  <line x1="455.639" y1="387.5891" x2="432.0759" y2="389.0249" stroke="#333" stroke-width="1.5"/>
  <g>
  <line x1="432.0759" y1="389.0249" x2="419.9078" y2="397.0747" stroke="#333" stroke-width="1.5"/>
  <g>
  <line x1="419.9078" y1="397.0747" x2="415.8826" y2="405.1434" stroke="#333" stroke-width="1.5"/>
</g>
  <g>
  <line x1="419.9078" y1="397.0747" x2="410.9075" y2="397.6231" stroke="#333" stroke-width="1.5"/>
</g>
</g>
  <g>
  <line x1="432.0759" y1="389.0249" x2="419.0205" y2="382.5119" stroke="#333" stroke-width="1.5"/>
  <g>
  <line x1="419.0205" y1="382.5119" x2="410.0202" y2="383.0603" stroke="#333" stroke-width="1.5"/>
</g>
  <g>
  <line x1="419.0205" y1="382.5119" x2="414.0454" y2="374.9916" stroke="#333" stroke-width="1.5"/>
</g>
</g>
</g>
  <g>
  <line x1="455.639" y1="387.5891" x2="442.6141" y2="367.9007" stroke="#333" stroke-width="1.5"/>
  <g>
  <line x1="442.6141" y1="367.9007" x2="429.5587" y2="361.3878" stroke="#333" stroke-width="1.5"/>
  <g>
  <line x1="429.5587" y1="361.3878" x2="420.5584" y2="361.9362" stroke="#333" stroke-width="1.5"/>
</g>
  <g>
  <line x1="429.5587" y1="361.3878" x2="424.5836" y2="353.8675" stroke="#333" stroke-width="1.5"/>
</g>
</g>
  <g>
  <line x1="442.6141" y1="367.9007" x2="441.7267" y2="353.338" stroke="#333" stroke-width="1.5"/>
  <g>
  <line x1="441.7267" y1="353.338" x2="436.7517" y2="345.8177" stroke="#333" stroke-width="1.5"/>
</g>
  <g>
  <line x1="441.7267" y1="353.338" x2="445.752" y2="345.2693" stroke="#333" stroke-width="1.5"/>
</g>
</g>
</g>
</g>
  <g>
  <line x1="489.8185" y1="404.6403" x2="487.4955" y2="366.5144" stroke="#333" stroke-width="1.5"/>
  <g>
  <line x1="487.4955" y1="366.5144" x2="474.4705" y2="346.826" stroke="#333" stroke-width="1.5"/>
  <g>
  <line x1="474.4705" y1="346.826" x2="461.4151" y2="340.313" stroke="#333" stroke-width="1.5"/>
  <g>
  <line x1="461.4151" y1="340.313" x2="452.4148" y2="340.8614" stroke="#333" stroke-width="1.5"/>
</g>
  <g>
  <line x1="461.4151" y1="340.313" x2="456.4401" y2="332.7927" stroke="#333" stroke-width="1.5"/>
</g>
</g>
  <g>
  <line x1="474.4705" y1="346.826" x2="473.5832" y2="332.2632" stroke="#333" stroke-width="1.5"/>
  <g>
  <line x1="473.5832" y1="332.2632" x2="468.6081" y2="324.7429" stroke="#333" stroke-width="1.5"/>
</g>
  <g>
  <line x1="473.5832" y1="332.2632" x2="477.6084" y2="324.1945" stroke="#333" stroke-width="1.5"/>
</g>
</g>
</g>
  <g>
  <line x1="487.4955" y1="366.5144" x2="498.0336" y2="345.3903" stroke="#333" stroke-width="1.5"/>
  <g>
  <line x1="498.0336" y1="345.3903" x2="497.1463" y2="330.8275" stroke="#333" stroke-width="1.5"/>
  <g>
  <line x1="497.1463" y1="330.8275" x2="492.1712" y2="323.3072" stroke="#333" stroke-width="1.5"/>
</g>
  <g>
  <line x1="497.1463" y1="330.8275" x2="501.1715" y2="322.7588" stroke="#333" stroke-width="1.5"/>
</g>
</g>
  <g>
  <line x1="498.0336" y1="345.3903" x2="510.2017" y2="337.3404" stroke="#333" stroke-width="1.5"/>
  <g>
  <line x1="510.2017" y1="337.3404" x2="514.227" y2="329.2717" stroke="#333" stroke-width="1.5"/>
</g>
  <g>
  <line x1="510.2017" y1="337.3404" x2="519.202" y2="336.792" stroke="#333" stroke-width="1.5"/>
</g>
</g>
</g>
</g>
</g>
  <g>
  <line x1="523.9182" y1="456.1851" x2="551.5075" y2="400.8815" stroke="#333" stroke-width="1.5"/>
  <g>
  <line x1="551.5075" y1="400.8815" x2="549.1845" y2="362.7556" stroke="#333" stroke-width="1.5"/>
  <g>
  <line x1="549.1845" y1="362.7556" x2="536.1595" y2="343.0672" stroke="#333" stroke-width="1.5"/>
  <g>
  <line x1="536.1595" y1="343.0672" x2="523.1041" y2="336.5543" stroke="#333" stroke-width="1.5"/>
  <g>
  <line x1="523.1041" y1="336.5543" x2="514.1038" y2="337.1027" stroke="#333" stroke-width="1.5"/>
</g>
  <g>
  <line x1="523.1041" y1="336.5543" x2="518.129" y2="329.034" stroke="#333" stroke-width="1.5"/>
</g>
</g>
  <g>
  <line x1="536.1595" y1="343.0672" x2="535.2722" y2="328.5044" stroke="#333" stroke-width="1.5"/>
  <g>
  <line x1="535.2722" y1="328.5044" x2="530.2971" y2="320.9841" stroke="#333" stroke-width="1.5"/>
</g>
  <g>
  <line x1="535.2722" y1="328.5044" x2="539.2974" y2="320.4357" stroke="#333" stroke-width="1.5"/>
</g>
</g>
</g>
  <g>
  <line x1="549.1845" y1="362.7556" x2="559.7226" y2="341.6315" stroke="#333" stroke-width="1.5"/>
  <g>
  <line x1="559.7226" y1="341.6315" x2="558.8353" y2="327.0687" stroke="#333" stroke-width="1.5"/>
  <g>
  <line x1="558.8353" y1="327.0687" x2="553.8602" y2="319.5484" stroke="#333" stroke-width="1.5"/>
</g>
  <g>
  <line x1="558.8353" y1="327.0687" x2="562.8605" y2="319" stroke="#333" stroke-width="1.5"/>
</g>
</g>
  <g>
  <line x1="559.7226" y1="341.6315" x2="571.8907" y2="333.5817" stroke="#333" stroke-width="1.5"/>
  <g>
  <line x1="571.8907" y1="333.5817" x2="575.9159" y2="325.513" stroke="#333" stroke-width="1.5"/>
</g>
  <g>
  <line x1="571.8907" y1="333.5817" x2="580.891" y2="333.0333" stroke="#333" stroke-width="1.5"/>
</g>
</g>
</g>
</g>
  <g>
  <line x1="551.5075" y1="400.8815" x2="583.364" y2="379.8067" stroke="#333" stroke-width="1.5"/>
  <g>
  <line x1="583.364" y1="379.8067" x2="593.9021" y2="358.6826" stroke="#333" stroke-width="1.5"/>
  <g>
  <line x1="593.9021" y1="358.6826" x2="593.0148" y2="344.1198" stroke="#333" stroke-width="1.5"/>
  <g>
  <line x1="593.0148" y1="344.1198" x2="588.0397" y2="336.5995" stroke="#333" stroke-width="1.5"/>
</g>
  <g>
  <line x1="593.0148" y1="344.1198" x2="597.0401" y2="336.0511" stroke="#333" stroke-width="1.5"/>
</g>
</g>
  <g>
  <line x1="593.9021" y1="358.6826" x2="606.0702" y2="350.6328" stroke="#333" stroke-width="1.5"/>
  <g>
  <line x1="606.0702" y1="350.6328" x2="610.0955" y2="342.5641" stroke="#333" stroke-width="1.5"/>
</g>
  <g>
  <line x1="606.0702" y1="350.6328" x2="615.0705" y2="350.0844" stroke="#333" stroke-width="1.5"/>
</g>
</g>
</g>
  <g>
  <line x1="583.364" y1="379.8067" x2="606.9271" y2="378.371" stroke="#333" stroke-width="1.5"/>
  <g>
  <line x1="606.9271" y1="378.371" x2="619.0952" y2="370.3212" stroke="#333" stroke-width="1.5"/>
  <g>
  <line x1="619.0952" y1="370.3212" x2="623.1204" y2="362.2525" stroke="#333" stroke-width="1.5"/>
</g>
  <g>
  <line x1="619.0952" y1="370.3212" x2="628.0955" y2="369.7728" stroke="#333" stroke-width="1.5"/>
</g>
</g>
  <g>
  <line x1="606.9271" y1="378.371" x2="619.9825" y2="384.884" stroke="#333" stroke-width="1.5"/>
  <g>
  <line x1="619.9825" y1="384.884" x2="628.9828" y2="384.3356" stroke="#333" stroke-width="1.5"/>
</g>
  <g>
  <line x1="619.9825" y1="384.884" x2="624.9576" y2="392.4043" stroke="#333" stroke-width="1.5"/>
</g>
</g>
</g>
</g>
</g>
</g>
</g>
</g>
  <g transform="rotate(-49.8,400,400)">
  <polygon points="263,472 353.5097,509.4903 391,600 353.5097,690.5097 263,728 172.4903,690.5097 135,600 172.4903,509.4903" fill="none" stroke="#333" stroke-width="1.5"/>
</g>
</svg>