<svg xmlns="http://www.w3.org/2000/svg" width="800" height="800" viewBox="0 0 800 800">
  <g opacity="0.81">
  <g>
  <g>
  <circle cx="236" cy="462" r="12.3352" stroke="#e74c3c" stroke-width="2" fill="#e74c3c" fill-opacity="0.08"/>
  <circle cx="248.3352" cy="462" r="3" fill="#e74c3c" stroke="none"/>
  <circle cx="229.8324" cy="451.3174" r="3" fill="#e74c3c" stroke="none"/>
  <circle cx="229.8324" cy="472.6826" r="3" fill="#e74c3c" stroke="none"/>
  <text x="256.3352" y="466" font-size="10" fill="#e74c3c">3D c3 seed</text>
  <circle cx="236" cy="462" r="19.9589" stroke="#e67e22" stroke-width="2" fill="#e67e22" fill-opacity="0.08"/>
  <circle cx="255.9589" cy="462" r="3" fill="#e67e22" stroke="none"/>
  <circle cx="236" cy="442.0411" r="3" fill="#e67e22" stroke="none"/>
  <circle cx="216.0411" cy="462" r="3" fill="#e67e22" stroke="none"/>
  <circle cx="236" cy="481.9589" r="3" fill="#e67e22" stroke="none"/>
  <text x="263.9589" y="466" font-size="10" fill="#e67e22">4D E4 base</text>
  <circle cx="236" cy="462" r="32.2941" stroke="#f1c40f" stroke-width="2" fill="#f1c40f" fill-opacity="0.08"/>
  <circle cx="268.2941" cy="462" r="3" fill="#f1c40f" stroke="none"/>
  <circle cx="252.147" cy="434.0325" r="3" fill="#f1c40f" stroke="none"/>
  <circle cx="219.853" cy="434.0325" r="3" fill="#f1c40f" stroke="none"/>
  <circle cx="203.7059" cy="462" r="3" fill="#f1c40f" stroke="none"/>
  <circle cx="219.853" cy="489.9675" r="3" fill="#f1c40f" stroke="none"/>
  <circle cx="252.147" cy="489.9675" r="3" fill="#f1c40f" stroke="none"/>
  <text x="276.2941" y="466" font-size="10" fill="#f1c40f">6D W3 Mobius</text>
  <circle cx="236" cy="462" r="52.253" stroke="#2ecc71" stroke-width="2" fill="#2ecc71" fill-opacity="0.08"/>
  <circle cx="288.253" cy="462" r="3" fill="#2ecc71" stroke="none"/>
  <circle cx="272.9484" cy="425.0516" r="3" fill="#2ecc71" stroke="none"/>
  <circle cx="236" cy="409.747" r="3" fill="#2ecc71" stroke="none"/>
  <circle cx="199.0516" cy="425.0516" r="3" fill="#2ecc71" stroke="none"/>
  <circle cx="183.747" cy="462" r="3" fill="#2ecc71" stroke="none"/>
  <circle cx="199.0516" cy="498.9484" r="3" fill="#2ecc71" stroke="none"/>
  <circle cx="236" cy="514.253" r="3" fill="#2ecc71" stroke="none"/>
  <circle cx="272.9484" cy="498.9484" r="3" fill="#2ecc71" stroke="none"/>
  <text x="296.253" y="466" font-size="10" fill="#2ecc71">8D W5 penta</text>
  <circle cx="236" cy="462" r="84.547" stroke="#3498db" stroke-width="2" fill="#3498db" fill-opacity="0.08"/>
  <circle cx="320.547" cy="462" r="3" fill="#3498db" stroke="none"/>
  <circle cx="304.4" cy="412.3045" r="3" fill="#3498db" stroke="none"/>
  <circle cx="262.1265" cy="381.591" r="3" fill="#3498db" stroke="none"/>
  <circle cx="209.8735" cy="381.591" r="3" fill="#3498db" stroke="none"/>
  <circle cx="167.6" cy="412.3045" r="3" fill="#3498db" stroke="none"/>
  <circle cx="151.453" cy="462" r="3" fill="#3498db" stroke="none"/>
  <circle cx="167.6" cy="511.6955" r="3" fill="#3498db" stroke="none"/>
  <circle cx="209.8735" cy="542.409" r="3" fill="#3498db" stroke="none"/>
  <circle cx="262.1265" cy="542.409" r="3" fill="#3498db" stroke="none"/>
  <circle cx="304.4" cy="511.6955" r="3" fill="#3498db" stroke="none"/>
  <text x="328.547" y="466" font-size="10" fill="#3498db">10D W7 hepta</text>
  <circle cx="236" cy="462" r="136.8" stroke="#9b59b6" stroke-width="2" fill="#9b59b6" fill-opacity="0.08"/>
  <circle cx="372.8" cy="462" r="3" fill="#9b59b6" stroke="none"/>
  <circle cx="354.4723" cy="393.6" r="3" fill="#9b59b6" stroke="none"/>
  <circle cx="304.4" cy="343.5277" r="3" fill="#9b59b6" stroke="none"/>
  <circle cx="236" cy="325.2" r="3" fill="#9b59b6" stroke="none"/>
  <circle cx="167.6" cy="343.5277" r="3" fill="#9b59b6" stroke="none"/>
  <circle cx="117.5277" cy="393.6" r="3" fill="#9b59b6" stroke="none"/>
  <circle cx="99.2" cy="462" r="3" fill="#9b59b6" stroke="none"/>
  <circle cx="117.5277" cy="530.4" r="3" fill="#9b59b6" stroke="none"/>
  <circle cx="167.6" cy="580.4723" r="3" fill="#9b59b6" stroke="none"/>
  <circle cx="236" cy="598.8" r="3" fill="#9b59b6" stroke="none"/>
  <circle cx="304.4" cy="580.4723" r="3" fill="#9b59b6" stroke="none"/>
  <circle cx="354.4723" cy="530.4" r="3" fill="#9b59b6" stroke="none"/>
  <text x="380.8" y="466" font-size="10" fill="#9b59b6">12D W9 crown</text>
</g>
  <line x1="218.4945" y1="518.5074" x2="289.7046" y2="512.8645" stroke="#8B4513" stroke-width="1.2"/>
  <line x1="218.4945" y1="518.5074" x2="218.4945" y2="421.5093" stroke="#DC143C" stroke-width="1.2"/>
  <line x1="218.4945" y1="518.5074" x2="218.4945" y2="502.4907" stroke="#4169E1" stroke-width="1.2"/>
  <line x1="218.4945" y1="518.5074" x2="186.4082" y2="508.9692" stroke="#228B22" stroke-width="1.2"/>
  <line x1="289.7046" y1="512.8645" x2="289.7046" y2="425.5528" stroke="#DC143C" stroke-width="1.2"/>
  <line x1="289.7046" y1="512.8645" x2="289.7046" y2="498.4472" stroke="#4169E1" stroke-width="1.2"/>
  <line x1="289.7046" y1="512.8645" x2="249.3221" y2="505.0037" stroke="#228B22" stroke-width="1.2"/>
  <line x1="218.4945" y1="421.5093" x2="289.7046" y2="425.5528" stroke="#8B4513" stroke-width="1.2"/>
  <line x1="218.4945" y1="421.5093" x2="218.4945" y2="405.4926" stroke="#4169E1" stroke-width="1.2"/>
  <line x1="218.4945" y1="421.5093" x2="186.4082" y2="428.344" stroke="#228B22" stroke-width="1.2"/>
  <line x1="289.7046" y1="425.5528" x2="289.7046" y2="411.1355" stroke="#4169E1" stroke-width="1.2"/>
  <line x1="289.7046" y1="425.5528" x2="249.3221" y2="431.1855" stroke="#228B22" stroke-width="1.2"/>
  <line x1="218.4945" y1="502.4907" x2="289.7046" y2="498.4472" stroke="#8B4513" stroke-width="1.2"/>
  <line x1="218.4945" y1="502.4907" x2="218.4945" y2="405.4926" stroke="#DC143C" stroke-width="1.2"/>
  <line x1="218.4945" y1="502.4907" x2="186.4082" y2="495.656" stroke="#228B22" stroke-width="1.2"/>
  <line x1="289.7046" y1="498.4472" x2="289.7046" y2="411.1355" stroke="#DC143C" stroke-width="1.2"/>
  <line x1="289.7046" y1="498.4472" x2="249.3221" y2="492.8145" stroke="#228B22" stroke-width="1.2"/>
  <line x1="218.4945" y1="405.4926" x2="289.7046" y2="411.1355" stroke="#8B4513" stroke-width="1.2"/>
  <line x1="218.4945" y1="405.4926" x2="186.4082" y2="415.0308" stroke="#228B22" stroke-width="1.2"/>
  <line x1="289.7046" y1="411.1355" x2="249.3221" y2="418.9963" stroke="#228B22" stroke-width="1.2"/>
  <line x1="186.4082" y1="508.9692" x2="249.3221" y2="505.0037" stroke="#8B4513" stroke-width="1.2"/>
  <line x1="186.4082" y1="508.9692" x2="186.4082" y2="428.344" stroke="#DC143C" stroke-width="1.2"/>
  <line x1="186.4082" y1="508.9692" x2="186.4082" y2="495.656" stroke="#4169E1" stroke-width="1.2"/>
  <line x1="249.3221" y1="505.0037" x2="249.3221" y2="431.1855" stroke="#DC143C" stroke-width="1.2"/>
  <line x1="249.3221" y1="505.0037" x2="249.3221" y2="492.8145" stroke="#4169E1" stroke-width="1.2"/>
  <line x1="186.4082" y1="428.344" x2="249.3221" y2="431.1855" stroke="#8B4513" stroke-width="1.2"/>
  <line x1="186.4082" y1="428.344" x2="186.4082" y2="415.0308" stroke="#4169E1" stroke-width="1.2"/>
  <line x1="249.3221" y1="431.1855" x2="249.3221" y2="418.9963" stroke="#4169E1" stroke-width="1.2"/>
  <line x1="186.4082" y1="495.656" x2="249.3221" y2="492.8145" stroke="#8B4513" stroke-width="1.2"/>
  <line x1="186.4082" y1="495.656" x2="186.4082" y2="415.0308" stroke="#DC143C" stroke-width="1.2"/>
  <line x1="249.3221" y1="492.8145" x2="249.3221" y2="418.9963" stroke="#DC143C" stroke-width="1.2"/>
  <line x1="186.4082" y1="415.0308" x2="249.3221" y2="418.9963" stroke="#8B4513" stroke-width="1.2"/>
  <circle cx="218.4945" cy="518.5074" r="3" fill="#8B4513" stroke="#333" stroke-width="0.5"/>
  <circle cx="289.7046" cy="512.8645" r="3" fill="#DC143C" stroke="#333" stroke-width="0.5"/>
  <circle cx="218.4945" cy="421.5093" r="3" fill="#DC143C" stroke="#333" stroke-width="0.5"/>
  <circle cx="289.7046" cy="425.5528" r="3" fill="#4169E1" stroke="#333" stroke-width="0.5"/>
  <circle cx="218.4945" cy="502.4907" r="3" fill="#DC143C" stroke="#333" stroke-width="0.5"/>
  <circle cx="289.7046" cy="498.4472" r="3" fill="#4169E1" stroke="#333" stroke-width="0.5"/>
  <circle cx="218.4945" cy="405.4926" r="3" fill="#4169E1" stroke="#333" stroke-width="0.5"/>
  <circle cx="289.7046" cy="411.1355" r="3" fill="#228B22" stroke="#333" stroke-width="0.5"/>
  <circle cx="186.4082" cy="508.9692" r="3" fill="#DC143C" stroke="#333" stroke-width="0.5"/>
  <circle cx="249.3221" cy="505.0037" r="3" fill="#4169E1" stroke="#333" stroke-width="0.5"/>
  <circle cx="186.4082" cy="428.344" r="3" fill="#4169E1" stroke="#333" stroke-width="0.5"/>
  <circle cx="249.3221" cy="431.1855" r="3" fill="#228B22" stroke="#333" stroke-width="0.5"/>
  <circle cx="186.4082" cy="495.656" r="3" fill="#4169E1" stroke="#333" stroke-width="0.5"/>
  <circle cx="249.3221" cy="492.8145" r="3" fill="#228B22" stroke="#333" stroke-width="0.5"/>
  <circle cx="186.4082" cy="415.0308" r="3" fill="#228B22" stroke="#333" stroke-width="0.5"/>
  <circle cx="249.3221" cy="418.9963" r="3" fill="#8B4513" stroke="#333" stroke-width="0.5"/>
  <g>
  <polyline points="279.2003,455.5932 277.102,453.3993 274.3274,451.3477 270.9159,449.4743 266.9156,447.8128 262.3828,446.3943 257.3813,445.247 251.9824,444.3958 246.2642,443.8618 240.3103,443.6622 234.21,443.8094 228.0564,444.3112 221.9459,445.1701 215.9767,446.3832 210.2477,447.9418 204.8569,449.8314 199.8997,452.0317 195.4677,454.5164 191.6462,457.2533 188.5135,460.2049 186.1383,463.3285 184.5785,466.5767 183.8797,469.8982 184.0733,473.2385 185.1761,476.5405 187.1888,479.746 190.0954,482.7962 193.8632,485.6334 198.4424,488.2016 203.7668,490.448 209.7542,492.3243 216.3081,493.7873 223.3187,494.8007 230.6651,495.3352 238.2173,495.3701 245.8388,494.8934 253.3892,493.9027 260.727,492.4049 267.7127,490.4171 274.2117,487.9657 280.0971,485.0863 285.2528,481.8233 289.5758,478.2289 292.9787,474.3621 295.3918,470.2876 296.7646,466.0745 297.0671,461.7951 296.2905,457.5231 294.4475,453.332" stroke="#9b59b6" stroke-width="0.5" fill="none" stroke-opacity="0.6"/>
  <polyline points="281.7415,455.2164 279.5137,452.7151 276.5593,450.3695 272.9235,448.2202 268.6617,446.305 263.8387,444.6585 258.5279,443.3116 252.8106,442.2907 246.775,441.6177 240.5151,441.3095 234.1294,441.3773 227.7198,441.8269 221.39,442.658 215.2441,443.8641 209.3851,445.4328 203.9131,447.3453 198.924,449.5768 194.5076,452.0967 190.7459,454.8689 187.7117,457.8521 185.467,461.0005 184.0618,464.2641 183.5327,467.5902 183.9018,470.9231 185.1761,474.2061 187.3469,477.3817 190.3893,480.3931 194.2626,483.185 198.9103,485.7046 204.261,487.903 210.2291,489.7359 216.7164,491.1647 223.6136,492.1573 230.8019,492.6888 238.1555,492.7423 245.5437,492.3095 252.8334,491.3905 259.8917,489.9946 266.5885,488.1398 272.7993,485.8528 278.4072,483.1686 283.306,480.1298 287.4021,476.7859 290.6165,473.1925 292.8864,469.4102 294.167,465.5033 294.4318,461.5387 293.6741,457.5846 291.9063,453.7089" stroke="#9b59b6" stroke-width="0.5" fill="none" stroke-opacity="0.6"/>
  <polyline points="284.2827,454.8395 281.9253,452.0309 278.7912,449.3912 274.9311,446.966 270.4079,444.7971 265.2946,442.9227 259.6744,441.3761 253.6387,440.1856 247.2858,439.3736 240.7198,438.9568 234.0488,438.9452 227.3832,439.3426 220.8342,440.1459 214.5115,441.3451 208.5225,442.9238 202.9694,444.8591 197.9484,447.1218 193.5476,449.6771 189.8455,452.4845 186.9098,455.4993 184.7957,458.6724 183.5451,461.9516 183.1858,465.2821 183.7303,468.6078 185.1761,471.8717 187.5049,475.0175 190.6831,477.9901 194.6619,480.7366 199.3782,483.2077 204.7552,485.358 210.704,487.1476 217.1248,488.5421 223.9085,489.5139 230.9387,490.0424 238.0936,490.1146 245.2485,489.7256 252.2775,488.8784 259.0564,487.5843 265.4644,485.8625 271.3868,483.7399 276.7173,481.2509 281.3592,478.4362 285.2285,475.3429 288.2543,472.023 290.381,468.5329 291.5693,464.9321 291.7965,461.2823 291.0576,457.6461 289.3651,454.0858" stroke="#9b59b6" stroke-width="0.5" fill="none" stroke-opacity="0.6"/>
  <polyline points="286.8239,454.4626 284.337,451.3467 281.023,448.413 276.9387,445.7118 272.154,443.2893 266.7506,441.187 260.821,439.4407 254.4668,438.0805 247.7966,437.1295 240.9245,436.6041 233.9682,436.5132 227.0467,436.8584 220.2783,437.6337 213.779,438.826 207.6598,440.4148 202.0256,442.3729 196.9727,444.6669 192.5875,447.2574 188.9452,450.1002 186.1079,453.1466 184.1244,456.3444 183.0284,459.6391 182.8388,462.9741 183.5588,466.2925 185.1761,469.5374 187.663,472.6533 190.977,475.587 195.0613,478.2882 199.846,480.7107 205.2494,482.813 211.179,484.5593 217.5332,485.9195 224.2034,486.8705 231.0755,487.3959 238.0318,487.4868 244.9533,487.1416 251.7217,486.3663 258.221,485.174 264.3402,483.5852 269.9744,481.6271 275.0273,479.3331 279.4125,476.7426 283.0548,473.8998 285.8921,470.8534 287.8756,467.6556 288.9716,464.3609 289.1612,461.0259 288.4412,457.7075 286.8239,454.4626" stroke="#9b59b6" stroke-width="0.5" fill="none" stroke-opacity="0.6"/>
  <polyline points="289.3651,454.0858 286.7487,450.6625 283.2549,447.4348 278.9463,444.4576 273.9001,441.7815 268.2065,439.4512 261.9676,437.5053 255.2949,435.9754 248.3074,434.8854 241.1293,434.2514 233.8876,434.0811 226.7101,434.3741 219.7225,435.1216 213.0464,436.3069 206.7972,437.9058 201.0818,439.8868 195.997,442.2119 191.6275,444.8377 188.0448,447.7158 185.3061,450.7938 183.4531,454.0164 182.5117,457.3265 182.4919,460.666 183.3873,463.9771 185.1761,467.203 187.8211,470.2891 191.2708,473.1839 195.4606,475.8398 200.3139,478.2137 205.7437,480.2681 211.6539,481.971 217.9416,483.2969 224.4983,484.2271 231.2123,484.7495 237.9699,484.8591 244.6582,484.5577 251.1658,483.8541 257.3857,482.7637 263.216,481.3079 268.562,479.5142 273.3374,477.4154 277.4657,475.049 280.8812,472.4568 283.5298,469.6839 285.3702,466.7783 286.3739,463.7898 286.5259,460.7695 285.8247,457.769 284.2827,454.8395" stroke="#9b59b6" stroke-width="0.5" fill="none" stroke-opacity="0.6"/>
  <polyline points="291.9063,453.7089 289.1604,449.9783 285.4868,446.4565 280.9539,443.2035 275.6462,440.2736 269.6624,437.7154 263.1142,435.5699 256.123,433.8703 248.8182,432.6413 241.334,431.8987 233.807,431.649 226.3735,431.8898 219.1666,432.6095 212.3138,433.7879 205.9346,435.3968 200.1381,437.4006 195.0213,439.757 190.6674,442.4181 187.1445,445.3314 184.5042,448.441 182.7817,451.6884 181.995,455.014 182.1449,458.358 183.2158,461.6618 185.1761,464.8686 187.9791,467.9249 191.5646,470.7809 195.8599,473.3914 200.7818,475.7168 206.2379,477.7231 212.1288,479.3826 218.35,480.6743 224.7932,481.5837 231.3491,482.1031 237.9081,482.2313 244.363,481.9738 250.61,481.342 256.5504,480.3534 262.0918,479.0306 267.1495,477.4013 271.6475,475.4977 275.5189,473.3555 278.7075,471.0138 281.1676,468.5144 282.8648,465.9009 283.7762,463.2186 283.8905,460.5131 283.2083,457.8305 281.7415,455.2164" stroke="#9b59b6" stroke-width="0.5" fill="none" stroke-opacity="0.6"/>
  <polyline points="279.2003,455.5932 281.7415,455.2164 284.2827,454.8395 286.8239,454.4626 289.3651,454.0858 291.9063,453.7089" stroke="#999" stroke-width="0.5" fill="none" stroke-opacity="0.6"/>
  <polyline points="266.9156,447.8128 268.6617,446.305 270.4079,444.7971 272.154,443.2893 273.9001,441.7815 275.6462,440.2736" stroke="#999" stroke-width="0.5" fill="none" stroke-opacity="0.6"/>
  <polyline points="246.2642,443.8618 246.775,441.6177 247.2858,439.3736 247.7966,437.1295 248.3074,434.8854 248.8182,432.6413" stroke="#999" stroke-width="0.5" fill="none" stroke-opacity="0.6"/>
  <polyline points="221.9459,445.1701 221.39,442.658 220.8342,440.1459 220.2783,437.6337 219.7225,435.1216 219.1666,432.6095" stroke="#999" stroke-width="0.5" fill="none" stroke-opacity="0.6"/>
  <polyline points="199.8997,452.0317 198.924,449.5768 197.9484,447.1218 196.9727,444.6669 195.997,442.2119 195.0213,439.757" stroke="#999" stroke-width="0.5" fill="none" stroke-opacity="0.6"/>
  <polyline points="186.1383,463.3285 185.467,461.0005 184.7957,458.6724 184.1244,456.3444 183.4531,454.0164 182.7817,451.6884" stroke="#999" stroke-width="0.5" fill="none" stroke-opacity="0.6"/>
  <polyline points="185.1761,476.5405 185.1761,474.2061 185.1761,471.8717 185.1761,469.5374 185.1761,467.203 185.1761,464.8686" stroke="#999" stroke-width="0.5" fill="none" stroke-opacity="0.6"/>
  <polyline points="198.4424,488.2016 198.9103,485.7046 199.3782,483.2077 199.846,480.7107 200.3139,478.2137 200.7818,475.7168" stroke="#999" stroke-width="0.5" fill="none" stroke-opacity="0.6"/>
  <polyline points="223.3187,494.8007 223.6136,492.1573 223.9085,489.5139 224.2034,486.8705 224.4983,484.2271 224.7932,481.5837" stroke="#999" stroke-width="0.5" fill="none" stroke-opacity="0.6"/>
  <polyline points="253.3892,493.9027 252.8334,491.3905 252.2775,488.8784 251.7217,486.3663 251.1658,483.8541 250.61,481.342" stroke="#999" stroke-width="0.5" fill="none" stroke-opacity="0.6"/>
  <polyline points="280.0971,485.0863 278.4072,483.1686 276.7173,481.2509 275.0273,479.3331 273.3374,477.4154 271.6475,475.4977" stroke="#999" stroke-width="0.5" fill="none" stroke-opacity="0.6"/>
  <polyline points="295.3918,470.2876 292.8864,469.4102 290.381,468.5329 287.8756,467.6556 285.3702,466.7783 282.8648,465.9009" stroke="#999" stroke-width="0.5" fill="none" stroke-opacity="0.6"/>
</g>
</g>
</g>
  <g transform="rotate(-4.9,400,400)">
  <g>
  <polygon points="553,301 704.5544,563.5 401.4456,563.5" fill="none" stroke="#333" stroke-width="1.5"/>
  <polygon points="553,344.75 666.6658,541.625 439.3342,541.625" fill="none" stroke="#333" stroke-width="1.5"/>
  <polygon points="553,388.5 628.7772,519.75 477.2228,519.75" fill="none" stroke="#333" stroke-width="1.5"/>
  <polygon points="553,423.5 598.4663,502.25 507.5337,502.25" fill="none" stroke="#333" stroke-width="1.5"/>
  <polygon points="553,642.25 409.0233,392.875 696.9767,392.875" fill="none" stroke="#333" stroke-width="1.5"/>
  <polygon points="553,598.5 446.9119,414.75 659.0881,414.75" fill="none" stroke="#333" stroke-width="1.5"/>
  <polygon points="553,560 480.2539,434 625.7461,434" fill="none" stroke="#333" stroke-width="1.5"/>
  <polygon points="553,525 510.5648,451.5 595.4352,451.5" fill="none" stroke="#333" stroke-width="1.5"/>
  <polygon points="553,502.25 530.2668,462.875 575.7332,462.875" fill="none" stroke="#333" stroke-width="1.5"/>
</g>
</g>
  <g>
  <g>
  <circle cx="544" cy="459" r="16.2306" stroke="#e74c3c" stroke-width="2" fill="#e74c3c" fill-opacity="0.08"/>
  <circle cx="560.2306" cy="459" r="3" fill="#e74c3c" stroke="none"/>
  <circle cx="535.8847" cy="444.9439" r="3" fill="#e74c3c" stroke="none"/>
  <circle cx="535.8847" cy="473.0561" r="3" fill="#e74c3c" stroke="none"/>
  <text x="568.2306" y="463" font-size="10" fill="#e74c3c">3D c3 seed</text>
  <circle cx="544" cy="459" r="26.2616" stroke="#e67e22" stroke-width="2" fill="#e67e22" fill-opacity="0.08"/>
  <circle cx="570.2616" cy="459" r="3" fill="#e67e22" stroke="none"/>
  <circle cx="544" cy="432.7384" r="3" fill="#e67e22" stroke="none"/>
  <circle cx="517.7384" cy="459" r="3" fill="#e67e22" stroke="none"/>
  <circle cx="544" cy="485.2616" r="3" fill="#e67e22" stroke="none"/>
  <text x="578.2616" y="463" font-size="10" fill="#e67e22">4D E4 base</text>
  <circle cx="544" cy="459" r="42.4922" stroke="#f1c40f" stroke-width="2" fill="#f1c40f" fill-opacity="0.08"/>
  <circle cx="586.4922" cy="459" r="3" fill="#f1c40f" stroke="none"/>
  <circle cx="565.2461" cy="422.2006" r="3" fill="#f1c40f" stroke="none"/>
  <circle cx="522.7539" cy="422.2006" r="3" fill="#f1c40f" stroke="none"/>
  <circle cx="501.5078" cy="459" r="3" fill="#f1c40f" stroke="none"/>
  <circle cx="522.7539" cy="495.7994" r="3" fill="#f1c40f" stroke="none"/>
  <circle cx="565.2461" cy="495.7994" r="3" fill="#f1c40f" stroke="none"/>
  <text x="594.4922" y="463" font-size="10" fill="#f1c40f">6D W3 Mobius</text>
  <circle cx="544" cy="459" r="68.7539" stroke="#2ecc71" stroke-width="2" fill="#2ecc71" fill-opacity="0.08"/>
  <circle cx="612.7539" cy="459" r="3" fill="#2ecc71" stroke="none"/>
  <circle cx="592.6163" cy="410.3837" r="3" fill="#2ecc71" stroke="none"/>
  <circle cx="544" cy="390.2461" r="3" fill="#2ecc71" stroke="none"/>
  <circle cx="495.3837" cy="410.3837" r="3" fill="#2ecc71" stroke="none"/>
  <circle cx="475.2461" cy="459" r="3" fill="#2ecc71" stroke="none"/>
  <circle cx="495.3837" cy="507.6163" r="3" fill="#2ecc71" stroke="none"/>
  <circle cx="544" cy="527.7539" r="3" fill="#2ecc71" stroke="none"/>
  <circle cx="592.6163" cy="507.6163" r="3" fill="#2ecc71" stroke="none"/>
  <text x="620.7539" y="463" font-size="10" fill="#2ecc71">8D W5 penta</text>
  <circle cx="544" cy="459" r="111.2461" stroke="#3498db" stroke-width="2" fill="#3498db" fill-opacity="0.08"/>
  <circle cx="655.2461" cy="459" r="3" fill="#3498db" stroke="none"/>
  <circle cx="634" cy="393.6112" r="3" fill="#3498db" stroke="none"/>
  <circle cx="578.3769" cy="353.1987" r="3" fill="#3498db" stroke="none"/>
  <circle cx="509.6231" cy="353.1987" r="3" fill="#3498db" stroke="none"/>
  <circle cx="454" cy="393.6112" r="3" fill="#3498db" stroke="none"/>
  <circle cx="432.7539" cy="459" r="3" fill="#3498db" stroke="none"/>
  <circle cx="454" cy="524.3888" r="3" fill="#3498db" stroke="none"/>
  <circle cx="509.6231" cy="564.8013" r="3" fill="#3498db" stroke="none"/>
  <circle cx="578.3769" cy="564.8013" r="3" fill="#3498db" stroke="none"/>
  <circle cx="634" cy="524.3888" r="3" fill="#3498db" stroke="none"/>
  <text x="663.2461" y="463" font-size="10" fill="#3498db">10D W7 hepta</text>
  <circle cx="544" cy="459" r="180" stroke="#9b59b6" stroke-width="2" fill="#9b59b6" fill-opacity="0.08"/>
  <circle cx="724" cy="459" r="3" fill="#9b59b6" stroke="none"/>
  <circle cx="699.8846" cy="369" r="3" fill="#9b59b6" stroke="none"/>
  <circle cx="634" cy="303.1154" r="3" fill="#9b59b6" stroke="none"/>
  <circle cx="544" cy="279" r="3" fill="#9b59b6" stroke="none"/>
  <circle cx="454" cy="303.1154" r="3" fill="#9b59b6" stroke="none"/>
  <circle cx="388.1154" cy="369" r="3" fill="#9b59b6" stroke="none"/>
  <circle cx="364" cy="459" r="3" fill="#9b59b6" stroke="none"/>
  <circle cx="388.1154" cy="549" r="3" fill="#9b59b6" stroke="none"/>
  <circle cx="454" cy="614.8846" r="3" fill="#9b59b6" stroke="none"/>
  <circle cx="544" cy="639" r="3" fill="#9b59b6" stroke="none"/>
  <circle cx="634" cy="614.8846" r="3" fill="#9b59b6" stroke="none"/>
  <circle cx="699.8846" cy="549" r="3" fill="#9b59b6" stroke="none"/>
  <text x="732" y="463" font-size="10" fill="#9b59b6">12D W9 crown</text>
</g>
  <line x1="520.9665" y1="533.3518" x2="614.6639" y2="525.927" stroke="#8B4513" stroke-width="1.2"/>
  <line x1="520.9665" y1="533.3518" x2="520.9665" y2="405.7228" stroke="#DC143C" stroke-width="1.2"/>
  <line x1="520.9665" y1="533.3518" x2="520.9665" y2="512.2772" stroke="#4169E1" stroke-width="1.2"/>
  <line x1="520.9665" y1="533.3518" x2="478.7477" y2="520.8016" stroke="#228B22" stroke-width="1.2"/>
  <line x1="614.6639" y1="525.927" x2="614.6639" y2="411.0431" stroke="#DC143C" stroke-width="1.2"/>
  <line x1="614.6639" y1="525.927" x2="614.6639" y2="506.9569" stroke="#4169E1" stroke-width="1.2"/>
  <line x1="614.6639" y1="525.927" x2="561.5291" y2="515.5838" stroke="#228B22" stroke-width="1.2"/>
  <line x1="520.9665" y1="405.7228" x2="614.6639" y2="411.0431" stroke="#8B4513" stroke-width="1.2"/>
  <line x1="520.9665" y1="405.7228" x2="520.9665" y2="384.6482" stroke="#4169E1" stroke-width="1.2"/>
  <line x1="520.9665" y1="405.7228" x2="478.7477" y2="414.7158" stroke="#228B22" stroke-width="1.2"/>
  <line x1="614.6639" y1="411.0431" x2="614.6639" y2="392.073" stroke="#4169E1" stroke-width="1.2"/>
  <line x1="614.6639" y1="411.0431" x2="561.5291" y2="418.4546" stroke="#228B22" stroke-width="1.2"/>
  <line x1="520.9665" y1="512.2772" x2="614.6639" y2="506.9569" stroke="#8B4513" stroke-width="1.2"/>
  <line x1="520.9665" y1="512.2772" x2="520.9665" y2="384.6482" stroke="#DC143C" stroke-width="1.2"/>
  <line x1="520.9665" y1="512.2772" x2="478.7477" y2="503.2842" stroke="#228B22" stroke-width="1.2"/>
  <line x1="614.6639" y1="506.9569" x2="614.6639" y2="392.073" stroke="#DC143C" stroke-width="1.2"/>
  <line x1="614.6639" y1="506.9569" x2="561.5291" y2="499.5454" stroke="#228B22" stroke-width="1.2"/>
  <line x1="520.9665" y1="384.6482" x2="614.6639" y2="392.073" stroke="#8B4513" stroke-width="1.2"/>
  <line x1="520.9665" y1="384.6482" x2="478.7477" y2="397.1984" stroke="#228B22" stroke-width="1.2"/>
  <line x1="614.6639" y1="392.073" x2="561.5291" y2="402.4162" stroke="#228B22" stroke-width="1.2"/>
  <line x1="478.7477" y1="520.8016" x2="561.5291" y2="515.5838" stroke="#8B4513" stroke-width="1.2"/>
  <line x1="478.7477" y1="520.8016" x2="478.7477" y2="414.7158" stroke="#DC143C" stroke-width="1.2"/>
  <line x1="478.7477" y1="520.8016" x2="478.7477" y2="503.2842" stroke="#4169E1" stroke-width="1.2"/>
  <line x1="561.5291" y1="515.5838" x2="561.5291" y2="418.4546" stroke="#DC143C" stroke-width="1.2"/>
  <line x1="561.5291" y1="515.5838" x2="561.5291" y2="499.5454" stroke="#4169E1" stroke-width="1.2"/>
  <line x1="478.7477" y1="414.7158" x2="561.5291" y2="418.4546" stroke="#8B4513" stroke-width="1.2"/>
  <line x1="478.7477" y1="414.7158" x2="478.7477" y2="397.1984" stroke="#4169E1" stroke-width="1.2"/>
  <line x1="561.5291" y1="418.4546" x2="561.5291" y2="402.4162" stroke="#4169E1" stroke-width="1.2"/>
  <line x1="478.7477" y1="503.2842" x2="561.5291" y2="499.5454" stroke="#8B4513" stroke-width="1.2"/>
  <line x1="478.7477" y1="503.2842" x2="478.7477" y2="397.1984" stroke="#DC143C" stroke-width="1.2"/>
  <line x1="561.5291" y1="499.5454" x2="561.5291" y2="402.4162" stroke="#DC143C" stroke-width="1.2"/>
  <line x1="478.7477" y1="397.1984" x2="561.5291" y2="402.4162" stroke="#8B4513" stroke-width="1.2"/>
  <circle cx="520.9665" cy="533.3518" r="3" fill="#8B4513" stroke="#333" stroke-width="0.5"/>
  <circle cx="614.6639" cy="525.927" r="3" fill="#DC143C" stroke="#333" stroke-width="0.5"/>
  <circle cx="520.9665" cy="405.7228" r="3" fill="#DC143C" stroke="#333" stroke-width="0.5"/>
  <circle cx="614.6639" cy="411.0431" r="3" fill="#4169E1" stroke="#333" stroke-width="0.5"/>
  <circle cx="520.9665" cy="512.2772" r="3" fill="#DC143C" stroke="#333" stroke-width="0.5"/>
  <circle cx="614.6639" cy="506.9569" r="3" fill="#4169E1" stroke="#333" stroke-width="0.5"/>
  <circle cx="520.9665" cy="384.6482" r="3" fill="#4169E1" stroke="#333" stroke-width="0.5"/>
  <circle cx="614.6639" cy="392.073" r="3" fill="#228B22" stroke="#333" stroke-width="0.5"/>
  <circle cx="478.7477" cy="520.8016" r="3" fill="#DC143C" stroke="#333" stroke-width="0.5"/>
  <circle cx="561.5291" cy="515.5838" r="3" fill="#4169E1" stroke="#333" stroke-width="0.5"/>
  <circle cx="478.7477" cy="414.7158" r="3" fill="#4169E1" stroke="#333" stroke-width="0.5"/>
  <circle cx="561.5291" cy="418.4546" r="3" fill="#228B22" stroke="#333" stroke-width="0.5"/>
  <circle cx="478.7477" cy="503.2842" r="3" fill="#4169E1" stroke="#333" stroke-width="0.5"/>
  <circle cx="561.5291" cy="499.5454" r="3" fill="#228B22" stroke="#333" stroke-width="0.5"/>
  <circle cx="478.7477" cy="397.1984" r="3" fill="#228B22" stroke="#333" stroke-width="0.5"/>
  <circle cx="561.5291" cy="402.4162" r="3" fill="#8B4513" stroke="#333" stroke-width="0.5"/>
  <g>
  <polyline points="600.8425,450.57 598.0816,447.6833 594.4307,444.9838 589.942,442.5189 584.6785,440.3327 578.7142,438.4662 572.1333,436.9566 565.0295,435.8366 557.5055,435.134 549.6715,434.8713 541.6447,435.065 533.5479,435.7253 525.5077,436.8554 517.6535,438.4515 510.1154,440.5023 503.0222,442.9887 496.4996,445.8839 490.668,449.1531 485.6398,452.7543 481.5178,456.638 478.3925,460.748 476.3402,465.022 475.4206,469.3924 475.6754,473.7874 477.1264,478.1322 479.7747,482.3499 483.5993,486.3634 488.5569,490.0966 494.5822,493.4758 501.5879,496.4316 509.466,498.9004 518.0896,500.8254 527.314,502.1588 536.9804,502.8621 546.9175,502.908 556.9458,502.2808 566.8805,500.9772 576.5356,499.0065 585.7273,496.391 594.2786,493.1654 602.0225,489.3767 608.8063,485.0833 614.4944,480.3538 618.972,475.2659 622.1471,469.9047 623.9535,464.3612 624.3515,458.7304 623.3296,453.1093 620.9046,447.5948" stroke="#9b59b6" stroke-width="0.5" fill="none" stroke-opacity="0.6"/>
  <polyline points="604.1862,450.0742 601.2548,446.783 597.3675,443.6967 592.5836,440.8686 586.976,438.3487 580.6299,436.1823 573.6419,434.41 566.1191,433.0667 558.1776,432.1812 549.9409,431.7756 541.5387,431.8649 533.105,432.4565 524.7763,433.55 516.6896,435.137 508.9804,437.201 501.7804,439.7174 495.2158,442.6537 489.4048,445.9694 484.4551,449.617 480.4627,453.5422 477.5092,457.6848 475.6603,461.9791 474.9641,466.3555 475.4497,470.7409 477.1264,475.0607 479.9827,479.2391 483.9859,483.2015 489.0824,486.875 495.1978,490.1903 502.2381,493.0829 510.0909,495.4947 518.6269,497.3746 527.7021,498.6806 537.1604,499.38 546.8361,499.4504 556.5574,498.8809 566.1492,497.6717 575.4364,495.835 584.2481,493.3945 592.4201,490.3853 599.7989,486.8534 606.2448,482.8549 611.6344,478.4551 615.8638,473.727 618.8506,468.7503 620.5355,463.6096 620.884,458.3931 619.8869,453.1902 617.5609,448.0906" stroke="#9b59b6" stroke-width="0.5" fill="none" stroke-opacity="0.6"/>
  <polyline points="607.5299,449.5783 604.4281,445.8827 600.3042,442.4095 595.2252,439.2184 589.2735,436.3647 582.5456,433.8983 575.1506,431.8633 567.2088,430.2968 558.8497,429.2284 550.2103,428.68 541.4327,428.6648 532.6622,429.1877 524.045,430.2445 515.7257,431.8224 507.8453,433.8997 500.5386,436.4462 493.9321,439.4235 488.1415,442.7856 483.2704,446.4797 479.4076,450.4465 476.6259,454.6216 474.9804,458.9363 474.5076,463.3186 475.2241,467.6945 477.1264,471.9891 480.1907,476.1283 484.3725,480.0396 489.6078,483.6534 495.8134,486.9048 502.8884,489.7343 510.7159,492.089 519.1643,493.9239 528.0901,495.2025 537.3404,495.8978 546.7548,495.9929 556.1691,495.481 565.4178,494.3663 574.3373,492.6636 582.7689,490.398 590.5616,487.6052 597.5753,484.3301 603.6832,480.6266 608.7743,476.5564 612.7556,472.1881 615.554,467.5959 617.1175,462.8581 617.4165,458.0557 616.4443,453.2711 614.2172,448.5865" stroke="#9b59b6" stroke-width="0.5" fill="none" stroke-opacity="0.6"/>
  <polyline points="610.8736,449.0824 607.6013,444.9825 603.2409,441.1224 597.8668,437.5682 591.571,434.3807 584.4613,431.6144 576.6592,429.3167 568.2984,427.5269 559.5218,426.2757 550.4796,425.5843 541.3266,425.4647 532.2193,425.9189 523.3136,426.9391 514.7618,428.5079 506.7103,430.5984 499.2968,433.1749 492.6483,436.1933 486.8783,439.6018 482.0858,443.3423 478.3526,447.3507 475.7426,451.5584 474.3005,455.8935 474.0511,460.2817 474.9984,464.648 477.1264,468.9176 480.3987,473.0175 484.7591,476.8776 490.1332,480.4318 496.429,483.6193 503.5387,486.3856 511.3408,488.6833 519.7016,490.4731 528.4782,491.7243 537.5204,492.4157 546.6734,492.5353 555.7807,492.0811 564.6864,491.0609 573.2382,489.4921 581.2897,487.4016 588.7032,484.8251 595.3517,481.8067 601.1217,478.3982 605.9142,474.6577 609.6474,470.6493 612.2574,466.4416 613.6995,462.1065 613.9489,457.7183 613.0016,453.352 610.8736,449.0824" stroke="#9b59b6" stroke-width="0.5" fill="none" stroke-opacity="0.6"/>
  <polyline points="614.2172,448.5865 610.7746,444.0822 606.1776,439.8352 600.5083,435.9179 593.8685,432.3967 586.377,429.3305 578.1679,426.7701 569.388,424.7571 560.1939,423.3229 550.749,422.4886 541.2206,422.2646 531.7765,422.6501 522.5822,423.6337 513.7979,425.1934 505.5753,427.2971 498.0551,429.9036 491.3645,432.9631 485.6151,436.4181 480.9011,440.205 477.2975,444.255 474.8593,448.4953 473.6207,452.8507 473.5946,457.2448 474.7728,461.6015 477.1264,465.8461 480.6067,469.9067 485.1458,473.7157 490.6587,477.2103 497.0446,480.3339 504.189,483.0369 511.9657,485.2776 520.2389,487.0223 528.8662,488.2462 537.7003,488.9336 546.592,489.0777 555.3923,488.6812 563.955,487.7555 572.1391,486.3206 579.8105,484.4051 586.8447,482.045 593.1281,479.2834 598.5601,476.1698 603.0542,472.759 606.5393,469.1104 608.9608,465.2872 610.2814,461.3549 610.4814,457.3809 609.5589,453.4329 607.5299,449.5783" stroke="#9b59b6" stroke-width="0.5" fill="none" stroke-opacity="0.6"/>
  <polyline points="617.5609,448.0906 613.9478,443.1819 609.1143,438.5481 603.1499,434.2677 596.166,430.4127 588.2927,427.0466 579.6766,424.2235 570.4777,421.9872 560.866,420.3701 551.0184,419.393 541.1145,419.0645 531.3336,419.3813 521.8508,420.3283 512.834,421.8788 504.4403,423.9958 496.8133,426.6324 490.0807,429.7329 484.3519,433.2343 479.7164,437.0677 476.2424,441.1592 473.976,445.4321 472.9408,449.8078 473.1381,454.2079 474.5471,458.555 477.1264,462.7745 480.8146,466.7959 485.5324,470.5538 491.1841,473.9887 497.6602,477.0484 504.8393,479.6882 512.5906,481.8719 520.7763,483.5715 529.2543,484.7681 537.8803,485.4514 546.5106,485.6202 555.0039,485.2813 563.2237,484.45 571.0399,483.1492 578.3313,481.4087 584.9862,479.2649 590.9045,476.7601 595.9986,473.9414 600.1941,470.8602 603.4311,467.5715 605.6642,464.1328 606.8634,460.6034 607.0139,457.0435 606.1162,453.5138 604.1862,450.0742" stroke="#9b59b6" stroke-width="0.5" fill="none" stroke-opacity="0.6"/>
  <polyline points="600.8425,450.57 604.1862,450.0742 607.5299,449.5783 610.8736,449.0824 614.2172,448.5865 617.5609,448.0906" stroke="#999" stroke-width="0.5" fill="none" stroke-opacity="0.6"/>
  <polyline points="584.6785,440.3327 586.976,438.3487 589.2735,436.3647 591.571,434.3807 593.8685,432.3967 596.166,430.4127" stroke="#999" stroke-width="0.5" fill="none" stroke-opacity="0.6"/>
  <polyline points="557.5055,435.134 558.1776,432.1812 558.8497,429.2284 559.5218,426.2757 560.1939,423.3229 560.866,420.3701" stroke="#999" stroke-width="0.5" fill="none" stroke-opacity="0.6"/>
  <polyline points="525.5077,436.8554 524.7763,433.55 524.045,430.2445 523.3136,426.9391 522.5822,423.6337 521.8508,420.3283" stroke="#999" stroke-width="0.5" fill="none" stroke-opacity="0.6"/>
  <polyline points="496.4996,445.8839 495.2158,442.6537 493.9321,439.4235 492.6483,436.1933 491.3645,432.9631 490.0807,429.7329" stroke="#999" stroke-width="0.5" fill="none" stroke-opacity="0.6"/>
  <polyline points="478.3925,460.748 477.5092,457.6848 476.6259,454.6216 475.7426,451.5584 474.8593,448.4953 473.976,445.4321" stroke="#999" stroke-width="0.5" fill="none" stroke-opacity="0.6"/>
  <polyline points="477.1264,478.1322 477.1264,475.0607 477.1264,471.9891 477.1264,468.9176 477.1264,465.8461 477.1264,462.7745" stroke="#999" stroke-width="0.5" fill="none" stroke-opacity="0.6"/>
  <polyline points="494.5822,493.4758 495.1978,490.1903 495.8134,486.9048 496.429,483.6193 497.0446,480.3339 497.6602,477.0484" stroke="#999" stroke-width="0.5" fill="none" stroke-opacity="0.6"/>
  <polyline points="527.314,502.1588 527.7021,498.6806 528.0901,495.2025 528.4782,491.7243 528.8662,488.2462 529.2543,484.7681" stroke="#999" stroke-width="0.5" fill="none" stroke-opacity="0.6"/>
  <polyline points="566.8805,500.9772 566.1492,497.6717 565.4178,494.3663 564.6864,491.0609 563.955,487.7555 563.2237,484.45" stroke="#999" stroke-width="0.5" fill="none" stroke-opacity="0.6"/>
  <polyline points="602.0225,489.3767 599.7989,486.8534 597.5753,484.3301 595.3517,481.8067 593.1281,479.2834 590.9045,476.7601" stroke="#999" stroke-width="0.5" fill="none" stroke-opacity="0.6"/>
  <polyline points="622.1471,469.9047 618.8506,468.7503 615.554,467.5959 612.2574,466.4416 608.9608,465.2872 605.6642,464.1328" stroke="#999" stroke-width="0.5" fill="none" stroke-opacity="0.6"/>
</g>
</g>
  <g>
  <line x1="556" y1="538" x2="695" y2="538" stroke="#333" stroke-width="1.5"/>
  <line x1="551.9594" y1="560.9153" x2="682.5767" y2="608.4561" stroke="#333" stroke-width="1.5"/>
  <line x1="540.325" y1="581.0668" x2="646.8052" y2="670.4142" stroke="#333" stroke-width="1.5"/>
  <line x1="522.5" y1="596.0237" x2="592" y2="716.4012" stroke="#333" stroke-width="1.5"/>
  <line x1="500.6344" y1="603.9821" x2="524.7715" y2="740.8704" stroke="#333" stroke-width="1.5"/>
  <line x1="477.3656" y1="603.9821" x2="453.2285" y2="740.8704" stroke="#333" stroke-width="1.5"/>
  <line x1="455.5" y1="596.0237" x2="386" y2="716.4012" stroke="#333" stroke-width="1.5"/>
  <line x1="437.675" y1="581.0668" x2="331.1948" y2="670.4142" stroke="#333" stroke-width="1.5"/>
  <line x1="426.0406" y1="560.9153" x2="295.4233" y2="608.4561" stroke="#333" stroke-width="1.5"/>
  <line x1="422" y1="538" x2="283" y2="538" stroke="#333" stroke-width="1.5"/>
  <line x1="426.0406" y1="515.0847" x2="295.4233" y2="467.5439" stroke="#333" stroke-width="1.5"/>
  <line x1="437.675" y1="494.9332" x2="331.1948" y2="405.5858" stroke="#333" stroke-width="1.5"/>
  <line x1="455.5" y1="479.9763" x2="386" y2="359.5988" stroke="#333" stroke-width="1.5"/>
  <line x1="477.3656" y1="472.0179" x2="453.2285" y2="335.1296" stroke="#333" stroke-width="1.5"/>
  <line x1="500.6344" y1="472.0179" x2="524.7715" y2="335.1296" stroke="#333" stroke-width="1.5"/>
  <line x1="522.5" y1="479.9763" x2="592" y2="359.5988" stroke="#333" stroke-width="1.5"/>
  <line x1="540.325" y1="494.9332" x2="646.8052" y2="405.5858" stroke="#333" stroke-width="1.5"/>
  <line x1="551.9594" y1="515.0847" x2="682.5767" y2="467.5439" stroke="#333" stroke-width="1.5"/>
</g>
</svg>