<svg xmlns="http://www.w3.org/2000/svg" width="800" height="800" viewBox="0 0 800 800">
  <g opacity="0.82">
  <g>
  <circle cx="91" cy="130" r="3" fill="#333"/>
  <circle cx="131" cy="130" r="3" fill="#333"/>
  <circle cx="171" cy="130" r="3" fill="#333"/>
  <circle cx="211" cy="130" r="3" fill="#333"/>
  <circle cx="251" cy="130" r="3" fill="#333"/>
  <circle cx="291" cy="130" r="3" fill="#333"/>
  <circle cx="111" cy="164.641" r="3" fill="#333"/>
  <circle cx="151" cy="164.641" r="3" fill="#333"/>
  <circle cx="191" cy="164.641" r="3" fill="#333"/>
  <circle cx="231" cy="164.641" r="3" fill="#333"/>
  <circle cx="271" cy="164.641" r="3" fill="#333"/>
  <circle cx="311" cy="164.641" r="3" fill="#333"/>
  <circle cx="91" cy="199.282" r="3" fill="#333"/>
  <circle cx="131" cy="199.282" r="3" fill="#333"/>
  <circle cx="171" cy="199.282" r="3" fill="#333"/>
  <circle cx="211" cy="199.282" r="3" fill="#333"/>
  <circle cx="251" cy="199.282" r="3" fill="#333"/>
  <circle cx="291" cy="199.282" r="3" fill="#333"/>
  <circle cx="111" cy="233.923" r="3" fill="#333"/>
  <circle cx="151" cy="233.923" r="3" fill="#333"/>
  <circle cx="191" cy="233.923" r="3" fill="#333"/>
  <circle cx="231" cy="233.923" r="3" fill="#333"/>
  <circle cx="271" cy="233.923" r="3" fill="#333"/>
  <circle cx="311" cy="233.923" r="3" fill="#333"/>
  <circle cx="91" cy="268.5641" r="3" fill="#333"/>
  <circle cx="131" cy="268.5641" r="3" fill="#333"/>
  <circle cx="171" cy="268.5641" r="3" fill="#333"/>
  <circle cx="211" cy="268.5641" r="3" fill="#333"/>
  <circle cx="251" cy="268.5641" r="3" fill="#333"/>
  <circle cx="291" cy="268.5641" r="3" fill="#333"/>
  <circle cx="111" cy="303.2051" r="3" fill="#333"/>
  <circle cx="151" cy="303.2051" r="3" fill="#333"/>
  <circle cx="191" cy="303.2051" r="3" fill="#333"/>
  <circle cx="231" cy="303.2051" r="3" fill="#333"/>
  <circle cx="271" cy="303.2051" r="3" fill="#333"/>
  <circle cx="311" cy="303.2051" r="3" fill="#333"/>
  <circle cx="91" cy="337.8461" r="3" fill="#333"/>
  <circle cx="131" cy="337.8461" r="3" fill="#333"/>
  <circle cx="171" cy="337.8461" r="3" fill="#333"/>
  <circle cx="211" cy="337.8461" r="3" fill="#333"/>
  <circle cx="251" cy="337.8461" r="3" fill="#333"/>
  <circle cx="291" cy="337.8461" r="3" fill="#333"/>
  <circle cx="111" cy="372.4871" r="3" fill="#333"/>
  <circle cx="151" cy="372.4871" r="3" fill="#333"/>
  <circle cx="191" cy="372.4871" r="3" fill="#333"/>
  <circle cx="231" cy="372.4871" r="3" fill="#333"/>
  <circle cx="271" cy="372.4871" r="3" fill="#333"/>
  <circle cx="311" cy="372.4871" r="3" fill="#333"/>
</g>
</g>
  <g>
  <polyline points="510.5752,435.3475 502.9408,433.5448 494.4263,432.0574 485.0911,430.9094 474.9989,430.124 464.2184,429.723 452.8233,429.7273 440.8933,430.1565 428.514,431.0287 415.7776,432.3602 402.7832,434.1651 389.6365,436.455 376.4503,439.2383 363.3439,442.5199 350.4428,446.3006 337.8777,450.5765 325.7841,455.3385 314.3006,460.5719 303.5678,466.2557 293.7263,472.3625 284.9152,478.8579 277.2698,485.7009 270.9194,492.8428 265.9851,500.2285 262.5775,507.7958 260.7941,515.476 260.7171,523.1947 262.4114,530.872 265.922,538.4237 271.2726,545.762 278.464,552.797 287.4727,559.4372 298.2498,565.5916 310.721,571.1704 324.786,576.0869 340.3192,580.2588 357.1706,583.6095 375.1666,586.0697 394.1125,587.5788 413.7941,588.0861 433.9807,587.5517 454.4278,585.948 474.8807,583.2601 495.0783,579.4868 514.7565,574.6405 533.6524,568.7481 551.5086,561.8505 568.0772,554.0025 583.1235,545.2721 596.4305,535.7402 607.8021,525.4992 617.0667,514.652 624.08,503.3108 628.7281,491.5952 630.9289,479.6309 630.6344,467.5476 627.8313,455.4771 622.5416,443.5517 614.8226,431.9018 604.766,420.6545 592.4968,409.9311" stroke="#333" stroke-width="0.8" fill="none"/>
  <polyline points="520.8154,432.1705 512.3446,429.3324 502.8698,426.8631 492.4695,424.7956 481.2285,423.1603 469.2388,421.9851 456.5983,421.2954 443.4116,421.1133 429.7895,421.458 415.8485,422.3451 401.7111,423.7863 387.5048,425.7894 373.3616,428.3577 359.4177,431.4894 345.8123,435.1779 332.6864,439.4109 320.1823,444.1703 308.4416,449.4321 297.6038,455.1658 287.8051,461.3349 279.1762,467.8961 271.8408,474.8 265.9133,481.991 261.4975,489.4074 258.684,496.982 257.5488,504.6426 258.1513,512.3125 260.533,519.9112 264.7154,527.3553 270.6995,534.5596 278.464,541.4379 287.9655,547.9041 299.1372,553.8736 311.8896,559.2643 326.1101,563.9979 341.6644,568.0012 358.3971,571.2072 376.1333,573.5563 394.6804,574.9976 413.8303,575.4896 433.3617,575.0013 453.0434,573.5128 472.6367,571.0161 491.8989,567.5156 510.5871,563.0279 528.4611,557.5826 545.2872,551.2215 560.8418,543.9987 574.9147,535.98 587.3125,527.2421 597.8618,517.8717 606.4116,507.9646 612.8362,497.6242 617.0374,486.9604 618.9459,476.088 618.5226,465.125 615.76,454.1913 610.6818,443.4065 603.343,432.8888 593.8295,422.7528 582.2566,413.1082" stroke="#333" stroke-width="0.8" fill="none"/>
  <polyline points="531.0556,428.9934 521.7484,425.12 511.3134,421.6689 499.8478,418.6818 487.4582,416.1966 474.2592,414.2473 460.3732,412.8635 445.9299,412.0701 431.065,411.8873 415.9195,412.3299 400.6391,413.4075 385.3731,415.1239 370.2729,417.4771 355.4915,420.459 341.1818,424.0553 327.4952,428.2453 314.5806,433.0021 302.5825,438.2923 291.6397,444.076 281.8838,450.3073 273.4372,456.9342 266.4117,463.8992 260.9073,471.1392 257.0098,478.5863 254.7904,486.1683 254.3034,493.8093 255.5855,501.4304 258.6546,508.9504 263.5089,516.287 270.1263,523.3572 278.464,530.0788 288.4583,536.371 300.0247,542.1556 313.0582,547.3582 327.4343,551.9088 343.0096,555.7435 359.6237,558.8049 377.1,561.043 395.2483,562.4165 413.8664,562.8932 432.7428,562.4509 451.6591,561.0776 470.3926,558.7721 488.7196,555.5443 506.4178,551.4153 523.2699,546.417 539.0658,540.5924 553.6064,533.9949 566.7059,526.6879 578.1946,518.7441 587.9215,510.2443 595.7565,501.2772 601.5924,491.9376 605.3468,482.3256 606.9628,472.5451 606.4109,462.7025 603.6887,452.9055 598.8219,443.2614 591.8634,433.8758 582.893,424.851 572.0164,416.2852" stroke="#333" stroke-width="0.8" fill="none"/>
  <polyline points="541.2958,425.8164 531.1522,420.9076 519.7569,416.4746 507.2262,412.5679 493.6878,409.2329 479.2795,406.5095 464.1482,404.4316 448.4483,403.027 432.3404,402.3166 415.9904,402.3148 399.5671,403.0287 383.2414,404.4583 367.1842,406.5965 351.5654,409.4285 336.5513,412.9326 322.3039,417.0798 308.9788,421.834 296.7234,427.1524 285.6757,432.9861 275.9626,439.2797 267.6981,445.9724 260.9827,452.9984 255.9012,460.2873 252.5222,467.7651 250.8969,475.3545 251.0581,482.9759 253.0197,490.5482 256.7761,497.9896 262.3023,505.2187 269.5531,512.1548 278.464,518.7197 288.9512,524.8379 300.9121,530.4376 314.2268,535.452 328.7584,539.8198 344.3548,543.4859 360.8503,546.4026 378.0667,548.5296 395.8162,549.8353 413.9026,550.2968 432.1239,549.9005 450.2747,548.6424 468.1485,546.5281 485.5402,543.5731 502.2485,539.8027 518.0786,535.2514 532.8444,529.9633 546.3711,523.9912 558.4971,517.3959 569.0767,510.246 577.9812,502.6169 585.1014,494.5898 590.3487,486.2511 593.6561,477.6908 594.9797,469.0022 594.2991,460.28 591.6175,451.6198 586.9621,443.1163 580.3838,434.8627 571.9565,426.9493 561.7762,419.4623" stroke="#333" stroke-width="0.8" fill="none"/>
  <polyline points="551.536,422.6393 540.556,416.6952 528.2004,411.2804 514.6046,406.4541 499.9174,402.2692 484.2999,398.7717 467.9232,395.9997 450.9666,393.9838 433.6159,392.7459 416.0613,392.2996 398.4951,392.6499 381.1096,393.7928 364.0955,395.7159 347.6392,398.3981 331.9208,401.81 317.1127,405.9142 303.377,410.6658 290.8643,416.0126 279.7117,421.8962 270.0413,428.2521 261.9591,435.0105 255.5537,442.0975 250.8951,449.4355 248.0346,456.944 247.0034,464.5407 247.8127,472.1425 250.4538,479.666 254.8977,487.0289 261.0958,494.1503 268.98,500.9525 278.464,507.3607 289.444,513.3048 301.7996,518.7196 315.3954,523.5459 330.0826,527.7308 345.7001,531.2283 362.0768,534.0003 379.0334,536.0162 396.3841,537.2541 413.9387,537.7004 431.5049,537.3501 448.8904,536.2072 465.9045,534.2841 482.3608,531.6019 498.0792,528.19 512.8873,524.0858 526.623,519.3342 539.1357,513.9874 550.2883,508.1038 559.9587,501.7479 568.0409,494.9895 574.4463,487.9025 579.1049,480.5645 581.9654,473.056 582.9966,465.4593 582.1873,457.8575 579.5462,450.334 575.1023,442.9711 568.9042,435.8497 561.02,429.0475 551.536,422.6393" stroke="#333" stroke-width="0.8" fill="none"/>
  <polyline points="561.7762,419.4623 549.9598,412.4829 536.6439,406.0861 521.9829,400.3403 506.1471,395.3056 489.3203,391.0339 471.6982,387.5679 453.4849,384.9406 434.8914,383.1752 416.1322,382.2844 397.423,382.271 378.9779,383.1272 361.0069,384.8353 343.713,387.3676 327.2903,390.6873 311.9214,394.7486 297.7752,399.4976 285.0052,404.8728 273.7476,410.8063 264.12,417.2244 256.2201,424.0487 250.1246,431.1967 245.8891,438.5837 243.547,446.1228 243.1098,453.7269 244.5674,461.3091 247.888,468.7839 253.0193,476.0681 259.8892,483.082 268.4068,489.7501 278.464,496.0016 289.9368,501.7716 302.687,507.0016 316.5641,511.6398 331.4067,515.6417 347.0453,518.9707 363.3034,521.598 380.0001,523.5029 396.952,524.673 413.9748,525.104 430.886,524.7998 447.506,523.772 463.6604,522.0401 479.1815,519.6307 493.9099,516.5774 507.6961,512.9202 520.4016,508.7052 531.9003,503.9836 542.0795,498.8117 550.8408,493.2499 558.1006,487.3621 563.7913,481.2151 567.8611,474.8779 570.2747,468.4212 571.0136,461.9164 570.0755,455.435 567.4749,449.0482 563.2424,442.826 557.4247,436.8366 550.0835,431.1458 541.2958,425.8164" stroke="#333" stroke-width="0.8" fill="none"/>
  <polyline points="572.0164,416.2852 559.3636,408.2705 545.0874,400.8919 529.3613,394.2264 512.3767,388.3419 494.3407,383.296 475.4731,379.136 456.0032,375.8974 436.1669,373.6044 416.2032,372.2693 396.351,371.8922 376.8462,372.4617 357.9182,373.9547 339.7868,376.3372 322.6598,379.5646 306.7301,383.583 292.1735,388.3294 279.1461,393.733 267.7836,399.7165 258.1988,406.1968 250.481,413.0868 244.6956,420.2959 240.883,427.7318 239.0593,435.3017 239.2163,442.9132 241.322,450.4757 245.3222,457.9017 251.1409,465.1073 258.6826,472.0137 267.8337,478.5477 278.464,484.6425 290.4297,490.2385 303.5745,495.2836 317.7327,499.7336 332.7309,503.5527 348.3905,506.7131 364.5299,509.1957 380.9668,510.9895 397.5198,512.0918 414.011,512.5076 430.2671,512.2494 446.1217,511.3368 461.4163,509.7961 476.0021,507.6595 489.7406,504.9648 502.5048,501.7547 514.1802,498.0761 524.665,493.9798 533.8707,489.5196 541.7228,484.7518 548.1603,479.7347 553.1362,474.5277 556.6173,469.1914 558.5841,463.7864 559.0305,458.3735 557.9637,453.0125 555.4036,447.7624 551.3826,442.6809 545.9451,437.8236 539.147,433.244 531.0556,428.9934" stroke="#333" stroke-width="0.8" fill="none"/>
  <polyline points="582.2566,413.1082 568.7674,404.0581 553.531,395.6977 536.7397,388.1126 518.6063,381.3782 499.3611,375.5582 479.2481,370.7041 458.5216,366.8542 437.4424,364.0337 416.2741,362.2541 395.279,361.5134 374.7145,361.7961 354.8295,363.0741 335.8606,365.3067 318.0293,368.442 301.5389,372.4174 286.5717,377.1612 273.2871,382.5932 261.8196,388.6266 252.2775,395.1692 244.742,402.1249 239.2666,409.3951 235.877,416.88 234.5717,424.4805 235.3227,432.0994 238.0767,439.6423 242.7563,447.0195 249.2625,454.1465 257.4761,460.9454 267.2605,467.3453 278.464,473.2834 290.9225,478.7054 304.4619,483.5656 318.9013,487.8275 334.055,491.4636 349.7357,494.4555 365.7565,496.7934 381.9335,498.4761 398.0877,499.5106 414.0471,499.9112 429.6481,499.699 444.7373,498.9016 459.1723,497.5521 472.8227,495.6883 485.5713,493.3522 497.3136,490.5891 507.9588,487.447 517.4296,483.976 525.6619,480.2276 532.6049,476.2538 538.22,472.1072 542.4811,467.8403 545.3735,463.5048 546.8934,459.1516 547.0474,454.8306 545.8519,450.59 543.3323,446.4767 539.5228,442.5358 534.4655,438.8105 528.2105,435.3423 520.8154,432.1705" stroke="#333" stroke-width="0.8" fill="none"/>
  <polyline points="510.5752,435.3475 520.8154,432.1705 531.0556,428.9934 541.2958,425.8164 551.536,422.6393 561.7762,419.4623 572.0164,416.2852 582.2566,413.1082" stroke="#999" stroke-width="0.5" fill="none"/>
  <polyline points="464.2184,429.723 469.2388,421.9851 474.2592,414.2473 479.2795,406.5095 484.2999,398.7717 489.3203,391.0339 494.3407,383.296 499.3611,375.5582" stroke="#999" stroke-width="0.5" fill="none"/>
  <polyline points="402.7832,434.1651 401.7111,423.7863 400.6391,413.4075 399.5671,403.0287 398.4951,392.6499 397.423,382.271 396.351,371.8922 395.279,361.5134" stroke="#999" stroke-width="0.5" fill="none"/>
  <polyline points="337.8777,450.5765 332.6864,439.4109 327.4952,428.2453 322.3039,417.0798 317.1127,405.9142 311.9214,394.7486 306.7301,383.583 301.5389,372.4174" stroke="#999" stroke-width="0.5" fill="none"/>
  <polyline points="284.9152,478.8579 279.1762,467.8961 273.4372,456.9342 267.6981,445.9724 261.9591,435.0105 256.2201,424.0487 250.481,413.0868 244.742,402.1249" stroke="#999" stroke-width="0.5" fill="none"/>
  <polyline points="260.7941,515.476 257.5488,504.6426 254.3034,493.8093 251.0581,482.9759 247.8127,472.1425 244.5674,461.3091 241.322,450.4757 238.0767,439.6423" stroke="#999" stroke-width="0.5" fill="none"/>
  <polyline points="278.464,552.797 278.464,541.4379 278.464,530.0788 278.464,518.7197 278.464,507.3607 278.464,496.0016 278.464,484.6425 278.464,473.2834" stroke="#999" stroke-width="0.5" fill="none"/>
  <polyline points="340.3192,580.2588 341.6644,568.0012 343.0096,555.7435 344.3548,543.4859 345.7001,531.2283 347.0453,518.9707 348.3905,506.7131 349.7357,494.4555" stroke="#999" stroke-width="0.5" fill="none"/>
  <polyline points="433.9807,587.5517 433.3617,575.0013 432.7428,562.4509 432.1239,549.9005 431.5049,537.3501 430.886,524.7998 430.2671,512.2494 429.6481,499.699" stroke="#999" stroke-width="0.5" fill="none"/>
  <polyline points="533.6524,568.7481 528.4611,557.5826 523.2699,546.417 518.0786,535.2514 512.8873,524.0858 507.6961,512.9202 502.5048,501.7547 497.3136,490.5891" stroke="#999" stroke-width="0.5" fill="none"/>
  <polyline points="607.8021,525.4992 597.8618,517.8717 587.9215,510.2443 577.9812,502.6169 568.0409,494.9895 558.1006,487.3621 548.1603,479.7347 538.22,472.1072" stroke="#999" stroke-width="0.5" fill="none"/>
  <polyline points="630.6344,467.5476 618.5226,465.125 606.4109,462.7025 594.2991,460.28 582.1873,457.8575 570.0755,455.435 557.9637,453.0125 545.8519,450.59" stroke="#999" stroke-width="0.5" fill="none"/>
</g>
  <g transform="rotate(174.3,400,400)">
  <g>
  <line x1="269.4628" y1="0" x2="269.4628" y2="558" stroke="#c0a040" stroke-width="1" stroke-opacity="0.6"/>
  <line x1="372.3885" y1="0" x2="372.3885" y2="558" stroke="#c0a040" stroke-width="1" stroke-opacity="0.6"/>
  <line x1="411.7026" y1="0" x2="411.7026" y2="558" stroke="#c0a040" stroke-width="1" stroke-opacity="0.6"/>
  <line x1="0" y1="344.863" x2="436" y2="344.863" stroke="#c0a040" stroke-width="1" stroke-opacity="0.6"/>
  <line x1="0" y1="476.5889" x2="436" y2="476.5889" stroke="#c0a040" stroke-width="1" stroke-opacity="0.6"/>
  <line x1="0" y1="526.9037" x2="436" y2="526.9037" stroke="#c0a040" stroke-width="1" stroke-opacity="0.6"/>
</g>
</g>
  <g>
  <circle cx="457" cy="370" r="9.8285" stroke="#e74c3c" stroke-width="2" fill="#e74c3c" fill-opacity="0.08"/>
  <circle cx="466.8285" cy="370" r="3" fill="#e74c3c" stroke="none"/>
  <circle cx="452.0857" cy="361.4882" r="3" fill="#e74c3c" stroke="none"/>
  <circle cx="452.0857" cy="378.5118" r="3" fill="#e74c3c" stroke="none"/>
  <text x="474.8285" y="374" font-size="10" fill="#e74c3c">3D c3 seed</text>
  <circle cx="457" cy="370" r="15.9029" stroke="#e67e22" stroke-width="2" fill="#e67e22" fill-opacity="0.08"/>
  <circle cx="472.9029" cy="370" r="3" fill="#e67e22" stroke="none"/>
  <circle cx="457" cy="354.0971" r="3" fill="#e67e22" stroke="none"/>
  <circle cx="441.0971" cy="370" r="3" fill="#e67e22" stroke="none"/>
  <circle cx="457" cy="385.9029" r="3" fill="#e67e22" stroke="none"/>
  <text x="480.9029" y="374" font-size="10" fill="#e67e22">4D E4 base</text>
  <circle cx="457" cy="370" r="25.7314" stroke="#f1c40f" stroke-width="2" fill="#f1c40f" fill-opacity="0.08"/>
  <circle cx="482.7314" cy="370" r="3" fill="#f1c40f" stroke="none"/>
  <circle cx="469.8657" cy="347.7159" r="3" fill="#f1c40f" stroke="none"/>
  <circle cx="444.1343" cy="347.7159" r="3" fill="#f1c40f" stroke="none"/>
  <circle cx="431.2686" cy="370" r="3" fill="#f1c40f" stroke="none"/>
  <circle cx="444.1343" cy="392.2841" r="3" fill="#f1c40f" stroke="none"/>
  <circle cx="469.8657" cy="392.2841" r="3" fill="#f1c40f" stroke="none"/>
  <text x="490.7314" y="374" font-size="10" fill="#f1c40f">6D W3 Mobius</text>
  <circle cx="457" cy="370" r="41.6343" stroke="#2ecc71" stroke-width="2" fill="#2ecc71" fill-opacity="0.08"/>
  <circle cx="498.6343" cy="370" r="3" fill="#2ecc71" stroke="none"/>
  <circle cx="486.4399" cy="340.5601" r="3" fill="#2ecc71" stroke="none"/>
  <circle cx="457" cy="328.3657" r="3" fill="#2ecc71" stroke="none"/>
  <circle cx="427.5601" cy="340.5601" r="3" fill="#2ecc71" stroke="none"/>
  <circle cx="415.3657" cy="370" r="3" fill="#2ecc71" stroke="none"/>
  <circle cx="427.5601" cy="399.4399" r="3" fill="#2ecc71" stroke="none"/>
  <circle cx="457" cy="411.6343" r="3" fill="#2ecc71" stroke="none"/>
  <circle cx="486.4399" cy="399.4399" r="3" fill="#2ecc71" stroke="none"/>
  <text x="506.6343" y="374" font-size="10" fill="#2ecc71">8D W5 penta</text>
  <circle cx="457" cy="370" r="67.3657" stroke="#3498db" stroke-width="2" fill="#3498db" fill-opacity="0.08"/>
  <circle cx="524.3657" cy="370" r="3" fill="#3498db" stroke="none"/>
  <circle cx="511.5" cy="330.4034" r="3" fill="#3498db" stroke="none"/>
  <circle cx="477.8171" cy="305.9314" r="3" fill="#3498db" stroke="none"/>
  <circle cx="436.1829" cy="305.9314" r="3" fill="#3498db" stroke="none"/>
  <circle cx="402.5" cy="330.4034" r="3" fill="#3498db" stroke="none"/>
  <circle cx="389.6343" cy="370" r="3" fill="#3498db" stroke="none"/>
  <circle cx="402.5" cy="409.5966" r="3" fill="#3498db" stroke="none"/>
  <circle cx="436.1829" cy="434.0686" r="3" fill="#3498db" stroke="none"/>
  <circle cx="477.8171" cy="434.0686" r="3" fill="#3498db" stroke="none"/>
  <circle cx="511.5" cy="409.5966" r="3" fill="#3498db" stroke="none"/>
  <text x="532.3657" y="374" font-size="10" fill="#3498db">10D W7 hepta</text>
  <circle cx="457" cy="370" r="109" stroke="#9b59b6" stroke-width="2" fill="#9b59b6" fill-opacity="0.08"/>
  <circle cx="566" cy="370" r="3" fill="#9b59b6" stroke="none"/>
  <circle cx="551.3968" cy="315.5" r="3" fill="#9b59b6" stroke="none"/>
  <circle cx="511.5" cy="275.6032" r="3" fill="#9b59b6" stroke="none"/>
  <circle cx="457" cy="261" r="3" fill="#9b59b6" stroke="none"/>
  <circle cx="402.5" cy="275.6032" r="3" fill="#9b59b6" stroke="none"/>
  <circle cx="362.6032" cy="315.5" r="3" fill="#9b59b6" stroke="none"/>
  <circle cx="348" cy="370" r="3" fill="#9b59b6" stroke="none"/>
  <circle cx="362.6032" cy="424.5" r="3" fill="#9b59b6" stroke="none"/>
  <circle cx="402.5" cy="464.3968" r="3" fill="#9b59b6" stroke="none"/>
  <circle cx="457" cy="479" r="3" fill="#9b59b6" stroke="none"/>
  <circle cx="511.5" cy="464.3968" r="3" fill="#9b59b6" stroke="none"/>
  <circle cx="551.3968" cy="424.5" r="3" fill="#9b59b6" stroke="none"/>
  <text x="574" y="374" font-size="10" fill="#9b59b6">12D W9 crown</text>
</g>
  <g transform="rotate(-74.2,400,400)">
  <g>
  <circle cx="386" cy="597" r="10.099" stroke="#e74c3c" stroke-width="2" fill="#e74c3c" fill-opacity="0.08"/>
  <circle cx="396.099" cy="597" r="3" fill="#e74c3c" stroke="none"/>
  <circle cx="380.9505" cy="588.254" r="3" fill="#e74c3c" stroke="none"/>
  <circle cx="380.9505" cy="605.746" r="3" fill="#e74c3c" stroke="none"/>
  <text x="404.099" y="601" font-size="10" fill="#e74c3c">3D c3 seed</text>
  <circle cx="386" cy="597" r="16.3406" stroke="#e67e22" stroke-width="2" fill="#e67e22" fill-opacity="0.08"/>
  <circle cx="402.3406" cy="597" r="3" fill="#e67e22" stroke="none"/>
  <circle cx="386" cy="580.6594" r="3" fill="#e67e22" stroke="none"/>
  <circle cx="369.6594" cy="597" r="3" fill="#e67e22" stroke="none"/>
  <circle cx="386" cy="613.3406" r="3" fill="#e67e22" stroke="none"/>
  <text x="410.3406" y="601" font-size="10" fill="#e67e22">4D E4 base</text>
  <circle cx="386" cy="597" r="26.4396" stroke="#f1c40f" stroke-width="2" fill="#f1c40f" fill-opacity="0.08"/>
  <circle cx="412.4396" cy="597" r="3" fill="#f1c40f" stroke="none"/>
  <circle cx="399.2198" cy="574.1026" r="3" fill="#f1c40f" stroke="none"/>
  <circle cx="372.7802" cy="574.1026" r="3" fill="#f1c40f" stroke="none"/>
  <circle cx="359.5604" cy="597" r="3" fill="#f1c40f" stroke="none"/>
  <circle cx="372.7802" cy="619.8974" r="3" fill="#f1c40f" stroke="none"/>
  <circle cx="399.2198" cy="619.8974" r="3" fill="#f1c40f" stroke="none"/>
  <text x="420.4396" y="601" font-size="10" fill="#f1c40f">6D W3 Mobius</text>
  <circle cx="386" cy="597" r="42.7802" stroke="#2ecc71" stroke-width="2" fill="#2ecc71" fill-opacity="0.08"/>
  <circle cx="428.7802" cy="597" r="3" fill="#2ecc71" stroke="none"/>
  <circle cx="416.2502" cy="566.7498" r="3" fill="#2ecc71" stroke="none"/>
  <circle cx="386" cy="554.2198" r="3" fill="#2ecc71" stroke="none"/>
  <circle cx="355.7498" cy="566.7498" r="3" fill="#2ecc71" stroke="none"/>
  <circle cx="343.2198" cy="597" r="3" fill="#2ecc71" stroke="none"/>
  <circle cx="355.7498" cy="627.2502" r="3" fill="#2ecc71" stroke="none"/>
  <circle cx="386" cy="639.7802" r="3" fill="#2ecc71" stroke="none"/>
  <circle cx="416.2502" cy="627.2502" r="3" fill="#2ecc71" stroke="none"/>
  <text x="436.7802" y="601" font-size="10" fill="#2ecc71">8D W5 penta</text>
  <circle cx="386" cy="597" r="69.2198" stroke="#3498db" stroke-width="2" fill="#3498db" fill-opacity="0.08"/>
  <circle cx="455.2198" cy="597" r="3" fill="#3498db" stroke="none"/>
  <circle cx="442" cy="556.3136" r="3" fill="#3498db" stroke="none"/>
  <circle cx="407.3901" cy="531.1681" r="3" fill="#3498db" stroke="none"/>
  <circle cx="364.6099" cy="531.1681" r="3" fill="#3498db" stroke="none"/>
  <circle cx="330" cy="556.3136" r="3" fill="#3498db" stroke="none"/>
  <circle cx="316.7802" cy="597" r="3" fill="#3498db" stroke="none"/>
  <circle cx="330" cy="637.6864" r="3" fill="#3498db" stroke="none"/>
  <circle cx="364.6099" cy="662.8319" r="3" fill="#3498db" stroke="none"/>
  <circle cx="407.3901" cy="662.8319" r="3" fill="#3498db" stroke="none"/>
  <circle cx="442" cy="637.6864" r="3" fill="#3498db" stroke="none"/>
  <text x="463.2198" y="601" font-size="10" fill="#3498db">10D W7 hepta</text>
  <circle cx="386" cy="597" r="112" stroke="#9b59b6" stroke-width="2" fill="#9b59b6" fill-opacity="0.08"/>
  <circle cx="498" cy="597" r="3" fill="#9b59b6" stroke="none"/>
  <circle cx="482.9948" cy="541" r="3" fill="#9b59b6" stroke="none"/>
  <circle cx="442" cy="500.0052" r="3" fill="#9b59b6" stroke="none"/>
  <circle cx="386" cy="485" r="3" fill="#9b59b6" stroke="none"/>
  <circle cx="330" cy="500.0052" r="3" fill="#9b59b6" stroke="none"/>
  <circle cx="289.0052" cy="541" r="3" fill="#9b59b6" stroke="none"/>
  <circle cx="274" cy="597" r="3" fill="#9b59b6" stroke="none"/>
  <circle cx="289.0052" cy="653" r="3" fill="#9b59b6" stroke="none"/>
  <circle cx="330" cy="693.9948" r="3" fill="#9b59b6" stroke="none"/>
  <circle cx="386" cy="709" r="3" fill="#9b59b6" stroke="none"/>
  <circle cx="442" cy="693.9948" r="3" fill="#9b59b6" stroke="none"/>
  <circle cx="482.9948" cy="653" r="3" fill="#9b59b6" stroke="none"/>
  <text x="506" y="601" font-size="10" fill="#9b59b6">12D W9 crown</text>
</g>
</g>
</svg>