<svg xmlns="http://www.w3.org/2000/svg" width="800" height="800" viewBox="0 0 800 800">
  <g>
  <line x1="599" y1="596" x2="582.6654" y2="402.6889" stroke="#333" stroke-width="1.5"/>
  <g>
  <line x1="582.6654" y1="402.6889" x2="514.1862" y2="304.2701" stroke="#333" stroke-width="1.5"/>
  <g>
  <line x1="514.1862" y1="304.2701" x2="447.1207" y2="272.7543" stroke="#333" stroke-width="1.5"/>
  <g>
  <line x1="447.1207" y1="272.7543" x2="401.4861" y2="276.6104" stroke="#333" stroke-width="1.5"/>
  <g>
  <line x1="401.4861" y1="276.6104" x2="378.2526" y2="292.7761" stroke="#333" stroke-width="1.5"/>
  <g>
  <line x1="378.2526" y1="292.7761" x2="370.8127" y2="308.6081" stroke="#333" stroke-width="1.5"/>
  <g>
  <line x1="370.8127" y1="308.6081" x2="371.723" y2="319.381" stroke="#333" stroke-width="1.5"/>
</g>
  <g>
  <line x1="370.8127" y1="308.6081" x2="361.9383" y2="314.7829" stroke="#333" stroke-width="1.5"/>
</g>
</g>
  <g>
  <line x1="378.2526" y1="292.7761" x2="360.8218" y2="294.249" stroke="#333" stroke-width="1.5"/>
  <g>
  <line x1="360.8218" y1="294.249" x2="351.9473" y2="300.4238" stroke="#333" stroke-width="1.5"/>
</g>
  <g>
  <line x1="360.8218" y1="294.249" x2="351.037" y2="289.6509" stroke="#333" stroke-width="1.5"/>
</g>
</g>
</g>
  <g>
  <line x1="401.4861" y1="276.6104" x2="375.8694" y2="264.5724" stroke="#333" stroke-width="1.5"/>
  <g>
  <line x1="375.8694" y1="264.5724" x2="358.4386" y2="266.0453" stroke="#333" stroke-width="1.5"/>
  <g>
  <line x1="358.4386" y1="266.0453" x2="349.5642" y2="272.2201" stroke="#333" stroke-width="1.5"/>
</g>
  <g>
  <line x1="358.4386" y1="266.0453" x2="348.6539" y2="261.4472" stroke="#333" stroke-width="1.5"/>
</g>
</g>
  <g>
  <line x1="375.8694" y1="264.5724" x2="365.8784" y2="250.2133" stroke="#333" stroke-width="1.5"/>
  <g>
  <line x1="365.8784" y1="250.2133" x2="356.0937" y2="245.6152" stroke="#333" stroke-width="1.5"/>
</g>
  <g>
  <line x1="365.8784" y1="250.2133" x2="364.9681" y2="239.4404" stroke="#333" stroke-width="1.5"/>
</g>
</g>
</g>
</g>
  <g>
  <line x1="447.1207" y1="272.7543" x2="420.964" y2="235.1616" stroke="#333" stroke-width="1.5"/>
  <g>
  <line x1="420.964" y1="235.1616" x2="395.3472" y2="223.1237" stroke="#333" stroke-width="1.5"/>
  <g>
  <line x1="395.3472" y1="223.1237" x2="377.9164" y2="224.5966" stroke="#333" stroke-width="1.5"/>
  <g>
  <line x1="377.9164" y1="224.5966" x2="369.042" y2="230.7714" stroke="#333" stroke-width="1.5"/>
</g>
  <g>
  <line x1="377.9164" y1="224.5966" x2="368.1317" y2="219.9985" stroke="#333" stroke-width="1.5"/>
</g>
</g>
  <g>
  <line x1="395.3472" y1="223.1237" x2="385.3563" y2="208.7646" stroke="#333" stroke-width="1.5"/>
  <g>
  <line x1="385.3563" y1="208.7646" x2="375.5715" y2="204.1665" stroke="#333" stroke-width="1.5"/>
</g>
  <g>
  <line x1="385.3563" y1="208.7646" x2="384.446" y2="197.9917" stroke="#333" stroke-width="1.5"/>
</g>
</g>
</g>
  <g>
  <line x1="420.964" y1="235.1616" x2="418.5808" y2="206.9579" stroke="#333" stroke-width="1.5"/>
  <g>
  <line x1="418.5808" y1="206.9579" x2="408.5898" y2="192.5988" stroke="#333" stroke-width="1.5"/>
  <g>
  <line x1="408.5898" y1="192.5988" x2="398.8051" y2="188.0007" stroke="#333" stroke-width="1.5"/>
</g>
  <g>
  <line x1="408.5898" y1="192.5988" x2="407.6795" y2="181.826" stroke="#333" stroke-width="1.5"/>
</g>
</g>
  <g>
  <line x1="418.5808" y1="206.9579" x2="426.0206" y2="191.1259" stroke="#333" stroke-width="1.5"/>
  <g>
  <line x1="426.0206" y1="191.1259" x2="425.1103" y2="180.3531" stroke="#333" stroke-width="1.5"/>
</g>
  <g>
  <line x1="426.0206" y1="191.1259" x2="434.8951" y2="184.9512" stroke="#333" stroke-width="1.5"/>
</g>
</g>
</g>
</g>
</g>
  <g>
  <line x1="514.1862" y1="304.2701" x2="507.9469" y2="230.4318" stroke="#333" stroke-width="1.5"/>
  <g>
  <line x1="507.9469" y1="230.4318" x2="481.7902" y2="192.8391" stroke="#333" stroke-width="1.5"/>
  <g>
  <line x1="481.7902" y1="192.8391" x2="456.1734" y2="180.8012" stroke="#333" stroke-width="1.5"/>
  <g>
  <line x1="456.1734" y1="180.8012" x2="438.7426" y2="182.2741" stroke="#333" stroke-width="1.5"/>
  <g>
  <line x1="438.7426" y1="182.2741" x2="429.8682" y2="188.4489" stroke="#333" stroke-width="1.5"/>
</g>
  <g>
  <line x1="438.7426" y1="182.2741" x2="428.9579" y2="177.676" stroke="#333" stroke-width="1.5"/>
</g>
</g>
  <g>
  <line x1="456.1734" y1="180.8012" x2="446.1824" y2="166.4421" stroke="#333" stroke-width="1.5"/>
  <g>
  <line x1="446.1824" y1="166.4421" x2="436.3977" y2="161.844" stroke="#333" stroke-width="1.5"/>
</g>
  <g>
  <line x1="446.1824" y1="166.4421" x2="445.2721" y2="155.6692" stroke="#333" stroke-width="1.5"/>
</g>
</g>
</g>
  <g>
  <line x1="481.7902" y1="192.8391" x2="479.407" y2="164.6354" stroke="#333" stroke-width="1.5"/>
  <g>
  <line x1="479.407" y1="164.6354" x2="469.416" y2="150.2763" stroke="#333" stroke-width="1.5"/>
  <g>
  <line x1="469.416" y1="150.2763" x2="459.6313" y2="145.6782" stroke="#333" stroke-width="1.5"/>
</g>
  <g>
  <line x1="469.416" y1="150.2763" x2="468.5057" y2="139.5035" stroke="#333" stroke-width="1.5"/>
</g>
</g>
  <g>
  <line x1="479.407" y1="164.6354" x2="486.8468" y2="148.8034" stroke="#333" stroke-width="1.5"/>
  <g>
  <line x1="486.8468" y1="148.8034" x2="485.9365" y2="138.0306" stroke="#333" stroke-width="1.5"/>
</g>
  <g>
  <line x1="486.8468" y1="148.8034" x2="495.7212" y2="142.6287" stroke="#333" stroke-width="1.5"/>
</g>
</g>
</g>
</g>
  <g>
  <line x1="507.9469" y1="230.4318" x2="527.4247" y2="188.9831" stroke="#333" stroke-width="1.5"/>
  <g>
  <line x1="527.4247" y1="188.9831" x2="525.0415" y2="160.7794" stroke="#333" stroke-width="1.5"/>
  <g>
  <line x1="525.0415" y1="160.7794" x2="515.0505" y2="146.4202" stroke="#333" stroke-width="1.5"/>
  <g>
  <line x1="515.0505" y1="146.4202" x2="505.2658" y2="141.8222" stroke="#333" stroke-width="1.5"/>
</g>
  <g>
  <line x1="515.0505" y1="146.4202" x2="514.1402" y2="135.6474" stroke="#333" stroke-width="1.5"/>
</g>
</g>
  <g>
  <line x1="525.0415" y1="160.7794" x2="532.4814" y2="144.9474" stroke="#333" stroke-width="1.5"/>
  <g>
  <line x1="532.4814" y1="144.9474" x2="531.5711" y2="134.1745" stroke="#333" stroke-width="1.5"/>
</g>
  <g>
  <line x1="532.4814" y1="144.9474" x2="541.3558" y2="138.7726" stroke="#333" stroke-width="1.5"/>
</g>
</g>
</g>
  <g>
  <line x1="527.4247" y1="188.9831" x2="550.6582" y2="172.8173" stroke="#333" stroke-width="1.5"/>
  <g>
  <line x1="550.6582" y1="172.8173" x2="558.0981" y2="156.9853" stroke="#333" stroke-width="1.5"/>
  <g>
  <line x1="558.0981" y1="156.9853" x2="557.1878" y2="146.2125" stroke="#333" stroke-width="1.5"/>
</g>
  <g>
  <line x1="558.0981" y1="156.9853" x2="566.9725" y2="150.8105" stroke="#333" stroke-width="1.5"/>
</g>
</g>
  <g>
  <line x1="550.6582" y1="172.8173" x2="568.0891" y2="171.3444" stroke="#333" stroke-width="1.5"/>
  <g>
  <line x1="568.0891" y1="171.3444" x2="576.9635" y2="165.1697" stroke="#333" stroke-width="1.5"/>
</g>
  <g>
  <line x1="568.0891" y1="171.3444" x2="577.8738" y2="175.9425" stroke="#333" stroke-width="1.5"/>
</g>
</g>
</g>
</g>
</g>
</g>
  <g>
  <line x1="582.6654" y1="402.6889" x2="633.659" y2="294.1747" stroke="#333" stroke-width="1.5"/>
  <g>
  <line x1="633.659" y1="294.1747" x2="627.4197" y2="220.3365" stroke="#333" stroke-width="1.5"/>
  <g>
  <line x1="627.4197" y1="220.3365" x2="601.263" y2="182.7438" stroke="#333" stroke-width="1.5"/>
  <g>
  <line x1="601.263" y1="182.7438" x2="575.6463" y2="170.7059" stroke="#333" stroke-width="1.5"/>
  <g>
  <line x1="575.6463" y1="170.7059" x2="558.2154" y2="172.1787" stroke="#333" stroke-width="1.5"/>
  <g>
  <line x1="558.2154" y1="172.1787" x2="549.341" y2="178.3535" stroke="#333" stroke-width="1.5"/>
</g>
  <g>
  <line x1="558.2154" y1="172.1787" x2="548.4307" y2="167.5807" stroke="#333" stroke-width="1.5"/>
</g>
</g>
  <g>
  <line x1="575.6463" y1="170.7059" x2="565.6553" y2="156.3467" stroke="#333" stroke-width="1.5"/>
  <g>
  <line x1="565.6553" y1="156.3467" x2="555.8706" y2="151.7486" stroke="#333" stroke-width="1.5"/>
</g>
  <g>
  <line x1="565.6553" y1="156.3467" x2="564.745" y2="145.5739" stroke="#333" stroke-width="1.5"/>
</g>
</g>
</g>
  <g>
  <line x1="601.263" y1="182.7438" x2="598.8798" y2="154.5401" stroke="#333" stroke-width="1.5"/>
  <g>
  <line x1="598.8798" y1="154.5401" x2="588.8888" y2="140.181" stroke="#333" stroke-width="1.5"/>
  <g>
  <line x1="588.8888" y1="140.181" x2="579.1041" y2="135.5829" stroke="#333" stroke-width="1.5"/>
</g>
  <g>
  <line x1="588.8888" y1="140.181" x2="587.9785" y2="129.4081" stroke="#333" stroke-width="1.5"/>
</g>
</g>
  <g>
  <line x1="598.8798" y1="154.5401" x2="606.3197" y2="138.7081" stroke="#333" stroke-width="1.5"/>
  <g>
  <line x1="606.3197" y1="138.7081" x2="605.4094" y2="127.9352" stroke="#333" stroke-width="1.5"/>
</g>
  <g>
  <line x1="606.3197" y1="138.7081" x2="615.1941" y2="132.5333" stroke="#333" stroke-width="1.5"/>
</g>
</g>
</g>
</g>
  <g>
  <line x1="627.4197" y1="220.3365" x2="646.8975" y2="178.8877" stroke="#333" stroke-width="1.5"/>
  <g>
  <line x1="646.8975" y1="178.8877" x2="644.5144" y2="150.684" stroke="#333" stroke-width="1.5"/>
  <g>
  <line x1="644.5144" y1="150.684" x2="634.5234" y2="136.3249" stroke="#333" stroke-width="1.5"/>
  <g>
  <line x1="634.5234" y1="136.3249" x2="624.7386" y2="131.7268" stroke="#333" stroke-width="1.5"/>
</g>
  <g>
  <line x1="634.5234" y1="136.3249" x2="633.6131" y2="125.552" stroke="#333" stroke-width="1.5"/>
</g>
</g>
  <g>
  <line x1="644.5144" y1="150.684" x2="651.9542" y2="134.852" stroke="#333" stroke-width="1.5"/>
  <g>
  <line x1="651.9542" y1="134.852" x2="651.0439" y2="124.0792" stroke="#333" stroke-width="1.5"/>
</g>
  <g>
  <line x1="651.9542" y1="134.852" x2="660.8286" y2="128.6772" stroke="#333" stroke-width="1.5"/>
</g>
</g>
</g>
  <g>
  <line x1="646.8975" y1="178.8877" x2="670.1311" y2="162.722" stroke="#333" stroke-width="1.5"/>
  <g>
  <line x1="670.1311" y1="162.722" x2="677.5709" y2="146.89" stroke="#333" stroke-width="1.5"/>
  <g>
  <line x1="677.5709" y1="146.89" x2="676.6606" y2="136.1171" stroke="#333" stroke-width="1.5"/>
</g>
  <g>
  <line x1="677.5709" y1="146.89" x2="686.4454" y2="140.7152" stroke="#333" stroke-width="1.5"/>
</g>
</g>
  <g>
  <line x1="670.1311" y1="162.722" x2="687.5619" y2="161.2491" stroke="#333" stroke-width="1.5"/>
  <g>
  <line x1="687.5619" y1="161.2491" x2="696.4363" y2="155.0743" stroke="#333" stroke-width="1.5"/>
</g>
  <g>
  <line x1="687.5619" y1="161.2491" x2="697.3466" y2="165.8472" stroke="#333" stroke-width="1.5"/>
</g>
</g>
</g>
</g>
</g>
  <g>
  <line x1="633.659" y1="294.1747" x2="694.4852" y2="251.8522" stroke="#333" stroke-width="1.5"/>
  <g>
  <line x1="694.4852" y1="251.8522" x2="713.963" y2="210.4035" stroke="#333" stroke-width="1.5"/>
  <g>
  <line x1="713.963" y1="210.4035" x2="711.5798" y2="182.1998" stroke="#333" stroke-width="1.5"/>
  <g>
  <line x1="711.5798" y1="182.1998" x2="701.5888" y2="167.8407" stroke="#333" stroke-width="1.5"/>
  <g>
  <line x1="701.5888" y1="167.8407" x2="691.8041" y2="163.2426" stroke="#333" stroke-width="1.5"/>
</g>
  <g>
  <line x1="701.5888" y1="167.8407" x2="700.6785" y2="157.0678" stroke="#333" stroke-width="1.5"/>
</g>
</g>
  <g>
  <line x1="711.5798" y1="182.1998" x2="719.0197" y2="166.3678" stroke="#333" stroke-width="1.5"/>
  <g>
  <line x1="719.0197" y1="166.3678" x2="718.1094" y2="155.5949" stroke="#333" stroke-width="1.5"/>
</g>
  <g>
  <line x1="719.0197" y1="166.3678" x2="727.8941" y2="160.193" stroke="#333" stroke-width="1.5"/>
</g>
</g>
</g>
  <g>
  <line x1="713.963" y1="210.4035" x2="737.1965" y2="194.2377" stroke="#333" stroke-width="1.5"/>
  <g>
  <line x1="737.1965" y1="194.2377" x2="744.6364" y2="178.4057" stroke="#333" stroke-width="1.5"/>
  <g>
  <line x1="744.6364" y1="178.4057" x2="743.7261" y2="167.6329" stroke="#333" stroke-width="1.5"/>
</g>
  <g>
  <line x1="744.6364" y1="178.4057" x2="753.5108" y2="172.231" stroke="#333" stroke-width="1.5"/>
</g>
</g>
  <g>
  <line x1="737.1965" y1="194.2377" x2="754.6274" y2="192.7649" stroke="#333" stroke-width="1.5"/>
  <g>
  <line x1="754.6274" y1="192.7649" x2="763.5018" y2="186.5901" stroke="#333" stroke-width="1.5"/>
</g>
  <g>
  <line x1="754.6274" y1="192.7649" x2="764.4121" y2="197.3629" stroke="#333" stroke-width="1.5"/>
</g>
</g>
</g>
</g>
  <g>
  <line x1="694.4852" y1="251.8522" x2="740.1197" y2="247.9962" stroke="#333" stroke-width="1.5"/>
  <g>
  <line x1="740.1197" y1="247.9962" x2="763.3533" y2="231.8304" stroke="#333" stroke-width="1.5"/>
  <g>
  <line x1="763.3533" y1="231.8304" x2="770.7931" y2="215.9984" stroke="#333" stroke-width="1.5"/>
  <g>
  <line x1="770.7931" y1="215.9984" x2="769.8828" y2="205.2255" stroke="#333" stroke-width="1.5"/>
</g>
  <g>
  <line x1="770.7931" y1="215.9984" x2="779.6676" y2="209.8236" stroke="#333" stroke-width="1.5"/>
</g>
</g>
  <g>
  <line x1="763.3533" y1="231.8304" x2="780.7841" y2="230.3575" stroke="#333" stroke-width="1.5"/>
  <g>
  <line x1="780.7841" y1="230.3575" x2="789.6585" y2="224.1827" stroke="#333" stroke-width="1.5"/>
</g>
  <g>
  <line x1="780.7841" y1="230.3575" x2="790.5688" y2="234.9556" stroke="#333" stroke-width="1.5"/>
</g>
</g>
</g>
  <g>
  <line x1="740.1197" y1="247.9962" x2="765.7365" y2="260.0341" stroke="#333" stroke-width="1.5"/>
  <g>
  <line x1="765.7365" y1="260.0341" x2="783.1673" y2="258.5612" stroke="#333" stroke-width="1.5"/>
  <g>
  <line x1="783.1673" y1="258.5612" x2="792.0417" y2="252.3864" stroke="#333" stroke-width="1.5"/>
</g>
  <g>
  <line x1="783.1673" y1="258.5612" x2="792.952" y2="263.1593" stroke="#333" stroke-width="1.5"/>
</g>
</g>
  <g>
  <line x1="765.7365" y1="260.0341" x2="775.7274" y2="274.3932" stroke="#333" stroke-width="1.5"/>
  <g>
  <line x1="775.7274" y1="274.3932" x2="785.5122" y2="278.9913" stroke="#333" stroke-width="1.5"/>
</g>
  <g>
  <line x1="775.7274" y1="274.3932" x2="776.6377" y2="285.1661" stroke="#333" stroke-width="1.5"/>
</g>
</g>
</g>
</g>
</g>
</g>
</g>
  <g>
  <line x1="502.0289" y1="470.9804" x2="726.1606" y2="478.8871" stroke="#333" stroke-width="1.2" fill="none"/>
  <line x1="502.0289" y1="470.9804" x2="607.9471" y2="335.4162" stroke="#333" stroke-width="1.2" fill="none"/>
  <line x1="502.0289" y1="470.9804" x2="416.6736" y2="437.3642" stroke="#333" stroke-width="1.2" fill="none"/>
  <line x1="502.0289" y1="470.9804" x2="416.6736" y2="643.8424" stroke="#333" stroke-width="1.2" fill="none"/>
  <line x1="502.0289" y1="470.9804" x2="607.9471" y2="669.505" stroke="#333" stroke-width="1.2" fill="none"/>
  <line x1="693.9711" y1="623.0196" x2="779.3264" y2="450.1576" stroke="#333" stroke-width="1.2" fill="none"/>
  <line x1="693.9711" y1="623.0196" x2="588.0529" y2="424.495" stroke="#333" stroke-width="1.2" fill="none"/>
  <line x1="693.9711" y1="623.0196" x2="469.8394" y2="615.1129" stroke="#333" stroke-width="1.2" fill="none"/>
  <line x1="693.9711" y1="623.0196" x2="588.0529" y2="758.5838" stroke="#333" stroke-width="1.2" fill="none"/>
  <line x1="693.9711" y1="623.0196" x2="779.3264" y2="656.6358" stroke="#333" stroke-width="1.2" fill="none"/>
  <line x1="726.1606" y1="478.8871" x2="607.9471" y2="335.4162" stroke="#333" stroke-width="1.2" fill="none"/>
  <line x1="726.1606" y1="478.8871" x2="607.9471" y2="669.505" stroke="#333" stroke-width="1.2" fill="none"/>
  <line x1="726.1606" y1="478.8871" x2="779.3264" y2="450.1576" stroke="#333" stroke-width="1.2" fill="none"/>
  <line x1="726.1606" y1="478.8871" x2="779.3264" y2="656.6358" stroke="#333" stroke-width="1.2" fill="none"/>
  <line x1="607.9471" y1="335.4162" x2="416.6736" y2="437.3642" stroke="#333" stroke-width="1.2" fill="none"/>
  <line x1="607.9471" y1="335.4162" x2="779.3264" y2="450.1576" stroke="#333" stroke-width="1.2" fill="none"/>
  <line x1="607.9471" y1="335.4162" x2="588.0529" y2="424.495" stroke="#333" stroke-width="1.2" fill="none"/>
  <line x1="416.6736" y1="437.3642" x2="416.6736" y2="643.8424" stroke="#333" stroke-width="1.2" fill="none"/>
  <line x1="416.6736" y1="437.3642" x2="588.0529" y2="424.495" stroke="#333" stroke-width="1.2" fill="none"/>
  <line x1="416.6736" y1="437.3642" x2="469.8394" y2="615.1129" stroke="#333" stroke-width="1.2" fill="none"/>
  <line x1="416.6736" y1="643.8424" x2="607.9471" y2="669.505" stroke="#333" stroke-width="1.2" fill="none"/>
  <line x1="416.6736" y1="643.8424" x2="469.8394" y2="615.1129" stroke="#333" stroke-width="1.2" fill="none"/>
  <line x1="416.6736" y1="643.8424" x2="588.0529" y2="758.5838" stroke="#333" stroke-width="1.2" fill="none"/>
  <line x1="607.9471" y1="669.505" x2="588.0529" y2="758.5838" stroke="#333" stroke-width="1.2" fill="none"/>
  <line x1="607.9471" y1="669.505" x2="779.3264" y2="656.6358" stroke="#333" stroke-width="1.2" fill="none"/>
  <line x1="779.3264" y1="450.1576" x2="588.0529" y2="424.495" stroke="#333" stroke-width="1.2" fill="none"/>
  <line x1="779.3264" y1="450.1576" x2="779.3264" y2="656.6358" stroke="#333" stroke-width="1.2" fill="none"/>
  <line x1="588.0529" y1="424.495" x2="469.8394" y2="615.1129" stroke="#333" stroke-width="1.2" fill="none"/>
  <line x1="469.8394" y1="615.1129" x2="588.0529" y2="758.5838" stroke="#333" stroke-width="1.2" fill="none"/>
  <line x1="588.0529" y1="758.5838" x2="779.3264" y2="656.6358" stroke="#333" stroke-width="1.2" fill="none"/>
  <circle cx="502.0289" cy="470.9804" r="10.7" fill="#c66" stroke="#333" stroke-width="0.8"/>
  <circle cx="693.9711" cy="623.0196" r="10.7" fill="#c66" stroke="#333" stroke-width="0.8"/>
  <circle cx="726.1606" cy="478.8871" r="10.7" fill="#c66" stroke="#333" stroke-width="0.8"/>
  <circle cx="607.9471" cy="335.4162" r="10.7" fill="#c66" stroke="#333" stroke-width="0.8"/>
  <circle cx="416.6736" cy="437.3642" r="10.7" fill="#c66" stroke="#333" stroke-width="0.8"/>
  <circle cx="416.6736" cy="643.8424" r="10.7" fill="#c66" stroke="#333" stroke-width="0.8"/>
  <circle cx="607.9471" cy="669.505" r="10.7" fill="#c66" stroke="#333" stroke-width="0.8"/>
  <circle cx="779.3264" cy="450.1576" r="10.7" fill="#c66" stroke="#333" stroke-width="0.8"/>
  <circle cx="588.0529" cy="424.495" r="10.7" fill="#c66" stroke="#333" stroke-width="0.8"/>
  <circle cx="469.8394" cy="615.1129" r="10.7" fill="#c66" stroke="#333" stroke-width="0.8"/>
  <circle cx="588.0529" cy="758.5838" r="10.7" fill="#c66" stroke="#333" stroke-width="0.8"/>
  <circle cx="779.3264" cy="656.6358" r="10.7" fill="#c66" stroke="#333" stroke-width="0.8"/>
</g>
  <g opacity="0.81">
  <g>
  <circle cx="463" cy="219" r="185" stroke="#9b59b6" stroke-width="2" fill="#9b59b6" fill-opacity="0.05"/>
  <circle cx="463" cy="71" r="14.8" fill="#9b59b6" stroke="#fff" stroke-width="1"/>
  <text x="460" y="75" font-size="9" fill="#fff" font-weight="bold">1</text>
  <circle cx="558.1326" cy="105.6254" r="14.8" fill="#9b59b6" stroke="#fff" stroke-width="1"/>
  <text x="555.1326" y="109.6254" font-size="9" fill="#fff" font-weight="bold">2</text>
  <circle cx="608.7515" cy="193.3001" r="14.8" fill="#9b59b6" stroke="#fff" stroke-width="1"/>
  <text x="605.7515" y="197.3001" font-size="9" fill="#fff" font-weight="bold">3</text>
  <circle cx="591.1718" cy="293" r="14.8" fill="#9b59b6" stroke="#fff" stroke-width="1"/>
  <text x="588.1718" y="297" font-size="9" fill="#fff" font-weight="bold">4</text>
  <circle cx="513.619" cy="358.0745" r="14.8" fill="#9b59b6" stroke="#fff" stroke-width="1"/>
  <text x="510.619" y="362.0745" font-size="9" fill="#fff" font-weight="bold">5</text>
  <circle cx="412.381" cy="358.0745" r="14.8" fill="#9b59b6" stroke="#fff" stroke-width="1"/>
  <text x="409.381" y="362.0745" font-size="9" fill="#fff" font-weight="bold">6</text>
  <circle cx="334.8282" cy="293" r="14.8" fill="#9b59b6" stroke="#fff" stroke-width="1"/>
  <text x="331.8282" y="297" font-size="9" fill="#fff" font-weight="bold">7</text>
  <circle cx="317.2485" cy="193.3001" r="14.8" fill="#9b59b6" stroke="#fff" stroke-width="1"/>
  <text x="314.2485" y="197.3001" font-size="9" fill="#fff" font-weight="bold">8</text>
  <circle cx="367.8674" cy="105.6254" r="14.8" fill="#9b59b6" stroke="#fff" stroke-width="1"/>
  <text x="364.8674" y="109.6254" font-size="9" fill="#fff" font-weight="bold">9</text>
  <path d="M 463,71 Q 516.1499,72.9718 558.1326,105.6254" stroke="#9b59b6" stroke-width="1" fill="none"/>
  <path d="M 558.1326,105.6254 Q 597.5803,141.3 608.7515,193.3001" stroke="#9b59b6" stroke-width="1" fill="none"/>
  <path d="M 608.7515,193.3001 Q 616.0391,245.9849 591.1718,293" stroke="#9b59b6" stroke-width="1" fill="none"/>
  <path d="M 591.1718,293 Q 562.8892,338.0433 513.619,358.0745" stroke="#9b59b6" stroke-width="1" fill="none"/>
  <path d="M 513.619,358.0745 Q 463,374.4 412.381,358.0745" stroke="#9b59b6" stroke-width="1" fill="none"/>
  <path d="M 412.381,358.0745 Q 363.1108,338.0433 334.8282,293" stroke="#9b59b6" stroke-width="1" fill="none"/>
  <path d="M 334.8282,293 Q 309.9609,245.9849 317.2485,193.3001" stroke="#9b59b6" stroke-width="1" fill="none"/>
  <path d="M 317.2485,193.3001 Q 328.4197,141.3 367.8674,105.6254" stroke="#9b59b6" stroke-width="1" fill="none"/>
  <path d="M 367.8674,105.6254 Q 516.1499,365.0282 463,71" stroke="#9b59b6" stroke-width="1" fill="none"/>
  <text x="455" y="223" font-size="14" fill="#9b59b6" font-weight="bold">W9</text>
</g>
</g>
  <g opacity="0.57">
  <g>
  <line x1="407.8973" y1="425.9811" x2="536.0809" y2="429.2795" stroke="#333" stroke-width="1.2" fill="none"/>
  <line x1="407.8973" y1="425.9811" x2="470.4654" y2="376.9852" stroke="#333" stroke-width="1.2" fill="none"/>
  <line x1="407.8973" y1="425.9811" x2="364.2973" y2="446.6552" stroke="#333" stroke-width="1.2" fill="none"/>
  <line x1="407.8973" y1="425.9811" x2="364.2973" y2="542.0079" stroke="#333" stroke-width="1.2" fill="none"/>
  <line x1="407.8973" y1="425.9811" x2="470.4654" y2="531.2692" stroke="#333" stroke-width="1.2" fill="none"/>
  <line x1="528.1027" y1="568.0189" x2="571.7027" y2="451.9921" stroke="#333" stroke-width="1.2" fill="none"/>
  <line x1="528.1027" y1="568.0189" x2="465.5346" y2="462.7308" stroke="#333" stroke-width="1.2" fill="none"/>
  <line x1="528.1027" y1="568.0189" x2="399.9191" y2="564.7205" stroke="#333" stroke-width="1.2" fill="none"/>
  <line x1="528.1027" y1="568.0189" x2="465.5346" y2="617.0148" stroke="#333" stroke-width="1.2" fill="none"/>
  <line x1="528.1027" y1="568.0189" x2="571.7027" y2="547.3448" stroke="#333" stroke-width="1.2" fill="none"/>
  <line x1="536.0809" y1="429.2795" x2="470.4654" y2="376.9852" stroke="#333" stroke-width="1.2" fill="none"/>
  <line x1="536.0809" y1="429.2795" x2="470.4654" y2="531.2692" stroke="#333" stroke-width="1.2" fill="none"/>
  <line x1="536.0809" y1="429.2795" x2="571.7027" y2="451.9921" stroke="#333" stroke-width="1.2" fill="none"/>
  <line x1="536.0809" y1="429.2795" x2="571.7027" y2="547.3448" stroke="#333" stroke-width="1.2" fill="none"/>
  <line x1="470.4654" y1="376.9852" x2="364.2973" y2="446.6552" stroke="#333" stroke-width="1.2" fill="none"/>
  <line x1="470.4654" y1="376.9852" x2="571.7027" y2="451.9921" stroke="#333" stroke-width="1.2" fill="none"/>
  <line x1="470.4654" y1="376.9852" x2="465.5346" y2="462.7308" stroke="#333" stroke-width="1.2" fill="none"/>
  <line x1="364.2973" y1="446.6552" x2="364.2973" y2="542.0079" stroke="#333" stroke-width="1.2" fill="none"/>
  <line x1="364.2973" y1="446.6552" x2="465.5346" y2="462.7308" stroke="#333" stroke-width="1.2" fill="none"/>
  <line x1="364.2973" y1="446.6552" x2="399.9191" y2="564.7205" stroke="#333" stroke-width="1.2" fill="none"/>
  <line x1="364.2973" y1="542.0079" x2="470.4654" y2="531.2692" stroke="#333" stroke-width="1.2" fill="none"/>
  <line x1="364.2973" y1="542.0079" x2="399.9191" y2="564.7205" stroke="#333" stroke-width="1.2" fill="none"/>
  <line x1="364.2973" y1="542.0079" x2="465.5346" y2="617.0148" stroke="#333" stroke-width="1.2" fill="none"/>
  <line x1="470.4654" y1="531.2692" x2="465.5346" y2="617.0148" stroke="#333" stroke-width="1.2" fill="none"/>
  <line x1="470.4654" y1="531.2692" x2="571.7027" y2="547.3448" stroke="#333" stroke-width="1.2" fill="none"/>
  <line x1="571.7027" y1="451.9921" x2="465.5346" y2="462.7308" stroke="#333" stroke-width="1.2" fill="none"/>
  <line x1="571.7027" y1="451.9921" x2="571.7027" y2="547.3448" stroke="#333" stroke-width="1.2" fill="none"/>
  <line x1="465.5346" y1="462.7308" x2="399.9191" y2="564.7205" stroke="#333" stroke-width="1.2" fill="none"/>
  <line x1="399.9191" y1="564.7205" x2="465.5346" y2="617.0148" stroke="#333" stroke-width="1.2" fill="none"/>
  <line x1="465.5346" y1="617.0148" x2="571.7027" y2="547.3448" stroke="#333" stroke-width="1.2" fill="none"/>
  <circle cx="407.8973" cy="425.9811" r="6.1" fill="#c66" stroke="#333" stroke-width="0.8"/>
  <circle cx="528.1027" cy="568.0189" r="6.1" fill="#c66" stroke="#333" stroke-width="0.8"/>
  <circle cx="536.0809" cy="429.2795" r="6.1" fill="#c66" stroke="#333" stroke-width="0.8"/>
  <circle cx="470.4654" cy="376.9852" r="6.1" fill="#c66" stroke="#333" stroke-width="0.8"/>
  <circle cx="364.2973" cy="446.6552" r="6.1" fill="#c66" stroke="#333" stroke-width="0.8"/>
  <circle cx="364.2973" cy="542.0079" r="6.1" fill="#c66" stroke="#333" stroke-width="0.8"/>
  <circle cx="470.4654" cy="531.2692" r="6.1" fill="#c66" stroke="#333" stroke-width="0.8"/>
  <circle cx="571.7027" cy="451.9921" r="6.1" fill="#c66" stroke="#333" stroke-width="0.8"/>
  <circle cx="465.5346" cy="462.7308" r="6.1" fill="#c66" stroke="#333" stroke-width="0.8"/>
  <circle cx="399.9191" cy="564.7205" r="6.1" fill="#c66" stroke="#333" stroke-width="0.8"/>
  <circle cx="465.5346" cy="617.0148" r="6.1" fill="#c66" stroke="#333" stroke-width="0.8"/>
  <circle cx="571.7027" cy="547.3448" r="6.1" fill="#c66" stroke="#333" stroke-width="0.8"/>
</g>
</g>
</svg>