<svg xmlns="http://www.w3.org/2000/svg" width="800" height="800" viewBox="0 0 800 800">
  <g>
  <line x1="313" y1="383" x2="454" y2="383" stroke="#999" stroke-width="0.5"/>
  <line x1="313" y1="383" x2="383.5" y2="505.1096" stroke="#999" stroke-width="0.5"/>
  <line x1="313" y1="383" x2="242.5" y2="505.1096" stroke="#999" stroke-width="0.5"/>
  <line x1="313" y1="383" x2="172" y2="383" stroke="#999" stroke-width="0.5"/>
  <line x1="313" y1="383" x2="242.5" y2="260.8904" stroke="#999" stroke-width="0.5"/>
  <line x1="313" y1="383" x2="383.5" y2="260.8904" stroke="#999" stroke-width="0.5"/>
  <line x1="313" y1="383" x2="557.2192" y2="524" stroke="#999" stroke-width="0.5"/>
  <line x1="313" y1="383" x2="313" y2="665" stroke="#999" stroke-width="0.5"/>
  <line x1="313" y1="383" x2="68.7808" y2="524" stroke="#999" stroke-width="0.5"/>
  <line x1="313" y1="383" x2="68.7808" y2="242" stroke="#999" stroke-width="0.5"/>
  <line x1="313" y1="383" x2="313" y2="101" stroke="#999" stroke-width="0.5"/>
  <line x1="313" y1="383" x2="557.2192" y2="242" stroke="#999" stroke-width="0.5"/>
  <line x1="454" y1="383" x2="383.5" y2="505.1096" stroke="#999" stroke-width="0.5"/>
  <line x1="454" y1="383" x2="242.5" y2="505.1096" stroke="#999" stroke-width="0.5"/>
  <line x1="454" y1="383" x2="172" y2="383" stroke="#999" stroke-width="0.5"/>
  <line x1="454" y1="383" x2="242.5" y2="260.8904" stroke="#999" stroke-width="0.5"/>
  <line x1="454" y1="383" x2="383.5" y2="260.8904" stroke="#999" stroke-width="0.5"/>
  <line x1="454" y1="383" x2="557.2192" y2="524" stroke="#999" stroke-width="0.5"/>
  <line x1="454" y1="383" x2="313" y2="665" stroke="#999" stroke-width="0.5"/>
  <line x1="454" y1="383" x2="68.7808" y2="524" stroke="#999" stroke-width="0.5"/>
  <line x1="454" y1="383" x2="68.7808" y2="242" stroke="#999" stroke-width="0.5"/>
  <line x1="454" y1="383" x2="313" y2="101" stroke="#999" stroke-width="0.5"/>
  <line x1="454" y1="383" x2="557.2192" y2="242" stroke="#999" stroke-width="0.5"/>
  <line x1="383.5" y1="505.1096" x2="242.5" y2="505.1096" stroke="#999" stroke-width="0.5"/>
  <line x1="383.5" y1="505.1096" x2="172" y2="383" stroke="#999" stroke-width="0.5"/>
  <line x1="383.5" y1="505.1096" x2="242.5" y2="260.8904" stroke="#999" stroke-width="0.5"/>
  <line x1="383.5" y1="505.1096" x2="383.5" y2="260.8904" stroke="#999" stroke-width="0.5"/>
  <line x1="383.5" y1="505.1096" x2="557.2192" y2="524" stroke="#999" stroke-width="0.5"/>
  <line x1="383.5" y1="505.1096" x2="313" y2="665" stroke="#999" stroke-width="0.5"/>
  <line x1="383.5" y1="505.1096" x2="68.7808" y2="524" stroke="#999" stroke-width="0.5"/>
  <line x1="383.5" y1="505.1096" x2="68.7808" y2="242" stroke="#999" stroke-width="0.5"/>
  <line x1="383.5" y1="505.1096" x2="313" y2="101" stroke="#999" stroke-width="0.5"/>
  <line x1="383.5" y1="505.1096" x2="557.2192" y2="242" stroke="#999" stroke-width="0.5"/>
  <line x1="242.5" y1="505.1096" x2="172" y2="383" stroke="#999" stroke-width="0.5"/>
  <line x1="242.5" y1="505.1096" x2="242.5" y2="260.8904" stroke="#999" stroke-width="0.5"/>
  <line x1="242.5" y1="505.1096" x2="383.5" y2="260.8904" stroke="#999" stroke-width="0.5"/>
  <line x1="242.5" y1="505.1096" x2="557.2192" y2="524" stroke="#999" stroke-width="0.5"/>
  <line x1="242.5" y1="505.1096" x2="313" y2="665" stroke="#999" stroke-width="0.5"/>
  <line x1="242.5" y1="505.1096" x2="68.7808" y2="524" stroke="#999" stroke-width="0.5"/>
  <line x1="242.5" y1="505.1096" x2="68.7808" y2="242" stroke="#999" stroke-width="0.5"/>
  <line x1="242.5" y1="505.1096" x2="313" y2="101" stroke="#999" stroke-width="0.5"/>
  <line x1="242.5" y1="505.1096" x2="557.2192" y2="242" stroke="#999" stroke-width="0.5"/>
  <line x1="172" y1="383" x2="242.5" y2="260.8904" stroke="#999" stroke-width="0.5"/>
  <line x1="172" y1="383" x2="383.5" y2="260.8904" stroke="#999" stroke-width="0.5"/>
  <line x1="172" y1="383" x2="557.2192" y2="524" stroke="#999" stroke-width="0.5"/>
  <line x1="172" y1="383" x2="313" y2="665" stroke="#999" stroke-width="0.5"/>
  <line x1="172" y1="383" x2="68.7808" y2="524" stroke="#999" stroke-width="0.5"/>
  <line x1="172" y1="383" x2="68.7808" y2="242" stroke="#999" stroke-width="0.5"/>
  <line x1="172" y1="383" x2="313" y2="101" stroke="#999" stroke-width="0.5"/>
  <line x1="172" y1="383" x2="557.2192" y2="242" stroke="#999" stroke-width="0.5"/>
  <line x1="242.5" y1="260.8904" x2="383.5" y2="260.8904" stroke="#999" stroke-width="0.5"/>
  <line x1="242.5" y1="260.8904" x2="557.2192" y2="524" stroke="#999" stroke-width="0.5"/>
  <line x1="242.5" y1="260.8904" x2="313" y2="665" stroke="#999" stroke-width="0.5"/>
  <line x1="242.5" y1="260.8904" x2="68.7808" y2="524" stroke="#999" stroke-width="0.5"/>
  <line x1="242.5" y1="260.8904" x2="68.7808" y2="242" stroke="#999" stroke-width="0.5"/>
  <line x1="242.5" y1="260.8904" x2="313" y2="101" stroke="#999" stroke-width="0.5"/>
  <line x1="242.5" y1="260.8904" x2="557.2192" y2="242" stroke="#999" stroke-width="0.5"/>
  <line x1="383.5" y1="260.8904" x2="557.2192" y2="524" stroke="#999" stroke-width="0.5"/>
  <line x1="383.5" y1="260.8904" x2="313" y2="665" stroke="#999" stroke-width="0.5"/>
  <line x1="383.5" y1="260.8904" x2="68.7808" y2="524" stroke="#999" stroke-width="0.5"/>
  <line x1="383.5" y1="260.8904" x2="68.7808" y2="242" stroke="#999" stroke-width="0.5"/>
  <line x1="383.5" y1="260.8904" x2="313" y2="101" stroke="#999" stroke-width="0.5"/>
  <line x1="383.5" y1="260.8904" x2="557.2192" y2="242" stroke="#999" stroke-width="0.5"/>
  <line x1="557.2192" y1="524" x2="313" y2="665" stroke="#999" stroke-width="0.5"/>
  <line x1="557.2192" y1="524" x2="68.7808" y2="524" stroke="#999" stroke-width="0.5"/>
  <line x1="557.2192" y1="524" x2="68.7808" y2="242" stroke="#999" stroke-width="0.5"/>
  <line x1="557.2192" y1="524" x2="313" y2="101" stroke="#999" stroke-width="0.5"/>
  <line x1="557.2192" y1="524" x2="557.2192" y2="242" stroke="#999" stroke-width="0.5"/>
  <line x1="313" y1="665" x2="68.7808" y2="524" stroke="#999" stroke-width="0.5"/>
  <line x1="313" y1="665" x2="68.7808" y2="242" stroke="#999" stroke-width="0.5"/>
  <line x1="313" y1="665" x2="313" y2="101" stroke="#999" stroke-width="0.5"/>
  <line x1="313" y1="665" x2="557.2192" y2="242" stroke="#999" stroke-width="0.5"/>
  <line x1="68.7808" y1="524" x2="68.7808" y2="242" stroke="#999" stroke-width="0.5"/>
  <line x1="68.7808" y1="524" x2="313" y2="101" stroke="#999" stroke-width="0.5"/>
  <line x1="68.7808" y1="524" x2="557.2192" y2="242" stroke="#999" stroke-width="0.5"/>
  <line x1="68.7808" y1="242" x2="313" y2="101" stroke="#999" stroke-width="0.5"/>
  <line x1="68.7808" y1="242" x2="557.2192" y2="242" stroke="#999" stroke-width="0.5"/>
  <line x1="313" y1="101" x2="557.2192" y2="242" stroke="#999" stroke-width="0.5"/>
  <circle cx="313" cy="383" r="21.15" fill="none" stroke="#333" stroke-width="1"/>
  <circle cx="454" cy="383" r="21.15" fill="none" stroke="#333" stroke-width="1"/>
  <circle cx="383.5" cy="505.1096" r="21.15" fill="none" stroke="#333" stroke-width="1"/>
  <circle cx="242.5" cy="505.1096" r="21.15" fill="none" stroke="#333" stroke-width="1"/>
  <circle cx="172" cy="383" r="21.15" fill="none" stroke="#333" stroke-width="1"/>
  <circle cx="242.5" cy="260.8904" r="21.15" fill="none" stroke="#333" stroke-width="1"/>
  <circle cx="383.5" cy="260.8904" r="21.15" fill="none" stroke="#333" stroke-width="1"/>
  <circle cx="557.2192" cy="524" r="21.15" fill="none" stroke="#333" stroke-width="1"/>
  <circle cx="313" cy="665" r="21.15" fill="none" stroke="#333" stroke-width="1"/>
  <circle cx="68.7808" cy="524" r="21.15" fill="none" stroke="#333" stroke-width="1"/>
  <circle cx="68.7808" cy="242" r="21.15" fill="none" stroke="#333" stroke-width="1"/>
  <circle cx="313" cy="101" r="21.15" fill="none" stroke="#333" stroke-width="1"/>
  <circle cx="557.2192" cy="242" r="21.15" fill="none" stroke="#333" stroke-width="1"/>
</g>
  <g>
  <circle cx="299" cy="454" r="315" fill="none" stroke="#333" stroke-width="1"/>
  <circle cx="299" cy="454" r="194.6807" fill="none" stroke="#333" stroke-width="1"/>
  <circle cx="299" cy="454" r="120.3193" fill="none" stroke="#333" stroke-width="1"/>
  <circle cx="299" cy="454" r="74.3614" fill="none" stroke="#333" stroke-width="1"/>
  <circle cx="299" cy="454" r="45.9579" fill="none" stroke="#333" stroke-width="1"/>
  <circle cx="299" cy="454" r="28.4035" fill="none" stroke="#333" stroke-width="1"/>
  <circle cx="299" cy="454" r="17.5543" fill="none" stroke="#333" stroke-width="1"/>
</g>
  <polygon points="216,13 364,52.6565 472.3435,161 512,309 472.3435,457 364,565.3435 216,605 68,565.3435 -40.3435,457 -80,309 -40.3435,161 68,52.6565" fill="none" stroke="#333" stroke-width="1.5"/>
  <g opacity="0.30">
  <g transform="rotate(166.5,400,400)">
  <g>
  <line x1="576" y1="500" x2="813" y2="500" stroke="#333" stroke-width="1.5"/>
  <line x1="572.0988" y1="523.3784" x2="796.2575" y2="600.3321" stroke="#333" stroke-width="1.5"/>
  <line x1="560.8181" y1="544.2233" x2="747.8444" y2="689.7917" stroke="#333" stroke-width="1.5"/>
  <line x1="543.3803" y1="560.276" x2="673.007" y2="758.6844" stroke="#333" stroke-width="1.5"/>
  <line x1="521.675" y1="569.7968" x2="579.855" y2="799.5447" stroke="#333" stroke-width="1.5"/>
  <line x1="498.0543" y1="571.7541" x2="478.483" y2="807.9446" stroke="#333" stroke-width="1.5"/>
  <line x1="475.0779" y1="565.9357" x2="379.8761" y2="782.974" stroke="#333" stroke-width="1.5"/>
  <line x1="455.2357" y1="552.9721" x2="294.72" y2="727.3387" stroke="#333" stroke-width="1.5"/>
  <line x1="440.6779" y1="534.2682" x2="232.2426" y2="647.0677" stroke="#333" stroke-width="1.5"/>
  <line x1="432.982" y1="511.8508" x2="199.2144" y2="550.8597" stroke="#333" stroke-width="1.5"/>
  <line x1="432.982" y1="488.1492" x2="199.2144" y2="449.1403" stroke="#333" stroke-width="1.5"/>
  <line x1="440.6779" y1="465.7318" x2="232.2426" y2="352.9323" stroke="#333" stroke-width="1.5"/>
  <line x1="455.2357" y1="447.0279" x2="294.72" y2="272.6613" stroke="#333" stroke-width="1.5"/>
  <line x1="475.0779" y1="434.0643" x2="379.8761" y2="217.026" stroke="#333" stroke-width="1.5"/>
  <line x1="498.0543" y1="428.2459" x2="478.483" y2="192.0554" stroke="#333" stroke-width="1.5"/>
  <line x1="521.675" y1="430.2032" x2="579.855" y2="200.4553" stroke="#333" stroke-width="1.5"/>
  <line x1="543.3803" y1="439.724" x2="673.007" y2="241.3156" stroke="#333" stroke-width="1.5"/>
  <line x1="560.8181" y1="455.7767" x2="747.8444" y2="310.2083" stroke="#333" stroke-width="1.5"/>
  <line x1="572.0988" y1="476.6216" x2="796.2575" y2="399.6679" stroke="#333" stroke-width="1.5"/>
</g>
</g>
</g>
  <g opacity="0.66">
  <g>
  <polygon points="441,323 462,323 462,344" fill="none" stroke="#333" stroke-width="1"/>
  <polygon points="441,323 462,344 447.1508,358.8492" fill="none" stroke="#333" stroke-width="1"/>
  <polygon points="441,323 447.1508,358.8492 426.4532,362.4004" fill="none" stroke="#333" stroke-width="1"/>
  <polygon points="441,323 426.4532,362.4004 406.753,355.127" fill="none" stroke="#333" stroke-width="1"/>
  <polygon points="441,323 406.753,355.127 392.3854,339.8113" fill="none" stroke="#333" stroke-width="1"/>
  <polygon points="441,323 392.3854,339.8113 385.5222,319.9644" fill="none" stroke="#333" stroke-width="1"/>
  <polygon points="441,323 385.5222,319.9644 386.6696,298.9958" fill="none" stroke="#333" stroke-width="1"/>
  <polygon points="441,323 386.6696,298.9958 395.1563,279.7871" fill="none" stroke="#333" stroke-width="1"/>
  <polygon points="441,323 395.1563,279.7871 409.5606,264.5058" fill="none" stroke="#333" stroke-width="1"/>
  <polygon points="441,323 409.5606,264.5058 428.0581,254.5638" fill="none" stroke="#333" stroke-width="1"/>
  <polygon points="441,323 428.0581,254.5638 448.6924,250.6617" fill="none" stroke="#333" stroke-width="1"/>
  <polygon points="441,323 448.6924,250.6617 469.5747,252.8823" fill="none" stroke="#333" stroke-width="1"/>
  <polygon points="441,323 469.5747,252.8823 489.0218,260.8075" fill="none" stroke="#333" stroke-width="1"/>
  <polygon points="441,323 489.0218,260.8075 505.6434,273.6419" fill="none" stroke="#333" stroke-width="1"/>
  <polygon points="441,323 505.6434,273.6419 518.3877,290.3327" fill="none" stroke="#333" stroke-width="1"/>
</g>
</g>
</svg>