<svg xmlns="http://www.w3.org/2000/svg" width="800" height="800" viewBox="0 0 800 800">
  <g transform="rotate(128.6,400,400)">
  <g>
  <polygon points="205,138 170.792,197.25 239.208,197.25" fill="#333" stroke="none"/>
  <polygon points="170.792,197.25 136.584,256.5 205,256.5" fill="#333" stroke="none"/>
  <polygon points="239.208,197.25 205,256.5 273.416,256.5" fill="#333" stroke="none"/>
  <polygon points="136.584,256.5 102.376,315.75 170.792,315.75" fill="#333" stroke="none"/>
  <polygon points="102.376,315.75 68.168,375 136.584,375" fill="#333" stroke="none"/>
  <polygon points="170.792,315.75 136.584,375 205,375" fill="#333" stroke="none"/>
  <polygon points="273.416,256.5 239.208,315.75 307.624,315.75" fill="#333" stroke="none"/>
  <polygon points="239.208,315.75 205,375 273.416,375" fill="#333" stroke="none"/>
  <polygon points="307.624,315.75 273.416,375 341.832,375" fill="#333" stroke="none"/>
  <polygon points="68.168,375 33.96,434.25 102.376,434.25" fill="#333" stroke="none"/>
  <polygon points="33.96,434.25 -0.248,493.5 68.168,493.5" fill="#333" stroke="none"/>
  <polygon points="102.376,434.25 68.168,493.5 136.584,493.5" fill="#333" stroke="none"/>
  <polygon points="-0.248,493.5 -34.456,552.75 33.96,552.75" fill="#333" stroke="none"/>
  <polygon points="-34.456,552.75 -68.664,612 -0.248,612" fill="#333" stroke="none"/>
  <polygon points="33.96,552.75 -0.248,612 68.168,612" fill="#333" stroke="none"/>
  <polygon points="136.584,493.5 102.376,552.75 170.792,552.75" fill="#333" stroke="none"/>
  <polygon points="102.376,552.75 68.168,612 136.584,612" fill="#333" stroke="none"/>
  <polygon points="170.792,552.75 136.584,612 205,612" fill="#333" stroke="none"/>
  <polygon points="341.832,375 307.624,434.25 376.04,434.25" fill="#333" stroke="none"/>
  <polygon points="307.624,434.25 273.416,493.5 341.832,493.5" fill="#333" stroke="none"/>
  <polygon points="376.04,434.25 341.832,493.5 410.248,493.5" fill="#333" stroke="none"/>
  <polygon points="273.416,493.5 239.208,552.75 307.624,552.75" fill="#333" stroke="none"/>
  <polygon points="239.208,552.75 205,612 273.416,612" fill="#333" stroke="none"/>
  <polygon points="307.624,552.75 273.416,612 341.832,612" fill="#333" stroke="none"/>
  <polygon points="410.248,493.5 376.04,552.75 444.456,552.75" fill="#333" stroke="none"/>
  <polygon points="376.04,552.75 341.832,612 410.248,612" fill="#333" stroke="none"/>
  <polygon points="444.456,552.75 410.248,612 478.664,612" fill="#333" stroke="none"/>
</g>
</g>
</svg>