<svg xmlns="http://www.w3.org/2000/svg" width="800" height="800" viewBox="0 0 800 800">
  <g transform="rotate(179.8,400,400)">
  <g>
  <polygon points="397,474 419,474 419,496" fill="none" stroke="#333" stroke-width="1"/>
  <polygon points="397,474 419,496 403.4437,511.5563" fill="none" stroke="#333" stroke-width="1"/>
  <polygon points="397,474 403.4437,511.5563 381.7605,515.2766" fill="none" stroke="#333" stroke-width="1"/>
  <polygon points="397,474 381.7605,515.2766 361.1222,507.6568" fill="none" stroke="#333" stroke-width="1"/>
  <polygon points="397,474 361.1222,507.6568 346.0704,491.6118" fill="none" stroke="#333" stroke-width="1"/>
  <polygon points="397,474 346.0704,491.6118 338.8804,470.8199" fill="none" stroke="#333" stroke-width="1"/>
  <polygon points="397,474 338.8804,470.8199 340.0824,448.8527" fill="none" stroke="#333" stroke-width="1"/>
  <polygon points="397,474 340.0824,448.8527 348.9733,428.7293" fill="none" stroke="#333" stroke-width="1"/>
  <polygon points="397,474 348.9733,428.7293 364.0635,412.7204" fill="none" stroke="#333" stroke-width="1"/>
  <polygon points="397,474 364.0635,412.7204 383.4418,402.305" fill="none" stroke="#333" stroke-width="1"/>
  <polygon points="397,474 383.4418,402.305 405.0587,398.217" fill="none" stroke="#333" stroke-width="1"/>
  <polygon points="397,474 405.0587,398.217 426.9354,400.5434" fill="none" stroke="#333" stroke-width="1"/>
  <polygon points="397,474 426.9354,400.5434 447.3086,408.846" fill="none" stroke="#333" stroke-width="1"/>
  <polygon points="397,474 447.3086,408.846 464.7217,422.2915" fill="none" stroke="#333" stroke-width="1"/>
  <polygon points="397,474 464.7217,422.2915 478.0728,439.7772" fill="none" stroke="#333" stroke-width="1"/>
  <polygon points="397,474 478.0728,439.7772 486.6285,460.0453" fill="none" stroke="#333" stroke-width="1"/>
  <polygon points="397,474 486.6285,460.0453 490.013,481.7835" fill="none" stroke="#333" stroke-width="1"/>
  <polygon points="397,474 490.013,481.7835 488.1784,503.7068" fill="none" stroke="#333" stroke-width="1"/>
  <polygon points="397,474 488.1784,503.7068 481.3632,524.6246" fill="none" stroke="#333" stroke-width="1"/>
  <polygon points="397,474 481.3632,524.6246 470.0432,543.4888" fill="none" stroke="#333" stroke-width="1"/>
</g>
</g>
  <g>
  <polygon points="435,103 719.0563,595 150.9437,595" fill="none" stroke="#333" stroke-width="1.5"/>
  <polygon points="435,185 648.0422,554 221.9578,554" fill="none" stroke="#333" stroke-width="1.5"/>
  <polygon points="435,267 577.0282,513 292.9718,513" fill="none" stroke="#333" stroke-width="1.5"/>
  <polygon points="435,332.6 520.2169,480.2 349.7831,480.2" fill="none" stroke="#333" stroke-width="1.5"/>
  <polygon points="435,742.6 165.1465,275.2 704.8535,275.2" fill="none" stroke="#333" stroke-width="1.5"/>
  <polygon points="435,660.6 236.1606,316.2 633.8394,316.2" fill="none" stroke="#333" stroke-width="1.5"/>
  <polygon points="435,588.44 298.653,352.28 571.347,352.28" fill="none" stroke="#333" stroke-width="1.5"/>
  <polygon points="435,522.84 355.4642,385.08 514.5358,385.08" fill="none" stroke="#333" stroke-width="1.5"/>
  <polygon points="435,480.2 392.3916,406.4 477.6084,406.4" fill="none" stroke="#333" stroke-width="1.5"/>
</g>
  <g>
  <line x1="342.7185" y1="378.3787" x2="596.7479" y2="341.6973" stroke="#333" stroke-width="1.2" fill="none"/>
  <line x1="342.7185" y1="378.3787" x2="489.3154" y2="232.7588" stroke="#333" stroke-width="1.2" fill="none"/>
  <line x1="342.7185" y1="378.3787" x2="315.4859" y2="401.9298" stroke="#333" stroke-width="1.2" fill="none"/>
  <line x1="342.7185" y1="378.3787" x2="315.4859" y2="615.4218" stroke="#333" stroke-width="1.2" fill="none"/>
  <line x1="342.7185" y1="378.3787" x2="489.3154" y2="578.1961" stroke="#333" stroke-width="1.2" fill="none"/>
  <line x1="699.2815" y1="579.6213" x2="726.5141" y2="342.5782" stroke="#333" stroke-width="1.2" fill="none"/>
  <line x1="699.2815" y1="579.6213" x2="552.6846" y2="379.8039" stroke="#333" stroke-width="1.2" fill="none"/>
  <line x1="699.2815" y1="579.6213" x2="445.2521" y2="616.3027" stroke="#333" stroke-width="1.2" fill="none"/>
  <line x1="699.2815" y1="579.6213" x2="552.6846" y2="725.2412" stroke="#333" stroke-width="1.2" fill="none"/>
  <line x1="699.2815" y1="579.6213" x2="726.5141" y2="556.0702" stroke="#333" stroke-width="1.2" fill="none"/>
  <line x1="596.7479" y1="341.6973" x2="489.3154" y2="232.7588" stroke="#333" stroke-width="1.2" fill="none"/>
  <line x1="596.7479" y1="341.6973" x2="489.3154" y2="578.1961" stroke="#333" stroke-width="1.2" fill="none"/>
  <line x1="596.7479" y1="341.6973" x2="726.5141" y2="342.5782" stroke="#333" stroke-width="1.2" fill="none"/>
  <line x1="596.7479" y1="341.6973" x2="726.5141" y2="556.0702" stroke="#333" stroke-width="1.2" fill="none"/>
  <line x1="489.3154" y1="232.7588" x2="315.4859" y2="401.9298" stroke="#333" stroke-width="1.2" fill="none"/>
  <line x1="489.3154" y1="232.7588" x2="726.5141" y2="342.5782" stroke="#333" stroke-width="1.2" fill="none"/>
  <line x1="489.3154" y1="232.7588" x2="552.6846" y2="379.8039" stroke="#333" stroke-width="1.2" fill="none"/>
  <line x1="315.4859" y1="401.9298" x2="315.4859" y2="615.4218" stroke="#333" stroke-width="1.2" fill="none"/>
  <line x1="315.4859" y1="401.9298" x2="552.6846" y2="379.8039" stroke="#333" stroke-width="1.2" fill="none"/>
  <line x1="315.4859" y1="401.9298" x2="445.2521" y2="616.3027" stroke="#333" stroke-width="1.2" fill="none"/>
  <line x1="315.4859" y1="615.4218" x2="489.3154" y2="578.1961" stroke="#333" stroke-width="1.2" fill="none"/>
  <line x1="315.4859" y1="615.4218" x2="445.2521" y2="616.3027" stroke="#333" stroke-width="1.2" fill="none"/>
  <line x1="315.4859" y1="615.4218" x2="552.6846" y2="725.2412" stroke="#333" stroke-width="1.2" fill="none"/>
  <line x1="489.3154" y1="578.1961" x2="552.6846" y2="725.2412" stroke="#333" stroke-width="1.2" fill="none"/>
  <line x1="489.3154" y1="578.1961" x2="726.5141" y2="556.0702" stroke="#333" stroke-width="1.2" fill="none"/>
  <line x1="726.5141" y1="342.5782" x2="552.6846" y2="379.8039" stroke="#333" stroke-width="1.2" fill="none"/>
  <line x1="726.5141" y1="342.5782" x2="726.5141" y2="556.0702" stroke="#333" stroke-width="1.2" fill="none"/>
  <line x1="552.6846" y1="379.8039" x2="445.2521" y2="616.3027" stroke="#333" stroke-width="1.2" fill="none"/>
  <line x1="445.2521" y1="616.3027" x2="552.6846" y2="725.2412" stroke="#333" stroke-width="1.2" fill="none"/>
  <line x1="552.6846" y1="725.2412" x2="726.5141" y2="556.0702" stroke="#333" stroke-width="1.2" fill="none"/>
  <circle cx="342.7185" cy="378.3787" r="12.45" fill="#c66" stroke="#333" stroke-width="0.8"/>
  <circle cx="699.2815" cy="579.6213" r="12.45" fill="#c66" stroke="#333" stroke-width="0.8"/>
  <circle cx="596.7479" cy="341.6973" r="12.45" fill="#c66" stroke="#333" stroke-width="0.8"/>
  <circle cx="489.3154" cy="232.7588" r="12.45" fill="#c66" stroke="#333" stroke-width="0.8"/>
  <circle cx="315.4859" cy="401.9298" r="12.45" fill="#c66" stroke="#333" stroke-width="0.8"/>
  <circle cx="315.4859" cy="615.4218" r="12.45" fill="#c66" stroke="#333" stroke-width="0.8"/>
  <circle cx="489.3154" cy="578.1961" r="12.45" fill="#c66" stroke="#333" stroke-width="0.8"/>
  <circle cx="726.5141" cy="342.5782" r="12.45" fill="#c66" stroke="#333" stroke-width="0.8"/>
  <circle cx="552.6846" cy="379.8039" r="12.45" fill="#c66" stroke="#333" stroke-width="0.8"/>
  <circle cx="445.2521" cy="616.3027" r="12.45" fill="#c66" stroke="#333" stroke-width="0.8"/>
  <circle cx="552.6846" cy="725.2412" r="12.45" fill="#c66" stroke="#333" stroke-width="0.8"/>
  <circle cx="726.5141" cy="556.0702" r="12.45" fill="#c66" stroke="#333" stroke-width="0.8"/>
</g>
  <g>
  <line x1="408.237" y1="206.1497" x2="670.8381" y2="215.9684" stroke="#333" stroke-width="1.2" fill="none"/>
  <line x1="408.237" y1="206.1497" x2="535.8945" y2="160.9405" stroke="#333" stroke-width="1.2" fill="none"/>
  <line x1="408.237" y1="206.1497" x2="317.5513" y2="307.3115" stroke="#333" stroke-width="1.2" fill="none"/>
  <line x1="408.237" y1="206.1497" x2="317.5513" y2="452.8015" stroke="#333" stroke-width="1.2" fill="none"/>
  <line x1="408.237" y1="206.1497" x2="535.8945" y2="396.3484" stroke="#333" stroke-width="1.2" fill="none"/>
  <line x1="651.763" y1="569.8503" x2="742.4487" y2="323.1985" stroke="#333" stroke-width="1.2" fill="none"/>
  <line x1="651.763" y1="569.8503" x2="524.1055" y2="379.6516" stroke="#333" stroke-width="1.2" fill="none"/>
  <line x1="651.763" y1="569.8503" x2="389.1619" y2="560.0316" stroke="#333" stroke-width="1.2" fill="none"/>
  <line x1="651.763" y1="569.8503" x2="524.1055" y2="615.0595" stroke="#333" stroke-width="1.2" fill="none"/>
  <line x1="651.763" y1="569.8503" x2="742.4487" y2="468.6885" stroke="#333" stroke-width="1.2" fill="none"/>
  <line x1="670.8381" y1="215.9684" x2="535.8945" y2="160.9405" stroke="#333" stroke-width="1.2" fill="none"/>
  <line x1="670.8381" y1="215.9684" x2="535.8945" y2="396.3484" stroke="#333" stroke-width="1.2" fill="none"/>
  <line x1="670.8381" y1="215.9684" x2="742.4487" y2="323.1985" stroke="#333" stroke-width="1.2" fill="none"/>
  <line x1="670.8381" y1="215.9684" x2="742.4487" y2="468.6885" stroke="#333" stroke-width="1.2" fill="none"/>
  <line x1="535.8945" y1="160.9405" x2="317.5513" y2="307.3115" stroke="#333" stroke-width="1.2" fill="none"/>
  <line x1="535.8945" y1="160.9405" x2="742.4487" y2="323.1985" stroke="#333" stroke-width="1.2" fill="none"/>
  <line x1="535.8945" y1="160.9405" x2="524.1055" y2="379.6516" stroke="#333" stroke-width="1.2" fill="none"/>
  <line x1="317.5513" y1="307.3115" x2="317.5513" y2="452.8015" stroke="#333" stroke-width="1.2" fill="none"/>
  <line x1="317.5513" y1="307.3115" x2="524.1055" y2="379.6516" stroke="#333" stroke-width="1.2" fill="none"/>
  <line x1="317.5513" y1="307.3115" x2="389.1619" y2="560.0316" stroke="#333" stroke-width="1.2" fill="none"/>
  <line x1="317.5513" y1="452.8015" x2="535.8945" y2="396.3484" stroke="#333" stroke-width="1.2" fill="none"/>
  <line x1="317.5513" y1="452.8015" x2="389.1619" y2="560.0316" stroke="#333" stroke-width="1.2" fill="none"/>
  <line x1="317.5513" y1="452.8015" x2="524.1055" y2="615.0595" stroke="#333" stroke-width="1.2" fill="none"/>
  <line x1="535.8945" y1="396.3484" x2="524.1055" y2="615.0595" stroke="#333" stroke-width="1.2" fill="none"/>
  <line x1="535.8945" y1="396.3484" x2="742.4487" y2="468.6885" stroke="#333" stroke-width="1.2" fill="none"/>
  <line x1="742.4487" y1="323.1985" x2="524.1055" y2="379.6516" stroke="#333" stroke-width="1.2" fill="none"/>
  <line x1="742.4487" y1="323.1985" x2="742.4487" y2="468.6885" stroke="#333" stroke-width="1.2" fill="none"/>
  <line x1="524.1055" y1="379.6516" x2="389.1619" y2="560.0316" stroke="#333" stroke-width="1.2" fill="none"/>
  <line x1="389.1619" y1="560.0316" x2="524.1055" y2="615.0595" stroke="#333" stroke-width="1.2" fill="none"/>
  <line x1="524.1055" y1="615.0595" x2="742.4487" y2="468.6885" stroke="#333" stroke-width="1.2" fill="none"/>
  <circle cx="408.237" cy="206.1497" r="12.5" fill="#c66" stroke="#333" stroke-width="0.8"/>
  <circle cx="651.763" cy="569.8503" r="12.5" fill="#c66" stroke="#333" stroke-width="0.8"/>
  <circle cx="670.8381" cy="215.9684" r="12.5" fill="#c66" stroke="#333" stroke-width="0.8"/>
  <circle cx="535.8945" cy="160.9405" r="12.5" fill="#c66" stroke="#333" stroke-width="0.8"/>
  <circle cx="317.5513" cy="307.3115" r="12.5" fill="#c66" stroke="#333" stroke-width="0.8"/>
  <circle cx="317.5513" cy="452.8015" r="12.5" fill="#c66" stroke="#333" stroke-width="0.8"/>
  <circle cx="535.8945" cy="396.3484" r="12.5" fill="#c66" stroke="#333" stroke-width="0.8"/>
  <circle cx="742.4487" cy="323.1985" r="12.5" fill="#c66" stroke="#333" stroke-width="0.8"/>
  <circle cx="524.1055" cy="379.6516" r="12.5" fill="#c66" stroke="#333" stroke-width="0.8"/>
  <circle cx="389.1619" cy="560.0316" r="12.5" fill="#c66" stroke="#333" stroke-width="0.8"/>
  <circle cx="524.1055" cy="615.0595" r="12.5" fill="#c66" stroke="#333" stroke-width="0.8"/>
  <circle cx="742.4487" cy="468.6885" r="12.5" fill="#c66" stroke="#333" stroke-width="0.8"/>
</g>
</svg>