<svg xmlns="http://www.w3.org/2000/svg" width="800" height="800" viewBox="0 0 800 800">
  <g transform="rotate(167.5,400,400)">
  <g>
  <polygon points="462.7289,426.0082 627.4962,356.2296 658.1962,344.1608 512.4027,406.4804 391.5973,457.0648" stroke="#333" stroke-width="1.2" fill="#8B4513" fill-opacity="0.3"/>
  <polygon points="462.7289,426.0082 627.4962,356.2296 627.4962,189.1023 462.7289,155.5904 360.8972,302.0063" stroke="#333" stroke-width="1.2" fill="#DC143C" fill-opacity="0.3"/>
  <polygon points="462.7289,426.0082 391.5973,457.0648 245.8038,352.257 226.8301,256.4255 360.8972,302.0063" stroke="#333" stroke-width="1.2" fill="#4169E1" fill-opacity="0.3"/>
  <polygon points="462.7289,155.5904 360.8972,302.0063 226.8301,256.4255 245.8038,81.8392 391.5973,19.5196" stroke="#333" stroke-width="1.2" fill="#228B22" fill-opacity="0.3"/>
  <polygon points="462.7289,155.5904 627.4962,189.1023 658.1962,73.743 512.4027,-31.0648 391.5973,19.5196" stroke="#333" stroke-width="1.2" fill="#8B4513" fill-opacity="0.3"/>
  <polygon points="245.8038,352.257 391.5973,457.0648 512.4027,406.4804 441.2711,270.4096 276.5038,236.8977" stroke="#333" stroke-width="1.2" fill="#DC143C" fill-opacity="0.3"/>
  <polygon points="245.8038,352.257 226.8301,256.4255 245.8038,81.8392 276.5038,69.7704 276.5038,236.8977" stroke="#333" stroke-width="1.2" fill="#4169E1" fill-opacity="0.3"/>
  <polygon points="245.8038,81.8392 391.5973,19.5196 512.4027,-31.0648 441.2711,-0.0082 276.5038,69.7704" stroke="#333" stroke-width="1.2" fill="#228B22" fill-opacity="0.3"/>
  <polygon points="658.1962,344.1608 627.4962,356.2296 627.4962,189.1023 658.1962,73.743 677.1699,169.5745" stroke="#333" stroke-width="1.2" fill="#8B4513" fill-opacity="0.3"/>
  <polygon points="658.1962,344.1608 512.4027,406.4804 441.2711,270.4096 543.1028,123.9937 677.1699,169.5745" stroke="#333" stroke-width="1.2" fill="#DC143C" fill-opacity="0.3"/>
  <polygon points="658.1962,73.743 677.1699,169.5745 543.1028,123.9937 441.2711,-0.0082 512.4027,-31.0648" stroke="#333" stroke-width="1.2" fill="#4169E1" fill-opacity="0.3"/>
  <polygon points="441.2711,270.4096 276.5038,236.8977 276.5038,69.7704 441.2711,-0.0082 543.1028,123.9937" stroke="#333" stroke-width="1.2" fill="#228B22" fill-opacity="0.3"/>
  <line x1="462.7289" y1="426.0082" x2="627.4962" y2="356.2296" stroke="#333" stroke-width="1.2" fill="none"/>
  <line x1="462.7289" y1="426.0082" x2="391.5973" y2="457.0648" stroke="#333" stroke-width="1.2" fill="none"/>
  <line x1="462.7289" y1="426.0082" x2="360.8972" y2="302.0063" stroke="#333" stroke-width="1.2" fill="none"/>
  <line x1="462.7289" y1="155.5904" x2="360.8972" y2="302.0063" stroke="#333" stroke-width="1.2" fill="none"/>
  <line x1="462.7289" y1="155.5904" x2="627.4962" y2="189.1023" stroke="#333" stroke-width="1.2" fill="none"/>
  <line x1="462.7289" y1="155.5904" x2="391.5973" y2="19.5196" stroke="#333" stroke-width="1.2" fill="none"/>
  <line x1="245.8038" y1="352.257" x2="391.5973" y2="457.0648" stroke="#333" stroke-width="1.2" fill="none"/>
  <line x1="245.8038" y1="352.257" x2="226.8301" y2="256.4255" stroke="#333" stroke-width="1.2" fill="none"/>
  <line x1="245.8038" y1="352.257" x2="276.5038" y2="236.8977" stroke="#333" stroke-width="1.2" fill="none"/>
  <line x1="245.8038" y1="81.8392" x2="391.5973" y2="19.5196" stroke="#333" stroke-width="1.2" fill="none"/>
  <line x1="245.8038" y1="81.8392" x2="226.8301" y2="256.4255" stroke="#333" stroke-width="1.2" fill="none"/>
  <line x1="245.8038" y1="81.8392" x2="276.5038" y2="69.7704" stroke="#333" stroke-width="1.2" fill="none"/>
  <line x1="658.1962" y1="344.1608" x2="627.4962" y2="356.2296" stroke="#333" stroke-width="1.2" fill="none"/>
  <line x1="658.1962" y1="344.1608" x2="512.4027" y2="406.4804" stroke="#333" stroke-width="1.2" fill="none"/>
  <line x1="658.1962" y1="344.1608" x2="677.1699" y2="169.5745" stroke="#333" stroke-width="1.2" fill="none"/>
  <line x1="658.1962" y1="73.743" x2="627.4962" y2="189.1023" stroke="#333" stroke-width="1.2" fill="none"/>
  <line x1="658.1962" y1="73.743" x2="677.1699" y2="169.5745" stroke="#333" stroke-width="1.2" fill="none"/>
  <line x1="658.1962" y1="73.743" x2="512.4027" y2="-31.0648" stroke="#333" stroke-width="1.2" fill="none"/>
  <line x1="441.2711" y1="270.4096" x2="276.5038" y2="236.8977" stroke="#333" stroke-width="1.2" fill="none"/>
  <line x1="441.2711" y1="270.4096" x2="512.4027" y2="406.4804" stroke="#333" stroke-width="1.2" fill="none"/>
  <line x1="441.2711" y1="270.4096" x2="543.1028" y2="123.9937" stroke="#333" stroke-width="1.2" fill="none"/>
  <line x1="441.2711" y1="-0.0082" x2="276.5038" y2="69.7704" stroke="#333" stroke-width="1.2" fill="none"/>
  <line x1="441.2711" y1="-0.0082" x2="512.4027" y2="-31.0648" stroke="#333" stroke-width="1.2" fill="none"/>
  <line x1="441.2711" y1="-0.0082" x2="543.1028" y2="123.9937" stroke="#333" stroke-width="1.2" fill="none"/>
  <line x1="627.4962" y1="356.2296" x2="627.4962" y2="189.1023" stroke="#333" stroke-width="1.2" fill="none"/>
  <line x1="391.5973" y1="457.0648" x2="512.4027" y2="406.4804" stroke="#333" stroke-width="1.2" fill="none"/>
  <line x1="360.8972" y1="302.0063" x2="226.8301" y2="256.4255" stroke="#333" stroke-width="1.2" fill="none"/>
  <line x1="391.5973" y1="19.5196" x2="512.4027" y2="-31.0648" stroke="#333" stroke-width="1.2" fill="none"/>
  <line x1="276.5038" y1="236.8977" x2="276.5038" y2="69.7704" stroke="#333" stroke-width="1.2" fill="none"/>
  <line x1="677.1699" y1="169.5745" x2="543.1028" y2="123.9937" stroke="#333" stroke-width="1.2" fill="none"/>
  <circle cx="462.7289" cy="426.0082" r="4.38" fill="#333" stroke="none"/>
  <circle cx="462.7289" cy="155.5904" r="4.38" fill="#333" stroke="none"/>
  <circle cx="245.8038" cy="352.257" r="4.38" fill="#333" stroke="none"/>
  <circle cx="245.8038" cy="81.8392" r="4.38" fill="#333" stroke="none"/>
  <circle cx="658.1962" cy="344.1608" r="4.38" fill="#333" stroke="none"/>
  <circle cx="658.1962" cy="73.743" r="4.38" fill="#333" stroke="none"/>
  <circle cx="441.2711" cy="270.4096" r="4.38" fill="#333" stroke="none"/>
  <circle cx="441.2711" cy="-0.0082" r="4.38" fill="#333" stroke="none"/>
  <circle cx="627.4962" cy="356.2296" r="4.38" fill="#333" stroke="none"/>
  <circle cx="391.5973" cy="457.0648" r="4.38" fill="#333" stroke="none"/>
  <circle cx="360.8972" cy="302.0063" r="4.38" fill="#333" stroke="none"/>
  <circle cx="627.4962" cy="189.1023" r="4.38" fill="#333" stroke="none"/>
  <circle cx="391.5973" cy="19.5196" r="4.38" fill="#333" stroke="none"/>
  <circle cx="226.8301" cy="256.4255" r="4.38" fill="#333" stroke="none"/>
  <circle cx="276.5038" cy="236.8977" r="4.38" fill="#333" stroke="none"/>
  <circle cx="512.4027" cy="406.4804" r="4.38" fill="#333" stroke="none"/>
  <circle cx="677.1699" cy="169.5745" r="4.38" fill="#333" stroke="none"/>
  <circle cx="276.5038" cy="69.7704" r="4.38" fill="#333" stroke="none"/>
  <circle cx="512.4027" cy="-31.0648" r="4.38" fill="#333" stroke="none"/>
  <circle cx="543.1028" cy="123.9937" r="4.38" fill="#333" stroke="none"/>
</g>
</g>
  <g>
  <polygon points="430,324 531.325,499.5 328.675,499.5" fill="none" stroke="#333" stroke-width="1.5" angle-x="0.5388521259834199" angle-z="0.9167614749705013"/>
  <polygon points="430,353.25 505.9937,484.875 354.0063,484.875" fill="none" stroke="#333" stroke-width="1.5" angle-x="0.5388521259834199" angle-z="0.9167614749705013"/>
  <polygon points="430,382.5 480.6625,470.25 379.3375,470.25" fill="none" stroke="#333" stroke-width="1.5" angle-x="0.5388521259834199" angle-z="0.9167614749705013"/>
  <polygon points="430,405.9 460.3975,458.55 399.6025,458.55" fill="none" stroke="#333" stroke-width="1.5" angle-x="0.5388521259834199" angle-z="0.9167614749705013"/>
  <polygon points="430,552.15 333.7413,385.425 526.2587,385.425" fill="none" stroke="#333" stroke-width="1.5" angle-x="0.5388521259834199" angle-z="0.9167614749705013"/>
  <polygon points="430,522.9 359.0725,400.05 500.9275,400.05" fill="none" stroke="#333" stroke-width="1.5" angle-x="0.5388521259834199" angle-z="0.9167614749705013"/>
  <polygon points="430,497.16 381.364,412.92 478.636,412.92" fill="none" stroke="#333" stroke-width="1.5" angle-x="0.5388521259834199" angle-z="0.9167614749705013"/>
  <polygon points="430,473.76 401.629,424.62 458.371,424.62" fill="none" stroke="#333" stroke-width="1.5" angle-x="0.5388521259834199" angle-z="0.9167614749705013"/>
  <polygon points="430,458.55 414.8013,432.225 445.1987,432.225" fill="none" stroke="#333" stroke-width="1.5" angle-x="0.5388521259834199" angle-z="0.9167614749705013"/>
</g>
  <g opacity="0.65">
  <g>
  <g>
  <circle cx="333" cy="302" r="22.8851" stroke="#e74c3c" stroke-width="2" fill="#e74c3c" fill-opacity="0.08"/>
  <circle cx="355.8851" cy="302" r="3" fill="#e74c3c" stroke="none"/>
  <circle cx="321.5574" cy="282.1809" r="3" fill="#e74c3c" stroke="none"/>
  <circle cx="321.5574" cy="321.8191" r="3" fill="#e74c3c" stroke="none"/>
  <text x="363.8851" y="306" font-size="10" fill="#e74c3c">3D c3 seed</text>
  <circle cx="333" cy="302" r="37.0289" stroke="#e67e22" stroke-width="2" fill="#e67e22" fill-opacity="0.08"/>
  <circle cx="370.0289" cy="302" r="3" fill="#e67e22" stroke="none"/>
  <circle cx="333" cy="264.9711" r="3" fill="#e67e22" stroke="none"/>
  <circle cx="295.9711" cy="302" r="3" fill="#e67e22" stroke="none"/>
  <circle cx="333" cy="339.0289" r="3" fill="#e67e22" stroke="none"/>
  <text x="378.0289" y="306" font-size="10" fill="#e67e22">4D E4 base</text>
  <circle cx="333" cy="302" r="59.9141" stroke="#f1c40f" stroke-width="2" fill="#f1c40f" fill-opacity="0.08"/>
  <circle cx="392.9141" cy="302" r="3" fill="#f1c40f" stroke="none"/>
  <circle cx="362.957" cy="250.1129" r="3" fill="#f1c40f" stroke="none"/>
  <circle cx="303.043" cy="250.1129" r="3" fill="#f1c40f" stroke="none"/>
  <circle cx="273.0859" cy="302" r="3" fill="#f1c40f" stroke="none"/>
  <circle cx="303.043" cy="353.8871" r="3" fill="#f1c40f" stroke="none"/>
  <circle cx="362.957" cy="353.8871" r="3" fill="#f1c40f" stroke="none"/>
  <text x="400.9141" y="306" font-size="10" fill="#f1c40f">6D W3 Mobius</text>
  <circle cx="333" cy="302" r="96.943" stroke="#2ecc71" stroke-width="2" fill="#2ecc71" fill-opacity="0.08"/>
  <circle cx="429.943" cy="302" r="3" fill="#2ecc71" stroke="none"/>
  <circle cx="401.549" cy="233.451" r="3" fill="#2ecc71" stroke="none"/>
  <circle cx="333" cy="205.057" r="3" fill="#2ecc71" stroke="none"/>
  <circle cx="264.451" cy="233.451" r="3" fill="#2ecc71" stroke="none"/>
  <circle cx="236.057" cy="302" r="3" fill="#2ecc71" stroke="none"/>
  <circle cx="264.451" cy="370.549" r="3" fill="#2ecc71" stroke="none"/>
  <circle cx="333" cy="398.943" r="3" fill="#2ecc71" stroke="none"/>
  <circle cx="401.549" cy="370.549" r="3" fill="#2ecc71" stroke="none"/>
  <text x="437.943" y="306" font-size="10" fill="#2ecc71">8D W5 penta</text>
  <circle cx="333" cy="302" r="156.857" stroke="#3498db" stroke-width="2" fill="#3498db" fill-opacity="0.08"/>
  <circle cx="489.857" cy="302" r="3" fill="#3498db" stroke="none"/>
  <circle cx="459.9" cy="209.8018" r="3" fill="#3498db" stroke="none"/>
  <circle cx="381.4715" cy="152.8201" r="3" fill="#3498db" stroke="none"/>
  <circle cx="284.5285" cy="152.8201" r="3" fill="#3498db" stroke="none"/>
  <circle cx="206.1" cy="209.8018" r="3" fill="#3498db" stroke="none"/>
  <circle cx="176.143" cy="302" r="3" fill="#3498db" stroke="none"/>
  <circle cx="206.1" cy="394.1982" r="3" fill="#3498db" stroke="none"/>
  <circle cx="284.5285" cy="451.1799" r="3" fill="#3498db" stroke="none"/>
  <circle cx="381.4715" cy="451.1799" r="3" fill="#3498db" stroke="none"/>
  <circle cx="459.9" cy="394.1982" r="3" fill="#3498db" stroke="none"/>
  <text x="497.857" y="306" font-size="10" fill="#3498db">10D W7 hepta</text>
  <circle cx="333" cy="302" r="253.8" stroke="#9b59b6" stroke-width="2" fill="#9b59b6" fill-opacity="0.08"/>
  <circle cx="586.8" cy="302" r="3" fill="#9b59b6" stroke="none"/>
  <circle cx="552.7972" cy="175.1" r="3" fill="#9b59b6" stroke="none"/>
  <circle cx="459.9" cy="82.2028" r="3" fill="#9b59b6" stroke="none"/>
  <circle cx="333" cy="48.2" r="3" fill="#9b59b6" stroke="none"/>
  <circle cx="206.1" cy="82.2028" r="3" fill="#9b59b6" stroke="none"/>
  <circle cx="113.2028" cy="175.1" r="3" fill="#9b59b6" stroke="none"/>
  <circle cx="79.2" cy="302" r="3" fill="#9b59b6" stroke="none"/>
  <circle cx="113.2028" cy="428.9" r="3" fill="#9b59b6" stroke="none"/>
  <circle cx="206.1" cy="521.7972" r="3" fill="#9b59b6" stroke="none"/>
  <circle cx="333" cy="555.8" r="3" fill="#9b59b6" stroke="none"/>
  <circle cx="459.9" cy="521.7972" r="3" fill="#9b59b6" stroke="none"/>
  <circle cx="552.7972" cy="428.9" r="3" fill="#9b59b6" stroke="none"/>
  <text x="594.8" y="306" font-size="10" fill="#9b59b6">12D W9 crown</text>
</g>
  <line x1="300.5227" y1="406.8361" x2="432.6362" y2="396.367" stroke="#8B4513" stroke-width="1.2"/>
  <line x1="300.5227" y1="406.8361" x2="300.5227" y2="226.8792" stroke="#DC143C" stroke-width="1.2"/>
  <line x1="300.5227" y1="406.8361" x2="300.5227" y2="377.1208" stroke="#4169E1" stroke-width="1.2"/>
  <line x1="300.5227" y1="406.8361" x2="240.9942" y2="389.1402" stroke="#228B22" stroke-width="1.2"/>
  <line x1="432.6362" y1="396.367" x2="432.6362" y2="234.3808" stroke="#DC143C" stroke-width="1.2"/>
  <line x1="432.6362" y1="396.367" x2="432.6362" y2="369.6192" stroke="#4169E1" stroke-width="1.2"/>
  <line x1="432.6362" y1="396.367" x2="357.7161" y2="381.7831" stroke="#228B22" stroke-width="1.2"/>
  <line x1="300.5227" y1="226.8792" x2="432.6362" y2="234.3808" stroke="#8B4513" stroke-width="1.2"/>
  <line x1="300.5227" y1="226.8792" x2="300.5227" y2="197.1639" stroke="#4169E1" stroke-width="1.2"/>
  <line x1="300.5227" y1="226.8792" x2="240.9942" y2="239.5592" stroke="#228B22" stroke-width="1.2"/>
  <line x1="432.6362" y1="234.3808" x2="432.6362" y2="207.633" stroke="#4169E1" stroke-width="1.2"/>
  <line x1="432.6362" y1="234.3808" x2="357.7161" y2="244.831" stroke="#228B22" stroke-width="1.2"/>
  <line x1="300.5227" y1="377.1208" x2="432.6362" y2="369.6192" stroke="#8B4513" stroke-width="1.2"/>
  <line x1="300.5227" y1="377.1208" x2="300.5227" y2="197.1639" stroke="#DC143C" stroke-width="1.2"/>
  <line x1="300.5227" y1="377.1208" x2="240.9942" y2="364.4408" stroke="#228B22" stroke-width="1.2"/>
  <line x1="432.6362" y1="369.6192" x2="432.6362" y2="207.633" stroke="#DC143C" stroke-width="1.2"/>
  <line x1="432.6362" y1="369.6192" x2="357.7161" y2="359.169" stroke="#228B22" stroke-width="1.2"/>
  <line x1="300.5227" y1="197.1639" x2="432.6362" y2="207.633" stroke="#8B4513" stroke-width="1.2"/>
  <line x1="300.5227" y1="197.1639" x2="240.9942" y2="214.8598" stroke="#228B22" stroke-width="1.2"/>
  <line x1="432.6362" y1="207.633" x2="357.7161" y2="222.2169" stroke="#228B22" stroke-width="1.2"/>
  <line x1="240.9942" y1="389.1402" x2="357.7161" y2="381.7831" stroke="#8B4513" stroke-width="1.2"/>
  <line x1="240.9942" y1="389.1402" x2="240.9942" y2="239.5592" stroke="#DC143C" stroke-width="1.2"/>
  <line x1="240.9942" y1="389.1402" x2="240.9942" y2="364.4408" stroke="#4169E1" stroke-width="1.2"/>
  <line x1="357.7161" y1="381.7831" x2="357.7161" y2="244.831" stroke="#DC143C" stroke-width="1.2"/>
  <line x1="357.7161" y1="381.7831" x2="357.7161" y2="359.169" stroke="#4169E1" stroke-width="1.2"/>
  <line x1="240.9942" y1="239.5592" x2="357.7161" y2="244.831" stroke="#8B4513" stroke-width="1.2"/>
  <line x1="240.9942" y1="239.5592" x2="240.9942" y2="214.8598" stroke="#4169E1" stroke-width="1.2"/>
  <line x1="357.7161" y1="244.831" x2="357.7161" y2="222.2169" stroke="#4169E1" stroke-width="1.2"/>
  <line x1="240.9942" y1="364.4408" x2="357.7161" y2="359.169" stroke="#8B4513" stroke-width="1.2"/>
  <line x1="240.9942" y1="364.4408" x2="240.9942" y2="214.8598" stroke="#DC143C" stroke-width="1.2"/>
  <line x1="357.7161" y1="359.169" x2="357.7161" y2="222.2169" stroke="#DC143C" stroke-width="1.2"/>
  <line x1="240.9942" y1="214.8598" x2="357.7161" y2="222.2169" stroke="#8B4513" stroke-width="1.2"/>
  <circle cx="300.5227" cy="406.8361" r="3" fill="#8B4513" stroke="#333" stroke-width="0.5"/>
  <circle cx="432.6362" cy="396.367" r="3" fill="#DC143C" stroke="#333" stroke-width="0.5"/>
  <circle cx="300.5227" cy="226.8792" r="3" fill="#DC143C" stroke="#333" stroke-width="0.5"/>
  <circle cx="432.6362" cy="234.3808" r="3" fill="#4169E1" stroke="#333" stroke-width="0.5"/>
  <circle cx="300.5227" cy="377.1208" r="3" fill="#DC143C" stroke="#333" stroke-width="0.5"/>
  <circle cx="432.6362" cy="369.6192" r="3" fill="#4169E1" stroke="#333" stroke-width="0.5"/>
  <circle cx="300.5227" cy="197.1639" r="3" fill="#4169E1" stroke="#333" stroke-width="0.5"/>
  <circle cx="432.6362" cy="207.633" r="3" fill="#228B22" stroke="#333" stroke-width="0.5"/>
  <circle cx="240.9942" cy="389.1402" r="3" fill="#DC143C" stroke="#333" stroke-width="0.5"/>
  <circle cx="357.7161" cy="381.7831" r="3" fill="#4169E1" stroke="#333" stroke-width="0.5"/>
  <circle cx="240.9942" cy="239.5592" r="3" fill="#4169E1" stroke="#333" stroke-width="0.5"/>
  <circle cx="357.7161" cy="244.831" r="3" fill="#228B22" stroke="#333" stroke-width="0.5"/>
  <circle cx="240.9942" cy="364.4408" r="3" fill="#4169E1" stroke="#333" stroke-width="0.5"/>
  <circle cx="357.7161" cy="359.169" r="3" fill="#228B22" stroke="#333" stroke-width="0.5"/>
  <circle cx="240.9942" cy="214.8598" r="3" fill="#228B22" stroke="#333" stroke-width="0.5"/>
  <circle cx="357.7161" cy="222.2169" r="3" fill="#8B4513" stroke="#333" stroke-width="0.5"/>
  <g>
  <polyline points="413.148,290.1138 409.255,286.0434 404.1074,282.2372 397.7782,278.7616 390.3567,275.679 381.947,273.0473 372.6679,270.9188 362.6516,269.3395 352.0427,268.3489 340.9968,267.9785 329.6791,268.2517 318.2625,269.1826 306.9259,270.7761 295.8515,273.0267 285.2227,275.9183 275.2213,279.4241 266.0245,283.5062 257.8018,288.1159 250.7121,293.1936 244.9001,298.6696 240.4935,304.4647 237.5997,310.491 236.303,316.6533 236.6623,322.8503 238.7083,328.9764 242.4424,334.9234 247.835,340.5825 254.8252,345.8462 263.3209,350.6108 273.1989,354.7786 284.3071,358.2595 296.4663,360.9739 309.4728,362.8539 323.1023,363.8455 337.1137,363.9103 351.2536,363.0259 365.2616,361.1878 378.8751,358.4092 391.8355,354.7212 403.8928,350.1732 414.8118,344.8312 424.3769,338.7775 432.3972,332.1089 438.7105,324.9349 443.1875,317.3756 445.7344,309.5593 446.2956,301.6199 444.8548,293.6941 441.4355,285.9186" stroke="#9b59b6" stroke-width="0.5" fill="none" stroke-opacity="0.6"/>
  <polyline points="417.8625,289.4146 413.7293,284.774 408.2481,280.4223 401.5029,276.4348 393.5961,272.8816 384.6481,269.827 374.7951,267.328 364.188,265.434 352.9904,264.1855 341.3766,263.6136 329.5296,263.7395 317.6381,264.5736 305.8946,266.1155 294.4924,268.3532 283.6223,271.2635 273.4704,274.8116 264.2143,278.9516 256.0207,283.6268 249.0417,288.7699 243.4124,294.3046 239.248,300.1456 236.641,306.2006 235.6594,312.3712 236.3441,318.5547 238.7083,324.6455 242.7356,330.5372 248.3801,336.1241 255.5661,341.3037 264.1889,345.9783 274.1158,350.0569 285.1882,353.4575 297.2239,356.1082 310.02,357.9497 323.3561,358.9357 336.999,359.0351 350.706,358.2321 364.2303,356.5272 377.3254,353.9374 389.7498,350.4962 401.2723,346.2533 411.6765,341.2733 420.7651,335.6355 428.3645,329.4317 434.328,322.7651 438.5393,315.7479 440.915,308.4996 441.4064,301.1442 440.0006,293.8082 436.7209,286.6178" stroke="#9b59b6" stroke-width="0.5" fill="none" stroke-opacity="0.6"/>
  <polyline points="422.5771,288.7154 418.2036,283.5046 412.3889,278.6074 405.2275,274.1079 396.8356,270.0842 387.3492,266.6067 376.9223,263.7373 365.7244,261.5285 353.9381,260.0221 341.7565,259.2487 329.38,259.2274 317.0137,259.9646 304.8634,261.4548 293.1333,263.6797 282.0219,266.6086 271.7195,270.1991 262.4042,274.3971 254.2396,279.1377 247.3713,284.3463 241.9248,289.9395 238.0025,295.8265 235.6824,301.9102 235.0157,308.0892 236.026,314.2592 238.7083,320.3147 243.0289,326.151 248.9253,331.6658 256.307,336.7613 265.0569,341.3458 275.0327,345.3353 286.0694,348.6554 297.9816,351.2426 310.5671,353.0455 323.6099,354.0259 336.8842,354.1599 350.1584,353.4382 363.1991,351.8665 375.7756,349.4656 387.6641,346.2712 398.6519,342.3333 408.5412,337.7154 417.1533,332.4934 424.3318,326.7545 429.9454,320.5953 433.8911,314.1203 436.0956,307.4399 436.5172,300.6685 435.1464,293.9223 432.0063,287.317" stroke="#9b59b6" stroke-width="0.5" fill="none" stroke-opacity="0.6"/>
  <polyline points="427.2917,288.0162 422.6779,282.2353 416.5296,276.7925 408.9521,271.7811 400.0751,267.2867 390.0504,263.3863 379.0495,260.1466 367.2608,257.623 354.8858,255.8587 342.1363,254.8839 329.2305,254.7152 316.3892,255.3556 303.8322,256.7941 291.7742,259.0061 280.4215,261.9538 269.9685,265.5866 260.5941,269.8425 252.4584,274.6486 245.7009,279.9227 240.4371,285.5745 236.7571,291.5074 234.7238,297.6198 234.372,303.8072 235.7078,309.9636 238.7083,315.9838 243.3221,321.7647 249.4704,327.2075 257.0479,332.2189 265.9249,336.7133 275.9496,340.6137 286.9505,343.8534 298.7392,346.377 311.1142,348.1413 323.8637,349.1161 336.7695,349.2848 349.6108,348.6444 362.1678,347.2059 374.2258,344.9939 385.5785,342.0462 396.0315,338.4134 405.4059,334.1575 413.5416,329.3514 420.2991,324.0773 425.5629,318.4255 429.2429,312.4926 431.2762,306.3802 431.628,300.1928 430.2922,294.0364 427.2917,288.0162" stroke="#9b59b6" stroke-width="0.5" fill="none" stroke-opacity="0.6"/>
  <polyline points="432.0063,287.317 427.1522,280.9659 420.6704,274.9777 412.6768,269.4543 403.3146,264.4893 392.7515,260.166 381.1767,256.5559 368.7971,253.7175 355.8334,251.6953 342.5161,250.519 329.081,250.2031 315.7648,250.7466 302.8009,252.1335 290.415,254.3326 278.8211,257.2989 268.2176,260.9741 258.7839,265.2879 250.6773,270.1595 244.0305,275.499 238.9494,281.2095 235.5116,287.1883 233.7651,293.3294 233.7283,299.5252 235.3896,305.6681 238.7083,311.6529 243.6154,317.3785 250.0155,322.7491 257.7887,327.6765 266.7929,332.0807 276.8665,335.8921 287.8316,339.0514 299.4969,341.5114 311.6614,343.2371 324.1175,344.2063 336.6547,344.4096 349.0632,343.8505 361.1366,342.5452 372.6761,340.5221 383.4928,337.8212 393.411,334.4935 402.2707,330.5996 409.9298,326.2094 416.2664,321.4001 421.1804,316.2557 424.5948,310.8649 426.4568,305.3205 426.7388,299.7171 425.438,294.1504 422.5771,288.7154" stroke="#9b59b6" stroke-width="0.5" fill="none" stroke-opacity="0.6"/>
  <polyline points="436.7209,286.6178 431.6265,279.6965 424.8111,273.1628 416.4014,267.1275 406.5541,261.6919 395.4527,256.9456 383.3039,252.9651 370.3335,249.8119 356.7811,247.5319 342.896,246.1541 328.9315,245.6909 315.1404,246.1376 301.7697,247.4728 289.0559,249.6591 277.2208,252.6441 266.4667,256.3616 256.9738,260.7333 248.8962,265.6704 242.3601,271.0754 237.4618,276.8445 234.2661,282.8692 232.8065,289.0391 233.0847,295.2431 235.0715,301.3725 238.7083,307.3221 243.9087,312.9923 250.5607,318.2908 258.5296,323.134 267.6609,327.4482 277.7834,331.1704 288.7127,334.2493 300.2546,336.6458 312.2085,338.333 324.3713,339.2965 336.54,339.5344 348.5155,339.0566 360.1054,337.8845 371.1263,336.0503 381.4071,333.5962 390.7906,330.5735 399.1354,327.0417 406.318,323.0673 412.2337,318.7229 416.7978,314.0859 419.9466,309.2373 421.6374,304.2608 421.8496,299.2414 420.5838,294.2645 417.8625,289.4146" stroke="#9b59b6" stroke-width="0.5" fill="none" stroke-opacity="0.6"/>
  <polyline points="413.148,290.1138 417.8625,289.4146 422.5771,288.7154 427.2917,288.0162 432.0063,287.317 436.7209,286.6178" stroke="#999" stroke-width="0.5" fill="none" stroke-opacity="0.6"/>
  <polyline points="390.3567,275.679 393.5961,272.8816 396.8356,270.0842 400.0751,267.2867 403.3146,264.4893 406.5541,261.6919" stroke="#999" stroke-width="0.5" fill="none" stroke-opacity="0.6"/>
  <polyline points="352.0427,268.3489 352.9904,264.1855 353.9381,260.0221 354.8858,255.8587 355.8334,251.6953 356.7811,247.5319" stroke="#999" stroke-width="0.5" fill="none" stroke-opacity="0.6"/>
  <polyline points="306.9259,270.7761 305.8946,266.1155 304.8634,261.4548 303.8322,256.7941 302.8009,252.1335 301.7697,247.4728" stroke="#999" stroke-width="0.5" fill="none" stroke-opacity="0.6"/>
  <polyline points="266.0245,283.5062 264.2143,278.9516 262.4042,274.3971 260.5941,269.8425 258.7839,265.2879 256.9738,260.7333" stroke="#999" stroke-width="0.5" fill="none" stroke-opacity="0.6"/>
  <polyline points="240.4935,304.4647 239.248,300.1456 238.0025,295.8265 236.7571,291.5074 235.5116,287.1883 234.2661,282.8692" stroke="#999" stroke-width="0.5" fill="none" stroke-opacity="0.6"/>
  <polyline points="238.7083,328.9764 238.7083,324.6455 238.7083,320.3147 238.7083,315.9838 238.7083,311.6529 238.7083,307.3221" stroke="#999" stroke-width="0.5" fill="none" stroke-opacity="0.6"/>
  <polyline points="263.3209,350.6108 264.1889,345.9783 265.0569,341.3458 265.9249,336.7133 266.7929,332.0807 267.6609,327.4482" stroke="#999" stroke-width="0.5" fill="none" stroke-opacity="0.6"/>
  <polyline points="309.4728,362.8539 310.02,357.9497 310.5671,353.0455 311.1142,348.1413 311.6614,343.2371 312.2085,338.333" stroke="#999" stroke-width="0.5" fill="none" stroke-opacity="0.6"/>
  <polyline points="365.2616,361.1878 364.2303,356.5272 363.1991,351.8665 362.1678,347.2059 361.1366,342.5452 360.1054,337.8845" stroke="#999" stroke-width="0.5" fill="none" stroke-opacity="0.6"/>
  <polyline points="414.8118,344.8312 411.6765,341.2733 408.5412,337.7154 405.4059,334.1575 402.2707,330.5996 399.1354,327.0417" stroke="#999" stroke-width="0.5" fill="none" stroke-opacity="0.6"/>
  <polyline points="443.1875,317.3756 438.5393,315.7479 433.8911,314.1203 429.2429,312.4926 424.5948,310.8649 419.9466,309.2373" stroke="#999" stroke-width="0.5" fill="none" stroke-opacity="0.6"/>
</g>
</g>
</g>
  <g>
  <circle cx="344" cy="372" r="8.2055" stroke="#e74c3c" stroke-width="2" fill="#e74c3c" fill-opacity="0.08"/>
  <circle cx="352.2055" cy="372" r="3" fill="#e74c3c" stroke="none"/>
  <circle cx="339.8973" cy="364.8939" r="3" fill="#e74c3c" stroke="none"/>
  <circle cx="339.8973" cy="379.1061" r="3" fill="#e74c3c" stroke="none"/>
  <text x="360.2055" y="376" font-size="10" fill="#e74c3c">3D c3 seed</text>
  <circle cx="344" cy="372" r="13.2767" stroke="#e67e22" stroke-width="2" fill="#e67e22" fill-opacity="0.08"/>
  <circle cx="357.2767" cy="372" r="3" fill="#e67e22" stroke="none"/>
  <circle cx="344" cy="358.7233" r="3" fill="#e67e22" stroke="none"/>
  <circle cx="330.7233" cy="372" r="3" fill="#e67e22" stroke="none"/>
  <circle cx="344" cy="385.2767" r="3" fill="#e67e22" stroke="none"/>
  <text x="365.2767" y="376" font-size="10" fill="#e67e22">4D E4 base</text>
  <circle cx="344" cy="372" r="21.4822" stroke="#f1c40f" stroke-width="2" fill="#f1c40f" fill-opacity="0.08"/>
  <circle cx="365.4822" cy="372" r="3" fill="#f1c40f" stroke="none"/>
  <circle cx="354.7411" cy="353.3959" r="3" fill="#f1c40f" stroke="none"/>
  <circle cx="333.2589" cy="353.3959" r="3" fill="#f1c40f" stroke="none"/>
  <circle cx="322.5178" cy="372" r="3" fill="#f1c40f" stroke="none"/>
  <circle cx="333.2589" cy="390.6041" r="3" fill="#f1c40f" stroke="none"/>
  <circle cx="354.7411" cy="390.6041" r="3" fill="#f1c40f" stroke="none"/>
  <text x="373.4822" y="376" font-size="10" fill="#f1c40f">6D W3 Mobius</text>
  <circle cx="344" cy="372" r="34.7589" stroke="#2ecc71" stroke-width="2" fill="#2ecc71" fill-opacity="0.08"/>
  <circle cx="378.7589" cy="372" r="3" fill="#2ecc71" stroke="none"/>
  <circle cx="368.5783" cy="347.4217" r="3" fill="#2ecc71" stroke="none"/>
  <circle cx="344" cy="337.2411" r="3" fill="#2ecc71" stroke="none"/>
  <circle cx="319.4217" cy="347.4217" r="3" fill="#2ecc71" stroke="none"/>
  <circle cx="309.2411" cy="372" r="3" fill="#2ecc71" stroke="none"/>
  <circle cx="319.4217" cy="396.5783" r="3" fill="#2ecc71" stroke="none"/>
  <circle cx="344" cy="406.7589" r="3" fill="#2ecc71" stroke="none"/>
  <circle cx="368.5783" cy="396.5783" r="3" fill="#2ecc71" stroke="none"/>
  <text x="386.7589" y="376" font-size="10" fill="#2ecc71">8D W5 penta</text>
  <circle cx="344" cy="372" r="56.2411" stroke="#3498db" stroke-width="2" fill="#3498db" fill-opacity="0.08"/>
  <circle cx="400.2411" cy="372" r="3" fill="#3498db" stroke="none"/>
  <circle cx="389.5" cy="338.9423" r="3" fill="#3498db" stroke="none"/>
  <circle cx="361.3795" cy="318.5115" r="3" fill="#3498db" stroke="none"/>
  <circle cx="326.6205" cy="318.5115" r="3" fill="#3498db" stroke="none"/>
  <circle cx="298.5" cy="338.9423" r="3" fill="#3498db" stroke="none"/>
  <circle cx="287.7589" cy="372" r="3" fill="#3498db" stroke="none"/>
  <circle cx="298.5" cy="405.0577" r="3" fill="#3498db" stroke="none"/>
  <circle cx="326.6205" cy="425.4885" r="3" fill="#3498db" stroke="none"/>
  <circle cx="361.3795" cy="425.4885" r="3" fill="#3498db" stroke="none"/>
  <circle cx="389.5" cy="405.0577" r="3" fill="#3498db" stroke="none"/>
  <text x="408.2411" y="376" font-size="10" fill="#3498db">10D W7 hepta</text>
  <circle cx="344" cy="372" r="91" stroke="#9b59b6" stroke-width="2" fill="#9b59b6" fill-opacity="0.08"/>
  <circle cx="435" cy="372" r="3" fill="#9b59b6" stroke="none"/>
  <circle cx="422.8083" cy="326.5" r="3" fill="#9b59b6" stroke="none"/>
  <circle cx="389.5" cy="293.1917" r="3" fill="#9b59b6" stroke="none"/>
  <circle cx="344" cy="281" r="3" fill="#9b59b6" stroke="none"/>
  <circle cx="298.5" cy="293.1917" r="3" fill="#9b59b6" stroke="none"/>
  <circle cx="265.1917" cy="326.5" r="3" fill="#9b59b6" stroke="none"/>
  <circle cx="253" cy="372" r="3" fill="#9b59b6" stroke="none"/>
  <circle cx="265.1917" cy="417.5" r="3" fill="#9b59b6" stroke="none"/>
  <circle cx="298.5" cy="450.8083" r="3" fill="#9b59b6" stroke="none"/>
  <circle cx="344" cy="463" r="3" fill="#9b59b6" stroke="none"/>
  <circle cx="389.5" cy="450.8083" r="3" fill="#9b59b6" stroke="none"/>
  <circle cx="422.8083" cy="417.5" r="3" fill="#9b59b6" stroke="none"/>
  <text x="443" y="376" font-size="10" fill="#9b59b6">12D W9 crown</text>
</g>
</svg>