<svg xmlns="http://www.w3.org/2000/svg" width="800" height="800" viewBox="0 0 800 800">
  <g>
  <circle cx="464" cy="436" r="92" stroke="#333" stroke-width="2" fill="#333" fill-opacity="0.05"/>
  <circle cx="464" cy="362.4" r="7.36" fill="#333" stroke="#fff" stroke-width="1"/>
  <text x="461" y="366.4" font-size="9" fill="#fff" font-weight="bold">1</text>
  <circle cx="516.0431" cy="383.9569" r="7.36" fill="#333" stroke="#fff" stroke-width="1"/>
  <text x="513.0431" y="387.9569" font-size="9" fill="#fff" font-weight="bold">2</text>
  <circle cx="537.6" cy="436" r="7.36" fill="#333" stroke="#fff" stroke-width="1"/>
  <text x="534.6" y="440" font-size="9" fill="#fff" font-weight="bold">3</text>
  <circle cx="516.0431" cy="488.0431" r="7.36" fill="#333" stroke="#fff" stroke-width="1"/>
  <text x="513.0431" y="492.0431" font-size="9" fill="#fff" font-weight="bold">4</text>
  <circle cx="464" cy="509.6" r="7.36" fill="#333" stroke="#fff" stroke-width="1"/>
  <text x="461" y="513.6" font-size="9" fill="#fff" font-weight="bold">5</text>
  <circle cx="411.9569" cy="488.0431" r="7.36" fill="#333" stroke="#fff" stroke-width="1"/>
  <text x="408.9569" y="492.0431" font-size="9" fill="#fff" font-weight="bold">6</text>
  <circle cx="390.4" cy="436" r="7.36" fill="#333" stroke="#fff" stroke-width="1"/>
  <text x="387.4" y="440" font-size="9" fill="#fff" font-weight="bold">7</text>
  <circle cx="411.9569" cy="383.9569" r="7.36" fill="#333" stroke="#fff" stroke-width="1"/>
  <text x="408.9569" y="387.9569" font-size="9" fill="#fff" font-weight="bold">8</text>
  <path d="M 464,362.4 Q 493.5738,364.6026 516.0431,383.9569" stroke="#333" stroke-width="1" fill="none"/>
  <path d="M 516.0431,383.9569 Q 535.3974,406.4262 537.6,436" stroke="#333" stroke-width="1" fill="none"/>
  <path d="M 537.6,436 Q 535.3974,465.5738 516.0431,488.0431" stroke="#333" stroke-width="1" fill="none"/>
  <path d="M 516.0431,488.0431 Q 493.5738,507.3974 464,509.6" stroke="#333" stroke-width="1" fill="none"/>
  <path d="M 464,509.6 Q 434.4262,507.3974 411.9569,488.0431" stroke="#333" stroke-width="1" fill="none"/>
  <path d="M 411.9569,488.0431 Q 392.6026,465.5738 390.4,436" stroke="#333" stroke-width="1" fill="none"/>
  <path d="M 390.4,436 Q 392.6026,406.4262 411.9569,383.9569" stroke="#333" stroke-width="1" fill="none"/>
  <path d="M 411.9569,383.9569 Q 493.5738,507.3974 464,362.4" stroke="#333" stroke-width="1" fill="none"/>
  <text x="456" y="440" font-size="14" fill="#333" font-weight="bold">W8</text>
</g>
  <g opacity="0.87">
  <polygon points="323,62 329.6075,73.4444 323,84.8889 336.2149,84.8889 342.8224,96.3333 336.2149,107.7778 323,107.7778 329.6075,119.2222 323,130.6667 336.2149,130.6667 342.8224,142.1111 349.4298,130.6667 362.6447,130.6667 369.2522,142.1111 362.6447,153.5556 375.8596,153.5556 382.4671,165 375.8596,176.4444 362.6447,176.4444 369.2522,187.8889 362.6447,199.3333 349.4298,199.3333 342.8224,187.8889 336.2149,199.3333 323,199.3333 329.6075,210.7778 323,222.2222 336.2149,222.2222 342.8224,233.6667 336.2149,245.1111 323,245.1111 329.6075,256.5556 323,268 336.2149,268 342.8224,279.4444 349.4298,268 362.6447,268 369.2522,279.4444 362.6447,290.8889 375.8596,290.8889 382.4671,302.3333 389.0745,290.8889 402.2894,290.8889 395.682,279.4444 402.2894,268 415.5043,268 422.1118,279.4444 428.7192,268 441.9342,268 448.5416,279.4444 441.9342,290.8889 455.1491,290.8889 461.7565,302.3333 455.1491,313.7778 441.9342,313.7778 448.5416,325.2222 441.9342,336.6667 455.1491,336.6667 461.7565,348.1111 468.364,336.6667 481.5789,336.6667 488.1863,348.1111 481.5789,359.5556 494.7938,359.5556 501.4012,371 488.1863,371 481.5789,359.5556 474.9714,371 461.7565,371 455.1491,359.5556 461.7565,348.1111 448.5416,348.1111 441.9342,336.6667 435.3267,348.1111 422.1118,348.1111 428.7192,359.5556 422.1118,371 408.8969,371 402.2894,359.5556 395.682,371 382.4671,371 375.8596,359.5556 382.4671,348.1111 369.2522,348.1111 362.6447,336.6667 369.2522,325.2222 382.4671,325.2222 375.8596,313.7778 382.4671,302.3333 369.2522,302.3333 362.6447,290.8889 356.0373,302.3333 342.8224,302.3333 336.2149,290.8889 342.8224,279.4444 329.6075,279.4444 323,268 316.3925,279.4444 303.1776,279.4444 309.7851,290.8889 303.1776,302.3333 289.9627,302.3333 283.3553,290.8889 276.7478,302.3333 263.5329,302.3333 270.1404,313.7778 263.5329,325.2222 276.7478,325.2222 283.3553,336.6667 276.7478,348.1111 263.5329,348.1111 270.1404,359.5556 263.5329,371 250.318,371 243.7106,359.5556 237.1031,371 223.8882,371 217.2808,359.5556 223.8882,348.1111 210.6733,348.1111 204.0658,336.6667 197.4584,348.1111 184.2435,348.1111 190.8509,359.5556 184.2435,371 171.0286,371 164.4211,359.5556 157.8137,371 144.5988,371 151.2062,359.5556 164.4211,359.5556 157.8137,348.1111 164.4211,336.6667 177.636,336.6667 184.2435,348.1111 190.8509,336.6667 204.0658,336.6667 197.4584,325.2222 204.0658,313.7778 190.8509,313.7778 184.2435,302.3333 190.8509,290.8889 204.0658,290.8889 197.4584,279.4444 204.0658,268 217.2808,268 223.8882,279.4444 230.4957,268 243.7106,268 250.318,279.4444 243.7106,290.8889 256.9255,290.8889 263.5329,302.3333 270.1404,290.8889 283.3553,290.8889 276.7478,279.4444 283.3553,268 296.5702,268 303.1776,279.4444 309.7851,268 323,268 316.3925,256.5556 323,245.1111 309.7851,245.1111 303.1776,233.6667 309.7851,222.2222 323,222.2222 316.3925,210.7778 323,199.3333 309.7851,199.3333 303.1776,187.8889 296.5702,199.3333 283.3553,199.3333 276.7478,187.8889 283.3553,176.4444 270.1404,176.4444 263.5329,165 270.1404,153.5556 283.3553,153.5556 276.7478,142.1111 283.3553,130.6667 296.5702,130.6667 303.1776,142.1111 309.7851,130.6667 323,130.6667 316.3925,119.2222 323,107.7778 309.7851,107.7778 303.1776,96.3333 309.7851,84.8889 323,84.8889 316.3925,73.4444" fill="none" stroke="#333" stroke-width="1"/>
</g>
</svg>