<svg xmlns="http://www.w3.org/2000/svg" width="800" height="800" viewBox="0 0 800 800">
  <g>
  <line x1="291.712" y1="0" x2="291.712" y2="512" stroke="#c0a040" stroke-width="1" stroke-opacity="0.6"/>
  <line x1="403.1361" y1="0" x2="403.1361" y2="512" stroke="#c0a040" stroke-width="1" stroke-opacity="0.6"/>
  <line x1="445.6963" y1="0" x2="445.6963" y2="512" stroke="#c0a040" stroke-width="1" stroke-opacity="0.6"/>
  <line x1="461.9529" y1="0" x2="461.9529" y2="512" stroke="#c0a040" stroke-width="1" stroke-opacity="0.6"/>
  <line x1="468.1623" y1="0" x2="468.1623" y2="512" stroke="#c0a040" stroke-width="1" stroke-opacity="0.6"/>
  <line x1="0" y1="316.4334" x2="472" y2="316.4334" stroke="#c0a040" stroke-width="1" stroke-opacity="0.6"/>
  <line x1="0" y1="437.3002" x2="472" y2="437.3002" stroke="#c0a040" stroke-width="1" stroke-opacity="0.6"/>
  <line x1="0" y1="483.4672" x2="472" y2="483.4672" stroke="#c0a040" stroke-width="1" stroke-opacity="0.6"/>
  <line x1="0" y1="501.1014" x2="472" y2="501.1014" stroke="#c0a040" stroke-width="1" stroke-opacity="0.6"/>
  <line x1="0" y1="507.8371" x2="472" y2="507.8371" stroke="#c0a040" stroke-width="1" stroke-opacity="0.6"/>
</g>
  <g transform="rotate(27.1,400,400)">
  <polygon points="310,451 314.0735,458.0556 310,465.1111 318.1471,465.1111 322.2206,472.1667 318.1471,479.2222 310,479.2222 314.0735,486.2778 310,493.3333 318.1471,493.3333 322.2206,500.3889 326.2941,493.3333 334.4412,493.3333 338.5147,500.3889 334.4412,507.4444 342.5882,507.4444 346.6617,514.5 342.5882,521.5556 334.4412,521.5556 338.5147,528.6111 334.4412,535.6667 326.2941,535.6667 322.2206,528.6111 318.1471,535.6667 310,535.6667 314.0735,542.7222 310,549.7778 318.1471,549.7778 322.2206,556.8333 318.1471,563.8889 310,563.8889 314.0735,570.9444 310,578 318.1471,578 322.2206,585.0556 326.2941,578 334.4412,578 338.5147,585.0556 334.4412,592.1111 342.5882,592.1111 346.6617,599.1667 350.7353,592.1111 358.8823,592.1111 354.8088,585.0556 358.8823,578 367.0294,578 371.1029,585.0556 375.1764,578 383.3235,578 387.397,585.0556 383.3235,592.1111 391.4705,592.1111 395.5441,599.1667 391.4705,606.2222 383.3235,606.2222 387.397,613.2778 383.3235,620.3333 391.4705,620.3333 395.5441,627.3889 399.6176,620.3333 407.7646,620.3333 411.8382,627.3889 407.7646,634.4444 415.9117,634.4444 419.9852,641.5 411.8382,641.5 407.7646,634.4444 403.6911,641.5 395.5441,641.5 391.4705,634.4444 395.5441,627.3889 387.397,627.3889 383.3235,620.3333 379.25,627.3889 371.1029,627.3889 375.1764,634.4444 371.1029,641.5 362.9558,641.5 358.8823,634.4444 354.8088,641.5 346.6617,641.5 342.5882,634.4444 346.6617,627.3889 338.5147,627.3889 334.4412,620.3333 338.5147,613.2778 346.6617,613.2778 342.5882,606.2222 346.6617,599.1667 338.5147,599.1667 334.4412,592.1111 330.3676,599.1667 322.2206,599.1667 318.1471,592.1111 322.2206,585.0556 314.0735,585.0556 310,578 305.9265,585.0556 297.7794,585.0556 301.8529,592.1111 297.7794,599.1667 289.6324,599.1667 285.5588,592.1111 281.4853,599.1667 273.3383,599.1667 277.4118,606.2222 273.3383,613.2778 281.4853,613.2778 285.5588,620.3333 281.4853,627.3889 273.3383,627.3889 277.4118,634.4444 273.3383,641.5 265.1912,641.5 261.1177,634.4444 257.0442,641.5 248.8971,641.5 244.8236,634.4444 248.8971,627.3889 240.75,627.3889 236.6765,620.3333 232.603,627.3889 224.4559,627.3889 228.5295,634.4444 224.4559,641.5 216.3089,641.5 212.2354,634.4444 208.1618,641.5 200.0148,641.5 204.0883,634.4444 212.2354,634.4444 208.1618,627.3889 212.2354,620.3333 220.3824,620.3333 224.4559,627.3889 228.5295,620.3333 236.6765,620.3333 232.603,613.2778 236.6765,606.2222 228.5295,606.2222 224.4559,599.1667 228.5295,592.1111 236.6765,592.1111 232.603,585.0556 236.6765,578 244.8236,578 248.8971,585.0556 252.9706,578 261.1177,578 265.1912,585.0556 261.1177,592.1111 269.2647,592.1111 273.3383,599.1667 277.4118,592.1111 285.5588,592.1111 281.4853,585.0556 285.5588,578 293.7059,578 297.7794,585.0556 301.8529,578 310,578 305.9265,570.9444 310,563.8889 301.8529,563.8889 297.7794,556.8333 301.8529,549.7778 310,549.7778 305.9265,542.7222 310,535.6667 301.8529,535.6667 297.7794,528.6111 293.7059,535.6667 285.5588,535.6667 281.4853,528.6111 285.5588,521.5556 277.4118,521.5556 273.3383,514.5 277.4118,507.4444 285.5588,507.4444 281.4853,500.3889 285.5588,493.3333 293.7059,493.3333 297.7794,500.3889 301.8529,493.3333 310,493.3333 305.9265,486.2778 310,479.2222 301.8529,479.2222 297.7794,472.1667 301.8529,465.1111 310,465.1111 305.9265,458.0556" fill="none" stroke="#333" stroke-width="1"/>
</g>
  <g opacity="0.97">
  <g>
  <circle cx="379" cy="578" r="73" stroke="#333" stroke-width="2" fill="#333" fill-opacity="0.05"/>
  <circle cx="379" cy="519.6" r="5.84" fill="#333" stroke="#fff" stroke-width="1"/>
  <text x="376" y="523.6" font-size="9" fill="#fff" font-weight="bold">1</text>
  <circle cx="429.5759" cy="548.8" r="5.84" fill="#333" stroke="#fff" stroke-width="1"/>
  <text x="426.5759" y="552.8" font-size="9" fill="#fff" font-weight="bold">2</text>
  <circle cx="429.5759" cy="607.2" r="5.84" fill="#333" stroke="#fff" stroke-width="1"/>
  <text x="426.5759" y="611.2" font-size="9" fill="#fff" font-weight="bold">3</text>
  <circle cx="379" cy="636.4" r="5.84" fill="#333" stroke="#fff" stroke-width="1"/>
  <text x="376" y="640.4" font-size="9" fill="#fff" font-weight="bold">4</text>
  <circle cx="328.4241" cy="607.2" r="5.84" fill="#333" stroke="#fff" stroke-width="1"/>
  <text x="325.4241" y="611.2" font-size="9" fill="#fff" font-weight="bold">5</text>
  <circle cx="328.4241" cy="548.8" r="5.84" fill="#333" stroke="#fff" stroke-width="1"/>
  <text x="325.4241" y="552.8" font-size="9" fill="#fff" font-weight="bold">6</text>
  <path d="M 379,519.6 Q 409.66,524.8953 429.5759,548.8" stroke="#333" stroke-width="1" fill="none"/>
  <path d="M 429.5759,548.8 Q 440.32,578 429.5759,607.2" stroke="#333" stroke-width="1" fill="none"/>
  <path d="M 429.5759,607.2 Q 409.66,631.1047 379,636.4" stroke="#333" stroke-width="1" fill="none"/>
  <path d="M 379,636.4 Q 348.34,631.1047 328.4241,607.2" stroke="#333" stroke-width="1" fill="none"/>
  <path d="M 328.4241,607.2 Q 317.68,578 328.4241,548.8" stroke="#333" stroke-width="1" fill="none"/>
  <path d="M 328.4241,548.8 Q 409.66,631.1047 379,519.6" stroke="#333" stroke-width="1" fill="none"/>
  <text x="371" y="582" font-size="14" fill="#333" font-weight="bold">W6</text>
</g>
</g>
  <g>
  <polyline points="501.3288,250.3943 495.7166,241.9404 488.9371,233.9364 481.0351,226.4528 472.0613,219.5592 462.0717,213.324 451.1295,207.8143 439.3044,203.096 426.6741,199.2331 413.3248,196.2871 399.3512,194.3168 384.8576,193.3769 369.9577,193.5172 354.7748,194.7815 339.4417,197.2063 324.1004,200.8198 308.9012,205.6402 294.0017,211.6746 279.5659,218.9177 265.7624,227.3508 252.7623,236.9403 240.7376,247.6375 229.8585,259.3775 220.291,272.0789 212.1942,285.6437 205.7173,299.9575 200.997,314.8899 198.1544,330.2956 197.2926,346.0154 198.4935,361.8776 201.816,377.7002 207.2933,393.2929 214.9316,408.4592 224.7079,422.9998 236.57,436.7148 250.4349,449.4072 266.1897,460.8858 283.6914,470.9684 302.7684,479.4852 323.2217,486.2815 344.8277,491.2208 367.3398,494.1878 390.4924,495.0904 414.0042,493.8622 437.5818,490.4639 460.9243,484.8852 483.7277,477.1451 505.6892,467.2926 526.5126,455.4068 545.9122,441.5957 563.6182,425.996 579.3804,408.7706 592.9729,390.1071 604.1978,370.215 612.8883,349.3231 618.9122,327.6758 622.1735,305.5298 622.6149,283.1502 620.2183,260.8067 615.0058,238.7691 607.0392,217.3036" stroke="#333" stroke-width="0.8" fill="none"/>
  <polyline points="514.5426,246.2579 508.3044,236.2815 500.7304,226.8332 491.8815,218.004 481.8276,209.8812 470.6473,202.5484 458.4282,196.085 445.2667,190.5661 431.2681,186.0613 416.5466,182.6344 401.2248,180.3428 385.434,179.2364 369.3133,179.357 353.0095,180.7372 336.6761,183.3999 320.4723,187.3567 304.5625,192.6077 289.1144,199.1404 274.2976,206.9287 260.2823,215.9327 247.2371,226.0981 235.327,237.3557 224.7114,249.6213 215.5416,262.7959 207.9588,276.7661 202.0915,291.4046 198.0533,306.5707 195.9405,322.112 195.83,337.8654 197.7777,353.6588 201.816,369.3129 207.953,384.6435 216.1711,399.4634 226.4258,413.5854 238.6459,426.8243 252.7327,439.0001 268.5612,449.9401 285.9801,459.4822 304.8137,467.4774 324.8633,473.792 345.9094,478.3105 367.7141,480.9372 390.0243,481.5987 412.5747,480.2455 435.0916,476.8528 457.2962,471.4221 478.9091,463.9813 499.6538,454.5851 519.2613,443.3147 537.4736,430.2771 554.0482,415.6041 568.7615,399.4504 581.4122,381.9922 591.825,363.4246 599.8531,343.959 605.3806,323.8204 608.3246,303.2441 608.6365,282.4724 606.3031,261.7511 601.3468,241.3262 593.8254,221.44" stroke="#333" stroke-width="0.8" fill="none"/>
  <polyline points="527.7564,242.1216 520.8922,230.6225 512.5237,219.7301 502.7278,209.5553 491.5939,200.2032 479.2228,191.7727 465.7269,184.3557 451.229,178.0362 435.8621,172.8895 419.7684,168.9816 403.0984,166.3687 386.0103,165.0958 368.669,165.1967 351.2443,166.693 333.9104,169.5934 316.8442,173.8936 300.2239,179.5752 284.227,186.6061 269.0292,194.9396 254.8022,204.5147 241.7119,215.256 229.9164,227.0738 219.5642,239.865 210.7921,253.5129 203.7234,267.8886 198.4658,282.8517 195.1096,298.2515 193.7265,313.9284 194.3675,329.7155 197.0618,345.44 201.816,360.9256 208.6127,375.9941 217.4106,390.4677 228.1437,404.171 240.7218,416.9339 255.0305,428.5929 270.9327,438.9943 288.2688,447.996 306.8591,455.4697 326.5049,461.3026 346.9911,465.4001 368.0884,467.6865 389.5561,468.1071 411.1452,466.6288 432.6014,463.2417 453.6681,457.959 474.0905,450.8174 493.6185,441.8775 512.01,431.2226 529.0351,418.9585 544.4783,405.2122 558.1426,390.1302 569.8515,373.8773 579.4523,356.6341 586.8179,338.5949 591.849,319.965 594.4756,300.9584 594.6581,281.7945 592.388,262.6955 587.6878,243.8833 580.6116,225.5763" stroke="#333" stroke-width="0.8" fill="none"/>
  <polyline points="540.9702,237.9853 533.48,224.9636 524.317,212.627 513.5742,201.1065 501.3602,190.5251 487.7983,180.9971 473.0256,172.6264 457.1914,165.5063 440.4561,159.7177 422.9901,155.3289 404.9719,152.3946 386.5867,150.9553 368.0246,151.0365 349.479,152.6488 331.1447,155.787 313.2161,160.4304 295.8852,166.5427 279.3396,174.0719 263.7609,182.9506 249.3222,193.0967 236.1867,204.4138 224.5058,216.792 214.4171,230.1087 206.0427,244.2298 199.488,259.011 194.84,274.2988 192.1659,289.9323 191.5126,305.7448 192.9049,321.5656 196.346,337.2213 201.816,352.5383 209.2724,367.3448 218.6502,381.4719 229.8616,394.7567 242.7977,407.0434 257.3283,418.1857 273.3042,428.0486 290.5576,436.5098 308.9045,443.4619 328.1465,448.8132 348.0728,452.4898 368.4626,454.4359 389.0879,454.6154 409.7158,453.0122 430.1112,449.6306 450.04,444.4958 469.272,437.6536 487.5831,429.1699 504.7588,419.1306 520.5965,407.64 534.9084,394.8203 547.5237,380.8101 558.2908,365.7625 567.0795,349.8437 573.7826,333.2307 578.3174,316.1096 580.6267,298.6726 580.6798,281.1166 578.4728,263.64 574.0288,246.4404 567.3978,229.7126" stroke="#333" stroke-width="0.8" fill="none"/>
  <polyline points="554.184,233.8489 546.0679,219.3046 536.1103,205.5239 524.4205,192.6577 511.1265,180.8471 496.3739,170.2214 480.3243,160.8971 463.1537,152.9764 445.0501,146.5459 426.2119,141.6762 406.8455,138.4206 387.1631,136.8147 367.3802,136.8763 347.7137,138.6045 328.3791,141.9805 309.588,146.9673 291.5466,153.5102 274.4523,161.5376 258.4925,170.9615 243.8421,181.6786 230.6615,193.5716 219.0952,206.5101 209.2699,220.3524 201.2932,234.9468 195.2526,250.1334 191.2142,265.7459 189.2223,281.6131 189.2986,297.5613 191.4424,313.4156 195.6302,329.0025 201.816,344.1511 209.9321,358.6954 219.8897,372.4761 231.5795,385.3423 244.8735,397.1529 259.6261,407.7786 275.6757,417.1029 292.8463,425.0236 310.9499,431.4541 329.7881,436.3238 349.1545,439.5794 368.8369,441.1853 388.6198,441.1237 408.2863,439.3955 427.6209,436.0195 446.412,431.0327 464.4534,424.4898 481.5477,416.4624 497.5075,407.0385 512.1579,396.3214 525.3385,384.4284 536.9048,371.4899 546.7301,357.6476 554.7068,343.0532 560.7474,327.8666 564.7858,312.2541 566.7777,296.3869 566.7014,280.4387 564.5576,264.5844 560.3698,248.9975 554.184,233.8489" stroke="#333" stroke-width="0.8" fill="none"/>
  <polyline points="567.3978,229.7126 558.6557,213.6457 547.9036,198.4207 535.2668,184.2089 520.8928,171.1691 504.9494,159.4458 487.623,149.1678 469.116,140.4464 449.6441,133.3741 429.4337,128.0234 408.7191,124.4465 387.7394,122.6742 366.7359,122.716 345.9485,124.5603 325.6134,128.1741 305.96,133.5042 287.2079,140.4777 269.5649,149.0034 253.2242,158.9724 238.362,170.2606 225.1363,182.7294 213.6846,196.2283 204.1227,210.5961 196.5438,225.6638 191.0172,241.2558 187.5884,257.193 186.2786,273.2939 187.0846,289.3777 189.9798,305.2657 194.9143,320.7837 201.816,335.7638 210.5918,350.046 221.1292,363.4804 233.2974,375.9279 246.9494,387.2624 261.924,397.3714 278.0472,406.1571 295.135,413.5374 312.9953,419.4463 331.4297,423.8344 350.2362,426.6691 369.2112,427.9346 388.1516,427.6321 406.8568,425.7788 425.1307,422.4084 442.7839,417.5696 459.6349,411.3259 475.5123,403.7548 490.2562,394.9464 503.7193,385.0028 515.7686,374.0365 526.2859,362.1697 535.1694,349.5327 542.334,336.2627 547.7122,322.5024 551.2542,308.3987 552.9288,294.1012 552.723,279.7609 550.6424,265.5288 546.7109,251.5546 540.9702,237.9853" stroke="#333" stroke-width="0.8" fill="none"/>
  <polyline points="580.6116,225.5763 571.2435,207.9867 559.6969,191.3176 546.1132,175.7602 530.6591,161.491 513.5249,148.6702 494.9218,137.4385 475.0784,127.9165 454.2381,120.2023 432.6555,114.3707 410.5927,110.4724 388.3158,108.5336 366.0915,108.5558 344.1832,110.516 322.8477,114.3676 302.3319,120.041 282.8693,127.4452 264.6776,136.4691 247.9558,146.9834 232.8819,158.8426 219.6111,171.8873 208.274,185.9464 198.9756,200.8398 191.7943,216.3807 186.7818,232.3783 183.9626,248.6401 183.3349,264.9747 184.8707,281.1941 188.5173,297.1157 194.1985,312.5649 201.816,327.3765 211.2515,341.3967 222.3687,354.4846 235.0153,366.5135 249.0253,377.3719 264.2218,386.9642 280.4187,395.2114 297.4238,402.0512 315.0406,407.4386 333.0712,411.345 351.3179,413.7588 369.5855,414.684 387.6835,414.1404 405.4273,412.1621 422.6405,408.7972 439.1558,404.1064 454.8163,398.1621 469.477,391.0473 483.0049,382.8544 495.2808,373.6842 506.1987,363.6446 515.667,352.8495 523.6087,341.4179 529.9613,329.4723 534.6769,317.1383 537.7226,304.5433 539.0799,291.8154 538.7447,279.083 536.7273,266.4732 533.0519,254.1118 527.7564,242.1216" stroke="#333" stroke-width="0.8" fill="none"/>
  <polyline points="593.8254,221.44 583.8313,202.3278 571.4903,184.2145 556.9595,167.3114 540.4253,151.813 522.1004,137.8945 502.2205,125.7093 481.0407,115.3866 458.8321,107.0305 435.8773,100.7179 412.4662,96.4984 388.8921,94.3931 365.4471,94.3956 342.4179,96.4718 320.0821,100.5612 298.7038,106.5779 278.5306,114.4127 259.7902,123.9349 242.6874,134.9943 227.4019,147.4245 214.0859,161.0451 202.8634,175.6646 193.8284,191.0835 187.0449,207.0977 182.5464,223.5007 180.3369,240.0872 180.3912,256.6555 182.6567,273.0105 187.0548,288.9658 193.4826,304.3461 201.816,318.9892 211.9112,332.7473 223.6083,345.4888 236.7332,357.0992 251.1012,367.4815 266.5196,376.5571 282.7902,384.2657 299.7125,390.565 317.086,395.4308 334.7128,398.8556 352.3996,400.8484 369.9598,401.4334 387.2153,400.6487 403.9978,398.5455 420.1503,395.1861 435.5277,390.6433 449.9978,384.9983 463.4416,378.3397 475.7537,370.7623 486.8422,362.3656 496.6287,353.2527 505.0481,343.5293 512.048,333.303 517.5885,322.6818 521.6417,311.7742 524.191,300.6879 525.2309,289.5297 524.7663,278.4051 522.8121,267.4177 519.3929,256.6689 514.5426,246.2579" stroke="#333" stroke-width="0.8" fill="none"/>
  <polyline points="501.3288,250.3943 514.5426,246.2579 527.7564,242.1216 540.9702,237.9853 554.184,233.8489 567.3978,229.7126 580.6116,225.5763 593.8254,221.44" stroke="#999" stroke-width="0.5" fill="none"/>
  <polyline points="462.0717,213.324 470.6473,202.5484 479.2228,191.7727 487.7983,180.9971 496.3739,170.2214 504.9494,159.4458 513.5249,148.6702 522.1004,137.8945" stroke="#999" stroke-width="0.5" fill="none"/>
  <polyline points="399.3512,194.3168 401.2248,180.3428 403.0984,166.3687 404.9719,152.3946 406.8455,138.4206 408.7191,124.4465 410.5927,110.4724 412.4662,96.4984" stroke="#999" stroke-width="0.5" fill="none"/>
  <polyline points="324.1004,200.8198 320.4723,187.3567 316.8442,173.8936 313.2161,160.4304 309.588,146.9673 305.96,133.5042 302.3319,120.041 298.7038,106.5779" stroke="#999" stroke-width="0.5" fill="none"/>
  <polyline points="252.7623,236.9403 247.2371,226.0981 241.7119,215.256 236.1867,204.4138 230.6615,193.5716 225.1363,182.7294 219.6111,171.8873 214.0859,161.0451" stroke="#999" stroke-width="0.5" fill="none"/>
  <polyline points="205.7173,299.9575 202.0915,291.4046 198.4658,282.8517 194.84,274.2988 191.2142,265.7459 187.5884,257.193 183.9626,248.6401 180.3369,240.0872" stroke="#999" stroke-width="0.5" fill="none"/>
  <polyline points="201.816,377.7002 201.816,369.3129 201.816,360.9256 201.816,352.5383 201.816,344.1511 201.816,335.7638 201.816,327.3765 201.816,318.9892" stroke="#999" stroke-width="0.5" fill="none"/>
  <polyline points="250.4349,449.4072 252.7327,439.0001 255.0305,428.5929 257.3283,418.1857 259.6261,407.7786 261.924,397.3714 264.2218,386.9642 266.5196,376.5571" stroke="#999" stroke-width="0.5" fill="none"/>
  <polyline points="344.8277,491.2208 345.9094,478.3105 346.9911,465.4001 348.0728,452.4898 349.1545,439.5794 350.2362,426.6691 351.3179,413.7588 352.3996,400.8484" stroke="#999" stroke-width="0.5" fill="none"/>
  <polyline points="460.9243,484.8852 457.2962,471.4221 453.6681,457.959 450.04,444.4958 446.412,431.0327 442.7839,417.5696 439.1558,404.1064 435.5277,390.6433" stroke="#999" stroke-width="0.5" fill="none"/>
  <polyline points="563.6182,425.996 554.0482,415.6041 544.4783,405.2122 534.9084,394.8203 525.3385,384.4284 515.7686,374.0365 506.1987,363.6446 496.6287,353.2527" stroke="#999" stroke-width="0.5" fill="none"/>
  <polyline points="618.9122,327.6758 605.3806,323.8204 591.849,319.965 578.3174,316.1096 564.7858,312.2541 551.2542,308.3987 537.7226,304.5433 524.191,300.6879" stroke="#999" stroke-width="0.5" fill="none"/>
</g>
  <g>
  <line x1="291.712" y1="0" x2="291.712" y2="502" stroke="#c0a040" stroke-width="1" stroke-opacity="0.6"/>
  <line x1="403.1361" y1="0" x2="403.1361" y2="502" stroke="#c0a040" stroke-width="1" stroke-opacity="0.6"/>
  <line x1="445.6963" y1="0" x2="445.6963" y2="502" stroke="#c0a040" stroke-width="1" stroke-opacity="0.6"/>
  <line x1="461.9529" y1="0" x2="461.9529" y2="502" stroke="#c0a040" stroke-width="1" stroke-opacity="0.6"/>
  <line x1="468.1623" y1="0" x2="468.1623" y2="502" stroke="#c0a040" stroke-width="1" stroke-opacity="0.6"/>
  <line x1="0" y1="310.2531" x2="472" y2="310.2531" stroke="#c0a040" stroke-width="1" stroke-opacity="0.6"/>
  <line x1="0" y1="428.7592" x2="472" y2="428.7592" stroke="#c0a040" stroke-width="1" stroke-opacity="0.6"/>
  <line x1="0" y1="474.0245" x2="472" y2="474.0245" stroke="#c0a040" stroke-width="1" stroke-opacity="0.6"/>
  <line x1="0" y1="491.3143" x2="472" y2="491.3143" stroke="#c0a040" stroke-width="1" stroke-opacity="0.6"/>
  <line x1="0" y1="497.9184" x2="472" y2="497.9184" stroke="#c0a040" stroke-width="1" stroke-opacity="0.6"/>
</g>
</svg>