<svg xmlns="http://www.w3.org/2000/svg" width="800" height="800" viewBox="0 0 800 800">
  <g transform="rotate(53.5,400,400)">
  <g>
  <polygon points="505,350 530,350 530,375" fill="none" stroke="#333" stroke-width="1"/>
  <polygon points="505,350 530,375 512.3223,392.6777" fill="none" stroke="#333" stroke-width="1"/>
  <polygon points="505,350 512.3223,392.6777 487.6824,396.9052" fill="none" stroke="#333" stroke-width="1"/>
  <polygon points="505,350 487.6824,396.9052 464.2298,388.2464" fill="none" stroke="#333" stroke-width="1"/>
  <polygon points="505,350 464.2298,388.2464 447.1254,370.0134" fill="none" stroke="#333" stroke-width="1"/>
  <polygon points="505,350 447.1254,370.0134 438.955,346.3862" fill="none" stroke="#333" stroke-width="1"/>
  <polygon points="505,350 438.955,346.3862 440.3209,321.4235" fill="none" stroke="#333" stroke-width="1"/>
  <polygon points="505,350 440.3209,321.4235 450.4242,298.556" fill="none" stroke="#333" stroke-width="1"/>
  <polygon points="505,350 450.4242,298.556 467.5722,280.3641" fill="none" stroke="#333" stroke-width="1"/>
  <polygon points="505,350 467.5722,280.3641 489.593,268.5284" fill="none" stroke="#333" stroke-width="1"/>
  <polygon points="505,350 489.593,268.5284 514.1576,263.883" fill="none" stroke="#333" stroke-width="1"/>
  <polygon points="505,350 514.1576,263.883 539.0174,266.5266" fill="none" stroke="#333" stroke-width="1"/>
</g>
</g>
  <g transform="rotate(68.7,400,400)">
  <g>
  <line x1="360" y1="635" x2="369.965" y2="403.2141" stroke="#333" stroke-width="1.5"/>
  <g>
  <line x1="369.965" y1="403.2141" x2="303.6728" y2="276.0753" stroke="#333" stroke-width="1.5"/>
  <g>
  <line x1="303.6728" y1="276.0753" x2="228.9029" y2="228.5118" stroke="#333" stroke-width="1.5"/>
  <g>
  <line x1="228.9029" y1="228.5118" x2="174.1857" y2="226.1594" stroke="#333" stroke-width="1.5"/>
  <g>
  <line x1="174.1857" y1="226.1594" x2="144.1723" y2="241.8088" stroke="#333" stroke-width="1.5"/>
  <g>
  <line x1="144.1723" y1="241.8088" x2="132.9441" y2="259.4596" stroke="#333" stroke-width="1.5"/>
  <g>
  <line x1="132.9441" y1="259.4596" x2="132.3887" y2="272.3766" stroke="#333" stroke-width="1.5"/>
</g>
  <g>
  <line x1="132.9441" y1="259.4596" x2="121.48" y2="265.4372" stroke="#333" stroke-width="1.5"/>
</g>
</g>
  <g>
  <line x1="144.1723" y1="241.8088" x2="123.2722" y2="240.9103" stroke="#333" stroke-width="1.5"/>
  <g>
  <line x1="123.2722" y1="240.9103" x2="111.8081" y2="246.8879" stroke="#333" stroke-width="1.5"/>
</g>
  <g>
  <line x1="123.2722" y1="240.9103" x2="112.3634" y2="233.9709" stroke="#333" stroke-width="1.5"/>
</g>
</g>
</g>
  <g>
  <line x1="174.1857" y1="226.1594" x2="145.6261" y2="207.9917" stroke="#333" stroke-width="1.5"/>
  <g>
  <line x1="145.6261" y1="207.9917" x2="124.726" y2="207.0932" stroke="#333" stroke-width="1.5"/>
  <g>
  <line x1="124.726" y1="207.0932" x2="113.2619" y2="213.0708" stroke="#333" stroke-width="1.5"/>
</g>
  <g>
  <line x1="124.726" y1="207.0932" x2="113.8172" y2="200.1538" stroke="#333" stroke-width="1.5"/>
</g>
</g>
  <g>
  <line x1="145.6261" y1="207.9917" x2="135.9542" y2="189.4424" stroke="#333" stroke-width="1.5"/>
  <g>
  <line x1="135.9542" y1="189.4424" x2="125.0455" y2="182.503" stroke="#333" stroke-width="1.5"/>
</g>
  <g>
  <line x1="135.9542" y1="189.4424" x2="136.5096" y2="176.5254" stroke="#333" stroke-width="1.5"/>
</g>
</g>
</g>
</g>
  <g>
  <line x1="228.9029" y1="228.5118" x2="203.5815" y2="179.9491" stroke="#333" stroke-width="1.5"/>
  <g>
  <line x1="203.5815" y1="179.9491" x2="175.022" y2="161.7814" stroke="#333" stroke-width="1.5"/>
  <g>
  <line x1="175.022" y1="161.7814" x2="154.1219" y2="160.8829" stroke="#333" stroke-width="1.5"/>
  <g>
  <line x1="154.1219" y1="160.8829" x2="142.6578" y2="166.8605" stroke="#333" stroke-width="1.5"/>
</g>
  <g>
  <line x1="154.1219" y1="160.8829" x2="143.2131" y2="153.9435" stroke="#333" stroke-width="1.5"/>
</g>
</g>
  <g>
  <line x1="175.022" y1="161.7814" x2="165.3501" y2="143.2321" stroke="#333" stroke-width="1.5"/>
  <g>
  <line x1="165.3501" y1="143.2321" x2="154.4413" y2="136.2927" stroke="#333" stroke-width="1.5"/>
</g>
  <g>
  <line x1="165.3501" y1="143.2321" x2="165.9054" y2="130.3151" stroke="#333" stroke-width="1.5"/>
</g>
</g>
</g>
  <g>
  <line x1="203.5815" y1="179.9491" x2="205.0354" y2="146.132" stroke="#333" stroke-width="1.5"/>
  <g>
  <line x1="205.0354" y1="146.132" x2="195.3635" y2="127.5827" stroke="#333" stroke-width="1.5"/>
  <g>
  <line x1="195.3635" y1="127.5827" x2="184.4547" y2="120.6432" stroke="#333" stroke-width="1.5"/>
</g>
  <g>
  <line x1="195.3635" y1="127.5827" x2="195.9188" y2="114.6657" stroke="#333" stroke-width="1.5"/>
</g>
</g>
  <g>
  <line x1="205.0354" y1="146.132" x2="216.2636" y2="128.4812" stroke="#333" stroke-width="1.5"/>
  <g>
  <line x1="216.2636" y1="128.4812" x2="216.819" y2="115.5642" stroke="#333" stroke-width="1.5"/>
</g>
  <g>
  <line x1="216.2636" y1="128.4812" x2="227.7277" y2="122.5036" stroke="#333" stroke-width="1.5"/>
</g>
</g>
</g>
</g>
</g>
  <g>
  <line x1="303.6728" y1="276.0753" x2="307.479" y2="187.5409" stroke="#333" stroke-width="1.5"/>
  <g>
  <line x1="307.479" y1="187.5409" x2="282.1577" y2="138.9782" stroke="#333" stroke-width="1.5"/>
  <g>
  <line x1="282.1577" y1="138.9782" x2="253.5981" y2="120.8106" stroke="#333" stroke-width="1.5"/>
  <g>
  <line x1="253.5981" y1="120.8106" x2="232.698" y2="119.9121" stroke="#333" stroke-width="1.5"/>
  <g>
  <line x1="232.698" y1="119.9121" x2="221.2339" y2="125.8896" stroke="#333" stroke-width="1.5"/>
</g>
  <g>
  <line x1="232.698" y1="119.9121" x2="221.7892" y2="112.9726" stroke="#333" stroke-width="1.5"/>
</g>
</g>
  <g>
  <line x1="253.5981" y1="120.8106" x2="243.9262" y2="102.2613" stroke="#333" stroke-width="1.5"/>
  <g>
  <line x1="243.9262" y1="102.2613" x2="233.0174" y2="95.3219" stroke="#333" stroke-width="1.5"/>
</g>
  <g>
  <line x1="243.9262" y1="102.2613" x2="244.4815" y2="89.3443" stroke="#333" stroke-width="1.5"/>
</g>
</g>
</g>
  <g>
  <line x1="282.1577" y1="138.9782" x2="283.6115" y2="105.1611" stroke="#333" stroke-width="1.5"/>
  <g>
  <line x1="283.6115" y1="105.1611" x2="273.9396" y2="86.6118" stroke="#333" stroke-width="1.5"/>
  <g>
  <line x1="273.9396" y1="86.6118" x2="263.0309" y2="79.6724" stroke="#333" stroke-width="1.5"/>
</g>
  <g>
  <line x1="273.9396" y1="86.6118" x2="274.495" y2="73.6948" stroke="#333" stroke-width="1.5"/>
</g>
</g>
  <g>
  <line x1="283.6115" y1="105.1611" x2="294.8397" y2="87.5104" stroke="#333" stroke-width="1.5"/>
  <g>
  <line x1="294.8397" y1="87.5104" x2="295.3951" y2="74.5934" stroke="#333" stroke-width="1.5"/>
</g>
  <g>
  <line x1="294.8397" y1="87.5104" x2="306.3038" y2="81.5328" stroke="#333" stroke-width="1.5"/>
</g>
</g>
</g>
</g>
  <g>
  <line x1="307.479" y1="187.5409" x2="336.8749" y2="141.3306" stroke="#333" stroke-width="1.5"/>
  <g>
  <line x1="336.8749" y1="141.3306" x2="338.3288" y2="107.5135" stroke="#333" stroke-width="1.5"/>
  <g>
  <line x1="338.3288" y1="107.5135" x2="328.6569" y2="88.9642" stroke="#333" stroke-width="1.5"/>
  <g>
  <line x1="328.6569" y1="88.9642" x2="317.7481" y2="82.0248" stroke="#333" stroke-width="1.5"/>
</g>
  <g>
  <line x1="328.6569" y1="88.9642" x2="329.2122" y2="76.0472" stroke="#333" stroke-width="1.5"/>
</g>
</g>
  <g>
  <line x1="338.3288" y1="107.5135" x2="349.557" y2="89.8628" stroke="#333" stroke-width="1.5"/>
  <g>
  <line x1="349.557" y1="89.8628" x2="350.1123" y2="76.9458" stroke="#333" stroke-width="1.5"/>
</g>
  <g>
  <line x1="349.557" y1="89.8628" x2="361.0211" y2="83.8852" stroke="#333" stroke-width="1.5"/>
</g>
</g>
</g>
  <g>
  <line x1="336.8749" y1="141.3306" x2="366.8883" y2="125.6812" stroke="#333" stroke-width="1.5"/>
  <g>
  <line x1="366.8883" y1="125.6812" x2="378.1165" y2="108.0304" stroke="#333" stroke-width="1.5"/>
  <g>
  <line x1="378.1165" y1="108.0304" x2="378.6718" y2="95.1134" stroke="#333" stroke-width="1.5"/>
</g>
  <g>
  <line x1="378.1165" y1="108.0304" x2="389.5806" y2="102.0528" stroke="#333" stroke-width="1.5"/>
</g>
</g>
  <g>
  <line x1="366.8883" y1="125.6812" x2="387.7884" y2="126.5797" stroke="#333" stroke-width="1.5"/>
  <g>
  <line x1="387.7884" y1="126.5797" x2="399.2525" y2="120.6021" stroke="#333" stroke-width="1.5"/>
</g>
  <g>
  <line x1="387.7884" y1="126.5797" x2="398.6972" y2="133.5191" stroke="#333" stroke-width="1.5"/>
</g>
</g>
</g>
</g>
</g>
</g>
  <g>
  <line x1="369.965" y1="403.2141" x2="446.9243" y2="282.234" stroke="#333" stroke-width="1.5"/>
  <g>
  <line x1="446.9243" y1="282.234" x2="450.7306" y2="193.6996" stroke="#333" stroke-width="1.5"/>
  <g>
  <line x1="450.7306" y1="193.6996" x2="425.4092" y2="145.1369" stroke="#333" stroke-width="1.5"/>
  <g>
  <line x1="425.4092" y1="145.1369" x2="396.8497" y2="126.9693" stroke="#333" stroke-width="1.5"/>
  <g>
  <line x1="396.8497" y1="126.9693" x2="375.9496" y2="126.0707" stroke="#333" stroke-width="1.5"/>
  <g>
  <line x1="375.9496" y1="126.0707" x2="364.4855" y2="132.0483" stroke="#333" stroke-width="1.5"/>
</g>
  <g>
  <line x1="375.9496" y1="126.0707" x2="365.0408" y2="119.1313" stroke="#333" stroke-width="1.5"/>
</g>
</g>
  <g>
  <line x1="396.8497" y1="126.9693" x2="387.1778" y2="108.42" stroke="#333" stroke-width="1.5"/>
  <g>
  <line x1="387.1778" y1="108.42" x2="376.269" y2="101.4806" stroke="#333" stroke-width="1.5"/>
</g>
  <g>
  <line x1="387.1778" y1="108.42" x2="387.7331" y2="95.503" stroke="#333" stroke-width="1.5"/>
</g>
</g>
</g>
  <g>
  <line x1="425.4092" y1="145.1369" x2="426.8631" y2="111.3198" stroke="#333" stroke-width="1.5"/>
  <g>
  <line x1="426.8631" y1="111.3198" x2="417.1912" y2="92.7705" stroke="#333" stroke-width="1.5"/>
  <g>
  <line x1="417.1912" y1="92.7705" x2="406.2824" y2="85.8311" stroke="#333" stroke-width="1.5"/>
</g>
  <g>
  <line x1="417.1912" y1="92.7705" x2="417.7465" y2="79.8535" stroke="#333" stroke-width="1.5"/>
</g>
</g>
  <g>
  <line x1="426.8631" y1="111.3198" x2="438.0913" y2="93.669" stroke="#333" stroke-width="1.5"/>
  <g>
  <line x1="438.0913" y1="93.669" x2="438.6466" y2="80.7521" stroke="#333" stroke-width="1.5"/>
</g>
  <g>
  <line x1="438.0913" y1="93.669" x2="449.5554" y2="87.6915" stroke="#333" stroke-width="1.5"/>
</g>
</g>
</g>
</g>
  <g>
  <line x1="450.7306" y1="193.6996" x2="480.1264" y2="147.4893" stroke="#333" stroke-width="1.5"/>
  <g>
  <line x1="480.1264" y1="147.4893" x2="481.5803" y2="113.6722" stroke="#333" stroke-width="1.5"/>
  <g>
  <line x1="481.5803" y1="113.6722" x2="471.9084" y2="95.1229" stroke="#333" stroke-width="1.5"/>
  <g>
  <line x1="471.9084" y1="95.1229" x2="460.9996" y2="88.1835" stroke="#333" stroke-width="1.5"/>
</g>
  <g>
  <line x1="471.9084" y1="95.1229" x2="472.4637" y2="82.2059" stroke="#333" stroke-width="1.5"/>
</g>
</g>
  <g>
  <line x1="481.5803" y1="113.6722" x2="492.8085" y2="96.0215" stroke="#333" stroke-width="1.5"/>
  <g>
  <line x1="492.8085" y1="96.0215" x2="493.3639" y2="83.1045" stroke="#333" stroke-width="1.5"/>
</g>
  <g>
  <line x1="492.8085" y1="96.0215" x2="504.2726" y2="90.0439" stroke="#333" stroke-width="1.5"/>
</g>
</g>
</g>
  <g>
  <line x1="480.1264" y1="147.4893" x2="510.1399" y2="131.8399" stroke="#333" stroke-width="1.5"/>
  <g>
  <line x1="510.1399" y1="131.8399" x2="521.3681" y2="114.1891" stroke="#333" stroke-width="1.5"/>
  <g>
  <line x1="521.3681" y1="114.1891" x2="521.9234" y2="101.2721" stroke="#333" stroke-width="1.5"/>
</g>
  <g>
  <line x1="521.3681" y1="114.1891" x2="532.8322" y2="108.2115" stroke="#333" stroke-width="1.5"/>
</g>
</g>
  <g>
  <line x1="510.1399" y1="131.8399" x2="531.04" y2="132.7384" stroke="#333" stroke-width="1.5"/>
  <g>
  <line x1="531.04" y1="132.7384" x2="542.5041" y2="126.7608" stroke="#333" stroke-width="1.5"/>
</g>
  <g>
  <line x1="531.04" y1="132.7384" x2="541.9487" y2="139.6778" stroke="#333" stroke-width="1.5"/>
</g>
</g>
</g>
</g>
</g>
  <g>
  <line x1="446.9243" y1="282.234" x2="525.5004" y2="241.2631" stroke="#333" stroke-width="1.5"/>
  <g>
  <line x1="525.5004" y1="241.2631" x2="554.8963" y2="195.0528" stroke="#333" stroke-width="1.5"/>
  <g>
  <line x1="554.8963" y1="195.0528" x2="556.3502" y2="161.2357" stroke="#333" stroke-width="1.5"/>
  <g>
  <line x1="556.3502" y1="161.2357" x2="546.6783" y2="142.6864" stroke="#333" stroke-width="1.5"/>
  <g>
  <line x1="546.6783" y1="142.6864" x2="535.7695" y2="135.747" stroke="#333" stroke-width="1.5"/>
</g>
  <g>
  <line x1="546.6783" y1="142.6864" x2="547.2336" y2="129.7694" stroke="#333" stroke-width="1.5"/>
</g>
</g>
  <g>
  <line x1="556.3502" y1="161.2357" x2="567.5784" y2="143.5849" stroke="#333" stroke-width="1.5"/>
  <g>
  <line x1="567.5784" y1="143.5849" x2="568.1337" y2="130.668" stroke="#333" stroke-width="1.5"/>
</g>
  <g>
  <line x1="567.5784" y1="143.5849" x2="579.0425" y2="137.6074" stroke="#333" stroke-width="1.5"/>
</g>
</g>
</g>
  <g>
  <line x1="554.8963" y1="195.0528" x2="584.9097" y2="179.4034" stroke="#333" stroke-width="1.5"/>
  <g>
  <line x1="584.9097" y1="179.4034" x2="596.1379" y2="161.7526" stroke="#333" stroke-width="1.5"/>
  <g>
  <line x1="596.1379" y1="161.7526" x2="596.6932" y2="148.8356" stroke="#333" stroke-width="1.5"/>
</g>
  <g>
  <line x1="596.1379" y1="161.7526" x2="607.602" y2="155.775" stroke="#333" stroke-width="1.5"/>
</g>
</g>
  <g>
  <line x1="584.9097" y1="179.4034" x2="605.8098" y2="180.3019" stroke="#333" stroke-width="1.5"/>
  <g>
  <line x1="605.8098" y1="180.3019" x2="617.2739" y2="174.3243" stroke="#333" stroke-width="1.5"/>
</g>
  <g>
  <line x1="605.8098" y1="180.3019" x2="616.7186" y2="187.2413" stroke="#333" stroke-width="1.5"/>
</g>
</g>
</g>
</g>
  <g>
  <line x1="525.5004" y1="241.2631" x2="580.2177" y2="243.6155" stroke="#333" stroke-width="1.5"/>
  <g>
  <line x1="580.2177" y1="243.6155" x2="610.2311" y2="227.9661" stroke="#333" stroke-width="1.5"/>
  <g>
  <line x1="610.2311" y1="227.9661" x2="621.4593" y2="210.3153" stroke="#333" stroke-width="1.5"/>
  <g>
  <line x1="621.4593" y1="210.3153" x2="622.0146" y2="197.3983" stroke="#333" stroke-width="1.5"/>
</g>
  <g>
  <line x1="621.4593" y1="210.3153" x2="632.9234" y2="204.3377" stroke="#333" stroke-width="1.5"/>
</g>
</g>
  <g>
  <line x1="610.2311" y1="227.9661" x2="631.1312" y2="228.8646" stroke="#333" stroke-width="1.5"/>
  <g>
  <line x1="631.1312" y1="228.8646" x2="642.5953" y2="222.887" stroke="#333" stroke-width="1.5"/>
</g>
  <g>
  <line x1="631.1312" y1="228.8646" x2="642.04" y2="235.804" stroke="#333" stroke-width="1.5"/>
</g>
</g>
</g>
  <g>
  <line x1="580.2177" y1="243.6155" x2="608.7772" y2="261.7832" stroke="#333" stroke-width="1.5"/>
  <g>
  <line x1="608.7772" y1="261.7832" x2="629.6773" y2="262.6817" stroke="#333" stroke-width="1.5"/>
  <g>
  <line x1="629.6773" y1="262.6817" x2="641.1414" y2="256.7041" stroke="#333" stroke-width="1.5"/>
</g>
  <g>
  <line x1="629.6773" y1="262.6817" x2="640.5861" y2="269.6211" stroke="#333" stroke-width="1.5"/>
</g>
</g>
  <g>
  <line x1="608.7772" y1="261.7832" x2="618.4491" y2="280.3325" stroke="#333" stroke-width="1.5"/>
  <g>
  <line x1="618.4491" y1="280.3325" x2="629.3579" y2="287.2719" stroke="#333" stroke-width="1.5"/>
</g>
  <g>
  <line x1="618.4491" y1="280.3325" x2="617.8938" y2="293.2495" stroke="#333" stroke-width="1.5"/>
</g>
</g>
</g>
</g>
</g>
</g>
</g>
</g>
  <g transform="rotate(23.4,400,400)">
  <g>
  <circle cx="289" cy="474" r="56" fill="none" stroke="#333" stroke-width="0.8"/>
  <circle cx="345" cy="474" r="56" fill="none" stroke="#333" stroke-width="0.8"/>
  <circle cx="317" cy="522.4974" r="56" fill="none" stroke="#333" stroke-width="0.8"/>
  <circle cx="261" cy="522.4974" r="56" fill="none" stroke="#333" stroke-width="0.8"/>
  <circle cx="233" cy="474" r="56" fill="none" stroke="#333" stroke-width="0.8"/>
  <circle cx="261" cy="425.5026" r="56" fill="none" stroke="#333" stroke-width="0.8"/>
  <circle cx="317" cy="425.5026" r="56" fill="none" stroke="#333" stroke-width="0.8"/>
  <circle cx="401" cy="474" r="56" fill="none" stroke="#333" stroke-width="0.8"/>
  <circle cx="385.9948" cy="530" r="56" fill="none" stroke="#333" stroke-width="0.8"/>
  <circle cx="345" cy="570.9948" r="56" fill="none" stroke="#333" stroke-width="0.8"/>
  <circle cx="289" cy="586" r="56" fill="none" stroke="#333" stroke-width="0.8"/>
  <circle cx="233" cy="570.9948" r="56" fill="none" stroke="#333" stroke-width="0.8"/>
  <circle cx="192.0052" cy="530" r="56" fill="none" stroke="#333" stroke-width="0.8"/>
  <circle cx="177" cy="474" r="56" fill="none" stroke="#333" stroke-width="0.8"/>
  <circle cx="192.0052" cy="418" r="56" fill="none" stroke="#333" stroke-width="0.8"/>
  <circle cx="233" cy="377.0052" r="56" fill="none" stroke="#333" stroke-width="0.8"/>
  <circle cx="289" cy="362" r="56" fill="none" stroke="#333" stroke-width="0.8"/>
  <circle cx="345" cy="377.0052" r="56" fill="none" stroke="#333" stroke-width="0.8"/>
  <circle cx="385.9948" cy="418" r="56" fill="none" stroke="#333" stroke-width="0.8"/>
  <circle cx="457" cy="474" r="56" fill="none" stroke="#333" stroke-width="0.8"/>
  <circle cx="446.8684" cy="531.4594" r="56" fill="none" stroke="#333" stroke-width="0.8"/>
  <circle cx="417.6955" cy="581.9883" r="56" fill="none" stroke="#333" stroke-width="0.8"/>
  <circle cx="373" cy="619.4923" r="56" fill="none" stroke="#333" stroke-width="0.8"/>
  <circle cx="318.1729" cy="639.4477" r="56" fill="none" stroke="#333" stroke-width="0.8"/>
  <circle cx="259.8271" cy="639.4477" r="56" fill="none" stroke="#333" stroke-width="0.8"/>
  <circle cx="205" cy="619.4923" r="56" fill="none" stroke="#333" stroke-width="0.8"/>
  <circle cx="160.3045" cy="581.9883" r="56" fill="none" stroke="#333" stroke-width="0.8"/>
  <circle cx="131.1316" cy="531.4594" r="56" fill="none" stroke="#333" stroke-width="0.8"/>
  <circle cx="121" cy="474" r="56" fill="none" stroke="#333" stroke-width="0.8"/>
  <circle cx="131.1316" cy="416.5406" r="56" fill="none" stroke="#333" stroke-width="0.8"/>
  <circle cx="160.3045" cy="366.0117" r="56" fill="none" stroke="#333" stroke-width="0.8"/>
  <circle cx="205" cy="328.5077" r="56" fill="none" stroke="#333" stroke-width="0.8"/>
  <circle cx="259.8271" cy="308.5523" r="56" fill="none" stroke="#333" stroke-width="0.8"/>
  <circle cx="318.1729" cy="308.5523" r="56" fill="none" stroke="#333" stroke-width="0.8"/>
  <circle cx="373" cy="328.5077" r="56" fill="none" stroke="#333" stroke-width="0.8"/>
  <circle cx="417.6955" cy="366.0117" r="56" fill="none" stroke="#333" stroke-width="0.8"/>
  <circle cx="446.8684" cy="416.5406" r="56" fill="none" stroke="#333" stroke-width="0.8"/>
</g>
</g>
  <g transform="rotate(27.1,400,400)">
  <g>
  <line x1="428" y1="447.112" x2="548.207" y2="387" stroke="#333" stroke-width="1.5" fill="none"/>
  <line x1="428" y1="447.112" x2="428" y2="617.112" stroke="#333" stroke-width="1.5" fill="none"/>
  <line x1="428" y1="447.112" x2="307.793" y2="387" stroke="#333" stroke-width="1.5" fill="none"/>
  <line x1="548.207" y1="387" x2="548.207" y2="557" stroke="#333" stroke-width="1.5" fill="none"/>
  <line x1="548.207" y1="387" x2="428" y2="326.888" stroke="#333" stroke-width="1.5" fill="none"/>
  <line x1="428" y1="617.112" x2="548.207" y2="557" stroke="#333" stroke-width="1.5" fill="none"/>
  <line x1="428" y1="617.112" x2="307.793" y2="557" stroke="#333" stroke-width="1.5" fill="none"/>
  <line x1="548.207" y1="557" x2="428" y2="496.888" stroke="#333" stroke-width="1.5" fill="none"/>
  <line x1="307.793" y1="387" x2="428" y2="326.888" stroke="#333" stroke-width="1.5" fill="none"/>
  <line x1="307.793" y1="387" x2="307.793" y2="557" stroke="#333" stroke-width="1.5" fill="none"/>
  <line x1="428" y1="326.888" x2="428" y2="496.888" stroke="#333" stroke-width="1.5" fill="none"/>
  <line x1="307.793" y1="557" x2="428" y2="496.888" stroke="#333" stroke-width="1.5" fill="none"/>
  <line x1="428" y1="456.6184" x2="502.292" y2="419.4671" stroke="#333" stroke-width="1.5" fill="none"/>
  <line x1="428" y1="456.6184" x2="428" y2="561.6841" stroke="#333" stroke-width="1.5" fill="none"/>
  <line x1="428" y1="456.6184" x2="353.708" y2="419.4671" stroke="#333" stroke-width="1.5" fill="none"/>
  <line x1="502.292" y1="419.4671" x2="502.292" y2="524.5329" stroke="#333" stroke-width="1.5" fill="none"/>
  <line x1="502.292" y1="419.4671" x2="428" y2="382.3159" stroke="#333" stroke-width="1.5" fill="none"/>
  <line x1="428" y1="561.6841" x2="502.292" y2="524.5329" stroke="#333" stroke-width="1.5" fill="none"/>
  <line x1="428" y1="561.6841" x2="353.708" y2="524.5329" stroke="#333" stroke-width="1.5" fill="none"/>
  <line x1="502.292" y1="524.5329" x2="428" y2="487.3816" stroke="#333" stroke-width="1.5" fill="none"/>
  <line x1="353.708" y1="419.4671" x2="428" y2="382.3159" stroke="#333" stroke-width="1.5" fill="none"/>
  <line x1="353.708" y1="419.4671" x2="353.708" y2="524.5329" stroke="#333" stroke-width="1.5" fill="none"/>
  <line x1="428" y1="382.3159" x2="428" y2="487.3816" stroke="#333" stroke-width="1.5" fill="none"/>
  <line x1="353.708" y1="524.5329" x2="428" y2="487.3816" stroke="#333" stroke-width="1.5" fill="none"/>
  <line x1="428" y1="447.112" x2="428" y2="456.6184" stroke="#999" stroke-width="1" fill="none"/>
  <line x1="548.207" y1="387" x2="502.292" y2="419.4671" stroke="#999" stroke-width="1" fill="none"/>
  <line x1="428" y1="617.112" x2="428" y2="561.6841" stroke="#999" stroke-width="1" fill="none"/>
  <line x1="548.207" y1="557" x2="502.292" y2="524.5329" stroke="#999" stroke-width="1" fill="none"/>
  <line x1="307.793" y1="387" x2="353.708" y2="419.4671" stroke="#999" stroke-width="1" fill="none"/>
  <line x1="428" y1="326.888" x2="428" y2="382.3159" stroke="#999" stroke-width="1" fill="none"/>
  <line x1="307.793" y1="557" x2="353.708" y2="524.5329" stroke="#999" stroke-width="1" fill="none"/>
  <line x1="428" y1="496.888" x2="428" y2="487.3816" stroke="#999" stroke-width="1" fill="none"/>
</g>
</g>
  <g>
  <circle cx="321" cy="302" r="330" fill="none" stroke="#333" stroke-width="1"/>
  <circle cx="321" cy="302" r="203.9512" fill="none" stroke="#333" stroke-width="1"/>
  <circle cx="321" cy="302" r="126.0488" fill="none" stroke="#333" stroke-width="1"/>
  <circle cx="321" cy="302" r="77.9024" fill="none" stroke="#333" stroke-width="1"/>
  <circle cx="321" cy="302" r="48.1464" fill="none" stroke="#333" stroke-width="1"/>
  <circle cx="321" cy="302" r="29.7561" fill="none" stroke="#333" stroke-width="1"/>
</g>
</svg>