<svg xmlns="http://www.w3.org/2000/svg" width="800" height="800" viewBox="0 0 800 800">
  <g transform="rotate(-78.6,400,400)">
  <g>
  <circle cx="338" cy="457" r="194" stroke="#333" stroke-width="2" fill="#333" fill-opacity="0.05"/>
  <circle cx="338" cy="301.8" r="15.52" fill="#333" stroke="#fff" stroke-width="1"/>
  <text x="335" y="305.8" font-size="9" fill="#fff" font-weight="bold">1</text>
  <circle cx="447.743" cy="347.257" r="15.52" fill="#333" stroke="#fff" stroke-width="1"/>
  <text x="444.743" y="351.257" font-size="9" fill="#fff" font-weight="bold">2</text>
  <circle cx="493.2" cy="457" r="15.52" fill="#333" stroke="#fff" stroke-width="1"/>
  <text x="490.2" y="461" font-size="9" fill="#fff" font-weight="bold">3</text>
  <circle cx="447.743" cy="566.743" r="15.52" fill="#333" stroke="#fff" stroke-width="1"/>
  <text x="444.743" y="570.743" font-size="9" fill="#fff" font-weight="bold">4</text>
  <circle cx="338" cy="612.2" r="15.52" fill="#333" stroke="#fff" stroke-width="1"/>
  <text x="335" y="616.2" font-size="9" fill="#fff" font-weight="bold">5</text>
  <circle cx="228.257" cy="566.743" r="15.52" fill="#333" stroke="#fff" stroke-width="1"/>
  <text x="225.257" y="570.743" font-size="9" fill="#fff" font-weight="bold">6</text>
  <circle cx="182.8" cy="457" r="15.52" fill="#333" stroke="#fff" stroke-width="1"/>
  <text x="179.8" y="461" font-size="9" fill="#fff" font-weight="bold">7</text>
  <circle cx="228.257" cy="347.257" r="15.52" fill="#333" stroke="#fff" stroke-width="1"/>
  <text x="225.257" y="351.257" font-size="9" fill="#fff" font-weight="bold">8</text>
  <path d="M 338,301.8 Q 400.3621,306.4446 447.743,347.257" stroke="#333" stroke-width="1" fill="none"/>
  <path d="M 447.743,347.257 Q 488.5554,394.6379 493.2,457" stroke="#333" stroke-width="1" fill="none"/>
  <path d="M 493.2,457 Q 488.5554,519.3621 447.743,566.743" stroke="#333" stroke-width="1" fill="none"/>
  <path d="M 447.743,566.743 Q 400.3621,607.5554 338,612.2" stroke="#333" stroke-width="1" fill="none"/>
  <path d="M 338,612.2 Q 275.6379,607.5554 228.257,566.743" stroke="#333" stroke-width="1" fill="none"/>
  <path d="M 228.257,566.743 Q 187.4446,519.3621 182.8,457" stroke="#333" stroke-width="1" fill="none"/>
  <path d="M 182.8,457 Q 187.4446,394.6379 228.257,347.257" stroke="#333" stroke-width="1" fill="none"/>
  <path d="M 228.257,347.257 Q 400.3621,607.5554 338,301.8" stroke="#333" stroke-width="1" fill="none"/>
  <text x="330" y="461" font-size="14" fill="#333" font-weight="bold">W8</text>
</g>
</g>
  <polygon points="202,83 290.1678,78.6475 313.2736,163.845 344.6585,246.3525 270.7709,294.655 202,350 133.2291,294.655 59.3415,246.3525 90.7264,163.845 113.8322,78.6475" fill="none" stroke="#333" stroke-width="1.5"/>
  <g opacity="0.30">
  <g>
  <line x1="426" y1="420" x2="580" y2="420" stroke="#333" stroke-width="1.5"/>
  <line x1="420.5978" y1="448.8993" x2="564.1985" y2="504.5305" stroke="#333" stroke-width="1.5"/>
  <line x1="405.1207" y1="473.8957" x2="518.9281" y2="577.6448" stroke="#333" stroke-width="1.5"/>
  <line x1="381.6591" y1="491.6131" x2="450.3028" y2="629.4682" stroke="#333" stroke-width="1.5"/>
  <line x1="353.3815" y1="499.6587" x2="367.5908" y2="653.0018" stroke="#333" stroke-width="1.5"/>
  <line x1="324.107" y1="496.9461" x2="281.9629" y2="645.0672" stroke="#333" stroke-width="1.5"/>
  <line x1="297.7892" y1="483.8414" x2="204.9835" y2="606.736" stroke="#333" stroke-width="1.5"/>
  <line x1="277.9826" y1="462.1146" x2="147.0492" y2="543.1851" stroke="#333" stroke-width="1.5"/>
  <line x1="267.3622" y1="434.7" x2="115.9843" y2="462.9974" stroke="#333" stroke-width="1.5"/>
  <line x1="267.3622" y1="405.3" x2="115.9843" y2="377.0026" stroke="#333" stroke-width="1.5"/>
  <line x1="277.9826" y1="377.8854" x2="147.0492" y2="296.8149" stroke="#333" stroke-width="1.5"/>
  <line x1="297.7892" y1="356.1586" x2="204.9835" y2="233.264" stroke="#333" stroke-width="1.5"/>
  <line x1="324.107" y1="343.0539" x2="281.9629" y2="194.9328" stroke="#333" stroke-width="1.5"/>
  <line x1="353.3815" y1="340.3413" x2="367.5908" y2="186.9982" stroke="#333" stroke-width="1.5"/>
  <line x1="381.6591" y1="348.3869" x2="450.3028" y2="210.5318" stroke="#333" stroke-width="1.5"/>
  <line x1="405.1207" y1="366.1043" x2="518.9281" y2="262.3552" stroke="#333" stroke-width="1.5"/>
  <line x1="420.5978" y1="391.1007" x2="564.1985" y2="335.4695" stroke="#333" stroke-width="1.5"/>
</g>
</g>
</svg>