<svg xmlns="http://www.w3.org/2000/svg" width="800" height="800" viewBox="0 0 800 800">
  <g opacity="0.77">
  <g transform="rotate(75.1,400,400)">
  <g>
  <polygon points="382,3 373.9893,16.875 390.0107,16.875" fill="#333" stroke="none"/>
  <polygon points="373.9893,16.875 365.9785,30.75 382,30.75" fill="#333" stroke="none"/>
  <polygon points="390.0107,16.875 382,30.75 398.0215,30.75" fill="#333" stroke="none"/>
  <polygon points="365.9785,30.75 357.9678,44.625 373.9893,44.625" fill="#333" stroke="none"/>
  <polygon points="357.9678,44.625 349.9571,58.5 365.9785,58.5" fill="#333" stroke="none"/>
  <polygon points="373.9893,44.625 365.9785,58.5 382,58.5" fill="#333" stroke="none"/>
  <polygon points="398.0215,30.75 390.0107,44.625 406.0322,44.625" fill="#333" stroke="none"/>
  <polygon points="390.0107,44.625 382,58.5 398.0215,58.5" fill="#333" stroke="none"/>
  <polygon points="406.0322,44.625 398.0215,58.5 414.0429,58.5" fill="#333" stroke="none"/>
  <polygon points="349.9571,58.5 341.9463,72.375 357.9678,72.375" fill="#333" stroke="none"/>
  <polygon points="341.9463,72.375 333.9356,86.25 349.9571,86.25" fill="#333" stroke="none"/>
  <polygon points="357.9678,72.375 349.9571,86.25 365.9785,86.25" fill="#333" stroke="none"/>
  <polygon points="333.9356,86.25 325.9249,100.125 341.9463,100.125" fill="#333" stroke="none"/>
  <polygon points="325.9249,100.125 317.9141,114 333.9356,114" fill="#333" stroke="none"/>
  <polygon points="341.9463,100.125 333.9356,114 349.9571,114" fill="#333" stroke="none"/>
  <polygon points="365.9785,86.25 357.9678,100.125 373.9893,100.125" fill="#333" stroke="none"/>
  <polygon points="357.9678,100.125 349.9571,114 365.9785,114" fill="#333" stroke="none"/>
  <polygon points="373.9893,100.125 365.9785,114 382,114" fill="#333" stroke="none"/>
  <polygon points="414.0429,58.5 406.0322,72.375 422.0537,72.375" fill="#333" stroke="none"/>
  <polygon points="406.0322,72.375 398.0215,86.25 414.0429,86.25" fill="#333" stroke="none"/>
  <polygon points="422.0537,72.375 414.0429,86.25 430.0644,86.25" fill="#333" stroke="none"/>
  <polygon points="398.0215,86.25 390.0107,100.125 406.0322,100.125" fill="#333" stroke="none"/>
  <polygon points="390.0107,100.125 382,114 398.0215,114" fill="#333" stroke="none"/>
  <polygon points="406.0322,100.125 398.0215,114 414.0429,114" fill="#333" stroke="none"/>
  <polygon points="430.0644,86.25 422.0537,100.125 438.0751,100.125" fill="#333" stroke="none"/>
  <polygon points="422.0537,100.125 414.0429,114 430.0644,114" fill="#333" stroke="none"/>
  <polygon points="438.0751,100.125 430.0644,114 446.0859,114" fill="#333" stroke="none"/>
  <polygon points="317.9141,114 309.9034,127.875 325.9249,127.875" fill="#333" stroke="none"/>
  <polygon points="309.9034,127.875 301.8927,141.75 317.9141,141.75" fill="#333" stroke="none"/>
  <polygon points="325.9249,127.875 317.9141,141.75 333.9356,141.75" fill="#333" stroke="none"/>
  <polygon points="301.8927,141.75 293.8819,155.625 309.9034,155.625" fill="#333" stroke="none"/>
  <polygon points="293.8819,155.625 285.8712,169.5 301.8927,169.5" fill="#333" stroke="none"/>
  <polygon points="309.9034,155.625 301.8927,169.5 317.9141,169.5" fill="#333" stroke="none"/>
  <polygon points="333.9356,141.75 325.9249,155.625 341.9463,155.625" fill="#333" stroke="none"/>
  <polygon points="325.9249,155.625 317.9141,169.5 333.9356,169.5" fill="#333" stroke="none"/>
  <polygon points="341.9463,155.625 333.9356,169.5 349.9571,169.5" fill="#333" stroke="none"/>
  <polygon points="285.8712,169.5 277.8604,183.375 293.8819,183.375" fill="#333" stroke="none"/>
  <polygon points="277.8604,183.375 269.8497,197.25 285.8712,197.25" fill="#333" stroke="none"/>
  <polygon points="293.8819,183.375 285.8712,197.25 301.8927,197.25" fill="#333" stroke="none"/>
  <polygon points="269.8497,197.25 261.839,211.125 277.8604,211.125" fill="#333" stroke="none"/>
  <polygon points="261.839,211.125 253.8282,225 269.8497,225" fill="#333" stroke="none"/>
  <polygon points="277.8604,211.125 269.8497,225 285.8712,225" fill="#333" stroke="none"/>
  <polygon points="301.8927,197.25 293.8819,211.125 309.9034,211.125" fill="#333" stroke="none"/>
  <polygon points="293.8819,211.125 285.8712,225 301.8927,225" fill="#333" stroke="none"/>
  <polygon points="309.9034,211.125 301.8927,225 317.9141,225" fill="#333" stroke="none"/>
  <polygon points="349.9571,169.5 341.9463,183.375 357.9678,183.375" fill="#333" stroke="none"/>
  <polygon points="341.9463,183.375 333.9356,197.25 349.9571,197.25" fill="#333" stroke="none"/>
  <polygon points="357.9678,183.375 349.9571,197.25 365.9785,197.25" fill="#333" stroke="none"/>
  <polygon points="333.9356,197.25 325.9249,211.125 341.9463,211.125" fill="#333" stroke="none"/>
  <polygon points="325.9249,211.125 317.9141,225 333.9356,225" fill="#333" stroke="none"/>
  <polygon points="341.9463,211.125 333.9356,225 349.9571,225" fill="#333" stroke="none"/>
  <polygon points="365.9785,197.25 357.9678,211.125 373.9893,211.125" fill="#333" stroke="none"/>
  <polygon points="357.9678,211.125 349.9571,225 365.9785,225" fill="#333" stroke="none"/>
  <polygon points="373.9893,211.125 365.9785,225 382,225" fill="#333" stroke="none"/>
  <polygon points="446.0859,114 438.0751,127.875 454.0966,127.875" fill="#333" stroke="none"/>
  <polygon points="438.0751,127.875 430.0644,141.75 446.0859,141.75" fill="#333" stroke="none"/>
  <polygon points="454.0966,127.875 446.0859,141.75 462.1073,141.75" fill="#333" stroke="none"/>
  <polygon points="430.0644,141.75 422.0537,155.625 438.0751,155.625" fill="#333" stroke="none"/>
  <polygon points="422.0537,155.625 414.0429,169.5 430.0644,169.5" fill="#333" stroke="none"/>
  <polygon points="438.0751,155.625 430.0644,169.5 446.0859,169.5" fill="#333" stroke="none"/>
  <polygon points="462.1073,141.75 454.0966,155.625 470.1181,155.625" fill="#333" stroke="none"/>
  <polygon points="454.0966,155.625 446.0859,169.5 462.1073,169.5" fill="#333" stroke="none"/>
  <polygon points="470.1181,155.625 462.1073,169.5 478.1288,169.5" fill="#333" stroke="none"/>
  <polygon points="414.0429,169.5 406.0322,183.375 422.0537,183.375" fill="#333" stroke="none"/>
  <polygon points="406.0322,183.375 398.0215,197.25 414.0429,197.25" fill="#333" stroke="none"/>
  <polygon points="422.0537,183.375 414.0429,197.25 430.0644,197.25" fill="#333" stroke="none"/>
  <polygon points="398.0215,197.25 390.0107,211.125 406.0322,211.125" fill="#333" stroke="none"/>
  <polygon points="390.0107,211.125 382,225 398.0215,225" fill="#333" stroke="none"/>
  <polygon points="406.0322,211.125 398.0215,225 414.0429,225" fill="#333" stroke="none"/>
  <polygon points="430.0644,197.25 422.0537,211.125 438.0751,211.125" fill="#333" stroke="none"/>
  <polygon points="422.0537,211.125 414.0429,225 430.0644,225" fill="#333" stroke="none"/>
  <polygon points="438.0751,211.125 430.0644,225 446.0859,225" fill="#333" stroke="none"/>
  <polygon points="478.1288,169.5 470.1181,183.375 486.1396,183.375" fill="#333" stroke="none"/>
  <polygon points="470.1181,183.375 462.1073,197.25 478.1288,197.25" fill="#333" stroke="none"/>
  <polygon points="486.1396,183.375 478.1288,197.25 494.1503,197.25" fill="#333" stroke="none"/>
  <polygon points="462.1073,197.25 454.0966,211.125 470.1181,211.125" fill="#333" stroke="none"/>
  <polygon points="454.0966,211.125 446.0859,225 462.1073,225" fill="#333" stroke="none"/>
  <polygon points="470.1181,211.125 462.1073,225 478.1288,225" fill="#333" stroke="none"/>
  <polygon points="494.1503,197.25 486.1396,211.125 502.161,211.125" fill="#333" stroke="none"/>
  <polygon points="486.1396,211.125 478.1288,225 494.1503,225" fill="#333" stroke="none"/>
  <polygon points="502.161,211.125 494.1503,225 510.1718,225" fill="#333" stroke="none"/>
  <polygon points="253.8282,225 245.8175,238.875 261.839,238.875" fill="#333" stroke="none"/>
  <polygon points="245.8175,238.875 237.8068,252.75 253.8282,252.75" fill="#333" stroke="none"/>
  <polygon points="261.839,238.875 253.8282,252.75 269.8497,252.75" fill="#333" stroke="none"/>
  <polygon points="237.8068,252.75 229.796,266.625 245.8175,266.625" fill="#333" stroke="none"/>
  <polygon points="229.796,266.625 221.7853,280.5 237.8068,280.5" fill="#333" stroke="none"/>
  <polygon points="245.8175,266.625 237.8068,280.5 253.8282,280.5" fill="#333" stroke="none"/>
  <polygon points="269.8497,252.75 261.839,266.625 277.8604,266.625" fill="#333" stroke="none"/>
  <polygon points="261.839,266.625 253.8282,280.5 269.8497,280.5" fill="#333" stroke="none"/>
  <polygon points="277.8604,266.625 269.8497,280.5 285.8712,280.5" fill="#333" stroke="none"/>
  <polygon points="221.7853,280.5 213.7746,294.375 229.796,294.375" fill="#333" stroke="none"/>
  <polygon points="213.7746,294.375 205.7638,308.25 221.7853,308.25" fill="#333" stroke="none"/>
  <polygon points="229.796,294.375 221.7853,308.25 237.8068,308.25" fill="#333" stroke="none"/>
  <polygon points="205.7638,308.25 197.7531,322.125 213.7746,322.125" fill="#333" stroke="none"/>
  <polygon points="197.7531,322.125 189.7424,336 205.7638,336" fill="#333" stroke="none"/>
  <polygon points="213.7746,322.125 205.7638,336 221.7853,336" fill="#333" stroke="none"/>
  <polygon points="237.8068,308.25 229.796,322.125 245.8175,322.125" fill="#333" stroke="none"/>
  <polygon points="229.796,322.125 221.7853,336 237.8068,336" fill="#333" stroke="none"/>
  <polygon points="245.8175,322.125 237.8068,336 253.8282,336" fill="#333" stroke="none"/>
  <polygon points="285.8712,280.5 277.8604,294.375 293.8819,294.375" fill="#333" stroke="none"/>
  <polygon points="277.8604,294.375 269.8497,308.25 285.8712,308.25" fill="#333" stroke="none"/>
  <polygon points="293.8819,294.375 285.8712,308.25 301.8927,308.25" fill="#333" stroke="none"/>
  <polygon points="269.8497,308.25 261.839,322.125 277.8604,322.125" fill="#333" stroke="none"/>
  <polygon points="261.839,322.125 253.8282,336 269.8497,336" fill="#333" stroke="none"/>
  <polygon points="277.8604,322.125 269.8497,336 285.8712,336" fill="#333" stroke="none"/>
  <polygon points="301.8927,308.25 293.8819,322.125 309.9034,322.125" fill="#333" stroke="none"/>
  <polygon points="293.8819,322.125 285.8712,336 301.8927,336" fill="#333" stroke="none"/>
  <polygon points="309.9034,322.125 301.8927,336 317.9141,336" fill="#333" stroke="none"/>
  <polygon points="189.7424,336 181.7316,349.875 197.7531,349.875" fill="#333" stroke="none"/>
  <polygon points="181.7316,349.875 173.7209,363.75 189.7424,363.75" fill="#333" stroke="none"/>
  <polygon points="197.7531,349.875 189.7424,363.75 205.7638,363.75" fill="#333" stroke="none"/>
  <polygon points="173.7209,363.75 165.7102,377.625 181.7316,377.625" fill="#333" stroke="none"/>
  <polygon points="165.7102,377.625 157.6994,391.5 173.7209,391.5" fill="#333" stroke="none"/>
  <polygon points="181.7316,377.625 173.7209,391.5 189.7424,391.5" fill="#333" stroke="none"/>
  <polygon points="205.7638,363.75 197.7531,377.625 213.7746,377.625" fill="#333" stroke="none"/>
  <polygon points="197.7531,377.625 189.7424,391.5 205.7638,391.5" fill="#333" stroke="none"/>
  <polygon points="213.7746,377.625 205.7638,391.5 221.7853,391.5" fill="#333" stroke="none"/>
  <polygon points="157.6994,391.5 149.6887,405.375 165.7102,405.375" fill="#333" stroke="none"/>
  <polygon points="149.6887,405.375 141.678,419.25 157.6994,419.25" fill="#333" stroke="none"/>
  <polygon points="165.7102,405.375 157.6994,419.25 173.7209,419.25" fill="#333" stroke="none"/>
  <polygon points="141.678,419.25 133.6672,433.125 149.6887,433.125" fill="#333" stroke="none"/>
  <polygon points="133.6672,433.125 125.6565,447 141.678,447" fill="#333" stroke="none"/>
  <polygon points="149.6887,433.125 141.678,447 157.6994,447" fill="#333" stroke="none"/>
  <polygon points="173.7209,419.25 165.7102,433.125 181.7316,433.125" fill="#333" stroke="none"/>
  <polygon points="165.7102,433.125 157.6994,447 173.7209,447" fill="#333" stroke="none"/>
  <polygon points="181.7316,433.125 173.7209,447 189.7424,447" fill="#333" stroke="none"/>
  <polygon points="221.7853,391.5 213.7746,405.375 229.796,405.375" fill="#333" stroke="none"/>
  <polygon points="213.7746,405.375 205.7638,419.25 221.7853,419.25" fill="#333" stroke="none"/>
  <polygon points="229.796,405.375 221.7853,419.25 237.8068,419.25" fill="#333" stroke="none"/>
  <polygon points="205.7638,419.25 197.7531,433.125 213.7746,433.125" fill="#333" stroke="none"/>
  <polygon points="197.7531,433.125 189.7424,447 205.7638,447" fill="#333" stroke="none"/>
  <polygon points="213.7746,433.125 205.7638,447 221.7853,447" fill="#333" stroke="none"/>
  <polygon points="237.8068,419.25 229.796,433.125 245.8175,433.125" fill="#333" stroke="none"/>
  <polygon points="229.796,433.125 221.7853,447 237.8068,447" fill="#333" stroke="none"/>
  <polygon points="245.8175,433.125 237.8068,447 253.8282,447" fill="#333" stroke="none"/>
  <polygon points="317.9141,336 309.9034,349.875 325.9249,349.875" fill="#333" stroke="none"/>
  <polygon points="309.9034,349.875 301.8927,363.75 317.9141,363.75" fill="#333" stroke="none"/>
  <polygon points="325.9249,349.875 317.9141,363.75 333.9356,363.75" fill="#333" stroke="none"/>
  <polygon points="301.8927,363.75 293.8819,377.625 309.9034,377.625" fill="#333" stroke="none"/>
  <polygon points="293.8819,377.625 285.8712,391.5 301.8927,391.5" fill="#333" stroke="none"/>
  <polygon points="309.9034,377.625 301.8927,391.5 317.9141,391.5" fill="#333" stroke="none"/>
  <polygon points="333.9356,363.75 325.9249,377.625 341.9463,377.625" fill="#333" stroke="none"/>
  <polygon points="325.9249,377.625 317.9141,391.5 333.9356,391.5" fill="#333" stroke="none"/>
  <polygon points="341.9463,377.625 333.9356,391.5 349.9571,391.5" fill="#333" stroke="none"/>
  <polygon points="285.8712,391.5 277.8604,405.375 293.8819,405.375" fill="#333" stroke="none"/>
  <polygon points="277.8604,405.375 269.8497,419.25 285.8712,419.25" fill="#333" stroke="none"/>
  <polygon points="293.8819,405.375 285.8712,419.25 301.8927,419.25" fill="#333" stroke="none"/>
  <polygon points="269.8497,419.25 261.839,433.125 277.8604,433.125" fill="#333" stroke="none"/>
  <polygon points="261.839,433.125 253.8282,447 269.8497,447" fill="#333" stroke="none"/>
  <polygon points="277.8604,433.125 269.8497,447 285.8712,447" fill="#333" stroke="none"/>
  <polygon points="301.8927,419.25 293.8819,433.125 309.9034,433.125" fill="#333" stroke="none"/>
  <polygon points="293.8819,433.125 285.8712,447 301.8927,447" fill="#333" stroke="none"/>
  <polygon points="309.9034,433.125 301.8927,447 317.9141,447" fill="#333" stroke="none"/>
  <polygon points="349.9571,391.5 341.9463,405.375 357.9678,405.375" fill="#333" stroke="none"/>
  <polygon points="341.9463,405.375 333.9356,419.25 349.9571,419.25" fill="#333" stroke="none"/>
  <polygon points="357.9678,405.375 349.9571,419.25 365.9785,419.25" fill="#333" stroke="none"/>
  <polygon points="333.9356,419.25 325.9249,433.125 341.9463,433.125" fill="#333" stroke="none"/>
  <polygon points="325.9249,433.125 317.9141,447 333.9356,447" fill="#333" stroke="none"/>
  <polygon points="341.9463,433.125 333.9356,447 349.9571,447" fill="#333" stroke="none"/>
  <polygon points="365.9785,419.25 357.9678,433.125 373.9893,433.125" fill="#333" stroke="none"/>
  <polygon points="357.9678,433.125 349.9571,447 365.9785,447" fill="#333" stroke="none"/>
  <polygon points="373.9893,433.125 365.9785,447 382,447" fill="#333" stroke="none"/>
  <polygon points="510.1718,225 502.161,238.875 518.1825,238.875" fill="#333" stroke="none"/>
  <polygon points="502.161,238.875 494.1503,252.75 510.1718,252.75" fill="#333" stroke="none"/>
  <polygon points="518.1825,238.875 510.1718,252.75 526.1932,252.75" fill="#333" stroke="none"/>
  <polygon points="494.1503,252.75 486.1396,266.625 502.161,266.625" fill="#333" stroke="none"/>
  <polygon points="486.1396,266.625 478.1288,280.5 494.1503,280.5" fill="#333" stroke="none"/>
  <polygon points="502.161,266.625 494.1503,280.5 510.1718,280.5" fill="#333" stroke="none"/>
  <polygon points="526.1932,252.75 518.1825,266.625 534.204,266.625" fill="#333" stroke="none"/>
  <polygon points="518.1825,266.625 510.1718,280.5 526.1932,280.5" fill="#333" stroke="none"/>
  <polygon points="534.204,266.625 526.1932,280.5 542.2147,280.5" fill="#333" stroke="none"/>
  <polygon points="478.1288,280.5 470.1181,294.375 486.1396,294.375" fill="#333" stroke="none"/>
  <polygon points="470.1181,294.375 462.1073,308.25 478.1288,308.25" fill="#333" stroke="none"/>
  <polygon points="486.1396,294.375 478.1288,308.25 494.1503,308.25" fill="#333" stroke="none"/>
  <polygon points="462.1073,308.25 454.0966,322.125 470.1181,322.125" fill="#333" stroke="none"/>
  <polygon points="454.0966,322.125 446.0859,336 462.1073,336" fill="#333" stroke="none"/>
  <polygon points="470.1181,322.125 462.1073,336 478.1288,336" fill="#333" stroke="none"/>
  <polygon points="494.1503,308.25 486.1396,322.125 502.161,322.125" fill="#333" stroke="none"/>
  <polygon points="486.1396,322.125 478.1288,336 494.1503,336" fill="#333" stroke="none"/>
  <polygon points="502.161,322.125 494.1503,336 510.1718,336" fill="#333" stroke="none"/>
  <polygon points="542.2147,280.5 534.204,294.375 550.2254,294.375" fill="#333" stroke="none"/>
  <polygon points="534.204,294.375 526.1932,308.25 542.2147,308.25" fill="#333" stroke="none"/>
  <polygon points="550.2254,294.375 542.2147,308.25 558.2362,308.25" fill="#333" stroke="none"/>
  <polygon points="526.1932,308.25 518.1825,322.125 534.204,322.125" fill="#333" stroke="none"/>
  <polygon points="518.1825,322.125 510.1718,336 526.1932,336" fill="#333" stroke="none"/>
  <polygon points="534.204,322.125 526.1932,336 542.2147,336" fill="#333" stroke="none"/>
  <polygon points="558.2362,308.25 550.2254,322.125 566.2469,322.125" fill="#333" stroke="none"/>
  <polygon points="550.2254,322.125 542.2147,336 558.2362,336" fill="#333" stroke="none"/>
  <polygon points="566.2469,322.125 558.2362,336 574.2576,336" fill="#333" stroke="none"/>
  <polygon points="446.0859,336 438.0751,349.875 454.0966,349.875" fill="#333" stroke="none"/>
  <polygon points="438.0751,349.875 430.0644,363.75 446.0859,363.75" fill="#333" stroke="none"/>
  <polygon points="454.0966,349.875 446.0859,363.75 462.1073,363.75" fill="#333" stroke="none"/>
  <polygon points="430.0644,363.75 422.0537,377.625 438.0751,377.625" fill="#333" stroke="none"/>
  <polygon points="422.0537,377.625 414.0429,391.5 430.0644,391.5" fill="#333" stroke="none"/>
  <polygon points="438.0751,377.625 430.0644,391.5 446.0859,391.5" fill="#333" stroke="none"/>
  <polygon points="462.1073,363.75 454.0966,377.625 470.1181,377.625" fill="#333" stroke="none"/>
  <polygon points="454.0966,377.625 446.0859,391.5 462.1073,391.5" fill="#333" stroke="none"/>
  <polygon points="470.1181,377.625 462.1073,391.5 478.1288,391.5" fill="#333" stroke="none"/>
  <polygon points="414.0429,391.5 406.0322,405.375 422.0537,405.375" fill="#333" stroke="none"/>
  <polygon points="406.0322,405.375 398.0215,419.25 414.0429,419.25" fill="#333" stroke="none"/>
  <polygon points="422.0537,405.375 414.0429,419.25 430.0644,419.25" fill="#333" stroke="none"/>
  <polygon points="398.0215,419.25 390.0107,433.125 406.0322,433.125" fill="#333" stroke="none"/>
  <polygon points="390.0107,433.125 382,447 398.0215,447" fill="#333" stroke="none"/>
  <polygon points="406.0322,433.125 398.0215,447 414.0429,447" fill="#333" stroke="none"/>
  <polygon points="430.0644,419.25 422.0537,433.125 438.0751,433.125" fill="#333" stroke="none"/>
  <polygon points="422.0537,433.125 414.0429,447 430.0644,447" fill="#333" stroke="none"/>
  <polygon points="438.0751,433.125 430.0644,447 446.0859,447" fill="#333" stroke="none"/>
  <polygon points="478.1288,391.5 470.1181,405.375 486.1396,405.375" fill="#333" stroke="none"/>
  <polygon points="470.1181,405.375 462.1073,419.25 478.1288,419.25" fill="#333" stroke="none"/>
  <polygon points="486.1396,405.375 478.1288,419.25 494.1503,419.25" fill="#333" stroke="none"/>
  <polygon points="462.1073,419.25 454.0966,433.125 470.1181,433.125" fill="#333" stroke="none"/>
  <polygon points="454.0966,433.125 446.0859,447 462.1073,447" fill="#333" stroke="none"/>
  <polygon points="470.1181,433.125 462.1073,447 478.1288,447" fill="#333" stroke="none"/>
  <polygon points="494.1503,419.25 486.1396,433.125 502.161,433.125" fill="#333" stroke="none"/>
  <polygon points="486.1396,433.125 478.1288,447 494.1503,447" fill="#333" stroke="none"/>
  <polygon points="502.161,433.125 494.1503,447 510.1718,447" fill="#333" stroke="none"/>
  <polygon points="574.2576,336 566.2469,349.875 582.2684,349.875" fill="#333" stroke="none"/>
  <polygon points="566.2469,349.875 558.2362,363.75 574.2576,363.75" fill="#333" stroke="none"/>
  <polygon points="582.2684,349.875 574.2576,363.75 590.2791,363.75" fill="#333" stroke="none"/>
  <polygon points="558.2362,363.75 550.2254,377.625 566.2469,377.625" fill="#333" stroke="none"/>
  <polygon points="550.2254,377.625 542.2147,391.5 558.2362,391.5" fill="#333" stroke="none"/>
  <polygon points="566.2469,377.625 558.2362,391.5 574.2576,391.5" fill="#333" stroke="none"/>
  <polygon points="590.2791,363.75 582.2684,377.625 598.2898,377.625" fill="#333" stroke="none"/>
  <polygon points="582.2684,377.625 574.2576,391.5 590.2791,391.5" fill="#333" stroke="none"/>
  <polygon points="598.2898,377.625 590.2791,391.5 606.3006,391.5" fill="#333" stroke="none"/>
  <polygon points="542.2147,391.5 534.204,405.375 550.2254,405.375" fill="#333" stroke="none"/>
  <polygon points="534.204,405.375 526.1932,419.25 542.2147,419.25" fill="#333" stroke="none"/>
  <polygon points="550.2254,405.375 542.2147,419.25 558.2362,419.25" fill="#333" stroke="none"/>
  <polygon points="526.1932,419.25 518.1825,433.125 534.204,433.125" fill="#333" stroke="none"/>
  <polygon points="518.1825,433.125 510.1718,447 526.1932,447" fill="#333" stroke="none"/>
  <polygon points="534.204,433.125 526.1932,447 542.2147,447" fill="#333" stroke="none"/>
  <polygon points="558.2362,419.25 550.2254,433.125 566.2469,433.125" fill="#333" stroke="none"/>
  <polygon points="550.2254,433.125 542.2147,447 558.2362,447" fill="#333" stroke="none"/>
  <polygon points="566.2469,433.125 558.2362,447 574.2576,447" fill="#333" stroke="none"/>
  <polygon points="606.3006,391.5 598.2898,405.375 614.3113,405.375" fill="#333" stroke="none"/>
  <polygon points="598.2898,405.375 590.2791,419.25 606.3006,419.25" fill="#333" stroke="none"/>
  <polygon points="614.3113,405.375 606.3006,419.25 622.322,419.25" fill="#333" stroke="none"/>
  <polygon points="590.2791,419.25 582.2684,433.125 598.2898,433.125" fill="#333" stroke="none"/>
  <polygon points="582.2684,433.125 574.2576,447 590.2791,447" fill="#333" stroke="none"/>
  <polygon points="598.2898,433.125 590.2791,447 606.3006,447" fill="#333" stroke="none"/>
  <polygon points="622.322,419.25 614.3113,433.125 630.3328,433.125" fill="#333" stroke="none"/>
  <polygon points="614.3113,433.125 606.3006,447 622.322,447" fill="#333" stroke="none"/>
  <polygon points="630.3328,433.125 622.322,447 638.3435,447" fill="#333" stroke="none"/>
</g>
</g>
</g>
  <g>
  <g>
  <circle cx="433" cy="382" r="35.2204" stroke="#e74c3c" stroke-width="2" fill="#e74c3c" fill-opacity="0.08"/>
  <circle cx="468.2204" cy="382" r="3" fill="#e74c3c" stroke="none"/>
  <circle cx="415.3898" cy="351.4983" r="3" fill="#e74c3c" stroke="none"/>
  <circle cx="415.3898" cy="412.5017" r="3" fill="#e74c3c" stroke="none"/>
  <text x="476.2204" y="386" font-size="10" fill="#e74c3c">3D c3 seed</text>
  <circle cx="433" cy="382" r="56.9878" stroke="#e67e22" stroke-width="2" fill="#e67e22" fill-opacity="0.08"/>
  <circle cx="489.9878" cy="382" r="3" fill="#e67e22" stroke="none"/>
  <circle cx="433" cy="325.0122" r="3" fill="#e67e22" stroke="none"/>
  <circle cx="376.0122" cy="382" r="3" fill="#e67e22" stroke="none"/>
  <circle cx="433" cy="438.9878" r="3" fill="#e67e22" stroke="none"/>
  <text x="497.9878" y="386" font-size="10" fill="#e67e22">4D E4 base</text>
  <circle cx="433" cy="382" r="92.2082" stroke="#f1c40f" stroke-width="2" fill="#f1c40f" fill-opacity="0.08"/>
  <circle cx="525.2082" cy="382" r="3" fill="#f1c40f" stroke="none"/>
  <circle cx="479.1041" cy="302.1454" r="3" fill="#f1c40f" stroke="none"/>
  <circle cx="386.8959" cy="302.1454" r="3" fill="#f1c40f" stroke="none"/>
  <circle cx="340.7918" cy="382" r="3" fill="#f1c40f" stroke="none"/>
  <circle cx="386.8959" cy="461.8546" r="3" fill="#f1c40f" stroke="none"/>
  <circle cx="479.1041" cy="461.8546" r="3" fill="#f1c40f" stroke="none"/>
  <text x="533.2082" y="386" font-size="10" fill="#f1c40f">6D W3 Mobius</text>
  <circle cx="433" cy="382" r="149.1959" stroke="#2ecc71" stroke-width="2" fill="#2ecc71" fill-opacity="0.08"/>
  <circle cx="582.1959" cy="382" r="3" fill="#2ecc71" stroke="none"/>
  <circle cx="538.4974" cy="276.5026" r="3" fill="#2ecc71" stroke="none"/>
  <circle cx="433" cy="232.8041" r="3" fill="#2ecc71" stroke="none"/>
  <circle cx="327.5026" cy="276.5026" r="3" fill="#2ecc71" stroke="none"/>
  <circle cx="283.8041" cy="382" r="3" fill="#2ecc71" stroke="none"/>
  <circle cx="327.5026" cy="487.4974" r="3" fill="#2ecc71" stroke="none"/>
  <circle cx="433" cy="531.1959" r="3" fill="#2ecc71" stroke="none"/>
  <circle cx="538.4974" cy="487.4974" r="3" fill="#2ecc71" stroke="none"/>
  <text x="590.1959" y="386" font-size="10" fill="#2ecc71">8D W5 penta</text>
  <circle cx="433" cy="382" r="241.4041" stroke="#3498db" stroke-width="2" fill="#3498db" fill-opacity="0.08"/>
  <circle cx="674.4041" cy="382" r="3" fill="#3498db" stroke="none"/>
  <circle cx="628.3" cy="240.1062" r="3" fill="#3498db" stroke="none"/>
  <circle cx="507.598" cy="152.4111" r="3" fill="#3498db" stroke="none"/>
  <circle cx="358.402" cy="152.4111" r="3" fill="#3498db" stroke="none"/>
  <circle cx="237.7" cy="240.1062" r="3" fill="#3498db" stroke="none"/>
  <circle cx="191.5959" cy="382" r="3" fill="#3498db" stroke="none"/>
  <circle cx="237.7" cy="523.8938" r="3" fill="#3498db" stroke="none"/>
  <circle cx="358.402" cy="611.5889" r="3" fill="#3498db" stroke="none"/>
  <circle cx="507.598" cy="611.5889" r="3" fill="#3498db" stroke="none"/>
  <circle cx="628.3" cy="523.8938" r="3" fill="#3498db" stroke="none"/>
  <text x="682.4041" y="386" font-size="10" fill="#3498db">10D W7 hepta</text>
  <circle cx="433" cy="382" r="390.6" stroke="#9b59b6" stroke-width="2" fill="#9b59b6" fill-opacity="0.08"/>
  <circle cx="823.6" cy="382" r="3" fill="#9b59b6" stroke="none"/>
  <circle cx="771.2695" cy="186.7" r="3" fill="#9b59b6" stroke="none"/>
  <circle cx="628.3" cy="43.7305" r="3" fill="#9b59b6" stroke="none"/>
  <circle cx="433" cy="-8.6" r="3" fill="#9b59b6" stroke="none"/>
  <circle cx="237.7" cy="43.7305" r="3" fill="#9b59b6" stroke="none"/>
  <circle cx="94.7305" cy="186.7" r="3" fill="#9b59b6" stroke="none"/>
  <circle cx="42.4" cy="382" r="3" fill="#9b59b6" stroke="none"/>
  <circle cx="94.7305" cy="577.3" r="3" fill="#9b59b6" stroke="none"/>
  <circle cx="237.7" cy="720.2695" r="3" fill="#9b59b6" stroke="none"/>
  <circle cx="433" cy="772.6" r="3" fill="#9b59b6" stroke="none"/>
  <circle cx="628.3" cy="720.2695" r="3" fill="#9b59b6" stroke="none"/>
  <circle cx="771.2695" cy="577.3" r="3" fill="#9b59b6" stroke="none"/>
  <text x="831.6" y="386" font-size="10" fill="#9b59b6">12D W9 crown</text>
</g>
  <line x1="383.0173" y1="543.3435" x2="586.3407" y2="527.2315" stroke="#8B4513" stroke-width="1.2"/>
  <line x1="383.0173" y1="543.3435" x2="383.0173" y2="266.3885" stroke="#DC143C" stroke-width="1.2"/>
  <line x1="383.0173" y1="543.3435" x2="383.0173" y2="497.6115" stroke="#4169E1" stroke-width="1.2"/>
  <line x1="383.0173" y1="543.3435" x2="291.4024" y2="516.1094" stroke="#228B22" stroke-width="1.2"/>
  <line x1="586.3407" y1="527.2315" x2="586.3407" y2="277.9336" stroke="#DC143C" stroke-width="1.2"/>
  <line x1="586.3407" y1="527.2315" x2="586.3407" y2="486.0664" stroke="#4169E1" stroke-width="1.2"/>
  <line x1="586.3407" y1="527.2315" x2="471.0382" y2="504.7868" stroke="#228B22" stroke-width="1.2"/>
  <line x1="383.0173" y1="266.3885" x2="586.3407" y2="277.9336" stroke="#8B4513" stroke-width="1.2"/>
  <line x1="383.0173" y1="266.3885" x2="383.0173" y2="220.6565" stroke="#4169E1" stroke-width="1.2"/>
  <line x1="383.0173" y1="266.3885" x2="291.4024" y2="285.9032" stroke="#228B22" stroke-width="1.2"/>
  <line x1="586.3407" y1="277.9336" x2="586.3407" y2="236.7685" stroke="#4169E1" stroke-width="1.2"/>
  <line x1="586.3407" y1="277.9336" x2="471.0382" y2="294.0165" stroke="#228B22" stroke-width="1.2"/>
  <line x1="383.0173" y1="497.6115" x2="586.3407" y2="486.0664" stroke="#8B4513" stroke-width="1.2"/>
  <line x1="383.0173" y1="497.6115" x2="383.0173" y2="220.6565" stroke="#DC143C" stroke-width="1.2"/>
  <line x1="383.0173" y1="497.6115" x2="291.4024" y2="478.0968" stroke="#228B22" stroke-width="1.2"/>
  <line x1="586.3407" y1="486.0664" x2="586.3407" y2="236.7685" stroke="#DC143C" stroke-width="1.2"/>
  <line x1="586.3407" y1="486.0664" x2="471.0382" y2="469.9835" stroke="#228B22" stroke-width="1.2"/>
  <line x1="383.0173" y1="220.6565" x2="586.3407" y2="236.7685" stroke="#8B4513" stroke-width="1.2"/>
  <line x1="383.0173" y1="220.6565" x2="291.4024" y2="247.8906" stroke="#228B22" stroke-width="1.2"/>
  <line x1="586.3407" y1="236.7685" x2="471.0382" y2="259.2132" stroke="#228B22" stroke-width="1.2"/>
  <line x1="291.4024" y1="516.1094" x2="471.0382" y2="504.7868" stroke="#8B4513" stroke-width="1.2"/>
  <line x1="291.4024" y1="516.1094" x2="291.4024" y2="285.9032" stroke="#DC143C" stroke-width="1.2"/>
  <line x1="291.4024" y1="516.1094" x2="291.4024" y2="478.0968" stroke="#4169E1" stroke-width="1.2"/>
  <line x1="471.0382" y1="504.7868" x2="471.0382" y2="294.0165" stroke="#DC143C" stroke-width="1.2"/>
  <line x1="471.0382" y1="504.7868" x2="471.0382" y2="469.9835" stroke="#4169E1" stroke-width="1.2"/>
  <line x1="291.4024" y1="285.9032" x2="471.0382" y2="294.0165" stroke="#8B4513" stroke-width="1.2"/>
  <line x1="291.4024" y1="285.9032" x2="291.4024" y2="247.8906" stroke="#4169E1" stroke-width="1.2"/>
  <line x1="471.0382" y1="294.0165" x2="471.0382" y2="259.2132" stroke="#4169E1" stroke-width="1.2"/>
  <line x1="291.4024" y1="478.0968" x2="471.0382" y2="469.9835" stroke="#8B4513" stroke-width="1.2"/>
  <line x1="291.4024" y1="478.0968" x2="291.4024" y2="247.8906" stroke="#DC143C" stroke-width="1.2"/>
  <line x1="471.0382" y1="469.9835" x2="471.0382" y2="259.2132" stroke="#DC143C" stroke-width="1.2"/>
  <line x1="291.4024" y1="247.8906" x2="471.0382" y2="259.2132" stroke="#8B4513" stroke-width="1.2"/>
  <circle cx="383.0173" cy="543.3435" r="3" fill="#8B4513" stroke="#333" stroke-width="0.5"/>
  <circle cx="586.3407" cy="527.2315" r="3" fill="#DC143C" stroke="#333" stroke-width="0.5"/>
  <circle cx="383.0173" cy="266.3885" r="3" fill="#DC143C" stroke="#333" stroke-width="0.5"/>
  <circle cx="586.3407" cy="277.9336" r="3" fill="#4169E1" stroke="#333" stroke-width="0.5"/>
  <circle cx="383.0173" cy="497.6115" r="3" fill="#DC143C" stroke="#333" stroke-width="0.5"/>
  <circle cx="586.3407" cy="486.0664" r="3" fill="#4169E1" stroke="#333" stroke-width="0.5"/>
  <circle cx="383.0173" cy="220.6565" r="3" fill="#4169E1" stroke="#333" stroke-width="0.5"/>
  <circle cx="586.3407" cy="236.7685" r="3" fill="#228B22" stroke="#333" stroke-width="0.5"/>
  <circle cx="291.4024" cy="516.1094" r="3" fill="#DC143C" stroke="#333" stroke-width="0.5"/>
  <circle cx="471.0382" cy="504.7868" r="3" fill="#4169E1" stroke="#333" stroke-width="0.5"/>
  <circle cx="291.4024" cy="285.9032" r="3" fill="#4169E1" stroke="#333" stroke-width="0.5"/>
  <circle cx="471.0382" cy="294.0165" r="3" fill="#228B22" stroke="#333" stroke-width="0.5"/>
  <circle cx="291.4024" cy="478.0968" r="3" fill="#4169E1" stroke="#333" stroke-width="0.5"/>
  <circle cx="471.0382" cy="469.9835" r="3" fill="#228B22" stroke="#333" stroke-width="0.5"/>
  <circle cx="291.4024" cy="247.8906" r="3" fill="#228B22" stroke="#333" stroke-width="0.5"/>
  <circle cx="471.0382" cy="259.2132" r="3" fill="#8B4513" stroke="#333" stroke-width="0.5"/>
  <g>
  <polyline points="556.3483,363.707 550.357,357.4427 542.4347,351.5849 532.6941,346.2359 521.2723,341.4919 508.3297,337.4416 494.0492,334.1658 478.6341,331.7353 462.3069,330.2107 445.3072,329.6407 427.8891,330.0611 410.3189,331.4938 392.8717,333.9462 375.8281,337.4098 359.4704,341.8601 344.0782,347.2555 329.9242,353.538 317.2695,360.6323 306.3583,368.4469 297.4136,376.8745 290.6318,385.7931 286.1782,395.0677 284.1827,404.5515 284.7356,414.0887 287.8844,423.5169 293.6311,432.6694 301.9304,441.3787 312.6885,449.4796 325.7633,456.8124 340.9656,463.2266 358.0613,468.5838 376.7743,472.7612 396.7915,475.6545 417.7674,477.1807 439.331,477.2804 461.0924,475.9194 482.6508,473.0905 503.6022,468.8141 523.5482,463.1384 542.1045,456.1389 558.9089,447.9175 573.6297,438.6008 585.9729,428.3378 595.6892,417.2969 602.5793,405.6631 606.4991,393.6338 607.3628,381.4151 605.1453,369.2172 599.883,357.2506" stroke="#9b59b6" stroke-width="0.5" fill="none" stroke-opacity="0.6"/>
  <polyline points="563.6041,362.6309 557.2429,355.4891 548.8074,348.7918 538.4264,342.6549 526.2579,337.1866 512.4868,332.4855 497.323,328.6396 480.9985,325.7247 463.7654,323.8032 445.8917,322.9231 427.659,323.1168 409.3579,324.4005 391.2846,326.7734 373.7365,330.2173 357.0074,334.6962 341.3835,340.1569 327.1384,346.5284 314.5283,353.7235 303.7876,361.6389 295.1241,370.1567 288.715,379.146 284.7029,388.4647 283.1921,397.9614 284.2459,407.4779 287.8844,416.8517 294.0825,425.9189 302.7694,434.5173 313.8287,442.4887 327.0992,449.6829 342.3768,455.96 359.4174,461.1934 377.9404,465.273 397.6335,468.1069 418.158,469.6245 439.1544,469.7774 460.2497,468.5416 481.0637,465.9177 501.2171,461.932 520.3383,456.6361 538.0716,450.1061 554.0837,442.4419 568.0711,433.7652 579.7666,424.2176 588.9445,413.9576 595.4257,403.1582 599.082,392.0029 599.8382,380.683 597.6747,369.3928 592.6272,358.3267" stroke="#9b59b6" stroke-width="0.5" fill="none" stroke-opacity="0.6"/>
  <polyline points="570.8598,361.5549 564.1289,353.5355 555.18,345.9987 544.1586,339.0739 531.2435,332.8813 516.6439,327.5294 500.5968,323.1135 483.363,319.7141 465.2239,317.3957 446.4763,316.2055 427.4289,316.1726 408.3969,317.3073 389.6976,319.6007 371.6448,323.0247 354.5444,327.5324 338.6888,333.0582 324.3526,339.5189 311.7871,346.8147 301.2168,354.8309 292.8346,363.4389 286.7982,372.4989 283.2275,381.8618 282.2014,391.3713 283.7563,400.867 287.8844,410.1864 294.5338,419.1685 303.6084,427.6559 314.9689,435.4979 328.4351,442.5534 343.7879,448.6934 360.7734,453.8031 379.1064,457.7848 398.4756,460.5594 418.5486,462.0683 438.9778,462.2745 459.4069,461.1638 479.4766,458.7449 498.832,455.0499 517.1285,450.1337 534.0387,444.0733 549.2585,436.9663 562.5126,428.9296 573.5603,420.0974 582.1997,410.6183 588.2721,400.6532 591.6649,390.372 592.3137,379.9508 590.204,369.5684 585.3714,359.4028" stroke="#9b59b6" stroke-width="0.5" fill="none" stroke-opacity="0.6"/>
  <polyline points="578.1156,360.4788 571.0149,351.5819 561.5527,343.2055 549.8909,335.4929 536.229,328.576 520.8009,322.5733 503.8706,317.5873 485.7275,313.7035 466.6823,310.9882 447.0608,309.4879 427.1987,309.2284 407.4359,310.214 388.1105,312.4279 369.5531,315.8321 352.0814,320.3686 335.9942,325.9595 321.5667,332.5094 309.046,339.906 298.6461,348.0228 290.545,356.7211 284.8814,365.8518 281.7522,375.2589 281.2108,384.7813 283.2666,394.2561 287.8844,403.5212 294.9851,412.4181 304.4473,420.7945 316.1091,428.5071 329.771,435.424 345.1991,441.4267 362.1294,446.4127 380.2725,450.2965 399.3177,453.0118 418.9392,454.5121 438.8013,454.7716 458.5641,453.786 477.8895,451.5721 496.4469,448.1679 513.9186,443.6314 530.0058,438.0405 544.4333,431.4906 556.954,424.094 567.3539,415.9772 575.455,407.2789 581.1186,398.1482 584.2478,388.7411 584.7892,379.2187 582.7334,369.7439 578.1156,360.4788" stroke="#9b59b6" stroke-width="0.5" fill="none" stroke-opacity="0.6"/>
  <polyline points="585.3714,359.4028 577.9008,349.6284 567.9253,340.4124 555.6231,331.9119 541.2146,324.2708 524.958,317.6171 507.1443,312.0611 488.092,307.6928 468.1408,304.5807 447.6454,302.7703 426.9686,302.2842 406.4749,303.1207 386.5234,305.2551 367.4615,308.6396 349.6184,313.2047 333.2995,318.8609 318.7809,325.4998 306.3048,332.9972 296.0753,341.2148 288.2555,350.0033 282.9646,359.2047 280.2768,368.656 280.2202,378.1912 282.777,387.6452 287.8844,396.8559 295.4365,405.6676 305.2863,413.9331 317.2493,421.5163 331.1068,428.2945 346.6102,434.1601 363.4855,439.0223 381.4385,442.8083 400.1597,445.4643 419.3298,446.9558 438.6247,447.2687 457.7213,446.4082 476.3024,444.3993 494.0618,441.2858 510.7088,437.1291 525.973,432.0077 539.6081,426.015 551.3955,419.2584 561.1476,411.8569 568.7102,403.9396 573.965,395.6432 576.8307,387.1102 577.2647,378.4866 575.2627,369.9195 570.8598,361.5549" stroke="#9b59b6" stroke-width="0.5" fill="none" stroke-opacity="0.6"/>
  <polyline points="592.6272,358.3267 584.7868,347.6748 574.2979,337.6193 561.3554,328.3309 546.2002,319.9655 529.1151,312.661 510.4181,306.535 490.4565,301.6822 469.5993,298.1731 448.2299,296.0528 426.7385,295.3399 405.5139,296.0274 384.9363,298.0823 365.3698,301.447 347.1554,306.0409 330.6048,311.7622 315.9951,318.4903 303.5636,326.0885 293.5046,334.4068 285.966,343.2855 281.0478,352.5576 278.8015,362.053 279.2296,371.6011 282.2873,381.0343 287.8844,390.1907 295.8878,398.9172 306.1253,407.0717 318.3896,414.5254 332.4427,421.165 348.0213,426.8935 364.8415,431.632 382.6045,435.3201 401.0018,437.9167 419.7203,439.3996 438.4481,439.7658 456.8785,439.0304 474.7154,437.2266 491.6767,434.4037 507.4989,430.6268 521.9401,425.9749 534.7829,420.5394 545.8369,414.4228 554.9412,407.7367 561.9655,400.6002 566.8114,393.1382 569.4137,385.4793 569.7401,377.7545 567.7921,370.095 563.6041,362.6309" stroke="#9b59b6" stroke-width="0.5" fill="none" stroke-opacity="0.6"/>
  <polyline points="556.3483,363.707 563.6041,362.6309 570.8598,361.5549 578.1156,360.4788 585.3714,359.4028 592.6272,358.3267" stroke="#999" stroke-width="0.5" fill="none" stroke-opacity="0.6"/>
  <polyline points="521.2723,341.4919 526.2579,337.1866 531.2435,332.8813 536.229,328.576 541.2146,324.2708 546.2002,319.9655" stroke="#999" stroke-width="0.5" fill="none" stroke-opacity="0.6"/>
  <polyline points="462.3069,330.2107 463.7654,323.8032 465.2239,317.3957 466.6823,310.9882 468.1408,304.5807 469.5993,298.1731" stroke="#999" stroke-width="0.5" fill="none" stroke-opacity="0.6"/>
  <polyline points="392.8717,333.9462 391.2846,326.7734 389.6976,319.6007 388.1105,312.4279 386.5234,305.2551 384.9363,298.0823" stroke="#999" stroke-width="0.5" fill="none" stroke-opacity="0.6"/>
  <polyline points="329.9242,353.538 327.1384,346.5284 324.3526,339.5189 321.5667,332.5094 318.7809,325.4998 315.9951,318.4903" stroke="#999" stroke-width="0.5" fill="none" stroke-opacity="0.6"/>
  <polyline points="290.6318,385.7931 288.715,379.146 286.7982,372.4989 284.8814,365.8518 282.9646,359.2047 281.0478,352.5576" stroke="#999" stroke-width="0.5" fill="none" stroke-opacity="0.6"/>
  <polyline points="287.8844,423.5169 287.8844,416.8517 287.8844,410.1864 287.8844,403.5212 287.8844,396.8559 287.8844,390.1907" stroke="#999" stroke-width="0.5" fill="none" stroke-opacity="0.6"/>
  <polyline points="325.7633,456.8124 327.0992,449.6829 328.4351,442.5534 329.771,435.424 331.1068,428.2945 332.4427,421.165" stroke="#999" stroke-width="0.5" fill="none" stroke-opacity="0.6"/>
  <polyline points="396.7915,475.6545 397.6335,468.1069 398.4756,460.5594 399.3177,453.0118 400.1597,445.4643 401.0018,437.9167" stroke="#999" stroke-width="0.5" fill="none" stroke-opacity="0.6"/>
  <polyline points="482.6508,473.0905 481.0637,465.9177 479.4766,458.7449 477.8895,451.5721 476.3024,444.3993 474.7154,437.2266" stroke="#999" stroke-width="0.5" fill="none" stroke-opacity="0.6"/>
  <polyline points="558.9089,447.9175 554.0837,442.4419 549.2585,436.9663 544.4333,431.4906 539.6081,426.015 534.7829,420.5394" stroke="#999" stroke-width="0.5" fill="none" stroke-opacity="0.6"/>
  <polyline points="602.5793,405.6631 595.4257,403.1582 588.2721,400.6532 581.1186,398.1482 573.965,395.6432 566.8114,393.1382" stroke="#999" stroke-width="0.5" fill="none" stroke-opacity="0.6"/>
</g>
</g>
</svg>