<svg xmlns="http://www.w3.org/2000/svg" width="800" height="800" viewBox="0 0 800 800">
  <g transform="rotate(115.8,400,400)">
  <polygon points="202,347 247.6379,363.6108 271.9214,405.671 263.4878,453.5 226.2834,484.7182 177.7166,484.7182 140.5122,453.5 132.0786,405.671 156.3621,363.6108" fill="none" stroke="#333" stroke-width="1.5"/>
</g>
  <polygon points="408,121 414.9282,133 408,145 421.8564,145 428.7846,157 421.8564,169 408,169 414.9282,181 408,193 421.8564,193 428.7846,205 435.7128,193 449.5692,193 456.4974,205 449.5692,217 463.4256,217 470.3538,229 463.4256,241 449.5692,241 456.4974,253 449.5692,265 435.7128,265 428.7846,253 421.8564,265 408,265 414.9282,277 408,289 421.8564,289 428.7846,301 421.8564,313 408,313 414.9282,325 408,337 421.8564,337 428.7846,349 435.7128,337 449.5692,337 456.4974,349 449.5692,361 463.4256,361 470.3538,373 477.282,361 491.1384,361 484.2102,349 491.1384,337 504.9948,337 511.923,349 518.8513,337 532.7077,337 539.6359,349 532.7077,361 546.5641,361 553.4923,373 546.5641,385 532.7077,385 539.6359,397 532.7077,409 546.5641,409 553.4923,421 560.4205,409 574.2769,409 581.2051,421 574.2769,433 588.1333,433 595.0615,445 581.2051,445 574.2769,433 567.3487,445 553.4923,445 546.5641,433 553.4923,421 539.6359,421 532.7077,409 525.7795,421 511.923,421 518.8513,433 511.923,445 498.0666,445 491.1384,433 484.2102,445 470.3538,445 463.4256,433 470.3538,421 456.4974,421 449.5692,409 456.4974,397 470.3538,397 463.4256,385 470.3538,373 456.4974,373 449.5692,361 442.641,373 428.7846,373 421.8564,361 428.7846,349 414.9282,349 408,337 401.0718,349 387.2154,349 394.1436,361 387.2154,373 373.359,373 366.4308,361 359.5026,373 345.6462,373 352.5744,385 345.6462,397 359.5026,397 366.4308,409 359.5026,421 345.6462,421 352.5744,433 345.6462,445 331.7898,445 324.8616,433 317.9334,445 304.077,445 297.1487,433 304.077,421 290.2205,421 283.2923,409 276.3641,421 262.5077,421 269.4359,433 262.5077,445 248.6513,445 241.7231,433 234.7949,445 220.9385,445 227.8667,433 241.7231,433 234.7949,421 241.7231,409 255.5795,409 262.5077,421 269.4359,409 283.2923,409 276.3641,397 283.2923,385 269.4359,385 262.5077,373 269.4359,361 283.2923,361 276.3641,349 283.2923,337 297.1487,337 304.077,349 311.0052,337 324.8616,337 331.7898,349 324.8616,361 338.718,361 345.6462,373 352.5744,361 366.4308,361 359.5026,349 366.4308,337 380.2872,337 387.2154,349 394.1436,337 408,337 401.0718,325 408,313 394.1436,313 387.2154,301 394.1436,289 408,289 401.0718,277 408,265 394.1436,265 387.2154,253 380.2872,265 366.4308,265 359.5026,253 366.4308,241 352.5744,241 345.6462,229 352.5744,217 366.4308,217 359.5026,205 366.4308,193 380.2872,193 387.2154,205 394.1436,193 408,193 401.0718,181 408,169 394.1436,169 387.2154,157 394.1436,145 408,145 401.0718,133" fill="none" stroke="#333" stroke-width="1"/>
  <g>
  <line x1="415" y1="610" x2="416.7762" y2="525.0186" stroke="#333" stroke-width="1.5"/>
  <g>
  <line x1="416.7762" y1="525.0186" x2="391.4661" y2="478.9848" stroke="#333" stroke-width="1.5"/>
  <g>
  <line x1="391.4661" y1="478.9848" x2="363.6942" y2="462.1673" stroke="#333" stroke-width="1.5"/>
  <g>
  <line x1="363.6942" y1="462.1673" x2="343.6328" y2="461.748" stroke="#333" stroke-width="1.5"/>
  <g>
  <line x1="343.6328" y1="461.748" x2="332.7657" y2="467.7228" stroke="#333" stroke-width="1.5"/>
</g>
  <g>
  <line x1="343.6328" y1="461.748" x2="333.0248" y2="455.3242" stroke="#333" stroke-width="1.5"/>
</g>
</g>
  <g>
  <line x1="363.6942" y1="462.1673" x2="354.0266" y2="444.5839" stroke="#333" stroke-width="1.5"/>
  <g>
  <line x1="354.0266" y1="444.5839" x2="343.4186" y2="438.1602" stroke="#333" stroke-width="1.5"/>
</g>
  <g>
  <line x1="354.0266" y1="444.5839" x2="354.2857" y2="432.1853" stroke="#333" stroke-width="1.5"/>
</g>
</g>
</g>
  <g>
  <line x1="391.4661" y1="478.9848" x2="392.1446" y2="446.5248" stroke="#333" stroke-width="1.5"/>
  <g>
  <line x1="392.1446" y1="446.5248" x2="382.477" y2="428.9415" stroke="#333" stroke-width="1.5"/>
  <g>
  <line x1="382.477" y1="428.9415" x2="371.869" y2="422.5177" stroke="#333" stroke-width="1.5"/>
</g>
  <g>
  <line x1="382.477" y1="428.9415" x2="382.7361" y2="416.5428" stroke="#333" stroke-width="1.5"/>
</g>
</g>
  <g>
  <line x1="392.1446" y1="446.5248" x2="402.5384" y2="429.3608" stroke="#333" stroke-width="1.5"/>
  <g>
  <line x1="402.5384" y1="429.3608" x2="402.7975" y2="416.9621" stroke="#333" stroke-width="1.5"/>
</g>
  <g>
  <line x1="402.5384" y1="429.3608" x2="413.4055" y2="423.3859" stroke="#333" stroke-width="1.5"/>
</g>
</g>
</g>
</g>
  <g>
  <line x1="416.7762" y1="525.0186" x2="443.9876" y2="480.0825" stroke="#333" stroke-width="1.5"/>
  <g>
  <line x1="443.9876" y1="480.0825" x2="444.666" y2="447.6225" stroke="#333" stroke-width="1.5"/>
  <g>
  <line x1="444.666" y1="447.6225" x2="434.9984" y2="430.0392" stroke="#333" stroke-width="1.5"/>
  <g>
  <line x1="434.9984" y1="430.0392" x2="424.3905" y2="423.6155" stroke="#333" stroke-width="1.5"/>
</g>
  <g>
  <line x1="434.9984" y1="430.0392" x2="435.2576" y2="417.6406" stroke="#333" stroke-width="1.5"/>
</g>
</g>
  <g>
  <line x1="444.666" y1="447.6225" x2="455.0598" y2="430.4585" stroke="#333" stroke-width="1.5"/>
  <g>
  <line x1="455.0598" y1="430.4585" x2="455.319" y2="418.0599" stroke="#333" stroke-width="1.5"/>
</g>
  <g>
  <line x1="455.0598" y1="430.4585" x2="465.9269" y2="424.4836" stroke="#333" stroke-width="1.5"/>
</g>
</g>
</g>
  <g>
  <line x1="443.9876" y1="480.0825" x2="472.438" y2="464.4401" stroke="#333" stroke-width="1.5"/>
  <g>
  <line x1="472.438" y1="464.4401" x2="482.8318" y2="447.2761" stroke="#333" stroke-width="1.5"/>
  <g>
  <line x1="482.8318" y1="447.2761" x2="483.0909" y2="434.8774" stroke="#333" stroke-width="1.5"/>
</g>
  <g>
  <line x1="482.8318" y1="447.2761" x2="493.6989" y2="441.3012" stroke="#333" stroke-width="1.5"/>
</g>
</g>
  <g>
  <line x1="472.438" y1="464.4401" x2="492.4994" y2="464.8594" stroke="#333" stroke-width="1.5"/>
  <g>
  <line x1="492.4994" y1="464.8594" x2="503.3665" y2="458.8845" stroke="#333" stroke-width="1.5"/>
</g>
  <g>
  <line x1="492.4994" y1="464.8594" x2="503.1073" y2="471.2831" stroke="#333" stroke-width="1.5"/>
</g>
</g>
</g>
</g>
</g>
  <polygon points="315,167 331.3779,427.594 497.8012,226.3957 357.8779,446.8474 610.7786,381.8957 368,478 610.7786,574.1043 357.8779,509.1526 497.8012,729.6043 331.3779,528.406 315,789 298.6221,528.406 132.1988,729.6043 272.1221,509.1526 19.2214,574.1043 262,478 19.2214,381.8957 272.1221,446.8474 132.1988,226.3957 298.6221,427.594" fill="none" stroke="#333" stroke-width="1.5"/>
  <polygon points="487,247 520.6788,305.3333 487,363.6667 554.3575,363.6667 588.0363,422 554.3575,480.3333 487,480.3333 520.6788,538.6667 487,597 554.3575,597 588.0363,655.3333 621.7151,597 689.0726,597 722.7514,655.3333 689.0726,713.6667 756.4301,713.6667 790.1089,772 722.7514,772 689.0726,713.6667 655.3938,772 588.0363,772 554.3575,713.6667 588.0363,655.3333 520.6788,655.3333 487,597 453.3212,655.3333 385.9637,655.3333 419.6425,713.6667 385.9637,772 318.6062,772 284.9274,713.6667 251.2486,772 183.8911,772 217.5699,713.6667 284.9274,713.6667 251.2486,655.3333 284.9274,597 352.2849,597 385.9637,655.3333 419.6425,597 487,597 453.3212,538.6667 487,480.3333 419.6425,480.3333 385.9637,422 419.6425,363.6667 487,363.6667 453.3212,305.3333" fill="none" stroke="#333" stroke-width="1"/>
</svg>